<?xml version="1.0" encoding="utf-8"?>
<!-- Generator: Adobe Illustrator 16.0.0, SVG Export Plug-In . SVG Version: 6.00 Build 0)  -->
<!DOCTYPE svg PUBLIC "-//W3C//DTD SVG 1.1//EN" "http://www.w3.org/Graphics/SVG/1.1/DTD/svg11.dtd" [
	<!ENTITY ns_extend "http://ns.adobe.com/Extensibility/1.0/">
	<!ENTITY ns_ai "http://ns.adobe.com/AdobeIllustrator/10.0/">
	<!ENTITY ns_graphs "http://ns.adobe.com/Graphs/1.0/">
	<!ENTITY ns_vars "http://ns.adobe.com/Variables/1.0/">
	<!ENTITY ns_imrep "http://ns.adobe.com/ImageReplacement/1.0/">
	<!ENTITY ns_sfw "http://ns.adobe.com/SaveForWeb/1.0/">
	<!ENTITY ns_custom "http://ns.adobe.com/GenericCustomNamespace/1.0/">
	<!ENTITY ns_adobe_xpath "http://ns.adobe.com/XPath/1.0/">
]>
<svg version="1.1" id="레이어_1" xmlns:x="&ns_extend;" xmlns:i="&ns_ai;" xmlns:graph="&ns_graphs;"
	 xmlns="http://www.w3.org/2000/svg" xmlns:xlink="http://www.w3.org/1999/xlink" x="0px" y="0px" width="595.281px"
	 height="283.464px" viewBox="0 0 595.281 283.464" enable-background="new 0 0 595.281 283.464" xml:space="preserve">
<metadata>
	<sfw  xmlns="&ns_sfw;">
		<slices></slices>
		<sliceSourceBounds  height="175.418" width="505.753" y="249.121" x="-13.641" bottomLeftOrigin="true"></sliceSourceBounds>
	</sfw>
</metadata>
<g>
	<g id="2f">
		<path fill="#62BFEA" d="M46.416,58.126c0,0.78-0.638,1.417-1.417,1.417h-7.415c-0.779,0-1.417-0.638-1.417-1.417v-6.415
			c0-0.78,0.639-1.417,1.417-1.417h7.415c0.78,0,1.417,0.638,1.417,1.417V58.126z"/>
		<path fill="#A6E0F4" d="M46.416,58.126c0,0.78-0.637,1.417-1.417,1.417c-0.779,0-1.417-0.638-1.417-1.417v-6.415
			c0-0.78,0.638-1.417,1.417-1.417c0.78,0,1.417,0.638,1.417,1.417V58.126z"/>
	</g>
	<g id="2e">
		<path fill="#62BFEA" d="M46.416,69.876c0,0.78-0.638,1.417-1.417,1.417h-7.415c-0.779,0-1.417-0.638-1.417-1.417v-6.415
			c0-0.78,0.639-1.417,1.417-1.417h7.415c0.78,0,1.417,0.638,1.417,1.417V69.876z"/>
		<path fill="#A6E0F4" d="M46.416,69.876c0,0.78-0.637,1.417-1.417,1.417c-0.779,0-1.417-0.638-1.417-1.417v-6.415
			c0-0.78,0.638-1.417,1.417-1.417c0.78,0,1.417,0.638,1.417,1.417V69.876z"/>
	</g>
	<g id="2d">
		<path fill="#62BFEA" d="M46.416,81.626c0,0.78-0.638,1.417-1.417,1.417h-7.415c-0.779,0-1.417-0.638-1.417-1.417v-6.415
			c0-0.78,0.639-1.417,1.417-1.417h7.415c0.78,0,1.417,0.638,1.417,1.417V81.626z"/>
		<path fill="#A6E0F4" d="M46.416,81.626c0,0.78-0.637,1.417-1.417,1.417c-0.779,0-1.417-0.638-1.417-1.417v-6.415
			c0-0.78,0.638-1.417,1.417-1.417c0.78,0,1.417,0.638,1.417,1.417V81.626z"/>
	</g>
	<g id="2c">
		<path fill="#62BFEA" d="M46.416,101.918c0,0.779-0.638,1.418-1.417,1.418h-7.415c-0.779,0-1.417-0.639-1.417-1.418v-6.416
			c0-0.78,0.639-1.417,1.417-1.417h7.415c0.78,0,1.417,0.638,1.417,1.417V101.918z"/>
		<path fill="#A6E0F4" d="M46.416,101.918c0,0.779-0.637,1.418-1.417,1.418c-0.779,0-1.417-0.639-1.417-1.418v-6.416
			c0-0.78,0.638-1.417,1.417-1.417c0.78,0,1.417,0.638,1.417,1.417V101.918z"/>
	</g>
	<g id="2b">
		<path fill="#62BFEA" d="M46.416,113.668c0,0.779-0.638,1.418-1.417,1.418h-7.415c-0.779,0-1.417-0.639-1.417-1.418v-6.416
			c0-0.777,0.639-1.416,1.417-1.416h7.415c0.78,0,1.417,0.639,1.417,1.416V113.668z"/>
		<path fill="#A6E0F4" d="M46.416,113.668c0,0.779-0.637,1.418-1.417,1.418c-0.779,0-1.417-0.639-1.417-1.418v-6.416
			c0-0.777,0.638-1.416,1.417-1.416c0.78,0,1.417,0.639,1.417,1.416V113.668z"/>
	</g>
	<g id="2a">
		<path fill="#62BFEA" d="M46.416,125.418c0,0.779-0.638,1.418-1.417,1.418h-7.415c-0.779,0-1.417-0.639-1.417-1.418v-6.416
			c0-0.777,0.639-1.416,1.417-1.416h7.415c0.78,0,1.417,0.639,1.417,1.416V125.418z"/>
		<path fill="#A6E0F4" d="M46.416,125.418c0,0.779-0.637,1.418-1.417,1.418c-0.779,0-1.417-0.639-1.417-1.418v-6.416
			c0-0.777,0.638-1.416,1.417-1.416c0.78,0,1.417,0.639,1.417,1.416V125.418z"/>
	</g>
	<g id="3f">
		<path fill="#62BFEA" d="M60.75,58.126c0,0.78-0.638,1.417-1.417,1.417h-7.415c-0.779,0-1.417-0.638-1.417-1.417v-6.415
			c0-0.78,0.639-1.417,1.417-1.417h7.415c0.78,0,1.417,0.638,1.417,1.417V58.126z"/>
		<path fill="#A6E0F4" d="M60.75,58.126c0,0.78-0.637,1.417-1.417,1.417c-0.779,0-1.417-0.638-1.417-1.417v-6.415
			c0-0.78,0.638-1.417,1.417-1.417c0.78,0,1.417,0.638,1.417,1.417V58.126z"/>
	</g>
	<g id="3e">
		<path fill="#62BFEA" d="M60.75,69.876c0,0.78-0.638,1.417-1.417,1.417h-7.415c-0.779,0-1.417-0.638-1.417-1.417v-6.415
			c0-0.78,0.639-1.417,1.417-1.417h7.415c0.78,0,1.417,0.638,1.417,1.417V69.876z"/>
		<path fill="#A6E0F4" d="M60.75,69.876c0,0.78-0.637,1.417-1.417,1.417c-0.779,0-1.417-0.638-1.417-1.417v-6.415
			c0-0.78,0.638-1.417,1.417-1.417c0.78,0,1.417,0.638,1.417,1.417V69.876z"/>
	</g>
	<g id="3d">
		<path fill="#62BFEA" d="M60.75,81.626c0,0.78-0.638,1.417-1.417,1.417h-7.415c-0.779,0-1.417-0.638-1.417-1.417v-6.415
			c0-0.78,0.639-1.417,1.417-1.417h7.415c0.78,0,1.417,0.638,1.417,1.417V81.626z"/>
		<path fill="#A6E0F4" d="M60.75,81.626c0,0.78-0.637,1.417-1.417,1.417c-0.779,0-1.417-0.638-1.417-1.417v-6.415
			c0-0.78,0.638-1.417,1.417-1.417c0.78,0,1.417,0.638,1.417,1.417V81.626z"/>
	</g>
	<g id="3c">
		<path fill="#62BFEA" d="M60.75,101.918c0,0.779-0.638,1.418-1.417,1.418h-7.415c-0.779,0-1.417-0.639-1.417-1.418v-6.416
			c0-0.78,0.639-1.417,1.417-1.417h7.415c0.78,0,1.417,0.638,1.417,1.417V101.918z"/>
		<path fill="#A6E0F4" d="M60.75,101.918c0,0.779-0.637,1.418-1.417,1.418c-0.779,0-1.417-0.639-1.417-1.418v-6.416
			c0-0.78,0.638-1.417,1.417-1.417c0.78,0,1.417,0.638,1.417,1.417V101.918z"/>
	</g>
	<g id="3b">
		<path fill="#62BFEA" d="M60.75,113.668c0,0.779-0.638,1.418-1.417,1.418h-7.415c-0.779,0-1.417-0.639-1.417-1.418v-6.416
			c0-0.777,0.639-1.416,1.417-1.416h7.415c0.78,0,1.417,0.639,1.417,1.416V113.668z"/>
		<path fill="#A6E0F4" d="M60.75,113.668c0,0.779-0.637,1.418-1.417,1.418c-0.779,0-1.417-0.639-1.417-1.418v-6.416
			c0-0.777,0.638-1.416,1.417-1.416c0.78,0,1.417,0.639,1.417,1.416V113.668z"/>
	</g>
	<g id="3a">
		<path fill="#62BFEA" d="M60.75,125.418c0,0.779-0.638,1.418-1.417,1.418h-7.415c-0.779,0-1.417-0.639-1.417-1.418v-6.416
			c0-0.777,0.639-1.416,1.417-1.416h7.415c0.78,0,1.417,0.639,1.417,1.416V125.418z"/>
		<path fill="#A6E0F4" d="M60.75,125.418c0,0.779-0.637,1.418-1.417,1.418c-0.779,0-1.417-0.639-1.417-1.418v-6.416
			c0-0.777,0.638-1.416,1.417-1.416c0.78,0,1.417,0.639,1.417,1.416V125.418z"/>
	</g>
	<g id="1c">
		<path fill="#62BFEA" d="M32.083,101.918c0,0.779-0.638,1.418-1.417,1.418h-7.415c-0.779,0-1.417-0.639-1.417-1.418v-6.416
			c0-0.78,0.639-1.417,1.417-1.417h7.415c0.78,0,1.417,0.638,1.417,1.417V101.918z"/>
		<path fill="#A6E0F4" d="M32.083,101.918c0,0.779-0.637,1.418-1.417,1.418c-0.779,0-1.417-0.639-1.417-1.418v-6.416
			c0-0.78,0.638-1.417,1.417-1.417c0.78,0,1.417,0.638,1.417,1.417V101.918z"/>
	</g>
	<g id="1b">
		<path fill="#62BFEA" d="M32.083,113.668c0,0.779-0.638,1.418-1.417,1.418h-7.415c-0.779,0-1.417-0.639-1.417-1.418v-6.416
			c0-0.777,0.639-1.416,1.417-1.416h7.415c0.78,0,1.417,0.639,1.417,1.416V113.668z"/>
		<path fill="#A6E0F4" d="M32.083,113.668c0,0.779-0.637,1.418-1.417,1.418c-0.779,0-1.417-0.639-1.417-1.418v-6.416
			c0-0.777,0.638-1.416,1.417-1.416c0.78,0,1.417,0.639,1.417,1.416V113.668z"/>
	</g>
	<g id="1a">
		<path fill="#62BFEA" d="M32.083,125.418c0,0.779-0.638,1.418-1.417,1.418h-7.415c-0.779,0-1.417-0.639-1.417-1.418v-6.416
			c0-0.777,0.639-1.416,1.417-1.416h7.415c0.78,0,1.417,0.639,1.417,1.416V125.418z"/>
		<path fill="#A6E0F4" d="M32.083,125.418c0,0.779-0.637,1.418-1.417,1.418c-0.779,0-1.417-0.639-1.417-1.418v-6.416
			c0-0.777,0.638-1.416,1.417-1.416c0.78,0,1.417,0.639,1.417,1.416V125.418z"/>
	</g>
	<g id="4f">
		<path fill="#62BFEA" d="M75.083,58.126c0,0.78-0.638,1.417-1.417,1.417h-7.415c-0.779,0-1.417-0.638-1.417-1.417v-6.415
			c0-0.78,0.639-1.417,1.417-1.417h7.415c0.78,0,1.417,0.638,1.417,1.417V58.126z"/>
		<path fill="#A6E0F4" d="M75.083,58.126c0,0.78-0.637,1.417-1.417,1.417c-0.779,0-1.417-0.638-1.417-1.417v-6.415
			c0-0.78,0.638-1.417,1.417-1.417c0.78,0,1.417,0.638,1.417,1.417V58.126z"/>
	</g>
	<g id="4e">
		<path fill="#62BFEA" d="M75.083,69.876c0,0.78-0.638,1.417-1.417,1.417h-7.415c-0.779,0-1.417-0.638-1.417-1.417v-6.415
			c0-0.78,0.639-1.417,1.417-1.417h7.415c0.78,0,1.417,0.638,1.417,1.417V69.876z"/>
		<path fill="#A6E0F4" d="M75.083,69.876c0,0.78-0.637,1.417-1.417,1.417c-0.779,0-1.417-0.638-1.417-1.417v-6.415
			c0-0.78,0.638-1.417,1.417-1.417c0.78,0,1.417,0.638,1.417,1.417V69.876z"/>
	</g>
	<g id="4d">
		<path fill="#62BFEA" d="M75.083,81.626c0,0.78-0.638,1.417-1.417,1.417h-7.415c-0.779,0-1.417-0.638-1.417-1.417v-6.415
			c0-0.78,0.639-1.417,1.417-1.417h7.415c0.78,0,1.417,0.638,1.417,1.417V81.626z"/>
		<path fill="#A6E0F4" d="M75.083,81.626c0,0.78-0.637,1.417-1.417,1.417c-0.779,0-1.417-0.638-1.417-1.417v-6.415
			c0-0.78,0.638-1.417,1.417-1.417c0.78,0,1.417,0.638,1.417,1.417V81.626z"/>
	</g>
	<g id="4c">
		<path fill="#62BFEA" d="M75.083,101.918c0,0.779-0.638,1.418-1.417,1.418h-7.415c-0.779,0-1.417-0.639-1.417-1.418v-6.416
			c0-0.78,0.639-1.417,1.417-1.417h7.415c0.78,0,1.417,0.638,1.417,1.417V101.918z"/>
		<path fill="#A6E0F4" d="M75.083,101.918c0,0.779-0.637,1.418-1.417,1.418c-0.779,0-1.417-0.639-1.417-1.418v-6.416
			c0-0.78,0.638-1.417,1.417-1.417c0.78,0,1.417,0.638,1.417,1.417V101.918z"/>
	</g>
	<g id="4b">
		<path fill="#62BFEA" d="M75.083,113.668c0,0.779-0.638,1.418-1.417,1.418h-7.415c-0.779,0-1.417-0.639-1.417-1.418v-6.416
			c0-0.777,0.639-1.416,1.417-1.416h7.415c0.78,0,1.417,0.639,1.417,1.416V113.668z"/>
		<path fill="#A6E0F4" d="M75.083,113.668c0,0.779-0.637,1.418-1.417,1.418c-0.779,0-1.417-0.639-1.417-1.418v-6.416
			c0-0.777,0.638-1.416,1.417-1.416c0.78,0,1.417,0.639,1.417,1.416V113.668z"/>
	</g>
	<g id="4a">
		<path fill="#62BFEA" d="M75.083,125.418c0,0.779-0.638,1.418-1.417,1.418h-7.415c-0.779,0-1.417-0.639-1.417-1.418v-6.416
			c0-0.777,0.639-1.416,1.417-1.416h7.415c0.78,0,1.417,0.639,1.417,1.416V125.418z"/>
		<path fill="#A6E0F4" d="M75.083,125.418c0,0.779-0.637,1.418-1.417,1.418c-0.779,0-1.417-0.639-1.417-1.418v-6.416
			c0-0.777,0.638-1.416,1.417-1.416c0.78,0,1.417,0.639,1.417,1.416V125.418z"/>
	</g>
	<g id="5f">
		<path fill="#62BFEA" d="M89.417,58.126c0,0.78-0.638,1.417-1.417,1.417h-7.415c-0.779,0-1.417-0.638-1.417-1.417v-6.415
			c0-0.78,0.639-1.417,1.417-1.417H88c0.78,0,1.417,0.638,1.417,1.417V58.126z"/>
		<path fill="#A6E0F4" d="M89.417,58.126c0,0.78-0.637,1.417-1.417,1.417c-0.779,0-1.417-0.638-1.417-1.417v-6.415
			c0-0.78,0.638-1.417,1.417-1.417c0.78,0,1.417,0.638,1.417,1.417V58.126z"/>
	</g>
	<g id="5e">
		<path fill="#62BFEA" d="M89.417,69.876c0,0.78-0.638,1.417-1.417,1.417h-7.415c-0.779,0-1.417-0.638-1.417-1.417v-6.415
			c0-0.78,0.639-1.417,1.417-1.417H88c0.78,0,1.417,0.638,1.417,1.417V69.876z"/>
		<path fill="#A6E0F4" d="M89.417,69.876c0,0.78-0.637,1.417-1.417,1.417c-0.779,0-1.417-0.638-1.417-1.417v-6.415
			c0-0.78,0.638-1.417,1.417-1.417c0.78,0,1.417,0.638,1.417,1.417V69.876z"/>
	</g>
	<g id="5d">
		<path fill="#62BFEA" d="M89.417,81.626c0,0.78-0.638,1.417-1.417,1.417h-7.415c-0.779,0-1.417-0.638-1.417-1.417v-6.415
			c0-0.78,0.639-1.417,1.417-1.417H88c0.78,0,1.417,0.638,1.417,1.417V81.626z"/>
		<path fill="#A6E0F4" d="M89.417,81.626c0,0.78-0.637,1.417-1.417,1.417c-0.779,0-1.417-0.638-1.417-1.417v-6.415
			c0-0.78,0.638-1.417,1.417-1.417c0.78,0,1.417,0.638,1.417,1.417V81.626z"/>
	</g>
	<g id="5c">
		<path fill="#62BFEA" d="M89.417,101.918c0,0.779-0.638,1.418-1.417,1.418h-7.415c-0.779,0-1.417-0.639-1.417-1.418v-6.416
			c0-0.78,0.639-1.417,1.417-1.417H88c0.78,0,1.417,0.638,1.417,1.417V101.918z"/>
		<path fill="#A6E0F4" d="M89.417,101.918c0,0.779-0.637,1.418-1.417,1.418c-0.779,0-1.417-0.639-1.417-1.418v-6.416
			c0-0.78,0.638-1.417,1.417-1.417c0.78,0,1.417,0.638,1.417,1.417V101.918z"/>
	</g>
	<g id="5b">
		<path fill="#62BFEA" d="M89.417,113.668c0,0.779-0.638,1.418-1.417,1.418h-7.415c-0.779,0-1.417-0.639-1.417-1.418v-6.416
			c0-0.777,0.639-1.416,1.417-1.416H88c0.78,0,1.417,0.639,1.417,1.416V113.668z"/>
		<path fill="#A6E0F4" d="M89.417,113.668c0,0.779-0.637,1.418-1.417,1.418c-0.779,0-1.417-0.639-1.417-1.418v-6.416
			c0-0.777,0.638-1.416,1.417-1.416c0.78,0,1.417,0.639,1.417,1.416V113.668z"/>
	</g>
	<g id="5a">
		<path fill="#62BFEA" d="M89.417,125.418c0,0.779-0.638,1.418-1.417,1.418h-7.415c-0.779,0-1.417-0.639-1.417-1.418v-6.416
			c0-0.777,0.639-1.416,1.417-1.416H88c0.78,0,1.417,0.639,1.417,1.416V125.418z"/>
		<path fill="#A6E0F4" d="M89.417,125.418c0,0.779-0.637,1.418-1.417,1.418c-0.779,0-1.417-0.639-1.417-1.418v-6.416
			c0-0.777,0.638-1.416,1.417-1.416c0.78,0,1.417,0.639,1.417,1.416V125.418z"/>
	</g>
	<g id="14f">
		<path fill="#62BFEA" d="M222.126,58.126c0,0.78-0.638,1.417-1.417,1.417h-7.415c-0.779,0-1.417-0.638-1.417-1.417v-6.415
			c0-0.78,0.639-1.417,1.417-1.417h7.415c0.78,0,1.417,0.638,1.417,1.417V58.126z"/>
		<path fill="#A6E0F4" d="M222.126,58.126c0,0.78-0.637,1.417-1.417,1.417c-0.779,0-1.417-0.638-1.417-1.417v-6.415
			c0-0.78,0.638-1.417,1.417-1.417c0.78,0,1.417,0.638,1.417,1.417V58.126z"/>
	</g>
	<g id="14e">
		<path fill="#62BFEA" d="M222.126,69.876c0,0.78-0.638,1.417-1.417,1.417h-7.415c-0.779,0-1.417-0.638-1.417-1.417v-6.415
			c0-0.78,0.639-1.417,1.417-1.417h7.415c0.78,0,1.417,0.638,1.417,1.417V69.876z"/>
		<path fill="#A6E0F4" d="M222.126,69.876c0,0.78-0.637,1.417-1.417,1.417c-0.779,0-1.417-0.638-1.417-1.417v-6.415
			c0-0.78,0.638-1.417,1.417-1.417c0.78,0,1.417,0.638,1.417,1.417V69.876z"/>
	</g>
	<g id="14d">
		<path fill="#62BFEA" d="M222.126,81.626c0,0.78-0.638,1.417-1.417,1.417h-7.415c-0.779,0-1.417-0.638-1.417-1.417v-6.415
			c0-0.78,0.639-1.417,1.417-1.417h7.415c0.78,0,1.417,0.638,1.417,1.417V81.626z"/>
		<path fill="#A6E0F4" d="M222.126,81.626c0,0.78-0.637,1.417-1.417,1.417c-0.779,0-1.417-0.638-1.417-1.417v-6.415
			c0-0.78,0.638-1.417,1.417-1.417c0.78,0,1.417,0.638,1.417,1.417V81.626z"/>
	</g>
	<g id="14c">
		<path fill="#62BFEA" d="M222.126,101.918c0,0.779-0.638,1.418-1.417,1.418h-7.415c-0.779,0-1.417-0.639-1.417-1.418v-6.416
			c0-0.78,0.639-1.417,1.417-1.417h7.415c0.78,0,1.417,0.638,1.417,1.417V101.918z"/>
		<path fill="#A6E0F4" d="M222.126,101.918c0,0.779-0.637,1.418-1.417,1.418c-0.779,0-1.417-0.639-1.417-1.418v-6.416
			c0-0.78,0.638-1.417,1.417-1.417c0.78,0,1.417,0.638,1.417,1.417V101.918z"/>
	</g>
	<g id="14b">
		<path fill="#62BFEA" d="M222.126,113.668c0,0.779-0.638,1.418-1.417,1.418h-7.415c-0.779,0-1.417-0.639-1.417-1.418v-6.416
			c0-0.777,0.639-1.416,1.417-1.416h7.415c0.78,0,1.417,0.639,1.417,1.416V113.668z"/>
		<path fill="#A6E0F4" d="M222.126,113.668c0,0.779-0.637,1.418-1.417,1.418c-0.779,0-1.417-0.639-1.417-1.418v-6.416
			c0-0.777,0.638-1.416,1.417-1.416c0.78,0,1.417,0.639,1.417,1.416V113.668z"/>
	</g>
	<g id="14a">
		<path fill="#62BFEA" d="M222.126,125.418c0,0.779-0.638,1.418-1.417,1.418h-7.415c-0.779,0-1.417-0.639-1.417-1.418v-6.416
			c0-0.777,0.639-1.416,1.417-1.416h7.415c0.78,0,1.417,0.639,1.417,1.416V125.418z"/>
		<path fill="#A6E0F4" d="M222.126,125.418c0,0.779-0.637,1.418-1.417,1.418c-0.779,0-1.417-0.639-1.417-1.418v-6.416
			c0-0.777,0.638-1.416,1.417-1.416c0.78,0,1.417,0.639,1.417,1.416V125.418z"/>
	</g>
	<g id="15f">
		<path fill="#62BFEA" d="M238.001,58.126c0,0.78-0.638,1.417-1.417,1.417h-7.415c-0.779,0-1.417-0.638-1.417-1.417v-6.415
			c0-0.78,0.639-1.417,1.417-1.417h7.415c0.78,0,1.417,0.638,1.417,1.417V58.126z"/>
		<path fill="#A6E0F4" d="M238.001,58.126c0,0.78-0.637,1.417-1.417,1.417c-0.779,0-1.417-0.638-1.417-1.417v-6.415
			c0-0.78,0.638-1.417,1.417-1.417c0.78,0,1.417,0.638,1.417,1.417V58.126z"/>
	</g>
	<g id="15e">
		<path fill="#62BFEA" d="M238.001,69.876c0,0.78-0.638,1.417-1.417,1.417h-7.415c-0.779,0-1.417-0.638-1.417-1.417v-6.415
			c0-0.78,0.639-1.417,1.417-1.417h7.415c0.78,0,1.417,0.638,1.417,1.417V69.876z"/>
		<path fill="#A6E0F4" d="M238.001,69.876c0,0.78-0.637,1.417-1.417,1.417c-0.779,0-1.417-0.638-1.417-1.417v-6.415
			c0-0.78,0.638-1.417,1.417-1.417c0.78,0,1.417,0.638,1.417,1.417V69.876z"/>
	</g>
	<g id="15d">
		<path fill="#62BFEA" d="M238.001,81.626c0,0.78-0.638,1.417-1.417,1.417h-7.415c-0.779,0-1.417-0.638-1.417-1.417v-6.415
			c0-0.78,0.639-1.417,1.417-1.417h7.415c0.78,0,1.417,0.638,1.417,1.417V81.626z"/>
		<path fill="#A6E0F4" d="M238.001,81.626c0,0.78-0.637,1.417-1.417,1.417c-0.779,0-1.417-0.638-1.417-1.417v-6.415
			c0-0.78,0.638-1.417,1.417-1.417c0.78,0,1.417,0.638,1.417,1.417V81.626z"/>
	</g>
	<g id="16f">
		<path fill="#62BFEA" d="M252.501,58.126c0,0.78-0.638,1.417-1.417,1.417h-7.415c-0.779,0-1.417-0.638-1.417-1.417v-6.415
			c0-0.78,0.639-1.417,1.417-1.417h7.415c0.78,0,1.417,0.638,1.417,1.417V58.126z"/>
		<path fill="#A6E0F4" d="M252.501,58.126c0,0.78-0.637,1.417-1.417,1.417c-0.779,0-1.417-0.638-1.417-1.417v-6.415
			c0-0.78,0.638-1.417,1.417-1.417c0.78,0,1.417,0.638,1.417,1.417V58.126z"/>
	</g>
	<g id="16e">
		<path fill="#62BFEA" d="M252.501,69.876c0,0.78-0.638,1.417-1.417,1.417h-7.415c-0.779,0-1.417-0.638-1.417-1.417v-6.415
			c0-0.78,0.639-1.417,1.417-1.417h7.415c0.78,0,1.417,0.638,1.417,1.417V69.876z"/>
		<path fill="#A6E0F4" d="M252.501,69.876c0,0.78-0.637,1.417-1.417,1.417c-0.779,0-1.417-0.638-1.417-1.417v-6.415
			c0-0.78,0.638-1.417,1.417-1.417c0.78,0,1.417,0.638,1.417,1.417V69.876z"/>
	</g>
	<g id="16d">
		<path fill="#62BFEA" d="M252.501,81.626c0,0.78-0.638,1.417-1.417,1.417h-7.415c-0.779,0-1.417-0.638-1.417-1.417v-6.415
			c0-0.78,0.639-1.417,1.417-1.417h7.415c0.78,0,1.417,0.638,1.417,1.417V81.626z"/>
		<path fill="#A6E0F4" d="M252.501,81.626c0,0.78-0.637,1.417-1.417,1.417c-0.779,0-1.417-0.638-1.417-1.417v-6.415
			c0-0.78,0.638-1.417,1.417-1.417c0.78,0,1.417,0.638,1.417,1.417V81.626z"/>
	</g>
	<g id="15c">
		<path fill="#62BFEA" d="M238.001,101.918c0,0.779-0.638,1.418-1.417,1.418h-7.415c-0.779,0-1.417-0.639-1.417-1.418v-6.416
			c0-0.78,0.639-1.417,1.417-1.417h7.415c0.78,0,1.417,0.638,1.417,1.417V101.918z"/>
		<path fill="#A6E0F4" d="M238.001,101.918c0,0.779-0.637,1.418-1.417,1.418c-0.779,0-1.417-0.639-1.417-1.418v-6.416
			c0-0.78,0.638-1.417,1.417-1.417c0.78,0,1.417,0.638,1.417,1.417V101.918z"/>
	</g>
	<g id="15b">
		<path fill="#62BFEA" d="M238.001,113.668c0,0.779-0.638,1.418-1.417,1.418h-7.415c-0.779,0-1.417-0.639-1.417-1.418v-6.416
			c0-0.777,0.639-1.416,1.417-1.416h7.415c0.78,0,1.417,0.639,1.417,1.416V113.668z"/>
		<path fill="#A6E0F4" d="M238.001,113.668c0,0.779-0.637,1.418-1.417,1.418c-0.779,0-1.417-0.639-1.417-1.418v-6.416
			c0-0.777,0.638-1.416,1.417-1.416c0.78,0,1.417,0.639,1.417,1.416V113.668z"/>
	</g>
	<g id="15a">
		<path fill="#62BFEA" d="M238.001,125.418c0,0.779-0.638,1.418-1.417,1.418h-7.415c-0.779,0-1.417-0.639-1.417-1.418v-6.416
			c0-0.777,0.639-1.416,1.417-1.416h7.415c0.78,0,1.417,0.639,1.417,1.416V125.418z"/>
		<path fill="#A6E0F4" d="M238.001,125.418c0,0.779-0.637,1.418-1.417,1.418c-0.779,0-1.417-0.639-1.417-1.418v-6.416
			c0-0.777,0.638-1.416,1.417-1.416c0.78,0,1.417,0.639,1.417,1.416V125.418z"/>
	</g>
	<g id="16c">
		<path fill="#62BFEA" d="M252.5,101.918c0,0.779-0.638,1.418-1.417,1.418h-7.415c-0.779,0-1.417-0.639-1.417-1.418v-6.416
			c0-0.78,0.639-1.417,1.417-1.417h7.415c0.78,0,1.417,0.638,1.417,1.417V101.918z"/>
		<path fill="#A6E0F4" d="M252.5,101.918c0,0.779-0.637,1.418-1.416,1.418c-0.778,0-1.416-0.639-1.416-1.418v-6.416
			c0-0.78,0.638-1.417,1.416-1.417c0.779,0,1.416,0.638,1.416,1.417V101.918z"/>
	</g>
	<g id="16b">
		<path fill="#62BFEA" d="M252.5,113.668c0,0.779-0.638,1.418-1.417,1.418h-7.415c-0.779,0-1.417-0.639-1.417-1.418v-6.416
			c0-0.777,0.639-1.416,1.417-1.416h7.415c0.78,0,1.417,0.639,1.417,1.416V113.668z"/>
		<path fill="#A6E0F4" d="M252.5,113.668c0,0.779-0.637,1.418-1.416,1.418c-0.778,0-1.416-0.639-1.416-1.418v-6.416
			c0-0.777,0.638-1.416,1.416-1.416c0.779,0,1.416,0.639,1.416,1.416V113.668z"/>
	</g>
	<g id="16a">
		<path fill="#62BFEA" d="M252.5,125.418c0,0.779-0.638,1.418-1.417,1.418h-7.415c-0.779,0-1.417-0.639-1.417-1.418v-6.416
			c0-0.777,0.639-1.416,1.417-1.416h7.415c0.78,0,1.417,0.639,1.417,1.416V125.418z"/>
		<path fill="#A6E0F4" d="M252.5,125.418c0,0.779-0.637,1.418-1.416,1.418c-0.778,0-1.416-0.639-1.416-1.418v-6.416
			c0-0.777,0.638-1.416,1.416-1.416c0.779,0,1.416,0.639,1.416,1.416V125.418z"/>
	</g>
</g>
<g>
	<g id="6f">
		<path fill="#BABABA" d="M103.75,58.126c0,0.78-0.638,1.417-1.417,1.417h-7.415c-0.779,0-1.417-0.638-1.417-1.417v-6.415
			c0-0.78,0.639-1.417,1.417-1.417h7.415c0.78,0,1.417,0.638,1.417,1.417V58.126z"/>
		<path fill="#E0E0E0" d="M103.75,58.126c0,0.78-0.637,1.417-1.417,1.417c-0.779,0-1.417-0.638-1.417-1.417v-6.415
			c0-0.78,0.638-1.417,1.417-1.417c0.78,0,1.417,0.638,1.417,1.417V58.126z"/>
	</g>
	<g id="6e">
		<path fill="#BABABA" d="M103.75,69.876c0,0.78-0.638,1.417-1.417,1.417h-7.415c-0.779,0-1.417-0.638-1.417-1.417v-6.415
			c0-0.78,0.639-1.417,1.417-1.417h7.415c0.78,0,1.417,0.638,1.417,1.417V69.876z"/>
		<path fill="#E0E0E0" d="M103.75,69.876c0,0.78-0.637,1.417-1.417,1.417c-0.779,0-1.417-0.638-1.417-1.417v-6.415
			c0-0.78,0.638-1.417,1.417-1.417c0.78,0,1.417,0.638,1.417,1.417V69.876z"/>
	</g>
	<g id="6d">
		<path fill="#BABABA" d="M103.75,81.626c0,0.78-0.638,1.417-1.417,1.417h-7.415c-0.779,0-1.417-0.638-1.417-1.417v-6.415
			c0-0.78,0.639-1.417,1.417-1.417h7.415c0.78,0,1.417,0.638,1.417,1.417V81.626z"/>
		<path fill="#E0E0E0" d="M103.75,81.626c0,0.78-0.637,1.417-1.417,1.417c-0.779,0-1.417-0.638-1.417-1.417v-6.415
			c0-0.78,0.638-1.417,1.417-1.417c0.78,0,1.417,0.638,1.417,1.417V81.626z"/>
	</g>
	<g id="6c">
		<path fill="#BABABA" d="M103.75,101.918c0,0.779-0.638,1.418-1.417,1.418h-7.415c-0.779,0-1.417-0.639-1.417-1.418v-6.416
			c0-0.78,0.639-1.417,1.417-1.417h7.415c0.78,0,1.417,0.638,1.417,1.417V101.918z"/>
		<path fill="#E0E0E0" d="M103.75,101.918c0,0.779-0.637,1.418-1.417,1.418c-0.779,0-1.417-0.639-1.417-1.418v-6.416
			c0-0.78,0.638-1.417,1.417-1.417c0.78,0,1.417,0.638,1.417,1.417V101.918z"/>
	</g>
	<g id="6b">
		<path fill="#BABABA" d="M103.75,113.668c0,0.779-0.638,1.418-1.417,1.418h-7.415c-0.779,0-1.417-0.639-1.417-1.418v-6.416
			c0-0.777,0.639-1.416,1.417-1.416h7.415c0.78,0,1.417,0.639,1.417,1.416V113.668z"/>
		<path fill="#E0E0E0" d="M103.75,113.668c0,0.779-0.637,1.418-1.417,1.418c-0.779,0-1.417-0.639-1.417-1.418v-6.416
			c0-0.777,0.638-1.416,1.417-1.416c0.78,0,1.417,0.639,1.417,1.416V113.668z"/>
	</g>
	<g id="6a">
		<path fill="#BABABA" d="M103.75,125.418c0,0.779-0.638,1.418-1.417,1.418h-7.415c-0.779,0-1.417-0.639-1.417-1.418v-6.416
			c0-0.777,0.639-1.416,1.417-1.416h7.415c0.78,0,1.417,0.639,1.417,1.416V125.418z"/>
		<path fill="#E0E0E0" d="M103.75,125.418c0,0.779-0.637,1.418-1.417,1.418c-0.779,0-1.417-0.639-1.417-1.418v-6.416
			c0-0.777,0.638-1.416,1.417-1.416c0.78,0,1.417,0.639,1.417,1.416V125.418z"/>
	</g>
	<g id="7f">
		<path fill="#BABABA" d="M118.084,58.126c0,0.78-0.638,1.417-1.417,1.417h-7.415c-0.779,0-1.417-0.638-1.417-1.417v-6.415
			c0-0.78,0.639-1.417,1.417-1.417h7.415c0.78,0,1.417,0.638,1.417,1.417V58.126z"/>
		<path fill="#E0E0E0" d="M118.084,58.126c0,0.78-0.637,1.417-1.417,1.417c-0.779,0-1.417-0.638-1.417-1.417v-6.415
			c0-0.78,0.638-1.417,1.417-1.417c0.78,0,1.417,0.638,1.417,1.417V58.126z"/>
	</g>
	<g id="7e">
		<path fill="#BABABA" d="M118.084,69.876c0,0.78-0.638,1.417-1.417,1.417h-7.415c-0.779,0-1.417-0.638-1.417-1.417v-6.415
			c0-0.78,0.639-1.417,1.417-1.417h7.415c0.78,0,1.417,0.638,1.417,1.417V69.876z"/>
		<path fill="#E0E0E0" d="M118.084,69.876c0,0.78-0.637,1.417-1.417,1.417c-0.779,0-1.417-0.638-1.417-1.417v-6.415
			c0-0.78,0.638-1.417,1.417-1.417c0.78,0,1.417,0.638,1.417,1.417V69.876z"/>
	</g>
	<g id="7d">
		<path fill="#BABABA" d="M118.084,81.626c0,0.78-0.638,1.417-1.417,1.417h-7.415c-0.779,0-1.417-0.638-1.417-1.417v-6.415
			c0-0.78,0.639-1.417,1.417-1.417h7.415c0.78,0,1.417,0.638,1.417,1.417V81.626z"/>
		<path fill="#E0E0E0" d="M118.084,81.626c0,0.78-0.637,1.417-1.417,1.417c-0.779,0-1.417-0.638-1.417-1.417v-6.415
			c0-0.78,0.638-1.417,1.417-1.417c0.78,0,1.417,0.638,1.417,1.417V81.626z"/>
	</g>
	<g id="7c">
		<path fill="#BABABA" d="M118.084,101.918c0,0.779-0.638,1.418-1.417,1.418h-7.415c-0.779,0-1.417-0.639-1.417-1.418v-6.416
			c0-0.78,0.639-1.417,1.417-1.417h7.415c0.78,0,1.417,0.638,1.417,1.417V101.918z"/>
		<path fill="#E0E0E0" d="M118.084,101.918c0,0.779-0.637,1.418-1.417,1.418c-0.779,0-1.417-0.639-1.417-1.418v-6.416
			c0-0.78,0.638-1.417,1.417-1.417c0.78,0,1.417,0.638,1.417,1.417V101.918z"/>
	</g>
	<g id="7b">
		<path fill="#BABABA" d="M118.084,113.668c0,0.779-0.638,1.418-1.417,1.418h-7.415c-0.779,0-1.417-0.639-1.417-1.418v-6.416
			c0-0.777,0.639-1.416,1.417-1.416h7.415c0.78,0,1.417,0.639,1.417,1.416V113.668z"/>
		<path fill="#E0E0E0" d="M118.084,113.668c0,0.779-0.637,1.418-1.417,1.418c-0.779,0-1.417-0.639-1.417-1.418v-6.416
			c0-0.777,0.638-1.416,1.417-1.416c0.78,0,1.417,0.639,1.417,1.416V113.668z"/>
	</g>
	<g id="7a">
		<path fill="#BABABA" d="M118.084,125.418c0,0.779-0.638,1.418-1.417,1.418h-7.415c-0.779,0-1.417-0.639-1.417-1.418v-6.416
			c0-0.777,0.639-1.416,1.417-1.416h7.415c0.78,0,1.417,0.639,1.417,1.416V125.418z"/>
		<path fill="#E0E0E0" d="M118.084,125.418c0,0.779-0.637,1.418-1.417,1.418c-0.779,0-1.417-0.639-1.417-1.418v-6.416
			c0-0.777,0.638-1.416,1.417-1.416c0.78,0,1.417,0.639,1.417,1.416V125.418z"/>
	</g>
	<g id="8f">
		<path fill="#BABABA" d="M132.417,58.126c0,0.78-0.638,1.417-1.417,1.417h-7.415c-0.779,0-1.417-0.638-1.417-1.417v-6.415
			c0-0.78,0.639-1.417,1.417-1.417H131c0.78,0,1.417,0.638,1.417,1.417V58.126z"/>
		<path fill="#E0E0E0" d="M132.417,58.126c0,0.78-0.637,1.417-1.417,1.417c-0.779,0-1.417-0.638-1.417-1.417v-6.415
			c0-0.78,0.638-1.417,1.417-1.417c0.78,0,1.417,0.638,1.417,1.417V58.126z"/>
	</g>
	<g id="8e">
		<path fill="#BABABA" d="M132.417,69.876c0,0.78-0.638,1.417-1.417,1.417h-7.415c-0.779,0-1.417-0.638-1.417-1.417v-6.415
			c0-0.78,0.639-1.417,1.417-1.417H131c0.78,0,1.417,0.638,1.417,1.417V69.876z"/>
		<path fill="#E0E0E0" d="M132.417,69.876c0,0.78-0.637,1.417-1.417,1.417c-0.779,0-1.417-0.638-1.417-1.417v-6.415
			c0-0.78,0.638-1.417,1.417-1.417c0.78,0,1.417,0.638,1.417,1.417V69.876z"/>
	</g>
	<g id="8d">
		<path fill="#BABABA" d="M132.417,81.626c0,0.78-0.638,1.417-1.417,1.417h-7.415c-0.779,0-1.417-0.638-1.417-1.417v-6.415
			c0-0.78,0.639-1.417,1.417-1.417H131c0.78,0,1.417,0.638,1.417,1.417V81.626z"/>
		<path fill="#E0E0E0" d="M132.417,81.626c0,0.78-0.637,1.417-1.417,1.417c-0.779,0-1.417-0.638-1.417-1.417v-6.415
			c0-0.78,0.638-1.417,1.417-1.417c0.78,0,1.417,0.638,1.417,1.417V81.626z"/>
	</g>
	<g id="8c">
		<path fill="#BABABA" d="M132.417,101.918c0,0.779-0.638,1.418-1.417,1.418h-7.415c-0.779,0-1.417-0.639-1.417-1.418v-6.416
			c0-0.78,0.639-1.417,1.417-1.417H131c0.78,0,1.417,0.638,1.417,1.417V101.918z"/>
		<path fill="#E0E0E0" d="M132.417,101.918c0,0.779-0.637,1.418-1.417,1.418c-0.779,0-1.417-0.639-1.417-1.418v-6.416
			c0-0.78,0.638-1.417,1.417-1.417c0.78,0,1.417,0.638,1.417,1.417V101.918z"/>
	</g>
	<g id="8b">
		<path fill="#BABABA" d="M132.417,113.668c0,0.779-0.638,1.418-1.417,1.418h-7.415c-0.779,0-1.417-0.639-1.417-1.418v-6.416
			c0-0.777,0.639-1.416,1.417-1.416H131c0.78,0,1.417,0.639,1.417,1.416V113.668z"/>
		<path fill="#E0E0E0" d="M132.417,113.668c0,0.779-0.637,1.418-1.417,1.418c-0.779,0-1.417-0.639-1.417-1.418v-6.416
			c0-0.777,0.638-1.416,1.417-1.416c0.78,0,1.417,0.639,1.417,1.416V113.668z"/>
	</g>
	<g id="8a">
		<path fill="#BABABA" d="M132.417,125.418c0,0.779-0.638,1.418-1.417,1.418h-7.415c-0.779,0-1.417-0.639-1.417-1.418v-6.416
			c0-0.777,0.639-1.416,1.417-1.416H131c0.78,0,1.417,0.639,1.417,1.416V125.418z"/>
		<path fill="#E0E0E0" d="M132.417,125.418c0,0.779-0.637,1.418-1.417,1.418c-0.779,0-1.417-0.639-1.417-1.418v-6.416
			c0-0.777,0.638-1.416,1.417-1.416c0.78,0,1.417,0.639,1.417,1.416V125.418z"/>
	</g>
	<g id="9f">
		<path fill="#BABABA" d="M146.751,58.126c0,0.78-0.638,1.417-1.417,1.417h-7.415c-0.779,0-1.417-0.638-1.417-1.417v-6.415
			c0-0.78,0.639-1.417,1.417-1.417h7.415c0.78,0,1.417,0.638,1.417,1.417V58.126z"/>
		<path fill="#E0E0E0" d="M146.751,58.126c0,0.78-0.637,1.417-1.417,1.417c-0.779,0-1.417-0.638-1.417-1.417v-6.415
			c0-0.78,0.638-1.417,1.417-1.417c0.78,0,1.417,0.638,1.417,1.417V58.126z"/>
	</g>
	<g id="9e">
		<path fill="#BABABA" d="M146.751,69.876c0,0.78-0.638,1.417-1.417,1.417h-7.415c-0.779,0-1.417-0.638-1.417-1.417v-6.415
			c0-0.78,0.639-1.417,1.417-1.417h7.415c0.78,0,1.417,0.638,1.417,1.417V69.876z"/>
		<path fill="#E0E0E0" d="M146.751,69.876c0,0.78-0.637,1.417-1.417,1.417c-0.779,0-1.417-0.638-1.417-1.417v-6.415
			c0-0.78,0.638-1.417,1.417-1.417c0.78,0,1.417,0.638,1.417,1.417V69.876z"/>
	</g>
	<g id="9d">
		<path fill="#BABABA" d="M146.751,81.626c0,0.78-0.638,1.417-1.417,1.417h-7.415c-0.779,0-1.417-0.638-1.417-1.417v-6.415
			c0-0.78,0.639-1.417,1.417-1.417h7.415c0.78,0,1.417,0.638,1.417,1.417V81.626z"/>
		<path fill="#E0E0E0" d="M146.751,81.626c0,0.78-0.637,1.417-1.417,1.417c-0.779,0-1.417-0.638-1.417-1.417v-6.415
			c0-0.78,0.638-1.417,1.417-1.417c0.78,0,1.417,0.638,1.417,1.417V81.626z"/>
	</g>
	<g id="9c">
		<path fill="#BABABA" d="M146.751,101.918c0,0.779-0.638,1.418-1.417,1.418h-7.415c-0.779,0-1.417-0.639-1.417-1.418v-6.416
			c0-0.78,0.639-1.417,1.417-1.417h7.415c0.78,0,1.417,0.638,1.417,1.417V101.918z"/>
		<path fill="#E0E0E0" d="M146.751,101.918c0,0.779-0.637,1.418-1.417,1.418c-0.779,0-1.417-0.639-1.417-1.418v-6.416
			c0-0.78,0.638-1.417,1.417-1.417c0.78,0,1.417,0.638,1.417,1.417V101.918z"/>
	</g>
	<g id="9b">
		<path fill="#BABABA" d="M146.751,113.668c0,0.779-0.638,1.418-1.417,1.418h-7.415c-0.779,0-1.417-0.639-1.417-1.418v-6.416
			c0-0.777,0.639-1.416,1.417-1.416h7.415c0.78,0,1.417,0.639,1.417,1.416V113.668z"/>
		<path fill="#E0E0E0" d="M146.751,113.668c0,0.779-0.637,1.418-1.417,1.418c-0.779,0-1.417-0.639-1.417-1.418v-6.416
			c0-0.777,0.638-1.416,1.417-1.416c0.78,0,1.417,0.639,1.417,1.416V113.668z"/>
	</g>
	<g id="9a">
		<path fill="#BABABA" d="M146.751,125.418c0,0.779-0.638,1.418-1.417,1.418h-7.415c-0.779,0-1.417-0.639-1.417-1.418v-6.416
			c0-0.777,0.639-1.416,1.417-1.416h7.415c0.78,0,1.417,0.639,1.417,1.416V125.418z"/>
		<path fill="#E0E0E0" d="M146.751,125.418c0,0.779-0.637,1.418-1.417,1.418c-0.779,0-1.417-0.639-1.417-1.418v-6.416
			c0-0.777,0.638-1.416,1.417-1.416c0.78,0,1.417,0.639,1.417,1.416V125.418z"/>
	</g>
	<g id="10f">
		<path fill="#BABABA" d="M161.084,58.126c0,0.78-0.638,1.417-1.417,1.417h-7.415c-0.779,0-1.417-0.638-1.417-1.417v-6.415
			c0-0.78,0.639-1.417,1.417-1.417h7.415c0.78,0,1.417,0.638,1.417,1.417V58.126z"/>
		<path fill="#E0E0E0" d="M161.084,58.126c0,0.78-0.637,1.417-1.417,1.417c-0.779,0-1.417-0.638-1.417-1.417v-6.415
			c0-0.78,0.638-1.417,1.417-1.417c0.78,0,1.417,0.638,1.417,1.417V58.126z"/>
	</g>
	<g id="10e">
		<path fill="#BABABA" d="M161.084,69.876c0,0.78-0.638,1.417-1.417,1.417h-7.415c-0.779,0-1.417-0.638-1.417-1.417v-6.415
			c0-0.78,0.639-1.417,1.417-1.417h7.415c0.78,0,1.417,0.638,1.417,1.417V69.876z"/>
		<path fill="#E0E0E0" d="M161.084,69.876c0,0.78-0.637,1.417-1.417,1.417c-0.779,0-1.417-0.638-1.417-1.417v-6.415
			c0-0.78,0.638-1.417,1.417-1.417c0.78,0,1.417,0.638,1.417,1.417V69.876z"/>
	</g>
	<g id="10d">
		<path fill="#BABABA" d="M161.084,81.626c0,0.78-0.638,1.417-1.417,1.417h-7.415c-0.779,0-1.417-0.638-1.417-1.417v-6.415
			c0-0.78,0.639-1.417,1.417-1.417h7.415c0.78,0,1.417,0.638,1.417,1.417V81.626z"/>
		<path fill="#E0E0E0" d="M161.084,81.626c0,0.78-0.637,1.417-1.417,1.417c-0.779,0-1.417-0.638-1.417-1.417v-6.415
			c0-0.78,0.638-1.417,1.417-1.417c0.78,0,1.417,0.638,1.417,1.417V81.626z"/>
	</g>
	<g id="10c">
		<path fill="#BABABA" d="M161.084,101.918c0,0.779-0.638,1.418-1.417,1.418h-7.415c-0.779,0-1.417-0.639-1.417-1.418v-6.416
			c0-0.78,0.639-1.417,1.417-1.417h7.415c0.78,0,1.417,0.638,1.417,1.417V101.918z"/>
		<path fill="#E0E0E0" d="M161.084,101.918c0,0.779-0.637,1.418-1.417,1.418c-0.779,0-1.417-0.639-1.417-1.418v-6.416
			c0-0.78,0.638-1.417,1.417-1.417c0.78,0,1.417,0.638,1.417,1.417V101.918z"/>
	</g>
	<g id="10b">
		<path fill="#BABABA" d="M161.084,113.668c0,0.779-0.638,1.418-1.417,1.418h-7.415c-0.779,0-1.417-0.639-1.417-1.418v-6.416
			c0-0.777,0.639-1.416,1.417-1.416h7.415c0.78,0,1.417,0.639,1.417,1.416V113.668z"/>
		<path fill="#E0E0E0" d="M161.084,113.668c0,0.779-0.637,1.418-1.417,1.418c-0.779,0-1.417-0.639-1.417-1.418v-6.416
			c0-0.777,0.638-1.416,1.417-1.416c0.78,0,1.417,0.639,1.417,1.416V113.668z"/>
	</g>
	<g id="10a">
		<path fill="#BABABA" d="M161.084,125.418c0,0.779-0.638,1.418-1.417,1.418h-7.415c-0.779,0-1.417-0.639-1.417-1.418v-6.416
			c0-0.777,0.639-1.416,1.417-1.416h7.415c0.78,0,1.417,0.639,1.417,1.416V125.418z"/>
		<path fill="#E0E0E0" d="M161.084,125.418c0,0.779-0.637,1.418-1.417,1.418c-0.779,0-1.417-0.639-1.417-1.418v-6.416
			c0-0.777,0.638-1.416,1.417-1.416c0.78,0,1.417,0.639,1.417,1.416V125.418z"/>
	</g>
	<g id="11f">
		<path fill="#BABABA" d="M175.418,58.126c0,0.78-0.638,1.417-1.417,1.417h-7.415c-0.779,0-1.417-0.638-1.417-1.417v-6.415
			c0-0.78,0.639-1.417,1.417-1.417h7.415c0.78,0,1.417,0.638,1.417,1.417V58.126z"/>
		<path fill="#E0E0E0" d="M175.418,58.126c0,0.78-0.637,1.417-1.417,1.417c-0.779,0-1.417-0.638-1.417-1.417v-6.415
			c0-0.78,0.638-1.417,1.417-1.417c0.78,0,1.417,0.638,1.417,1.417V58.126z"/>
	</g>
	<g id="11e">
		<path fill="#BABABA" d="M175.418,69.876c0,0.78-0.638,1.417-1.417,1.417h-7.415c-0.779,0-1.417-0.638-1.417-1.417v-6.415
			c0-0.78,0.639-1.417,1.417-1.417h7.415c0.78,0,1.417,0.638,1.417,1.417V69.876z"/>
		<path fill="#E0E0E0" d="M175.418,69.876c0,0.78-0.637,1.417-1.417,1.417c-0.779,0-1.417-0.638-1.417-1.417v-6.415
			c0-0.78,0.638-1.417,1.417-1.417c0.78,0,1.417,0.638,1.417,1.417V69.876z"/>
	</g>
	<g id="11d">
		<path fill="#BABABA" d="M175.418,81.626c0,0.78-0.638,1.417-1.417,1.417h-7.415c-0.779,0-1.417-0.638-1.417-1.417v-6.415
			c0-0.78,0.639-1.417,1.417-1.417h7.415c0.78,0,1.417,0.638,1.417,1.417V81.626z"/>
		<path fill="#E0E0E0" d="M175.418,81.626c0,0.78-0.637,1.417-1.417,1.417c-0.779,0-1.417-0.638-1.417-1.417v-6.415
			c0-0.78,0.638-1.417,1.417-1.417c0.78,0,1.417,0.638,1.417,1.417V81.626z"/>
	</g>
	<g id="11c">
		<path fill="#BABABA" d="M175.418,101.918c0,0.779-0.638,1.418-1.417,1.418h-7.415c-0.779,0-1.417-0.639-1.417-1.418v-6.416
			c0-0.78,0.639-1.417,1.417-1.417h7.415c0.78,0,1.417,0.638,1.417,1.417V101.918z"/>
		<path fill="#E0E0E0" d="M175.418,101.918c0,0.779-0.637,1.418-1.417,1.418c-0.779,0-1.417-0.639-1.417-1.418v-6.416
			c0-0.78,0.638-1.417,1.417-1.417c0.78,0,1.417,0.638,1.417,1.417V101.918z"/>
	</g>
	<g id="11b">
		<path fill="#BABABA" d="M175.418,113.668c0,0.779-0.638,1.418-1.417,1.418h-7.415c-0.779,0-1.417-0.639-1.417-1.418v-6.416
			c0-0.777,0.639-1.416,1.417-1.416h7.415c0.78,0,1.417,0.639,1.417,1.416V113.668z"/>
		<path fill="#E0E0E0" d="M175.418,113.668c0,0.779-0.637,1.418-1.417,1.418c-0.779,0-1.417-0.639-1.417-1.418v-6.416
			c0-0.777,0.638-1.416,1.417-1.416c0.78,0,1.417,0.639,1.417,1.416V113.668z"/>
	</g>
	<g id="11a">
		<path fill="#BABABA" d="M175.418,125.418c0,0.779-0.638,1.418-1.417,1.418h-7.415c-0.779,0-1.417-0.639-1.417-1.418v-6.416
			c0-0.777,0.639-1.416,1.417-1.416h7.415c0.78,0,1.417,0.639,1.417,1.416V125.418z"/>
		<path fill="#E0E0E0" d="M175.418,125.418c0,0.779-0.637,1.418-1.417,1.418c-0.779,0-1.417-0.639-1.417-1.418v-6.416
			c0-0.777,0.638-1.416,1.417-1.416c0.78,0,1.417,0.639,1.417,1.416V125.418z"/>
	</g>
	<g id="12f">
		<path fill="#BABABA" d="M189.751,58.126c0,0.78-0.638,1.417-1.417,1.417h-7.415c-0.779,0-1.417-0.638-1.417-1.417v-6.415
			c0-0.78,0.639-1.417,1.417-1.417h7.415c0.78,0,1.417,0.638,1.417,1.417V58.126z"/>
		<path fill="#E0E0E0" d="M189.751,58.126c0,0.78-0.637,1.417-1.417,1.417c-0.779,0-1.417-0.638-1.417-1.417v-6.415
			c0-0.78,0.638-1.417,1.417-1.417c0.78,0,1.417,0.638,1.417,1.417V58.126z"/>
	</g>
	<g id="12e">
		<path fill="#BABABA" d="M189.751,69.876c0,0.78-0.638,1.417-1.417,1.417h-7.415c-0.779,0-1.417-0.638-1.417-1.417v-6.415
			c0-0.78,0.639-1.417,1.417-1.417h7.415c0.78,0,1.417,0.638,1.417,1.417V69.876z"/>
		<path fill="#E0E0E0" d="M189.751,69.876c0,0.78-0.637,1.417-1.417,1.417c-0.779,0-1.417-0.638-1.417-1.417v-6.415
			c0-0.78,0.638-1.417,1.417-1.417c0.78,0,1.417,0.638,1.417,1.417V69.876z"/>
	</g>
	<g id="12d">
		<path fill="#BABABA" d="M189.751,81.626c0,0.78-0.638,1.417-1.417,1.417h-7.415c-0.779,0-1.417-0.638-1.417-1.417v-6.415
			c0-0.78,0.639-1.417,1.417-1.417h7.415c0.78,0,1.417,0.638,1.417,1.417V81.626z"/>
		<path fill="#E0E0E0" d="M189.751,81.626c0,0.78-0.637,1.417-1.417,1.417c-0.779,0-1.417-0.638-1.417-1.417v-6.415
			c0-0.78,0.638-1.417,1.417-1.417c0.78,0,1.417,0.638,1.417,1.417V81.626z"/>
	</g>
	<g id="12c">
		<path fill="#BABABA" d="M189.751,101.918c0,0.779-0.638,1.418-1.417,1.418h-7.415c-0.779,0-1.417-0.639-1.417-1.418v-6.416
			c0-0.78,0.639-1.417,1.417-1.417h7.415c0.78,0,1.417,0.638,1.417,1.417V101.918z"/>
		<path fill="#E0E0E0" d="M189.751,101.918c0,0.779-0.637,1.418-1.417,1.418c-0.779,0-1.417-0.639-1.417-1.418v-6.416
			c0-0.78,0.638-1.417,1.417-1.417c0.78,0,1.417,0.638,1.417,1.417V101.918z"/>
	</g>
	<g id="12b">
		<path fill="#BABABA" d="M189.751,113.668c0,0.779-0.638,1.418-1.417,1.418h-7.415c-0.779,0-1.417-0.639-1.417-1.418v-6.416
			c0-0.777,0.639-1.416,1.417-1.416h7.415c0.78,0,1.417,0.639,1.417,1.416V113.668z"/>
		<path fill="#E0E0E0" d="M189.751,113.668c0,0.779-0.637,1.418-1.417,1.418c-0.779,0-1.417-0.639-1.417-1.418v-6.416
			c0-0.777,0.638-1.416,1.417-1.416c0.78,0,1.417,0.639,1.417,1.416V113.668z"/>
	</g>
	<g id="12a">
		<path fill="#BABABA" d="M189.751,125.418c0,0.779-0.638,1.418-1.417,1.418h-7.415c-0.779,0-1.417-0.639-1.417-1.418v-6.416
			c0-0.777,0.639-1.416,1.417-1.416h7.415c0.78,0,1.417,0.639,1.417,1.416V125.418z"/>
		<path fill="#E0E0E0" d="M189.751,125.418c0,0.779-0.637,1.418-1.417,1.418c-0.779,0-1.417-0.639-1.417-1.418v-6.416
			c0-0.777,0.638-1.416,1.417-1.416c0.78,0,1.417,0.639,1.417,1.416V125.418z"/>
	</g>
	<g id="13f">
		<path fill="#BABABA" d="M204.085,58.126c0,0.78-0.638,1.417-1.417,1.417h-7.415c-0.779,0-1.417-0.638-1.417-1.417v-6.415
			c0-0.78,0.639-1.417,1.417-1.417h7.415c0.78,0,1.417,0.638,1.417,1.417V58.126z"/>
		<path fill="#E0E0E0" d="M204.085,58.126c0,0.78-0.637,1.417-1.417,1.417c-0.779,0-1.417-0.638-1.417-1.417v-6.415
			c0-0.78,0.638-1.417,1.417-1.417c0.78,0,1.417,0.638,1.417,1.417V58.126z"/>
	</g>
	<g id="13e">
		<path fill="#BABABA" d="M204.085,69.876c0,0.78-0.638,1.417-1.417,1.417h-7.415c-0.779,0-1.417-0.638-1.417-1.417v-6.415
			c0-0.78,0.639-1.417,1.417-1.417h7.415c0.78,0,1.417,0.638,1.417,1.417V69.876z"/>
		<path fill="#E0E0E0" d="M204.085,69.876c0,0.78-0.637,1.417-1.417,1.417c-0.779,0-1.417-0.638-1.417-1.417v-6.415
			c0-0.78,0.638-1.417,1.417-1.417c0.78,0,1.417,0.638,1.417,1.417V69.876z"/>
	</g>
	<g id="13d">
		<path fill="#BABABA" d="M204.085,81.626c0,0.78-0.638,1.417-1.417,1.417h-7.415c-0.779,0-1.417-0.638-1.417-1.417v-6.415
			c0-0.78,0.639-1.417,1.417-1.417h7.415c0.78,0,1.417,0.638,1.417,1.417V81.626z"/>
		<path fill="#E0E0E0" d="M204.085,81.626c0,0.78-0.637,1.417-1.417,1.417c-0.779,0-1.417-0.638-1.417-1.417v-6.415
			c0-0.78,0.638-1.417,1.417-1.417c0.78,0,1.417,0.638,1.417,1.417V81.626z"/>
	</g>
	<g id="13c">
		<path fill="#BABABA" d="M204.085,101.918c0,0.779-0.638,1.418-1.417,1.418h-7.415c-0.779,0-1.417-0.639-1.417-1.418v-6.416
			c0-0.78,0.639-1.417,1.417-1.417h7.415c0.78,0,1.417,0.638,1.417,1.417V101.918z"/>
		<path fill="#E0E0E0" d="M204.085,101.918c0,0.779-0.637,1.418-1.417,1.418c-0.779,0-1.417-0.639-1.417-1.418v-6.416
			c0-0.78,0.638-1.417,1.417-1.417c0.78,0,1.417,0.638,1.417,1.417V101.918z"/>
	</g>
	<g id="13b">
		<path fill="#BABABA" d="M204.085,113.668c0,0.779-0.638,1.418-1.417,1.418h-7.415c-0.779,0-1.417-0.639-1.417-1.418v-6.416
			c0-0.777,0.639-1.416,1.417-1.416h7.415c0.78,0,1.417,0.639,1.417,1.416V113.668z"/>
		<path fill="#E0E0E0" d="M204.085,113.668c0,0.779-0.637,1.418-1.417,1.418c-0.779,0-1.417-0.639-1.417-1.418v-6.416
			c0-0.777,0.638-1.416,1.417-1.416c0.78,0,1.417,0.639,1.417,1.416V113.668z"/>
	</g>
	<g id="13a">
		<path fill="#BABABA" d="M204.085,125.418c0,0.779-0.638,1.418-1.417,1.418h-7.415c-0.779,0-1.417-0.639-1.417-1.418v-6.416
			c0-0.777,0.639-1.416,1.417-1.416h7.415c0.78,0,1.417,0.639,1.417,1.416V125.418z"/>
		<path fill="#E0E0E0" d="M204.085,125.418c0,0.779-0.637,1.418-1.417,1.418c-0.779,0-1.417-0.639-1.417-1.418v-6.416
			c0-0.777,0.638-1.416,1.417-1.416c0.78,0,1.417,0.639,1.417,1.416V125.418z"/>
	</g>
	<g id="17f">
		<path fill="#BABABA" d="M266.833,58.126c0,0.78-0.639,1.417-1.418,1.417H258c-0.775,0-1.416-0.638-1.416-1.417v-6.415
			c0-0.78,0.641-1.417,1.416-1.417h7.416c0.779,0,1.418,0.638,1.418,1.417L266.833,58.126L266.833,58.126z"/>
		<path fill="#E0E0E0" d="M266.833,58.126c0,0.78-0.639,1.417-1.418,1.417c-0.775,0-1.416-0.638-1.416-1.417v-6.415
			c0-0.78,0.641-1.417,1.416-1.417c0.779,0,1.418,0.638,1.418,1.417V58.126z"/>
	</g>
	<g id="17e">
		<path fill="#BABABA" d="M266.833,69.876c0,0.78-0.639,1.417-1.418,1.417H258c-0.775,0-1.416-0.638-1.416-1.417v-6.415
			c0-0.78,0.641-1.417,1.416-1.417h7.416c0.779,0,1.418,0.638,1.418,1.417L266.833,69.876L266.833,69.876z"/>
		<path fill="#E0E0E0" d="M266.833,69.876c0,0.78-0.639,1.417-1.418,1.417c-0.775,0-1.416-0.638-1.416-1.417v-6.415
			c0-0.78,0.641-1.417,1.416-1.417c0.779,0,1.418,0.638,1.418,1.417V69.876z"/>
	</g>
	<g id="17d">
		<path fill="#BABABA" d="M266.833,81.626c0,0.78-0.639,1.417-1.418,1.417H258c-0.775,0-1.416-0.638-1.416-1.417v-6.415
			c0-0.78,0.641-1.417,1.416-1.417h7.416c0.779,0,1.418,0.638,1.418,1.417L266.833,81.626L266.833,81.626z"/>
		<path fill="#E0E0E0" d="M266.833,81.626c0,0.78-0.639,1.417-1.418,1.417c-0.775,0-1.416-0.638-1.416-1.417v-6.415
			c0-0.78,0.641-1.417,1.416-1.417c0.779,0,1.418,0.638,1.418,1.417V81.626z"/>
	</g>
	<g id="17c">
		<path fill="#BABABA" d="M266.833,101.918c0,0.779-0.639,1.418-1.418,1.418H258c-0.775,0-1.416-0.639-1.416-1.418v-6.416
			c0-0.78,0.641-1.417,1.416-1.417h7.416c0.779,0,1.418,0.638,1.418,1.417L266.833,101.918L266.833,101.918z"/>
		<path fill="#E0E0E0" d="M266.833,101.918c0,0.779-0.639,1.418-1.418,1.418c-0.775,0-1.416-0.639-1.416-1.418v-6.416
			c0-0.78,0.641-1.417,1.416-1.417c0.779,0,1.418,0.638,1.418,1.417V101.918z"/>
	</g>
	<g id="17b">
		<path fill="#BABABA" d="M266.833,113.668c0,0.779-0.639,1.418-1.418,1.418H258c-0.775,0-1.416-0.639-1.416-1.418v-6.416
			c0-0.777,0.641-1.416,1.416-1.416h7.416c0.779,0,1.418,0.639,1.418,1.416L266.833,113.668L266.833,113.668z"/>
		<path fill="#E0E0E0" d="M266.833,113.668c0,0.779-0.639,1.418-1.418,1.418c-0.775,0-1.416-0.639-1.416-1.418v-6.416
			c0-0.777,0.641-1.416,1.416-1.416c0.779,0,1.418,0.639,1.418,1.416V113.668z"/>
	</g>
	<g id="17a">
		<path fill="#BABABA" d="M266.833,125.418c0,0.779-0.639,1.418-1.418,1.418H258c-0.775,0-1.416-0.639-1.416-1.418v-6.416
			c0-0.777,0.641-1.416,1.416-1.416h7.416c0.779,0,1.418,0.639,1.418,1.416L266.833,125.418L266.833,125.418z"/>
		<path fill="#E0E0E0" d="M266.833,125.418c0,0.779-0.639,1.418-1.418,1.418c-0.775,0-1.416-0.639-1.416-1.418v-6.416
			c0-0.777,0.641-1.416,1.416-1.416c0.779,0,1.418,0.639,1.418,1.416V125.418z"/>
	</g>
	<g id="18f">
		<path fill="#BABABA" d="M281.166,58.126c0,0.78-0.637,1.417-1.416,1.417h-7.416c-0.777,0-1.418-0.638-1.418-1.417v-6.415
			c0-0.78,0.641-1.417,1.418-1.417h7.416c0.779,0,1.416,0.638,1.416,1.417V58.126z"/>
		<path fill="#E0E0E0" d="M281.166,58.126c0,0.78-0.637,1.417-1.416,1.417c-0.775,0-1.416-0.638-1.416-1.417v-6.415
			c0-0.78,0.641-1.417,1.416-1.417c0.779,0,1.416,0.638,1.416,1.417V58.126z"/>
	</g>
	<g id="18e">
		<path fill="#BABABA" d="M281.166,69.876c0,0.78-0.637,1.417-1.416,1.417h-7.416c-0.777,0-1.418-0.638-1.418-1.417v-6.415
			c0-0.78,0.641-1.417,1.418-1.417h7.416c0.779,0,1.416,0.638,1.416,1.417V69.876z"/>
		<path fill="#E0E0E0" d="M281.166,69.876c0,0.78-0.637,1.417-1.416,1.417c-0.775,0-1.416-0.638-1.416-1.417v-6.415
			c0-0.78,0.641-1.417,1.416-1.417c0.779,0,1.416,0.638,1.416,1.417V69.876z"/>
	</g>
	<g id="18d">
		<path fill="#BABABA" d="M281.166,81.626c0,0.78-0.637,1.417-1.416,1.417h-7.416c-0.777,0-1.418-0.638-1.418-1.417v-6.415
			c0-0.78,0.641-1.417,1.418-1.417h7.416c0.779,0,1.416,0.638,1.416,1.417V81.626z"/>
		<path fill="#E0E0E0" d="M281.166,81.626c0,0.78-0.637,1.417-1.416,1.417c-0.775,0-1.416-0.638-1.416-1.417v-6.415
			c0-0.78,0.641-1.417,1.416-1.417c0.779,0,1.416,0.638,1.416,1.417V81.626z"/>
	</g>
	<g id="18c">
		<path fill="#BABABA" d="M281.166,101.918c0,0.779-0.637,1.418-1.416,1.418h-7.416c-0.777,0-1.418-0.639-1.418-1.418v-6.416
			c0-0.78,0.641-1.417,1.418-1.417h7.416c0.779,0,1.416,0.638,1.416,1.417V101.918z"/>
		<path fill="#E0E0E0" d="M281.166,101.918c0,0.779-0.637,1.418-1.416,1.418c-0.775,0-1.416-0.639-1.416-1.418v-6.416
			c0-0.78,0.641-1.417,1.416-1.417c0.779,0,1.416,0.638,1.416,1.417V101.918z"/>
	</g>
	<g id="18b">
		<path fill="#BABABA" d="M281.166,113.668c0,0.779-0.637,1.418-1.416,1.418h-7.416c-0.777,0-1.418-0.639-1.418-1.418v-6.416
			c0-0.777,0.641-1.416,1.418-1.416h7.416c0.779,0,1.416,0.639,1.416,1.416V113.668z"/>
		<path fill="#E0E0E0" d="M281.166,113.668c0,0.779-0.637,1.418-1.416,1.418c-0.775,0-1.416-0.639-1.416-1.418v-6.416
			c0-0.777,0.641-1.416,1.416-1.416c0.779,0,1.416,0.639,1.416,1.416V113.668z"/>
	</g>
	<g id="18a">
		<path fill="#BABABA" d="M281.166,125.418c0,0.779-0.637,1.418-1.416,1.418h-7.416c-0.777,0-1.418-0.639-1.418-1.418v-6.416
			c0-0.777,0.641-1.416,1.418-1.416h7.416c0.779,0,1.416,0.639,1.416,1.416V125.418z"/>
		<path fill="#E0E0E0" d="M281.166,125.418c0,0.779-0.637,1.418-1.416,1.418c-0.775,0-1.416-0.639-1.416-1.418v-6.416
			c0-0.777,0.641-1.416,1.416-1.416c0.779,0,1.416,0.639,1.416,1.416V125.418z"/>
	</g>
	<g id="19f">
		<path fill="#BABABA" d="M295.5,58.126c0,0.78-0.637,1.417-1.416,1.417h-7.416c-0.777,0-1.418-0.638-1.418-1.417v-6.415
			c0-0.78,0.641-1.417,1.418-1.417h7.416c0.779,0,1.416,0.638,1.416,1.417V58.126z"/>
		<path fill="#E0E0E0" d="M295.5,58.126c0,0.78-0.637,1.417-1.416,1.417c-0.775,0-1.416-0.638-1.416-1.417v-6.415
			c0-0.78,0.641-1.417,1.416-1.417c0.779,0,1.416,0.638,1.416,1.417V58.126z"/>
	</g>
	<g id="19e">
		<path fill="#BABABA" d="M295.5,69.876c0,0.78-0.637,1.417-1.416,1.417h-7.416c-0.777,0-1.418-0.638-1.418-1.417v-6.415
			c0-0.78,0.641-1.417,1.418-1.417h7.416c0.779,0,1.416,0.638,1.416,1.417V69.876z"/>
		<path fill="#E0E0E0" d="M295.5,69.876c0,0.78-0.637,1.417-1.416,1.417c-0.775,0-1.416-0.638-1.416-1.417v-6.415
			c0-0.78,0.641-1.417,1.416-1.417c0.779,0,1.416,0.638,1.416,1.417V69.876z"/>
	</g>
	<g id="19d">
		<path fill="#BABABA" d="M295.5,81.626c0,0.78-0.637,1.417-1.416,1.417h-7.416c-0.777,0-1.418-0.638-1.418-1.417v-6.415
			c0-0.78,0.641-1.417,1.418-1.417h7.416c0.779,0,1.416,0.638,1.416,1.417V81.626z"/>
		<path fill="#E0E0E0" d="M295.5,81.626c0,0.78-0.637,1.417-1.416,1.417c-0.775,0-1.416-0.638-1.416-1.417v-6.415
			c0-0.78,0.641-1.417,1.416-1.417c0.779,0,1.416,0.638,1.416,1.417V81.626z"/>
	</g>
	<g id="19c">
		<path fill="#BABABA" d="M295.5,101.918c0,0.779-0.637,1.418-1.416,1.418h-7.416c-0.777,0-1.418-0.639-1.418-1.418v-6.416
			c0-0.78,0.641-1.417,1.418-1.417h7.416c0.779,0,1.416,0.638,1.416,1.417V101.918z"/>
		<path fill="#E0E0E0" d="M295.5,101.918c0,0.779-0.637,1.418-1.416,1.418c-0.775,0-1.416-0.639-1.416-1.418v-6.416
			c0-0.78,0.641-1.417,1.416-1.417c0.779,0,1.416,0.638,1.416,1.417V101.918z"/>
	</g>
	<g id="19b">
		<path fill="#BABABA" d="M295.5,113.668c0,0.779-0.637,1.418-1.416,1.418h-7.416c-0.777,0-1.418-0.639-1.418-1.418v-6.416
			c0-0.777,0.641-1.416,1.418-1.416h7.416c0.779,0,1.416,0.639,1.416,1.416V113.668z"/>
		<path fill="#E0E0E0" d="M295.5,113.668c0,0.779-0.637,1.418-1.416,1.418c-0.775,0-1.416-0.639-1.416-1.418v-6.416
			c0-0.777,0.641-1.416,1.416-1.416c0.779,0,1.416,0.639,1.416,1.416V113.668z"/>
	</g>
	<g id="19a">
		<path fill="#BABABA" d="M295.5,125.418c0,0.779-0.637,1.418-1.416,1.418h-7.416c-0.777,0-1.418-0.639-1.418-1.418v-6.416
			c0-0.777,0.641-1.416,1.418-1.416h7.416c0.779,0,1.416,0.639,1.416,1.416V125.418z"/>
		<path fill="#E0E0E0" d="M295.5,125.418c0,0.779-0.637,1.418-1.416,1.418c-0.775,0-1.416-0.639-1.416-1.418v-6.416
			c0-0.777,0.641-1.416,1.416-1.416c0.779,0,1.416,0.639,1.416,1.416V125.418z"/>
	</g>
	<g id="20f">
		<path fill="#BABABA" d="M309.835,58.126c0,0.78-0.638,1.417-1.416,1.417h-7.416c-0.779,0-1.418-0.638-1.418-1.417v-6.415
			c0-0.78,0.639-1.417,1.418-1.417h7.416c0.778,0,1.416,0.638,1.416,1.417V58.126z"/>
		<path fill="#E0E0E0" d="M309.835,58.126c0,0.78-0.638,1.417-1.416,1.417c-0.779,0-1.418-0.638-1.418-1.417v-6.415
			c0-0.78,0.639-1.417,1.418-1.417c0.778,0,1.416,0.638,1.416,1.417V58.126L309.835,58.126z"/>
	</g>
	<g id="20e">
		<path fill="#BABABA" d="M309.835,69.876c0,0.78-0.638,1.417-1.416,1.417h-7.416c-0.779,0-1.418-0.638-1.418-1.417v-6.415
			c0-0.78,0.639-1.417,1.418-1.417h7.416c0.778,0,1.416,0.638,1.416,1.417V69.876z"/>
		<path fill="#E0E0E0" d="M309.835,69.876c0,0.78-0.638,1.417-1.416,1.417c-0.779,0-1.418-0.638-1.418-1.417v-6.415
			c0-0.78,0.639-1.417,1.418-1.417c0.778,0,1.416,0.638,1.416,1.417V69.876L309.835,69.876z"/>
	</g>
	<g id="20d">
		<path fill="#BABABA" d="M309.835,81.626c0,0.78-0.638,1.417-1.416,1.417h-7.416c-0.779,0-1.418-0.638-1.418-1.417v-6.415
			c0-0.78,0.639-1.417,1.418-1.417h7.416c0.778,0,1.416,0.638,1.416,1.417V81.626z"/>
		<path fill="#E0E0E0" d="M309.835,81.626c0,0.78-0.638,1.417-1.416,1.417c-0.779,0-1.418-0.638-1.418-1.417v-6.415
			c0-0.78,0.639-1.417,1.418-1.417c0.778,0,1.416,0.638,1.416,1.417V81.626L309.835,81.626z"/>
	</g>
	<g id="20c">
		<path fill="#BABABA" d="M309.835,101.918c0,0.779-0.638,1.418-1.416,1.418h-7.416c-0.779,0-1.418-0.639-1.418-1.418v-6.416
			c0-0.78,0.639-1.417,1.418-1.417h7.416c0.778,0,1.416,0.638,1.416,1.417V101.918z"/>
		<path fill="#E0E0E0" d="M309.835,101.918c0,0.779-0.638,1.418-1.416,1.418c-0.779,0-1.418-0.638-1.418-1.418v-6.416
			c0-0.78,0.639-1.417,1.418-1.417c0.778,0,1.416,0.638,1.416,1.417V101.918L309.835,101.918z"/>
	</g>
	<g id="20b">
		<path fill="#BABABA" d="M309.835,113.668c0,0.779-0.638,1.418-1.416,1.418h-7.416c-0.779,0-1.418-0.639-1.418-1.418v-6.416
			c0-0.777,0.639-1.416,1.418-1.416h7.416c0.778,0,1.416,0.639,1.416,1.416V113.668z"/>
		<path fill="#E0E0E0" d="M309.835,113.668c0,0.779-0.638,1.418-1.416,1.418c-0.779,0-1.418-0.638-1.418-1.418v-6.416
			c0-0.777,0.639-1.416,1.418-1.416c0.778,0,1.416,0.639,1.416,1.416V113.668L309.835,113.668z"/>
	</g>
	<g id="20a">
		<path fill="#BABABA" d="M309.835,125.418c0,0.779-0.638,1.418-1.416,1.418h-7.416c-0.779,0-1.418-0.639-1.418-1.418v-6.416
			c0-0.777,0.639-1.416,1.418-1.416h7.416c0.778,0,1.416,0.639,1.416,1.416V125.418z"/>
		<path fill="#E0E0E0" d="M309.835,125.418c0,0.779-0.638,1.418-1.416,1.418c-0.779,0-1.418-0.638-1.418-1.418v-6.416
			c0-0.777,0.639-1.416,1.418-1.416c0.778,0,1.416,0.639,1.416,1.416V125.418L309.835,125.418z"/>
	</g>
	<g id="21f">
		<path fill="#BABABA" d="M324.169,58.126c0,0.78-0.64,1.417-1.418,1.417h-7.416c-0.777,0-1.416-0.638-1.416-1.417v-6.415
			c0-0.78,0.639-1.417,1.416-1.417h7.416c0.778,0,1.418,0.638,1.418,1.417V58.126L324.169,58.126z"/>
		<path fill="#E0E0E0" d="M324.169,58.126c0,0.78-0.64,1.417-1.418,1.417c-0.777,0-1.416-0.638-1.416-1.417v-6.415
			c0-0.78,0.639-1.417,1.416-1.417c0.778,0,1.418,0.638,1.418,1.417V58.126z"/>
	</g>
	<g id="21e">
		<path fill="#BABABA" d="M324.169,69.876c0,0.78-0.64,1.417-1.418,1.417h-7.416c-0.777,0-1.416-0.638-1.416-1.417v-6.415
			c0-0.78,0.639-1.417,1.416-1.417h7.416c0.778,0,1.418,0.638,1.418,1.417V69.876L324.169,69.876z"/>
		<path fill="#E0E0E0" d="M324.169,69.876c0,0.78-0.64,1.417-1.418,1.417c-0.777,0-1.416-0.638-1.416-1.417v-6.415
			c0-0.78,0.639-1.417,1.416-1.417c0.778,0,1.418,0.638,1.418,1.417V69.876z"/>
	</g>
	<g id="21d">
		<path fill="#BABABA" d="M324.169,81.626c0,0.78-0.64,1.417-1.418,1.417h-7.416c-0.777,0-1.416-0.638-1.416-1.417v-6.415
			c0-0.78,0.639-1.417,1.416-1.417h7.416c0.778,0,1.418,0.638,1.418,1.417V81.626L324.169,81.626z"/>
		<path fill="#E0E0E0" d="M324.169,81.626c0,0.78-0.64,1.417-1.418,1.417c-0.777,0-1.416-0.638-1.416-1.417v-6.415
			c0-0.78,0.639-1.417,1.416-1.417c0.778,0,1.418,0.638,1.418,1.417V81.626z"/>
	</g>
	<g id="21c">
		<path fill="#BABABA" d="M324.169,101.918c0,0.779-0.64,1.418-1.418,1.418h-7.416c-0.777,0-1.416-0.639-1.416-1.418v-6.416
			c0-0.78,0.639-1.417,1.416-1.417h7.416c0.778,0,1.418,0.638,1.418,1.417V101.918L324.169,101.918z"/>
		<path fill="#E0E0E0" d="M324.169,101.918c0,0.779-0.64,1.418-1.418,1.418c-0.777,0-1.416-0.639-1.416-1.418v-6.416
			c0-0.78,0.639-1.417,1.416-1.417c0.778,0,1.418,0.638,1.418,1.417V101.918z"/>
	</g>
	<g id="21b">
		<path fill="#BABABA" d="M324.169,113.668c0,0.779-0.64,1.418-1.418,1.418h-7.416c-0.777,0-1.416-0.639-1.416-1.418v-6.416
			c0-0.777,0.639-1.416,1.416-1.416h7.416c0.778,0,1.418,0.639,1.418,1.416V113.668L324.169,113.668z"/>
		<path fill="#E0E0E0" d="M324.169,113.668c0,0.779-0.64,1.418-1.418,1.418c-0.777,0-1.416-0.639-1.416-1.418v-6.416
			c0-0.777,0.639-1.416,1.416-1.416c0.778,0,1.418,0.639,1.418,1.416V113.668z"/>
	</g>
	<g id="21a">
		<path fill="#BABABA" d="M324.169,125.418c0,0.779-0.64,1.418-1.418,1.418h-7.416c-0.777,0-1.416-0.639-1.416-1.418v-6.416
			c0-0.777,0.639-1.416,1.416-1.416h7.416c0.778,0,1.418,0.639,1.418,1.416V125.418L324.169,125.418z"/>
		<path fill="#E0E0E0" d="M324.169,125.418c0,0.779-0.64,1.418-1.418,1.418c-0.777,0-1.416-0.639-1.416-1.418v-6.416
			c0-0.777,0.639-1.416,1.416-1.416c0.778,0,1.418,0.639,1.418,1.416V125.418z"/>
	</g>
	<g id="22f">
		<path fill="#BABABA" d="M338.501,58.126c0,0.78-0.638,1.417-1.416,1.417h-7.416c-0.779,0-1.418-0.638-1.418-1.417v-6.415
			c0-0.78,0.639-1.417,1.418-1.417h7.416c0.778,0,1.416,0.638,1.416,1.417V58.126z"/>
		<path fill="#E0E0E0" d="M338.501,58.126c0,0.78-0.638,1.417-1.416,1.417c-0.777,0-1.416-0.638-1.416-1.417v-6.415
			c0-0.78,0.639-1.417,1.416-1.417c0.778,0,1.416,0.638,1.416,1.417V58.126z"/>
	</g>
	<g id="22e">
		<path fill="#BABABA" d="M338.501,69.876c0,0.78-0.638,1.417-1.416,1.417h-7.416c-0.779,0-1.418-0.638-1.418-1.417v-6.415
			c0-0.78,0.639-1.417,1.418-1.417h7.416c0.778,0,1.416,0.638,1.416,1.417V69.876z"/>
		<path fill="#E0E0E0" d="M338.501,69.876c0,0.78-0.638,1.417-1.416,1.417c-0.777,0-1.416-0.638-1.416-1.417v-6.415
			c0-0.78,0.639-1.417,1.416-1.417c0.778,0,1.416,0.638,1.416,1.417V69.876z"/>
	</g>
	<g id="22d">
		<path fill="#BABABA" d="M338.501,81.626c0,0.78-0.638,1.417-1.416,1.417h-7.416c-0.779,0-1.418-0.638-1.418-1.417v-6.415
			c0-0.78,0.639-1.417,1.418-1.417h7.416c0.778,0,1.416,0.638,1.416,1.417V81.626z"/>
		<path fill="#E0E0E0" d="M338.501,81.626c0,0.78-0.638,1.417-1.416,1.417c-0.777,0-1.416-0.638-1.416-1.417v-6.415
			c0-0.78,0.639-1.417,1.416-1.417c0.778,0,1.416,0.638,1.416,1.417V81.626z"/>
	</g>
	<g id="22c">
		<path fill="#BABABA" d="M338.501,101.918c0,0.779-0.638,1.418-1.416,1.418h-7.416c-0.779,0-1.418-0.639-1.418-1.418v-6.416
			c0-0.78,0.639-1.417,1.418-1.417h7.416c0.778,0,1.416,0.638,1.416,1.417V101.918z"/>
		<path fill="#E0E0E0" d="M338.501,101.918c0,0.779-0.638,1.418-1.416,1.418c-0.777,0-1.416-0.639-1.416-1.418v-6.416
			c0-0.78,0.639-1.417,1.416-1.417c0.778,0,1.416,0.638,1.416,1.417V101.918z"/>
	</g>
	<g id="22b">
		<path fill="#BABABA" d="M338.501,113.668c0,0.779-0.638,1.418-1.416,1.418h-7.416c-0.779,0-1.418-0.639-1.418-1.418v-6.416
			c0-0.777,0.639-1.416,1.418-1.416h7.416c0.778,0,1.416,0.639,1.416,1.416V113.668z"/>
		<path fill="#E0E0E0" d="M338.501,113.668c0,0.779-0.638,1.418-1.416,1.418c-0.777,0-1.416-0.639-1.416-1.418v-6.416
			c0-0.777,0.639-1.416,1.416-1.416c0.778,0,1.416,0.639,1.416,1.416V113.668z"/>
	</g>
	<g id="22a">
		<path fill="#BABABA" d="M338.501,125.418c0,0.779-0.638,1.418-1.416,1.418h-7.416c-0.779,0-1.418-0.639-1.418-1.418v-6.416
			c0-0.777,0.639-1.416,1.418-1.416h7.416c0.778,0,1.416,0.639,1.416,1.416V125.418z"/>
		<path fill="#E0E0E0" d="M338.501,125.418c0,0.779-0.638,1.418-1.416,1.418c-0.777,0-1.416-0.639-1.416-1.418v-6.416
			c0-0.777,0.639-1.416,1.416-1.416c0.778,0,1.416,0.639,1.416,1.416V125.418z"/>
	</g>
	<g id="23f">
		<path fill="#BABABA" d="M352.835,58.126c0,0.78-0.638,1.417-1.416,1.417h-7.416c-0.779,0-1.418-0.638-1.418-1.417v-6.415
			c0-0.78,0.639-1.417,1.418-1.417h7.416c0.778,0,1.416,0.638,1.416,1.417V58.126z"/>
		<path fill="#E0E0E0" d="M352.835,58.126c0,0.78-0.638,1.417-1.416,1.417c-0.777,0-1.416-0.638-1.416-1.417v-6.415
			c0-0.78,0.639-1.417,1.416-1.417c0.778,0,1.416,0.638,1.416,1.417V58.126z"/>
	</g>
	<g id="23e">
		<path fill="#BABABA" d="M352.835,69.876c0,0.78-0.638,1.417-1.416,1.417h-7.416c-0.779,0-1.418-0.638-1.418-1.417v-6.415
			c0-0.78,0.639-1.417,1.418-1.417h7.416c0.778,0,1.416,0.638,1.416,1.417V69.876z"/>
		<path fill="#E0E0E0" d="M352.835,69.876c0,0.78-0.638,1.417-1.416,1.417c-0.777,0-1.416-0.638-1.416-1.417v-6.415
			c0-0.78,0.639-1.417,1.416-1.417c0.778,0,1.416,0.638,1.416,1.417V69.876z"/>
	</g>
	<g id="23d">
		<path fill="#BABABA" d="M352.835,81.626c0,0.78-0.638,1.417-1.416,1.417h-7.416c-0.779,0-1.418-0.638-1.418-1.417v-6.415
			c0-0.78,0.639-1.417,1.418-1.417h7.416c0.778,0,1.416,0.638,1.416,1.417V81.626z"/>
		<path fill="#E0E0E0" d="M352.835,81.626c0,0.78-0.638,1.417-1.416,1.417c-0.777,0-1.416-0.638-1.416-1.417v-6.415
			c0-0.78,0.639-1.417,1.416-1.417c0.778,0,1.416,0.638,1.416,1.417V81.626z"/>
	</g>
	<g id="23c">
		<path fill="#BABABA" d="M352.835,101.918c0,0.779-0.638,1.418-1.416,1.418h-7.416c-0.779,0-1.418-0.639-1.418-1.418v-6.416
			c0-0.78,0.639-1.417,1.418-1.417h7.416c0.778,0,1.416,0.638,1.416,1.417V101.918z"/>
		<path fill="#E0E0E0" d="M352.835,101.918c0,0.779-0.638,1.418-1.416,1.418c-0.777,0-1.416-0.639-1.416-1.418v-6.416
			c0-0.78,0.639-1.417,1.416-1.417c0.778,0,1.416,0.638,1.416,1.417V101.918z"/>
	</g>
	<g id="23b">
		<path fill="#BABABA" d="M352.835,113.668c0,0.779-0.638,1.418-1.416,1.418h-7.416c-0.779,0-1.418-0.639-1.418-1.418v-6.416
			c0-0.777,0.639-1.416,1.418-1.416h7.416c0.778,0,1.416,0.639,1.416,1.416V113.668z"/>
		<path fill="#E0E0E0" d="M352.835,113.668c0,0.779-0.638,1.418-1.416,1.418c-0.777,0-1.416-0.639-1.416-1.418v-6.416
			c0-0.777,0.639-1.416,1.416-1.416c0.778,0,1.416,0.639,1.416,1.416V113.668z"/>
	</g>
	<g id="23a">
		<path fill="#BABABA" d="M352.835,125.418c0,0.779-0.638,1.418-1.416,1.418h-7.416c-0.779,0-1.418-0.639-1.418-1.418v-6.416
			c0-0.777,0.639-1.416,1.418-1.416h7.416c0.778,0,1.416,0.639,1.416,1.416V125.418z"/>
		<path fill="#E0E0E0" d="M352.835,125.418c0,0.779-0.638,1.418-1.416,1.418c-0.777,0-1.416-0.639-1.416-1.418v-6.416
			c0-0.777,0.639-1.416,1.416-1.416c0.778,0,1.416,0.639,1.416,1.416V125.418z"/>
	</g>
	<g id="24f">
		<path fill="#BABABA" d="M367.169,58.126c0,0.78-0.638,1.417-1.416,1.417h-7.416c-0.779,0-1.418-0.638-1.418-1.417v-6.415
			c0-0.78,0.639-1.417,1.418-1.417h7.416c0.778,0,1.416,0.638,1.416,1.417V58.126z"/>
		<path fill="#E0E0E0" d="M367.169,58.126c0,0.78-0.638,1.417-1.416,1.417c-0.779,0-1.418-0.638-1.418-1.417v-6.415
			c0-0.78,0.639-1.417,1.418-1.417c0.778,0,1.416,0.638,1.416,1.417V58.126z"/>
	</g>
	<g id="24e">
		<path fill="#BABABA" d="M367.169,69.876c0,0.78-0.638,1.417-1.416,1.417h-7.416c-0.779,0-1.418-0.638-1.418-1.417v-6.415
			c0-0.78,0.639-1.417,1.418-1.417h7.416c0.778,0,1.416,0.638,1.416,1.417V69.876z"/>
		<path fill="#E0E0E0" d="M367.169,69.876c0,0.78-0.638,1.417-1.416,1.417c-0.779,0-1.418-0.638-1.418-1.417v-6.415
			c0-0.78,0.639-1.417,1.418-1.417c0.778,0,1.416,0.638,1.416,1.417V69.876z"/>
	</g>
	<g id="24d">
		<path fill="#BABABA" d="M367.169,81.626c0,0.78-0.638,1.417-1.416,1.417h-7.416c-0.779,0-1.418-0.638-1.418-1.417v-6.415
			c0-0.78,0.639-1.417,1.418-1.417h7.416c0.778,0,1.416,0.638,1.416,1.417V81.626z"/>
		<path fill="#E0E0E0" d="M367.169,81.626c0,0.78-0.638,1.417-1.416,1.417c-0.779,0-1.418-0.638-1.418-1.417v-6.415
			c0-0.78,0.639-1.417,1.418-1.417c0.778,0,1.416,0.638,1.416,1.417V81.626z"/>
	</g>
	<g id="24c">
		<path fill="#BABABA" d="M367.169,101.918c0,0.779-0.638,1.418-1.416,1.418h-7.416c-0.779,0-1.418-0.639-1.418-1.418v-6.416
			c0-0.78,0.639-1.417,1.418-1.417h7.416c0.778,0,1.416,0.638,1.416,1.417V101.918z"/>
		<path fill="#E0E0E0" d="M367.169,101.918c0,0.779-0.638,1.418-1.416,1.418c-0.779,0-1.418-0.639-1.418-1.418v-6.416
			c0-0.78,0.639-1.417,1.418-1.417c0.778,0,1.416,0.638,1.416,1.417V101.918z"/>
	</g>
	<g id="24b">
		<path fill="#BABABA" d="M367.169,113.668c0,0.779-0.638,1.418-1.416,1.418h-7.416c-0.779,0-1.418-0.639-1.418-1.418v-6.416
			c0-0.777,0.639-1.416,1.418-1.416h7.416c0.778,0,1.416,0.639,1.416,1.416V113.668z"/>
		<path fill="#E0E0E0" d="M367.169,113.668c0,0.779-0.638,1.418-1.416,1.418c-0.779,0-1.418-0.639-1.418-1.418v-6.416
			c0-0.777,0.639-1.416,1.418-1.416c0.778,0,1.416,0.639,1.416,1.416V113.668z"/>
	</g>
	<g id="24a">
		<path fill="#BABABA" d="M367.169,125.418c0,0.779-0.638,1.418-1.416,1.418h-7.416c-0.779,0-1.418-0.639-1.418-1.418v-6.416
			c0-0.777,0.639-1.416,1.418-1.416h7.416c0.778,0,1.416,0.639,1.416,1.416V125.418z"/>
		<path fill="#E0E0E0" d="M367.169,125.418c0,0.779-0.638,1.418-1.416,1.418c-0.779,0-1.418-0.639-1.418-1.418v-6.416
			c0-0.777,0.639-1.416,1.418-1.416c0.778,0,1.416,0.639,1.416,1.416V125.418z"/>
	</g>
	<g id="25f">
		<path fill="#BABABA" d="M381.503,58.126c0,0.78-0.64,1.417-1.418,1.417h-7.416c-0.777,0-1.416-0.638-1.416-1.417v-6.415
			c0-0.78,0.639-1.417,1.416-1.417h7.416c0.778,0,1.418,0.638,1.418,1.417V58.126z"/>
		<path fill="#E0E0E0" d="M381.503,58.126c0,0.78-0.64,1.417-1.418,1.417c-0.777,0-1.416-0.638-1.416-1.417v-6.415
			c0-0.78,0.639-1.417,1.416-1.417c0.778,0,1.418,0.638,1.418,1.417V58.126z"/>
	</g>
	<g id="25e">
		<path fill="#BABABA" d="M381.503,69.876c0,0.78-0.64,1.417-1.418,1.417h-7.416c-0.777,0-1.416-0.638-1.416-1.417v-6.415
			c0-0.78,0.639-1.417,1.416-1.417h7.416c0.778,0,1.418,0.638,1.418,1.417V69.876z"/>
		<path fill="#E0E0E0" d="M381.503,69.876c0,0.78-0.64,1.417-1.418,1.417c-0.777,0-1.416-0.638-1.416-1.417v-6.415
			c0-0.78,0.639-1.417,1.416-1.417c0.778,0,1.418,0.638,1.418,1.417V69.876z"/>
	</g>
	<g id="25d">
		<path fill="#BABABA" d="M381.503,81.626c0,0.78-0.64,1.417-1.418,1.417h-7.416c-0.777,0-1.416-0.638-1.416-1.417v-6.415
			c0-0.78,0.639-1.417,1.416-1.417h7.416c0.778,0,1.418,0.638,1.418,1.417V81.626z"/>
		<path fill="#E0E0E0" d="M381.503,81.626c0,0.78-0.64,1.417-1.418,1.417c-0.777,0-1.416-0.638-1.416-1.417v-6.415
			c0-0.78,0.639-1.417,1.416-1.417c0.778,0,1.418,0.638,1.418,1.417V81.626z"/>
	</g>
	<g id="25c">
		<path fill="#BABABA" d="M381.503,101.918c0,0.779-0.64,1.418-1.418,1.418h-7.416c-0.777,0-1.416-0.639-1.416-1.418v-6.416
			c0-0.78,0.639-1.417,1.416-1.417h7.416c0.778,0,1.418,0.638,1.418,1.417V101.918z"/>
		<path fill="#E0E0E0" d="M381.503,101.918c0,0.779-0.64,1.418-1.418,1.418c-0.777,0-1.416-0.639-1.416-1.418v-6.416
			c0-0.78,0.639-1.417,1.416-1.417c0.778,0,1.418,0.638,1.418,1.417V101.918z"/>
	</g>
	<g id="25b">
		<path fill="#BABABA" d="M381.503,113.668c0,0.779-0.64,1.418-1.418,1.418h-7.416c-0.777,0-1.416-0.639-1.416-1.418v-6.416
			c0-0.777,0.639-1.416,1.416-1.416h7.416c0.778,0,1.418,0.639,1.418,1.416V113.668z"/>
		<path fill="#E0E0E0" d="M381.503,113.668c0,0.779-0.64,1.418-1.418,1.418c-0.777,0-1.416-0.639-1.416-1.418v-6.416
			c0-0.777,0.639-1.416,1.416-1.416c0.778,0,1.418,0.639,1.418,1.416V113.668z"/>
	</g>
	<g id="25a">
		<path fill="#BABABA" d="M381.503,125.418c0,0.779-0.64,1.418-1.418,1.418h-7.416c-0.777,0-1.416-0.639-1.416-1.418v-6.416
			c0-0.777,0.639-1.416,1.416-1.416h7.416c0.778,0,1.418,0.639,1.418,1.416V125.418z"/>
		<path fill="#E0E0E0" d="M381.503,125.418c0,0.779-0.64,1.418-1.418,1.418c-0.777,0-1.416-0.639-1.416-1.418v-6.416
			c0-0.777,0.639-1.416,1.416-1.416c0.778,0,1.418,0.639,1.418,1.416V125.418z"/>
	</g>
	<g id="26f">
		<path fill="#BABABA" d="M395.835,58.126c0,0.78-0.638,1.417-1.416,1.417h-7.416c-0.779,0-1.418-0.638-1.418-1.417v-6.415
			c0-0.78,0.639-1.417,1.418-1.417h7.416c0.778,0,1.416,0.638,1.416,1.417V58.126z"/>
		<path fill="#E0E0E0" d="M395.835,58.126c0,0.78-0.638,1.417-1.416,1.417c-0.777,0-1.416-0.638-1.416-1.417v-6.415
			c0-0.78,0.639-1.417,1.416-1.417c0.778,0,1.416,0.638,1.416,1.417V58.126z"/>
	</g>
	<g id="26e">
		<path fill="#BABABA" d="M395.835,69.876c0,0.78-0.638,1.417-1.416,1.417h-7.416c-0.779,0-1.418-0.638-1.418-1.417v-6.415
			c0-0.78,0.639-1.417,1.418-1.417h7.416c0.778,0,1.416,0.638,1.416,1.417V69.876z"/>
		<path fill="#E0E0E0" d="M395.835,69.876c0,0.78-0.638,1.417-1.416,1.417c-0.777,0-1.416-0.638-1.416-1.417v-6.415
			c0-0.78,0.639-1.417,1.416-1.417c0.778,0,1.416,0.638,1.416,1.417V69.876z"/>
	</g>
	<g id="26d">
		<path fill="#BABABA" d="M395.835,81.626c0,0.78-0.638,1.417-1.416,1.417h-7.416c-0.779,0-1.418-0.638-1.418-1.417v-6.415
			c0-0.78,0.639-1.417,1.418-1.417h7.416c0.778,0,1.416,0.638,1.416,1.417V81.626z"/>
		<path fill="#E0E0E0" d="M395.835,81.626c0,0.78-0.638,1.417-1.416,1.417c-0.777,0-1.416-0.638-1.416-1.417v-6.415
			c0-0.78,0.639-1.417,1.416-1.417c0.778,0,1.416,0.638,1.416,1.417V81.626z"/>
	</g>
	<g id="26c">
		<path fill="#BABABA" d="M395.835,101.918c0,0.779-0.638,1.418-1.416,1.418h-7.416c-0.779,0-1.418-0.639-1.418-1.418v-6.416
			c0-0.78,0.639-1.417,1.418-1.417h7.416c0.778,0,1.416,0.638,1.416,1.417V101.918z"/>
		<path fill="#E0E0E0" d="M395.835,101.918c0,0.779-0.638,1.418-1.416,1.418c-0.777,0-1.416-0.639-1.416-1.418v-6.416
			c0-0.78,0.639-1.417,1.416-1.417c0.778,0,1.416,0.638,1.416,1.417V101.918z"/>
	</g>
	<g id="26b">
		<path fill="#BABABA" d="M395.835,113.668c0,0.779-0.638,1.418-1.416,1.418h-7.416c-0.779,0-1.418-0.639-1.418-1.418v-6.416
			c0-0.777,0.639-1.416,1.418-1.416h7.416c0.778,0,1.416,0.639,1.416,1.416V113.668z"/>
		<path fill="#E0E0E0" d="M395.835,113.668c0,0.779-0.638,1.418-1.416,1.418c-0.777,0-1.416-0.639-1.416-1.418v-6.416
			c0-0.777,0.639-1.416,1.416-1.416c0.778,0,1.416,0.639,1.416,1.416V113.668z"/>
	</g>
	<g id="26a">
		<path fill="#BABABA" d="M395.835,125.418c0,0.779-0.638,1.418-1.416,1.418h-7.416c-0.779,0-1.418-0.639-1.418-1.418v-6.416
			c0-0.777,0.639-1.416,1.418-1.416h7.416c0.778,0,1.416,0.639,1.416,1.416V125.418z"/>
		<path fill="#E0E0E0" d="M395.835,125.418c0,0.779-0.638,1.418-1.416,1.418c-0.777,0-1.416-0.639-1.416-1.418v-6.416
			c0-0.777,0.639-1.416,1.416-1.416c0.778,0,1.416,0.639,1.416,1.416V125.418z"/>
	</g>
	<g id="27f">
		<path fill="#BABABA" d="M410.169,58.126c0,0.78-0.638,1.417-1.416,1.417h-7.416c-0.779,0-1.418-0.638-1.418-1.417v-6.415
			c0-0.78,0.639-1.417,1.418-1.417h7.416c0.778,0,1.416,0.638,1.416,1.417V58.126z"/>
		<path fill="#E0E0E0" d="M410.169,58.126c0,0.78-0.638,1.417-1.416,1.417c-0.777,0-1.416-0.638-1.416-1.417v-6.415
			c0-0.78,0.639-1.417,1.416-1.417c0.778,0,1.416,0.638,1.416,1.417V58.126z"/>
	</g>
	<g id="27e">
		<path fill="#BABABA" d="M410.169,69.876c0,0.78-0.638,1.417-1.416,1.417h-7.416c-0.779,0-1.418-0.638-1.418-1.417v-6.415
			c0-0.78,0.639-1.417,1.418-1.417h7.416c0.778,0,1.416,0.638,1.416,1.417V69.876z"/>
		<path fill="#E0E0E0" d="M410.169,69.876c0,0.78-0.638,1.417-1.416,1.417c-0.777,0-1.416-0.638-1.416-1.417v-6.415
			c0-0.78,0.639-1.417,1.416-1.417c0.778,0,1.416,0.638,1.416,1.417V69.876z"/>
	</g>
	<g id="27d">
		<path fill="#BABABA" d="M410.169,81.626c0,0.78-0.638,1.417-1.416,1.417h-7.416c-0.779,0-1.418-0.638-1.418-1.417v-6.415
			c0-0.78,0.639-1.417,1.418-1.417h7.416c0.778,0,1.416,0.638,1.416,1.417V81.626z"/>
		<path fill="#E0E0E0" d="M410.169,81.626c0,0.78-0.638,1.417-1.416,1.417c-0.777,0-1.416-0.638-1.416-1.417v-6.415
			c0-0.78,0.639-1.417,1.416-1.417c0.778,0,1.416,0.638,1.416,1.417V81.626z"/>
	</g>
	<g id="27c">
		<path fill="#BABABA" d="M410.169,101.918c0,0.779-0.638,1.418-1.416,1.418h-7.416c-0.779,0-1.418-0.639-1.418-1.418v-6.416
			c0-0.78,0.639-1.417,1.418-1.417h7.416c0.778,0,1.416,0.638,1.416,1.417V101.918z"/>
		<path fill="#E0E0E0" d="M410.169,101.918c0,0.779-0.638,1.418-1.416,1.418c-0.777,0-1.416-0.639-1.416-1.418v-6.416
			c0-0.78,0.639-1.417,1.416-1.417c0.778,0,1.416,0.638,1.416,1.417V101.918z"/>
	</g>
	<g id="27b">
		<path fill="#BABABA" d="M410.169,113.668c0,0.779-0.638,1.418-1.416,1.418h-7.416c-0.779,0-1.418-0.639-1.418-1.418v-6.416
			c0-0.777,0.639-1.416,1.418-1.416h7.416c0.778,0,1.416,0.639,1.416,1.416V113.668z"/>
		<path fill="#E0E0E0" d="M410.169,113.668c0,0.779-0.638,1.418-1.416,1.418c-0.777,0-1.416-0.639-1.416-1.418v-6.416
			c0-0.777,0.639-1.416,1.416-1.416c0.778,0,1.416,0.639,1.416,1.416V113.668z"/>
	</g>
	<g id="27a">
		<path fill="#BABABA" d="M410.169,125.418c0,0.779-0.638,1.418-1.416,1.418h-7.416c-0.779,0-1.418-0.639-1.418-1.418v-6.416
			c0-0.777,0.639-1.416,1.418-1.416h7.416c0.778,0,1.416,0.639,1.416,1.416V125.418z"/>
		<path fill="#E0E0E0" d="M410.169,125.418c0,0.779-0.638,1.418-1.416,1.418c-0.777,0-1.416-0.639-1.416-1.418v-6.416
			c0-0.777,0.639-1.416,1.416-1.416c0.778,0,1.416,0.639,1.416,1.416V125.418z"/>
	</g>
	<g id="28f">
		<path fill="#BABABA" d="M424.503,58.126c0,0.78-0.638,1.417-1.416,1.417h-7.416c-0.779,0-1.418-0.638-1.418-1.417v-6.415
			c0-0.78,0.639-1.417,1.418-1.417h7.416c0.778,0,1.416,0.638,1.416,1.417V58.126z"/>
		<path fill="#E0E0E0" d="M424.503,58.126c0,0.78-0.638,1.417-1.416,1.417c-0.779,0-1.418-0.638-1.418-1.417v-6.415
			c0-0.78,0.639-1.417,1.418-1.417c0.778,0,1.416,0.638,1.416,1.417V58.126z"/>
	</g>
	<g id="28e">
		<path fill="#BABABA" d="M424.503,69.876c0,0.78-0.638,1.417-1.416,1.417h-7.416c-0.779,0-1.418-0.638-1.418-1.417v-6.415
			c0-0.78,0.639-1.417,1.418-1.417h7.416c0.778,0,1.416,0.638,1.416,1.417V69.876z"/>
		<path fill="#E0E0E0" d="M424.503,69.876c0,0.78-0.638,1.417-1.416,1.417c-0.779,0-1.418-0.638-1.418-1.417v-6.415
			c0-0.78,0.639-1.417,1.418-1.417c0.778,0,1.416,0.638,1.416,1.417V69.876z"/>
	</g>
	<g id="28d">
		<path fill="#BABABA" d="M424.503,81.626c0,0.78-0.638,1.417-1.416,1.417h-7.416c-0.779,0-1.418-0.638-1.418-1.417v-6.415
			c0-0.78,0.639-1.417,1.418-1.417h7.416c0.778,0,1.416,0.638,1.416,1.417V81.626z"/>
		<path fill="#E0E0E0" d="M424.503,81.626c0,0.78-0.638,1.417-1.416,1.417c-0.779,0-1.418-0.638-1.418-1.417v-6.415
			c0-0.78,0.639-1.417,1.418-1.417c0.778,0,1.416,0.638,1.416,1.417V81.626z"/>
	</g>
	<g id="28c">
		<path fill="#BABABA" d="M424.503,101.918c0,0.779-0.638,1.418-1.416,1.418h-7.416c-0.779,0-1.418-0.639-1.418-1.418v-6.416
			c0-0.78,0.639-1.417,1.418-1.417h7.416c0.778,0,1.416,0.638,1.416,1.417V101.918z"/>
		<path fill="#E0E0E0" d="M424.503,101.918c0,0.779-0.638,1.418-1.416,1.418c-0.779,0-1.418-0.639-1.418-1.418v-6.416
			c0-0.78,0.639-1.417,1.418-1.417c0.778,0,1.416,0.638,1.416,1.417V101.918z"/>
	</g>
	<g id="28b">
		<path fill="#BABABA" d="M424.503,113.668c0,0.779-0.638,1.418-1.416,1.418h-7.416c-0.779,0-1.418-0.639-1.418-1.418v-6.416
			c0-0.777,0.639-1.416,1.418-1.416h7.416c0.778,0,1.416,0.639,1.416,1.416V113.668z"/>
		<path fill="#E0E0E0" d="M424.503,113.668c0,0.779-0.638,1.418-1.416,1.418c-0.779,0-1.418-0.639-1.418-1.418v-6.416
			c0-0.777,0.639-1.416,1.418-1.416c0.778,0,1.416,0.639,1.416,1.416V113.668z"/>
	</g>
	<g id="28a">
		<path fill="#BABABA" d="M424.503,125.418c0,0.779-0.638,1.418-1.416,1.418h-7.416c-0.779,0-1.418-0.639-1.418-1.418v-6.416
			c0-0.777,0.639-1.416,1.418-1.416h7.416c0.778,0,1.416,0.639,1.416,1.416V125.418z"/>
		<path fill="#E0E0E0" d="M424.503,125.418c0,0.779-0.638,1.418-1.416,1.418c-0.779,0-1.418-0.639-1.418-1.418v-6.416
			c0-0.777,0.639-1.416,1.418-1.416c0.778,0,1.416,0.639,1.416,1.416V125.418z"/>
	</g>
	<g id="29f">
		<path fill="#BABABA" d="M438.837,58.126c0,0.78-0.638,1.417-1.416,1.417h-7.418c-0.777,0-1.416-0.638-1.416-1.417v-6.415
			c0-0.78,0.639-1.417,1.416-1.417h7.418c0.778,0,1.416,0.638,1.416,1.417V58.126z"/>
		<path fill="#E0E0E0" d="M438.837,58.126c0,0.78-0.638,1.417-1.416,1.417c-0.779,0-1.418-0.638-1.418-1.417v-6.415
			c0-0.78,0.639-1.417,1.418-1.417c0.778,0,1.416,0.638,1.416,1.417V58.126z"/>
	</g>
	<g id="29e">
		<path fill="#BABABA" d="M438.837,69.876c0,0.78-0.638,1.417-1.416,1.417h-7.418c-0.777,0-1.416-0.638-1.416-1.417v-6.415
			c0-0.78,0.639-1.417,1.416-1.417h7.418c0.778,0,1.416,0.638,1.416,1.417V69.876z"/>
		<path fill="#E0E0E0" d="M438.837,69.876c0,0.78-0.638,1.417-1.416,1.417c-0.779,0-1.418-0.638-1.418-1.417v-6.415
			c0-0.78,0.639-1.417,1.418-1.417c0.778,0,1.416,0.638,1.416,1.417V69.876z"/>
	</g>
	<g id="29d">
		<path fill="#BABABA" d="M438.837,81.626c0,0.78-0.638,1.417-1.416,1.417h-7.418c-0.777,0-1.416-0.638-1.416-1.417v-6.415
			c0-0.78,0.639-1.417,1.416-1.417h7.418c0.778,0,1.416,0.638,1.416,1.417V81.626z"/>
		<path fill="#E0E0E0" d="M438.837,81.626c0,0.78-0.638,1.417-1.416,1.417c-0.779,0-1.418-0.638-1.418-1.417v-6.415
			c0-0.78,0.639-1.417,1.418-1.417c0.778,0,1.416,0.638,1.416,1.417V81.626z"/>
	</g>
	<g id="29c">
		<path fill="#BABABA" d="M438.837,101.918c0,0.779-0.638,1.418-1.416,1.418h-7.418c-0.777,0-1.416-0.639-1.416-1.418v-6.416
			c0-0.78,0.639-1.417,1.416-1.417h7.418c0.778,0,1.416,0.638,1.416,1.417V101.918z"/>
		<path fill="#E0E0E0" d="M438.837,101.918c0,0.779-0.638,1.418-1.416,1.418c-0.779,0-1.418-0.639-1.418-1.418v-6.416
			c0-0.78,0.639-1.417,1.418-1.417c0.778,0,1.416,0.638,1.416,1.417V101.918z"/>
	</g>
	<g id="29b">
		<path fill="#BABABA" d="M438.837,113.668c0,0.779-0.638,1.418-1.416,1.418h-7.418c-0.777,0-1.416-0.639-1.416-1.418v-6.416
			c0-0.777,0.639-1.416,1.416-1.416h7.418c0.778,0,1.416,0.639,1.416,1.416V113.668z"/>
		<path fill="#E0E0E0" d="M438.837,113.668c0,0.779-0.638,1.418-1.416,1.418c-0.779,0-1.418-0.639-1.418-1.418v-6.416
			c0-0.777,0.639-1.416,1.418-1.416c0.778,0,1.416,0.639,1.416,1.416V113.668z"/>
	</g>
	<g id="29a">
		<path fill="#BABABA" d="M438.837,125.418c0,0.779-0.638,1.418-1.416,1.418h-7.418c-0.777,0-1.416-0.639-1.416-1.418v-6.416
			c0-0.777,0.639-1.416,1.416-1.416h7.418c0.778,0,1.416,0.639,1.416,1.416V125.418z"/>
		<path fill="#E0E0E0" d="M438.837,125.418c0,0.779-0.638,1.418-1.416,1.418c-0.779,0-1.418-0.639-1.418-1.418v-6.416
			c0-0.777,0.639-1.416,1.418-1.416c0.778,0,1.416,0.639,1.416,1.416V125.418z"/>
	</g>
	<g id="30f">
		<path fill="#BABABA" d="M453.171,58.126c0,0.78-0.638,1.417-1.416,1.417h-7.418c-0.779,0-1.418-0.638-1.418-1.417v-6.415
			c0-0.78,0.639-1.417,1.418-1.417h7.418c0.778,0,1.416,0.638,1.416,1.417V58.126z"/>
		<path fill="#E0E0E0" d="M453.171,58.126c0,0.78-0.638,1.417-1.416,1.417c-0.779,0-1.418-0.638-1.418-1.417v-6.415
			c0-0.78,0.639-1.417,1.418-1.417c0.778,0,1.416,0.638,1.416,1.417V58.126z"/>
	</g>
	<g id="30e">
		<path fill="#BABABA" d="M453.171,69.876c0,0.78-0.638,1.417-1.416,1.417h-7.418c-0.779,0-1.418-0.638-1.418-1.417v-6.415
			c0-0.78,0.639-1.417,1.418-1.417h7.418c0.778,0,1.416,0.638,1.416,1.417V69.876z"/>
		<path fill="#E0E0E0" d="M453.171,69.876c0,0.78-0.638,1.417-1.416,1.417c-0.779,0-1.418-0.638-1.418-1.417v-6.415
			c0-0.78,0.639-1.417,1.418-1.417c0.778,0,1.416,0.638,1.416,1.417V69.876z"/>
	</g>
	<g id="30d">
		<path fill="#BABABA" d="M453.171,81.626c0,0.78-0.638,1.417-1.416,1.417h-7.418c-0.779,0-1.418-0.638-1.418-1.417v-6.415
			c0-0.78,0.639-1.417,1.418-1.417h7.418c0.778,0,1.416,0.638,1.416,1.417V81.626z"/>
		<path fill="#E0E0E0" d="M453.171,81.626c0,0.78-0.638,1.417-1.416,1.417c-0.779,0-1.418-0.638-1.418-1.417v-6.415
			c0-0.78,0.639-1.417,1.418-1.417c0.778,0,1.416,0.638,1.416,1.417V81.626z"/>
	</g>
	<g id="30c">
		<path fill="#BABABA" d="M453.171,101.918c0,0.779-0.638,1.418-1.416,1.418h-7.418c-0.779,0-1.418-0.639-1.418-1.418v-6.416
			c0-0.78,0.639-1.417,1.418-1.417h7.418c0.778,0,1.416,0.638,1.416,1.417V101.918z"/>
		<path fill="#E0E0E0" d="M453.171,101.918c0,0.779-0.638,1.418-1.416,1.418c-0.779,0-1.418-0.639-1.418-1.418v-6.416
			c0-0.78,0.639-1.417,1.418-1.417c0.778,0,1.416,0.638,1.416,1.417V101.918z"/>
	</g>
	<g id="30b">
		<path fill="#BABABA" d="M453.171,113.668c0,0.779-0.638,1.418-1.416,1.418h-7.418c-0.779,0-1.418-0.639-1.418-1.418v-6.416
			c0-0.777,0.639-1.416,1.418-1.416h7.418c0.778,0,1.416,0.639,1.416,1.416V113.668z"/>
		<path fill="#E0E0E0" d="M453.171,113.668c0,0.779-0.638,1.418-1.416,1.418c-0.779,0-1.418-0.639-1.418-1.418v-6.416
			c0-0.777,0.639-1.416,1.418-1.416c0.778,0,1.416,0.639,1.416,1.416V113.668z"/>
	</g>
	<g id="30a">
		<path fill="#BABABA" d="M453.171,125.418c0,0.779-0.638,1.418-1.416,1.418h-7.418c-0.779,0-1.418-0.639-1.418-1.418v-6.416
			c0-0.777,0.639-1.416,1.418-1.416h7.418c0.778,0,1.416,0.639,1.416,1.416V125.418z"/>
		<path fill="#E0E0E0" d="M453.171,125.418c0,0.779-0.638,1.418-1.416,1.418c-0.779,0-1.418-0.639-1.418-1.418v-6.416
			c0-0.777,0.639-1.416,1.418-1.416c0.778,0,1.416,0.639,1.416,1.416V125.418z"/>
	</g>
	<g id="31f">
		<path fill="#BABABA" d="M467.505,58.126c0,0.78-0.638,1.417-1.416,1.417h-7.418c-0.779,0-1.418-0.638-1.418-1.417v-6.415
			c0-0.78,0.639-1.417,1.418-1.417h7.418c0.778,0,1.416,0.638,1.416,1.417V58.126z"/>
		<path fill="#E0E0E0" d="M467.505,58.126c0,0.78-0.638,1.417-1.416,1.417c-0.779,0-1.418-0.638-1.418-1.417v-6.415
			c0-0.78,0.639-1.417,1.418-1.417c0.778,0,1.416,0.638,1.416,1.417V58.126z"/>
	</g>
	<g id="31e">
		<path fill="#BABABA" d="M467.505,69.876c0,0.78-0.638,1.417-1.416,1.417h-7.418c-0.779,0-1.418-0.638-1.418-1.417v-6.415
			c0-0.78,0.639-1.417,1.418-1.417h7.418c0.778,0,1.416,0.638,1.416,1.417V69.876z"/>
		<path fill="#E0E0E0" d="M467.505,69.876c0,0.78-0.638,1.417-1.416,1.417c-0.779,0-1.418-0.638-1.418-1.417v-6.415
			c0-0.78,0.639-1.417,1.418-1.417c0.778,0,1.416,0.638,1.416,1.417V69.876z"/>
	</g>
	<g id="31d">
		<path fill="#BABABA" d="M467.505,81.626c0,0.78-0.638,1.417-1.416,1.417h-7.418c-0.779,0-1.418-0.638-1.418-1.417v-6.415
			c0-0.78,0.639-1.417,1.418-1.417h7.418c0.778,0,1.416,0.638,1.416,1.417V81.626z"/>
		<path fill="#E0E0E0" d="M467.505,81.626c0,0.78-0.638,1.417-1.416,1.417c-0.779,0-1.418-0.638-1.418-1.417v-6.415
			c0-0.78,0.639-1.417,1.418-1.417c0.778,0,1.416,0.638,1.416,1.417V81.626z"/>
	</g>
	<g id="31c">
		<path fill="#BABABA" d="M467.505,101.918c0,0.779-0.638,1.418-1.416,1.418h-7.418c-0.779,0-1.418-0.639-1.418-1.418v-6.416
			c0-0.78,0.639-1.417,1.418-1.417h7.418c0.778,0,1.416,0.638,1.416,1.417V101.918z"/>
		<path fill="#E0E0E0" d="M467.505,101.918c0,0.779-0.638,1.418-1.416,1.418c-0.779,0-1.418-0.639-1.418-1.418v-6.416
			c0-0.78,0.639-1.417,1.418-1.417c0.778,0,1.416,0.638,1.416,1.417V101.918z"/>
	</g>
	<g id="31b">
		<path fill="#BABABA" d="M467.505,113.668c0,0.779-0.638,1.418-1.416,1.418h-7.418c-0.779,0-1.418-0.639-1.418-1.418v-6.416
			c0-0.777,0.639-1.416,1.418-1.416h7.418c0.778,0,1.416,0.639,1.416,1.416V113.668z"/>
		<path fill="#E0E0E0" d="M467.505,113.668c0,0.779-0.638,1.418-1.416,1.418c-0.779,0-1.418-0.639-1.418-1.418v-6.416
			c0-0.777,0.639-1.416,1.418-1.416c0.778,0,1.416,0.639,1.416,1.416V113.668z"/>
	</g>
	<g id="31a">
		<path fill="#BABABA" d="M467.505,125.418c0,0.779-0.638,1.418-1.416,1.418h-7.418c-0.779,0-1.418-0.639-1.418-1.418v-6.416
			c0-0.777,0.639-1.416,1.418-1.416h7.418c0.778,0,1.416,0.639,1.416,1.416V125.418z"/>
		<path fill="#E0E0E0" d="M467.505,125.418c0,0.779-0.638,1.418-1.416,1.418c-0.779,0-1.418-0.639-1.418-1.418v-6.416
			c0-0.777,0.639-1.416,1.418-1.416c0.778,0,1.416,0.639,1.416,1.416V125.418z"/>
	</g>
	<g id="32f">
		<path fill="#BABABA" d="M481.839,58.126c0,0.78-0.638,1.417-1.416,1.417h-7.418c-0.779,0-1.418-0.638-1.418-1.417v-6.415
			c0-0.78,0.639-1.417,1.418-1.417h7.418c0.778,0,1.416,0.638,1.416,1.417V58.126z"/>
		<path fill="#E0E0E0" d="M481.839,58.126c0,0.78-0.638,1.417-1.416,1.417c-0.779,0-1.418-0.638-1.418-1.417v-6.415
			c0-0.78,0.639-1.417,1.418-1.417c0.778,0,1.416,0.638,1.416,1.417V58.126z"/>
	</g>
	<g id="32e">
		<path fill="#BABABA" d="M481.839,69.876c0,0.78-0.638,1.417-1.416,1.417h-7.418c-0.779,0-1.418-0.638-1.418-1.417v-6.415
			c0-0.78,0.639-1.417,1.418-1.417h7.418c0.778,0,1.416,0.638,1.416,1.417V69.876z"/>
		<path fill="#E0E0E0" d="M481.839,69.876c0,0.78-0.638,1.417-1.416,1.417c-0.779,0-1.418-0.638-1.418-1.417v-6.415
			c0-0.78,0.639-1.417,1.418-1.417c0.778,0,1.416,0.638,1.416,1.417V69.876z"/>
	</g>
	<g id="32d">
		<path fill="#BABABA" d="M481.839,81.626c0,0.78-0.638,1.417-1.416,1.417h-7.418c-0.779,0-1.418-0.638-1.418-1.417v-6.415
			c0-0.78,0.639-1.417,1.418-1.417h7.418c0.778,0,1.416,0.638,1.416,1.417V81.626z"/>
		<path fill="#E0E0E0" d="M481.839,81.626c0,0.78-0.638,1.417-1.416,1.417c-0.779,0-1.418-0.638-1.418-1.417v-6.415
			c0-0.78,0.639-1.417,1.418-1.417c0.778,0,1.416,0.638,1.416,1.417V81.626z"/>
	</g>
	<g id="32c">
		<path fill="#BABABA" d="M481.839,101.918c0,0.779-0.638,1.418-1.416,1.418h-7.418c-0.779,0-1.418-0.639-1.418-1.418v-6.416
			c0-0.78,0.639-1.417,1.418-1.417h7.418c0.778,0,1.416,0.638,1.416,1.417V101.918z"/>
		<path fill="#E0E0E0" d="M481.839,101.918c0,0.779-0.638,1.418-1.416,1.418c-0.779,0-1.418-0.639-1.418-1.418v-6.416
			c0-0.78,0.639-1.417,1.418-1.417c0.778,0,1.416,0.638,1.416,1.417V101.918z"/>
	</g>
	<g id="32b">
		<path fill="#BABABA" d="M481.839,113.668c0,0.779-0.638,1.418-1.416,1.418h-7.418c-0.779,0-1.418-0.639-1.418-1.418v-6.416
			c0-0.777,0.639-1.416,1.418-1.416h7.418c0.778,0,1.416,0.639,1.416,1.416V113.668z"/>
		<path fill="#E0E0E0" d="M481.839,113.668c0,0.779-0.638,1.418-1.416,1.418c-0.779,0-1.418-0.639-1.418-1.418v-6.416
			c0-0.777,0.639-1.416,1.418-1.416c0.778,0,1.416,0.639,1.416,1.416V113.668z"/>
	</g>
	<g id="32a">
		<path fill="#BABABA" d="M481.839,125.418c0,0.779-0.638,1.418-1.416,1.418h-7.418c-0.779,0-1.418-0.639-1.418-1.418v-6.416
			c0-0.777,0.639-1.416,1.418-1.416h7.418c0.778,0,1.416,0.639,1.416,1.416V125.418z"/>
		<path fill="#E0E0E0" d="M481.839,125.418c0,0.779-0.638,1.418-1.416,1.418c-0.779,0-1.418-0.639-1.418-1.418v-6.416
			c0-0.777,0.639-1.416,1.418-1.416c0.778,0,1.416,0.639,1.416,1.416V125.418z"/>
	</g>
</g>
<g id="airplane">
	<path fill="none" stroke="#2E7DCA" stroke-width="3" stroke-linecap="round" stroke-linejoin="round" stroke-miterlimit="10" d="
		M2,47.502c0,0,19.083-3.5,39.292-3.5h152.543"/>
	<path fill="none" stroke="#2E7DCA" stroke-width="3" stroke-linecap="round" stroke-linejoin="round" stroke-miterlimit="10" d="
		M504.753,46.412C497.4,45.385,485.134,44,472.419,44H318.332"/>
	<path fill="none" stroke="#2E7DCA" stroke-width="3" stroke-linecap="round" stroke-linejoin="round" stroke-miterlimit="10" d="
		M504.753,130.59c-7.353,1.025-19.619,2.412-32.334,2.412H318.332"/>
	<path fill="none" stroke="#2E7DCA" stroke-width="3" stroke-linecap="round" stroke-linejoin="round" stroke-miterlimit="10" d="
		M2,129.502c0,0,19.083,3.5,39.292,3.5h152.543"/>
	<path fill="none" stroke="#2E7DCA" stroke-width="3" stroke-linecap="round" stroke-linejoin="round" stroke-miterlimit="10" d="
		M194.118,43.43l42.75-41"/>
	<path fill="none" stroke="#2E7DCA" stroke-width="3" stroke-linecap="round" stroke-linejoin="round" stroke-miterlimit="10" d="
		M194.438,133.612l42.75,40.999"/>
	<path fill="none" stroke="#2E7DCA" stroke-width="3" stroke-linecap="round" stroke-linejoin="round" stroke-miterlimit="10" d="
		M318.289,43.193l17.337-41"/>
	<path fill="none" stroke="#2E7DCA" stroke-width="3" stroke-linecap="round" stroke-linejoin="round" stroke-miterlimit="10" d="
		M317.734,133.285l17.336,41"/>
</g>
<g id="index">
	<text transform="matrix(1 0 0 1 22.9768 57.6733)"><tspan x="0" y="0" fill="#555555" font-family="Arial" font-size="7.1544">2</tspan><tspan x="4.146" y="0" fill="#555555" font-family="'Arial-BoldMT'" font-size="7.1544">F</tspan></text>
	<text transform="matrix(1 0 0 1 22.7756 69.4233)"><tspan x="0" y="0" fill="#555555" font-family="Arial" font-size="7.1544">2</tspan><tspan x="4.146" y="0" fill="#555555" font-family="'Arial-BoldMT'" font-size="7.1544">E</tspan></text>
	<text transform="matrix(1 0 0 1 22.5784 81.1733)"><tspan x="0" y="0" fill="#555555" font-family="Arial" font-size="7.1544">2</tspan><tspan x="4.146" y="0" fill="#555555" font-family="'Arial-BoldMT'" font-size="7.1544">D</tspan></text>
	<text transform="matrix(1 0 0 1 89.3591 91.1729)" fill="#555555" font-family="Arial" font-size="7.1544">5</text>
	<text transform="matrix(1 0 0 1 159.2361 91.1729)" fill="#555555" font-family="Arial" font-size="7.1544">10</text>
	<text transform="matrix(1 0 0 1 236.1941 91.1729)" fill="#555555" font-family="Arial" font-size="7.1544">15</text>
	<text transform="matrix(1 0 0 1 307.7556 91.1729)" fill="#555555" font-family="Arial" font-size="7.1544">20</text>
	<text transform="matrix(1 0 0 1 379.1121 91.1729)" fill="#555555" font-family="Arial" font-size="7.1544">25</text>
	<text transform="matrix(1 0 0 1 450.947 91.1729)" fill="#555555" font-family="Arial" font-size="7.1544">30</text>
	<text transform="matrix(1 0 0 1 8.2063 101.4644)"><tspan x="0" y="0" fill="#555555" font-family="Arial" font-size="7.1544">2</tspan><tspan x="4.146" y="0" fill="#555555" font-family="'Arial-BoldMT'" font-size="7.1544">C</tspan></text>
	<text transform="matrix(1 0 0 1 8.2063 113.2144)"><tspan x="0" y="0" fill="#555555" font-family="Arial" font-size="7.1544">2</tspan><tspan x="4.146" y="0" fill="#555555" font-family="'Arial-BoldMT'" font-size="7.1544">B</tspan></text>
	<text transform="matrix(1 0 0 1 8.2063 124.9644)"><tspan x="0" y="0" fill="#555555" font-family="Arial" font-size="7.1544">2</tspan><tspan x="4.146" y="0" fill="#555555" font-family="'Arial-BoldMT'" font-size="7.1544">A</tspan></text>
	<text transform="matrix(1 0 0 1 486.0056 57.6733)"><tspan x="0" y="0" fill="#555555" font-family="Arial" font-size="7.1544">32</tspan><tspan x="8.293" y="0" fill="#555555" font-family="'Arial-BoldMT'" font-size="7.1544">F</tspan></text>
	<text transform="matrix(1 0 0 1 485.8044 69.4233)"><tspan x="0" y="0" fill="#555555" font-family="Arial" font-size="7.1544">32</tspan><tspan x="8.293" y="0" fill="#555555" font-family="'Arial-BoldMT'" font-size="7.1544">E</tspan></text>
	<text transform="matrix(1 0 0 1 485.6072 81.1733)"><tspan x="0" y="0" fill="#555555" font-family="Arial" font-size="7.1544">32</tspan><tspan x="8.293" y="0" fill="#555555" font-family="'Arial-BoldMT'" font-size="7.1544">D</tspan></text>
	<text transform="matrix(1 0 0 1 485.6072 101.4644)"><tspan x="0" y="0" fill="#555555" font-family="Arial" font-size="7.1544">32</tspan><tspan x="8.293" y="0" fill="#555555" font-family="'Arial-BoldMT'" font-size="7.1544">C</tspan></text>
	<text transform="matrix(1 0 0 1 485.6072 113.2144)"><tspan x="0" y="0" fill="#555555" font-family="Arial" font-size="7.1544">32</tspan><tspan x="8.293" y="0" fill="#555555" font-family="'Arial-BoldMT'" font-size="7.1544">B</tspan></text>
	<text transform="matrix(1 0 0 1 485.489 124.9644)"><tspan x="0" y="0" fill="#555555" font-family="Arial" font-size="7.1544">32</tspan><tspan x="8.293" y="0" fill="#555555" font-family="'Arial-BoldMT'" font-size="7.1544">A</tspan></text>
</g>
</svg>
