<?xml version="1.0" encoding="utf-8"?>
<!-- Generator: Adobe Illustrator 16.0.0, SVG Export Plug-In . SVG Version: 6.00 Build 0)  -->
<!DOCTYPE svg PUBLIC "-//W3C//DTD SVG 1.1//EN" "http://www.w3.org/Graphics/SVG/1.1/DTD/svg11.dtd">
<svg version="1.1" id="Layer_2" xmlns="http://www.w3.org/2000/svg" xmlns:xlink="http://www.w3.org/1999/xlink" x="0px" y="0px"
	 width="2322.943px" height="1916.567px" viewBox="0 0 2322.943 1916.567" enable-background="new 0 0 2322.943 1916.567"
	 xml:space="preserve">
<g id="Tasmania">
	<path fill="#eeeeee" stroke="#000000" stroke-miterlimit="10" d="M1033.773,1103.776c0,0-1.333,7.5-3.833,7.166
		c0,0,0.001,14,1.917,15.334c0,0,7.583-0.334,8.583-5.168c0,0-2.333-9.166-0.833-13.166
		C1039.607,1107.942,1036.273,1104.276,1033.773,1103.776z"/>
	<path fill="#eeeeee" stroke="#000000" stroke-miterlimit="10" d="M1165.604,1110.274c0,0-7.333,3.502-3.833,8.834
		c0,0,3.833,2,3.833,5.5c0,0,3.332,0.166,4.166,7.334c0,0,3.834,0.332,8.5-2.668v-7.166
		C1178.27,1122.108,1167.772,1112.774,1165.604,1110.274z"/>
	<path fill="#eeeeee" stroke="#000000" stroke-miterlimit="10" d="M1178.27,1133.942c0,0-1.334,2-7.5,2c0,0-6.832,2.332,2.334,5.5
		c0,0,9.334,1.332,11.334-2C1184.438,1139.442,1181.27,1135.274,1178.27,1133.942z"/>
	<path fill="#eeeeee" stroke="#000000" stroke-miterlimit="10" d="M1175.438,1143.774c0,0-5.334-0.332-3.668,2.834
		C1171.77,1146.608,1175.27,1149.108,1175.438,1143.774z"/>
	<path fill="#eeeeee" stroke="#000000" stroke-miterlimit="10" d="M1058.688,1151.942c0,0-5.75,32.75,16.25,55.25c0,0,4,4.75,2,9.75
		c0,0,11.25,6.5,8,10.25c0,0-4.25-1.5-7-7.25c0,0-5.75-6.5-1.5,9c0,0,9,33.5,24,38.25l1.25,10.75c0,0,14-4.75,27.5,4.5
		c0,0,10.583-10,5.917-17.834c0,0,4.334,0.834,7.334-1.5c0,0-1.001-10.334,4.166-11.834c0,0,3.166-2.5,5.5-5.332
		c0,0,11.667,4.666,11.667,8.832c0,0-0.166,4-3.833,2.168c0,0-6.668-2.002-1.334,4.832c0,0,2.666,3.834,9-0.666c0,0-3-8,0.668-8.666
		c0,0,1.832-3.666-6-5.334c0,0,4.666-4.168,2.5-13.334l2.832-0.332c0,0,0.5-23.334,9.668-18.668c0,0-3.334,7.668,1,8.168
		c0,0,3.332-6.666,0-12.834c0,0-2.537-25.668,1.479-32c0,0-5.981-7.5-1.481-11.5c0,0,3.514-3.334-9.076-11.5
		c0,0-2.756-2.332-6.09,3.834c0,0-4.166,2.5-7.333-2.168c0,0-4.907,4.666-5.537,7.834c0,0-4.963-2.334-6.963-3
		c0,0-0.999,4-9.333,2.5c0,0-3,3.334-10.5,2.666c0,0-6,13-30.167-3.666c0,0-9.5-7-25.333-8.666L1058.688,1151.942z"/>
	<path fill="#eeeeee" stroke="#000000" stroke-miterlimit="10" d="M1169.938,1236.108c0,0-4.834,4.334-0.666,7
		C1169.272,1243.108,1172.235,1239.729,1169.938,1236.108z"/>
	<path fill="#eeeeee" stroke="#000000" stroke-miterlimit="10" d="M1148.605,1253.108c0,0-5.832,1.332-2.166,7.666
		c0,0,3.772,6-0.685,5.834c0,0-7.816-4.166-5.649,5.166c0,0,1.121,3.537,4.954,4.203c3.833,0.668,5.053-9.736,3.546-14.869
		C1148.605,1261.108,1152.271,1258.108,1148.605,1253.108z"/>
	<path fill="#eeeeee" stroke="#000000" stroke-miterlimit="10" d="M1065.939,1147.774c0,0-4.001,4.834,2.833,5.168
		C1068.772,1152.942,1070.772,1150.608,1065.939,1147.774z"/>
	<path fill="#eeeeee" stroke="#000000" stroke-miterlimit="10" d="M1061.772,1140.108c0,0-3,5.332-2,7.666
		C1059.772,1147.774,1064.438,1145.442,1061.772,1140.108z"/>
	<path fill="#eeeeee" stroke="#000000" stroke-miterlimit="10" d="M1066.106,1137.942c0,0-4.666,2.832,0,4
		C1066.106,1141.942,1069.773,1141.942,1066.106,1137.942z"/>
</g>
<g id="WesternAustralia">
	<path fill="#eeeeee" stroke="#000000" stroke-miterlimit="10" d="M39.439,560.066c0,0-4-0.25-1.875,2.25
		C37.564,562.316,42.314,563.566,39.439,560.066z"/>
	<path fill="#eeeeee" stroke="#000000" stroke-miterlimit="10" d="M9.189,547.816c0,0,2.25,14.875,6.75,19.375
		c0,0,2.625,9.75-1.5,1.625C14.439,568.816-0.311,549.816,9.189,547.816z"/>
	<path fill="#eeeeee" stroke="#000000" stroke-miterlimit="10" d="M530.44,170.94c0,0-5-3.875-10.625-0.25c0,0,0.375,5.375-2,8.375
		c0,0-3.375-5.125-5-0.5c0,0-0.125,5.75,1,7c0,0-4.75-4.875-3.875,4.375c0,0-5-8.375,1-19.5c0,0-0.625-6.625-12.75-14.125
		c0,0-7.375-14.875-16.125-16.625c0,0-5.75,4.625-7.375-2.25c0,0-3-5.75-10.875-2.25c0,0,4,4,3.375,6.25
		c0,0-10.25,17.375-11.375,1.25c0,0-5.375-2-6.75,6.625c0,0-9-1-9,8.375c0,0-4.75,12.125-6.375,1.75c0,0-9,3.25-4-6.125l-3.375-2.25
		c0,0,1.125,14.375-3,8.875c0,0-3,5.125-5.375,0.25c0,0-10.25,7.875-4.125,10.625c0,0,9.875,8.625,2.75,11.25
		c0,0-3.75-1.5-3.5-3.875c0,0-2.625,1.75-5-1.875c0,0-0.156,5.219-5.75,4.531c0,0-2.5,10.125,5.469,6.406
		c0,0,0.281,4.563,6.406,9.313c0,0-14.5-10.5-17.875-8.625c0,0-0.5,5.875-8.25,5.75c0,0-3.375,12.75,2.75,16.5
		c0,0,1.375-6.5,5.875-5.125c0,0-4.75,3-3.625,8.875c0,0-2.526,8.421-4-0.125c0,0-3.5,4.5-4.25,11.625c-4.75,1.75-7.5-5.25-12-6
		c0,0-6.292,6.25-6.625-1.042c0,0-2.958-5.792-7.167,0.292c0,0,5.708,5.625-0.208,6.833c0,0,7.667,6.25-2.125,2.792
		c0,0-5.5,0.75,1.792,3.333c0,0-4.375,2.792,2.042,2.792c0,0,9.542,8.125,6.917,10.208c0,0-1.25,5.042,3,8.042
		c-2.375,1.75-9.063-7.313-10.313-7.063c0,0,1.25,17.75-0.563,18.375c-1.813,0.625-18.438-30-20.438-33c0,0-0.854-5.062,2.646-7.729
		c0,0-10,5.5-9.833,13.5c0,0-12.333-0.833-6.167,7.5c0,0-9.167-0.833-11,5.5c0,0,4.666-0.667-3.167,7c0,0-0.417,8.766,2.083,13.383
		c0,0-2.417,9.201,5.167,9.701c0,0,2.834,3.75-4,7.583c0,0-10.75,6.417-10.917,9.5c0,0-3.5-1.667-5.333,3.667
		c0,0,2.667,4.083-4,4.333c0,0,0.333,36.75-61.417,44c0,0-5.5,8.083-9.917,1.333c0,0-11-3.25-17.083,3.75
		c0,0-1.25,11.25-27.25,8.917c0,0-17.5,20.583-33,10.583c0,0-3.417-1.25-7.583,1.667c0,0-5.917,2.5-2.167-5.25
		c0,0,1.843-2.75-1.245-0.5c0,0-3.921,4.314-3.838,6.824c0,0-3.167-2.408-7.833,3.092c0,0-3.333,1.834-8,1.167
		c0,0-0.167,4-4.25,5.583c0,0-20.583,16.208-29.583,24.458c0,0-3.5,0.125,0-2.75c0,0-23.5,4.125-27,31c0,0-3-4.5-7,1.5
		c0,0-4.125-2.75,0-6.375c0,0-6.125-10.375,0.5-19c0,0-8.125-2.375-12.75,19c0,0-1.75,4.625-4.25,6.375c0,0-0.625,6.5,5.125,12.5
		c0,0,1.25,6-1.875,8.5c0,0,4.335,11.625-3.271,16.75c0,0-18.479,22.5-2.479,41.625c0,0,9.375,28.75,21.625,42.625
		c0,0-2.25,9.625-0.875,15.375c0,0-7,14.369-9.25-6.128c0,0-1.75-4.872-4.75,2.753c0,0-5.5-1.75-1.375-10.375
		c0,0-2.5-9.75-9.375-13.375c0,0-3.637,4.844,2.125,11.5c0,0,0.375,11.25,11,15.75c0,0,2,10.25-7.25,12.375
		c0,0-0.125-6.875-3.375-3.25c0,0-0.125-8-4.5-14.5c0,0-4.125,12.75-2.875-3.125c0,0-0.5,3.625-2.625,4.625
		c0,0-0.125,7.875,9.375,15.375c0,0,25.625,28.792,19.292,58.125c0,0,16.667,6.667,17,26c0,0,14.333,9.333,10.667,44
		c0,0,4.917,29.25,27.167,66.75c0,0,1.75,28-4.5,35.25c0,0,8.75,51.25-20.25,35.25c0,0-3.75,28.25,3,31c0,0,23.5-0.25,29,21.75
		c0,0,12.25-0.25,20.25,7.75c0,0,10-3.75,23,0l3.5-3c0,0,3.25,5.25,8.25,5.5c0,0,1.75-4.666,7.667,0c0,0,5.667,1.084-0.333-2.666
		c0,0,11.75-1.25,11.917-5.25c0,0,3.25,0.75,5.333-0.666c0.833-8.834,13.75-10.084,12.417-15c0,0,4.333-4.082,16.5-1.25
		c0,0,6.174-2.113,9.088-11.378c2.162-6.872,15.037-15.145,30.246-10.038l3.417-2.334c0,0,29.333-6.334,41.667,0
		c0,0,2.5,0.497,4.667-2.169c0,0,6,2.169,6.667,7.669c0,0,5.833-3.334,6.833-5.334c0,0,4.833,1.166,7.5,1.834
		c6.167-6.169,12.167,0.331,15.167-4.169c0,0,4.667,1.334,3.333,6c0,0,5.833,0.834,7.333-3.666c0,0,3.333-1.334,5,0.834
		c0,0,6.167,1.166,11.667-13.334c0,0,3.667,3.666,6.667-13.832c0,0,5.667-15.668,23.333-13.668c0,0,11.167-11.332,25.333-13.5
		c0,0,12.333-15.5,27-10.832c0,0,39.833,5.832,85.5-22.834c0,0,0.833-0.149,2.316-0.394l-0.642-609.296
		C536.213,171.43,533.634,170.813,530.44,170.94z"/>
</g>
<g id="SouthAustralia">
	<path fill="#eeeeee" stroke="#000000" stroke-miterlimit="10" d="M820.272,936.775c0,0-10-0.334-14.5,2.666
		c0,0-7.667,1.166-11.667,3.334h-3.5c0,0-4,7.666,4.167,11.832c0,0,6.5-0.834,11.833,0c0,0,8.167-4,13,2c0,0,4.834-1.666,4.667-6.5
		c-0.167-4.832,11.333-2.166,13.833-0.5c0,0,7.167-4.832-3.833-7.832c0,0-2.333,4.332-4.833,4l1.167-3c0,0-6.167-0.5-7-0.334
		C823.605,942.441,823.907,936.708,820.272,936.775z"/>
	<path fill="#eeeeee" stroke="#000000" stroke-miterlimit="10" d="M538.696,562.859l0.23,218.854
		c5.095-0.837,17.936-2.784,31.684-3.605c17.107-1.024,35.703-0.087,37.667-4.667c0,0,18.667,5.667,35,20
		c0,0,4.542,4.25,11.292-2.125c0,0,11,0.375,23,9.375c0,0,4.25,2.125,7.625,0.25c0,0-2.25-5.5,3.75-1c0,0,2.625-4.625,5,0.75
		c0,0,12,7,6.375,9.375c0,0-1.125,3.25,0,4.75c0,0,3.25-0.875,6.875-3.25c0,0,11.25,5.875,4.5,12.125c0,0-1.375-2.125-4.25-1.625
		c0,0,4.5,4.875-0.875,8.125c0,0,5.375-0.875,6.875,9c0,0,2.125,2.625,2.625,0.25c0,0,15.125-1.625,11,3.5
		c0,0,8.5,5.25,5.375,15.375c0,0,18.5,10.375,17,31.75c0,0,2.625,5.75,4.5,7l-3.625,2.125c0,0-1.5-6.875-5-6.875l-0.625-1.75
		c0,0-3.125,2.625-2.5,5.125c0,0,4.625-2.375,6.125,1.5l0.375,2.875c0,0,6.75,1.461,10.833,9.793c0,0,1.417,1.25,1.667-2.334
		c0,0,4.667-0.832,8.917,4.834c0,0-0.917-6,0.083-7.416c0,0-3.5-0.416-6.667-0.084c0,0,4-0.75,3.333-8.334c0,0,2.5-7.166,7.75-3.582
		c0,0-1.417-7,2.75-6.834c0,0,6.833-5.668,4.833-10.668c0,0,13-11.25,18.25-11.75c0,0-1.75-2.5,0.5-3.75c0,0,8.75,4.5,13.25-5
		c0,0,2.25-15.75,12.5-24.25l2.5,2.25c0,0-0.875-5.375,1.625-6.25c0,0-3.25-9.875-0.875-11c0,0,4.75,6.375,6,17.5
		c2.5,0.875,2.625,4.563,2.375,5.75c0,0-11.208-0.5-5.625,8.25c-0.25,4.75,5.25,6.084,0.083,9.75c0,0-9.833,11.502-11.167,19.334
		l-3,1.5c0,0,4.833,5.5,0.167,30.166c0,0-1,4.668-5.333,0.5c0,0-2.333,1.666-8.833,0.334c0,0-3.667,3.125-1.833,9.063
		c0,0-11.167,7.604,0,5.604c0,0,0.667-1.666,6.167-1.332l2.5-2.668c0,0,4.667,0.168,6.333-2.5c0,0,5.167-0.5,7.333,2.334
		c0,0,4.333,2,4.167-7.666c0,0,4-5.334,4.167-20.168c0,0,3.333-9.334,7.333-12.666c0,0,14.334,24,12.5,32.5
		c0,0,1.999,2.666-0.834,5.5s5.834,10.666-11.167,18.5c0,0-2.833,4.166,2.667,4.166c0,0,6.334-1.334,11.167-0.834
		c0,0,3.334-7.332,11.5-3.332c0,0,8.5,0.332,3-5.168c0,0,1.771-2.979,8.958-3.854c0,0,1.188,2.5,1.313,3.375
		s2.313-1.688,2.313-1.688s2.059,4.227-4.625,5.313c0,0,5.438,3.563,3.875,5l-2.25,3.813l-2.938-2.75c0,0,4.125-4.5-1.125-6
		c0,0-1.688,3.5-2.438,3.875c0,0,11.459,8.489,17.829,21.274c5.841,11.726,14.254,30.81,1.755,34.478c0,0,6.874,6.375,2.499,8.832
		c0,0,4.917,11.666,10.042,13.291c0,0,9.5,9.875,9.625,15.375l10.25,7.875c0,0,4.593-1.068,10.278,0.432l2.634-471.971
		L538.696,562.859z"/>
</g>
<g id="NorthernTerritory">
	<path fill="#eeeeee" stroke="#000000" stroke-miterlimit="10" d="M786.438,133.691c0,0-8.75,17,3,18.75c0,0,19.75,1.25,9-4.25
		c0,0-9.75-0.75-0.25-11c0,0-5.929,1-5.714-5.5C792.473,131.691,791.188,134.191,786.438,133.691z"/>
	<path fill="#eeeeee" stroke="#000000" stroke-miterlimit="10" d="M776.688,129.691c0,0-5,4.5,0,7.5
		C776.688,137.191,781.688,134.691,776.688,129.691z"/>
	<path fill="#eeeeee" stroke="#000000" stroke-miterlimit="10" d="M804.688,197.941c0,0-8.25,1.75,0,5.25
		C804.688,203.191,807.938,206.191,804.688,197.941z"/>
	<path fill="#eeeeee" stroke="#000000" stroke-miterlimit="10" d="M612.813,47.816c0,0-6.75,7.125-23.375,2.625
		c0,0-4.75-4.875-7.125,0.75c0,0-7.875,0-5.125,11.625c0,0-6,1.375-3.75,6.75c4.25,0,7.25-5.375,12.75,0
		c4.125,4.75,24.875,5.125,35.625-12C621.813,57.566,623.938,47.316,612.813,47.816z"/>
	<path fill="#eeeeee" stroke="#000000" stroke-miterlimit="10" d="M828.939,219.941c0,0-12.333-1.833-18-9.5
		c0,0-29.833-3.167-13.667-9.5c0,0-1.5-2.5-8.333,0.5c0,0-7.667-3-9.833-9.833l-16.833-10.5c0,0-12.667,8.833-2.167-1
		c0,0-22.667-4.667,4.5-31.667c0,0,4.208-10.333,7.521-16.333c0,0-14.354,2.667-2.854-9.167c0,0-7.833-2.833,5-9.667
		c0,0,2,6.833,8.5-3.167c0,0-2.833,15.334,6.167,0.667c0,0-3.333-2.834,1.167-3.167c0,0-10.5-8.667,0.833-7
		c0,0,16.75-17.917,4.5-21.417c0,0-2.75,10.75-7.375-4.625c0,0-19,3.875-6.875,7.375c0,0,2,7.875-11,7.875c0,0-3-8.125-0.25-11.25
		c0,0-6.875,1.875-8.875,5c0,0-4.5-0.625,2.375-8.375c0,0-5.75,2.5-14.25,2.5c0,0-4.875,7-9.75,5.75l-10.625-10.5
		c0,0-10.25,10.125-22.75-3.125c0,0-11,4-5.25-3.125c0,0-1.375-3.75-8,1.75c0,0-18.75-0.75-23.75-15.5c0,0-6.5,5-9,5.125
		c0,0-3.5-5.875-7.25-9.875c0,0-3.375,3-3.375-2.5c0,0-4.375,2.875-6.625,0c0,0,2.125,4.75,0,6.5c0,0-2.75-7.75-6.125-6.375
		c0,0,0.75,2.25-5,1.75c0,0,8.25,8.5,8.875,11.125c0,0,5-0.625,8.5-3c0,0,7,0.875,7.75,7.5c0,0-4.875-2.5,1,3.375
		c0,0,1.75,6.125,0.25,10c0,0-5.25,6.375-14.25,4.625l-4.125,4.25c0,0-5.125-2-5.625-3.875c0,0-14.792,8.208-21.792-5.125
		c0,0-4.667,6-12,10.333c0,0,5.417,16.292-3.458,2.917c0,0-3.5-5.5-6.75,6.625c0,0,0.25,2.125,3.75,1.875c0,0-2,2.25-9.625-0.875
		c0,0,0.875,11.125-6.75,8.75c0,0-5.375,8.625,2.875,11.375c0,0-1.5,8.375-13.75,8.125c0,0-0.125,9.125-4.625,12.25
		c0,0,4.875,2.75-3,6.5c0,0-8.875,7-7.25,12.375c0,0,3.625,6,9.25,4.75c0,0,2.125,1.125-1.875,3.125c0,0,1.375,8,8.875,4.875
		l-2,2.625c0,0-5.375-0.5-9.125,0l12.25,18.375c0,0-18.222-19.208-23-19c0,0,2.5,6.875,0,9.875c0,0-1.735-6.026-7.779-8.899
		l0.411,390.443l297.575,2.921V230.46C833.493,227.942,830.88,224.544,828.939,219.941z"/>
</g>
<g id="Queensland">
	<path fill="#eeeeee" stroke="#000000" stroke-miterlimit="10" d="M976.688,27.941c0,0-7.25,1.5-4,4.5
		C972.688,32.441,978.688,33.941,976.688,27.941z"/>
	<path fill="#eeeeee" stroke="#000000" stroke-miterlimit="10" d="M981.188,11.191c0,0-6.676-6-9.338-1.5c0,0,3.338,7.75,7.838,6
		C979.688,15.691,983.589,12.942,981.188,11.191z"/>
	<path fill="#eeeeee" stroke="#000000" stroke-miterlimit="10" d="M1338.27,520.441c0,0-1.5,3.5,0,11.167c0,0-6.332,18.5-8.166,20.667
		c0,0,5,7.834,11.5-15.917C1341.604,536.358,1344.77,518.274,1338.27,520.441z"/>
	<path fill="#eeeeee" stroke="#000000" stroke-miterlimit="10" d="M891.688,224.691c0,0-18.25-0.75-19.5,13.25c0,0,9.75-1.25,14-8.75
		l6.75,2.122L891.688,224.691z"/>
	<path fill="#eeeeee" stroke="#000000" stroke-miterlimit="10" d="M888.688,247.941c0,0-8.334-3.833-6.125,3.5
		C882.563,251.441,889.438,252.191,888.688,247.941z"/>
	<path fill="#eeeeee" stroke="#000000" stroke-miterlimit="10" d="M1213.938,662.88c13.666,2.772,26.666-2.104,26.666-2.104l6,3.667
		c24.668-1.333,20.334,7.667,20.334,7.667l8.666,1.333c-2.666,19,8,7.333,8,7.333c2.334-8.667,6-6.667,6-6.667
		c17.668,4.333,9.666-14.667,9.666-14.667l23.668-7c11.773-0.21,22.084-4.53,28.096-7.693c-0.771-2.173-1.959-4.123-3.758-5.477
		c0,0,0.041-10.958,3.916-17.583c0,0-1.5-3-3.375-3.375c0,0-0.125,10.125-2.5,14.125c0,0-3.125-11.5-9.625-18
		c0,0,1.746-30.331-2.754-39.164c0,0,10.166-6.333-3.834-21.5v-14.667c0,0-14.334,2.333-15.334-17.333
		c0,0-16.332-6.667-16.332-22.833c0,0-5.334,3.333-8-5.833c0,0-11,6.667-15-13.667c0,0-1.668-8.333-8-8c0,0,1.332,4.333-4.668,6.5
		c0,0,1.168-6.833-1.832-13.5c0,0,3.666-27.666-11.5-35.833c0,0,7.498,17.833-0.668,11.5c0,0-13-10.5-13.5-19.667
		c0,0-0.498,9-5.166-0.167c0,0-1.107,13.127,3.303,19.968c0.117,0.182-17.303-6.302-17.137-31.801c0,0-8.166-26.666-19.666-30.5
		c0,0-12.5,2.333-2.834-15.667c0,0-5.332-1.333-7.332-8.333c0,0-5.334,7.5-9.668-2c0,0-2.666-6.5-13.332-6l-1.167-6
		c0,0-4.334,2.833-3.667,7c0,0-6.166-10.167-6.833-16.5c0,0-15.166,2.333-15.833-8c0,0-26.25-2.5-24.25-14.25
		c0,0,5.25-22.25-8.75-18.25c0,0,9-25.25-4.25-41.5c0,0,1.75-4.75-0.5-11.25c0,0-8,3.25-10.25-4.5c0,0-7.5,13-4.5-3.25
		c0,0-3.5-2.5-1.75-27.25c0,0-7.5-11.25-2-14.75c0,0-6-9.25,1-9.25l-0.75-4c0,0-8.25-2.5-11.75-9c0,0-11.75-0.5-14.75-17
		c0,0-5.625,2.625-10.875,3.125c0,0-13.625,22.5-16.75-8c0,0-7.625-3.625-3.375-19.375c0,0-5.25-10.5-2-20.25h-6.25l2.25-8.25
		c0,0-5.25,2.75-4.75-10c0,0-10.75,2.5-2.75-10.25c0,0,3.25-7.75-5.75-4.75c0,0-7,6-5.25-11c0,0,2.499-23.233-10.25-21.333
		c0,0,5.25-8.917-1.75-8.917c0,0-3.5,1.25-3.5,5.75c0,0-2.08,3.333-7.165,3.167c0,0-7,42-17.667,54.667c0,0,19.333,0.333,0,14
		c0,0-2.667,3.333,2.333,8.333c0,0-9.422,19.667-3.044,31.667c2.112,6.59-4.622,15.333,1.711,30
		c-15,33.667-3.333,44.333-23.667,68.333c0,0,1.666,28.667-31.667,24.667c0,0-17.167-8-17.5-11c0,0-9.166,1.333-10.166-12.333
		c0,0-5.501-7.166-22.167-8.833c0,0-8.685-0.363-16.167-7.148V565.78l101.333,0.995l-0.629,112.62l261.582-0.92L1213.938,662.88z"/>
</g>
<g id="Victoria">
	<path fill="#eeeeee" stroke="#000000" stroke-miterlimit="10" d="M1078.356,1055.11c0,0-5.333-0.25-4.833,3
		C1073.523,1058.11,1079.189,1059.526,1078.356,1055.11z"/>
	<path fill="#eeeeee" stroke="#000000" stroke-miterlimit="10" d="M1121.833,1068.151c0,0-3.063-0.646-4.207,0
		c0,0,1.832,1.668,2.938,1.543C1120.564,1069.694,1122.583,1068.651,1121.833,1068.151z"/>
	<path fill="#eeeeee" stroke="#000000" stroke-miterlimit="10" d="M1175.188,978.942c-7.5-5.25-6.75-23-6.75-23c-11.25-7-15-2.5-15-2.5
		l-5.75-1.5c-4,6.75-9.25,1.5-9.25,1.5c-6.75,10-18.5-0.75-18.5-0.75c-16.5,6.5-33.75-5-33.75-5c-5.75,1-13.75-1-13.75-1
		c-6.75,0.25-3.75,9-3.75,9l-11.75,2c-12.25-21.75-31.409-22.25-44-42.75c2.5-5.25,0-11.909,0-11.909
		c-9.5-2.909-18.5-6.591-18.5-6.591l-4.5,6.5c-10,1.5-7.5-16-7.5-16c-4.5,0-11-8.5-11-8.5c-9-2-18,2.5-18,2.5l-17.549-6.669
		l-0.918,164.474c4.763,1.256,10.29,4.311,14.535,11.316l-0.479,1.543c0,0,3.416-0.916,5,3.084c0,0,2.417-1.834,3.917-2
		c0,0-3.917-4.25,3.333-5.668c0,0,6.835-0.459,13.001,5.791c0,0,2.499,1.125,4.666-1.457c0,0,7.333-0.584,12.583,6.084
		c0,0,5.917,5.416,11.167,4.916c0,0,5.083,2.5,7.333,6.584c0,0,6.417-2.918,9.5,3.916c0,0,3.25-0.418,6-5.75
		c0,0,7.418-2.584,11.584-10.75c0,0,7.584-2.584,12-8.084c0,0,7.084,2,10.25-4.416l-2-4.334c0,0-4.917,6.502-9.917,1.918
		c0,0,12.083-5.334,17.583-12.334c0,0,19.334,9.166-2.082,23.082c0,0-0.991,1.346,2.196,4.279c0,0,5.49,3.221,10.365-9.529
		c0,0,11.521-3.75,11.354,4.25c0,0-1.418,2.75-3.834,3.166c0,0-0.083,11.166,8.167,9.5c0,0,1.167-1.498,3-0.166
		c0,0,4.832,4.166,4.416,11.084c0,0,3.667-0.166,4.167-4.166c0,0,6.167,0.832,8.167,8.332c0,0,2.749,2.564,2.374,5.064
		c0,0,2.313,2.063,4.438-2.875c0,0-2.5-2.814-1.125-7.25c0,0,0.75-1.814,0-2.689c0,0-4.375,3.5-5.875,3.125
		c0,0,1.813-4.188-2.438-5.563c0,0,0.5-3.25,5.25-4.125c0,0,17.042,3.729,25.125-10.688c0,0,8.749-6.918,14.333-14.584
		c0,0-3.417-0.082-8,3.084c0,0-5.082-1.334-1.666-3.584c0,0,3-2.584,6,0.25c0,0,5.5-5.25,9.916-6.25c0,0-4.25-2.916,0-2.834
		c0,0,2.75-0.166,3.917,1.75c0,0,4.75,0.75,8.916-2.332c0,0,14.334-3.75,43.334-2c0,0,15-6.918,9.166-11.918
		c0,0-1.916-1.332,2.168-0.582c0,0,0.969,1.24,0,2.666c0,0,5.01,0.207,6.064-2.229l-60.402-30.436
		C1173.938,983.192,1175.188,978.942,1175.188,978.942z"/>
</g>
<path id="StateofNewSouthWales" fill="#eeeeee" stroke="#000000" stroke-miterlimit="10" d="M1351.776,660.521
	c0,0,1.67-8.986-0.742-15.772c-6.012,3.163-16.321,7.481-28.096,7.693l-23.668,7c0,0,8.002,19-9.666,14.667c0,0-3.666-2-6,6.667
	c0,0-10.666,11.667-8-7.333l-8.666-1.333c0,0,4.334-9-20.334-7.667l-6-3.667c0,0-13,4.878-26.666,2.104l-15.381,15.595
	l-261.582,0.919l-1.087,194.878l17.549,6.669c0,0,9-4.5,18-2.5c0,0,6.5,8.5,11,8.5c0,0-2.5,17.5,7.5,16l4.5-6.5
	c0,0,9,3.683,18.5,6.592c0,0,2.5,6.658,0,11.908c12.591,20.5,31.75,21,44,42.75l11.75-2c0,0-3-8.75,3.75-9c0,0,8,2,13.75,1
	c0,0,17.25,11.5,33.75,5c0,0,11.75,10.75,18.5,0.75c0,0,5.25,5.25,9.25-1.5l5.75,1.5c0,0,3.75-4.5,15,2.5c0,0-0.75,17.75,6.75,23
	c0,0-1.25,4.25-2.75,6l60.402,30.438c0.278-0.641,0.287-1.463-0.148-2.521c0,0-1-6.916,2.064-8.479c0,0,0.75-3.5-3.25-6.689
	c0,0-1.689-5.375,4.063-20.125c0,0,0.125-9.125,3.375-11.125c0,0-2.5-16,2.5-19.625c0,0,0.375-3.75-2.625-6.5v-1.75
	c0,0,3.375,5.125,5.5,1.75c0,0,3.625-3.375,2.625-10.375c0,0,3-1,3.25-5.5c0,0,3.834-4.291,3.166-7.166c0,0,0.5-1.084,2.834,0.666
	c0,0,2.25,0.063,3.5-1c0,0-5.875-2.25-1.188-3.813c0,0,2.313,3.75,3.75,0.438c0,0-6.939-4.875-0.939-10.063
	c0,0,1.689-4.375,0.939-9.188c0,0-0.813-9.873,12.354-24.707c0,0,4.666-5.168,1.666-14.168c0,0,11.168-5.332,9.5-19.333l2.5-4.333
	c0,0-0.332,10.333,3,0c0,0,7.334-9,16.834-11.167c0,0,4.082-4.167,0-5.75c0,0,8.25-0.667,9.916-4.417c0,0,1.668-4-2.832-6.583
	c0,0-0.168-2.917,1.832-2.667l0.668,2.917c0,0,3.166-1.083-0.168-4.083c0,0,0.918-11.917,6.668-11.583
	c0,0,11.582-27.5,11.666-37.667c0,0-4.332,1.667-2.5-3.333c0,0,0-12.917,7-24.75c0,0-0.5-6.167,2.75-10.833
	c0,0,3.666-18.5,1.584-23.417c0,0,6.334-3.75,2.5-8.917c0,0-2.252-1.333,2.666-2C1349.86,677.521,1357.776,669.854,1351.776,660.521
	z"/>
</svg>
