<?xml version="1.0" encoding="utf-8"?>
<!-- Generator: Adobe Illustrator 16.0.0, SVG Export Plug-In . SVG Version: 6.00 Build 0)  -->
<!DOCTYPE svg PUBLIC "-//W3C//DTD SVG 1.1//EN" "http://www.w3.org/Graphics/SVG/1.1/DTD/svg11.dtd">
<svg version="1.1" id="Layer_3" xmlns="http://www.w3.org/2000/svg" xmlns:xlink="http://www.w3.org/1999/xlink" x="0px" y="0px"
	 width="612px" height="792px" viewBox="0 0 612 792" enable-background="new 0 0 612 792" xml:space="preserve">
<path id="Roraima" fill="#c4c0f4" stroke="#231F20" stroke-miterlimit="10" d="M159.089,56.756c-0.75,0.75,5.75,4.25,5.75,6.25
	s-2.75,8.5-2.75,8.5s4.5,9,5.5,10.5s-4,9.25-4,9.25s7.25,3,8.25,5.25s3,5,4.75,4.5s1.75-0.5,1.75-0.5s-2.5-11.25,2.5-13
	s9.5,4.25,9.5,4.25s3.732-0.56,4.748-5.549c0.16-0.786,0.252-1.681,0.252-2.701c0,0-0.25-5.5,3.5-7s16.713-0.873,16.713-0.873
	V61.424c-1.033-0.11-2.158-0.416-3.395-1.001c-5.721-2.709-7.677-4.817-8.129-9.634s-1.656-3.462-3.312-7.527
	s0.452-8.43,0.903-10.387s3.613-7.978,4.365-8.731s-0.15-2.559-1.204-3.914s-1.054-3.763-1.054-3.763s-6.323-0.753-4.968-3.462
	s0-8.129-2.71-8.581s-5.72,1.204-5.72,1.204c0.301,2.409-1.957,5.419-3.613,7.376s-3.914,0.452-7.226,2.86
	s-9.034,4.366-12.195,3.915s-6.021-0.15-6.172,2.258s-1.204,3.763-2.409,5.419s-2.86-0.151-3.613-2.409s-5.57-2.709-8.43-2.258
	s-5.118-1.656-11.14-2.86s-4.667-1.205-3.914,1.054s8.129,6.473,8.129,6.473s-1.205,6.624,0.752,9.183s1.205,6.774,1.205,6.774
	s1.054,0.301,6.021,1.205s4.064,2.709,2.86,3.457c-0.355,0.22-1.056,0.522-1.907,0.879l9.16,1.053
	C161.089,51.756,159.839,56.006,159.089,56.756z"/>
<path id="Amapá" fill="#c4c0f4" stroke="#231F20" stroke-miterlimit="10" d="M285.339,58.506c0,0,4.5,1.5,5.5,1.5l2.75,7.75
	c0,0,4.5-0.25,4.75,2.5v6.75c0,0,3,4.25,5,6.75c0,0,0.75,3.25,2.75,6.5c0,0,0.75,6,6.75,6.25c0,0,6,0.75,6-3.5
	c0,0-1.891-4.701,4.109-10.701c0,0,11.178-12.632,14.891-12.549l5.123-0.405c0.9-2.456,0.959-5.582,1.377-8.926
	c0.602-4.817-1.656-5.118-4.367-7.075c-2.709-1.957-2.107-5.871-3.311-6.925c-1.205-1.054-1.355,4.667-2.107,3.763
	c0,0-4.217-6.776-5.873-12.044c0,0-0.602-10.989-4.215-18.516c-3.611-7.527-5.271,0.753-9.033,5.419
	c-3.764,4.667-4.367,9.484-10.84,20.172c-6.473,10.688-9.333-3.914-16.408,1.054s-8.129,1.054-8.129,1.054
	c-2.477-1.407-4.511-2.414-6.254-3.029l0.287,10.209C274.089,54.506,282.839,56.256,285.339,58.506z"/>
<path id="Piauí" fill="#c4c0f4" stroke="#231F20" stroke-miterlimit="10" d="M448.59,130.339c-1.334,2.333-3.104,6-3.104,6
	c-3.27,4.833-0.23,14.333-0.23,14.333c1,5.5-1.58,6.833-1.58,6.833c-5.08,3.667-1.586,8.667-1.586,8.667
	c2.666,4.667,1.166,9.333,1.166,9.333c-2.166,3.5-11.666,0-11.666,0c-3,0.167-7.666,5.5-7.666,5.5c-3,3.5-15.668,8-15.668,8
	c-2.5,1-3.166,8.5-3.166,8.5c-1.5,4-6.666,8.667-5.834,10.333c0.834,1.667,3.334,6.5,3.334,6.5v11.199
	c1.369-0.02,2.668,0.023,3.25,0.217c1.5,0.5,1.75,0.75,2.5,4.5c0,0-1,4.25,3,5.75c0,0,5.25,3.25,7.25,0c0,0,1.75-3.25,6-4
	c0,0,8.75-2.75,8.75-8.5c0,0-5-7.75-2.75-8.5c0,0,5.25-2.75,9.5-0.75c0,0,1.5,3.25,5.5,2.75c0,0,9.25-3.5,13-4.75c0,0,7.25-6,11-9.5
	c0,0,8.75-6.75,8-9.75c0,0-5.5-4.75-2.75-6.5c0,0,3-1.25,4-5.25c0,0,1.75-3.25,0-4.75c0,0-4,0.25-4.75-5l-1-16.917
	c0,0-4.5-1.333-4.75-8.333c0,0-0.25-8.75-1.5-13.75c0,0-1.816-6.575,0.188-11.669c-4.113,0.011-5.816-0.958-7.26-1.687l-2.824,7.915
	C454.943,128.564,448.59,130.339,448.59,130.339z"/>
<path id="RioGrandedoSul" fill="#c4c0f4" stroke="#231F20" stroke-miterlimit="10" d="M344.59,509.256c0.969-3.399,2.25-4.5,2.25-4.5
	l-13-2c0,0-6.402-11.076-25-16.5c-10.158-2.963-20.804-2.718-23.568-2.593c-2.492,2.055-6.523,4.611-13.043,8.834
	c-15.807,10.236-26.795,27.099-32.967,34.174s-3.914,7.226-3.914,7.226c4.516,1.054,4.817-1.054,4.817-1.054
	c4.516-2.56,7.527,1.355,12.946,6.172s4.064,8.581,4.064,8.581l4.215-2.258c4.366-2.709,4.516,3.161,10.839,6.773
	s4.516,3.162,9.634,6.925s6.774,5.42,8.279,9.635s4.516,3.312,7.075,5.871s-6.172,6.623-6.473,13.397s4.064,4.817,4.064,4.817
	s7.98-7.981,11.28-10.842s2.421-5.721,1.97-9.483s3.16-4.366,4.666-6.774s-1.055-1.957-1.957-3.011s0.15-2.56,1.656-5.118
	c1.504-2.559,1.355-3.914,5.42-6.925s4.064-6.322,6.021-10.989s0.752-6.172,0.752-6.172s1.506,1.354,3.613,2.408
	s5.117-1.957,5.117-1.957s0.301,1.807-0.301,5.57s-6.924,7.376-7.377,10.537c-0.451,3.161-2.709,3.914-3.461,5.118
	c-0.754,1.204-5.42,4.064-7.377,5.42s-0.902,3.914-0.902,3.914s1.504-1.506,6.021-4.517c0,0,8.732-7.98,12.496-12.647
	s4.666-7.526,6.172-10.839s1.355-5.873,3.914-12.196c0.68-1.677,1.873-3.49,3.32-5.293l-5.602-1.585
	C340.252,517.376,343.314,513.726,344.59,509.256z M298.833,586.399c0,0,1.98-3.161,2.119-3.914s2.119-4.064,2.119-4.064
	s0,0-2.86-1.505s-0.452-4.064,0-4.064l2.25-2.259c0,0,1.664-5.569,1.664-5.118s1.355,3.463,1.054,5.721s0.903,3.463,0.91,6.474
	S298.833,586.399,298.833,586.399z"/>
<path id="MinasGerais" fill="#c4c0f4" stroke="#231F20" stroke-miterlimit="10" d="M336.09,369.506c0,0,15.25,2.75,16,2.375
	s1.5,4.625,1.5,4.625s5-1,6.25-2s14-3.5,17.75-3c0,0,4.75,4.75,4.5,7c0,0,2.5,0.75,1.75,3.5s-1.469,4.5,0.141,7.5
	c0,0,0.359,3.5,5.109,3.75c0,0,5.5-1.5,3,3.5s-3.5,8.75-1.75,11.5s4.727,5.5,5.113,6.5h7.137l1.5-3.159c0,0,8-0.591,13.25-3.341
	c0.414-0.217,0.863-0.421,1.305-0.628l-0.002-0.016l0.002,0.016c5.139-2.42,11.898-4.161,17.195-4.622
	c5.75-0.5,15.25-0.75,17.5-7.75c0,0,0-7.5,3.5-10.75c0,0,3-1,3-9.25l6-0.75c0,0,7-12,6-14.75l-3.5-6h3.598
	c0,0-4.148-6.134-2.148-8.884c0,0,3.873,0.412,3.285-2.885c-0.279-1.56,8.611-2.312,8.611-2.312l0.904-1.92
	c-0.5-2-5.5-5.75-5.5-5.75l0.25-5.5l4.25-0.5c0,0,0.25-4.5,0.75-5.25s5-7.5,5-7.5c0.75-2.25-6.25-3.75-10.75-5.5
	s-9.25,0.25-9.25,0.25l-3.5-5.75c-3.5-4.75-7.75-2.25-7.75-2.25c-5.5,0.25-11.75-6.5-11.75-6.5c-3.75-1.5-6-1.5-8.5,0.25
	s-5-1.5-5-1.5v-5.25c0,0-7-2-11.75,1.5s-18.748,11.403-18.748,11.403c-0.699-5.633-7.002-6.903-7.002-6.903
	c-2.25,0.25,0.25,4.5-1,5.522s-3-2.022-5.25-0.523c0,0-1,6.001-0.25,6.501s1.75,5.25,0,5.75s-5.5,2.25-5.5,2.25s-2,3.5-2,5.75
	s4.5,8,4.5,8l-7.25,6.5c0,0,3.25,1.5,4,2s0.75,5.5,0.5,6.75s-7.5,7-7.5,7s-9.75-2.75-15.25-2.75s-5.25,5.25-5.25,5.25
	s-10.25-1.75-15.5,1s-2.75,7.25-5.5,7.25c-2.545,0-3.289,5.027-3.387,5.781c-0.006,0.066-0.012,0.104-0.012,0.104
	s0.004-0.042,0.012-0.104c0.002-0.025,0.002-0.069,0.004-0.104l-0.57,7.224L336.09,369.506z"/>
<path id="Ceará" fill="#c4c0f4" stroke="#231F20" stroke-miterlimit="10" d="M488.838,185.653c0,0,3.369,0.126,6.549,3.681
	c0,0,3.182,5.8,6.361,1.31c0,0,5.426-2.245,3.555-6.735c0,0-2.619-0.936-0.748-8.419c0,0,0.545-3.309,1.869-6.029v-0.002v0.002
	c0.74-1.519,1.723-2.857,2.996-3.326c0,0,0.936,0.188,4.115-5.8c0,0,2.059-5.239,5.053-8.419c0,0,3.131-1.804,6.609-3.504
	c-0.176-0.168-0.342-0.341-0.506-0.521c-1.506-1.656-9.182-5.871-15.354-12.495s-18.371-12.194-20.629-14.603
	s-11.742-0.451-20.172,0c-0.537,0.029-1.039,0.042-1.51,0.043c-2.004,5.094-0.188,11.669-0.188,11.669c1.25,5,1.5,13.75,1.5,13.75
	c0.25,7,4.75,8.333,4.75,8.333l1,16.917c0.75,5.25,4.75,5,4.75,5c1.75,1.5,0,4.75,0,4.75c-0.348,1.389-0.938,2.439-1.557,3.228
	c1.947,0.055,3.746,0.257,4.82,0.734C482.104,185.218,485.096,186.462,488.838,185.653z"/>
<path id="RioGrandedoNorte" fill="#c4c0f4" stroke="#231F20" stroke-miterlimit="10" d="M512.785,172.339
	c5.795-1.179,6.734-4.521,6.734-4.521s3.555-0.936,5.426-0.936s-1.309,3.191-1.309,3.191s-5.238,5.416-1.684,6.164l9.166,0.865
	c0,0,2.994,4.374,3.93,1.38c0,0-0.936-7.65,1.311-8.409c0,0,3.887,2.987,8.189,3.144l12.537-2.188
	c-0.693-2.911-1.48-5.946-2.281-9.288c-2.711-11.29-9.488-9.486-18.221-10.239c-7.785-0.671-9.943-1.703-11.387-3.092
	c-3.479,1.701-6.609,3.504-6.609,3.504c-2.994,3.181-5.053,8.419-5.053,8.419c-3.18,5.987-4.115,5.8-4.115,5.8
	c-1.273,0.469-2.256,1.807-2.996,3.326C506.436,169.479,508.531,173.204,512.785,172.339z"/>
<path id="Paraíba" fill="#c4c0f4" stroke="#231F20" stroke-miterlimit="10" d="M513.158,191.206
	c3.742-1.684,8.795-7.11,12.723-6.174c0,0,3.93-0.295,1.684,3.033c0,0-3.18,1.457-2.432,5.386c0,0,0.008,5.426,3.371,5.239
	c0,0,5.047-2.246,6.732-4.865c0,0,0.936-1.786,6.549-2.016c0,0,5.238-0.042,6.922-2.288c0,0,0.188-3.181,4.303-3.368l6.424,3.076
	c0.131-6.575-0.896-12.114-2.348-18.2l-12.537,2.188c-4.303-0.156-8.189-3.144-8.189-3.144c-2.246,0.759-1.311,8.409-1.311,8.409
	c-0.936,2.994-3.93-1.38-3.93-1.38l-9.166-0.865c-3.555-0.748,1.684-6.164,1.684-6.164s3.18-3.191,1.309-3.191
	s-5.426,0.936-5.426,0.936s-0.939,3.342-6.734,4.521c-4.254,0.865-6.35-2.86-6.361-2.879c-1.324,2.72-1.869,6.029-1.869,6.029
	c-1.871,7.484,0.748,8.419,0.748,8.419c1.07,2.566-0.244,4.396-1.566,5.496c0.791,0.743,2.088,1.801,3.061,1.801
	C508.295,191.206,513.158,191.206,513.158,191.206z"/>
<path id="Pernambuco" fill="#c4c0f4" stroke="#231F20" stroke-miterlimit="10" d="M559.434,189.229l-6.424-3.076
	c-4.115,0.187-4.303,3.368-4.303,3.368c-1.684,2.245-6.922,2.288-6.922,2.288c-5.613,0.229-6.549,2.016-6.549,2.016
	c-1.686,2.619-6.732,4.865-6.732,4.865c-3.363,0.187-3.371-5.239-3.371-5.239c-0.748-3.929,2.432-5.386,2.432-5.386
	c2.246-3.328-1.684-3.033-1.684-3.033c-3.928-0.936-8.98,4.49-12.723,6.174c0,0-4.863,0-6.361,0c-0.973,0-2.27-1.058-3.061-1.801
	c-0.992,0.824-1.988,1.24-1.988,1.24c-3.18,4.49-6.361-1.31-6.361-1.31c-3.18-3.555-6.549-3.681-6.549-3.681
	c-3.742,0.809-6.734-0.435-6.734-0.435c-1.074-0.478-2.873-0.68-4.82-0.734c-1.166,1.483-2.443,2.022-2.443,2.022
	c-2.75,1.75,2.75,6.5,2.75,6.5c0.75,3-8,9.75-8,9.75c-0.469,0.438-0.992,0.914-1.549,1.413c1.641,0.943,4.529,2.746,5.83,4.438
	c0,0,1.498,3.929,1.498,6.174c0,0,1.123,3.181,5.051-1.123l1.123-3.742l4.49-1.305l7.297-5.804c2.619-0.562,2.992,1.497,6.268,2.619
	c3.273,1.123,10.197,4.116,10.197,4.116s0,4.304,1.496,5.052l5.984-6.923c0,0,7.857,3.369,8.98,4.304c0,0,2.807,2.806,7.859,1.871
	c0,0,4.676-2.245,6.734-4.864c0,0,0.746-1.824,6.924-1.31l6.908,0.002c2.336-3.871,4.143-8.332,4.639-15.672
	C559.385,191.051,559.416,190.134,559.434,189.229z"/>
<path id="Maranhão" fill="#c4c0f4" stroke="#231F20" stroke-miterlimit="10" d="M456.49,118.384
	c-3.762,0.301-7.828-0.301-13.699-3.914s-6.773,0.452-8.58,0.301s0-3.312-1.957-2.86s-1.807,3.161-1.807,3.161
	s-5.117,6.774-4.215,3.312s1.205-4.366-1.807-3.613c-3.01,0.753-2.859,7.828-3.16,4.968s1.354-8.43,1.354-8.43
	s-3.16,1.505-3.01-0.301s1.504-3.763,0-6.624c-1.506-2.86-3.613-3.161-3.613-3.161s-0.301-3.312-1.656-4.064
	c-1.354-0.752-1.053,2.86-1.053,2.86l-3.307,3.613c0,0-0.307-0.753-0.006-2.71s-9.785-6.173-10.689-6.474
	c-0.053-0.018-0.172-0.056-0.344-0.108c-0.563,3.662-2.73,16.524-6.352,22.917c-4.25,7.5-10.75,20-14,23
	c-2.77,2.557-14.066,12.189-17.348,14.982c4.967-0.468,10.631-0.782,12.098,0.018c0,0,5.5,2,5.5,5.5c0,0-1.5,6.75,0,8.5
	c0,0,0.75,7.5-1.5,10.25c0,0-4,1.75-1,5.25s8,10,8,10s7.75-2.5,8.25,0c0,0,1,4.25-2.5,5.25c0,0-3.25,5.75-4.25,7.5
	c0,0,0.246,3.121,3,7.25c1,1.5,2.451,1.451,3.881,5.5c0.619,1.75-0.881,5,5.369,5.5c0,0,2.34-0.187,4.5-0.217v-11.199
	c0,0-2.5-4.833-3.334-6.5c-0.832-1.667,4.334-6.333,5.834-10.333c0,0,0.666-7.5,3.166-8.5c0,0,12.668-4.5,15.668-8
	c0,0,4.666-5.333,7.666-5.5c0,0,9.5,3.5,11.666,0c0,0,1.5-4.666-1.166-9.333c0,0-3.494-5,1.586-8.667c0,0,2.58-1.333,1.58-6.833
	c0,0-3.039-9.5,0.23-14.333c0,0,1.77-3.667,3.104-6c0,0,6.354-1.775,8.354-3.275l2.824-7.915
	C458.783,118.654,457.918,118.27,456.49,118.384z"/>
<path id="SantaCatarina" fill="#c4c0f4" stroke="#231F20" stroke-miterlimit="10" d="M342.59,465.746c-3.25-0.01-9.75,0-9.75,0
	c-0.75,5.24-3.25,2.76-3.25,2.76c-5.25,1-4,4-5.25,6.5s-11.5-3.5-18.251-4.25c-5.18-0.575-13.643-1.721-17.303-2.224
	c0.309,2.059,0.455,4.161,0.455,6.049c0,4.245-0.42,6.154-3.969,9.082c2.764-0.125,13.41-0.37,23.568,2.593
	c18.598,5.424,25,16.5,25,16.5l13,2c0,0-1.281,1.101-2.25,4.5c-1.275,4.47-4.338,8.12-4.338,8.12l5.602,1.585
	c4.012-4.996,10.021-9.907,12.787-11.566c3.764-2.258,0.602-4.517,2.258-6.021s1.355-3.614,2.41-7.077
	c1.053-3.463,1.656-4.667,0.15-5.721s-0.301-2.109,0.451-5.12c0.754-3.011-1.053-2.86-0.902-8.581s1.354-4.064,0-5.87
	c-1.023-1.364-1.1-2.731-0.492-4.615c-0.768,0.009-7.197,0.158-10.926,2.617C348.166,469.264,342.59,465.746,342.59,465.746z"/>
<path id="RiodeJaneiro" fill="#c4c0f4" stroke="#231F20" stroke-miterlimit="10" d="M461.09,386.756c0-1.487-1.404-3.43-2.357-4.578
	c-0.855,1.968-1.893,2.328-1.893,2.328c-3.5,3.25-3.5,10.75-3.5,10.75c-2.25,7-11.75,7.25-17.5,7.75
	c-5.297,0.461-12.057,2.202-17.195,4.622l0.445,3.969h6.75c0,0,0.25,2.659-4,3.159s-5.5,4-5.5,4v4.489
	c2.154-0.888,4.025-1.639,4.025-2.099c0-0.886-2.258-0.318-2.711-1.372c-0.451-1.054,3.162-2.107,4.668-2.258
	s2.559,3.312,3.01,3.612c0.453,0.301,1.807-3.312,4.516-4.064c2.711-0.753,3.313,0.753,5.871,0.903
	c2.561,0.15,4.516-0.755,4.215-2.411s0.754-3.011,1.506-1.957s0.602,3.613,3.463,3.463c2.859-0.15,11.139-0.603,12.043-0.903
	c0.902-0.301,0.752-4.817,2.408-7.979c1.654-3.161,7.225-3.613,10.387-4.064s1.205-3.916,0.604-8.583
	c-0.146-1.139,0.096-2.377,0.57-3.62l-9.824-1.907V386.756z"/>
<path id="EspíritoSanto" fill="#c4c0f4" stroke="#231F20" stroke-miterlimit="10" d="M473.074,341.987
	c0.588,3.297-3.285,2.885-3.285,2.885c-2,2.75,2.148,8.884,2.148,8.884h-3.598l3.5,6c1,2.75-6,14.75-6,14.75l-6,0.75
	c0,3.394-0.51,5.547-1.107,6.922c0.953,1.148,2.357,3.091,2.357,4.578v3.25l9.824,1.907c1.473-3.854,5.213-7.773,6.805-9.025
	c2.107-1.656,3.613-4.216,4.518-6.625c0.902-2.409,0.902-4.365,3.914-8.129c3.01-3.764,2.559-3.765,3.012-13.851
	c0.156-3.491,0.498-5.85,1.014-7.592l-8.49-7.016C481.686,339.676,472.795,340.428,473.074,341.987z"/>
<path id="Bahia" fill="#c4c0f4" stroke="#231F20" stroke-miterlimit="10" d="M517.893,245.838c-0.135-0.375-7.162-9.542-7.162-9.542
	c-1.684-3.181,4.863-2.058,4.863-2.058c1.871-1.497,2.059-7.065,2.059-7.065c1.311-3.324-3.18-3.333-3.18-3.333
	s-1.686-8.498-3.182-9.246s-1.496-5.052-1.496-5.052s-6.924-2.994-10.197-4.116c-3.275-1.123-3.648-3.181-6.268-2.619l-7.297,5.804
	l-4.49,1.305l-1.123,3.742c-3.928,4.303-5.051,1.123-5.051,1.123c0-2.245-1.498-6.174-1.498-6.174
	c-1.301-1.691-4.189-3.495-5.83-4.438c-3.9,3.493-9.451,8.087-9.451,8.087c-3.75,1.25-13,4.75-13,4.75c-4,0.5-5.5-2.75-5.5-2.75
	c-4.25-2-9.5,0.75-9.5,0.75c-2.25,0.75,2.75,8.5,2.75,8.5c0,5.75-8.75,8.5-8.75,8.5c-4.25,0.75-6,4-6,4c-2,3.25-7.25,0-7.25,0
	c-4-1.5-3-5.75-3-5.75c-0.451-2.251-0.723-3.237-1.191-3.777c-3.498,3.042-12.811,11.177-13.893,12.527c0,0-3.166,5.667,0.834,7
	c0,0,3.227-2,1.363,3.333c0,0-1.637,5.667,0,9.417v7.735v17.182l4.469,3.333l-0.738,9.796c0.57,0.85,1.004,1.867,1.158,3.107
	c0,0,13.998-7.903,18.748-11.403s11.75-1.5,11.75-1.5v5.25c0,0,2.5,3.25,5,1.5s4.75-1.75,8.5-0.25c0,0,6.25,6.75,11.75,6.5
	c0,0,4.25-2.5,7.75,2.25l3.5,5.75c0,0,4.75-2,9.25-0.25s11.5,3.25,10.75,5.5c0,0-4.5,6.75-5,7.5s-0.75,5.25-0.75,5.25l-4.25,0.5
	l-0.25,5.5c0,0,5,3.75,5.5,5.75l-0.904,1.92l8.49,7.016c0.979-3.289,2.594-4.343,4.857-6.41c3.463-3.162,1.957-3.913,1.656-9.784
	s3.012-14.001,4.365-18.065c1.355-4.064-0.602-9.635-1.656-16.86s0.605-21.377,1.057-24.086s4.666-3.764,4.666-3.764
	s-2.859-1.957-1.053-4.365s3.611,4.365,3.611,4.365s1.355-0.903,3.764-4.365c2.41-3.462,7.379-8.732,10.842-16.56
	c0.287-0.646,0.57-1.246,0.854-1.826C521.285,245.395,517.988,246.107,517.893,245.838z"/>
<path id="Tocantins" fill="#c4c0f4" stroke="#231F20" stroke-miterlimit="10" d="M368.34,161.006c-2,3-1.25,6.25-3,8.5
	s-3.5,4.75-5,6.25c0,0-6.5,2-7,5.25c0,0-0.5,4.5-1.75,6c0,0,0,4.25,2.5,4.5c0,0,2,5-1,8.75c0,0-10.5,10.5-11.75,14.25
	c0,0-9.5,24-8.75,36.75c0.443,7.56-0.254,16.35-1.156,23.504l3.156-2.254c0,0-1.5-7.25,0-8.5s5.5-5.25,5.5-5.25s0.5,1.5,0,4
	s0.25,4,1.5,4.25s9.5,3.75,10.25,2.5s0-4.25,3.75-4.75s9.25,5.5,9.25,5.5s9.25,3.5,11,2.25s0-3,2.75-2.75s7.75-1.75,11.25-2.75
	s5.613-0.515,5.613-0.515v-7.735c-1.637-3.75,0-9.417,0-9.417c1.863-5.333-1.363-3.333-1.363-3.333c-4-1.333-0.834-7-0.834-7
	c1.082-1.35,10.395-9.485,13.893-12.527c-0.311-0.36-0.709-0.523-1.309-0.723c-0.582-0.194-1.881-0.237-3.25-0.217
	c-2.16,0.031-4.5,0.217-4.5,0.217c-6.25-0.5-4.75-3.75-5.369-5.5c-1.43-4.049-2.881-4-3.881-5.5c-2.754-4.129-3-7.25-3-7.25
	c1-1.75,4.25-7.5,4.25-7.5c3.5-1,2.5-5.25,2.5-5.25c-0.5-2.5-8.25,0-8.25,0s-5-6.5-8-10s1-5.25,1-5.25
	c2.25-2.75,1.5-10.25,1.5-10.25c-1.5-1.75,0-8.5,0-8.5c0-3.5-5.5-5.5-5.5-5.5c-1.467-0.8-7.131-0.486-12.098-0.018
	c-0.568,0.484-0.902,0.768-0.902,0.768S370.34,158.006,368.34,161.006z"/>
<path id="MatoGrossodoSul" fill="#c4c0f4" stroke="#231F20" stroke-miterlimit="10" d="M285.089,431.006c-0.25-2.5,0.004-6.5,0.004-6.5
	l4.496-1.5c0,0,0-7,5.25-9.75s19-14.25,20.5-21c0,0,2.25-10.25,8.25-14.5l4.5-5l0.047-0.599l0.57-7.224
	c0.02-0.531-0.135-2.102-2.367-3.928c-2.75-2.25-14-5.75-14-5.75c-6.5-4-12.25-3.75-12.25-3.75l2.25-5l-4.25-1.5
	c0.275-0.458,0.146-1.992-0.127-3.75h-7.623c-6-0.25-2.25-4.75-2.25-4.75c1-0.75,2.25-2.94,2.25-2.94c0-6.94-4,0-4,0
	c-3.75,5.06-6.75,1.44-6.75,1.44c-3.5-1.75-6.75,0.5-6.75,0.5c-3.5,1.75-8-1.94-8-1.94c-1,0.06-9-5.31-10-5.31
	s-8.5,2.25-12.25,7.625s-7.5,1.875-7.5,1.875c-0.588-1.098-2.455-1.627-4.059-1.884c2.392,2.365,2.48,4.71,3.559,6.975
	c1.505,3.161-3.764,15.357-4.817,18.067s-5.569,5.119-1.505,8.431s0.301,2.56-2.409,4.667s1.806,3.462,4.366,8.882
	s-1.504,14.453-1.655,18.819s4.667,3.161,12.193,4.215s9.032-2.56,9.032-2.56l3.916,2.712c2.409,1.807,7.527,0.752,8.731,6.925
	s-0.751,17.765,3.162,20.324s8.583-3.611,12.647-1.955c1.386,0.564,2.123,2.478,2.393,4.99
	C282.471,435.026,285.258,432.695,285.089,431.006z"/>
<path id="Paraná" fill="#c4c0f4" stroke="#231F20" stroke-miterlimit="10" d="M363.34,448.006c1-2,0-4.25,0-4.25h-9.75v-4.75
	c0,0-4.5-6.75-4.5-12.25s-3.25-8.25-3.25-8.25s-10.5-1.75-13-1.75s-8.5-3.75-11.75-4.5s-7.25-1-10.25,0
	c-2.16,0.72-9.889,0.188-14.051-0.168c-0.729,0.477-1.39,0.875-1.95,1.168c-5.25,2.75-5.25,9.75-5.25,9.75l-4.496,1.5
	c0,0-0.254,4-0.004,6.5c0.169,1.689-2.618,4.021-4.446,5.358c0.522,4.858-0.706,11.965-2.393,15.934
	c-2.559,6.021-1.957,6.775,3.463,5.722c4.004-0.778,6.198,4.689,7.072,10.513c3.661,0.503,12.124,1.648,17.303,2.224
	c6.751,0.75,17.001,6.75,18.251,4.25s0-5.5,5.25-6.5c0,0,2.5,2.48,3.25-2.76c0,0,6.5-0.01,9.75,0c0,0,5.576,3.518,9,1.26
	c3.729-2.459,10.158-2.608,10.926-2.617c0.195-0.61,0.461-1.272,0.793-2.009c1.354-3.011,0.451-5.721,2.408-6.172
	c0,0,1.549-1.307,3.477-2.232l-1.391-4.774C363.447,450.613,363.34,448.006,363.34,448.006z"/>
<path id="SãoPaulo" fill="#c4c0f4" stroke="#231F20" stroke-miterlimit="10" d="M425.84,411.597h-6.75l-0.445-3.969
	c-0.441,0.207-0.891,0.411-1.305,0.628c-5.25,2.75-13.25,3.341-13.25,3.341l-1.5,3.159h-7.137c-0.387-1-3.363-3.75-5.113-6.5
	s-0.75-6.5,1.75-11.5s-3-3.5-3-3.5c-4.75-0.25-5.109-3.75-5.109-3.75c-1.609-3-0.891-4.75-0.141-7.5s-1.75-3.5-1.75-3.5
	c0.25-2.25-4.5-7-4.5-7c-3.75-0.5-16.5,2-17.75,3s-6.25,2-6.25,2s-0.75-5-1.5-4.625s-16-2.375-16-2.375l-7.953,2.651l-0.047,0.599
	l-4.5,5c-6,4.25-8.25,14.5-8.25,14.5c-1.34,6.03-12.452,15.846-18.551,19.832c4.162,0.355,11.891,0.888,14.051,0.168
	c3-1,7-0.75,10.25,0s9.25,4.5,11.75,4.5s13,1.75,13,1.75s3.25,2.75,3.25,8.25s4.5,12.25,4.5,12.25v4.75h9.75c0,0,1,2.25,0,4.25
	c0,0,0.107,2.607,4.463,1.195l1.391,4.774c0.242-0.116,0.488-0.229,0.74-0.329c2.258-0.903,2.709-1.506,3.762-5.721
	c1.055-4.215,12.045-8.883,22.131-15.149s11.141-1.109,13.699-0.206c2.561,0.903,2.258-1.355,0.301-3.011s-1.504-1.656,1.055-3.613
	c1.229-0.94,3.465-1.88,5.459-2.701v-4.489c0,0,1.25-3.5,5.5-4S425.84,411.597,425.84,411.597z"/>
<path id="MatoGrosso" fill="#c4c0f4" stroke="#231F20" stroke-miterlimit="10" d="M233.589,204.756c0,0-0.25-3.25-0.25-5.5
	s-2.25-5.5-2.25-5.5c-0.698-2.654-2.24-5.147-3.952-7.792c-1.874,3.184-3.349,6.231-3.048,7.529c0.75,3.237-0.5,5.763-1.25,6.263
	s0,6,0,6s-36.354,1.253-44.5,0.131c0,3.151,0,6.192,0,7.369c0,2.75,0,4.75,0,8.5s1,3.5,1.25,7.25s-1.25,8.75-1.25,8.75
	s13-1.5,16.25,0s9.25,3.5,6.25,6s-4.25,2.5-2.25,6s5.632,6.75,3.066,10.25c0,0-1.066,1.75-3.066,5.75c0,0-3.629,6.071-7.325,11.288
	c3.345,1.44,1.448,2.608,1.322,5.883c-0.151,3.914,3.614,8.131,3.614,8.131s0.301,6.322,0.301,6.947s-5.118,0-5.118,0l4.967,5.697
	l-0.3,11.293l27.247,0.753c-0.602,2.86-3.011,14,3.613,17.312c1.877,0.938,3.173,1.877,4.12,2.813
	c1.604,0.257,3.471,0.786,4.059,1.884c0,0,3.75,3.5,7.5-1.875s11.25-7.625,12.25-7.625s9,5.369,10,5.31c0,0,4.5,3.69,8,1.94
	c0,0,3.25-2.25,6.75-0.5c0,0,3,3.619,6.75-1.44c0,0,4-6.94,4,0c0,0-1.25,2.19-2.25,2.94c0,0-3.75,4.5,2.25,4.75h7.623
	c-0.471-3.039-1.373-6.75-1.373-6.75c-0.5-7.25,7.206-13.75,7.206-13.75c2.706-2.5,0.044-4.5,0.044-4.5c-0.75-2.5,8.25-5.5,8.25-5.5
	c3.75-1,4.75-2.75,5.5-7.5s3-4.75,7-5.251s5-11.749,5-11.749c0.508-2.442,1.225-6.584,1.844-11.496v0v0
	c0.902-7.154,1.6-15.944,1.156-23.504c-0.508-8.623,3.672-22.384,6.432-30.394l-93.182-7.106L233.589,204.756z"/>
<g id="Pará">
	<path fill="#c4c0f4" stroke="#231F20" stroke-miterlimit="10" d="M337.346,78.732c0.379,0.047,2.91-0.379,3.809,0
		s1.656,1.372,1.988,1.419c0.33,0.047,2.033-2.105,2.578-2.697c0.543-0.591,1.773-1.68,1.893-1.845
		c0.117-0.166-2.91-0.614-3.525-0.52s-4.471,0.284-4.471,0.284C338.932,75.799,337.346,78.732,337.346,78.732z"/>
	<path fill="#c4c0f4" stroke="#231F20" stroke-miterlimit="10" d="M373.545,87.975c-5.42-0.301-8.279,9.936-12.646,12.946
		c-4.365,3.011-10.236,11.29-10.236,10.386s0.602-6.172,2.107-7.828s6.623-5.57,9.334-9.333c2.709-3.763,3.16-10.839,3.16-10.839
		s-13.396-1.204-14.902-1.354s0.752-0.903,0-2.86c-0.754-1.957-3.012-0.753-4.064,0.15c-1.055,0.903-1.055,3.462-3.012,3.011
		s-6.623-1.354-7.375-0.752c-0.754,0.602-4.215,6.624-5.119,6.172c-0.902-0.452,1.205-4.516,2.559-6.323
		c1.355-1.807-1.807-1.957-3.16-1.354c-1.355,0.602-4.818,6.021-7.227,7.376s0.15-2.709,0.604-3.161
		c0.451-0.452,13.096-13.699,13.547-12.946c0,0-1.957,4.065-3.16,6.172c-1.205,2.107,1.504,2.408,1.654,1.505
		s2.861-4.215,5.57-6.774c0.828-0.782,1.389-1.735,1.785-2.817l-5.123,0.405c-3.713-0.083-14.891,12.549-14.891,12.549
		c-6,6-4.109,10.701-4.109,10.701c0,4.25-6,3.5-6,3.5c-6-0.25-6.75-6.25-6.75-6.25c-2-3.25-2.75-6.5-2.75-6.5c-2-2.5-5-6.75-5-6.75
		v-6.75c-0.25-2.75-4.75-2.5-4.75-2.5l-2.75-7.75c-1,0-5.5-1.5-5.5-1.5c-2.5-2.25-11.25-4-11.25-4l-0.287-10.209
		c-2.917-1.03-5.016-0.961-6.995,0.169c-3.161,1.806-8.129-0.903-9.001-0.602s-3.644,1.204-0.483,5.871s-10.236,2.86-10.236,2.86
		c-10.086-1.054-9.035-1.204-14.153,2.71s-7.679-0.904-9.636,1.957c-1.534,2.242-3.999,4.563-7.746,4.163v14.209
		c0,0-0.327-0.016-0.889-0.036l1.176,8.409c0,0,1,5.5,3.5,7.5s8.769,4.75,8.769,4.75l1.481,4.81l16.75,7.44v2.75
		c0,0,9.25-2.75,9.25-2s-4.75,4.75-4.75,4.75s-25.25,56.5-27,58.25c0,0-3.552,1.484-0.75,7c1.236,2.434,2.695,4.618,4.048,6.708
		c1.712,2.645,3.254,5.139,3.952,7.792c0,0,2.25,3.25,2.25,5.5s0.25,5.5,0.25,5.5l12.25,9l93.182,7.106
		c1.32-3.833,2.318-6.356,2.318-6.356c1.25-3.75,11.75-14.25,11.75-14.25c3-3.75,1-8.75,1-8.75c-2.5-0.25-2.5-4.5-2.5-4.5
		c1.25-1.5,1.75-6,1.75-6c0.5-3.25,7-5.25,7-5.25c1.5-1.5,3.25-4,5-6.25s1-5.5,3-8.5s-8-5-8-5s0.334-0.284,0.902-0.768
		c3.281-2.793,14.578-12.425,17.348-14.982c3.25-3,9.75-15.5,14-23c3.621-6.392,5.789-19.254,6.352-22.917
		C396.17,93.482,378.648,88.258,373.545,87.975z"/>
</g>
<path id="Amazonas" fill="#c4c0f4" stroke="#231F20" stroke-miterlimit="10" d="M246.339,111.256v-2.75l-16.75-7.44l-1.481-4.81
	c0,0-6.269-2.75-8.769-4.75s-3.5-7.5-3.5-7.5l-1.176-8.409c-2.988-0.109-12.667-0.353-15.824,0.909c-3.75,1.5-3.5,7-3.5,7
	c0,1.02-0.092,1.916-0.252,2.701c-1.016,4.989-4.748,5.549-4.748,5.549s-4.5-6-9.5-4.25s-2.5,13-2.5,13s0,0-1.75,0.5
	s-3.75-2.25-4.75-4.5s-8.25-5.25-8.25-5.25s5-7.75,4-9.25s-5.5-10.5-5.5-10.5s2.75-6.5,2.75-8.5s-6.5-5.5-5.75-6.25s2-5-1.25-6.75
	l-9.16-1.053c-2.034,0.852-4.948,2.023-6.222,3.191c-1.807,1.656-1.204,4.817-4.215,5.118s-7.83,3.464-13.099,8.432
	s-5.419,4.968-4.215,1.656s-1.355-3.161-4.817-1.054s-6.021,3.161-9.333-0.15s-5.419-3.011-7.66-3.312s-1.823-1.355-0.318-3.613
	s-2.71-9.936-4.817-10.989s-5.72,3.462-7.828,4.516s-2.709-2.559-4.667-2.559s0.903,4.818,0.903,4.818H58.908l-0.301,8.731
	c0,0,3.312-0.15,7.226,0s3.312,7.226,3.312,7.226s-3.312-1.656-6.473-1.205S56.8,71.265,56.8,71.265l-0.301,11.591
	c0,0,4.366,1.508,7.678,9.486s-6.323,48.926-6.323,48.926l-4.666-0.751c-2.258-1.054-5.269-2.409-7.076-1.054
	s-4.667,2.258-10.387,3.161s-9.333,3.613-13.548,6.323s-6.323,4.215-7.376,7.527c0,0-0.752,4.817-2.709,6.774
	s-1.807,4.516-1.656,5.119c0,0,3.002,2.252,0.443,4.209s-7.226,1.354-7.376,7.376c-0.037,1.476-0.22,2.441-0.483,3.103
	c6.362,2.559,14.379,5.419,19.57,5.951c9.75,1,34.25,3,34.25,3s17,16.75,20.75,18.25s23.681,9.875,23.681,9.875
	s1.069,0.625,5.069-2.875s10.25-3,11.5-2.25s2.813-0.354,5.063-1.313s6.188-0.438,7.438-2.938c0,0-1.25-2.25,3.5-2.5
	c0,0,6,2.25,10.5-6.625s3.75-7.625,10.75-8.125s16.75,13.25,16.75,13.25s2.5-3,5-1.25c0.049,0.034,0.118,0.067,0.198,0.099
	c0.019,0.007,0.04,0.015,0.06,0.022c0.077,0.027,0.163,0.054,0.263,0.08c0.012,0.003,0.023,0.007,0.036,0.01
	c0.251,0.063,0.567,0.119,0.943,0.171l0,0c8.146,1.123,44.5-0.131,44.5-0.131s-0.75-5.5,0-6s2-3.026,1.25-6.263
	c-0.301-1.298,1.174-4.345,3.048-7.529c-1.353-2.089-2.812-4.273-4.048-6.708c-2.802-5.516,0.75-7,0.75-7
	c1.75-1.75,27-58.25,27-58.25s4.75-4,4.75-4.75S246.339,111.256,246.339,111.256z"/>
<path id="Acre" fill="#c4c0f4" stroke="#231F20" stroke-miterlimit="10" d="M77.589,210.256c-3.75-1.5-20.75-18.25-20.75-18.25
	s-24.5-2-34.25-3c-5.191-0.532-13.208-3.393-19.57-5.951c-0.812,2.041-2.398,1.174-2.93,3.22c-0.704,2.71,2.962,2.86,3.564,5.419
	s2.71,6.925,7.829,13.7s-0.151,9.183-0.151,9.183c14.301-0.301,14,8.882,14,8.882l13.399-0.149l10.086-7.828l-0.75,20.474
	l1.054,2.409c3.162,2.86,6.925-0.753,6.925-0.753s11.29-0.452,16.107,0.602s6.172,1.656,6.774,1.505s2.86-2.107,5.419-5.419
	s5.72-0.151,5.72-0.151l2.258-3.312c2.86-3.161,7.527-3.613,7.527-3.613c1.168-1.103,3.961-2.485,7.276-3.749l-5.857-3.344
	C101.27,220.131,81.339,211.756,77.589,210.256z"/>
<path id="Rondônia" fill="#c4c0f4" stroke="#231F20" stroke-miterlimit="10" d="M177.361,205.706
	c-0.099-0.025-0.187-0.052-0.263-0.08c-0.021-0.007-0.042-0.015-0.06-0.022c-0.08-0.032-0.149-0.064-0.198-0.099
	c-2.5-1.75-5,1.25-5,1.25s-9.75-13.75-16.75-13.25s-6.25-0.75-10.75,8.125s-10.5,6.625-10.5,6.625c-4.75,0.25-3.5,2.5-3.5,2.5
	c-1.25,2.5-5.188,1.979-7.438,2.938s-3.813,2.063-5.063,1.313s-7.5-1.25-11.5,2.25s-5.069,2.875-5.069,2.875l5.857,3.344
	c4.376-1.669,9.666-3.133,13.349-3.476c6.473-0.602,3.763,8.43,3.613,14.15s-1.655,10.99,7.377,19.42s9.333,5.419,14.602,6.172
	s6.023,2.259,13.55,6.173s10.236,5.57,13.397,8.581s8.883-0.3,15.657,1.657c1.106,0.32,1.939,0.61,2.592,0.891
	c3.696-5.217,7.325-11.288,7.325-11.288c2-4,3.066-5.75,3.066-5.75c2.566-3.5-1.066-6.75-3.066-10.25s-0.75-3.5,2.25-6
	s-3-4.5-6.25-6s-16.25,0-16.25,0s1.5-5,1.25-8.75s-1.25-3.5-1.25-7.25s0-5.75,0-8.5c0-1.177,0-4.218,0-7.369
	c-0.376-0.052-0.693-0.108-0.943-0.171C177.384,205.713,177.373,205.709,177.361,205.706z"/>
<path id="Goiás" fill="#c4c0f4" stroke="#231F20" stroke-miterlimit="10" d="M395.453,283.673v-17.182c0,0-2.113-0.485-5.613,0.515
	s-8.5,3-11.25,2.75s-1,1.5-2.75,2.75s-11-2.25-11-2.25s-5.5-6-9.25-5.5s-3,3.5-3.75,4.75s-9-2.25-10.25-2.5s-2-1.75-1.5-4.25
	s0-4,0-4s-4,4-5.5,5.25s0,8.5,0,8.5l-3.156,2.254c-0.619,4.912-1.336,9.054-1.844,11.496c0,0-1,11.248-5,11.749s-6.25,0.501-7,5.251
	s-1.75,6.5-5.5,7.5c0,0-9,3-8.25,5.5c0,0,2.661,2-0.044,4.5c0,0-7.706,6.5-7.206,13.75c0,0,0.902,3.711,1.373,6.75
	c0.272,1.758,0.402,3.292,0.127,3.75l4.25,1.5l-2.25,5c0,0,5.75-0.25,12.25,3.75c0,0,11.25,3.5,14,5.75
	c2.232,1.826,2.387,3.396,2.367,3.928l0.111-1.407l-0.111,1.407c-0.002,0.034-0.002,0.078-0.004,0.104
	c0.098-0.754,0.842-5.781,3.387-5.781c2.75,0,0.25-4.5,5.5-7.25s15.5-1,15.5-1s-0.25-5.25,5.25-5.25s15.25,2.75,15.25,2.75
	s7.25-5.75,7.5-7s0.25-6.25-0.5-6.75s-4-2-4-2l7.25-6.5c0,0-4.5-5.75-4.5-8s2-5.75,2-5.75s3.75-1.75,5.5-2.25s0.75-5.25,0-5.75
	s0.25-6.501,0.25-6.501c2.25-1.499,4,1.546,5.25,0.523s-1.25-5.272,1-5.522c0,0,3.824,0.783,5.844,3.796l0.738-9.796
	L395.453,283.673z M379.25,312.5H366.5v-9.25h13.75L379.25,312.5z"/>
<polygon id="DistritoFederal" fill="#c4c0f4" stroke="#231F20" stroke-miterlimit="10" points="366.5,312.5 379.25,312.5 
	380.25,303.25 366.5,303.25 "/>
<path id="Alagoas" fill="#c4c0f4" stroke="#231F20" stroke-miterlimit="10" d="M550.74,213.527c1.385-2.002,2.732-3.851,3.941-5.854
	l-6.908-0.002c-6.178-0.514-6.924,1.31-6.924,1.31c-2.059,2.62-6.734,4.864-6.734,4.864c-5.053,0.936-7.859-1.871-7.859-1.871
	c-1.123-0.935-8.98-4.304-8.98-4.304l-5.984,6.923c0.354,0.177,0.718,0.795,1.067,1.623c2.405,0.253,5.82,0.771,7.643,1.784
	c3,1.667,9.666,7.667,9.666,7.667s3.583,2.153,6.521,4.481C541.09,225.625,547.217,218.616,550.74,213.527z"/>
<path id="Sergipe" fill="#c4c0f4" stroke="#231F20" stroke-miterlimit="10" d="M520.001,218c-1.822-1.012-5.237-1.531-7.643-1.784
	c1.131,2.676,2.114,7.623,2.114,7.623s4.49,0.01,3.18,3.333c0,0-0.188,5.568-2.059,7.065c0,0-6.547-1.123-4.863,2.058
	c0,0,7.027,9.167,7.162,9.542c0.096,0.269,3.393-0.444,5.246-0.868c3.145-6.448,6.193-9.06,10.889-12.927
	c0.682-0.561,1.407-1.201,2.16-1.896c-2.938-2.328-6.521-4.481-6.521-4.481S523.001,219.667,520.001,218z"/>
</svg>
