<?xml version="1.0" encoding="utf-8"?>
<!-- Generator: Adobe Illustrator 16.0.0, SVG Export Plug-In . SVG Version: 6.00 Build 0)  -->
<!DOCTYPE svg PUBLIC "-//W3C//DTD SVG 1.1//EN" "http://www.w3.org/Graphics/SVG/1.1/DTD/svg11.dtd">
<svg version="1.1" id="China" xmlns="http://www.w3.org/2000/svg" xmlns:xlink="http://www.w3.org/1999/xlink" x="0px" y="0px"
	 width="1300px" height="1000px" viewBox="0 0 1300 1000" enable-background="new 0 0 1300 1000" xml:space="preserve">
<path id="Xinjiang" fill="#C4E8F2" stroke="#cad7e0" stroke-width="0.5" d="M462.7,325.993l-0.367-1.71c0,0-8.796-8.939-9.523-9.522
	c-0.729-0.583-6.706-19.973-6.706-19.973l-3.497-0.729l0.898-6.851l-10.717,0.531c-4.373-3.79-27.213-19.775-27.213-19.775
	l-24.685-1.215l-27.02-4.859l-4.47-7.192l0.846-8.315l5.958-8.791l-2.723-7.337l3.353-7.143l-1.749-9.476l-8.793-11.42
	c0.001-12.441-8.36-14.188-8.36-14.188l-2.099-4.112l-4.703,1.973l-3.888-6.22l-10.594,0.681l-2.292-3.697l-6.261-1.259v-5.443
	l-12.321-6.934l1.825-3.951l-6.219-4.957l2.6-3.833l-0.294-4.792l-9.252,1.721l-5.563-2.389l-5.568,1.809l-2.624,3.888l1.871,6.625
	l-4.933,7.953c0,0-4.957-0.729-6.706,1.749c-1.75,2.479-7.288-3.79-10.641,2.916s-3.207,11.176-3.207,11.176
	s-0.864,16.611,4.305,19.045l-2.994,7.827l-8.455,0.729l-4.665,4.665l-2.861-3.31l-18.86-0.189l-17.056-6.415l-10.205,35.862
	l-3.645,0.875v12.1l4.961,4.134l0.579,5.779l-6.969-0.93l-6.7,0.106l-3.008-3.86l-15.978,7.017c0,0-10.205-1.021-11.517,1.021
	c0,0-10.788,0.438-9.184,5.248c0,0,2.041,3.353,4.957,1.604c0,0,1.312,3.791,4.228,5.831c0,0-0.047,20.166,8.311,35.133
	l-0.583,4.665l-6.572,3.379l3.461,4.593l-7.386,1.358l-1.556,5.831l2.333,8.939l-1.75,5.831l-6.22,0.974l-2.527,4.08
	c0,0-20.603,8.031-22.352,11.307c-1.749,3.272-8.748-0.228-10.302,5.411c0,0-9.233,2.233-8.33,6.315c0,0-16.939-4.956-19.854,1.896
	c0,0-3.399,13.691-7.289,16.327l-2.479-2.479l-9.767,3.354l-0.41-4.458l-1.485-5.312l-7.289,4.957l-5.976,0.035l-2.625-1.932
	l-0.292,4.957l-9.476,6.562l-7.143-0.292l-2.77,7.437l1.021,8.745l-7.581,1.896l5.54,11.369l-1.021,5.248
	c0,0,1.312,5.687,6.123,5.979s11.736,0.363,14.326,7.701l2.177,4.898l2.06,12.169l1.552,5.812l-12.872,3.346l0.716,3.711
	l7.831,2.793l8.474-0.037l3.514,5.646l6.381,0.867l4.04,9.438l-0.553,6.828l5.164,6.596l5.39-0.232l9.191,6.394l20.892,2.067
	c17.59-25.171,43.177-5.711,43.832-2.236c0.075,0.4,0.087,1.055,0.037,1.881c13.376,4.273,32.703,7.611,43.6-6.059
	c0,0,6.706-2.625,11.954,5.539s39.069-2.332,42.567-8.164c0,0,18.369,5.832,21.576-9.622c0,0,19.302-6.744,21.167-4.247l7.731,1.916
	c14.34-9.97,29.005-2.039,37.496,2.786c0.075,0.042,0.152,0.086,0.227,0.128c8.455,4.813,8.893-3.354,8.893-3.354
	c15.598,9.77,20.846,4.374,21.867,4.083c1.021-0.293-2.721-10.736-2.721-10.736c-6.609-2.334-2.721-9.33-2.721-9.33
	c11.663-1.166,8.942-5.831,8.942-5.831c-3.109-1.941-3.11-7.773-3.11-7.773s-10.885-4.276-12.44-6.222
	c-1.555-1.941-1.166-13.995-1.166-13.995c-4.277,1.944-3.887-7.387-1.943-6.221c1.944,1.166,6.605-4.868,6.605-4.868
	c2.333,1.354,34.21-8.351,34.21-8.351v-2.934v-2.751c5.831-5.295,10.089-29.483,10.089-29.483
	c-3.499-9.72,17.123-8.761,17.123-8.761c2.333-12.828,20.213-22.158,20.213-22.158c9.329-8.939,10.886,0,10.886,0l5.832-6.606
	c0,0,15.549-0.775,9.718-12.438C453.416,336.188,457.846,330.231,462.7,325.993z"/>
<path id="Innermongolia" fill="#C4E8F2" stroke="#cad7e0" stroke-width="0.5" d="M493.432,372.682c0,0,8.164,5.248,7.289,14.578
	c0,0,6.998-1.167,17.494-5.831c0,0,17.783-6.706,20.115-0.583c0,0-0.875,20.992-14.576,23.908c0,0,11.66,5.248,14.576,5.54
	c0,0,5.54,6.414,5.54,7.289c0,0,7.289-4.072,6.706,8.313c0,0,3.791,4.223,7.289,2.766c3.499-1.456,4.957,14.368,11.662,7.186
	c6.706-7.186,2.916-8.341,1.458-9.948c0,0,9.038-4.813,16.908-1.897c7.873,2.915,11.371-3.313,11.371-3.313
	s13.12-7.767,15.744-3.977c2.624,3.791-0.972,5.549,2.433,9.188c3.398,3.64-11.663,14.623-13.606,15.789
	c-1.94,1.165-1.359,6.804-0.583,7.579c0.777,0.777-5.44,5.64,0.583,8.747c6.026,3.109,11.858,8.747,12.637,10.011
	c0,0,18.077-2.432,20.992-6.315c0,0,6.996-1.557,7.969-0.974c0.975,0.583,5.057-8.747,3.693-10.496
	c-1.359-1.75-0.389-29.545,17.492-32.46c0,0,2.916,6.806,5.057,8.748c2.138,1.941-4.082,9.32-4.082,9.32s-0.777,7.395-4.666,10.114
	c0,0,6.529,4.859,9.193,3.889c2.662-0.973,9.076,2.526,11.408,6.024c2.334,3.499,7.58,1.555,10.688,5.832
	c0,0,12.472,2.901,14.354-1.858c0.125-0.315,0.203-0.669,0.229-1.058c0.393-6.221-0.389-7.774,0.975-5.638
	c1.359,2.14,5.329,2.042,4.471-1.166c-2.916-10.889,13.021-22.744,13.021-22.744s5.578-4.281,4.229-7.383
	c0,0,5.637,0.923,4.711-5.056c0,0,2.918,0,3.309,2.332c0,0,5.73-3.664,5.639,2.493c-0.068,4.276,5.248-6.193,5.248-6.193
	s6.414-4.073,4.273,1.758c0,0,6.023,1.75,7.189-5.055c0,0,1.36-2.525,6.221,0.973c0,0,4.082-1.358,4.082-3.691
	s3.109-18.465,14.385-12.829c0,0,2.723,1.557,5.639-3.888s7.58,0.972,7.58,0.972s8.355,0.392,8.938-3.886
	c0,0,6.224,0.192,5.443-8.555c-0.777-8.747-7.545-2.503-1.229-11.271c0,0-4.021-7.683,3.17-7.771
	c3.734-0.049,1.357-6.997,1.166-8.554c-0.191-1.555,3.889-2.917,5.057-3.108c1.166-0.192,1.555-5.639,6.414-4.665
	c0,0,5.439,5.828,1.941,9.327c-3.5,3.499,1.975,6.998,9.054,5.054c0,0-1.084-4.665,9.604-8.939c0,0,3.887,0,4.275,3.499
	c0,0,3.498,0.778,4.664-4.274c0,0,6.414,0.193,10.688-0.192c4.275-0.391,2.605-9.721,1.89-11.272
	c-0.724-1.557,4.55-4.473,8.136-2.333c3.584,2.138,4.168-2.723,4.168-2.723s2.721-3.499,5.637-0.391
	c2.916,3.109,14.576,20.604,7.971,20.8c0,0-2.848,2.331,2.756,13.217c0,0,19.207,0.974,19.984-1.941
	c0.777-2.916-2.916-22.159-0.775-23.325c2.139-1.167,4.664-1.359,11.662,1.359c0,0,0.582,6.414,2.721,9.137
	c2.139,2.722,1.357,5.831,1.357,5.831s11.473-18.66,17.689-14.968c0,0,9.522-7.581,10.688-7.581s3.5,1.75,4.079,1.75
	c0.584,0,5.25-6.608,5.25-6.608s16.427-6.414,23.326-3.691c0,0-0.192-6.705,7.871-6.024l3.498-7.482c0,0-14.285-2.916-7.58-5.539
	c6.707-2.625-2.623-21.576-3.207-26.824c-0.582-5.248-11.662,12.438-16.715,7.387c-5.056-5.054-4.277-24.491-3.111-28.767
	s-8.938-12.858-8.938-12.858l3.014-9.3c24.199,22.158,19.631-2.236,19.631-2.236c9.914-1.167,2.332-7.289,2.041-9.913
	s7.289-5.831,7.289-5.831c9.33-1.75,1.166-6.123,1.166-6.123c-6.123,7.58-9.912,3.79-9.621,0c0.291-3.791-9.037-12.246-7.58-17.202
	c1.457-4.956,12.828-9.039,13.703-12.246s4.664-4.373,4.664-4.373c2.625,1.166,10.496-10.788,13.412-13.412s3.498-4.082,5.248,4.665
	s4.373,0,4.373,0c-1.748-16.036,6.123-25.657,6.123-25.657s12.537,1.75,6.414-10.204s3.791-28.573,8.748-30.614
	c4.954-2.041,0.873-9.039,0.873-9.039c11.954-7.289,0-15.673,0-15.673c-7.871-16.84-13.994-11.441-13.994-11.441
	c-2.623,15.453-27.115,8.164-27.115,8.164c-15.744,14.287-23.908-22.742-19.533-23.033c4.373-0.292,0-6.414,0-6.414
	c-13.121-16.327-15.162,0-15.162,0L958.181,36.82c0,0,7.286-7.872,9.036-13.704c0.898-2.999-2.059-7.699-5.143-11.559
	c-3.06,1.253-5.451,2.521-5.451,2.521l-7.922,0.875l-10.643,13.841l-4.813,2.041l0.293,6.56l9.478-2.041l3.937,3.353l-1.748,7.726
	l2.623,3.063l-2.623,9.184l-6.998,6.415l-3.646,1.604l-1.75,8.455l-4.813,4.957l0.054,5.581l-4.666,5.546l-1.558,6.609l-3.305,3.11
	l-2.914,8.553l4.408,0.232l-2.25,7.646l-12.854,4.951L902,127.586l-13.021,7.386l-11.662-4.858l-9.811-5.05l-15.688,35.044
	l-2.406,3.342l-1.055,10.647l-4.865,1.888l1.557,7.581l7.582,5.641l3.818-4.246l13.09-1.395l11.471,6.807l9.326-9.917l13.111,0.778
	l4.965,6.025l6.805,3.499l-0.545,4.281l13.766,11.269l2.629,10.729l-5.27,4.165l-12.719-4.203l-4.471,1.749l-11.867-0.992
	l-8.348,6.046l-0.945-0.944l-4.887-1l-1.765,5.069l-11.845,0.179l-8.889,9.166l-2.799,3.861v6.998l-9.658,6.219l-20.117-0.729
	l-3.646,6.852l-17.062,13.46l-17.721-0.931l-5.605-5.893c-1.416-2.436-10.918-1.296-10.918-1.296l-5.697,6.466
	c-9.656,18.219,5.979,26.532,5.979,26.532l0.875,4.373l-6.98,3.347l-3.471,3.823l-9.229,3.183L739.29,330.17l-15.307,5.248
	l-28.479-0.996l-9.373,3.134l-1.457-1.458l-5.732,2.624l-13.314,3.108l-16.092,8.322l-14.036,9.073l-8.689-1.179l-1.313-6.7
	l-13.123,2.438l-21.576-9.135l-13.224-1.194l-6.505-8.62l-27.263-4.665l-18.808,3.499l-22.013-2.503l-16.163-3.767l-8.064,0.806
	l13.21,31.068C491.974,359.27,482.936,364.809,493.432,372.682z"/>
<path id="Heilongjiang" fill="#C4E8F2" stroke="#cad7e0" stroke-width="0.5" d="M1157.214,292.6l-3.307-16.521l-2.623-4.764
	c1.941-2.624,10.01-2.916,10.01-2.916c6.607-3.013,3.133-4.984,4.18-6.439c0.752-1.042,4.521-3.426,4.521-3.426
	c2.125,1.47,7.24,1.991,14.238,6.461c6.995,4.47,9.911-2.526,9.911-2.526c-0.194-5.442,0.584-10.496,4.274-11.08
	c3.693-0.583,2.14-7.975,2.14-7.975c6.804-1.367,4.856-9.518,4.856-9.518c6.025-3.888,2.527-8.164,2.527-8.164
	c4.275-0.777,3.887-17.299,5.637-17.299s1.574-6.558,1.574-6.558l3.469-4.691l3.896-0.807l3.891-7.581l-4.277-8.164l5.64-10.49
	l-5.567-2.418c-12.664,1.324-10.81,4.945-10.81,4.945c-5.104-1.604-10.786,5.394-10.786,5.394c-7.438-5.831-13.27,4.048-13.27,4.048
	c-4.373-0.472-3.645,3.824-4.957,5.719c-1.311,1.896-19.53,1.167-19.971,0.146c-0.438-1.021-7.338,0.238-7.338,0.238
	c-4.47,0.194-12.244-8.553-9.674-11.468c2.571-2.915,3.646-11.079,0-11.273c-3.646-0.194-2.186-4.08-2.186-4.08
	c6.023-9.524-2.332-8.164-2.332-8.164c-7.189,2.916-12.635-6.22-13.021-9.33c-0.39-3.11-3.89-2.721-3.89-2.721
	c0-3.11-3.849-4.082-3.849-4.082c-8.897,4.665-11.703-2.526-12.285-4.859c-0.584-2.333-8.164,1.166-13.604,1.166
	c-5.443,0-12.052-7.773-11.47-10.105c0.584-2.332,1.215-8.794,0.562-10.347c-1.065-2.538-4.156-4.278-4.156-4.278
	c2.623-17.202-10.153-20.118-8.743-25.949c2.024-8.386-3.017-6.658-2.041-8.795c0.974-2.137-2.479-4.325-3.063-4.762
	c-0.584-0.438,3.207-3.646,1.021-4.374c-2.188-0.729-5.979-7.289-4.082-10.205s-3.646-4.665-3.646-4.665
	c1.748-2.041-2.091-8.844-2.091-8.844s0.194-0.388,0-1.75c-0.192-1.361-3.498-2.138-4.858-2.916
	c-1.358-0.778,4.276-4.859,1.944-4.859c-2.334,0-4.86-4.082-4.86-4.082c-2.524,0.972-3.104-0.389-3.104-0.389
	c1.556-7.192-3.694-5.442-3.694-5.442c-12.049-10.885-13.021-1.167-13.021-1.167c-3.11-5.637-8.748-4.471-8.748-4.471
	c-2.916-6.026-6.803-4.47-6.803-4.47c-2.14-3.693-9.138-6.997-9.138-6.481c0,0.516-2.916,1.233-2.916,1.233
	c-2.332-2.332-4.272-0.972-5.248,0.906c-0.972,1.878-14.771,1.912-14.771,1.912c-2.526-4.569-7.582,0.487-7.582,0.487
	c-2.433-1.326-7.621,0.3-11.651,1.95c3.084,3.86,6.041,8.56,5.142,11.559c-1.748,5.832-9.035,13.704-9.035,13.704l12.826,10.788
	c0,0,2.041-16.327,15.159,0c0,0,4.373,6.123,0,6.414c-4.373,0.292,3.791,37.32,19.535,23.033c0,0,24.49,7.289,27.115-8.164
	c0,0,6.123-5.398,13.993,11.441c0,0,11.953,8.385,0,15.673c0,0,4.082,6.998-0.875,9.039s-14.868,18.66-8.745,30.614
	s-6.414,10.204-6.414,10.204s-7.873,9.622-6.123,25.657c0,0-2.625,8.747-4.373,0c-1.75-8.747-2.332-7.289-5.248-4.665
	s-10.789,14.578-13.412,13.412c0,0-3.791,1.166-4.664,4.373c-0.875,3.207-12.245,7.289-13.705,12.246
	c-1.456,4.957,7.873,13.412,7.582,17.202c-0.293,3.79,3.498,7.58,9.621,0c0,0,8.164,4.373-1.166,6.123c0,0-7.58,3.207-7.289,5.831
	c0.177,1.566,2.943,4.379,3.041,6.64c7.222,0.462,14.468,0.432,15.039-1.48c1.166-3.887-0.776,15.161,4.274,16.328
	c5.056,1.166,6.996,8.552,6.996,8.552s8.164-4.276,11.664-1.555c3.498,2.722,13.604-5.443,13.604-1.166
	c0,4.276,3.623,11.274,5.504,9.719c1.884-1.555,22.486-3.498,18.986,8.553c0,0-0.388,7.775,6.998,5.831
	c7.387-1.942,3.107,4.276,3.107,4.276s3.888,15.161,10.105,11.273c0,0,6.221-16.718,8.94-10.496
	c2.722,6.22,2.332,16.716,5.44,16.716s2.722,12.828,8.554,7.772c5.829-5.055,16.325-17.882,17.491-9.718
	c1.166,8.164,6.608-0.776,7.774-2.721c1.166-1.943,1.166,14.797,6.998,13.618c2.983-0.604,6.587,2.878,9.388,6.418l0.267-7.708
	L1157.214,292.6z"/>
<path id="Jilin" fill="#C4E8F2" stroke="#cad7e0" stroke-width="0.5" d="M1051.767,379.914l9.621-13.063l2.552-8.622l7.729-2.948
	l4.492,6.122c3.014,5.046,15.646,3.99,15.646,3.99c2.232,4.859,6.607-5.248,6.607-5.248c-3.887-3.304-4.955-10.494-4.955-10.494
	l16.91-0.729l5.104-4.229l0.604-4.146l3.918-2.996c0,0,5.395,4.229,7.436-3.499s2.334-10.496,2.334-10.496l6.121,1.604l2.029,6.518
	l5.695,5.729c1.75-5.688-3.354-7.145-3.354-7.145c0.861-2.901,12.684-3.646,12.684-3.646l2.934-10.803l0.043-1.225
	c-2.801-3.54-6.398-7.021-9.387-6.418c-5.832,1.179-5.832-15.563-6.998-13.618c-1.166,1.941-6.607,10.885-7.773,2.721
	c-1.166-8.164-11.662,4.667-17.492,9.718c-5.832,5.056-5.441-7.772-8.555-7.772c-3.109,0-2.723-10.496-5.441-16.716
	c-2.719-6.222-8.939,10.496-8.939,10.496c-6.223,3.887-10.104-11.273-10.104-11.273s4.273-6.22-3.109-4.276
	c-7.386,1.944-6.998-5.831-6.998-5.831c3.5-12.051-17.104-10.106-18.984-8.553c-1.883,1.555-5.506-5.442-5.506-9.719
	c0-4.277-10.104,3.888-13.604,1.166c-3.5-2.721-11.664,1.555-11.664,1.555s-1.938-7.386-6.995-8.552
	c-5.056-1.167-3.106-20.214-4.272-16.328c-0.574,1.912-7.82,1.942-15.039,1.48c0.064,1.527-1.088,2.803-5.082,3.273
	c0,0,4.566,24.394-19.631,2.236l-3.016,9.3c0,0,10.105,8.583,8.939,12.858s-1.942,23.713,3.109,28.767
	c5.052,5.054,16.133-12.635,16.717-7.387c0.453,4.087,6.209,16.481,5.566,23.008c3.627,0.974,6.822,2.735,8.135,5.854
	c3.791,9.039,9.037,6.998,9.037,6.998s1.75,11.079,2.625,10.788s8.746-14.562,8.746-6.986c0,7.57,8.748,24.48,9.914,24.48
	c1.165,0-5.832,12.535,1.748,13.701c0,0,2.916,14.287,6.123,12.829c1.984-0.901-1.953,3.118-3.096,8.183l0.473-0.658h6.411v0.002
	h-0.002v-0.001H1051.767z"/>
<path id="Tibet" fill="#C4E8F2" stroke="#cad7e0" stroke-width="0.5" d="M502.396,689.314c12.174,0.582,3.571-13.131,3.571-13.131
	l6.987-1.617c-2.521-2.854-4.946-4.203-4.946-4.203c22.448,7.871,0.193-12.73,4.729-16.037c4.533-3.303-1.422-20.406-1.229-22.156
	c0.193-1.748,3.306-3.109-2.525-8.94c-5.832-5.829-3.694-7.97-3.694-7.97c18.271,5.639-2.816-11.662-2.816-11.662
	c-1.38-8.283-8.362-13.754-15.333-17.221l0.172,0.312c0,0-5.247-2.331-6.415,0.875c-1.166,3.206-1.457,9.911-1.457,9.911
	c-4.666-1.748-9.622,2.916-9.622,2.916c1.459,8.455-5.247,5.248-5.247,5.248c-1.054-0.922-1.936-1.484-2.683-1.834
	c-2.562-1.184-3.439,0.377-3.439,0.377c-12.246,10.496-19.535-11.08-19.535-11.08c-1.166-4.663-13.995-7.869-13.995-7.869
	c-7.579,6.413-21.573,2.913-21.573,2.913c-7.289-2.041-41.11-13.702-41.11-13.702c-28.573-6.123-28.183-15.938-28.183-15.938
	c-8.164-6.996-5.401-9.719-5.401-9.719c4.318,0.389,2.874-18.271,2.874-18.271c-6.804,2.332-5.676-10.805-5.676-10.805
	c3.07-1.084,4.122-11.158,4.122-11.158c-3.738-3.021-4.495-6.012-3.969-8.584c-8.491-4.825-23.156-12.756-37.496-2.786l-7.731-1.916
	c-1.866-2.496-21.167,4.247-21.167,4.247c-3.207,15.454-21.576,9.622-21.576,9.622c-3.499,5.832-37.319,16.328-42.567,8.164
	s-11.954-5.539-11.954-5.539c-10.897,13.67-30.223,10.332-43.6,6.059c-0.384,6.33-4.55,23.301-13.836,22.609
	c-10.496-0.775-13.277,8.371-13.277,8.371l-0.49,15.766l7.936,6.771l-1.654,18.563l-4.567,0.584l-2.722-6.516l-6.997,2.725
	l1.07,9.115l4.372,2.063l1.458,16.229l9.233,9.723l11.187,0.264l6.5,9.168l12.44,2.816l6.414,9.328l4.568-0.189l3.235-8.137
	l13.092,0.939l2.429,7.193l8.942,4.08l7.482,5.93l6.96,0.76l1.486,7.65l3.704,1.689l5.053-4.373l4.591,1.67l1.144,8.924
	l13.163,7.287l4.524-2.723l1.069,7.482l6.511,1.361l4.763-1.748l1.846,4.764l4.47,5.539l3.014-5.443l1.458,4.182l3.862,1.613
	l3.815-4.92l9.815,6.221l11.517,0.875l3.645-3.354l15.015-3.354l3.936,5.538l-1.599,6.048l2.983,7.129l11.736-19.59l9.767-3.938
	l17.09,6.416c0,0,4.729,1.367,9.977,0.074c0,0,5.057,1.817,5.057,4.539c0,2.723,7.19,2.916,12.829-1.166c0,0,5.247,3.5,8.552-1.556
	c0,0,0.972-10.808,20.992-16.97c0,0,10.689-3.252,10.494-9.275c0,0,4.664-6.807,13.219-0.775c0,0,0.585,0.369,1.669,0.686
	c2.678,0.777,8.411,1.207,16.021-5.154c0,0,7.388-5.355,13.995,11.123c0,0,6.607,11.424,15.938,13.949c0,0,4.03,0.584,4.443-5.637
	c0,0,8.969,0.561,10.135,6.029c0.148,0.705,0.297,1.381,0.44,2.021c2.009-3.486,3.442-6.205,3.442-6.205L502.396,689.314z"/>
<path id="Yunnan" fill="#C4E8F2" stroke="#cad7e0" stroke-width="0.5" d="M617.73,805.299l3.913,3.045l9.403-3.961l-0.975-4.566
	l10.212-6.395l3.535,5.002c2.846-4.514,6.467-7.354,6.467-7.354c7.289,4.664,7.289-8.164,7.045-10.496
	c-0.242-2.332-6.461-3.791-13.459-2.916s-4.373-1.457-5.539-4.365c-1.166-2.91-6.415-0.299-11.079-0.008s-4.081-10.203-4.081-10.203
	s6.997-10.205,6.122-10.205s-11.953-10.203-9.523-9.621c2.431,0.584,0.777-3.789,4.859-11.662c4.08-7.871-1.75-9.813-1.75-9.813
	s-2.525-0.393-8.163,3.498c-5.639,3.891-6.998-6.807-6.998-6.807c3.89-1.941-1.021-7,0-7c1.021,0,3.646-6.994,3.646-6.994
	c6.854,5.979,9.187-0.291,9.187-0.291c13.994,7.436,19.532-5.688,19.532-5.688c1.459-9.914-6.268-8.313-6.268-8.313
	c-6.563,10.061-14.434,0.291-14.434,0.291c1.166,1.313,2.771-4.813,2.771-4.813c-6.706-5.688-0.729-8.02-0.729-8.02
	c0.583-3.789-11.663,1.459-11.663,1.459c2.333,7.579-2.041,7.87-2.041,7.87c-1.749-0.291-4.956,4.081-4.956,4.081
	c4.082,4.082-9.038,14.287-9.038,14.287c-4.957-0.293,1.168,20.992,1.168,20.992s-7.291,6.123-7.583,5.248s-0.875-5.248-7.87-0.293
	c-6.998,4.957-10.496,2.041-10.496,2.041c-0.583-3.498-18.077-30.322-20.118-36.443c-2.041-6.123-8.164,0-8.164,0
	c-8.455-7.582-4.373-8.748-4.373-8.748c5.248-2.622-7.872-15.449-9.039-13.992c-1.166,1.456-1.166,5.247-3.789,4.081
	c-2.624-1.166-5.243,7.288-5.243,7.288c-0.813-4.879-3.071-8.479-5.263-10.956l-6.987,1.618c0,0,8.603,13.711-3.571,13.127
	l-3.135-6.704c0,0-1.437,2.72-3.442,6.204c4.233,19.033,5.583,12.557,5.583,12.557c9.33-4.475,8.552,16.905,8.552,16.905
	l-1.359,14.627c0,0-4.665,0.123-2.624,3.778c2.041,3.656,1.458,4.781-1.75,4.511c-3.207-0.271-3.207,4.104-3.207,4.104
	s-4.849-2.935-5.191,2.471c-0.348,5.4-2.971,4.234-3.846,4.234s-6.706,5.832-2.334,9.33c0,0-8.163,3.684-4.081,9.422
	c4.081,5.738,3.499,9.229,0,10.979c-3.498,1.751,3.206,5.252,10.204-2.909c0,0,11.954-0.875,14.578-2.041s-2.624,4.95-2.624,4.95
	s0.292,3.795,2.916,3.795s-0.292,3.791-0.292,3.791l1.749,3.207c0,0-2.041,6.414,2.624,5.539c0,0-0.875,3.206,5.831,2.041
	c6.706-1.166,4.374,3.791,2.916,3.497c0,0-0.875,5.105-3.207,4.738c-2.333-0.365,3.207,5.176,0.583,5.467s-9.622,9.621,12.244,9.039
	c0,0-1.166,9.33,3.791,8.162c0,0-1.75,5.248,5.831,2.625c0,0,2.333,3.791,12.536-4.957c0,0,4.957,6.998,4.082,10.496
	c0,0-3.789,4.082,4.665,0c0,0,4.665,5.379,5.831,1.813c1.167-3.563-0.583-11.729-2.332-15.521c-1.75-3.789-2.916-5.539-0.875-8.746
	c0,0-1.897-6.707,4.299-1.166c0,0,4.156-4.082,7.072-1.166c2.916,2.914,0-13.703,13.12-3.5c0,0,4.956,8.455,8.455-4.082
	c0,0,3.503,9.914,8.021,0.293C607.579,807.104,611.119,820.115,617.73,805.299z"/>
<path id="Guangxi" fill="#C4E8F2" stroke="#cad7e0" stroke-width="0.5" d="M736.3,825.764c5.832,0.291,4.373-5.248,4.373-5.248
	s6.414-0.291,6.707-4.082c0.291-3.791,2.621-5.539,11.076-9.91c0,0,4.666-7.582,2.625-13.412c0,0,6.123-8.455,7.289-9.621
	c1.166-1.168,0.873-5.541,4.082-8.455c3.207-2.916,0-8.748,0-8.748v-3.154c-2.465,0.346-5.498-1.059-5.832-0.053
	c-0.584,1.75-5.832,4.666-5.832,0c0-4.662,1.75-15.451-3.789-6.996s-3.5-1.457-3.5-1.457c9.039-6.998,6.707-11.662,6.707-11.662
	s4.664-5.539,0-3.498c-4.666,2.041-2.625-7.873-3.5-9.914c-0.873-2.041-11.66,0-11.66,0l-6.996,6.998c0,0-1.166-6.998-3.207-4.082
	s-11.955,3.498-11.955,3.498s-1.457,6.414-4.082,6.414c-2.623,0-4.664,3.5-4.664,3.5s-6.413-3.5-6.413-1.195
	c0,2.301-3.791,7.9-6.413,3.527c-2.625-4.373-6.414,5.248-6.414,5.248l-2.916,2.754c0,0-8.455-2.463-11.955-9.459
	c-3.498-6.998-6.414,5.83-7.289,7.58c-0.873,1.748-17.783,1.166-15.402,5.539c2.381,4.371-3.838,5.537-7.629,3.496
	s-11.953-7.287-11.953-4.371s-8.164,8.453-9.622,6.705c-0.49-0.59-2.501-0.549-4.95-0.238c0.139,3.078,0.854,8.021,4.076,7.818
	c4.665-0.291,9.914-2.902,11.08,0.008c1.164,2.908-1.459,5.24,5.537,4.365c6.998-0.875,13.217,0.584,13.461,2.916
	c0.242,2.332,0.242,15.16-7.045,10.496c0,0-3.621,2.842-6.469,7.354l1.291,1.828l6.123,3.498l5.104-1.75l3.861,3.279l4.773-2.287
	l4.264,2.799l-1.168,4.898l-4.229,0.203l-0.146,5.83l4.066,1.166l0.018,6.512l6.631,0.777l6.004,7.096l9.814-1.41l4.443,3.207
	c0,0,3.717,0.293,7.361-3.352c3.645-3.646,14.178,4.104,14.178,4.104l7.252-0.08l-1.359-6.396l1.475-0.296l3.531,4.419l0.189-0.021
	C729.997,829.006,733.399,825.619,736.3,825.764z"/>
<path id="Liaoning" fill="#C4E8F2" stroke="#cad7e0" stroke-width="0.5" d="M1047.976,372.39
	c-3.207,1.458-6.123-12.829-6.123-12.829c-7.579-1.166-0.582-13.701-1.748-13.701s-9.913-16.911-9.913-24.48
	c0-7.571-7.87,6.695-8.745,6.986s-2.625-10.788-2.625-10.788s-5.248,2.041-9.037-6.997c-1.313-3.121-4.509-4.886-8.136-5.855
	c-0.183,1.854-0.88,3.235-2.36,3.816c-6.707,2.624,7.58,5.54,7.58,5.54l-3.498,7.479c-8.066-0.68-7.873,6.026-7.873,6.026
	c-6.898-2.723-23.324,3.691-23.324,3.691s-4.666,6.607-5.25,6.607c-0.582,0-2.916-1.75-4.082-1.75
	c-1.164,0-10.688,7.581-10.688,7.581c-6.22-3.691-17.688,14.967-17.688,14.967s0.775-3.107-1.359-5.83
	c-2.139-2.723-2.721-9.137-2.721-9.137c-6.996-2.722-9.521-2.525-11.662-1.358c-2.139,1.166,1.557,20.407,0.775,23.323
	c-0.199,0.753-1.635,1.245-3.645,1.563c-0.225,5.592-3.352,6.502-4.322,6.987c-1.168,0.583-1.75,6.998-1.75,6.998l8.164,7.189
	c0,0,7.969-1.941,6.605,1.75c-1.357,3.692,0.975,7.386,2.334,7.969c0.668,0.287,1.664,2.497,2.506,4.672l12.072-5.644
	c0,0,10.359-18.785,14.541-17.521l8.297,1.391l4.854-2.624l0.491,3.499l7.095,7.28l-1.847,3.989l-3.983,1.667l0.873,3.483
	l-10.498,8.643l-0.678,5.158l-3.449,5.879l4.521,2.188l4.957-1.069l-3.289,5.771l-8.957,5.212l0.709,3.624l10.176-1.875l1.068-2.771
	l5.93-2.479l6.754-8.021l26.678-11.662l9.248,0.972l3.58-3.304l0.584-6.123l17.201-13.266l4.521,1.021l4.051-5.669
	C1046.021,375.508,1049.962,371.487,1047.976,372.39z"/>
<path id="Chongqing" fill="#C4E8F2" stroke="#cad7e0" stroke-width="0.5" d="M658.599,677.652c0,0,2.041,3.646,3.5,2.188
	c1.457-1.457-0.438-7.871,2.041-5.104c2.479,2.771,0.875,7.289,4.082,6.414s2.188-6.563,2.188-6.998
	c0-0.437,6.969-2.188,6.969-2.188s2.51,2.771,3.82-1.75c1.313-4.521,0-5.979,3.938-4.813s4.521,2.479,4.229,3.646
	c-0.291,1.166,5.541-0.291,7.289-1.021c1.75-0.729,4.372,4.373,3.354,7.289c-1.021,2.916,4.957,2.188,5.396,1.896
	c0.438-0.292-1.459,4.156,0.729,4.047c2.188-0.109,2.771,3.242,2.771,3.242s-2.623,3.789,4.957,2.623
	c1.902-0.293,3.387-0.424,4.545-0.457c-0.166-6.223-0.441-14.604-1.92-20.682c-2.625-10.789-14.578-15.264-14.578-15.264
	c3.789-2.725,0-15.938,0-15.938l23.032-3.496c5.247-7.129,9.329-4.375,9.329-4.375l1.748-12.537c-6.995,0-9.33-7.324-9.33-7.324
	l-7.579-2.297c-6.288-6.082-12.099-8.582-16.987-9.287c0.23,0.957-0.352,2.414-2.398,4.623c0,0,12.686,5.539-5.396,16.326
	c0,0-1.604,4.666-1.166,6.707c0.438,2.041-2.188,5.394-4.52,3.062c-2.334-2.331-6.998,2.041-7.146,3.206
	c-0.146,1.166,3.207,9.023,0.875,9.023s-7.289-6.676-11.369-3.338c0,0-3.984,0.584-5.346-1.164
	c-1.359-1.75-5.248,11.467-6.807,2.521c-1.557-8.938-7.969-7.771-7.969-7.771c-3.207,2.041-6.861,6.705-6.861,6.705
	s3.363,2.916,1.904,4.957c-1.457,2.041,1.637,2.33,1.637,2.33c2.705,5.441,0.211,4.666-6.205,11.471
	c-6.414,6.803,6.205,9.521,6.205,9.521c1.688,3.309,2.744,5.902,3.355,7.947C653.69,670.852,657.382,671.217,658.599,677.652z"/>
<path id="Guizhou" fill="#C4E8F2" stroke="#cad7e0" stroke-width="0.5" d="M647.552,678.818
	c-4.875,11.271,10.316,7.189,12.266,12.633c1.943,5.441-12.055,10.496-13.412,7.389c-0.684-1.561-3.521-1.799-6.18-1.65
	c-0.027,0.416-0.07,0.85-0.143,1.313c0,0-5.539,13.119-19.532,5.686c0,0-2.333,6.27-9.187,0.291c0,0-2.624,6.998-3.646,6.998
	c-1.021,0,3.89,5.057,0,7c0,0,1.359,10.691,6.998,6.805c5.636-3.889,8.163-3.498,8.163-3.498s5.83,1.939,1.75,9.813
	c-4.082,7.873-2.433,12.244-4.859,11.662c-2.429-0.584,8.648,9.621,9.523,9.621s-6.122,10.203-6.122,10.203
	s-0.057,1.008,0.006,2.387c2.448-0.313,4.46-0.352,4.95,0.238c1.457,1.748,9.622-3.789,9.622-6.705s8.162,2.33,11.953,4.371
	c3.789,2.041,10.01,0.875,7.627-3.496c-2.379-4.375,14.531-3.791,15.404-5.541c0.875-1.748,3.791-14.578,7.289-7.58
	c3.5,6.998,11.954,9.459,11.954,9.459l2.916-2.752c0,0,3.788-9.623,6.413-5.248c2.623,4.373,6.414-1.229,6.414-3.531
	c0-2.301,6.414,1.197,6.414,1.197s2.041-3.498,4.664-3.498c2.625,0,4.082-6.414,4.082-6.414s0.482-0.031,1.232-0.104l-1.523-5.438
	c-5.539,1.457-2.916-9.039-2.916-9.039c6.998-0.291,2.625-10.787,2.916-9.621s-25.656,5.248-11.855-2.041s9.523-14.286,8.357-14.577
	c-0.512-0.128-0.573-3.647-0.705-8.478c-1.155,0.033-2.643,0.166-4.543,0.459c-7.582,1.166-4.957-2.625-4.957-2.625
	s-0.584-3.354-2.771-3.242c-2.188,0.109-0.291-4.338-0.729-4.047c-0.438,0.293-6.416,1.021-5.396-1.896
	c1.021-2.914-1.604-8.02-3.354-7.287c-1.748,0.729-7.58,2.188-7.289,1.021c0.293-1.168-0.291-2.479-4.229-3.646
	c-3.938-1.168-2.625,0.291-3.938,4.813c-1.313,4.52-3.818,1.748-3.818,1.748s-6.971,1.75-6.971,2.188
	c0,0.438,1.021,6.122-2.188,6.997c-3.207,0.873-1.604-3.646-4.082-6.416c-2.478-2.77-0.582,3.646-2.041,5.104
	c-1.457,1.457-3.498-2.188-3.498-2.188c-1.219-6.437-4.908-6.8-7.688-6.048C653.608,680.621,647.552,678.818,647.552,678.818z"/>
<path id="Anhui" fill="#C4E8F2" stroke="#cad7e0" stroke-width="0.5" d="M923.189,618.951c0,0-4.081-0.773-4.666-2.332
	c-0.581-1.555-15.159,2.723-8.356-5.441c0,0,0.584-2.525-2.721-3.691c-3.307-1.166-11.08-11.26-4.275-12.234
	c6.803-0.979,3.109-5.451,1.748-7.592c-1.359-2.137,5.055-3.496,6.414-1.166c1.361,2.334,9.543,2.111,7.58-1.219
	c-8.211-13.951-11.855-3.633-11.855-3.633c-12.243,2.729-10.105-9.727-10.105-9.727c-7.97,1.166-2.623-4.957-0.681-11.662
	c1.942-6.707-9.039,0.193-8.649-0.875c0.391-1.07-1.066-5.639-3.789-7.189c-2.721-1.557-8.164-1.652-10.689-5.832
	c-1.697-2.809-8.17-7.365-12.238-10.059c-0.628,1.637-1.988,3.154-4.813,3.883c0.025,0.26,0.045,0.531,0.045,0.83
	c0,4.273,7.58,5.248,8.164,4.857c0.582-0.389-3.5,4.664,1.166,6.025c4.664,1.359-0.778,3.689-2.526,3.305
	c-1.75-0.389-7.192,8.746-11.661-2.525c0,0-6.416-2.723-6.609,1.75c-0.19,4.473,0.975,8.746-2.522,8.555
	c-3.5-0.195-4.669,8.16-4.474,9.135c0.193,0.975-3.107,5.055-5.83,0c0,0-5.057,6.605,4.857,8.162c0,0-1.75,6.223,3.887,5.441
	c0,0,2.234,7.58,7.531,2.916c0,0,5.299-9.912,1.994,14.578c0,0-1.168,1.361-4.859,2.727c-3.69,1.357-9.328,12.438,4.275,13.992
	c0,0,6.414,3.498,2.723,5.248c-3.69,1.75-6.025,5.832-1.942,8.939c0,0-0.776,5.617,4.472,9.227l-0.188,7.104
	c2.4,1.348,5.297,2.246,7.088,0.283c3.498-3.836,9.037-6.168,8.311-3.254c-0.729,2.916-9.33,13.559,3.646,6.561
	c0,0,3.063-11.076,8.311-0.875c0,0-3.646,2.203,10.643,3.217c0,0,2.203,1.979,3.938,4.484l1.459-3.619c0,0,14.432-3.236,12.1-18.818
	c0,0,9.912,3.369,9.33-1.588c-0.584-4.957-3.5-3.207-3.5-3.207s0.682-4.18,5.152-3.207
	C925.521,631.393,923.189,618.951,923.189,618.951z"/>
<path id="Jiangxi" fill="#C4E8F2" stroke="#cad7e0" stroke-width="0.5" stroke-miterlimit="10" d="M892.575,656.375
	c-14.287-1.014-10.645-3.217-10.645-3.217c-5.247-10.201-8.311,0.875-8.311,0.875c-12.976,6.998-4.373-3.646-3.646-6.563
	c0.729-2.914-4.813-0.582-8.312,3.255c-1.791,1.964-4.687,1.063-7.088-0.282l-0.008,0.282c-5.93,1.845-7.58-1.438-7.58-1.438
	s-5.055-1.748-4.855,0c0.191,1.75,2.914,5.83-4.275,5.248c-7.189-0.584-2.723,3.108-2.723,3.108l-11.855,4.081
	c0,0-2.723-5.053-4.275-0.775c-0.805,2.209-3.887,3.896-6.682,5.014c0.045,0.02,0.071,0.025,0.071,0.025s3.69,7.387,2.524,10.303
	s5.248,12.053-4.274,15.354c0,0-10.888,11.077-4.276,14.577c6.608,3.498,4.666,8.746,3.692,11.078s-1.358,6.582,4.858,6.791
	c6.221,0.207,0,7.203-2.524,7.98c0,0,7.771-1.941,0.388,4.857c-6.777,6.246,2.155,7.742-0.994,13.813
	c0.832,0.145,1.473,0.428,1.772,0.957c1.558,2.723,13.411-0.191,13.218,3.307c-0.191,3.498-6.221,4.275-8.162,9.719
	c-1.943,5.444,1.357,3.307,15.16-0.191c13.801-3.5,10.688,2.914,13.217,4.664c2.523,1.75-0.191-7.773,1.75-9.33
	c0.258-0.207,0.689-0.259,1.237-0.197c-0.562-2.639-0.987-5.521-0.269-5.826c1.361-0.584,2.916-3.307,2.916-3.307
	c-0.584-6.22,0.974-7.189,0.974-7.189c2.331,0,3.497-4.471,3.497-4.471c5.832-3.109,5.057-6.414,2.723-6.414
	c-2.332,0,6.223-5.832,4.857-6.025c-1.357-0.193-2.523-6.414-1.942-7.969c0.584-1.557,2.724-3.891,8.358-5.057
	s3.304-9.136,3.304-9.136s-3.498-5.638,0-5.44c3.5,0.192,4.474-3.889,4.474-3.889c4.858-6.223,8.746,0.581,8.746,0.581
	c1.942-4.081,11.469-6.413,11.469-6.413c-1.75-1.941,0.973-3.689,0.973-3.689c0.521-0.229,1.007-0.428,1.464-0.594
	c-0.892-5.761-2.962-13.271-7.78-17.099l2.771-6.878C894.778,658.352,892.575,656.375,892.575,656.375z"/>
<path id="Zhejiang" fill="#C4E8F2" stroke="#cad7e0" stroke-width="0.5" d="M921.052,630.42c-4.475-0.973-5.15,3.207-5.15,3.207
	s2.916-1.75,3.5,3.207c0.581,4.955-9.33,1.588-9.33,1.588c2.332,15.582-12.102,18.818-12.102,18.818l-4.229,10.496
	c4.819,3.822,6.893,11.338,7.78,17.098c6.896-2.516,6.896,1.76,6.896,1.76c-1.361,2.721-0.973,6.021-0.973,6.021
	c2.525,2.525,2.523,8.357,2.523,8.357c2.141,4.275,6.807,3.691,11.271-0.389c4.473-4.082,4.473,2.33,4.473,2.33
	c1.75,8.557,9.328,1.557,9.328,1.557c4.16-0.832,6.252,1.617,7.287,4.688c1.979-2.045,3.459-3.496,3.309-4.539
	c-0.875-5.979,9.297-17.988,9.297-17.988c0.906,7.348,8.684-1.594,9.85-2.795c1.168-1.203-0.631-8.08-0.631-8.08
	c4.664-0.582-3.5-18.516-2.041-18.076c1.457,0.438,11.662-8.164,11.662-8.164c-13.561-4.082-18.66-15.891-18.66-15.891
	c0.254-1.867,1.166-3.238,2.438-4.244c-3.113-2.701-6.459-5.652-7.932-7.125c-3.107-3.105-6.322,6.221-6.322,6.221l-3.201-3.109
	c0,0-7.189,2.725-10.885-3.889c-1.438-2.574-3.707-2.756-5.938-2.021C923.657,621.779,924.979,631.273,921.052,630.42z"/>
<path id="Shandong" fill="#C4E8F2" stroke="#cad7e0" stroke-width="0.5" d="M861.186,530.318c0.388-0.484,5.638-0.1,8.161-0.584
	c2.525-0.484,5.348,13.51,6.998,10.98c1.65-2.525,8.648-0.1,9.814-2.232c1.166-2.136,5.83-4.861,7.58-1.945s4.957,5.248,6.414,0
	c1.459-5.246,6.707-2.33,6.707-2.33s1.747-7.58,3.497-7.58c1.153,0,6.638-1.777,10.229-2.986l6.096-8.871l9.438-5.639l-1.377-9.091
	l1.916-1.605l3.729,3.501l4.275-0.68l2.814-8.551l2.527,0.68l1.359-4.082l12.146-4.273c0,0,5.488-3.558,7.189-4.274
	c2.525-1.069,5.58,1.896,5.58,1.896l5.598-2.283l-0.291-3.889l2.916-7.385l-9.139-0.971l-1.357-2.819l-11.066,2.06l-3.703-3.319
	h-3.109l-1.361-3.11l-4.762-3.4l-13.779,5.822l-1.297,4.615l-1.889-0.613c0,0-2.961-0.979-5.682,8.061l-7.679,1.217l-8.454-4.957
	c0,0-1.748-8.455,3.5-11.079l-6.025-9.912c-9.49,2.64-15.578-1.313-18.813-4.652c-2.641,2.373-5.211,5.188-6.648,8.104
	c-3.791,7.679-13.412-0.099-16.326,4.566c-2.916,4.665-14.871,10.788-14.871,10.788s2.041,9.913-7.287,13.703
	c-9.33,3.791-3.498,11.371-2.916,14.87c0.195,1.174-0.271,1.848-1.006,2.188c0.48,1.633,0.297,3.69-1.424,6.168
	c-4.857,6.998,10.303-2.526,11.469-4.082c1.166-1.557,2.722,2.14-3.598,5.832c-6.316,3.691-7.871,7.773-7.871,7.773
	s-9.137,0.191-10.496,11.078c0,0,1.168,3.307,7.389,0c0,0,0.391,1.75,0.584,4.666c0.191,2.916,2.422-1.359,3.543,0
	c1.119,1.357-2.57,8.163,12.783,5.247c0,0,2.52-0.163,2.869,3.253C863.556,538.256,860.823,530.77,861.186,530.318z"/>
<path id="Henan" fill="#C4E8F2" stroke="#cad7e0" stroke-width="0.5" d="M865.462,551.895c-4.664-1.359-0.582-6.412-1.166-6.023
	c-0.582,0.391-8.164-0.584-8.164-4.857s-2.914-4.082-2.914-4.082c-15.354,2.916-11.662-3.889-12.783-5.248
	c-1.12-1.357-3.352,2.916-3.543,0c-0.193-2.916-0.584-4.662-0.584-4.662c-6.221,3.307-7.389,0-7.389,0
	c1.359-10.887,10.496-11.08,10.496-11.08s1.557-4.082,7.871-7.773c6.314-3.693,4.764-7.387,3.598-5.83
	c-1.166,1.555-16.326,11.078-11.469,4.082c1.721-2.479,1.901-4.537,1.426-6.169c-1.449,0.679-3.953,0.041-4.535-0.733
	c-0.873-1.166-3.789-2.623-6.414,0.875c-2.623,3.499-16.033-5.539-16.033-5.539s-2.771,1.009-6.146-0.698
	c-0.719,5.262-2.117,12.688-4.445,14.402c-3.691,2.723-6.414,6.025-7.387,9.139c-0.973,3.11-6.998,5.055-15.938,4.082
	c-8.94-0.975-5.247,3.498-6.519,4.273c-1.27,0.773-3.979-1.357-7.479,3.307c-3.5,4.663-5.055,0.584-8.941,2.723
	c-2.594,1.428-11.588,3.805-17.291,5.229c1.896,3.252,0.684,9.631,4.271,10.313c4.081,0.776,0.776,5.637,0.776,5.637
	s4.664,6.223,6.996,8.554c1.582,1.581,1.109,4.95,0.764,8.771c2.43,0.557,6.207,2.113,5.506,6.393c0,0,12.587,20.021,35.328,12.828
	l7.973,3.307c0,0,4.273-5.248,5.83-3.498c1.555,1.748-2.141,17.883,8.938,13.996c0,0,8.746,1.166,8.357,3.109
	c0,0-1.168,5.223,9.379,2.463c0,0,2.188-1.588,3.498,4.146c0.75,3.281,1.932,2.014,3.566-0.111c0.009-3.246,2.438-6.563,4.354-7.27
	c3.691-1.359,4.86-2.727,4.86-2.727c3.304-24.488-1.993-14.578-1.993-14.578c-5.298,4.664-7.531-2.916-7.531-2.916
	c-5.637,0.777-3.887-5.441-3.887-5.441c-9.914-1.557-4.859-8.162-4.859-8.162c2.723,5.055,6.025,0.975,5.83,0
	c-0.193-0.973,0.975-9.328,4.473-9.135c3.498,0.191,2.332-4.082,2.525-8.555c0.192-4.471,6.608-1.75,6.608-1.75
	c4.47,11.273,9.911,2.141,11.661,2.527C864.683,555.586,870.128,553.256,865.462,551.895z"/>
<path id="Shanxi" fill="#C4E8F2" stroke="#cad7e0" stroke-width="0.5" d="M765.942,529.348c3.498-4.664,6.209-2.527,7.479-3.305
	c1.271-0.777-2.426-5.248,6.52-4.275c8.941,0.973,14.967-0.973,15.938-4.082s3.691-6.414,7.387-9.137
	c2.328-1.715,3.729-9.146,4.447-14.402c-1.396-0.707-2.896-1.867-4.354-3.777c-4.955-6.52,6.416-7.479,5.697-8.937
	c-0.715-1.458,0-5.831,0-5.831c8.031-10.203,5.383-15.159,3.342-16.909s-3.342-8.455-3.342-8.455
	c-8.295-5.831-5.404-10.788-5.404-10.788s5.539-0.875,5.404-4.374c-0.133-3.499-3.656-4.957,6.548-8.164
	c10.204-3.205,6.122-19.532,4.093-19.632c-2.029-0.099-16.338-1.358-7.3-7.481s6.704-0.292,7.288-7.872
	c0.193-2.531-2.4-4.521-5.939-6.046c-1.32,4.006-5.039,3.907-5.039,3.907c-0.584,4.276-8.939,3.888-8.939,3.888
	s-4.666-6.414-7.581-0.974c-2.914,5.442-5.638,3.89-5.638,3.89c-11.271-5.639-14.385,10.496-14.385,12.829s-4.082,3.691-4.082,3.691
	c-4.854-3.499-6.221-0.973-6.221-0.973c-0.707,4.125-3.195,5.102-5.053,5.232c-0.072,1.092-0.043,2.029,0.189,2.542
	c0.875,1.896-3.205,9.184-4.228,9.328c-1.021,0.146-1.604,11.227-6.854,16.036c-5.246,4.813-1.896,11.954,2.041,13.851
	s0.729,8.747-2.041,8.894c0,0-0.146,7.289-4.08,8.021c-3.938,0.729,2.041,14.433,1.746,15.599c-0.291,1.167-4.273,6.606,1.559,18.66
	c0,0,0.975,2.332-1.555,6.607s-8.164,16.717-4.857,19.242c0.398,0.309,0.719,0.698,0.979,1.146
	c5.701-1.426,14.695-3.803,17.291-5.229C760.89,529.932,762.442,534.012,765.942,529.348z"/>
<path id="Shaanxi" fill="#C4E8F2" stroke="#cad7e0" stroke-width="0.5" d="M751.755,561.801c-2.332-2.332-6.998-8.553-6.998-8.553
	s3.307-4.857-0.775-5.639c-4.082-0.775-1.943-8.938-5.248-11.463c-3.307-2.525,2.332-14.967,4.857-19.242s1.557-6.607,1.557-6.607
	c-5.832-12.052-1.85-17.493-1.559-18.66c0.293-1.166-5.686-14.869-1.748-15.598s4.08-8.021,4.08-8.021
	c2.771-0.146,5.979-6.995,2.041-8.892c-3.938-1.896-7.287-9.039-2.041-13.851c5.248-4.812,5.83-15.892,6.854-16.036
	c1.021-0.146,5.104-7.437,4.229-9.33c-0.232-0.511-0.268-1.448-0.189-2.541c-1.201,0.087-2.143-0.18-2.143-0.18
	c2.143-5.831-4.273-1.76-4.273-1.76s-5.314,10.475-5.248,6.195c0.098-6.157-5.639-2.493-5.639-2.493
	c-0.391-2.332-3.307-2.332-3.307-2.332c0.924,5.979-4.713,5.056-4.713,5.056c1.352,3.103-4.229,7.383-4.229,7.383
	s-15.938,11.855-13.021,22.744c0.859,3.208-3.109,3.305-4.471,1.166c-1.359-2.14-0.584-0.583-0.977,5.636
	c-0.021,0.391-0.104,0.741-0.229,1.06c-1.881,4.761-14.354,1.856-14.354,1.856c-2.369-3.26-5.979-2.909-8.596-4.105
	c-1.699,1.112-3.254,2.122-3.648,2.356c-0.975,0.582-8.746,20.8,0,21.188l2.414,2.526c0,0,6-0.693,8.465,3.979
	c0.146,0.273,0.275,0.565,0.396,0.876c2.141,5.639,6.998-0.774,8.164,2.916c1.166,3.693,4.666-1.165,5.057,4.859
	c0.389,6.024-2.916,11.663-2.916,11.663l2.945,12.828c-1.135,1.555-5.277-1.359-5.277-1.359c-0.391,0.975-12.637,1.359-12.637,1.359
	c-4.275,1.939,2.141,5.246,1.75,6.605c-0.391,1.361-13.801,3.111-13.801,3.111c-1.75-7.582-13.121-3.6-13.121-3.6l0.682,5.732
	c0,0-8.525,5.93,0.5,8.261c9.023,2.334-1.473,8.747-1.473,8.747s-0.291,4.373,0.875,12.537c0,0-7.438,1.748-10.496-1.313
	c0,0-8.746,6.414-1.021,10.35c7.729,3.938-8.466,7.58-8.466,7.58s-0.137,9.039,8.609,0c0,0,10.559,9.492,15.629,4.02
	c5.07-5.474,9.609,6.479,9.609,6.479l4.109-1.75c0,0,6.514,7.289,12.927,6.414c0,0,6.589-1.082,7.212,1.5
	c4.891,0.705,10.697,3.205,16.986,9.287l5.293,1.604c0.902-4.783,1.893-10.916,1.314-12.295c-0.971-2.332-3.908-0.193-1.178-4.857
	s1.762-4.662,5.844-3.307c4.08,1.359,9.137-0.389,4.473-5.248c-4.666-4.855-5.439,0.395-5.832-5.828c0,0-18.271-7.189,5.832-3.5
	c0,0,8.746,0.611,9.718-1.057c0,0-0.972,7.307,6.024,0c0,0,0.824,0.047,1.928,0.299
	C752.862,566.752,753.335,563.383,751.755,561.801z"/>
<path id="Hubei" fill="#C4E8F2" stroke="#cad7e0" stroke-width="0.5" d="M736.009,614.383l-1.75,12.537c0,0-4.082-2.754-9.33,4.375
	l-23.033,3.498c0,0,3.791,13.211,0,15.936c0,0,11.955,4.475,14.578,15.264c0.369,1.518,0.66,3.18,0.896,4.912
	c1.229-1.084,2.313-2.285,2.313-3.164c0-2.041,0.291-11.662,6.123-13.412c5.83-1.746,4.08-4.953,4.08-4.953
	s11.662,6.412,14.287,2.916c2.623-3.5-7.063-18.078,29.707-0.293c0,0,5.863,8.738,17.137-1.27c0,0-1.75,16.615,11.854,0
	c0,0,4.666,7.486,4.473,10.402c-0.182,2.719,4.369,4.592,4.98,4.832c2.795-1.117,5.879-2.805,6.682-5.014
	c1.557-4.273,4.275,0.775,4.275,0.775l11.855-4.082c0,0-4.471-3.689,2.723-3.105c7.191,0.582,4.473-3.5,4.275-5.248
	c-0.193-1.75,4.857,0,4.857,0s1.65,3.281,7.58,1.438l0.193-7.387c-5.25-3.607-4.473-9.225-4.473-9.225
	c-4.082-3.109-1.748-7.191,1.943-8.941c3.689-1.75-2.725-5.248-2.725-5.248c-6.553-0.75-8.635-3.709-8.627-6.727
	c-1.639,2.125-2.816,3.395-3.568,0.109c-1.313-5.729-3.498-4.145-3.498-4.145c-10.545,2.758-9.377-2.463-9.377-2.463
	c0.389-1.945-8.357-3.111-8.357-3.111c-11.078,3.887-7.387-12.248-8.939-13.996c-1.553-1.75-5.832,3.498-5.832,3.498l-7.971-3.305
	c-22.74,7.189-35.326-12.828-35.326-12.828c1.021-6.219-7.436-6.691-7.436-6.691c-6.996,7.309-6.025,0-6.025,0
	c-0.971,1.669-9.719,1.059-9.719,1.059c-24.102-3.691-5.83,3.5-5.83,3.5c0.391,6.221,1.166,0.971,5.83,5.83
	c4.666,4.855-0.391,6.604-4.473,5.248c-4.08-1.359-3.107-1.361-5.844,3.305c-2.73,4.664,0.207,2.525,1.18,4.857
	c0.572,1.381-0.414,7.512-1.314,12.297l2.287,0.689C726.679,607.059,729.011,614.383,736.009,614.383z"/>
<path id="Hunan" fill="#C4E8F2" stroke="#cad7e0" stroke-width="0.5" d="M812.784,736.938c7.387-6.803-0.388-4.855-0.388-4.855
	c2.526-0.779,8.745-7.775,2.526-7.982c-6.223-0.209-5.832-4.459-4.861-6.791c0.975-2.332,2.916-7.58-3.691-11.076
	c-6.607-3.5,4.275-14.578,4.275-14.578c9.525-3.307,3.109-12.439,4.277-15.355c1.166-2.914-2.527-10.301-2.527-10.301
	s-5.247-1.943-5.055-4.859c0.193-2.916-4.473-10.4-4.473-10.4c-13.605,16.613-11.854,0-11.854,0
	c-11.271,10-17.136,1.262-17.136,1.262c-36.77-17.785-27.084-3.207-29.705,0.293c-2.625,3.498-14.287-2.916-14.287-2.916
	s1.75,3.207-4.082,4.955c-5.832,1.75-6.123,11.371-6.123,13.412c0,0.877-1.08,2.078-2.313,3.162
	c1.442,10.605,0.729,23.992,1.729,24.242c1.166,0.293,5.439,7.289-8.357,14.576c-13.797,7.289,12.146,3.207,11.855,2.041
	c-0.291-1.164,4.082,9.33-2.916,9.621c0,0-2.623,10.496,2.916,9.039l1.523,5.438c2.715-0.266,9.121-1.111,10.723-3.396
	c2.041-2.916,3.207,4.082,3.207,4.082l6.996-6.998c0,0,10.789-2.041,11.66,0c0.875,2.041-1.166,11.955,3.5,9.914
	c4.664-2.041,0,3.498,0,3.498s2.332,4.664-6.705,11.662c0,0-2.041,9.914,3.5,1.457c5.537-8.455,3.787,2.334,3.787,6.998
	s5.248,1.748,5.832,0c0.584-1.75,9.33,3.789,9.039-5.248c-0.293-9.037,9.912-2.623,9.912-2.623c1.941,8.551,8.357,5.635,7.773,3.691
	c-0.584-1.941-2.916-6.223,0-7.773c2.916-1.557,5.057-5.443,6.803-1.945c1.408,2.814,8.219,0.98,11.643,1.57
	C814.94,744.68,806.005,743.184,812.784,736.938z"/>
<path id="Ningxia" fill="#C4E8F2" stroke="#cad7e0" stroke-width="0.5" d="M637.851,481.531c5.057,0.192,0,5.056,0,5.056
	s-0.193,2.523,3.498,6.803c3.691,4.276-0.973,9.72-0.973,9.72s0.389,8.357,6.805,6.998c0,0,19.438,23.76,15.938,0.387
	c0,0,8.162,1.359,7.387-4.08c0,0,4.859-6.412-6.605-10.106c0,0-1.697-5.639-3.279-6.024c-1.58-0.391,3.975-5.832,3.975-5.832
	s-0.691-3.691,1.059-6.414c1.184-1.843,7.766-2.634,12.221-3.119c0.061-6.117,3.482-14.58,4.104-14.953
	c0.396-0.236,1.949-1.246,3.648-2.356c-0.814-0.374-1.539-0.894-2.094-1.727c-2.332-3.499-8.748-6.997-11.41-6.022
	c-2.662,0.972-9.191-3.891-9.191-3.891c3.889-2.724,4.664-10.113,4.664-10.113s6.221-7.38,4.082-9.321
	c-2.141-1.941-5.055-8.748-5.055-8.748c-17.883,2.916-18.854,30.711-17.494,32.46c1.361,1.75-2.723,11.079-3.689,10.496
	c-0.975-0.583-7.971,0.974-7.971,0.974c-1.635,2.177-8.021,3.896-13.329,4.988C628.394,472.979,634.685,481.411,637.851,481.531z"/>
<path id="Fujian" fill="#C4E8F2" stroke="#cad7e0" stroke-width="0.5" d="M935.046,704.475c0,0-7.58,7-9.328-1.555
	c0,0,0-6.414-4.473-2.332c-4.469,4.082-9.135,4.666-11.271,0.389c0,0,0.003-5.832-2.523-8.357c0,0-0.393-3.303,0.973-6.021
	c0,0,0-4.857-8.356-1.166c0,0-2.722,1.748-0.974,3.691c0,0-9.521,2.33-11.469,6.412c0,0-3.887-6.805-8.744-0.58
	c0,0-0.975,4.08-4.475,3.887c-3.498-0.191,0,5.441,0,5.441s2.332,7.971-3.304,9.137c-5.64,1.166-7.774,3.5-8.358,5.055
	c-0.582,1.557,0.584,7.773,1.942,7.971c1.36,0.191-7.19,6.023-4.858,6.023c2.334,0,3.11,3.307-2.722,6.414
	c0,0-1.166,4.471-3.497,4.471c0,0-1.557,0.975-0.975,7.191c0,0-1.555,2.721-2.914,3.305c-0.725,0.311-0.295,3.189,0.268,5.826
	c3.563,0.389,12.174,5.645,12.174,5.645s7.971,7.58,8.162,11.66c0.11,2.318,2.104,7.705,3.801,11.934l3.178-1.482l3.617,1.896
	l2.816-5.932l10.396-8.646l-4.053-5.498l14.309-1.209c1.166,0.291,6.561-8.021,5.979-10.062c-0.584-2.041,2.041-3.224,2.041-3.224
	c0.438,3.045,6.563-1.006,4.521-3.189c-2.042-2.187,2.572-3.535,2.572-3.535c3.498,1.941,5.058-2.527,6.024-17.105
	c0.972-14.578,8.604-9.098,8.604-9.098c1.697-5.775,5.445-9.808,8.211-12.662C941.298,706.092,939.206,703.643,935.046,704.475z"/>
<path id="Qinghai" fill="#C4E8F2" stroke="#cad7e0" stroke-width="0.5" stroke-miterlimit="10" d="M594.602,498.343
	c-1.457,0.292-10.98-17.786-11.375-18.563s3.311-4.473,3.311-4.473s-8.552-3.108-11.272-9.72c-2.724-6.606-5.248-3.107-5.248-3.107
	c-3.306-4.273-7.579-4.473-7.579-4.473c-1.944,2.333-10.496-6.023-11.662-8.463c-1.167-2.438-6.222-1.644-6.222-1.644
	c-7.972-11.079-10.302-5.248-10.302-5.248c4.081,6.414-1.36,3.889-1.36,3.889c-21.382-22.742-24.104-20.409-24.104-20.409
	c-1.555,4.274-4.858,2.915-4.858,2.915c-5.055-2.916-5.055,2.722-5.055,2.722c-1.166,3.499-20.021-8.553-20.021-8.553
	c-7.97-1.941-4.081,15.938-4.081,15.938c-5.248-2.916-7.192,5.441-7.581,7.773c-0.39,2.333-6.025,0.777-6.025,0.777
	c-2.334,5.637-13.604-3.499-13.604-3.499c-5.441,5.248-10.648-0.583-10.648-0.583l-10.537,1.556l-4.859-10.689
	c-9.33,2.14-11.079,0-11.079,0c8.938-5.441-10.69-3.889-10.69-3.889l-2.722-4.709c-2.044,0.354-8.354-0.426-14.382-1.332v2.934
	c0,0-31.878,9.701-34.21,8.351c0,0-4.664,6.034-6.607,4.868c-1.944-1.167-2.334,8.165,1.943,6.221c0,0-0.39,12.054,1.166,13.995
	c1.556,1.943,12.44,6.222,12.44,6.222s0.001,5.832,3.11,7.773c0,0,2.721,4.665-8.942,5.831c0,0-3.888,6.997,2.721,9.33
	c0,0,3.741,10.444,2.721,10.735c-1.021,0.291-6.27,5.688-21.867-4.082c0,0-0.438,8.164-8.893,3.354
	c-0.074-0.042-0.151-0.086-0.227-0.128c-0.526,2.572,0.231,5.563,3.969,8.583c0,0-1.051,10.076-4.122,11.16
	c0,0-1.127,13.137,5.676,10.803c0,0,1.444,18.66-2.874,18.271c0,0-2.763,2.725,5.401,9.721c0,0-0.39,9.814,28.183,15.938
	c0,0,33.821,11.661,41.11,13.702c0,0,13.994,3.5,21.573-2.914c0,0,12.829,3.207,13.995,7.871c0,0,7.289,21.576,19.535,11.08
	c0,0,1.458-2.625,6.123,1.457c0,0,6.706,3.207,5.248-5.248c0,0,4.957-4.664,9.622-2.916c0,0,0.292-6.705,1.458-9.912
	c1.167-3.207,6.415-0.875,6.415-0.875l-5.54-9.984l5.54-11.006c0,0-7.289-5.832-5.831-9.912c1.458-4.082,5.831-2.041,5.831-2.041
	s-1.458-7.729,6.414-4.813c7.358,2.727,8.539,1.063,8.66,0.832c-0.129,0.263-1.771,3.816,3.1,7.188
	c5.054,3.5,4.858,14.188,4.858,14.188s17.104,8.748,18.271,10.303c0,0,3.499-8.555,6.803-2.525c3.308,6.023,1.944,8.553,4.86,2.914
	c2.916-5.636,3.888,2.723,4.665,3.5c0.774,0.775,3.107-0.975,3.107-0.975s11.855,2.723,10.888-4.473
	c-0.974-7.191-3.693-12.635,6.998-8.357c0,0,1.812-0.756,3.472-2.029c0.014-0.014,0.025-0.021,0.041-0.031
	c0.116-0.092,0.23-0.187,0.346-0.279c0.034-0.025,0.067-0.057,0.104-0.086c0.094-0.08,0.188-0.162,0.278-0.246
	c0.036-0.034,0.074-0.068,0.109-0.104c0.09-0.086,0.177-0.172,0.261-0.258c0.033-0.033,0.067-0.066,0.104-0.104
	c0.094-0.104,0.187-0.205,0.272-0.311c0.021-0.021,0.038-0.043,0.06-0.064c0.104-0.129,0.208-0.262,0.303-0.396
	c0.017-0.021,0.026-0.043,0.041-0.063c0.076-0.111,0.149-0.227,0.216-0.34c0.025-0.043,0.049-0.088,0.072-0.133
	c0.052-0.098,0.104-0.189,0.146-0.287c0.021-0.053,0.045-0.104,0.064-0.152c0.039-0.098,0.074-0.191,0.106-0.291
	c0.017-0.051,0.032-0.104,0.048-0.15c0.029-0.107,0.053-0.221,0.072-0.328c0.009-0.043,0.019-0.084,0.022-0.127
	c0.021-0.15,0.034-0.311,0.034-0.465c0-0.021-0.003-0.039-0.003-0.061c-0.002-0.139-0.014-0.275-0.033-0.416
	c-0.008-0.055-0.021-0.104-0.031-0.16c-0.021-0.107-0.046-0.219-0.078-0.328c-0.018-0.063-0.038-0.123-0.062-0.186
	c-0.038-0.107-0.082-0.213-0.13-0.32c-0.028-0.063-0.06-0.125-0.091-0.188c-0.061-0.115-0.128-0.23-0.199-0.352
	c-0.034-0.057-0.064-0.107-0.104-0.166c-0.115-0.172-0.244-0.346-0.394-0.52c-0.261-0.308-0.543-0.576-0.845-0.82
	c-0.1-0.08-0.209-0.143-0.313-0.215c-0.209-0.15-0.419-0.303-0.646-0.428c-0.13-0.072-0.269-0.131-0.4-0.193
	c-0.211-0.104-0.422-0.205-0.646-0.291c-0.146-0.057-0.3-0.1-0.45-0.146c-0.221-0.066-0.438-0.141-0.663-0.191
	c-0.158-0.039-0.318-0.065-0.479-0.102c-0.228-0.044-0.452-0.087-0.684-0.117c-0.163-0.021-0.325-0.037-0.488-0.057
	c-0.232-0.021-0.465-0.045-0.698-0.057c-0.162-0.008-0.32-0.014-0.481-0.021c-0.237-0.006-0.475-0.009-0.708-0.004
	c-0.155,0.004-0.311,0.006-0.463,0.015c-0.24,0.01-0.479,0.02-0.716,0.037c-0.143,0.012-0.28,0.021-0.42,0.027
	c-0.249,0.021-0.487,0.048-0.729,0.074c-0.117,0.014-0.234,0.025-0.354,0.039c-0.262,0.033-0.511,0.065-0.755,0.104
	c-0.082,0.015-0.163,0.021-0.242,0.034c-1.609,0.244-2.82,0.521-3.152,0.457l0,0c-0.072-0.014-0.111-0.043-0.098-0.096
	c0.236-0.777-1.123-5.053-1.123-5.053c-11.47-10.303-0.391-11.662-0.391-11.662c0.164,0.102,0.327,0.203,0.488,0.301
	c19.947,12.133,21.671-0.301,21.671-0.301l-5.054-6.414l-0.194-6.025c0,0,7.773-5.248,8.746-6.219
	c0.974-0.973-1.359-6.416-1.359-6.416c1.75,1.168,5.055-3.887,5.055-3.887c2.525,2.137,4.665-2.141,4.665-2.141
	c-0.776-3.5,0.192-5.055,0.192-5.055c2.333,0.195,3.889-3.693,3.109-4.57C591.59,502.322,596.06,498.052,594.602,498.343z"/>
<path id="Gansu" fill="#C4E8F2" stroke="#cad7e0" stroke-width="0.5" d="M570.987,562.582c2.548,3.012,0.266,5.607-1.997,7.217
	c2.333,2.385,5.95,3.945,9.868-2.354l4.081-4.082l-4.372-11.371c0,0,14.284-7.578,14.284-6.414c0,1.166,3.79,8.164,5.831,11.078
	c2.041,2.916,19.534,4.666,19.534,4.666s0.292,7.289,2.916,7.289s-2.332,11.662,0,13.119c2.333,1.459,12.245,2.916,12.245,2.916
	l10.844-4.111c-0.223-0.896-0.211-1.721-0.211-1.721s16.189-3.645,8.465-7.58c-7.729-3.938,1.021-10.352,1.021-10.352
	c3.063,3.063,10.496,1.313,10.496,1.313c-1.166-8.164-0.875-12.537-0.875-12.537s10.496-6.414,1.473-8.748
	c-9.023-2.332-0.498-8.26-0.498-8.26l-0.682-5.732c0,0,11.369-3.983,13.119,3.599c0,0,13.409-1.75,13.801-3.11
	c0.391-1.359-6.025-4.666-1.75-6.607c0,0,12.246-0.389,12.637-1.357c0,0,4.146,2.914,5.277,1.357l-2.945-12.828
	c0,0,3.307-5.639,2.916-11.663c-0.391-6.022-3.891-1.165-5.057-4.857c-1.166-3.691-6.021,2.723-8.164-2.916
	c-0.117-0.313-0.25-0.604-0.396-0.876c-2.463-4.677-8.465-3.981-8.465-3.981l-2.412-2.524c-3.133-0.141-4.143-2.823-4.104-6.231
	c-4.455,0.486-11.037,1.277-12.225,3.12c-1.747,2.723-1.059,6.414-1.059,6.414s-5.553,5.443-3.971,5.832
	c1.58,0.389,3.277,6.026,3.277,6.026c11.471,3.691,6.605,10.104,6.605,10.104c0.774,5.443-7.387,4.082-7.387,4.082
	c3.5,23.373-15.938-0.387-15.938-0.387c-6.414,1.359-6.805-6.998-6.805-6.998s4.666-5.441,0.973-9.718
	c-3.691-4.277-3.498-6.805-3.498-6.805s5.057-4.857,0-5.056c-3.165-0.12-9.456-8.552-13.716-14.837
	c-4.166,0.855-7.663,1.327-7.663,1.327c-0.775-1.265-6.607-6.9-12.637-10.011c-6.023-3.107,0.192-7.97-0.583-8.745
	c-0.776-0.776-1.357-6.414,0.583-7.581c1.941-1.166,17.008-12.148,13.604-15.789c-3.398-3.642,0.192-5.398-2.432-9.188
	s-15.743,3.979-15.743,3.979s-3.498,6.229-11.371,3.313c-7.872-2.916-16.909,1.899-16.909,1.899
	c1.457,1.606,5.247,2.766-1.459,9.948c-6.705,7.186-8.163-8.644-11.661-7.186s-7.288-2.766-7.288-2.766
	c0.583-12.388-6.706-8.314-6.706-8.314c0-0.875-5.54-7.287-5.54-7.287c-2.916-0.292-14.578-5.54-14.578-5.54
	c13.703-2.916,14.578-23.907,14.578-23.907c-2.332-6.122-20.117,0.582-20.117,0.582c-10.495,4.665-17.492,5.831-17.492,5.831
	c0.875-9.329-7.289-14.576-7.289-14.576c-10.496-7.872-1.458-13.412-1.458-13.412l-13.21-31.068l-15.267,1.523l-0.799-3.732
	c-4.854,4.238-9.284,10.194-6.198,16.368c5.831,11.662-9.718,12.438-9.718,12.438l-5.832,6.606c0,0-1.558-8.939-10.887,0
	c0,0-17.882,9.33-20.213,22.159c0,0-20.621-0.958-17.123,8.76c0,0-4.258,24.19-10.089,29.485v2.751
	c6.027,0.904,12.338,1.684,14.382,1.332l2.722,4.709c0,0,19.63-1.558,10.689,3.887c0,0,1.749,2.14,11.079,0l4.858,10.691
	l10.538-1.558c0,0,5.207,5.83,10.646,0.583c0,0,11.271,9.136,13.604,3.499c0,0,5.639,1.558,6.024-0.776
	c0.389-2.331,2.333-10.689,7.581-7.774c0,0-3.889-17.882,4.082-15.938c0,0,18.854,12.053,20.021,8.555c0,0,0-5.64,5.053-2.724
	c0,0,3.307,1.359,4.86-2.915c0,0,2.72-2.333,24.104,20.409c0,0,5.439,2.525,1.359-3.889c0,0,2.33-5.831,10.302,5.248
	c0,0,5.054-0.796,6.221,1.644c1.166,2.438,9.719,10.796,11.661,8.463c0,0,4.274,0.195,7.581,4.473c0,0,2.525-3.5,5.248,3.107
	s11.272,9.722,11.272,9.722s-3.7,3.69-3.311,4.471c0.395,0.777,9.919,18.854,11.375,18.563c1.459-0.29-3.013,3.979-2.232,4.854
	c0.777,0.879-0.776,4.77-3.109,4.572c0,0-0.971,1.555-0.192,5.053c0,0-2.14,4.275-4.664,2.141c0,0-3.307,5.057-5.057,3.889
	c0,0,2.334,5.441,1.361,6.416c-0.974,0.971-8.747,6.219-8.747,6.219l0.194,6.024l5.054,6.414c0,0-1.723,12.435-21.67,0.302
	c-0.162-0.1-0.325-0.199-0.489-0.302c0,0-11.08,1.358,0.391,11.661c0,0,1.359,4.273,1.124,5.055
	c-0.014,0.041,0.021,0.059,0.063,0.074l0.033,0.021C557.684,560.938,566.996,557.865,570.987,562.582z"/>
<path id="Sichuan" fill="#C4E8F2" stroke="#cad7e0" stroke-width="0.5" d="M621.134,581.729c-2.332-1.455,2.624-13.117,0-13.117
	s-2.916-7.289-2.916-7.289s-17.493-1.75-19.534-4.666c-2.041-2.914-5.831-9.912-5.831-11.078s-14.284,6.414-14.284,6.414
	l4.372,11.371l-4.081,4.082c-3.919,6.305-7.535,4.738-9.868,2.354c-1.534,1.09-3.06,1.725-3.06,1.725
	c-10.689-4.273-7.969,1.166-6.998,8.357c0.974,7.191-10.886,4.473-10.886,4.473s-2.333,1.75-3.107,0.975
	c-0.777-0.777-1.75-9.136-4.665-3.5c-2.916,5.639-1.558,3.109-4.86-2.914c-3.304-6.025-6.803,2.525-6.803,2.525
	c-1.166-1.555-18.271-10.303-18.271-10.303s0.192-10.688-4.858-14.188c-4.867-3.369-3.229-6.925-3.1-7.188
	c-0.122,0.229-1.303,1.895-8.662-0.832c-7.871-2.916-6.412,4.813-6.412,4.813s-4.375-2.041-5.832,2.041
	c-1.457,4.08,5.832,9.912,5.832,9.912l-5.541,11.006l5.367,9.678c6.971,3.467,13.953,8.936,15.333,17.221
	c0,0,21.091,17.3,2.816,11.662c0,0-2.138,2.14,3.694,7.969c5.831,5.832,2.722,7.193,2.525,8.941
	c-0.192,1.75,5.763,18.854,1.229,22.156c-4.533,3.307,17.722,23.907-4.729,16.037c0,0,8.464,4.663,10.209,15.158
	c0,0,2.618-8.454,5.243-7.288c2.623,1.166,2.623-2.623,3.789-4.082c1.167-1.456,14.287,11.37,9.039,13.995
	c0,0-4.082,1.166,4.373,8.746c0,0,6.123-6.123,8.164,0s19.535,32.945,20.118,36.445c0,0,3.499,2.916,10.496-2.041
	s7.579-0.584,7.87,0.291s7.584-5.248,7.584-5.248s-6.125-21.283-1.169-20.992c0,0,13.12-10.205,9.038-14.287
	c0,0,3.207-4.373,4.956-4.08c0,0,4.374-0.293,2.041-7.872c0,0,12.246-5.248,11.663-1.457c0,0-5.979,2.332,0.729,8.021
	c0,0-1.604,6.123-2.771,4.812c0,0,7.872,9.771,14.434-0.291c0,0,7.014-1.448,6.407,6.997c2.656-0.146,5.496,0.094,6.18,1.65
	c1.357,3.107,15.354-1.945,13.411-7.387c-1.944-5.441-17.14-1.359-12.265-12.636c0,0,9.117,2.722,0-15.161
	c0,0-12.618-2.723-6.203-9.521c6.414-6.805,8.908-6.024,6.203-11.469c0,0-3.094-0.291-1.637-2.332s-1.902-4.957-1.902-4.957
	s3.652-4.664,6.859-6.705c0,0,6.412-1.166,7.971,7.773c1.556,8.939,5.441-4.273,6.804-2.523c1.358,1.748,5.347,1.164,5.347,1.164
	c4.082-3.338,9.037,3.338,11.371,3.338c2.332,0-1.021-7.855-0.875-9.021c0.145-1.166,4.811-5.539,7.145-3.207
	c2.33,2.332,4.955-1.021,4.521-3.063c-0.439-2.041,1.166-6.707,1.166-6.707c18.074-10.787,5.395-16.326,5.395-16.326
	c7.58-8.163-4.811-6.122-4.811-6.122c-6.416,0.875-12.928-6.413-12.928-6.413l-4.111,1.75c0,0-4.537-11.955-9.609-6.48
	c-5.067,5.478-15.629-4.018-15.629-4.018c-6.109,6.313-7.885,3.807-8.396,1.721l-10.847,4.111
	C633.379,584.645,623.467,583.188,621.134,581.729z"/>
<path id="Hainan" fill="#C4E8F2" stroke="#cad7e0" stroke-width="0.5" d="M735.229,897.486c0,0,2.725-4.473,4.861-4.273
	c2.137,0.191,3.691-3.693,3.498-5.248c-0.195-1.557,4.471-12.439,6.607-12.83c2.137-0.387,1.748-8.551,1.748-8.551l-4.275-1.75
	c0,0-4.078-2.332-3.887,0c0,0-7.389,1.359-9.914,2.916c0,0-11.08-3.498-10.885,0c0.193,3.498-2.723,1.555-2.723,1.555
	s-3.5-1.166-1.75,2.141c0,0-7.189,4.469-8.164,6.023c0,0-4.789-0.193-3.658,6.223c0,0-7.811,18.465,16.102,18.465
	c0,0,3.498,5.639,5.248,0c1.748-5.639,4.664-0.975,6.219-1.75C735.813,899.625,735.229,897.486,735.229,897.486z"/>
<path id="Guangdong" fill="#C4E8F2" stroke="#cad7e0" stroke-width="0.5" d="M870.319,776.977c-0.191-4.082-8.162-11.66-8.162-11.66
	s-11.47-6.998-13.412-5.441c-1.941,1.555,0.773,11.078-1.75,9.328s0.584-8.162-13.217-4.662c-13.803,3.496-17.104,5.637-15.16,0.191
	c1.942-5.439,7.969-6.223,8.162-9.721s-11.66-0.584-13.217-3.305c-1.557-2.723-11.662,0.973-13.412-2.527
	c-1.748-3.498-3.889,0.393-6.805,1.945s-0.584,5.832,0,7.773c0.584,1.939-5.832,4.855-7.773-3.691c0,0-10.205-6.414-9.912,2.623
	c0.123,3.842-1.387,5.045-3.207,5.299v3.156c0,0,3.207,5.83,0,8.746c-3.209,2.914-2.916,7.287-4.082,8.455
	c-1.166,1.166-7.289,9.621-7.289,9.621c2.041,5.83-2.625,13.412-2.625,13.412c-8.453,4.371-10.787,6.119-11.076,9.91
	c-0.293,3.791-6.707,4.082-6.707,4.082s1.459,5.539-4.373,5.248c-2.898-0.146-6.305,3.242-8.99,6.688l3.229-0.354l-1.473,2.648
	l-3.24,5.008l-1.178,9.426l3.239,0.883l-0.354,5.365l5.006,2.65l-1.471,1.18l0.883,2.943l8.836-0.297l4.123-4.123l0.295-1.77
	l-4.125-4.121l0.063-2.713l-3.24-1.178l-1.234-4.162l20.629-8.604l2.02,2.336l9.449-6.271l-0.193-3.4l3.033,2.904l2.215-2.711
	l7.48,1.068l1.359-1.068l9.641-3.188l1.439-4.59l1.748,5.15l8.164-4.666l0.973-8.064l2.623-3.014c0,0,0.84,1.873,1.501,4.28
	c2.313-2.411,7.999-4.578,10.65-2.376l1.724,6.754l2.5-3l-0.498-7.128l4.495-1.59c0,0-1.32,10.735,7.814-0.533
	c0,0,2.523,1.166,5.83,2.816c3.305,1.65,3.396-1.266,3.012-3.982l5.248,2.332c0,0,17.787-6.074,20.799-16.619l3.803-1.771
	C872.421,784.682,870.431,779.295,870.319,776.977z"/>
<path id="Hongkong" fill="#C4E8F2" stroke="#cad7e0" stroke-width="0.5" d="M808.75,814c0.438,1.601,0.198,7.379-0.875,9.375
	c13.375,0,11.525-11.75,11.525-11.75C816.75,809.419,811.062,811.589,808.75,814z"/>
<path id="Jiangsu" fill="#C4E8F2" stroke="#cad7e0" stroke-width="0.5" d="M960.674,612.594c-1.584-0.922-2.695-1.415-2.695-1.415
	s-2.302-4.063-6.414-5.639c-4.116-1.574-4.082-2.916-3.888-5.637c0.191-2.721,3.888,3.887,5.248,5.055
	c1.358,1.166,11.854,9.328,15.354,9.523c3.498,0.195-0.195-7.387,0.582-8.115c0.781-0.727-8.164-9.963-8.355-13.07
	c-0.195-3.108-8.748-9.942-8.748-9.942c-6.996-5.084-11.078-32.961-11.078-32.961l-3.063-5.834l-9.037-3.646l-12.244-11.08
	l4.256-6.191c-3.594,1.21-9.078,2.986-10.23,2.986c-1.75,0-3.498,7.58-3.498,7.58s-5.248-2.916-6.707,2.332
	c-1.457,5.248-4.664,2.916-6.414,0s-6.414-0.189-7.58,1.945c-1.166,2.133-8.164-0.295-9.814,2.232
	c-1.65,2.529-4.473-11.467-6.998-10.98c-2.523,0.484-7.773,0.096-8.162,0.582c-0.223,0.281,0.744,3.286-0.285,5.979
	c4.068,2.693,10.541,7.25,12.238,10.058c2.525,4.181,7.969,4.276,10.689,5.831c2.723,1.553,4.18,6.121,3.789,7.191
	c-0.389,1.068,10.592-5.832,8.65,0.875c-1.943,6.705-7.289,12.828,0.68,11.662c0,0-2.137,12.456,10.105,9.727
	c0,0,3.645-10.318,11.855,3.631c1.961,3.33-6.219,3.555-7.58,1.221c-1.359-2.332-7.773-0.973-6.414,1.166
	c1.361,2.141,5.055,6.61-1.75,7.59c-6.803,0.977,0.971,11.07,4.277,12.236c3.305,1.166,2.721,3.691,2.721,3.691
	c-6.803,8.164,7.773,3.885,8.355,5.441c0.584,1.559,4.666,2.332,4.666,2.332s0.035,0.189,0.09,0.51c2.23-0.736,4.5-0.555,5.938,2.02
	c3.695,6.613,10.885,3.889,10.885,3.889l3.201,3.109c0,0,3.215-9.326,6.322-6.221c0.246,0.246,0.546,0.411,0.546,0.411
	C950.811,614.565,957.603,612.923,960.674,612.594z"/>
<path id="Shanghai" fill="#C4E8F2" stroke="#cad7e0" stroke-width="0.5" d="M971.396,626.92c0.421-6.841-6.686-11.976-10.723-14.326
	c-3.071,0.329-9.863,1.972-10.507,10.073l0.356,0.456c1.699,1.598,4.437,4.009,7.029,6.258
	C962.135,625.76,971.396,626.92,971.396,626.92z"/>
<g id="Hebei">
	<path id="path1" fill="#C4E8F2" stroke="#cad7e0" stroke-width="0.5" d="M872.625,408.5c-0.531,0.903-1.094,1.615-1.667,2.199
		c0.449,0.684,1.038,1.174,1.729,0.801c0,0,3.938,2.625,2.875-2.313c0,0,1.188-0.563,0.063-2.188c0,0,4.683-0.328-0.563-2.563
		c0,0,1.464-1.303,0.95-4.115c-1.458,0.855-2.763,1.302-2.763,1.302C863.375,401.875,872.625,408.5,872.625,408.5z"/>
	<path id="path" fill="#C4E8F2" stroke="#cad7e0" stroke-width="0.5" d="M926.882,398.144c-1.36-0.583-3.689-4.274-2.332-7.969
		c1.357-3.691-6.607-1.75-6.607-1.75l-8.164-7.189c0,0,0.584-6.415,1.75-6.998c0.975-0.485,4.102-1.396,4.323-6.987
		c-5.776,0.912-16.343,0.38-16.343,0.38c-5.604-10.887-2.756-13.219-2.756-13.219c6.605-0.192-5.055-17.688-7.971-20.798
		c-2.916-3.107-5.638,0.391-5.638,0.391s-0.584,4.857-4.168,2.721c-3.587-2.137-8.854,0.778-8.136,2.333
		c0.72,1.557,2.39,10.887-1.889,11.273c-4.275,0.39-10.689,0.193-10.689,0.193c-1.166,5.054-4.664,4.274-4.664,4.274
		c-0.391-3.499-4.273-3.499-4.273-3.499c-10.688,4.274-9.604,8.939-9.604,8.939c-7.08,1.942-12.553-1.557-9.053-5.054
		c3.496-3.499-1.943-9.327-1.943-9.327c-4.857-0.974-5.248,4.473-6.414,4.665c-1.168,0.192-5.247,1.557-5.055,3.108
		c0.191,1.557,2.568,8.504-1.166,8.554c-7.189,0.092-3.17,7.771-3.17,7.771c-6.318,8.771,0.447,2.525,1.228,11.271
		c0.177,1.977-0.019,3.477-0.401,4.646c3.537,1.525,6.137,3.515,5.939,6.046c-0.584,7.58,1.748,1.749-7.288,7.872
		c-9.038,6.123,5.271,7.386,7.3,7.481c2.027,0.1,6.109,16.427-4.094,19.633s-6.68,4.664-6.547,8.163
		c0.135,3.499-5.406,4.374-5.406,4.374s-2.891,4.957,5.406,10.788c0,0,1.301,6.706,3.342,8.454s4.689,6.705-3.342,16.91
		c0,0-0.715,4.373,0,5.831c0.717,1.458-10.654,2.417-5.697,8.937s10.494,4.479,10.494,4.479s13.412,9.039,16.035,5.54
		c2.625-3.499,5.541-2.041,6.414-0.875c0.875,1.167,6.123,2.042,5.541-1.457c-0.584-3.499-6.414-11.079,2.914-14.87
		c9.33-3.79,7.289-13.701,7.289-13.701s11.955-6.123,14.871-10.788c2.914-4.665,12.533,3.107,16.324-4.566
		c1.438-2.915,4.014-5.729,6.648-8.104c-1.945-2.012-2.857-3.804-2.857-3.804c-1.999-0.979-3.179-2.529-3.746-4.139l-6.162,1.672
		c0.25-4-3-0.875-3-0.875c-1.25-4.375-4.375-2.375-4.375-2.375l-0.625-1.75c-3.75,0.25-2.125-2.625-2.125-2.625
		c-1.375-1.5,0.25-5.25,0.25-5.25c5-1.125,3.625-2.5,2.25-3.5c1.125-3-1.125-4.625-1.125-4.625c1.875-3.125-0.25-2.625-0.25-2.625
		c0.405-1.064,0.191-2.347-0.203-3.498c-2.359,0.738-4.297-0.127-4.297-0.127c-1.617,1.409-2.5,1.819-2.125,4.257
		c-2.938,0.093-5.25-3.507-5.25-3.507l-3.125-0.125l-2.5-0.875c-1.875,4.592-3.625,1.375-3.625,1.375
		c-5.375,0.458-4.5-4.875-4.5-4.875c4.875-0.125-0.875-4.875-0.875-4.875l3.875-4.5c11.875-0.375,2-9.75,2-9.75l2.75-3.745
		c2.39,0.996,12.097-2.278,9.25-7.255c3.559-2.171,7.875-3.25,7.875-3.25c1.875,11.25,15.875,10.505,15.875,10.505
		c-1.438,0.579-1.33,2.73-2.366,2.823c-7.509,0.672-1.134,7.711-1.134,7.711s3.125-1.665,8.125,6.085c0,0-11-2.625-2.625,8.625
		c0,0-0.875,3,1.5,2.875c0,0,0.375-2.5,3.75-0.75l-2,5.5c0,0,5.16,1.872,3.893,4.061l0.001,0.002
		c1.519,0.492,4.13,4.576,4.261,3.807c0.146-0.875,7.58-3.646,12.055-2.333c4.473,1.312,8.646-6.9,8.646-6.9l3.205-10.446
		l8.822-4.125C928.548,400.641,927.55,398.431,926.882,398.144z"/>
</g>
<path id="Tianjin" fill="#C4E8F2" stroke="#cad7e0" stroke-width="0.5" d="M888.5,418.75l2-5.5c-3.375-1.75-3.75,0.75-3.75,0.75
	c-2.375,0.125-1.5-2.875-1.5-2.875c-8.375-11.25,2.625-8.625,2.625-8.625c-5-7.75-8.125-6.085-8.125-6.085
	c-0.571,1.713-2.235,3.027-3.737,3.908c0.514,2.812-0.95,4.115-0.95,4.115c5.245,2.234,0.563,2.563,0.563,2.563
	c1.125,1.625-0.063,2.188-0.063,2.188c1.063,4.938-2.875,2.313-2.875,2.313c-0.691,0.373-1.28-0.118-1.729-0.801
	c-1.015,1.035-2.06,1.623-3.036,1.928c0.395,1.151,0.608,2.434,0.203,3.498c0,0,2.125-0.5,0.25,2.625c0,0,2.25,1.625,1.125,4.625
	c1.375,1,2.75,2.375-2.25,3.5c0,0-1.625,3.75-0.25,5.25c0,0-1.625,2.875,2.125,2.625l0.625,1.75c0,0,3.125-2,4.375,2.375
	c0,0,3.25-3.125,3,0.875l6.162-1.672c-0.791-2.242-0.388-4.601,0.713-5.703c1.896-1.895,7.842-0.362,7.842-0.362
	c-6.998-5.685-1.313-8.455,0-9.184c0.157-0.087,0.345-0.083,0.552-0.016l-0.001-0.002C893.66,420.622,888.5,418.75,888.5,418.75z"/>
<path id="Beijing" fill="#C4E8F2" stroke="#cad7e0" stroke-width="0.5" d="M867.375,375.375c0,0-4.316,1.079-7.875,3.25
	c2.847,4.977-6.86,8.251-9.25,7.255l-2.75,3.745c0,0,9.875,9.375-2,9.75l-3.875,4.5c0,0,5.75,4.75,0.875,4.875
	c0,0-0.875,5.333,4.5,4.875c0,0,1.75,3.217,3.625-1.375l2.5,0.875l3.125,0.125c0,0,2.313,3.6,5.25,3.507
	c-0.375-2.438,0.508-2.848,2.125-4.257c0,0,1.938,0.865,4.297,0.127c0.977-0.306,2.021-0.894,3.036-1.928
	c0.573-0.583,1.136-1.295,1.667-2.199c0,0-9.25-6.625,0.625-6.875c0,0,1.305-0.447,2.763-1.302c1.502-0.881,3.166-2.195,3.737-3.908
	c0,0-6.375-7.04,1.134-7.711c1.036-0.093,0.929-2.244,2.366-2.823C883.25,385.88,869.25,386.625,867.375,375.375z"/>
</svg>
