<?xml version="1.0" encoding="utf-8"?>
<!-- Generator: Adobe Illustrator 16.0.0, SVG Export Plug-In . SVG Version: 6.00 Build 0)  -->
<!DOCTYPE svg PUBLIC "-//W3C//DTD SVG 1.1//EN" "http://www.w3.org/Graphics/SVG/1.1/DTD/svg11.dtd">
<svg version="1.1" id="레이어_1" xmlns="http://www.w3.org/2000/svg" xmlns:xlink="http://www.w3.org/1999/xlink" x="0px"
	 y="0px" width="1280px" height="800px" viewBox="0 0 1280 800" enable-background="new 0 0 1280 800" xml:space="preserve">
<path id="Finistère" fill="#eeeeee" stroke="#000000" stroke-width="0.25" stroke-miterlimit="10" d="M73.478,215.285
	c1.25-3.188-1.5-5-5.938-5.875s-4.813-2.375-6.563-6.688s0.125-4.375,4.864-6.375s4.136-12.813,3.074-13.75
	c-2.893-2.552-0.375-4.125,1.136-4.25s1.427-1.188-0.698-1.375s-2.875-0.688-1.641-2.063c1.881-2.096,3.037-1.667,1.871-3.833
	s0.833-3.167-2.333-3.333c-1.75-0.092-1.564-3.033-1.049-5.647c-0.917-0.239-2.356-1.583-4.16-2.936c-3-2.25-6.125-0.625-6.25,1.875
	s-5.125,2-4.5-2.25s-6.125-1.125-9,0.25s-5.625,4.125-6.125,1.25s-3.625-1.5-4.25-0.25s-3.25,1.25-5.625,1.375
	s-3.189,3.132-8.5,4.25c-2.375,0.5-3.5,1-3.875,4s-2.25,1.75-1.5,6.625s-0.5,5.625,4.25,4.25s3.75,2.042,10.083-2.125
	c8.282-5.448,4.333,0.5,2.333,1.667s-2.708,1.024,4,2.333c6.833,1.333,6.333,3.667,0.167,2.833s-8.833,1-9.833-1.333
	s-3.5,0.333-3.333,3s2.207,0.496,2.5,3.333c0.5,4.833,1.333-2.5,5-1s7.667,4.833,2,5.833s-10,3.667-14.667,4.167
	s-1.833,3.167,4,4.333s8.75,2.833,9.75,7.583s-1.998,8.554,5,8.25c5.75-0.25,2.251-4.836,5-4.75c2,0.063-1-6.188,2.75,0
	c3.683,6.077,4.125,0.375,4.625,0.125s0.139-4.846,3.708,2.292c1.5,3,1.331,3.667,6.833,3.667c4.333,0,0.167,1.895,7.167,2
	c2.248,0.034,2.205,0.291,3.295,3.321C67.487,216.956,72.344,218.175,73.478,215.285z"/>
<path id="CôtesdArmor" fill="#eeeeee" stroke="#000000" stroke-width="0.25" stroke-miterlimit="10" d="M78.54,197.285
	c3.75,1.625,6.5,2.375,8.625,0s3-2.375,5.625-0.375s4.154-1.838,9.125,4.375c1.5,1.875,2.75-1.375,6,1.375s4.875,2,6-1
	s4.125-3,5.5-0.875s5.341,3.926,7.5,0c1.375-2.5,5.625-9.875,10.375-7.75s4.25-4.25,4-8.125c-0.237-3.675,3.567-9.09-1.584-10.332
	c-0.206,1.567-1.228,2.319-2.041-1.418c-1.25-5.75-2.625-5.5-4.25-4.875s-5.25,6.375-5.375,0.875s-6.625-3.25-9.75-0.75
	s-10.125,11.375-14.875,1.875s-5.5-6.875-5.5-11.125c0-2.625-4.25-0.375-4-4.625s-2.5,0.625-2.125-2.375s-2.658-2.664-4.033-0.664
	s-2.507-2.357-4.717,0.039c-0.893,0.968-2.75-0.5-3.875,0.25s-3.375,2.75-4.125,0.25s-3.125-1.875-5.125,1.25s-1.625,2.5,0,4.125
	s-2.375,0.5-2.625,3.375c-0.1,1.146-0.481,1.47-1.09,1.311c-0.515,2.614-0.701,5.555,1.049,5.647
	c3.167,0.167,1.167,1.167,2.333,3.333s0.01,1.737-1.871,3.833c-1.234,1.375-0.484,1.875,1.641,2.063s2.209,1.25,0.698,1.375
	s-4.028,1.698-1.136,4.25c0.854,0.753,1.408,7.875-0.863,11.686c2.262,0.457,4.863,1.142,5.728,2.001
	C75.415,197.91,74.79,195.66,78.54,197.285z"/>
<path id="Morbihan" fill="#eeeeee" stroke="#000000" stroke-width="0.25" stroke-miterlimit="10" d="M116.415,247.577
	c2,2.333,5.667-0.667,7.333-2s7-0.667,7.5-5.333s-1.667-8.667,0-10.167s-1.895-2.141,2.667-4.333c2.106-1.012,2.167-3.833,0-3.833
	s-3.5-2.083-1.667-3.583s-2.667-6.917-6.083-6.417s-3-1.667-0.833-3.833c1.525-1.525,2.055-4.904,1.568-7.268
	c-2.162,3.893-6.113,2.097-7.485-0.023c-1.375-2.125-4.375-2.125-5.5,0.875s-2.75,3.75-6,1s-4.5,0.5-6-1.375
	c-4.971-6.213-6.5-2.375-9.125-4.375s-3.5-2-5.625,0.375s-4.875,1.625-8.625,0s-3.125,0.625-4.76-1
	c-0.865-0.859-3.465-1.544-5.728-2.001c-0.556,0.933-1.279,1.67-2.211,2.064c-4.739,2-6.614,2.063-4.864,6.375
	s2.125,5.813,6.563,6.688s7.188,2.688,5.938,5.875c-1.133,2.89-5.99,1.67-6.434,10.779c0.112,0.311,0.231,0.641,0.371,1.013
	c1.5,4,3,3,5.333,3.333s0.238-7.006,8.667,5.167c1.5,2.167,0.874,8.067,3.167,2.5c1.167-2.833,6.833,1.333,10.333-1.667
	s5.667-2,6,0.333s4.465,0.906-0.333,4.333c-2.333,1.667-10-5.333-6.5,0.833s8.666,3.5,9.833,2.5c1.164-0.998,8.626-3.152,8.167,3.62
	C113.757,247.094,115.52,246.533,116.415,247.577z"/>
<path id="ÎlleetVilaine" fill="#eeeeee" stroke="#000000" stroke-width="0.25" stroke-miterlimit="10" d="M140.249,232.91
	c8.333,0.333,11.489,0.496,12.667-2.5c1.833-4.667,7.5-2.334,7.5-5.667s3,0.833,7,2.667s4-1.007,4.5-3.92s3.333-8.414,6.5-8.58
	s4-3.833,2-7.333s-1-10.5-1-12.5s2.997-4.333,2.082-6.833s-0.248-9-2.915-9.333s-5-3-6.667,0s-2.5-0.333-4.167,3.5
	c-1.556,3.58-7.905-3.014-8.062-12.043c-3.308,0.482-4.818,0.045-9.521,0.793c-5.5,0.875-7.042-2.029-5-5
	c1.375-2-6.375-1-6.625,0.375s-0.875,3.25,0.625,5.375c0.525,0.744,0.651,1.824,0.541,2.668c5.151,1.242,1.347,6.657,1.584,10.332
	c0.25,3.875,0.75,10.25-4,8.125s-9,5.25-10.375,7.75c-0.005,0.008-0.01,0.015-0.015,0.023c0.486,2.364-0.043,5.743-1.568,7.268
	c-2.167,2.167-2.583,4.333,0.833,3.833s7.917,4.917,6.083,6.417s-0.5,3.583,1.667,3.583s2.106,2.821,0,3.833
	c-4.562,2.192-1,2.833-2.667,4.333c-1.232,1.109-0.37,3.587-0.039,6.688C132.813,234.841,135.633,232.726,140.249,232.91z"/>
<path id="Manche" fill="#eeeeee" stroke="#000000" stroke-width="0.25" stroke-miterlimit="10" d="M194.915,171.66
	c0.625-5.125-5.375-9.75-8.5-9.75s-3.125,0-4.744-1.75c-4.02-4.344-2.506-4,0-5.125s2.369-1.375,1.119-3.875s0.875-1.625,3.875-2
	s5.75-5.875,3.811-9.375s-1.311-4.375-0.436-5.5s0.5-4.25-1.75-2.375s-6.542-1.667-7.708-4.5c-0.668-1.623,0.522-4.555,1.662-6.767
	c-2.6,1.178-4.022,1.749-4.162-2.567c-0.167-5.167-5.667-4.833-5.167-10s5.958-3.387,1.333-9.167c-3.333-4.167-9.833,3.167-14.5,1
	s-8.206,0.078-11-3.833c-1.667-2.333-4,0.321-4,1.5c0,2.667,3.167,0.667,4,4.5s1.167,2.334-0.667,4.667s0.5,2.833,1,7.667
	s2.333,3.167,5.167,9.833s5.667,7.666,3.833,12.333s2.5,5.334,0.667,12.167s0.123,14.886,5.5,19.333
	c2.493,2.062,2.042,0.958-2.708,1.958c-0.688,0.145-1.293,0.25-1.854,0.332c0.157,9.03,6.506,15.623,8.062,12.043
	c1.667-3.833,2.5-0.5,4.167-3.5s4-0.333,6.667,0c0.89,0.111,1.405,0.917,1.735,2.024
	C192.774,179.781,194.334,176.423,194.915,171.66z"/>
<path id="Calvados" fill="#eeeeee" stroke="#000000" stroke-width="0.25" stroke-miterlimit="10" d="M196.749,161.577
	c1.667-3.5,6.415-0.17,9.833-3c4.833-4,3-0.667,10.333,0s3.667,2.834,9.167,0.167s7.5-7.5,9.333-5.833s2.333,1.816,4.333-0.342
	s9.329,1.344,9.333-4.158c0.003-3.5-2.334-0.5-2.667-3.5s5.015-2.008,0.375-10.625c-1.75-3.25-4.21-2.007-0.5-4.125
	c1.427-0.814-1.625-0.583-1.792-2.75c-0.147-1.913-1.003-4.155-0.457-7.35c-4.305,0.474-8.249-1.805-10.793,3.017
	c-3.167,6-8.167,9-18,4s-7.833-2.667-16.167-4.333s-11.5-4.333-15.167-2.833c-0.604,0.247-1.158,0.501-1.671,0.733
	c-1.139,2.212-2.33,5.144-1.662,6.767c1.167,2.833,5.458,6.375,7.708,4.5s2.625,1.25,1.75,2.375s-1.504,2,0.436,5.5
	s-0.811,9-3.811,9.375s-5.125-0.5-3.875,2s1.387,2.75-1.119,3.875s-4.02,0.781,0,5.125c1.619,1.75,1.619,1.75,4.744,1.75
	c1.37,0,3.292,0.889,4.967,2.32C193.659,163.914,195.979,163.191,196.749,161.577z"/>
<path id="LoireAtlantique" fill="#eeeeee" stroke="#000000" stroke-width="0.25" stroke-miterlimit="10" d="M137.165,281.785
	c2.375,3.625,6.996,0.789,8.375,5.125c0.875,2.75,3.625,2.125,5.875,2.75s2.506,0.625,4.128-0.875s-1.003-1.5-1.003-5.375
	s0.314-4,1.532-4.375s0.718,7,2.968,7.125s3.875-1.5,4-3.875s-4.5-3.375,0.75-3.375s4.625-3.625,5.625-5.625
	s2.507-1.976,2.625-6.875c0.075-3.125-5.625-1.75-5.625-5.375s4.25-4.375,10.5-4.75s5.847-0.998,5.875-4.375
	c0.042-5.125-8.25-2.375-8.25-6.875s4.75-2.75,1.25-7.125c-2.825-3.531-5.402-5.979-5.767-9.988
	c-0.599,0.156-1.426,0.03-2.608-0.512c-4-1.833-7-6-7-2.667s-5.667,1-7.5,5.667c-1.177,2.996-4.333,2.833-12.667,2.5
	c-4.615-0.185-7.436,1.931-9.039,3.855c0.117,1.093,0.169,2.262,0.039,3.478c-0.5,4.667-5.833,4-7.5,5.333s-5.333,4.333-7.333,2
	c-0.896-1.044-2.658-0.483-4.333,0.453c-0.001,0.017,0.001,0.03,0,0.047c-0.5,6.833-1.833,15,3.333,13s3.833,4.667,7.5,1
	s6.667-6.666,13-2.833s5.833,6.667,1.333,3.667s-12.184-4.159-11.833,2.5c0.167,3.167-7,6.167,0.167,6.833
	c4.875,0.453,6.89,3.297,6.583,6.486C134.085,279.254,136.108,280.171,137.165,281.785z"/>
<path id="PyrénéesAtlantiques" fill="#eeeeee" stroke="#000000" stroke-width="0.25" stroke-miterlimit="10" d="M204.165,553.285
	c-0.053-3,5-0.75,5-3s-2.25-2.875-0.125-4.375s6-4.875,6.375-8.125s3.75-4.375,3.75-6.875s-0.875-2.375-1.75-3.5
	c-3.548-4.562,0.125-4.875,0-6.625s-2.125-2.25-2.75-4.5s-4.5-2.25-7.875-1.875s0.75,1.25-5.25,1.128s-6.5-1.253-9,0
	s-3.5,2.122-6.875,0c-5.168-3.249-5.75,0-8.25,0c-10.007,0-6.125,2.497-9.5,2.372c-6.872-0.255-3.875,1.625-6.25,1.5s1.5-3,0-4
	c-3.586-2.391-1.5,2.375-8.125,2.5c-3.498,0.066-7.021-1.68-9.576-3.342c-2.625,4.608-6.282,9.138-9.965,10.093
	c-6.75,1.75-8.75,0.5-6.75,1.75c0,0,4.333,0.333,5,3.5s4.5-0.834,5,3.333s4.864-3.069,7.167,0c1.5,2,7.18-2.916,4.833,6
	c-0.833,3.167-7.834,6-3.167,9.667s5.334,0.501,5.167-1.833s5.339-5.29,3.667,1c-0.667,2.507,3.114,0.271,7,3.832
	c2,1.833,2.565-1.251,6.5,3.5c2,2.415,2,0.833,7.167,1.333s3.667-0.332,7.167,4.834s1.983-1.036,5.167,7
	c1.5,3.786,3.667,0.832,3.5-0.834s1.5-4,3.5-0.333s3.167,0.499,4.667-1.667c0.642-0.927,1.131-1.575,1.638-1.758
	C202.083,558.342,204.272,559.396,204.165,553.285z"/>
<path id="HautesPyrénées" fill="#eeeeee" stroke="#000000" stroke-width="0.25" stroke-miterlimit="10" d="M246.082,562.243
	c0.5-2.5,3.167-3,2.667-6s-5.833,0-4-3.666c0.873-1.744,0.833-1.834-2-4.5s-2.5-3.167,1.833-7.334c6.885-6.621,1.5-8-4.667-8.833
	s-4.167-3.167-8-1.833s-5.5-2.334-5.374-4.834s-0.626-6.5-4.793-7s0-5.17-5.167-5.166c-1.275,0.001-2.302,0.839-3.079,1.838
	c0.576,0.316,0.993,0.758,1.163,1.37c0.625,2.25,2.625,2.75,2.75,4.5s-3.548,2.063,0,6.625c0.875,1.125,1.75,1,1.75,3.5
	s-3.375,3.625-3.75,6.875s-4.25,6.625-6.375,8.125s0.125,2.125,0.125,4.375s-5.053,0-5,3c0.107,6.11-2.083,5.057-2.945,10.7
	c0.677-0.243,1.385,0.351,2.529,2.258c2,3.334,3.434-0.88,6.333,5.334c1.167,2.5,3.166,3.833,8.333,3.833s6.75-4.251,9.667-1.333
	c1.333,1.333,0.5,3.334,4.167,3s1.211-3.687,5,0.037c1.728,1.698,1.765-1.025,3.314-1.185c0.111-3.531,0.258-8.089,0.353-10.353
	C241.082,561.577,245.582,564.743,246.082,562.243z"/>
<path id="Landes" fill="#eeeeee" stroke="#000000" stroke-width="0.25" stroke-miterlimit="10" d="M208.415,502.576
	c-0.167-4.167,3.667-4.5,1.167-6.666s-1.833-5.834,1.5-6.334s4.833,1.5,5-0.333s3.167-2.167,4,1.5s3-0.667,3-3.667
	s0.167-5.333,1.667-6.333s4-3.167-2.167-3.167s-8.5-2.333-8.833-5.075s-3.833-6.924-3.5-3.258s-0.5,3.334-5.5,3.167
	s-4.167-8.833-7.167-9.167s-1-3.333-4-3.333s-2.833-1.167-3.5-3.272c-1.497-4.726-4.833-1.895-8.667-0.374s-4.833-2.187-6.667-0.687
	s-4.333,0.5-3-2.583s-0.667-5.917-5.333-2.584c-2.535,1.811-5.751,3.175-8.167,4.047c0.09,4.238-0.764,11.077-3.083,19.578
	c-2.625,9.625-3.125,16.625-5.625,21.75s-1.375,4.875-1.75,9.125c-0.17,1.931-1.642,5.821-3.826,9.658
	c2.556,1.662,6.078,3.408,9.576,3.342c6.625-0.125,4.539-4.891,8.125-2.5c1.5,1-2.375,3.875,0,4s-0.622-1.755,6.25-1.5
	c3.375,0.125-0.507-2.372,9.5-2.372c2.5,0,3.082-3.249,8.25,0c3.375,2.122,4.375,1.253,6.875,0s3-0.122,9,0
	c5.893,0.12,2.024-0.722,5.082-1.107C204.054,506.698,208.567,506.373,208.415,502.576z"/>
<path id="Gironde" fill="#eeeeee" stroke="#000000" stroke-width="0.25" stroke-miterlimit="10" d="M216.915,465.076
	c-0.167-2.334,0.833-2.333,2.25-2.5s3.083-1.666,2.25-4.833s3.833-10.666,6.5-13s5-3.166,1.167-3s-3.833-3.833,0.667-4.666
	s3.667-1.834,4-4.5s2.5-3.167,1.167-4.5s-1.833,2.838-9.888,2.833c-4.557-0.003-2.779-2.667-2.779-4.833s-1.667-3.834,0.833-5.834
	s2.167-3.666,1.333-7.166s-3.167-2.5-7.667-1.334s-6.333-1.166-8.833-3.666c-5.256-5.256-5.667,0.833-6.167-6.5
	c-0.358-5.25-3.833,0-5.667-4.5c-0.863-2.119-6.194-1.817-8.842-1.528c0.528,2.365,1.1,5.875,1.926,11.861
	c0.5,3.625,0.75,6.75,5.125,8.125s2.125,3.25-2.75,1.25s-5.032-8.131-5.5-15.25c-0.625-9.5-14.5-16.625-14.25-21
	s-3.25-0.875-4.125,2.75s-0.75,17.375-3.875,27.625s-3,18.375-4,25.375s0.875,3.75,2.875-1.75s10.586,4.748,5.375,5.75
	c-3.25,0.625-3.75-3.75-6.25,3.375s-4.351,1.509-3.625,9.25c0.044,0.467,0.071,0.986,0.083,1.547
	c2.416-0.872,5.633-2.236,8.167-4.047c4.667-3.333,6.667-0.499,5.333,2.584s1.167,4.083,3,2.583s2.833,2.207,6.667,0.687
	s7.169-4.352,8.667,0.374c0.667,2.105,0.5,3.272,3.5,3.272s1,2.999,4,3.333s2.167,9,7.167,9.167s5.833,0.499,5.5-3.167
	c-0.292-3.206,2.349-0.41,3.239,2.176C219.436,468.138,217.072,467.271,216.915,465.076z"/>
<path id="PyrénéesOrientales" fill="#eeeeee" stroke="#000000" stroke-width="0.25" stroke-miterlimit="10" d="M355.165,565.16
	c0.125,2.875-16.5,1.75-20.25,1.625s1.875,6.125-1.25,8.375c-1.728,1.244-5.625,3.625-12,3.625s-3.125,2.125-6.25,2.125
	c-5.126,0-3.625,4.125-7.75,3.875c-1.542-0.094-2.684,0.055-3.541,0.309c0.301,1.4,0.464,2.956,1.625,4.65
	c3.083,4.5,9.583,3.25,9.75,7.083s2.75,3.251,2.75,3.251c3.833-0.834,1.5-4.166,6.833-4.5s11.511,1.022,14.833,5.333
	c1.833,2.379,3.5,1.834,3.833,0.667s1.946-3.98,3.542,0.207c1,2.625,3.625,0.5,2-2.25c-1.621-2.744,2.125-3,4.375-2.625
	s2.5-1.875,5.75-3.25s7.5-2.75,11,2.75s5.5,1.25,2.5-3.5s-6.5-6.165-6.5-19.666c0-3.167,1.613-7.877-2.667-3.167
	c-1.667,1.834-2.333-1.332,0.5-3.666c0.737-0.607,1.28-1.216,1.686-1.855C358.492,558.566,355.052,562.57,355.165,565.16z"/>
<path id="Ariège" fill="#eeeeee" stroke="#000000" stroke-width="0.25" stroke-miterlimit="10" d="M317.915,572.91
	c-2.125,1.321-4.125-1-6.125-3.625s-3.5-3.875,1.375-3.75s2.875-0.875,3.125-5.75s1.64-12.829-4.625-14
	c-13.375-2.5-4.979-9.474-11.75-7.25c-2.581,0.848-3.375,0.637-5.25-0.557s0.125,2.557-2.75,2.682s-3.125-1.125-4.5-3.875
	s-6.375-2.375-3.625,1s2.5,4.125-0.813,4.125s-3.688,1.676-1.563,3.463s0.75,6.287-3.125,2.287s-10-0.25-11.25,3.25
	s4.375,4.5-1,6.875c-4.958,2.191-7.146,2.899-4.219,11.336c2.232,2.277,0.726,2.245,5.594,1.789c5.333-0.5,5.667,1.5,5.167,3.5
	s1.506,1.153,6.833,0.833c2.781-0.167,5.404-1.806,6.833,0.751c3.931,7.031,7,2.833,10.083,3.5c6.417,1.389,7.294,3.281,7.792,5.6
	c0.857-0.254,1.999-0.402,3.541-0.309c4.125,0.25,2.624-3.875,7.75-3.875c3.125,0-0.125-2.125,6.25-2.125
	c1.513,0,2.881-0.137,4.119-0.358C324.058,575.191,321.06,570.954,317.915,572.91z"/>
<path id="Aude" fill="#eeeeee" stroke="#000000" stroke-width="0.25" stroke-miterlimit="10" d="M363.749,534.41
	c-4.667-1.667-0.917-4-3.333-3.833c-1.588,0.109,0.333,2.916-1.25,2.666c-2.634-0.416,0,4-3.583,4.834
	c-1.561,0.363-2,2.333-3.307-0.334c-2.604-5.312-2.526,0.5-4.86-1.75s-3.667-1.75-2.25-5.666s1.583-3.084-5.917-4
	s-10.667-4.334-10.417,0.5s-0.75,1.416-5.333,1.5c-5.666,0.104-3.75-3.25-7.833-1s-3.5-3.334-6.5-0.584
	c-2.053,1.882,0.083,3.75-2.5,5.25c-1.635,0.949-3.469,3.967-4.638,6.118c2.657,0.155-1.773,5.541,9.638,7.674
	c6.265,1.171,4.875,9.125,4.625,14s1.75,5.875-3.125,5.75s-3.375,1.125-1.375,3.75s4,4.946,6.125,3.625
	c3.145-1.956,6.143,2.281,7.869,5.517c3.979-0.711,6.563-2.317,7.881-3.267c3.125-2.25-2.5-8.5,1.25-8.375s20.375,1.25,20.25-1.625
	c-0.113-2.59,3.327-6.594,10.77-0.604c1.155-1.818,1.191-3.896,1.314-6.979c0.101-2.534,2.778-9.072,7.277-13.81
	C372.29,539.225,367.487,535.746,363.749,534.41z"/>
<path id="Gers" fill="#eeeeee" stroke="#000000" stroke-width="0.25" stroke-miterlimit="10" d="M252.915,531.535
	c1.5-3.375,3.5-4.25,8.5-4.125s5.625,4.125,7.25,0.875s-0.202-9.893,6.625-11c4.625-0.75,1.625-2-1.5-5.875s-8.75-8.25-9.875-10
	s1.5-5.5-2.125-7.375s-6.875-0.875-2.75-5.125s-0.75-5.867-3.875-4.746s-1.287-1.713-6.354-2.254c-7.021-0.75-5.271,3.625-10.021,4
	s-6.875-1.875-9.25,0.625c-1.711,1.801-3.875-0.613-6.447-0.563c-0.008,0.356-0.011,0.726-0.011,1.104c0,3-2.167,7.334-3,3.667
	s-3.833-3.333-4-1.5s-1.667-0.167-5,0.333s-4,4.168-1.5,6.334s-1.334,2.499-1.167,6.666c0.152,3.797-4.361,4.122-1.793,11.854
	c0.056-0.007,0.108-0.014,0.168-0.021c2.457-0.273,5.172-0.343,6.712,0.505c0.777-0.999,1.804-1.837,3.079-1.838
	c5.167-0.004,1,4.666,5.167,5.166s4.919,4.5,4.793,7s1.54,6.168,5.374,4.834s1.833,1,8,1.833c4.186,0.565,8.006,1.385,7.879,3.921
	C249.81,534.81,252.125,533.313,252.915,531.535z"/>
<path id="HauteGaronne" fill="#eeeeee" stroke="#000000" stroke-width="0.25" stroke-miterlimit="10" d="M312.79,521.598
	c-2.25-4-5.5-4.313-8.619-6.875s-0.568-1.375-0.131-2.688c1.026-3.079-4.25-9.25-6.75-13.375s-3.125-6.875-6.125-3.5
	s-2.5-0.875-4.75,1.5s1.875,3-3.75,6c-3.946,2.104-2.25,0.125-3.875-1.377c-2.853-2.637-3.625,0.127-8.875,0.002
	c-2.683-0.063-3.469,1.309-3.599,2.666c2.23,2.099,5.4,4.887,7.474,7.459c3.125,3.875,6.125,5.125,1.5,5.875
	c-6.827,1.107-5,7.75-6.625,11s-2.25-0.75-7.25-0.875s-7,0.75-8.5,4.125c-0.791,1.778-3.105,3.274-5.121,4.296
	c-0.06,1.201-1,2.785-3.212,4.912c-4.333,4.167-4.666,4.668-1.833,7.334s2.873,2.756,2,4.5c-1.833,3.666,3.5,0.666,4,3.666
	s-2.167,3.5-2.667,6s-5-0.666-5.167,3.334c-0.094,2.264-0.242,6.821-0.353,10.353c0.393-0.041,0.879,0.076,1.52,0.48
	c3.167,2,12.167-1,7.667-3s1.802-11.553,4.833-6.5c1.5,2.5,3.167-1.5,6.5,1.5c0.291,0.262,0.526,0.493,0.739,0.711
	c-2.928-8.437-0.74-9.145,4.219-11.336c5.375-2.375-0.25-3.375,1-6.875s7.375-7.25,11.25-3.25s5.25-0.5,3.125-2.287
	s-1.75-3.463,1.563-3.463s3.563-0.75,0.813-4.125s2.25-3.75,3.625-1s1.625,4,4.5,3.875s0.875-3.875,2.75-2.682
	s2.669,1.404,5.25,0.557c0.994-0.326,1.655-0.45,2.112-0.424c1.169-2.151,3.003-5.169,4.638-6.118c2.583-1.5,0.447-3.368,2.5-5.25
	c3-2.75,2.417,2.834,6.5,0.584c1.779-0.98,2.419-0.896,3.044-0.499C320.116,519.697,314.84,525.243,312.79,521.598z"/>
<path id="Vendée" fill="#eeeeee" stroke="#000000" stroke-width="0.25" stroke-miterlimit="10" d="M180.165,326.66
	c0.5,4.625,5.5-1,7.625,2.375c1.074,1.706,6.125,0.125,10.25-3.625s-3.25-1.5-2.125-5.25s-0.375-11.375-1.5-14.25
	s1.125-1.5-1.25-5.375s1-1.5-0.875-6s-4,0-4.625-5.375s-4-7.75-7.25-8.125s-5.125,2.25-6.5-2.437c-0.68-2.317-2.979-3.12-5.13-3.342
	c-0.488,1.791-1.231,3.653-4.995,3.653c-5.25,0-0.625,1-0.75,3.375s-1.75,4-4,3.875s-1.75-7.5-2.968-7.125s-1.532,0.5-1.532,4.375
	s2.625,3.875,1.003,5.375s-1.878,1.5-4.128,0.875s-5,0-5.875-2.75c-1.379-4.336-6-1.5-8.375-5.125c-1.057-1.614-3.08-2.531-5-3.056
	c-0.144,1.499-0.797,3.074-1.917,4.514c-3.5,4.5-4.333,6.833,1.5,13.5s6.5,9.333,7.167,13.667s4.5,4.334,7,7.834
	s8.333,0.666,8.833,5.333s4.56-0.589,8.5,4.666c2,2.667,3.833,2.5,5.667-0.5c1.006-1.646,1.861-0.229,2.042,1.798
	C176.131,325.976,179.709,322.443,180.165,326.66z"/>
<g id="CharenteMaritime">
	<path fill="#eeeeee" stroke="#000000" stroke-width="0.25" stroke-miterlimit="10" d="M150.415,333.16c0,0,1.625-4.375,5.5-1.75
		s1.125,3.75-1,4.125S149.666,334.445,150.415,333.16z"/>
	<path fill="#eeeeee" stroke="#000000" stroke-width="0.25" stroke-miterlimit="10" d="M159.79,334.91c0,0,6.75,2.5,5,6.375
		s-3.25-0.875-5-2.625S157.415,335.66,159.79,334.91z"/>
	<path fill="#eeeeee" stroke="#000000" stroke-width="0.25" stroke-miterlimit="10" d="M157.29,347.535
		c0.038,0.499-0.375,6.625,2.625,8.25s2.75,1.75,2.875,5.375s4-0.625,3.75-5.375s-0.25-5.625-2.625-6
		S156.947,343.015,157.29,347.535z"/>
	<path fill="#eeeeee" stroke="#000000" stroke-width="0.25" stroke-miterlimit="10" d="M221.249,403.411c-1.5-3-5-5.667-7.167-5.5
		s-6.167,2.166-5.667-2s2.5-4.167,2.5-11s-7.686-7.834-7.686-11.334c0-8.169,1.019-6,2.686-7.5c3.768-3.392,10.5,2.834,10.5-3.557
		s3-9.776-1-14.443s-12.333-2.166-13.167-5.311s-4.333-0.522-9.333-5.189c-2.385-2.226-3.359-5.28-3.734-7.872
		c-0.645-0.047-1.134-0.262-1.391-0.67c-2.125-3.375-7.125,2.25-7.625-2.375c-0.456-4.217-4.034-0.685-9.208,2.881
		c0.149,1.666-0.156,3.741-1.208,4.869c-2.333,2.5-2.6,2.219,2,11c1.833,3.5-1.167,2.332-1.333,5.666s1.787,1.937,0.625,6.584
		c-0.5,2-2.5,0.125-2.125,3.5s-5.125,0.875-5,5.875s3.625,1,7.625,6.625s9.5,6.5,12.25,13c1.747,4.129,2.53,4.768,3.449,8.889
		c2.648-0.289,7.979-0.591,8.842,1.528c1.833,4.5,5.309-0.75,5.667,4.5c0.5,7.333,0.911,1.244,6.167,6.5
		c2.5,2.5,4.333,4.832,8.833,3.666c1.713-0.444,3.11-0.861,4.231-1.019C222.058,408.378,222.25,405.414,221.249,403.411z"/>
</g>
<path id="LotetGaronne" fill="#eeeeee" stroke="#000000" stroke-width="0.25" stroke-miterlimit="10" d="M262.29,476.41
	c-0.125-3.5,4.875-5.625,1.375-8.5s0.875-7.25,3.75-5.25s6.5-1.25,4.375-4.375s-3.5-8.25-0.5-8s4.875-3.375,2-3.125
	s-5.25-5.25-8.75-1.875c-2.052,1.979-2.875,1.5-2.25-1.375s-3.5-3.625-4.75-2.25s-4.25,0.25-4.375-1s-1.5-2.75-2.375-0.25
	s-4.25,0.5-7.25,2.125s-4.75,1.125-5.375-3c-0.323-2.132-2.814-3.157-5.149-3.655c-0.504,0.492-1.444,0.859-3.268,1.197
	c-4.5,0.833-4.5,4.832-0.667,4.666s1.5,0.666-1.167,3s-7.333,9.833-6.5,13s-0.833,4.666-2.25,4.833s-2.417,0.166-2.25,2.5
	c0.157,2.194,2.521,3.062-3.428,6.343c0.127,0.371,0.219,0.738,0.261,1.082c0.333,2.742,2.667,5.075,8.833,5.075
	s3.667,2.167,2.167,3.167c-1.31,0.874-1.603,2.765-1.656,5.229c2.572-0.05,4.736,2.364,6.447,0.563c2.375-2.5,4.5-0.25,9.25-0.625
	s3-4.75,10.021-4c5.067,0.541,3.229,3.375,6.354,2.254c0.271-0.098,0.559-0.167,0.85-0.223
	C257.318,475.887,262.406,479.671,262.29,476.41z"/>
<path id="TarnetGaronne" fill="#eeeeee" stroke="#000000" stroke-width="0.25" stroke-miterlimit="10" d="M297.103,490.598
	c7.327-5.861,3.063-4.25,3.125-6.375s3.688-2.146,9.188-4.313s4.5-2.5,4.833-7.349s-1.5-1.485-1.667-4.651s-0.333-5.167-3.167-2.5
	s-5.5-2.334-6.333,1.325s-4.833-0.159-5.5,2.175s-0.167,4.794-2,2.833c-4.667-4.993-5.167,0-8.667,0.758s-3-5.925-5.333-4.591
	s-7.667-0.5-6.863-4.5c0.431-2.146-0.983-2.561-2.388-2.487c-0.483,1.937-2.882,3.152-4.916,1.737c-2.875-2-7.25,2.375-3.75,5.25
	s-1.5,5-1.375,8.5c0.116,3.261-4.972-0.523-6.275,7.531c3.057-0.59,6.792,1.088,3.025,4.969c-4.125,4.25-0.875,3.25,2.75,5.125
	s1,5.625,2.125,7.375c0.378,0.589,1.271,1.478,2.401,2.541c0.13-1.357,0.916-2.729,3.599-2.666c5.25,0.125,6.022-2.639,8.875-0.002
	c1.625,1.502-0.071,3.481,3.875,1.377c5.625-3,1.5-3.625,3.75-6s1.75,1.875,4.75-1.5c1.933-2.174,2.881-1.799,3.979-0.159
	C295.542,489.055,295.952,491.519,297.103,490.598z"/>
<path id="Tarn" fill="#eeeeee" stroke="#000000" stroke-width="0.25" stroke-miterlimit="10" d="M349.665,518.035
	c-3.25-4,1.125-6,3.75-5s9.875-1.25,9.75-4.25s-4.125-3.375-8.75-3.375s-9.375-6.75-10.5-12.5s-6.125-14.125-11.75-14.094
	s-5.375-3.031-9.5-3.031s-4.125,3.125-5.75,1.75c-0.74-0.626-1.946-0.68-3.041-0.555c-0.407,1.113-1.471,1.753-4.459,2.93
	c-5.5,2.166-9.125,2.188-9.188,4.313s4.202,0.514-3.125,6.375c-1.151,0.921-1.56-1.543-1.959,4.403
	c0.606,0.905,1.257,2.191,2.146,3.659c2.5,4.125,7.776,10.296,6.75,13.375c-0.438,1.313-2.988,0.125,0.131,2.688
	s6.369,2.875,8.619,6.875c2.05,3.646,7.326-1.9,5.919,5.23c0.81,0.516,1.592,1.558,4.79,1.499c4.583-0.084,5.583,3.334,5.333-1.5
	s2.917-1.416,10.417-0.5c3.255,0.397,5.063,0.467,5.955,0.736C352.258,525.478,352.57,521.61,349.665,518.035z"/>
<path id="Hérault" fill="#eeeeee" stroke="#000000" stroke-width="0.25" stroke-miterlimit="10" d="M424.79,509.785
	c0.125-5.25-7.25-8.125-11.25-11.875s-3-1.875-5.125-1.5c-4.061,0.717,0-7.5-5.25-6.875c-4.003,0.477-3.375,3.875-5.875,3.882
	s-0.25,3.993-3,4.243s-0.375-2.25-3-2.25s-0.875,1.875-2.625,2s-0.677-1.712-1.25-2.875c-1.019-2.067-9-1.625-8.875,4.375
	s-9.562-6.875-8.75,4.25c0.376,5.151-3.534,5.702-6.661,5.343c0.013,0.094,0.032,0.183,0.036,0.282c0.125,3-7.125,5.25-9.75,4.25
	s-7,1-3.75,5c2.905,3.575,2.593,7.442-4.462,9.028c1.162,0.353,0.764,1.048-0.038,3.264c-1.417,3.916-0.083,3.416,2.25,5.666
	s2.256-3.562,4.86,1.75c1.307,2.667,1.746,0.697,3.307,0.334c3.583-0.834,0.949-5.25,3.583-4.834c1.583,0.25-0.338-2.557,1.25-2.666
	c2.417-0.167-1.333,2.166,3.333,3.833c3.739,1.336,8.541,4.814,10.777,9.357c2.898-3.051,6.55-5.357,10.765-5.357
	c6.375,0,5.971-2.604,7.958-5.999c4-6.834,7.472-2.167,13.5-9c1.707-1.935,6.894-5.239,10.236-4.723
	C419.704,515.378,424.684,514.25,424.79,509.785z"/>
<path id="BouchesduRhône" fill="#eeeeee" stroke="#000000" stroke-width="0.25" stroke-miterlimit="10" d="M499.665,528.535
	c0.5-2.75-3.5-1.625,2.875-3.25s-2.125-0.5-2.375-5s1.375-4.125-1.375-5.375c-3.535-1.606,0.958-3.166,3.458-6.333
	c5.101-6.462-2-2.5-10.333-1.5s-4.333-4.166-15-4s-9.75-7.667-17.333-9.667c-11.721-3.091-12.667,4-12.667,10.5
	s-7.5,0.833-8.833,6.167s1.667,4.666-3.333,6c-3.216,0.858-5.254,5.086-6.303,7.999c4.877-0.299,10.797-1.084,14.803-0.999
	c7.833,0.167,4.667,2.5,1.167,5s4.667,3.333,10.333,4.333s6.333-1.5,3.833-2.833s-3.833-0.834-0.667-4.334s6.5,4.834,6.5,4.834
	c0.333,3,7,4.666,10.833,0.833s8.167,4.334,5.833,6.667s-0.5,2.333,7.333,2.833c3.88,0.248,7.43,0.864,10.048,1.949
	c0.231-4.325,2.089-4.431,3.952-7.949C504.665,530.16,499.165,531.285,499.665,528.535z"/>
<path id="Gard" fill="#eeeeee" stroke="#000000" stroke-width="0.25" stroke-miterlimit="10" d="M454.29,483.535
	c-2.375-3.125-3.5-1.125-4.125-6.375s-3.5-7.5-7.375-10.5s-5.125-5.75-5.25-2s-3.375,2.875-4.25,1.25s-4-4-3.75,0.25
	s-0.875,3.625-4.749,0.75c-6.082-4.515-3.001-1-5.251-1.25s-1.75-3.875-1.75-5.5c0-6.185-4-1.25-6-0.625s-3.625,0.5-1.125,2.5
	s2,5.75,1.75,10.5s-1.375,5.875-4.5,5.875c-6.281,0-6.125-3.253-9.25-3.25c-1.754,0.002-0.881,1.623-1.125,3.25
	c-0.369,2.463-6.375,3.125-9.252,0.125s-6.123-3.875-5.873,0s-2.252,0.5-2.25,3c0.003,4.002,6,2,7.5,4.5s0.125,4.25-2.375,4.625
	c-1.236,0.186-1.432,1.502-1.315,2.786c1.607-0.129,3.046,0.289,3.44,1.089c0.573,1.163-0.5,3,1.25,2.875s0-2,2.625-2
	s0.25,2.5,3,2.25s0.5-4.236,3-4.243s1.872-3.405,5.875-3.882c5.25-0.625,1.189,7.592,5.25,6.875c2.125-0.375,1.125-2.25,5.125,1.5
	s11.375,6.625,11.25,11.875c-0.106,4.465-5.086,5.593-7.806,8.903c1.555,0.24,2.711,1.305,2.931,3.723
	c0.163,1.792,3.87,1.951,8.53,1.665c1.049-2.913,3.087-7.141,6.303-7.999c5-1.334,2-0.666,3.333-6s8.833,0.333,8.833-6.167
	c0-5.821,0.765-12.11,9.342-11.142C458.347,487.553,456.426,486.347,454.29,483.535z"/>
<path id="Var" fill="#eeeeee" stroke="#000000" stroke-width="0.25" stroke-miterlimit="10" d="M558.415,510.785
	c0.875-4.875-7.25-1.5-7.875-7.375s-2.5-1.625-5.875-4.75s-9.25-1.875-10.875-0.746s-3,3.871-5,1.996
	c-2.773-2.601-5.625-3.125-10,1.875s-4.125,4-7.25,1s-3.375-2.625-7.375-1.375c-2.22,0.693-2.975,2.426-3.208,3.831
	c3.103-0.65,4.248-0.408,1.292,3.336c-2.5,3.167-6.994,4.727-3.458,6.333c2.75,1.25,1.125,0.875,1.375,5.375s8.75,3.375,2.375,5
	s-2.375,0.5-2.875,3.25s5,1.625,2.75,5.875c-1.863,3.519-3.721,3.624-3.952,7.949c2.667,1.105,4.367,2.696,4.452,4.884
	c0.167,4.334,2.5,3.501,4,0.834s9.334-3,11.167-0.5s1.854-3.656,7.333-2.834c3.333,0.5,4.354,5.124,6.167-0.833
	c1.167-3.833,3.5,0.666,4.667-1.167s2.574-3.92,5.833-2.833c2,0.667,0.333,3.999,3.5-1.667s-0.166-5.5-2.333-5
	s4.333-3.833,4.333-7.333s2-2.665,5-2.999s4.666-2.439,5.333-5.387c0.167-0.736,0.449-1.397,0.833-1.982
	C557.563,514.308,557.861,513.873,558.415,510.785z"/>
<path id="AlpesMaritimes" fill="#eeeeee" stroke="#000000" stroke-width="0.25" stroke-miterlimit="10" d="M550.674,461.285
	c0.384,2.375-1.571,1.151-2.509,4.625c-3.78,13.992,2.625,16.25,7.25,19.25s2.625,4.125,0,2.125s-2.375,2.375-5.625,2.25
	s-2.875,0.125-2.75,3.128s-0.375,1.997-2.125,2.247c-0.898,0.128-1.334,1.507-1.546,2.819c0.459,0.256,0.896,0.561,1.296,0.931
	c3.375,3.125,5.25-1.125,5.875,4.75s8.75,2.5,7.875,7.375c-0.554,3.088-0.853,3.522,0.333,4.757
	c1.153-1.754,3.224-2.814,5.833-3.131c5.5-0.667-0.667-5.334,6.333-7.334s7.167-4.334,10.167-7s2.666-1,6.833-1.5
	s-6.974-4.425-0.625-9.042c4.125-3,8-9.625,5.5-12.75s2.625-7.375-2.875-6.125s-10.564,8.729-19,2.125
	c-3-2.349-0.875-1.375-5.625-3.375c-3.99-1.68-10.515-5.126-11.768-9.147C551.67,458.336,550.406,459.625,550.674,461.285z"/>
<path id="Vaucluse" fill="#eeeeee" stroke="#000000" stroke-width="0.25" stroke-miterlimit="10" d="M494.54,496.687
	c-2.25-0.099-4.25,1.599-2.375-2.151s-0.5-4.375-2.25-5.5s-2.25-3.75-0.5-5s2-2.625,0-2.625s1.625-3.25-2.5-4.375
	s-4.75-5.625-8.25-6s-7.75,1.5-8.375-1.875s0.125-2.5-5-2.75s1.75-4.875-1.25-7.375s-6.882-0.75-6.882,2.375
	c0,5.877,4.007,3.375,4.007,5.375s-2.875,0.75-4.625,3s-2.5,4-2.25-0.938s-3.375-6.063-6.625-3.813
	c-1.633,1.131-1.625,3.05-1.212,4.681c1.954,1.902,3.307,4.043,3.712,7.444c0.625,5.25,1.75,3.25,4.125,6.375
	c2.136,2.812,4.057,4.018,1.967,9.233c1,0.113,2.101,0.318,3.325,0.642c7.583,2,6.667,9.833,17.333,9.667s6.667,5,15,4
	c3.505-0.421,6.789-1.363,9.042-1.836c0.156-0.939,0.558-2.02,1.463-2.843C500.409,499.165,496.25,496.762,494.54,496.687z"/>
<path id="AlpesdeHauteProvence" fill="#eeeeee" stroke="#000000" stroke-width="0.25" stroke-miterlimit="10" d="M549.915,442.326
	c-4.417,5-4.917,2.5-6.546,5.834s-1.537,4.25-6.037,4.583s-4.75-1.25-8.5-1.333s-5.083,1.667-4.75,4.25s-0.75,3.083-4.083-1.417
	s-7.25,0.584-11.264,4.667s-0.486,2.5-0.07,5.741s-1.083,2.342-3.083,0.759s-2.417-0.5-0.676,1.5s3.384,3.25,2.009,4.25
	s-7.5-1.25-9.431,1s-1.444,3.75-2.319,2.625s-2.25-2.625-3.25,0c-0.454,1.19-1.705,2.732-2.936,4.064
	c0.162,1.247-0.836,2.561,0.436,2.561c2,0,1.75,1.375,0,2.625s-1.25,3.875,0.5,5s4.125,1.75,2.25,5.5s0.125,2.053,2.375,2.151
	c1.71,0.075,5.869,2.479,7.879,5.712c0.448-0.408,1.01-0.759,1.746-0.988c4-1.25,4.25-1.625,7.375,1.375s2.875,4,7.25-1
	s7.227-4.476,10-1.875c2,1.875,3.375-0.867,5-1.996c1.432-0.995,6.165-2.08,9.579-0.185c0.212-1.313,0.648-2.691,1.546-2.819
	c1.75-0.25,2.25,0.756,2.125-2.247s-0.5-3.253,2.75-3.128s3-4.25,5.625-2.25s4.625,0.875,0-2.125s-11.03-5.258-7.25-19.25
	c0.938-3.474,2.894-2.25,2.509-4.625c-0.269-1.66,0.996-2.949,2.848-3.022c-0.239-0.767-0.307-1.552-0.107-2.353
	c1.25-5-1.25-3.25-2.25-8s4.473-1.251,4.625-7.5c0.125-5.125,10-0.125,5.375-5.125c-0.646-0.698-1.186-1.221-1.647-1.635
	C555.748,435.155,553.014,438.818,549.915,442.326z"/>
<path id="HautesAlpes" fill="#eeeeee" stroke="#000000" stroke-width="0.25" stroke-miterlimit="10" d="M532.54,409.285
	c-0.375,2.125-0.125,3.25-2.25,3.125s-1.953,0.246-2.545-2.25c-1.214-5.115-8.58-2.75-8.08,2.25s5.875,2.75,5.854,5.25
	s1.896,0.25,1.896,3.25s1.5,4.75-1.896,4.375s-1.354,1.75-6.354,1.25s-3.75,1.125-6.375,1.375s-3.875,0.25-4.375,3.75
	s-7.625-0.875-6.875,3.625s-0.25,5-5.024,4.875s-3.226,2.5-4.226,6.25s4.226,2.25,1.5,4.884c-1.052,1.017-1.065,1.834-3.2,1.116
	c-5.17-1.738-5.925-1.25-4.55,1.75s-1.375-1.125-1.375,4.103s6.75,1.647,10.5,7.397c2.415,3.702,1.099,7.032-0.145,8.941
	c0.049,0.062,0.098,0.123,0.145,0.184c0.875,1.125,0.389-0.375,2.319-2.625s8.056,0,9.431-1s-0.269-2.25-2.009-4.25
	s-1.324-3.083,0.676-1.5s3.5,2.482,3.083-0.759s-3.944-1.658,0.07-5.741s7.931-9.167,11.264-4.667s4.416,4,4.083,1.417
	s1-4.333,4.75-4.25s4,1.666,8.5,1.333s4.407-1.249,6.037-4.583s2.13-0.834,6.546-5.834c3.099-3.508,5.833-7.171,9.603-8.676
	c-2.841-2.549-2.393-0.515-1.103-3.74c1.5-3.75-2-6.875-3.875-5.875s-10.492,1.531-10.125-5.25c0.25-4.625,1-3.375-2.75-4.625
	c-4.063-1.354-2.886-4.105-0.629-5.803C537.622,405.86,532.859,407.475,532.54,409.285z"/>
<path id="Aveyron" fill="#eeeeee" stroke="#000000" stroke-width="0.25" stroke-miterlimit="10" d="M381.29,474.535
	c-4.375-0.125-1.75-2-5.5-3.125s-1.875-8.125-2.5-12.625s-4-1.125-3.25-7.375c0.632-5.266-7.375-7.125-7.375-11.625
	c0-8.758-3-1.875-2.75-7c0.403-8.255-6.125-0.5-5.75-5.625c0.503-6.875-7.875,1.125-7.625,4.875s-1.75,4.625-4.375,9.75
	s-7.375,1.5-11.125,1.375s-1.25,5.75-7.125,5.75s-7.25,3.75-10.885,5.125s-2.449,5.542-0.449,8.376
	c0.762,1.08,0.457,2.184-0.21,3.137c0.113,0.636,0.163,1.447,0.211,2.362c0.167,3.166,2-0.197,1.667,4.651
	c-0.152,2.214-0.032,3.483-0.375,4.419c1.095-0.125,2.301-0.071,3.041,0.555c1.625,1.375,1.625-1.75,5.75-1.75
	s3.875,3.063,9.5,3.031s10.625,8.344,11.75,14.094s5.875,12.5,10.5,12.5c4.472,0,8.348,0.358,8.714,3.093
	c3.127,0.359,7.037-0.191,6.661-5.343c-0.812-11.125,8.875,1.75,8.75-4.25c-0.077-3.678,2.891-5.261,5.435-5.464
	c-0.117-1.284,0.079-2.601,1.315-2.786c2.5-0.375,3.875-2.125,2.375-4.625s-7.497-0.498-7.5-4.5c-0.002-2.5,2.5,0.875,2.25-3
	c-0.139-2.151,0.801-2.834,2.156-2.507C384.569,474.136,384.696,474.633,381.29,474.535z"/>
<path id="Lozère" fill="#eeeeee" stroke="#000000" stroke-width="0.25" stroke-miterlimit="10" d="M411.415,448.535
	c-3.25-3.5-1.625-4.5-2.125-7.125s-4.875-11.25-9.125-10.125s-0.125-2.75-3.75-2.625s-1.375,1.375-3.75,2.875
	c-6.385,4.032-5.625-1.875-7.125-6.375s-5.375-2.5-7.875-0.696s0.5,5.946-2.875,3.821s-3.625-2.125-4.625,3.25
	c-0.678,3.644-3.192,9.408-4.743,12.747c2.25,2.021,4.998,3.957,4.618,7.128c-0.75,6.25,2.625,2.875,3.25,7.375
	s-1.25,11.5,2.5,12.625s1.125,3,5.5,3.125c3.406,0.098,3.279-0.399,3.281,1.493c1.085,0.263,2.437,1.172,3.717,2.507
	c2.877,3,8.884,2.338,9.252-0.125c0.244-1.627-0.629-3.248,1.125-3.25c3.125-0.003,2.969,3.25,9.25,3.25
	c3.125,0,4.25-1.125,4.5-5.875s0.75-8.5-1.75-10.5s-0.875-1.875,1.125-2.5c0.552-0.173,1.257-0.674,1.987-1.179
	C414.053,454.43,414.003,451.322,411.415,448.535z"/>
<path id="Ardèche" fill="#eeeeee" stroke="#000000" stroke-width="0.25" stroke-miterlimit="10" d="M447.915,453.535
	c-0.375-4.5,4-7.625,4-11.86s-1.375-3.765-1.375-6.64s5.25-7.25,5.625-11s-0.5-1.75-2.25-6.875s-2.375-9.625-2.5-16.125
	s-2.875-5.875-6.75-4.5s-1.25,6.5-5.125,6.25s-3.375-0.75-4.375,3.625s-4.75,3.75-5.125,6.75s3.625,4,0,4s0,4.75-4.125,4.75
	c-2.625,0-2.125,1.25-2.5,4s-3.75,1-9.524,4.125c-3.221,1.743-5.016,5.16-5.977,7.844c0.731,1.432,1.227,2.749,1.376,3.531
	c0.5,2.625-1.125,3.625,2.125,7.125c2.588,2.787,2.638,5.895,2.362,9.821c1.917-1.323,4.013-2.674,4.013,1.804
	c0,1.625-0.5,5.25,1.75,5.5s-0.831-3.265,5.251,1.25c3.874,2.875,4.999,3.5,4.749-0.75s2.875-1.875,3.75-0.25s4.125,2.5,4.25-1.25
	s1.375-1,5.25,2c1.365,1.057,2.601,2.021,3.663,3.056c-0.413-1.631-0.421-3.55,1.212-4.681c0.729-0.505,1.475-0.829,2.193-0.989
	C449.881,459.189,448.232,457.339,447.915,453.535z"/>
<path id="Drôme" fill="#eeeeee" stroke="#000000" stroke-width="0.25" stroke-miterlimit="10" d="M484.665,426.785
	c0-6.25,2-17.5-1.625-13.625c-2.001,2.139-4.375,1.5-9,0s-4.5,0.25-4-4.625s-0.5-10.375-3.5-10.34s-1.875,0.09-4.375-1.785
	s-2.625-1.125-4.375,0.625c-1.08,1.08-4.348,1.207-6.693,1.146c0.185,0.747,0.296,1.681,0.318,2.854c0.125,6.5,0.75,11,2.5,16.125
	s2.625,3.125,2.25,6.875s-5.625,8.125-5.625,11s1.375,2.404,1.375,6.64s-4.375,7.36-4,11.86c0.317,3.804,1.966,5.654,1.943,10.511
	c2.486-0.555,4.625,0.972,4.432,4.802c-0.25,4.938,0.5,3.188,2.25,0.938s4.625-1,4.625-3s-4.007,0.502-4.007-5.375
	c0-3.125,3.882-4.875,6.882-2.375s-3.875,7.125,1.25,7.375s4.375-0.625,5,2.75s4.875,1.5,8.375,1.875s4.125,4.875,8.25,6
	c1.502,0.409,1.971,1.102,2.064,1.814c1.231-1.332,2.482-2.874,2.936-4.064c0.946-2.484,2.229-1.273,3.105-0.184
	c1.244-1.909,2.56-5.239,0.145-8.941c-3.75-5.75-10.5-2.17-10.5-7.397s2.75-1.103,1.375-4.103s-0.62-3.488,4.55-1.75
	c2.134,0.718,2.148-0.1,3.2-1.116c2.726-2.634-2.5-1.134-1.5-4.884s-0.549-6.375,4.226-6.25c3.265,0.086,4.763-0.123,5.146-1.701
	c-3.504-2.079-9.573-5.031-13.371-5.524C483.665,432.334,484.665,433.035,484.665,426.785z"/>
<path id="Savoie" fill="#eeeeee" stroke="#000000" stroke-width="0.25" stroke-miterlimit="10" d="M539.04,361.41
	c-3.5-2.25-6.125-1-5.625-4.5s-4.875-4.625-5,0.125s-3.375,5.375-4.375,8.625s-2.875,6.5-6.375,1.875s-3.25-2-7.375-1.75
	s-3.5-3.375-6.75-3.875s-1.375-6.875-3.125-8s-2.75,1.417-2.5,4.751s-0.68,0.843-0.68,7.009s-3.653-0.593-3.82,5.074
	s-2.667,0.833-3,4.5s1.833-1.167,2.667,5.667s6,5.166,9.5,8.166s1.167-7,5.667-4s3.5-0.333,8.5,4.167s2.167,1.333-0.605,7
	s0.605,2.167,0.438,6s-1.333,5.333,1,3.333c1.224-1.05,3.346,0.427,5.089,2.065c2.023-0.799,4.425-0.216,5.074,2.518
	c0.592,2.496,0.42,2.125,2.545,2.25s1.875-1,2.25-3.125c0.319-1.811,5.082-3.425,8.496-0.928c1.196-0.899,2.695-1.504,3.879-1.446
	c3.417,0.166,6.354-0.585,7.75-3.584c2.25-4.833,9.5-0.667,8.5-7.5s6.5-5.292-0.625-11.292s-8.25-6.5-7.375-10
	s1.875-3.75-1.375-4.375c-3.175-0.61-6.32-0.064-7.303-6.199C540.019,365.123,542.162,363.417,539.04,361.41z"/>
<path id="HauteSavoie" fill="#eeeeee" stroke="#000000" stroke-width="0.25" stroke-miterlimit="10" d="M498.54,350.66
	c0.792,0.581,1.024,1.787,1.03,2.987c0.257-0.013,0.539,0.066,0.845,0.263c1.75,1.125-0.125,7.5,3.125,8s2.625,4.125,6.75,3.875
	s3.875-2.875,7.375,1.75s5.375,1.375,6.375-1.875s4.25-3.875,4.375-8.625s5.5-3.625,5-0.125s2.125,2.25,5.625,4.5
	c3.122,2.007,0.979,3.713,5.447,2.551c-0.023-0.145-0.051-0.273-0.072-0.426c-1.125-8.25,8.352-4.807,8.875-12.125
	c0.625-8.75-6.375-6-6.75-10.125s-4.5-1.25-4.75-5.75s5.856-4.104,0-9.375c-3.75-3.375-1.125-3,0.125-4.125s1.375-2.875-4.625-4.125
	s-9.125-0.25-11,1.625s-1.75,2.125-5.375,2.125s-6,3.917-3.833,6.917s1.833,3.833-1.5,7.5c-2.222,2.444-6.884,3.625-8.267,1.872
	c-2.569,2.629-6.984,5.211-8.258,5.211C497.573,343.16,496.665,349.285,498.54,350.66z"/>
<path id="Isère" fill="#eeeeee" stroke="#000000" stroke-width="0.25" stroke-miterlimit="10" d="M479.79,361.535
	c-1.75-3.375-4.125-4-5.5,0s-2,4.5-4,3.625s-3.125-3-5.25-1.375c-3.56,2.722,3.125,4.875,1.25,8.25c-0.95,1.71-3.25,5-9.25,5.5
	s-5.5,2.625-4.375,3.375s3.586,4.125,1,4.125c-4.393,0-5.038,7.567-5.119,10.618c1.212,0.064,2.105,0.729,2.551,2.528
	c2.346,0.061,5.613-0.066,6.693-1.146c1.75-1.75,1.875-2.5,4.375-0.625s1.375,1.82,4.375,1.785s4,5.465,3.5,10.34
	s-0.625,3.125,4,4.625s6.999,2.139,9,0c3.625-3.875,1.625,7.375,1.625,13.625s-1,5.549,3.625,6.149
	c3.798,0.493,9.867,3.445,13.371,5.524c0.177-0.729,0.116-1.751-0.121-3.174c-0.75-4.5,6.375-0.125,6.875-3.625s1.75-3.5,4.375-3.75
	s1.375-1.875,6.375-1.375s2.959-1.625,6.354-1.25s1.896-1.375,1.896-4.375s-1.916-0.75-1.896-3.25s-5.354-0.25-5.854-5.25
	c-0.233-2.328,1.243-4.07,3.006-4.768c-1.744-1.639-3.865-3.115-5.089-2.065c-2.333,2-1.167,0.5-1-3.333s-3.21-0.333-0.438-6
	s5.605-2.5,0.605-7s-4-1.167-8.5-4.167s-2.167,7-5.667,4s-8.667-1.332-9.5-8.166s-3-2-2.667-5.667
	c0.032-0.351,0.084-0.623,0.152-0.835C486.583,371.33,481.308,364.462,479.79,361.535z"/>
<path id="Lot" fill="#eeeeee" stroke="#000000" stroke-width="0.25" stroke-miterlimit="10" d="M326.29,435.88
	c2.125-4.155-4-4.22-4.25-10.22c-0.146-3.499-1.5-5.75-3.75-3.75s-2,1.875-3.375,0.514s-0.667,0.487-4.231,3.076
	s-7.269-5.089-10.602-7.256s-10.833-0.667-10.833,3.333s2.167,1.318,2.167,4.834c0,4.666-3.667,0-4.333,4.333
	c-0.608,3.953-3.333,0.333-3.5,3s2.5,0,0,5s-7-1-7.167,4c-0.096,2.877-2.23,3.929-4.028,4.308c0.297,0.086,0.597,0.135,0.903,0.108
	c2.875-0.25,1,3.375-2,3.125s-1.625,4.875,0.5,8c0.622,0.915,0.741,1.836,0.541,2.638c1.404-0.073,2.819,0.341,2.388,2.487
	c-0.804,4,4.53,5.834,6.863,4.5s1.833,5.349,5.333,4.591s4-5.751,8.667-0.758c1.833,1.961,1.333-0.499,2-2.833
	s4.667,1.484,5.5-2.175s3.5,1.342,6.333-1.325c2.015-1.896,2.679-1.427,2.956,0.138c0.667-0.953,0.973-2.057,0.21-3.137
	c-2-2.834-3.186-7.001,0.449-8.376s5.01-5.125,10.885-5.125c1.454,0,2.392-0.361,3.042-0.9c-0.05-2.293-0.524-4.19-1.292-5.725
	C324.54,440.035,324.165,440.035,326.29,435.88z"/>
<path id="Charente" fill="#eeeeee" stroke="#000000" stroke-width="0.25" stroke-miterlimit="10" d="M235.345,396.41
	c0-9.334,11.57-11,11.57-16s1.167-3.667,2.333-3.667s4.333-4.334,5-6.167s8.333-4.833,8.167-9.833s6.333-3.166,6-6.833
	s-5.833-2.834-6-7.167s-3.891-3.926-7.333-1.667c-5.333,3.5-8.667-5.167-9-0.5s-2.5,1.668-5.333,1.834s-6,3.333-8-0.167
	c-1.727-3.022-10.782,2.159-15.477,9.424c-0.316,1.962-0.857,4.135-0.857,6.854c0,6.391-6.732,0.165-10.5,3.557
	c-1.667,1.5-2.686-0.669-2.686,7.5c0,3.5,7.686,4.501,7.686,11.334s-2,6.834-2.5,11s3.5,2.167,5.667,2s5.667,2.5,7.167,5.5
	c0.424,0.849,0.623,1.872,0.642,2.944c1.54-1.056,3.512-2.022,5.525-1.945C231.749,404.577,235.345,400.578,235.345,396.41z"/>
<path id="Dordogne" fill="#eeeeee" stroke="#000000" stroke-width="0.25" stroke-miterlimit="10" d="M285.152,410.743
	c-4.775,0.363-3.07-12.333,0-15.333s-1.737-1.333-2.57-4.5s-7.833-3-5.833-4.167s1.167-3.666-2.03-3.166s-3.137-2.334-2.97-2.944
	c0.833-3.056-5.667-4.598-7.667-2.135c-2.757,3.395-5.5,2.579-5.333-2.463c0.078-2.362-2.697-3.087-5.738-3.19
	c-1.229,1.869-2.964,3.898-3.762,3.898c-1.167,0-2.333-1.333-2.333,3.667s-11.57,6.666-11.57,16c0,4.168-3.596,8.167-7.93,8
	c-2.013-0.077-3.985,0.89-5.525,1.945c0.026,1.461-0.289,3.017-0.91,4.369c1.826-0.255,2.919,0.185,3.435,2.353
	c0.833,3.5,1.167,5.166-1.333,7.166s-0.833,3.668-0.833,5.834s-1.778,4.83,2.779,4.833c8.054,0.005,8.554-4.166,9.888-2.833
	s-0.833,1.834-1.167,4.5c-0.198,1.586,0.008,2.58-0.732,3.303c2.334,0.498,4.826,1.523,5.149,3.655c0.625,4.125,2.375,4.625,5.375,3
	s6.375,0.375,7.25-2.125s2.25-1,2.375,0.25s3.125,2.375,4.375,1s5.375-0.625,4.75,2.25s0.198,3.354,2.25,1.375
	c3.127-3.016,5.357,1.043,7.847,1.767c1.798-0.379,3.932-1.431,4.028-4.308c0.167-5,4.667,1,7.167-4s-0.167-2.333,0-5
	s2.892,0.953,3.5-3c0.667-4.333,4.333,0.333,4.333-4.333c0-3.516-2.167-0.834-2.167-4.834c0-1.415,0.948-2.51,2.309-3.247
	C290.756,415.479,291.308,410.275,285.152,410.743z"/>
<path id="DeuxSèvres" fill="#eeeeee" stroke="#000000" stroke-width="0.25" stroke-miterlimit="10" d="M232.506,339.577
	c-5.076-1-1.758-5-0.758-6.494s1.489-8.344-1.667-5.006c-6.163,6.519-4.833-2.333-5.833-6.333s-1.167-4.5,0-5.667
	s4.388-6.167,2.077-6.667c-5.628-1.218-0.411-3-0.026-6.719s-3.718-2.447-1.051-6.781s-0.5-6-1.167-10.5s-1.667-2.833-4.5-7
	s-6.5-1-11.5-1s-8.167-0.167-8.776,3.334c-0.609,3.5-2.63,3.438-6.397,2.166c-2.919-0.985-5.334-0.024-7.077,1.257
	c0.917,1.245,1.589,2.886,1.834,4.993c0.625,5.375,2.75,0.875,4.625,5.375s-1.5,2.125,0.875,6s0.125,2.5,1.25,5.375
	s2.625,10.5,1.5,14.25s6.25,1.5,2.125,5.25c-3.138,2.853-6.808,4.445-8.859,4.295c0.375,2.592,1.349,5.646,3.734,7.872
	c5,4.667,8.5,2.045,9.333,5.189s9.167,0.644,13.167,5.311c2.298,2.682,2.284,4.942,1.857,7.59
	c4.073-6.303,11.422-11.029,14.426-10.198C234.558,342.85,236.724,340.408,232.506,339.577z"/>
<path id="MaineetLoire" fill="#eeeeee" stroke="#000000" stroke-width="0.25" stroke-miterlimit="10" d="M228.082,272.744
	c3.167,0.667-0.659-7,4.323-12.131c0.5-0.515,2.796-3.536,2.463-7.702s4.685-1.667,0.033-7.167s-16.152-9.834-20.819-9.667
	s-2.438-3.652-7.833-4.833c-5.333-1.167-9.833,5.166-14.333,1.333s-5.333-3.333-8-2.5c-2.202,0.688-8.947-1.915-13.766-1.388
	c0.608,3.559,3.004,5.927,5.641,9.222c3.5,4.375-1.25,2.625-1.25,7.125s8.292,1.75,8.25,6.875c-0.028,3.377,0.375,4-5.875,4.375
	s-10.5,1.125-10.5,4.75s5.7,2.25,5.625,5.375c-0.118,4.899-1.625,4.875-2.625,6.875c-0.283,0.566-0.438,1.264-0.63,1.972
	c2.151,0.222,4.451,1.024,5.13,3.342c1.375,4.687,3.25,2.062,6.5,2.437c1.976,0.228,3.994,1.201,5.416,3.132
	c1.743-1.281,4.158-2.242,7.077-1.257c3.767,1.271,5.788,1.334,6.397-2.166c0.609-3.5,3.776-3.334,8.776-3.334s8.667-3.167,11.5,1
	c0.168,0.247,0.328,0.47,0.483,0.679C222.522,276.124,226.073,272.32,228.082,272.744z"/>
<path id="Vienne" fill="#eeeeee" stroke="#000000" stroke-width="0.25" stroke-miterlimit="10" d="M263.415,340.577
	c-0.167-2.666,0.167-7.167,5.012-7.334s2.655-4.833,8.488-5.166c3.332-0.19,3.5-0.167,4-3.338s-2,0.838-2.833-4.496
	s-1.5-1.166-6-4.5s-4.167-1.166-4.823-8.5s-3.177-4.5-4.177-9.833s-3,0.333-5.167-7.167s-5.333-7.166-5.333-4.833
	s-2,2.5-8.578,2.834s0-7.834-7.115-7.5c-4.854,0.228-0.307-4.667-4.307-4.486c-1.933,0.087-3.311-1.665-4.224-3.498
	c-0.091-0.004-0.17,0.006-0.276-0.016c-2.009-0.423-5.56,3.38-8.017,6.345c2.466,3.31,3.39,2.088,4.017,6.321
	c0.667,4.5,3.833,6.166,1.167,10.5s1.436,3.063,1.051,6.781s-5.603,5.501,0.026,6.719c2.311,0.5-0.911,5.5-2.077,6.667
	s-1,1.667,0,5.667s-0.329,12.852,5.833,6.333c3.156-3.338,2.667,3.512,1.667,5.006s-4.318,5.494,0.758,6.494
	c4.217,0.831,2.051,3.272-0.809,5.892c0.458,0.127,0.822,0.374,1.051,0.774c2,3.5,5.167,0.333,8,0.167s5,2.833,5.333-1.834
	s3.667,4,9,0.5c3.442-2.259,7.167-2.666,7.333,1.667c0.008,0.208,0.039,0.395,0.07,0.58
	C263.839,345.161,263.525,342.33,263.415,340.577z"/>
<path id="HauteVienne" fill="#eeeeee" stroke="#000000" stroke-width="0.25" stroke-miterlimit="10" d="M312.582,372.831
	c-1-1.412-1.898-0.66-0.5-2.921c3.234-5.229-3.833-3-3.833-5.667s0.667-3.166-5-1.666s-3.5-2.667-2-3.87s0.5-3.964-1.833-2.13
	s-5,4.5-3-2s-1.333-5-2.5-10.167s-4.5-3.167-4.667-6s3.667-6.667,1.5-8.833s-2.667-6-4.667-3c-0.876,1.314-3.447,1.316-6.06,0.905
	c-0.515,0.452-1.389,0.496-3.107,0.595c-5.833,0.333-3.643,4.999-8.488,5.166s-5.179,4.668-5.012,7.334
	c0.11,1.753,0.424,4.584-0.93,6.746c0.624,3.673,5.613,3.097,5.93,6.587c0.333,3.667-6.167,1.833-6,6.833s-7.5,8-8.167,9.833
	c-0.21,0.578-0.67,1.406-1.238,2.269c3.041,0.104,5.816,0.828,5.738,3.19c-0.167,5.042,2.577,5.857,5.333,2.463
	c2-2.463,8.5-0.921,7.667,2.135c-0.167,0.61-0.226,3.444,2.97,2.944s4.03,1.999,2.03,3.166c-1.659,0.968,2.864,1.024,4.935,2.819
	c6.321-5.279,20-8.043,24.065-11.819C310.415,373.409,313.582,374.243,312.582,372.831z"/>
<path id="Mayenne" fill="#eeeeee" stroke="#000000" stroke-width="0.25" stroke-miterlimit="10" d="M209.582,224.91
	c0.333-6.5,5.5-2.667,5-6.667s-2.833-6.167,1.167-6.167s-1.612-4.167,4.5-7.711c4.004-2.322,0-4.289,1.667-10.789
	s7.5-1.333,3.833-6.5c-2.595-3.657-3.167-1-4.167-6.767s-2.833-3.899-5.833,0s-6.919-1.566-10.167,1.101
	c-6.679,5.485-5.167-1.394-8.667,1.992c-3.937,3.808-6.625-0.563-8.027-4.094c-2.047,0.728-4.81,1.278-8.571,1.626
	c0.659,2.21,0.571,5.644,1.18,7.309c0.915,2.5-2.082,4.833-2.082,6.833s-1,9,1,12.5s1.167,7.167-2,7.333s-6,5.667-6.5,8.58
	c-0.352,2.052-0.463,4.061-1.892,4.432c0.024,0.268,0.083,0.512,0.126,0.767c4.819-0.526,11.563,2.077,13.766,1.388
	c2.667-0.833,3.5-1.333,8,2.5s9-2.5,14.333-1.333c2.066,0.452,3.011,1.291,3.657,2.145
	C209.637,231.009,209.425,227.964,209.582,224.91z"/>
<path id="Sarthe" fill="#eeeeee" stroke="#000000" stroke-width="0.25" stroke-miterlimit="10" d="M244.004,244.41
	c-0.245-3,2.911-1.167,4.245-3.167s6.5-0.833,5.667-4.478s8.333-4.189,8.333-10.522s4.833,0.833,3.667-6.667
	s-2.5-5.167,0.333-10.167s-0.833-2-4.333-5s-0.667-3.5-5.5-3.511s-4.333-0.989-7.333-3.822s-2.667-0.5-3.333-6.875
	s-6.167-8.125-10.88-3.125c-2.792,2.962-7.22,3.287-10.375,3.064c-0.984,0.383-2.018,1.247-2.579,3.435
	c-1.667,6.5,2.337,8.467-1.667,10.789c-6.112,3.544-0.5,7.711-4.5,7.711s-1.667,2.167-1.167,6.167s-4.667,0.167-5,6.667
	c-0.157,3.054,0.055,6.099,0.323,8.479c1.04,1.376,1.297,2.791,4.177,2.688c4.667-0.167,16.167,4.167,20.819,9.667
	c0.337,0.399,0.61,0.745,0.852,1.065C239.151,238.828,244.228,247.159,244.004,244.41z"/>
<path id="Orne" fill="#eeeeee" stroke="#000000" stroke-width="0.25" stroke-miterlimit="10" d="M263.249,197.744
	c-2.667-3.5,2.333-5.167,5.833-5.667s4.167-12.667,0-13.5s-1-5.167-4.5-6.667s-1.333-2.5-1.167-5s-0.048-2.68-3.333-4.333
	c-6.792-3.417-1.167-5.333-6.667-5c-5.066,0.307-6.638-3.127-7.083-5.951c-2.3,0.375-5.39-0.347-6.584,0.942
	c-2,2.158-2.5,2.008-4.333,0.342s-3.833,3.167-9.333,5.833s-1.833,0.5-9.167-0.167s-5.5-4-10.333,0c-3.418,2.83-8.167-0.5-9.833,3
	c-0.769,1.615-3.089,2.337-5.367,2.653c2.146,1.832,3.884,4.552,3.533,7.43c-0.406,3.325-1.293,5.964-6.027,7.648
	c1.402,3.531,4.091,7.902,8.027,4.094c3.5-3.386,1.988,3.493,8.667-1.992c3.247-2.667,7.167,2.799,10.167-1.101s4.833-5.767,5.833,0
	s1.571,3.11,4.167,6.767c2.432,3.427,0.684,2.31-1.255,3.065c3.155,0.223,7.583-0.103,10.375-3.064c4.714-5,10.214-3.25,10.88,3.125
	s0.333,4.042,3.333,6.875s2.5,3.811,7.333,3.822s2,0.511,5.5,3.511c0.876,0.751,1.764,1.126,2.556,1.345
	C265.271,202.747,265.187,200.288,263.249,197.744z"/>
<path id="Corrèze" fill="#eeeeee" stroke="#000000" stroke-width="0.25" stroke-miterlimit="10" d="M323.249,418.077
	c-0.5-2.166,3.708-2,3.708-9c0-4.333,4.958-9.334,7.125-11s-0.333-10,1.667-5.667s8.167,3.167,6.833,1s0.245-2.5,0.167-7.667
	s-3.833-4.166-0.667-9c1.444-2.205,4.333-3.833-2.167-3.898s-3.833,1.947-7.333,1.913c-6.188-0.061-2.167-5.015-7.667-3.515
	s-3.833-4.333-6.5-0.833c-1.738,2.281-3.827,2.857-5.671,2.758c0.225,0.96-2.762,0.645-6.995,4.575
	c-4.066,3.776-17.745,6.54-24.065,11.819c0.426,0.369,0.757,0.807,0.899,1.348c0.833,3.167,5.64,1.5,2.57,4.5
	s-4.775,15.696,0,15.333c6.156-0.468,5.604,4.735,6.405,7.587c2.486-1.348,6.371-1.486,8.525-0.086
	c3.333,2.167,7.038,9.845,10.602,7.256s2.856-4.438,4.231-3.076s1.125,1.486,3.375-0.514c1.885-1.676,3.138-0.362,3.582,2.165
	C325.94,420.997,323.69,419.99,323.249,418.077z"/>
<path id="IndreetLoire" fill="#eeeeee" stroke="#000000" stroke-width="0.25" stroke-miterlimit="10" d="M273.582,292.91
	c1-7.5-0.167-8,5.333-10.167s3.667-0.166,7.833-4.666s-2-12.5-6.5-12.5s-4.333-8.5-5.167-17.5s-5.833-3.167-7.823-4.5
	s-4.312-0.207-2.344-2.833c2.892-3.861-5.043-3.575-10.938-2.978c-0.297,2.422-4.537,1.691-5.728,3.478
	c-1.333,2-4.489,0.167-4.245,3.167c0.224,2.749-4.853-5.583-8.251,2.398c3.088,4.097-1.193,2.237-0.885,6.102
	c0.333,4.167-1.964,7.188-2.463,7.702c-4.815,4.959-1.421,12.265-4.046,12.147c0.913,1.833,2.291,3.585,4.224,3.498
	c4-0.181-0.548,4.714,4.307,4.486c7.115-0.334,0.537,7.834,7.115,7.5s8.578-0.501,8.578-2.834s3.166-2.667,5.333,4.833
	s4.167,1.834,5.167,7.167c0.75,3.997,2.354,3.406,3.386,5.948C269.891,302.883,272.917,297.899,273.582,292.91z"/>
<path id="Creuse" fill="#eeeeee" stroke="#000000" stroke-width="0.25" stroke-miterlimit="10" d="M340.582,361.743
	c3.486-0.81,5.833-2.833,5.833-8.167s-2.432-3-2.432-8c0-10.861-2.735-8.166-5.901-12.666s-3.667,3.5-4.167-3
	s-3.833-4.333-12.5-5.333s-14.5-5.5-14.833-1.833s1.167,4.333-7.5,2.729c-4.427-0.819-7.199,1.271-8.854,3.51
	c0.164,0.206,0.334,0.407,0.521,0.594c2.167,2.166-1.667,6-1.5,8.833s3.5,0.833,4.667,6s4.5,3.667,2.5,10.167s0.667,3.834,3,2
	s3.333,0.927,1.833,2.13s-3.667,5.37,2,3.87s5-1.001,5,1.666s7.067,0.438,3.833,5.667c-1.398,2.261-0.5,1.509,0.5,2.921
	c0.093,0.131,0.139,0.238,0.162,0.337c1.844,0.1,3.933-0.477,5.671-2.758c2.667-3.5,1,2.333,6.5,0.833s1.479,3.454,7.667,3.515
	c3.5,0.034,0.833-1.979,7.333-1.913c1.075,0.011,1.873,0.068,2.483,0.16C343.623,368.739,332.6,363.597,340.582,361.743z"/>
<path id="Indre" fill="#eeeeee" stroke="#000000" stroke-width="0.25" stroke-miterlimit="10" d="M326.033,314.577
	c-1.382-5.833,2.882-4.834-2.451-8.334s3.167-4-1.167-8.333c-2.947-2.946,5.833-5.833,1.667-7.5
	c-2.956-1.183-1.333-3.333-2.833-6.243s1.333-9.59-5-6.757s-10.333-1.167-7.333-2.667s2.333-7.333-4.667-8
	c-4.482-0.427-11.943,2.629-16.735,4.885c0.915,2.213,0.928,4.62-0.765,6.449c-4.167,4.5-2.333,2.499-7.833,4.666
	s-4.333,2.667-5.333,10.167c-0.665,4.989-3.691,9.973-7.114,10.448c0.345,0.849,0.626,2.048,0.791,3.885
	c0.656,7.334,0.323,5.166,4.823,8.5s5.167-0.834,6,4.5s3.333,1.325,2.833,4.496c-0.242,1.535-0.409,2.318-0.893,2.743
	c2.613,0.411,5.184,0.409,6.06-0.905c1.828-2.741,2.407,0.222,4.146,2.406c1.655-2.239,4.427-4.329,8.854-3.51
	c8.667,1.604,7.167,0.938,7.5-2.729s6.166,0.833,14.833,1.833c1.11,0.128,2.13,0.203,3.07,0.253
	C325.104,319.458,327.363,320.189,326.033,314.577z"/>
<path id="Cantal" fill="#eeeeee" stroke="#000000" stroke-width="0.25" stroke-miterlimit="10" d="M382.79,419.285
	c-2.875-3.625-4.625-1.25-1.5-5s-2.5,0.625-2.25-3.875s-0.625-0.667-1.458-5.833s-6.333-0.834-6.833-3.834
	c-1.12-6.717-1.125-1.75-4.333-1c-5.042,1.179-3.249-7.333-10.167-5.666c-3.044,0.733-3.167,2.833-6.763-1.5
	c-1.86-2.241-4.665-2.918-7.035-3.078c-0.348,1.821-0.765,2.456,0.13,3.911c1.333,2.167-4.833,3.333-6.833-1s0.5,4.001-1.667,5.667
	s-7.125,6.667-7.125,11c0,7-4.208,6.834-3.708,9c0.441,1.913,2.691,2.92-1.376,5.998c0.086,0.488,0.145,1.018,0.168,1.585
	c0.25,6,6.375,6.064,4.25,10.22s-1.75,4.155-0.625,6.405c0.767,1.534,1.242,3.432,1.292,5.725c1.977-1.641,1.261-4.943,4.083-4.85
	c3.75,0.125,8.5,3.75,11.125-1.375s4.625-6,4.375-9.75s8.128-11.75,7.625-4.875c-0.375,5.125,6.153-2.63,5.75,5.625
	c-0.25,5.125,2.75-1.758,2.75,7c0,1.79,1.271,3.162,2.757,4.497c1.55-3.339,4.065-9.104,4.743-12.747c1-5.375,1.25-5.375,4.625-3.25
	s0.375-2.018,2.875-3.821c1.831-1.32,4.395-2.735,6.228-1.638C384.561,421.562,384.74,421.744,382.79,419.285z"/>
<path id="HauteLoire" fill="#eeeeee" stroke="#000000" stroke-width="0.25" stroke-miterlimit="10" d="M376.04,394.66
	c4.366-0.576-0.618-2.75,8.316-1.625s4.649-3.323,9.434,2.604c1.375,1.703,1.75-0.146,5.75,0s3.875-2.418,8.875-0.323
	s5.5,2.655,9.25,0s12.038-3.384,11.625,3.296c-0.231,3.744,3.386-1.631,6.799,4.459c-0.341,0.487-0.495,1.463-0.924,3.34
	c-1,4.375-4.75,3.75-5.125,6.75s3.625,4,0,4s0,4.75-4.125,4.75c-2.625,0-2.125,1.25-2.5,4s-3.75,1-9.524,4.125
	c-3.221,1.743-5.016,5.16-5.977,7.844c-1.723-3.37-4.766-7.384-7.749-6.594c-4.25,1.125-0.125-2.75-3.75-2.625
	s-1.375,1.375-3.75,2.875c-6.385,4.032-5.625-1.875-7.125-6.375c-0.402-1.205-0.977-1.933-1.647-2.334
	c0.667-1.265,0.847-1.082-1.103-3.541c-2.875-3.625-4.625-1.25-1.5-5s-2.5,0.625-2.25-3.875s-0.625-0.667-1.458-5.833
	s-6.333-0.834-6.833-3.834c0,0-0.435-3.669-1.197-3.493C369.552,397.25,371.54,395.254,376.04,394.66z"/>
<path id="PuydeDôme" fill="#eeeeee" stroke="#000000" stroke-width="0.25" stroke-miterlimit="10" d="M356.249,394.077
	c-3.118,0.292-3.167,2.833-6.763-1.5c-1.86-2.241-4.665-2.918-7.035-3.078c0.17-0.89,0.323-2.06,0.297-3.756
	c-0.078-5.167-3.833-4.166-0.667-9c1.206-1.841,3.397-3.275,0.316-3.738c1.225-4.266-9.798-9.408-1.816-11.262
	c3.486-0.81,5.833-2.833,5.833-8.167s-2.432-3-2.432-8c0-0.88-0.02-1.663-0.055-2.376c1.624,1.521,3.837,2.472,6.153-0.957
	c4.167-6.167,3.333-1.5,6.5-4.5s6.774-1.999,4.637,0.667s2.53,6.666,9.363,8.666s16.5-2.166,16.667,2.334s3.333,1.166,6.333,1.833
	s9.166,7.666,6.833,9.333s-3.302,5.001,0.516,10.834s-0.018,1.5,6.983,6.5s4.334,9.753,1.834,11.543
	c-1.775,1.271-2.699,3.212-1.601,5.759c-4.717-1.884-4.684,0.57-8.608,0.427c-4-0.146-4.375,1.703-5.75,0
	c-4.785-5.927-0.5-1.479-9.434-2.604s-3.941,1.125-8.316,1.625c0,0-4.842,0.651-6.817,2.93s-4.734,3.896-6.938-0.434
	S357.582,393.952,356.249,394.077z"/>
<path id="Loire" fill="#eeeeee" stroke="#000000" stroke-width="0.25" stroke-miterlimit="10" d="M442.665,385.035
	c2.75-1.75,4.25-4.125-2.625-4.75s-11.875-5.375-9.5-9.75s0.625-4.875-2.625-11.771s-2.125-10.229-1.75-14.104s-4-7.5-11.375-4.5
	s-3.5-5.125-9-4.875s-2.625,3.125-2.125,12.598c0.24,4.554-2.408,6.35-5.224,6.991c1.944,2.215,3.268,4.777,1.974,5.702
	c-2.333,1.667-3.302,5.001,0.516,10.834s-0.018,1.5,6.983,6.5s4.334,9.753,1.834,11.543c-1.775,1.271-2.699,3.212-1.601,5.759
	c0.091,0.037,0.172,0.063,0.267,0.104c5,2.095,5.5,2.655,9.25,0s12.038-3.384,11.625,3.296c-0.231,3.744,3.386-1.631,6.799,4.459
	c0.454-0.648,1.238-0.428,3.451-0.285c3.875,0.25,1.25-4.875,5.125-6.25c1.49-0.528,2.81-0.938,3.881-0.882
	c0.049-1.843,0.311-5.327,1.473-7.803C444.593,388.482,440.644,386.321,442.665,385.035z"/>
<path id="Nord" fill="#eeeeee" stroke="#000000" stroke-width="0.25" stroke-miterlimit="10" d="M334.415,28.744
	c6,0.5-0.5,1.833,0,4.167s3.667,6.167,11.333,6.5s8.167-3.333,10.333-1.5s-2,1-2,6s2.167,3.5,6,3.833s1.666,3.833,4.833,4
	s1.542,2.042-0.208,2.125s-4.237,2.156,0.708,6.042c2.333,1.833-5,3.5-0.667,3.667s4.667,1.167,4.667,3.5s-0.333,5.167-3.333,5.167
	s-8.167,2.167,0.667,2.167c4.5,0-1.667,6,2.667,5.667s6.833,1.361,8.5,0.014s5.333,0.153,7.333-1.514s3.5,1.667,7.167-0.5
	s2.66,1.144,8.333,1.333c2.5,0.083-0.417,1.917,1,2s3.5-5.333,4.5-1.083c0.776,3.3,4.714,2.474,7.803,0.46
	c-0.049-0.606,0.007-1.379,0.197-2.377c0.667-3.5,2.739-0.05,3-4.167c0.333-5.25-5.333-3.834-3.333-6.667s4.75-5.167,0.583-5.917
	s-2.951-5.872-7.75-4.75c-6.417,1.5-7.583-2.583-10.833,0.417s-4.5,0.666-3.917-3.667s-0.958-9.875-8.708-8.375
	s-7.375,2.75-7.625-3.875s-4.75-17.125-12.375-12.25s-8.25,5.374-10.75-1.25s-8.087-0.915-7.125-9.25
	c0.375-3.25,2.596-1.4,0.125-5.375c-0.958-1.542-3.125-1.792-1.708-4.125s-0.25-2.667-4.5-1.833
	c-2.333,0.458-10.918,2.323-19.03,4.945c3.101,3.377,7.898,8.994,9.113,12.638C331.249,30.41,330.927,28.453,334.415,28.744z"/>
<path id="PasdeCalais" fill="#eeeeee" stroke="#000000" stroke-width="0.25" stroke-miterlimit="10" d="M303.29,57.91
	c1,2.25,2.375,3.457,5.375-0.771s10.875,10.521,15,10.646s6.127-0.827,11.75-1c8.125-0.25,1.125,3.875,1,6.5s0.718,3.75,2.921,0
	s2.725,3.264,8.954,1.5c2.779-0.787,1.875-3.125,4.625-0.125s-2.125,5.75,2.625,3.625s-0.375,3.754,4.625,0.752
	c3.425-2.056,5.955-2.056,7.902-1.412c0.456-1.533,1.063-3.215-1.319-3.215c-8.834,0-3.667-2.167-0.667-2.167
	s3.333-2.833,3.333-5.167s-0.333-3.333-4.667-3.5s3-1.833,0.667-3.667c-4.945-3.886-2.458-5.958-0.708-6.042
	s3.375-1.958,0.208-2.125s-1-3.667-4.833-4s-6,1.167-6-3.833s4.167-4.167,2-6s-2.667,1.833-10.333,1.5s-10.833-4.167-11.333-6.5
	s6-3.667,0-4.167c-3.488-0.291-3.167,1.667-5-3.833c-1.215-3.644-6.012-9.261-9.113-12.638c-6.667,2.155-13.014,4.82-15.304,7.638
	c-2.167,2.667-4.208,1-3.833,5.375s-1.5,8.25-0.375,13s-0.375,5.792-1.875,11.292c-1.279,4.691,2.88,5.143,2.067,6.932
	C302.007,56.694,302.928,57.096,303.29,57.91z"/>
<path id="Somme" fill="#eeeeee" stroke="#000000" stroke-width="0.25" stroke-miterlimit="10" d="M299.582,81.744
	c5.833,7.167,6,7,6.833,10.667s0.842,6.233,4.833,6.5c2.5,0.167-3,4.5,3.5,3.667s3.667,0.5,9,0.833s7.333-2.167,14.167,2.333
	s10.087,5.644,12.833,1.667c4.833-7,17.833-1.333,17.167-6.667s-3.288-3.568-2.083-7.785c0.635-2.222,2.417-0.965,2.5-2.882
	c0.076-1.747,2.089-1.837,2.13-10.04c-0.338,0.002-0.684,0.012-1.047,0.04c-2.04,0.157-1.753-1.089-1.348-2.452
	c-1.947-0.644-4.478-0.644-7.902,1.412c-5,3.002,0.125-2.877-4.625-0.752s0.125-0.625-2.625-3.625s-1.846-0.662-4.625,0.125
	c-6.229,1.764-6.75-5.25-8.954-1.5s-3.046,2.625-2.921,0s7.125-6.75-1-6.5c-5.623,0.173-7.625,1.125-11.75,1s-12-14.875-15-10.646
	s-4.375,3.021-5.375,0.771c-0.362-0.814-1.283-1.216-2.308-1.401c-0.14,0.308-0.411,0.651-0.9,1.068c-3.333,2.833-1,5,2.167,7.5
	s-4.333-1.167-5.333,3.833c-0.426,2.132-2.795,4.839-6.066,7.58C293.679,77.098,296.964,78.528,299.582,81.744z"/>
<path id="SeineMaritime" fill="#eeeeee" stroke="#000000" stroke-width="0.25" stroke-miterlimit="10" d="M254.832,117.994
	c1.917,4.25,4.417-0.584,4.917,2.333s12.781,0.88,11.167,4.917c-0.5,1.25-6.195,1.821-0.917,3.167
	c4.25,1.083,1.416,2.334,5.083,3.417s-1.489-4.544,3-4.083c3.25,0.333-0.833-1.667,2.333-1.667s7.25,2.083,7.5-2.333
	s7.167-6.333,11.917-3s5.584,2.833,7.667-0.833s0.083-3.083,0-6.417s-2.167-1.667-0.917-7.417s-1.25-1.583,0.083-5.667
	c0.435-1.331,1.163-2.008,1.992-2.298c-1.468-1.067-1.652-3.106-2.242-5.702c-0.833-3.667-1-3.5-6.833-10.667
	c-2.618-3.216-5.902-4.646-8.733-5.253c-4.4,3.687-10.438,7.434-15.6,9.92c-9,4.333-12.167,0.667-19.667,4.833s-8.333,6.5-12,7.5
	s-6.167,0.5-6.333,5.167s-6.333,9-0.667,12.167c3.868,2.161,10.811,0.922,12.518,1.178
	C251.073,116.228,253.702,115.489,254.832,117.994z"/>
<path id="Aisne" fill="#eeeeee" stroke="#000000" stroke-width="0.25" stroke-miterlimit="10" d="M367.832,118.41
	c2.417,0.583,0.438-0.333,0,3.667c-0.667,6.083-5.583,5.25-5.5,6.833s1.167-0.083,1.833,3.333s-1.827,0.652-1.834,2.833
	c-0.016,4.417,3.001-0.167,5.084,1.75s-1.083,3.667,2.167,6s2.083,1.708,2.708,5.708s6.931,9.686,9.75,9.75
	c5.625,0.129,1.364-1.982,6.25-3c3-0.625,2.125-1.875,4-5s2.625-3.875-0.625-3.75s-2.084,0.749-2-1.875
	c0.063-1.938,2.125,1.188,2.313-1.563s-3.938-3.926,1.438-3.875c6.563,0.063-0.938-2.063-0.938-5.938s-0.188-7.375,6.75-8.25
	s-0.938-4.125,5.938-2.438s4.125,2,3.875-4.063s0.462-3.125,0.752-6.958s-2.376-2.083-2.043-4.5s4.828,1.22,5.5-4.5
	c0.333-2.833,3.939-0.153,4-4.333c0.034-2.333-1.903,0.417-1.493-4s2.493-1.417,2.576-4.083c0.083-2.63-1.941-0.041-1.917-7.303
	c-1.317-0.06-2.232-0.451-2.363-2.07c-3.089,2.014-7.026,2.84-7.803-0.46c-1-4.25-3.083,1.167-4.5,1.083s1.5-1.917-1-2
	c-5.673-0.189-4.667-3.5-8.333-1.333s-5.167-1.167-7.167,0.5s-5.667,0.167-7.333,1.514c-1.527,1.234-3.758-0.081-7.453-0.054
	c-0.041,8.203-2.054,8.293-2.13,10.04c-0.083,1.917-1.865,0.66-2.5,2.882c-1.205,4.216,1.417,2.451,2.083,7.785
	c0.152,1.22-0.416,1.861-1.432,2.213c1.014,2.057,2.061,5.261,2.098,9.787C368.6,114.948,365.415,117.827,367.832,118.41z"/>
<path id="Ardennes" fill="#eeeeee" stroke="#000000" stroke-width="0.25" stroke-miterlimit="10" d="M419.29,124.66
	c5.625,5,7.027,6.014,11.25,5.125c7.125-1.5,1.5,2.125,5.5,2.75s0.75-2.125,6.625-1.125s2,0.125,5.5-1s5.944,1.257,6-3
	c0.028-2.125-1.25,0.125-1.5-2.375s3.75-1.5,3.25-6.75s-1.625-1.5-1.625-5.375s4.25-5.5,7-4.125s4.625,0.75,3-2.5
	c-1.241-2.482-0.73-2.782,0.471-4.621c-0.12-0.026-0.224-0.063-0.346-0.087c-5-1-7-1.5-8-5.167c-1.5-5.5-13.772-0.259-11.333-7
	c2.833-7.833-3.833-3-3.333-7.833s4.167-2.5,4-8.833s-4.834-5.667-7.667,0s-1,8.167-5.833,9.5s-4.667,3.167-9.333,1.167
	c-2.293-0.983-4.752-0.474-6.5-0.553c-0.024,7.262,2,4.673,1.917,7.303c-0.083,2.667-2.167-0.333-2.576,4.083s1.527,1.667,1.493,4
	c-0.061,4.18-3.667,1.5-4,4.333c-0.672,5.72-5.167,2.083-5.5,4.5s2.333,0.667,2.043,4.5s-1.002,0.896-0.752,6.958
	c0.043,1.048,0.162,1.893,0.292,2.586C411.803,121.045,415.767,121.528,419.29,124.66z"/>
<path id="Marne" fill="#eeeeee" stroke="#000000" stroke-width="0.25" stroke-miterlimit="10" d="M383.582,162.077
	c-2.333,2.5-0.675,3.667,0.829,4.917s0.587,2.917-0.413,5.417s2.083-1.083,5.667,3.417s6.917,3.666,10.25,1.083
	s7.917-2.083,14.167-6.667s7.833-1.417,8,1.25s3.167,9,9,8.5s3.958-2.083,9.333-0.583s6.5-2.375,6.625-6s5.875-1.625,6.125-6.375
	s-4.375-1.125-4.25-7.25s0.75-7,4.875-10.75s-3.75,0.25-2.125-3.75c1.415-3.482-2.282-9.238-1.614-15.206
	c-0.584,0.03-1.215,0.115-1.886,0.331c-3.5,1.125,0.375,2-5.5,1s-2.625,1.75-6.625,1.125s1.625-4.25-5.5-2.75
	c-4.223,0.889-5.625-0.125-11.25-5.125c-3.523-3.132-7.487-3.615-9.958-3.539c0.622,3.316,1.52,2.873-4.167,1.477
	c-6.875-1.688,1,1.563-5.938,2.438s-6.75,4.375-6.75,8.25s7.5,6,0.938,5.938c-5.375-0.051-1.25,1.125-1.438,3.875
	s-2.25-0.375-2.313,1.563c-0.084,2.624-1.25,2,2,1.875s2.5,0.625,0.625,3.75s-1,4.375-4,5c-4.083,0.851-1.781,2.464-4.198,2.896
	C384.529,159.459,384.644,160.939,383.582,162.077z"/>
<path id="Meuse" fill="#eeeeee" stroke="#000000" stroke-width="0.25" stroke-miterlimit="10" d="M453.665,172.41c0,3,2,0.25,8.75,6
	s5,1,8,5.5s6.5,3.75,7.25,1.75s8-0.027,9.25-5.639s-0.997-0.799-1.25-4.861c-0.167-2.667,5.833,0.5,3.5-3.083
	s-3.75-9.5-1.417-14.333s-0.458-3.458-0.458-5.333s3.25-1.875,3.125-3.25s-1.75-1-2-3.125s3.625,2,0.125-5.125
	s-3.625-6.25-3.5-11.375s-1.75-13.5-7.625-10.75c-5.134,2.403-6.925,0.319-3.209-6.25c-0.976,0.263-1.615-0.338-1.791-2.792
	c-0.325-4.552-2.888-7.032-7.654-8.079c-1.201,1.838-1.712,2.139-0.471,4.621c1.625,3.25-0.25,3.875-3,2.5s-7,0.25-7,4.125
	s1.125,0.125,1.625,5.375s-3.5,4.25-3.25,6.75s1.528,0.25,1.5,2.375c-0.045,3.441-1.652,2.545-4.114,2.669
	c-0.668,5.968,3.029,11.724,1.614,15.206c-1.625,4,6.25,0,2.125,3.75s-4.75,4.625-4.875,10.75s4.5,2.5,4.25,7.25
	c-0.066,1.265-0.529,2.043-1.165,2.585C452.945,170.442,453.665,171.396,453.665,172.41z"/>
<path id="MeurtheetMoselle" fill="#eeeeee" stroke="#000000" stroke-width="0.25" stroke-miterlimit="10" d="M489.165,178.785
	c0.5,1.625,3.625-1.375,4.5,4s7,7.654,12.5,4.452s12.25-1.577,16-2.952s1.125-3.25,4.625-3.5s-1.508,2.317,4.5,2.317
	c9.25,0,11-4.567,14.5-5.067s3.875-2.5-0.625-5s-7.523-1.537-12-5c-6.625-5.125-17.75-6.25-19.125-10.25s-12.5-5.75-14.75-10.875
	s-5.625-2.5-5-6.625s2.75-0.708,2.75-5.375c0-2.281-1.75-0.375-1.875-3.125s4.5,0,0.75-6.25c-3.288-5.479-5.998-9.998-1.394-12.629
	c-2.658-2.071-5.581-0.055-7.106-2.496c-1.667-2.667-7-2-9.833,0c-1.344,0.948-2.497,1.888-3.376,2.125
	c-3.716,6.568-1.924,8.652,3.209,6.25c5.875-2.75,7.75,5.625,7.625,10.75s0,4.25,3.5,11.375s-0.375,3-0.125,5.125
	s1.875,1.75,2,3.125s-3.125,1.375-3.125,3.25s2.792,0.5,0.458,5.333s-0.917,10.75,1.417,14.333s-3.667,0.417-3.5,3.083
	c0.203,3.249,1.678,0.826,1.623,2.594C488.239,177.941,489.002,178.256,489.165,178.785z"/>
<path id="Moselle" fill="#eeeeee" stroke="#000000" stroke-width="0.25" stroke-miterlimit="10" d="M555.79,168.16
	c1.375-3.375-3.375-2.125-2.5-5.25s5.625-2.625,1-6.125s-6.438,0.5-8.25,0c-3.625-1,1.325-1.077-2.25-4.875
	c-2-2.125-4.375,0.875-4.5-3s3.75,0,4.125-5.125s2.625-5.5,3.5-3s2.25,2.5,6.625,4s5.125,2.375,7.5,0.625s1.375,1.125,4.875,1.125
	c2.996,0,1.607-5.396,3.809-8.05c-2.742-0.838-4.936-2.271-5.642-4.742c-1.667-5.833-4.667-3.167-8.667,0s-4,2.333-6.5,1.167
	s-4.833,3-6.333-1.833s-6.167-4.666-8.833-1.333s-4.167,0.333-7-4s-5-3.333-5.333-6.833s-3.176-8.774-7-7.5
	c-5,1.667-6.167-3.333-10.167-1.333s-6.167,4.667-9,1.5c-0.239-0.267-0.482-0.48-0.727-0.67c-4.604,2.631-1.894,7.149,1.394,12.629
	c3.75,6.25-0.875,3.5-0.75,6.25s1.875,0.844,1.875,3.125c0,4.667-2.125,1.25-2.75,5.375s2.75,1.5,5,6.625s13.375,6.875,14.75,10.875
	s12.5,5.125,19.125,10.25c4.477,3.463,7.5,2.5,12,5c1.507,0.837,2.457,1.617,2.936,2.304
	C550.615,174.372,554.089,172.336,555.79,168.16z"/>
<path id="BasRhin" fill="#eeeeee" stroke="#000000" stroke-width="0.25" stroke-miterlimit="10" d="M581.665,139.66
	c-3.458,0-8.211-0.035-11.941-1.175c-2.201,2.654-0.813,8.05-3.809,8.05c-3.5,0-2.5-2.875-4.875-1.125s-3.125,0.875-7.5-0.625
	s-5.75-1.5-6.625-4s-3.125-2.125-3.5,3s-4.25,1.25-4.125,5.125s2.5,0.875,4.5,3c3.575,3.798-1.375,3.875,2.25,4.875
	c1.812,0.5,3.625-3.5,8.25,0s-0.125,3-1,6.125s3.875,1.875,2.5,5.25c-1.701,4.176-5.175,6.212-7.689,7.179
	c0.744,1.068,0.321,1.906-1.007,2.382c-0.15,2.977,0.053,12.064,8.133,12.064c5.814,0,0.189,4.625,6.564,4.375
	c5.927-0.232,1.274,5.8,11.34,7.352c5.019-6.975,5.02-13.055,4.535-19.602c-0.5-6.75,3.25-1.75,3-12s12.079-8.25,12.915-17
	s0.585-7.5,3.335-9S587.665,139.66,581.665,139.66z"/>
<path id="HautRhin" fill="#eeeeee" stroke="#000000" stroke-width="0.25" stroke-miterlimit="10" d="M572.665,212.91
	c3.25-5.75-5.5-3.5,0-10.75c0.165-0.218,0.31-0.432,0.465-0.648c-10.066-1.552-5.413-7.584-11.34-7.352
	c-6.375,0.25-0.75-4.375-6.564-4.375c-0.659,0-1.248-0.08-1.806-0.192c-2.14,2.894-5.447,7.736-5.672,10.317
	c-0.333,3.833,1.167,7.125-1.708,10s-3.375,3.25-3.458,7.25s-3.167,5.667-2.833,8.167s3.667,0.584,5.25,1.667s3.75,3.166,3.75,5.583
	s-2.578,4.09,1.583,6.833c3.12,2.057,2.44,1.839,2.167,6.601c1.61,0.895,3.022,3.451,4.582,4.899c2.333,2.167,4-0.333,6.667-1
	s3.333-2.121,5.5-4.227s5.76-3.269,2.333-12.606C569.485,227.365,570.397,216.923,572.665,212.91z"/>
<path id="TerritoiredeBelfort" fill="#eeeeee" stroke="#000000" stroke-width="0.25" stroke-miterlimit="10" d="M550.332,239.41
	c-4.161-2.743-1.583-4.417-1.583-6.833s-2.167-4.5-3.75-5.583s-4.917,0.833-5.25-1.667c-0.029-0.22-0.024-0.433-0.005-0.643
	c-1.719,0.473-4.739,1.617-4.829,3.851c-0.125,3.125,1.375,6.625,1.125,9.625s-1.125,2.631,2.875,4.878
	c3.169,1.78,7.352,1.948,10.012,3.948c0.333-0.249,0.666-0.496,0.988-0.742c0.939-0.718,1.786-0.677,2.584-0.233
	C552.772,241.25,553.452,241.467,550.332,239.41z"/>
<path id="Vosges" fill="#eeeeee" stroke="#000000" stroke-width="0.25" stroke-miterlimit="10" d="M475.415,192.41
	c6,2.167,1.568,4.607,7.125,4.333c3.375-0.167,0.375,2.667,3.375,2.833s1.833,3.417,0.583,3.5s-3.298,6.458,1.309,8.458
	s1.857,5.25,5.232,5.5s0.882-2.103,4.75-1.875c2.125,0.125-0.875,1.916,2.125,1.896s-1.375-5.896,5-5.521s0.47,6.58,6.125,6.58
	c2.625,0,5.424-5.337,10.375,0c1.244,1.341-0.5,2.545,2.25,2.67s1.625-4.375,4.125-4.125c2.292,0.229,4.704,5.28,12.116,7.278
	c0.606-1.848,2.609-3.558,2.676-6.778c0.083-4,0.583-4.375,3.458-7.25s1.375-6.167,1.708-10c0.225-2.581,3.532-7.423,5.672-10.317
	c-6.288-1.268-6.465-9.137-6.327-11.872c-0.37,0.132-0.797,0.242-1.303,0.314c-3.5,0.5-5.25,5.067-14.5,5.067
	c-6.008,0-1-2.567-4.5-2.317s-0.875,2.125-4.625,3.5s-10.5-0.25-16,2.952s-11.625,0.923-12.5-4.452s-4-2.375-4.5-4
	c-0.163-0.529-0.926-0.844-1.877-1.031c-0.014,0.442-0.122,1.144-0.373,2.268c-1.25,5.611-8.5,3.639-9.25,5.639
	c-0.464,1.237-1.98,1.992-3.779,1.326C472.631,188.593,471.611,191.036,475.415,192.41z"/>
<path id="HauteMarne" fill="#eeeeee" stroke="#000000" stroke-width="0.25" stroke-miterlimit="10" d="M441.915,190.41
	c6.25,3.25,4.5,4,5.5,10.25s-0.125,7.125-2.625,7.5s-8.431,1.535-3.5,4c3,1.5-1.125,1.875,4.125,4.875s10.125,9.875,8,12
	s-0.478,1.842,0.51,6.375c0.49,2.25,4.365,0,4.865,2.25s2.375,0.25,4.875,0.75s1.5,4.881,5.75,4.628s4-7.503,8.5-7.253
	s9.535,1.638,9.625-3.5c0.053-3-1.375-2.25-1.5-4.375s4.632-0.5,4.378-2.875s2.747-0.25,2.747-2.5c0-2.033,3.468-1.211,3.216-7.301
	c-1.797,0.392-0.508,2.011-3.341,1.801c-3.375-0.25-0.625-3.5-5.232-5.5s-2.559-8.375-1.309-8.458s2.417-3.333-0.583-3.5
	s0-3-3.375-2.833c-5.557,0.274-1.125-2.167-7.125-4.333c-3.804-1.374-2.784-3.817-1.529-5.424c-1.11-0.41-2.327-1.359-3.471-3.076
	c-3-4.5-1.25,0.25-8-5.5s-8.75-3-8.75-6c0-1.014-0.72-1.968-1.665-2.79c-1.754,1.491-4.868,1.13-4.96,3.79
	c-0.125,3.625-1.25,7.5-6.625,6c-0.997-0.278-1.743-0.449-2.336-0.542C437.702,182.64,437.886,188.315,441.915,190.41z"/>
<path id="Rhône" fill="#eeeeee" stroke="#000000" stroke-width="0.25" stroke-miterlimit="10" d="M451.915,356.785
	c-4.346-1.274-4.875,0-5.083-8.124c-0.177-6.914,2.25-2.834,2.083-7.334s-3.083,0.834-3.333-6.833
	c-0.117-3.581-1.917-4.667-3.917-1.667s-0.917-2.083-3.917,0.417s-4.5-4.834-6.667,0c-2.651,5.916,1.667,5.5,1,7.666
	c-0.459,1.495-4.043,1.641-6.22,1.588c0.267,0.682,0.375,1.416,0.302,2.162c-0.375,3.875-1.5,7.209,1.75,14.104
	s5,7.396,2.625,11.771s2.625,9.125,9.5,9.75s5.375,3,2.625,4.75c-2.021,1.286,1.928,3.447,7.354,2.815
	c0.762-1.622,1.907-2.815,3.646-2.815c2.586,0,0.125-3.375-1-4.125s-1.625-2.875,4.375-3.375s8.3-3.79,9.25-5.5
	c1.676-3.017-3.479-5.057-2.055-7.399C454.361,363.686,458.158,358.616,451.915,356.785z"/>
<path id="Ain" fill="#eeeeee" stroke="#000000" stroke-width="0.25" stroke-miterlimit="10" d="M495.415,331.087
	c-5.012,0-3-3.842-6.167-4.009s-1.103,3.582-5.167,4.833c-5.63,1.733-2.167-3.5-5.167-4s-6-6.833-8.667-7.333
	s-2.333-5.333-4.667-4.541s-2.5,2.541-5.667,1.318s-4.333-4.11-6.5,6.223c-1.63,7.773-3.631,12.939-5.015,15.902
	c0.278,0.264,0.475,0.775,0.515,1.847c0.167,4.5-2.26,0.42-2.083,7.334c0.208,8.124,0.737,6.85,5.083,8.124
	c6.243,1.831,2.446,6.9,12.32,7.851c0.169-0.278,0.426-0.562,0.805-0.851c2.125-1.625,3.25,0.5,5.25,1.375s2.625,0.375,4-3.625
	s3.75-3.375,5.5,0c1.518,2.927,6.793,9.795,10.777,12.874c0.639-2.002,2.698,1.46,2.848-3.665c0.167-5.667,3.82,1.092,3.82-5.074
	s0.93-3.675,0.68-7.009c-0.206-2.751,0.44-4.957,1.655-5.014c-0.006-1.2-0.238-2.406-1.03-2.987c-1.875-1.375-0.967-7.5,0.517-7.5
	c1.274,0,5.689-2.582,8.258-5.211c-0.691-0.877-2.747-3.57-0.566-5.705c9.191-8.999,4.408-8.643,2.436-11.371
	C506.044,325.42,502.365,331.087,495.415,331.087z"/>
<path id="Jura" fill="#eeeeee" stroke="#000000" stroke-width="0.25" stroke-miterlimit="10" d="M509.249,304.993
	c-0.25-2.417-1.833-1-1.833-2.916s2-0.75,4-2.5c8.162-7.142-8.333-7.75-8.75-11.75s2.25-5.5-6.083-6.5s-2.917-5-2.5-7.583
	s0.939-4.167-2-4.917c-4.78-1.22,0-4.833-3.333-5.542c-1.423-0.303-0.917,1.25-3.458,1.25c-3.625,0-1.75-2.375-4.375-2.625
	s-2.125,2.5-2.875,7.125s-1.875,7.125-5.292,8.375s-1.958,3.25-3.083,7.125s8.875,6,9,8.375s-6.375,0.375-5.917,2.75
	s2.292,0.25,2.167,4.5s3.625,1.375,3.219,6.125s-3.219,2.25-3.719,6.375s2.5,0.584,3.5,3.289c1.593,4.309-5.891,3.817-9.338,3.379
	c0.403,0.612,0.915,1.108,1.671,1.25c2.667,0.5,5.667,6.833,8.667,7.333s-0.463,5.733,5.167,4c4.064-1.251,2-5,5.167-4.833
	s1.155,4.009,6.167,4.009c6.95,0,10.629-5.667,13.77-10.214c-0.462-0.64-0.771-1.448-0.707-2.588
	c0.133-2.398,1.011-5.201,2.368-7.896C503.597,307.405,509.485,307.283,509.249,304.993z"/>
<path id="Doubs" fill="#eeeeee" stroke="#000000" stroke-width="0.25" stroke-miterlimit="10" d="M548.927,246.986
	c-2.66-2-6.843-2.167-10.012-3.948c-2.615-1.469-3.143-1.824-3.127-2.729c-6.719-0.341-6.06,6.684-9.123,6.677
	c-3.333-0.008-2.155-1.205-5.583-1.492c-5.905-0.496-6.167,4.792-12.458,9.75s-6.708,1.125-12.229,5.083
	c-3.321,2.381-5.451,3.205-6.627,3.487c1.042,1.254-1.72,3.983,2.315,5.013c2.939,0.75,2.417,2.334,2,4.917s-5.833,6.583,2.5,7.583
	s5.666,2.5,6.083,6.5s16.912,4.608,8.75,11.75c-2,1.75-4,0.584-4,2.5s1.583,0.499,1.833,2.916c0.237,2.29-5.652,2.412,1.597,5.396
	c2.038-4.046,5.168-7.845,8.569-9.646c5.667-3,6.333-4.666,5.5-10s-1.073-8.834,5.833-8.834c3.667,0,1.5-6,9.167-11.167
	s5.5-4.833,6.333-8.5s4.167-4.333,0.667-8C543.813,250.994,546.34,248.923,548.927,246.986z"/>
<path id="HauteSaône" fill="#eeeeee" stroke="#000000" stroke-width="0.25" stroke-miterlimit="10" d="M539.744,224.684
	c0.023-0.254,0.082-0.501,0.162-0.746c-7.412-1.998-9.824-7.049-12.116-7.278c-2.5-0.25-1.375,4.25-4.125,4.125
	s-1.006-1.329-2.25-2.67c-4.951-5.337-7.75,0-10.375,0c-5.655,0,0.25-6.205-6.125-6.58s-2,5.5-5,5.521s0-1.771-2.125-1.896
	c-0.621-0.037-1.065-0.001-1.409,0.074c0.252,6.09-3.216,5.269-3.216,7.301c0,2.25-3,0.125-2.747,2.5s-4.503,0.75-4.378,2.875
	s1.553,1.375,1.5,4.375c-0.09,5.138-5.125,3.75-9.625,3.5c-2.531-0.141-3.56,2.092-4.731,4.117c2.43,0.027,5.279,0.849,5.231,4.591
	c-0.083,6.5-7.813,3.934-1.75,8.917c2.938,2.415,2.064,4.847,2.551,9.144c0.343-0.495,0.861-0.723,1.699-0.644
	c2.625,0.25,0.75,2.625,4.375,2.625c2.542,0,2.035-1.553,3.458-1.25c0.52,0.11,0.826,0.297,1.019,0.529
	c1.176-0.282,3.306-1.106,6.627-3.487c5.521-3.958,5.938-0.125,12.229-5.083s6.553-10.246,12.458-9.75
	c3.428,0.288,2.25,1.484,5.583,1.492c3.063,0.007,2.403-7.018,9.123-6.677c0.008-0.479,0.166-1.11,0.252-2.149
	c0.25-3-1.25-6.5-1.125-9.625C535.004,226.301,538.024,225.157,539.744,224.684z"/>
<path id="Allier" fill="#eeeeee" stroke="#000000" stroke-width="0.25" stroke-miterlimit="10" d="M411.249,324.91
	c-0.001-3.001-0.833-5.917-7.167-7.084s-4.25-3.582-5-6.666s-4.417-10.333-6.583-9.25c-3.403,1.701-5,11.25-6.583,5
	s-2.333-0.666-4.917-0.5s-1.667-4.666-4.167-1.5c-3.836,4.857-4.25-2.083-7.75-2.083s0-3.928-5.917-3.917
	c-4.174,0.008-2.083,0.5-6.333,4.333s-3.25-2.75-8.167,2.167s-1.75,6.417-1.833,8.75s-0.333,3.167-7.75,3.333
	c-5.178,0.116-7.226,4.9-7.992,7.78c1.729,0.459,2.592,1.597,2.826,4.637c0.5,6.5,1-1.5,4.167,3c2.91,4.136,5.454,2.203,5.847,10.29
	c1.624,1.521,3.837,2.472,6.153-0.957c4.167-6.167,3.333-1.5,6.5-4.5s6.774-1.999,4.637,0.667s2.53,6.666,9.363,8.666
	s16.5-2.166,16.667,2.334s3.333,1.166,6.333,1.833c1.336,0.297,3.298,1.852,4.859,3.631c2.815-0.642,5.464-2.438,5.224-6.991
	c-0.5-9.473-3.375-12.348,2.125-12.598c0.433-0.02,0.802,0.018,1.129,0.092C409.341,333.004,411.25,329.789,411.249,324.91z"/>
<path id="SaôneetLoire" fill="#eeeeee" stroke="#000000" stroke-width="0.25" stroke-miterlimit="10" d="M469.665,284.535
	c0.07-0.241,0.13-0.475,0.182-0.701c-5.264-0.929-14.899,1.441-19.515,3.493c-5.25,2.334-5.5,2.583-11,0.083s-4-8.917-10.333-8.583
	s-3.917-1.5-8.5-3.833s-7.75,1.417-7.75,3.583s2.167,2.583,1.833,3.75s-3.333,1.916-1.083,5.25c1.487,2.204-0.333,3.75,1.083,4.666
	c3.377,2.184-1.167,2.25-1.083,3.584s2.833,1.833,0.917,2.416s-2.667,1-6.5,3.677s-4.833,3.99-6.667,0.823
	c-1.714-2.962-4.104-0.569-5.508,1.356c1.518,2.151,2.911,5.29,3.341,7.061c0.75,3.084-1.334,5.499,5,6.666s7.166,4.083,7.167,7.084
	c0.001,4.879-1.908,8.094-4.33,10.467c3.825,0.873,1.077,7.547,7.871,4.783c5.956-2.423,9.952-0.523,11.073,2.338
	c2.177,0.053,5.76-0.093,6.22-1.588c0.666-2.166-3.652-1.75-1-7.666c2.167-4.834,3.667,2.5,6.667,0s1.917,2.583,3.917-0.417
	s3.8-1.914,3.917,1.667c0.19,5.841,1.927,4.14,2.818,4.986c1.383-2.963,3.385-8.129,5.015-15.902
	c2.167-10.333,3.333-7.445,6.5-6.223s3.333-0.526,5.667-1.318c1.671-0.567,1.979,1.746,2.996,3.291
	c3.447,0.438,10.931,0.93,9.338-3.379c-1-2.705-4,0.836-3.5-3.289s3.313-1.625,3.719-6.375s-3.344-1.875-3.219-6.125
	s-1.708-2.125-2.167-4.5s6.042-0.375,5.917-2.75S468.54,288.41,469.665,284.535z"/>
<path id="CôtedOr" fill="#eeeeee" stroke="#000000" stroke-width="0.25" stroke-miterlimit="10" d="M476.665,253.41
	c-6.063-4.982,1.667-2.417,1.75-8.917c0.048-3.743-2.802-4.564-5.231-4.591c-0.911,1.575-1.909,3.025-3.769,3.136
	c-4.25,0.253-3.25-4.128-5.75-4.628s-4.375,1.5-4.875-0.75s-4.375,0-4.865-2.25c-0.988-4.533-2.635-4.25-0.51-6.375s-2.75-9-8-12
	c-1.522-0.87-2.243-1.515-2.592-2.035c-3.404-0.636-7.852-1.106-8.158,0.493c-1.5,7.833-10.5,2.667-10.417,5.75
	s-2.417,0.833-2.333,4.083s1.917,0.25,2.583,3.75s0.667,1.833-2.959,8.667s-5.374,8.583-4.874,13.667s-3.125,2.25-3,5.75
	c0.17,4.752,2.75,2.75,2.25,5.5c-1.104,6.076,1.604,3.627,4,5.917c3.072,2.936,1.141,4.945-0.524,5.971
	c0.36,0.114,0.727,0.252,1.108,0.446c4.583,2.333,2.167,4.167,8.5,3.833s4.833,6.083,10.333,8.583s5.75,2.251,11-0.083
	c4.616-2.052,14.251-4.422,19.515-3.493c0.781-3.42-0.302-5.252,2.902-6.424c3.417-1.25,4.542-3.75,5.292-8.375
	c0.511-3.149,0.444-5.426,1.176-6.481C478.729,258.257,479.604,255.825,476.665,253.41z"/>
<path id="Cher" fill="#eeeeee" stroke="#000000" stroke-width="0.25" stroke-miterlimit="10" d="M365.79,279.785
	c0-5.5-0.875-4.125-1.875-9.5s-5.625-6-5.375-8.375s2.5-3,2.125-6.875s-4.875-3.125-6-4.5s-3.5-4.5-3.5,0.75s-3.5-4.5-7.125-4.5
	s-2.75-3-5.375-1.909s-2.25,1.784-6.5-1.216s-8.875-0.875-7.875,3s5.125,3.125,4.5,7.625s-4.375,1.125-4.5,7.5
	c-0.059,3.01-0.5,5-4.5,4.918s-5.75-2.793-6.125,1.332c-0.205,2.256-1.792,2.826-3.19,2.882c0.396,1.576-0.2,3.146-1.56,3.827
	c-3,1.5,1,5.5,7.333,2.667s3.5,3.847,5,6.757s-0.123,5.061,2.833,6.243c4.167,1.667-4.614,4.554-1.667,7.5
	c4.333,4.333-4.166,4.833,1.167,8.333s1.068,2.501,2.451,8.334c1.33,5.612-0.929,4.881-1.547,10.253
	c2.968,0.154,5.109,0.046,6.604,0.443c0.766-2.88,2.814-7.664,7.992-7.78c7.417-0.166,7.667-1,7.75-3.333s-3.083-3.833,1.833-8.75
	s3.917,1.666,8.167-2.167s2.159-4.325,6.333-4.333c0.623-0.001,1.121,0.05,1.555,0.126
	C370.013,289.608,365.79,284.974,365.79,279.785z"/>
<path id="Nièvre" fill="#eeeeee" stroke="#000000" stroke-width="0.25" stroke-miterlimit="10" d="M408.999,260.244
	c-1-2.5-1.917-1.75-7.917-1.667s-4.333-4.417-7.5-4.833s-2.5,0.583-2.917-2.25c-0.881-5.997-4.333-5.417-4.083-2.417
	s1.167,1.167-4.083,3s-1.5-1.167-8-1.333s-3.083-4.917-5.417-4.917s-0.917,1.5-2.583,1.75c-3.077,0.461-2.083-0.833-4.959-0.833
	c-3.928,0-4.831,2.655-4.948,4.695c1.703,0.476,3.822,0.989,4.074,3.597c0.375,3.875-1.875,4.5-2.125,6.875s4.375,3,5.375,8.375
	s1.875,4,1.875,9.5c0,5.188,4.223,9.823-1.07,19.251c3.684,0.654,1.23,3.791,4.362,3.791c3.5,0,3.914,6.94,7.75,2.083
	c2.5-3.166,1.583,1.666,4.167,1.5s3.333-5.75,4.917,0.5s3.181-3.299,6.583-5c0.922-0.461,2.117,0.594,3.242,2.189
	c1.404-1.926,3.793-4.318,5.508-1.356c1.833,3.167,2.833,1.854,6.667-0.823s4.583-3.094,6.5-3.677s-0.833-1.082-0.917-2.416
	s4.46-1.4,1.083-3.584c-1.417-0.916,0.404-2.462-1.083-4.666c-2.25-3.334,0.75-4.083,1.083-5.25s-1.833-1.583-1.833-3.75
	c0-1.987,2.667-5.291,6.642-4.029c1.666-1.026,3.596-3.035,0.524-5.971c-2.396-2.29-5.104,0.159-4-5.917
	c0.234-1.289-0.209-1.536-0.763-1.921C411.187,263.965,409.87,262.423,408.999,260.244z"/>
<path id="Yonne" fill="#eeeeee" stroke="#000000" stroke-width="0.25" stroke-miterlimit="10" d="M412.665,221.16
	c-8.125-0.125-10-4.5-10.875-8.75s-0.688-5.647-4.75-6.076c-6.105-0.644-4.125,1.451-5.5-6.549s-7-7.75-14.375-7.875
	s-12.125,1.875-12,4.875s1.5,2.125-1.75,6s3.25,8.125,5.125,10.875s4.125,5.375-1.151,9s-1.349,5-1.224,6s-0.25,4.75-3.5,4.5
	c-6.735-0.518-4.625,1.875-3.125,4.375c2.37,3.95,2.573,7.262,2.383,9.22c2.398,0.112,1.647,1.261,4.575,0.822
	c1.667-0.25,0.25-1.75,2.583-1.75s-1.083,4.75,5.417,4.917s2.75,3.166,8,1.333s4.333,0,4.083-3s3.202-3.58,4.083,2.417
	c0.417,2.833-0.25,1.833,2.917,2.25s1.5,4.917,7.5,4.833s6.917-0.833,7.917,1.667c0.872,2.179,2.188,3.721,6.154,0.495
	c-0.627-0.437-1.397-1.053-1.487-3.579c-0.125-3.5,3.5-0.667,3-5.75s1.248-6.833,4.874-13.667s3.626-5.167,2.959-8.667
	s-2.5-0.5-2.583-3.75c-0.052-2.034,0.908-1.914,1.613-2.295C417.87,216.395,420.51,221.281,412.665,221.16z"/>
<path id="Aube" fill="#eeeeee" stroke="#000000" stroke-width="0.25" stroke-miterlimit="10" d="M447.415,200.66
	c-1-6.25,0.75-7-5.5-10.25c-4.029-2.095-4.213-7.771-3.836-11.542c-2.607-0.407-2.246,0.718-6.998,1.125
	c-5.833,0.5-8.833-5.833-9-8.5s-1.75-5.833-8-1.25s-10.833,4.083-14.167,6.667s-6.667,3.417-10.25-1.083
	c-0.202-0.253-0.402-0.474-0.6-0.679c-6.083,3.727-7.631,12.375-8.02,16.847c5.421,0.228,9.373,1.263,10.495,7.79
	c1.375,8-0.605,5.906,5.5,6.549c4.062,0.428,3.875,1.826,4.75,6.076s2.75,8.625,10.875,8.75c7.845,0.121,5.205-4.766,10.863,1.872
	c0.421-0.228,0.752-0.635,0.721-1.788c-0.083-3.083,8.917,2.083,10.417-5.75c0.306-1.599,4.754-1.129,8.158-0.493
	c-0.853-1.273,0.597-1.775-1.533-2.84c-4.931-2.465,1-3.625,3.5-4S448.415,206.91,447.415,200.66z"/>
<path id="LoiretCher" fill="#eeeeee" stroke="#000000" stroke-width="0.25" stroke-miterlimit="10" d="M323.665,239.285
	c-4.938-0.25-3.75,1.792-6.25,1.901s-1-2.943-4.5-1.776s-4.667,3.333-6.167,0s-2-4.167-5.667-5s-2.167-6-1.5-8.5
	s-3.5-1.833-1.333-4.814s-5-4.353-6.667-2.019s-5.333,3.955-10.601-2.833c-4.504-5.803-10.11-7.549-14.136-7.97
	c-0.153,0.325-0.348,0.697-0.596,1.136c-2.833,5-1.5,2.667-0.333,10.167s-3.667,0.334-3.667,6.667s-9.167,6.877-8.333,10.522
	c0.089,0.388,0.097,0.711,0.062,1c5.895-0.597,13.831-0.883,10.938,2.978c-1.968,2.627,0.354,1.5,2.344,2.833s6.989-4.5,7.823,4.5
	s0.667,17.5,5.167,17.5c2.671,0,5.93,2.819,7.265,6.052c4.792-2.255,12.253-5.312,16.735-4.885c3.827,0.364,5.75,2.273,6.227,4.173
	c1.397-0.056,2.985-0.626,3.19-2.882c0.375-4.125,2.125-1.413,6.125-1.332s4.441-1.909,4.5-4.918c0.125-6.375,3.875-3,4.5-7.5
	s-3.5-3.75-4.5-7.625c-0.842-3.262,2.304-5.27,5.854-4.039C329.213,240.43,327.493,239.479,323.665,239.285z"/>
<path id="Loiret" fill="#eeeeee" stroke="#000000" stroke-width="0.25" stroke-miterlimit="10" d="M352.275,207.505
	c-2.329,1.977-5.776,0.989-8.443,1.155s-2.333,3.167-4.25,1.083s3-3,2.75-5.833s-2.417-1.333-3.583-4s-2.25-3.5-5.917-3.333
	s-1.417-0.167-4.333-1.417s-2.333,3.083-5.667,2.917s-6.5,0.917-6.369,5.167s-0.548,5.333-5.798,8.901s-2.917,0.265-6.833,0.015
	s-0.167,2.667-4.333,2.667c-2.447,0-2.993,1.808-3.03,3.302c1.667,0.444,2.838,1.511,1.78,2.967c-2.167,2.981,2,2.314,1.333,4.814
	s-2.167,7.667,1.5,8.5s4.167,1.667,5.667,5s2.667,1.167,6.167,0s2,1.886,4.5,1.776s1.313-2.151,6.25-1.901
	c3.828,0.194,5.548,1.145,6.479,3.336c0.667,0.231,1.348,0.564,2.021,1.039c4.25,3,3.875,2.307,6.5,1.216s1.75,1.909,5.375,1.909
	s7.125,9.75,7.125,4.5s2.375-2.125,3.5-0.75c0.368,0.45,1.099,0.672,1.926,0.903c0.117-2.04,1.02-4.695,4.948-4.695
	c0.139,0,0.262,0.005,0.384,0.011c0.19-1.958-0.013-5.27-2.383-9.22c-1.5-2.5-3.61-4.893,3.125-4.375c3.25,0.25,3.625-3.5,3.5-4.5
	s-4.053-2.375,1.224-6s3.026-6.25,1.151-9c-1.575-2.31-6.41-5.678-5.993-8.993c-2.393,1.641-5.21,3.324-6.215,3.826
	C354.666,209.327,355.332,204.91,352.275,207.505z"/>
<path id="EureetLoir" fill="#eeeeee" stroke="#000000" stroke-width="0.25" stroke-miterlimit="10" d="M313.04,187.535
	c-4.5,0-2.125-8-6.25-9.5c-2.861-1.04-6.75-4.25-6.25-8.75s0-9.625-2.25-13.625s-3-1.875-3,1.375s-5.25,1.256-5.125,5.875
	c0.071,2.636-1.375,3-4.875,3.25s-4.25-2.375-6.375-0.875s-4.625,4-8.125,4c-1.728,0-3.993,1.402-5.844,2.821
	c2.882,1.645,0.132,5.671,4.136,6.471c4.167,0.833,3.5,13,0,13.5s-8.5,2.167-5.833,5.667c1.938,2.544,2.023,5.003,1.223,8.011
	c2.095,0.578,3.527,0.068,2.374,2.519c4.026,0.421,9.632,2.167,14.136,7.97c5.268,6.788,8.934,5.167,10.601,2.833
	c0.853-1.194,3.141-1.413,4.887-0.948c0.038-1.495,0.583-3.302,3.03-3.302c4.167,0,0.417-2.917,4.333-2.667s1.583,3.553,6.833-0.015
	s5.93-4.651,5.798-8.901c-0.068-2.199,0.751-3.545,2.016-4.314C318.034,194.028,316.813,187.535,313.04,187.535z"/>
<path id="Eure" fill="#eeeeee" stroke="#000000" stroke-width="0.25" stroke-miterlimit="10" d="M299.29,144.285
	c2.75-0.625,3.5-1.375,4.375-5s2.281-5.062,2.75-7.319c0.375-1.806,2.858,0.569,2.242-3.931c-0.447-3.265-1.167-4.491-2.671-5.872
	c-1.304,1.396-2.684,1.016-6.154-1.419c-4.75-3.333-11.667-1.417-11.917,3s-4.333,2.333-7.5,2.333s0.917,2-2.333,1.667
	c-4.489-0.46,0.667,5.167-3,4.083s-0.833-2.333-5.083-3.417c-5.279-1.346,0.417-1.917,0.917-3.167
	c1.615-4.037-10.667-2-11.167-4.917s-3,1.917-4.917-2.333c-1.13-2.504-3.758-1.766-5.731-0.738c0.794,0.12,0.458,0.562-1.852,1.822
	c-1.081,0.589-2.154,0.868-3.207,0.983c-0.546,3.194,0.31,5.437,0.457,7.35c0.167,2.167,3.218,1.936,1.792,2.75
	c-3.71,2.118-1.25,0.875,0.5,4.125c4.64,8.617-0.708,7.625-0.375,10.625s2.67,0,2.667,3.5c-0.002,2.216-1.198,2.963-2.75,3.216
	c0.444,2.824,2.017,6.258,7.083,5.951c5.5-0.333-0.125,1.583,6.667,5c3.285,1.653,3.5,1.833,3.333,4.333s-2.333,3.5,1.167,5
	c0.137,0.059,0.247,0.129,0.364,0.196c1.852-1.419,4.116-2.821,5.844-2.821c3.5,0,6-2.5,8.125-4s2.875,1.125,6.375,0.875
	s4.946-0.614,4.875-3.25c-0.125-4.619,5.125-2.625,5.125-5.875c0-2.283,0.373-4.001,1.373-3.44c-0.04-1.57-0.421-3.601-1.873-5.185
	C292.04,145.41,296.54,144.91,299.29,144.285z"/>
<path id="SeineetMarne" fill="#eeeeee" stroke="#000000" stroke-width="0.25" stroke-miterlimit="10" d="M383.999,172.41
	c1-2.5,1.917-4.167,0.413-5.417s-3.163-2.417-0.829-4.917c1.062-1.138,0.947-2.618,0.51-3.896c-0.475,0.085-1.128,0.125-2.052,0.104
	c-2.819-0.064-9.125-5.75-9.75-9.75s0.542-3.375-2.708-5.708c-0.6-0.43-0.978-0.84-1.214-1.236
	c-2.364,0.701-0.623,3.086-3.828,2.569c-3.875-0.625-3.5,0.75-5.625,1.25s-1.75-3.25-3.875-1s-2,1.125-5.625-0.5
	s-4.5,0.75-4.5,5.375s0.75,10.875,1,13.875s-1.167,5.083-1.333,8.25s-1.917,0.583-1.905,7.28c0.007,4.287-1.762,3.22-1.428,7.72
	s3.5,2.5-0.833,5.495c-2.1,1.451-2.668,3.961-2.702,6.165c0.378,0.48,0.705,1.084,1.035,1.841c1.167,2.667,3.333,1.167,3.583,4
	s-4.667,3.75-2.75,5.833s1.583-0.917,4.25-1.083s6.114,0.821,8.443-1.155c3.057-2.595,2.391,1.822,4.057,0.989
	c1.004-0.502,3.822-2.185,6.215-3.826c0.08-0.632,0.348-1.262,0.868-1.882c3.25-3.875,1.875-3,1.75-6s4.625-5,12-4.875
	c1.358,0.023,2.656,0.034,3.88,0.085c0.389-4.473,1.937-13.121,8.02-16.847C385.748,171.719,383.055,174.77,383.999,172.41z"/>
<path id="Oise" fill="#eeeeee" stroke="#000000" stroke-width="0.25" stroke-miterlimit="10" d="M367.415,136.827
	c-2.083-1.917-5.101,2.667-5.084-1.75c0.008-2.181,2.501,0.583,1.834-2.833s-1.75-1.75-1.833-3.333s4.833-0.75,5.5-6.833
	c0.438-3.999,2.417-3.083,0-3.667s0.768-3.462,0.75-5.667c-0.037-4.526-1.084-7.73-2.098-9.787
	c-3.427,1.188-12.007-0.945-15.735,4.454c-2.746,3.977-6,2.833-12.833-1.667s-8.833-2-14.167-2.333s-2.5-1.667-9-0.833
	s-1-3.5-3.5-3.667c-1.166-0.078-1.986-0.357-2.592-0.798c-0.829,0.29-1.557,0.967-1.992,2.298c-1.333,4.083,1.167-0.083-0.083,5.667
	s0.833,4.083,0.917,7.417s2.083,2.75,0,6.417c-0.561,0.988-1.032,1.737-1.513,2.253c1.505,1.381,2.224,2.607,2.671,5.872
	c0.617,4.5-1.867,2.125-2.242,3.931c-0.151,0.728-0.405,1.372-0.702,2.03c1.087,2.079,3.87,4.227,10.75,4.227
	c4.577,0,3.577-3.688,8.952,0s6.125-2.438,11.125,1.063c3.707,2.595,6.588,3.268,9.308,4.918c0.676-0.92,1.79-1.09,3.567-0.293
	c3.625,1.625,3.5,2.75,5.625,0.5s1.75,1.5,3.875,1s1.75-1.875,5.625-1.25c3.205,0.517,1.464-1.868,3.828-2.569
	C367.324,139.843,369.114,138.39,367.415,136.827z"/>
<path id="Essone" fill="#eeeeee" stroke="#000000" stroke-width="0.25" stroke-miterlimit="10" d="M331.79,167.66
	c-4-2.375-7.375-2.375-7.25,0.75s-4.375,2.625-4.25,4.75s1.375,0,1.375,2.5s-0.625,3.875-3,4.375
	c-1.635,0.344-3.388,4.952-4.322,7.792c2.763,1.313,3.747,6.817,4.136,11.103c1.179-0.717,2.745-0.933,4.353-0.853
	c3.333,0.167,2.75-4.167,5.667-2.917s0.667,1.583,4.333,1.417c2.627-0.119,3.926,0.279,4.881,1.493
	c0.033-2.204,0.602-4.713,2.702-6.165c4.333-2.995,1.167-0.995,0.833-5.495s1.436-3.433,1.428-7.72
	c-0.012-6.697,1.739-4.114,1.905-7.28c0.028-0.541,0.101-1.042,0.188-1.53C341.573,168.857,335.102,169.626,331.79,167.66z"/>
<path id="CorseduSud" fill="#eeeeee" stroke="#000000" stroke-width="0.25" stroke-miterlimit="10" d="M682.915,622.66
	c-4.749,2.172-6.625-4.375-6.5-9s-4.125-1.25-4.75-6.375s-4.625-2.375-5-5.875s-2.625-0.625-3.75-4.125
	c-1.698-5.282-5.25,0-6.875-5.25c-0.662-2.138-8.505-2.368-13.654-2.285c-0.18,0.887,0.802,1.776,3.029,3.285
	c3.875,2.625,5.5,4.625,0.75,5s-3-0.375-2.625,4.625s8.625,4.375,8.5,7.75s-5.303,3.25-5.25,7.625c0.023,1.94,2.625,1.25,6.875,1.75
	s0.875,2.625,1.125,4s2.5,2.375,0.125,3.625s-2.375,1.375-2.125,3.75s11.125,0.75,11.125,2.875s-7.125,5.625-7,7.25
	s0.25,3.875,5.375,5c13.05,2.864,11.875,6.625,16.125,8.125c4.975,1.756-0.125-2.625,1.5-4.875s0.125-5.625,3-6.625
	s4.584-4.412,2.833-3.875c-6.542,2.007-1.958-1,0-4.125s1.834-6.833,1.334-16.333c-0.016-0.301-0.008-0.568-0.012-0.852
	C686.219,619.545,684.8,621.799,682.915,622.66z"/>
<path id="HauteCorse" fill="#eeeeee" stroke="#000000" stroke-width="0.25" stroke-miterlimit="10" d="M692.582,600.41
	c0.167-8.167-2.667-10-2.667-16.333c0-14.167-4.167-14.5-4.167-14.5c-5.292-1.083-2.833-8.917-2.583-10.417s1.625-3.375,0.125-6.5
	s0.25-6.125-2.375-8.375s-4,1.375-2,3.375s0.5,2.375-0.625,4.375s-1.375,3.375,0,5s1.75,3.75-0.75,7s-3.75-0.125-9,0
	s-4.625,6.875-9.25,6.75s-6.125,6.625-8.875,6.625s-4.125,3.5-3.875,5.625s1.375,2.375-1.875,4.5
	c-1.382,0.903-2.146,1.559-2.279,2.215c5.149-0.083,12.992,0.147,13.654,2.285c1.625,5.25,5.177-0.032,6.875,5.25
	c1.125,3.5,3.375,0.625,3.75,4.125s4.375,0.75,5,5.875s4.875,1.75,4.75,6.375s1.751,11.172,6.5,9
	c1.885-0.861,3.304-3.115,4.155-4.935C686.964,609.063,692.42,608.318,692.582,600.41z"/>
<path id="ValdOise" fill="#eeeeee" stroke="#000000" stroke-width="0.25" stroke-miterlimit="10" d="M306.29,145.674
	c1.625,2.611,4.981-0.389,8.053,1.611s1.049,0.935,6.322,1.5c7,0.75,4.125,5.625,8.375,5.625s1.71-1.5,8.322-1.5
	c3.492,0,6.003-1.494,7.557-3.286c-0.001-0.113-0.003-0.229-0.003-0.339c0-2.357,0.23-4.125,0.933-5.082
	c-2.72-1.65-5.602-2.324-9.308-4.918c-5-3.5-5.75,2.625-11.125-1.063s-4.375,0-8.952,0c-6.88,0-9.663-2.148-10.75-4.227
	c-0.624,1.383-1.456,2.833-2.048,5.29c-0.576,2.388-1.103,3.525-2.178,4.204C303.448,143.808,305.518,144.434,306.29,145.674z"/>
<path id="Yvelines" fill="#eeeeee" stroke="#000000" stroke-width="0.25" stroke-miterlimit="10" d="M328.392,154.364
	c-3.308-0.49-1.12-4.871-7.727-5.579c-5.273-0.565-3.25,0.5-6.322-1.5s-6.428,1-8.053-1.611c-0.772-1.241-2.842-1.866-4.803-2.185
	c-0.557,0.352-1.259,0.583-2.197,0.796c-2.75,0.625-7.25,1.125-4.5,4.125c1.452,1.583,1.833,3.615,1.873,5.185
	c0.423,0.237,0.958,0.875,1.627,2.065c2.25,4,2.75,9.125,2.25,13.625s3.389,7.71,6.25,8.75c4.125,1.5,1.75,9.5,6.25,9.5
	c0.474,0,0.906,0.103,1.303,0.292c0.934-2.839,2.687-7.447,4.322-7.792c2.375-0.5,3-1.875,3-4.375s-1.25-0.375-1.375-2.5
	s4.375-1.625,4.25-4.75c-0.091-2.266,1.664-2.882,4.158-2.147C323.6,160.813,326.275,156.494,328.392,154.364z"/>
<path id="Paris" fill="#eeeeee" stroke="#000000" stroke-width="0.25" stroke-miterlimit="10" d="M333.037,165.245
	c1.708,1.771,3.046,1.072,5.378-0.584c3.167-2.25,3.583-6.25,1.083-8.333s-2.536-1.547-3.641-1.167c0,0-1,0.27-2.148,0.848
	c-2.054,1.034-4.581,3.059-2.71,6.319C331.768,163.667,332.425,164.61,333.037,165.245"/>
<path id="HautsdeSeine" fill="#eeeeee" stroke="#000000" stroke-width="0.25" stroke-miterlimit="10" d="M333.037,165.245
	c-0.612-0.634-1.27-1.577-2.039-2.917c-1.871-3.261,0.657-5.285,2.71-6.319c0.055-1.237-0.267-2.096-0.633-2.664
	c-1.369,0.443-1.295,1.066-4.036,1.066c-0.238,0-0.451-0.018-0.648-0.046c-2.117,2.13-4.792,6.449,0.306,11.899
	c0.862,0.254,1.812,0.672,2.806,1.237C332.633,167.067,332.978,166.139,333.037,165.245z"/>
<path id="ValdeMarne" fill="#eeeeee" stroke="#000000" stroke-width="0.25" stroke-miterlimit="10" d="M338.415,164.66
	c-2.332,1.657-3.67,2.355-5.378,0.584c-0.059,0.895-0.404,1.823-1.533,2.256c0.096,0.054,0.189,0.102,0.286,0.16
	c3.312,1.966,9.783,1.197,12.98,2.22c0.422-2.367,1.352-4.232,1.145-6.72c-0.011-0.136-0.025-0.286-0.038-0.435
	c-1.544-1.17-3.507-2.094-4.774-2.625C341.011,161.746,340.112,163.454,338.415,164.66z"/>
<path id="SeineSaintDenis" fill="#eeeeee" stroke="#000000" stroke-width="0.25" stroke-miterlimit="10" d="M337.362,152.91
	c-2.347,0-3.532,0.19-4.286,0.434c0.366,0.568,0.688,1.427,0.633,2.664c1.148-0.578,2.148-0.848,2.148-0.848
	c1.105-0.38,1.141-0.917,3.641,1.167c1.16,0.967,1.684,2.347,1.604,3.772c1.267,0.531,3.229,1.455,4.774,2.625
	c-0.272-3.057-0.926-8.727-0.958-13.101C343.365,151.416,340.854,152.91,337.362,152.91z"/>
</svg>
