<?xml version="1.0" encoding="utf-8"?>
<!-- Generator: Adobe Illustrator 16.0.0, SVG Export Plug-In . SVG Version: 6.00 Build 0)  -->
<!DOCTYPE svg PUBLIC "-//W3C//DTD SVG 1.1//EN" "http://www.w3.org/Graphics/SVG/1.1/DTD/svg11.dtd">
<svg version="1.1" id="Layer_1" xmlns="http://www.w3.org/2000/svg" xmlns:xlink="http://www.w3.org/1999/xlink" x="0px" y="0px"
	 width="595.28px" height="841.89px" viewBox="0 0 595.28 841.89" enable-background="new 0 0 595.28 841.89" xml:space="preserve">
<path id="ArunachalPradesh" fill="#eeeeee" stroke="#231815" stroke-miterlimit="10" d="M588.733,190.623
	c6.033,0.101,2.111-3.821,2.111-3.821c-1.711-8.647-13.273-6.536-13.273-6.536c-3.219-3.519-7.24,2.011-7.24,2.011
	c-4.625-0.804,3.318-10.357,3.318-10.357l-3.117-2.815c0.904-2.011-0.904-2.313-0.904-2.313c-1.711-0.704-4.324,3.62-4.324,3.62
	c0.1-2.414-1.408-3.318-1.408-3.318c6.535-6.234,2.246-5.028,2.246-5.028c-2.58,0.704-5.162-3.62-5.162-3.62
	c-1.508,0.704-9.451,6.938-9.451,6.938c-0.201,5.229-3.922,4.123-3.922,4.123c-2.514-2.514-9.252-1.609-9.252-1.609
	c-7.039-6.334-5.529-0.704-5.529-0.704c-6.336-0.704-7.744,6.938-7.744,6.938h-1.709c-4.223,8.749-15.184,9.251-15.184,9.251
	c-0.904,8.145-9.754,10.559-9.955,13.374c5.33,5.229-7.85,5.631-7.85,5.631c-2.924,3.52-5.738,3.52-5.738,3.52
	c-1.018-0.905-5.584-0.905-5.584-0.905c-1.408,10.659,7.441,7.173,7.441,7.173c5.363,2.212,0.535,4.424,1.273,7.307
	c0,0,2.346,1.005,2.594,4.747l0.221-0.323c2.816,0.335,11.865-4.29,11.865-4.29c8.045,3.821,11.129,0.268,11.129,0.268
	c12.938,0.67,10.658-6.167,10.658-6.167c7.24-5.832,6.168-8.313,6.168-8.313c-2.346-1.676-0.066-1.676-0.066-1.676
	c3.955,1.542,6.234-0.067,6.234-0.067c6.369-5.095,23.797-11.061,23.797-11.061c5.697-1.14,1.744,2.48,1.744,2.48
	c-2.549,1.81,1.139,10.726,2.277,9.185c1.141-1.542,1.744,1.675,1.744,1.675c-5.832,4.96-9.52,2.95-9.52,2.95
	c0.336,2.146-3.43,5.231-5.496,5.43c-3.018,4.223-6.234,3.352-6.234,3.352c1.205,4.022-10.258,6.385-7.039,8.447
	c4.428-0.725,9.363,1.32,11.158,2.165c1.148-2.284,3.221-5.502,6.338-7.092c3.176-3.455,6.889-5.193,9.451-7.542
	c5.129-10.558,17.195-9.352,17.195-9.352c15.084,11.563,2.313-2.815,2.313-2.815C578.878,196.857,588.733,190.623,588.733,190.623z"
	/>
<path id="Goa" fill="#eeeeee" stroke="#231815" stroke-miterlimit="10" d="M117.938,489.168c2.547-0.737,2.413-2.279,2.413-2.279
	c-3.419-1.742-1.408-3.553-1.408-3.553c2.682-3.151-6.838-4.491-6.838-4.491c-1.871-1.538-4.669-1.839-6.526-1.845
	c0.026,0.046,0.048,0.095,0.075,0.141h0c0.24,0.343,0.482,0.685,0.724,1.027c0.385,3.06,2.451,4.83,4.857,6.34
	c0.848,1.107,2.014,1.518,2.983,1.507c-0.959,0.102-2.199,0.32-2.505,1.943c-0.958,3.336,0.933,5.519,2.779,7.719
	C122.596,493.53,117.938,489.168,117.938,489.168z"/>
<path id="Karnataka" fill="#eeeeee" stroke="#231815" stroke-miterlimit="10" d="M193.756,466.711l-1.877-0.603
	c-8.782-0.135-6.302-2.414-6.302-2.414c8.581-2.077,3.218-6.502,3.218-6.502c4.961-5.631-0.268-8.581-0.268-8.581
	c0.737-3.688,6.637-7.642,6.637-7.642c-9.52-1.811-2.682-4.961-2.682-4.961c-1.81-2.077,2.346-5.899,2.346-5.899l-2.078-0.805
	c1.14-4.223-1.274-8.58-1.274-8.58l-6.167,5.296c-1.743-2.146-3.218,0-3.218,0c0.737,5.631-4.894,5.027-4.894,5.027
	c1.408,2.279-1.408,4.559-1.408,4.559c-5.027-4.626-6.234,2.011-6.234,2.011l-2.011-1.006c-0.335,3.352,0.737,7.24,0.737,7.24
	c-1.341-1.274-5.631-2.279-5.631-2.279c-1.542,1.676-3.821,0.805-3.821,0.805l-1.609-2.146c-3.218,0.402-5.028-1.81-5.028-1.81
	c-1.542,2.346,0,6.101,0,6.101c-1.475,1.073-1.005,6.301-1.005,6.301l-1.542-0.871c-0.134,1.609-6.837,0.871-6.837,0.871
	c0.537,2.816-2.011,2.279-2.011,2.279c-1.877-2.078-6.234-2.681-6.234-2.681c0.939,1.743-1.073,4.893-1.073,4.893
	c-4.894,0.201-5.028,3.218-5.028,3.218l-2.145,0.135c-1.609-4.491-5.965,1.408-5.965,1.408c-4.557-2.548,0.603,2.882,0.603,2.882
	c-1.676,1.407-0.603,2.347-0.603,2.347c5.096,1.743,3.111,4.559,3.111,4.559c-3.994-0.201-2.375,1.877-2.375,1.877
	c4.76-1.408,1.072,2.278,0,4.625c-2.415-0.22-4.65,1.742-5.911,3.125c2.511,0.683,5.397,1.929,3.765,3.847
	c0,0-2.011,1.811,1.408,3.553c0,0,0.134,1.542-2.413,2.279c0,0,4.658,4.362-3.445,6.509c0.229,0.273,0.458,0.547,0.68,0.822
	c0.13,0.991-1.901,2.455,0.825,2.911c1.466,0.245,2.099,1.62,2.74,3.091c2.682,6.15,3.788,12.867,6.911,18.851
	c0.344,0.66,0.697,1.321,0.674,2.223c-0.195,7.608,1.971,14.778,4.243,21.921h0.001h-0.001c0,0,0,0-0.001,0
	c0.026,0.045,0.093,0.192,0.183,0.397c4.867,1.988,10.217,6.423,10.217,6.423s-0.704,3.117,2.038,4.078
	c8.675,11.693,11.313,8.699,13.95,8.793c1.911,2.614,4.927,4.022,4.927,4.022c1.952,0.502,2.857,1.065,3.15,1.617
	c1.632-0.152,3.254,0.293,3.118,2.74c0,0,6.57,1.702,6.033-2.769c0,0,2.681-4.379,5.765,0c0,0,0.254-3.8,5.087-0.984
	c3.426,1.607,2.957,0.133,3.091-2.95c0,0,2.134-0.399,3.821-1.542c2.812-1.905,4.894-5.012-2.48-5.43l-1.542-1.007
	c0,0,5.431-2.145,2.95-9.519l3.653,0.335c0,0,0.838-8.581,5.061-3.15c0,0,1.615-2.243,5.55,1.23
	c0.492-3.186,2.092-3.348,2.092-3.348c-2.011-3.156,1.307-0.665,1.307-0.665c3.017,2.514,1.307-2.916,1.307-2.916
	c3.922-2.916,2.514-6.335,2.514-6.335l-4.123-0.805v-5.203c-4.827,0.227-4.625-1.132-4.625-1.132
	c-2.715-0.301-1.106-4.726-1.106-4.726l-2.313-0.101c-0.603-2.614-4.022-1.709-4.022-1.709c-0.804,2.514-3.117,3.117-3.117,3.117
	c-4.022-0.604-4.625,1.407-4.625,1.407c-1.005-0.704-1.508-2.916-1.508-2.916c-1.81,0-3.419-1.006-3.419-1.006
	c-2.614-2.614-2.514,2.815-2.514,2.815c-4.123-0.603-2.262-2.514-2.262-2.514c2.967-2.614-0.654-3.52-0.654-3.52
	c0.301-1.105-1.81-2.313-1.81-2.313c-2.313-4.826,6.033,3.117,6.033,3.117s1.357-2.664,4.676,1.408c0,0,3.921,0.604-0.654-2.514
	c0,0-0.955-2.363,2.615-2.515c0,0,1.609-1.156-1.86-4.122c0,0,0.754,5.229-2.112,0.251c0,0-3.62-1.106-3.972,1.559
	c0,0-6.888,1.81-2.866-4.625c0,0-6.838-1.006-3.218-7.14c0,0,1.96-4.475-0.503-4.224c0,0-2.112-4.173,1.659-1.659
	c0,0,0.654,1.811,2.212,0.353c0,0,1.458,0.904,2.262,0.653c0,0,5.43-3.419-0.503-9.15c0,0-1.86-3.017,1.81-4.776
	c0,0,0.754-1.006-0.955-1.81c0,0-3.067-4.224,5.179-4.224c0,0,3.217,0,4.324,0.754l0.937-1.533
	C190.715,468.932,193.756,466.711,193.756,466.711z"/>
<path id="Telangana" fill="#eeeeee" stroke="#231815" stroke-miterlimit="10" d="M273.126,432.522l-3.486,1.848l-2.547-8.015h-1.341
	l-0.67-1.743c0,0-4.106,5.027-1.542-0.604c0,0-4.625-10.709-8.698-7.441c0,0-0.804-3.167-7.34-2.463c0,0-3.017-0.353-0.704-2.715
	c0.302-1.408-1.056-1.509-1.056-1.509c-0.251-6.838,1.86-10.407,0-12.67c0,0-6.436-6.184-10.709-1.106c0,0-5.33-7.592-5.882-1.105
	c0,0-8.195,1.257-4.123-2.263c0,0-0.905-1.559-2.262-1.207c-0.302-2.865-4.357-3.68-9-3.017c0,0-1.659-2.916-5.48-0.603
	c0,0,4.223,1.659,0.453,4.575l0.101,5.027c0,0-5.48-0.704-2.815,1.91c0,0,2.162,3.922-3.017-0.402c0,0-4.375-0.05-4.375,5.833
	l-1.96,2.413l3.418,3.428c0,0-3.368,3.762-6.435,5.873c0,0,0.866,2.863-2.056,4.398l0,0c0.474,0.957,2.134,4.694,1.15,8.339
	l2.078,0.805c0,0-4.156,3.822-2.346,5.899c0,0-6.838,3.15,2.682,4.961c0,0-5.899,3.954-6.637,7.642c0,0,5.229,2.95,0.268,8.581
	c0,0,5.363,4.425-3.218,6.502c0,0-2.48,2.279,6.302,2.414l1.877,0.603c0,0-3.041,2.221-2.432,9.008l0.169-0.276
	c0,0,5.128,3.368,8.899,0.955c0,0,1.056,1.357,2.815,0.15l1.76,1.71c0,0,4.575-8.095,9.754-5.028c0,0,1.659-1.859,4.022,0.905
	c1.911,1.106,1.559-4.726,3.62-1.709c0,0-0.101-4.224,7.139-3.117c0,0-2.614-8.598,3.821-8.497c0,0,4.978-1.508,7.793-2.815
	c0,0,2.564,0.352,3.268,2.363c0,0,7.039-2.614,1.86-5.832l4.575-2.766c0,0,3.268,5.581,8.396,5.53c0,0,1.056-3.52-1.307-3.721
	c0,0-6.586-1.005-2.212-3.017c0,0,0.453,2.112,3.218-1.659c0,0,4.475,2.816,6.033,2.363c0,0,1.408-3.017,2.514-3.167
	c0,0,3.117,0.703,8.195-4.626c0,0,3.017,3.117,4.072-4.625c0,0,2.246-2.745,5.013-5.208
	C280.462,434.479,274.543,435.105,273.126,432.522z"/>
<path id="TamilNadu" fill="#eeeeee" stroke="#231815" stroke-miterlimit="10" d="M248.684,531.104c0.015-0.347-0.011-0.673-0.155-0.938
	l-1.949,0.497c0-1.542-1.273-1.34-1.273-1.34c-2.48,7.105-7.106,8.446-7.106,8.446c-1.609-4.29-2.883-0.671-2.883-0.671
	c-1.877-3.554-4.223-2.614-4.223-2.614c-0.872,8.513-3.352,4.625-3.352,4.625c-1.006,3.083-4.29,2.682-4.29,2.682
	c-0.604-3.151-6.838-1.676-6.838-1.676c-4.424,1.341-1.977,3.952-2.48,4.86c-3.553,6.401-6.771,5.128-6.771,5.128
	c-5.564-6.637-7.776-3.553-7.776-3.553c-4.223-5.431-5.061,3.15-5.061,3.15l-3.653-0.335c2.48,7.374-2.95,9.519-2.95,9.519
	l1.542,1.007c7.374,0.418,5.292,3.524,2.48,5.43c-1.688,1.143-3.821,1.542-3.821,1.542c-0.134,3.083,0.335,4.558-3.091,2.95
	c-4.833-2.815-5.087,0.984-5.087,0.984c-3.084-4.379-5.765,0-5.765,0c0.537,4.471-6.033,2.769-6.033,2.769
	c0.136-2.447-1.486-2.893-3.118-2.74c0.765,1.441-2.647,2.808-2.647,2.808c-3.117-0.503-1.81,3.017-1.81,3.017
	c2.715,0.2,6.335,3.218,6.335,3.218l-1.81,2.514c8.547-0.302,5.631,3.82,5.631,3.82c-1.005,0.905-0.804,3.018-0.804,3.018
	c5.832,0.904,3.921,5.933,3.921,5.933c-2.514,8.949,2.414,10.256,2.414,10.256c2.413-2.514,4.625-2.514,4.625-2.514
	c4.324,1.006,0.905,5.229,0.905,5.229c3.218,3.721,0.402,3.922,0.402,3.922c-2.916,12.268,1.911,7.341,1.911,7.341
	c2.614,3.419-1.106,7.34-1.106,7.34c-0.101,4.324-2.816,5.832-2.816,5.832c3.922,4.123,1.7,5.002,0.402,7.14
	c2.715,5.631,0,5.229,0,5.229c0,2.024-1.072,3.846-2.082,5.117c1.807,1.851,7.206,5.007,9.56,3.941
	c5.131-2.318,8.286-3.271,12.834-7.651c2.313-3.117,1.56-5.983,1.559-5.983c0.001-0.001-0.855-7.893,6.589-9.579
	c4.534-1.026,8.692-3.271,13.81-4.289c-2.831-1.442-3.422-3.589-2.23-5.878c2.896-5.561,6.868-10.51,9.391-16.293
	c7.082-4.735,8.458-0.494,9.907-0.611c3.266-0.266,1.226-7.945,1.377-11.515c0.003-0.215,0.005-0.538-0.001-0.911
	c-6.193-2.394-0.643-3.951-0.643-3.951c0.642-5.374-1.068-10.617-0.891-15.963h0l0.099-1.655h-0.001
	c0.016-0.052,0.031-0.104,0.047-0.155c-1.731,0.372-2.713,0.062-2.713,0.062c-4.759-2.782-0.603-3.185-0.603-3.185
	c-0.672-4.889,2.768-1.167,4.16,0.504c0.208-0.469,0.416-0.938,0.623-1.404c0,0-1.767-2.954,1.503-4.851
	c4.213-2.443,5.322-7.917,7.131-12.356c0.88-2.161,0.141-4.656,1.149-6.987C252.827,537.475,252.274,533.842,248.684,531.104z"/>
<path id="Maharashtra" fill="#eeeeee" stroke="#231815" stroke-miterlimit="10" d="M265.551,395.987
	c-4.156,0.201-5.423-3.62-5.423-3.62c-0.797-3.084-2.622-2.682-2.622-2.682c-2.48,4.022-1.34-2.077-1.34-2.077
	c7.307-3.821-0.872-4.425-0.872-4.425c-0.402-3.284,4.223-4.625,4.223-4.625v-5.497c-2.48,0.201-1.609-1.609-1.609-1.609
	c2.749-4.49,0.402-5.765,0.402-5.765c-3.285-1.006-1.877-4.759-1.877-4.759c10.123-3.688,0-4.425,0-4.425
	c-3.284-5.899-6.502-5.497-6.502-5.497c-2.279,2.413-6.771,1.675-6.771,1.675c-1.341-2.011-7.978-1.072-7.978-1.072v-1.341
	c-3.419-0.269-4.96-2.479-4.96-2.479c-0.604,1.675-3.352,3.352-3.352,3.352c-1.005-1.742-2.547-0.938-2.547-0.938
	c0.335,4.021-6.167,3.218-6.167,3.218c-2.48-3.956-4.692-0.67-4.692-0.67c-1.006-3.419-4.76-2.279-4.76-2.279
	c-3.486,4.291-12,4.29-12,4.29c-0.67-2.548-2.681-0.402-2.681-0.402c-4.759-5.162,2.346-2.95,2.346-2.95
	c-0.269-6.771-6.167-5.161-6.167-5.161c-2.346,3.821-3.553,2.346-3.553,2.346c-1.475-3.218-7.643,1.677-7.643,1.677
	c0.067,3.352-3.418,5.027-3.418,5.027c2.011,2.079-0.536,3.017-0.536,3.017c-3.821-0.67-3.084,1.542-3.084,1.542
	c-7.575,1.742-5.966-4.29-5.966-4.29c-2.48-4.76-11.664-2.146-11.664-2.146c-2.48-2.28-3.888,0.269-3.888,0.269
	c-1.14-1.676-4.223-1.207-4.223-1.207c-2.347-6.838-6.771-5.766-6.771-5.766c-6.704,4.358-6.331-4.691-6.331-4.691
	c-3.515-4.022-4.127-1.141-4.127-1.141c-2.002,0.382-3.577-0.128-4.685-0.768c0.085,0.496,0.172,0.852,0.172,0.852
	c-3.486-0.067-4,1.728-4,1.728c-4.692-0.067-0.804,2.547-0.804,2.547c-3.083,3.149,1.072,4.76,1.072,4.76
	c4.96-3.888,7.709,0.871,7.709,0.871c-4.357-0.067-10.458,3.62-10.458,3.62c-1.14,3.485-4.692,3.218-4.692,3.218
	c6.704,2.278,6.1,8.604,6.1,8.604h-3.017c2.279,4.047-3.151,3.193-3.151,3.193c-5.363-5.027-5.162-2.614-5.162-2.614
	c0.783,10.588-2.94,11.905-5.927,11.351c0.688,1.057,0.911,2.497-2.318,3.062c-3.017-2.949-2.748-4.424-2.748-4.424
	s-0.025-0.132,0.235-0.496c-1.777-0.153-3.732,1.003-5.023,1.966c-0.09,1.02-0.069,2.242,0.229,3.558
	c-2.614-2.614-2.033,5.973-0.872,8.514c0,0,3.888,0.737,0.134,2.815l0.053,4.888c-0.769,3.496,1.178,6.743,0.839,10.185
	c0.004-0.004,0.009-0.005,0.013-0.007c-0.005,0.002-0.009,0.005-0.013,0.008c1.202,2.934,2.612,5.829,1.621,9.15
	c-0.553,2.316-1.38,4.667,0.851,6.624v-0.001c0,0,0,0,0,0.001c1.577,4.197,2.921,8.448,3.059,12.982
	c-2.369,4.412,0.582,8.631,0.474,12.959c0.378-0.053,0.754-0.106,1.132-0.16c0.211,9.41,1.059,18.682,5.756,27.132
	c1.856,0.006,4.655,0.307,6.526,1.845c0,0,1.459,0.206,3.073,0.645c1.26-1.383,3.496-3.345,5.911-3.125
	c1.072-2.347,4.76-6.033,0-4.625c0,0-1.62-2.078,2.375-1.877c0,0,1.984-2.815-3.111-4.559c0,0-1.074-0.939,0.603-2.347
	c0,0-5.16-5.43-0.603-2.882c0,0,4.356-5.899,5.965-1.408l2.145-0.135c0,0,0.134-3.017,5.028-3.218c0,0,2.012-3.149,1.073-4.893
	c0,0,4.357,0.603,6.234,2.681c0,0,2.548,0.537,2.011-2.279c0,0,6.704,0.738,6.837-0.871l1.542,0.871c0,0-0.47-5.228,1.005-6.301
	c0,0-1.542-3.755,0-6.101c0,0,1.81,2.212,5.028,1.81l1.609,2.146c0,0,2.279,0.871,3.821-0.805c0,0,4.291,1.005,5.631,2.279
	c0,0-1.073-3.889-0.737-7.24l2.011,1.006c0,0,1.207-6.637,6.234-2.011c0,0,2.815-2.279,1.408-4.559c0,0,5.631,0.604,4.894-5.027
	c0,0,1.475-2.146,3.218,0l6.167-5.296c0,0,0.048,0.089,0.124,0.241c2.922-1.535,2.056-4.398,2.056-4.398
	c3.067-2.111,6.435-5.873,6.435-5.873l-3.418-3.428l1.96-2.413c0-5.883,4.375-5.833,4.375-5.833
	c5.178,4.324,3.017,0.402,3.017,0.402c-2.665-2.614,2.815-1.91,2.815-1.91l-0.101-5.027c3.771-2.916-0.453-4.575-0.453-4.575
	c3.821-2.313,5.48,0.603,5.48,0.603c4.643-0.663,8.698,0.151,9,3.017c1.357-0.352,2.262,1.207,2.262,1.207
	c-4.072,3.52,4.123,2.263,4.123,2.263c0.553-6.486,5.882,1.105,5.882,1.105c4.273-5.077,10.709,1.106,10.709,1.106
	c1.86,2.263-0.251,5.832,0,12.67c0,0,1.357,0.101,1.056,1.509c-2.313,2.362,0.704,2.715,0.704,2.715
	c1.358-0.146,2.457-0.12,3.365,0.005c3.328-1.852,3.758-3.415,3.758-3.415c-2.145-2.053-1.676-4.182-1.676-4.182
	c4.692-10.592,7.18-4.827,7.18-4.827C268.045,401.619,265.551,395.987,265.551,395.987z"/>
<path id="DadraandNagarHaveli" fill="#eeeeee" stroke="#231815" stroke-miterlimit="10" d="M102.156,378.245
	c-0.455-0.697-1.112-1.229-1.112-1.229c3.419-3.284-1.139-3.017-1.139-3.017c-1.586,1.226-2.277,1.964-2.58,2.387
	c-0.26,0.364-0.235,0.496-0.235,0.496s-0.269,1.475,2.748,4.424C103.067,380.742,102.844,379.302,102.156,378.245z"/>
<path id="Tripura" fill="#eeeeee" stroke="#231815" stroke-miterlimit="10" d="M494.349,278.584c-0.988,1.171-2.303,2.275-4.059,3.141
	c0,0-0.303,4.424-1.709,0.704c-3.42-0.502-3.721,3.52-9.15,3.117c0,0-6.838,9.553-1.408,15.184c0,0,0.604,11.765,4.324,9.854
	c0,0-2.615-8.246,1.006-5.631c0,0-1.811,3.318,3.518,6.737c0,0,5.531-2.413,2.414-8.647c0,0-0.402-2.815,1.91-2.313l0.504-5.33
	c0,0,5.43-1.106,7.139-3.318C499.806,285.758,496.938,281.257,494.349,278.584z"/>
<path id="Mizoram" fill="#eeeeee" stroke="#231815" stroke-miterlimit="10" d="M513.651,281.289c0.402-4.156-2.949-4.827-2.949-4.827
	c-4.289,1.475-5.229-2.145-5.229-2.145c-0.537,5.363-5.094,8.581-5.094,8.581c-0.709-3.616-2.207-2.657-3.461-0.952
	c1.521,2.584,2.559,5.96,1.918,10.135c0,0-0.201,5.631,2.715,8.849c0,0-1.879,8.447,5.244,19.407c0,0,1.293,16.804,2.801,6.492
	c0,0,2.313,0.245,3.922,3.865c0,0,2.916,0.628,4.625-5.116c0,0,3.318,1.999,2.615-5.04c0,0-3.219-0.805-1.912-9.452
	c0,0-5.832-2.715,2.414-3.017c0,0,5.73-12.871-2.816-24.837C517.251,281.395,513.651,281.289,513.651,281.289z"/>
<path id="Manipur" fill="#eeeeee" stroke="#231815" stroke-miterlimit="10" d="M538.054,249.782h-10.727
	c-0.938,9.117-6.703,6.569-6.703,6.569c-3.354-1.475-4.023,5.229-4.023,5.229c-1.205-0.804-1.607,5.229-1.607,5.229h-2.414
	c0.861,1.959-0.199,6.47-1.23,9.881c0.951,0.433,2.592,1.616,2.303,4.599c0,0,3.6,0.105,4.793,1.944c0,0,2.012-0.704,2.916,1.81
	c0,0,5.23,1.005,5.432-2.011l3.316,2.715c0,0,3.018-3.72,5.23,1.609c0,0,1.809,1.609,2.613-4.726c0,0,3.018-15.284,8.145-20.01
	c0,0,2.516-6.436-3.016-6.234c0,0-0.697-4.091,0.859-5.747l-1.73-1.661C543.55,239.727,538.054,249.782,538.054,249.782z"/>
<path id="Nagaland" fill="#eeeeee" stroke="#231815" stroke-miterlimit="10" d="M534.698,229.135c-2.014-6.838-2.453,3.352-6.242,6.301
	c1.15,2.682-0.727,2.95-0.727,2.95c2.545,6.569-2.412,4.692-2.412,4.692c0-2.815-3.084-1.608-3.084-1.608
	c1.475,3.486-2.414,3.595-2.414,3.595c0.67,2.255-2.949,5.522-2.949,5.522c1.59,0.167,2.346,3.262,2.688,5.563
	c0.32-0.027,0.674,0.03,1.066,0.202c0,0,5.766,2.547,6.703-6.569h10.727c0,0,5.496-10.056,4.156-0.805l1.73,1.661
	c0.393-0.418,0.924-0.689,1.654-0.689c3.619,0,1.869-4.125,2.313-7.441c1.408-5.53,7.541-8.145,1.811-13.876l-0.707-0.349
	c-1.795-0.845-6.73-2.889-11.158-2.165c-0.266-0.17-0.422-0.342-0.504-0.516C535.974,230.247,534.698,229.135,534.698,229.135z"/>
<path id="Meghalaya" fill="#eeeeee" stroke="#231815" stroke-miterlimit="10" d="M503.864,255.279c-2.111-1.307,0-4.022,0-4.022
	l-2.01-0.302c-2.213-4.726-7.643-0.503-7.643-0.503l-0.402-5.53c2.111-2.212,0-2.916,0-2.916c-1.307,2.413-8.447,1.207-8.447,1.207
	l-0.904,3.117c-1.709-3.922-3.621-0.704-3.621-0.704c0.504,3.922-2.313,2.313-2.313,2.313c-4.121,6.737-4.121,2.212-4.121,2.212
	c0.602-3.52-1.51-1.91-1.51-1.91c-1.809,3.418-3.217-1.006-3.217-1.006l-10.057-0.302c-1.809-1.408-6.938,1.006-6.938,1.006
	c-5.43-0.604-5.027,3.519-5.027,3.519c2.51,5.772-1.033,5.003-2.295,4.581c-0.707,2.342-0.807,5.391,3.199,5.877
	c0,0,10.057,3.427,27.754,1.11c0,0,9.854,2.719,12.67,0c0,0,4.424-2.104,6.838,1.208l3.619-0.208
	C512.813,258.195,503.864,255.279,503.864,255.279z"/>
<path id="Assam" fill="#eeeeee" stroke="#231815" stroke-miterlimit="10" d="M566.142,205.94c0,0-0.604-3.217-1.744-1.675
	c-1.139,1.542-4.826-7.375-2.277-9.185c0,0,3.953-3.62-1.744-2.48c0,0-17.428,5.966-23.797,11.061c0,0-2.279,1.608-6.234,0.067
	c0,0-2.279,0,0.066,1.676c0,0,1.072,2.48-6.168,8.313c0,0,2.279,6.837-10.658,6.167c0,0-3.084,3.553-11.129-0.268
	c0,0-9.049,4.625-11.865,4.29l-0.221,0.323c0,0-1.627,1.521-3.6,0.08l-0.904,2.413c0,0-1.51-2.614-2.715,0
	c0,0-5.129,2.112-5.129-0.603c0,0-1.609-0.604-3.117,1.81l-3.389,0.093c-4.152,1.817-10.59,0.107-10.588,0.107
	c-0.002,0-4.9-3.632-6.258-2.245c-2.434,2.487-7.607,4.143-9.914,4.785c-0.178,2.026-0.188,5.082,1.322,5.438
	c0,0-2.041,2.403-3.113,5.614c0.504,0.976,3.16,6.587,1.975,14.162c0,0,0.164,0.071,0.42,0.156c0.463-1.538,1.189-2.771,1.189-2.771
	s-0.727,1.233-1.189,2.771c1.262,0.422,4.805,1.191,2.295-4.581c0,0-0.402-4.123,5.027-3.519c0,0,5.129-2.414,6.938-1.006
	l10.057,0.302c0,0,1.408,4.424,3.217,1.006c0,0,2.111-1.609,1.51,1.91c0,0,0,4.525,4.121-2.212c0,0,2.816,1.609,2.313-2.313
	c0,0,1.912-3.218,3.621,0.704l0.904-3.117c0,0,7.141,1.207,8.447-1.207c0,0,2.111,0.704,0,2.916l0.402,5.53
	c0,0,5.43-4.223,7.643,0.503l2.01,0.302c0,0-2.111,2.715,0,4.022c0,0,8.949,2.916-4.424,8.748l6.436,2.112l-6.436-2.112
	c-0.117,2.542,2.938,3.095,3.418,4.022c0.338,0.65-1.182,2.319-3.418,1.408c0,0-4.424-3.218-2.111,1.307c0,0,0.053,4.23-2.98,7.82
	c0.881,0.908,1.789,2.033,2.57,3.362c1.254-1.706,2.752-2.664,3.461,0.952c0,0,4.557-3.217,5.094-8.581c0,0,0.939,3.62,5.229,2.145
	c0,0,0.271,0.058,0.646,0.228c1.031-3.412,2.092-7.922,1.23-9.881h2.414c0,0,0.402-6.033,1.607-5.229c0,0,0.525-5.226,2.957-5.431
	c-0.342-2.301-1.098-5.396-2.688-5.563c0,0,3.619-3.267,2.949-5.522c0,0,3.889-0.109,2.414-3.595c0,0,3.084-1.207,3.084,1.608
	c0,0,4.957,1.877,2.412-4.692c0,0,1.877-0.268,0.727-2.95c3.789-2.949,4.229-13.139,6.242-6.301c0,0,1.275,1.112,2.65-3.533
	c-0.904-1.946,8.65-4.24,7.543-7.931c0,0,3.217,0.872,6.234-3.352c2.066-0.199,5.832-3.285,5.496-5.43
	C556.622,208.89,560.31,210.9,566.142,205.94z"/>
<path id="Sikkim" fill="#eeeeee" stroke="#231815" stroke-miterlimit="10" d="M415.108,223.37c0,0,3.217-4.512,4.291-1.854h3.646
	c0.145-0.707,0.375-1.33,0.375-1.33c0.102-0.805,2.111-1.709-1.307-5.933c0,0-0.301-1.911,1.307-3.821c0,0,1.709-9.653-5.027-10.156
	c0,0-6.838,4.425-9.652,3.821c0,0,2.313,4.525-1.51,8.849c0,0-0.926,4.855-0.541,8.355
	C409.235,222.435,412.685,223.673,415.108,223.37z"/>
<path id="Punjab" fill="#eeeeee" stroke="#231815" stroke-miterlimit="10" d="M130.507,158.847c6.838,0.05,12.972,2.112,12.972,2.112
	c3.067-4.123,7.29,1.609,7.29,1.609c2.011-3.318,2.011,1.81,2.011,1.81c2.866-1.709,1.307,1.659,1.307,1.659
	c-2.564,2.715,2.062,4.223,2.062,4.223c1.357-8.095,7.089-4.424,7.089-4.424c1.508-2.162,3.771-1.458,3.771-1.458
	c0.653,1.86,3.67,2.212,3.67,2.212c0.402-1.408,3.771-3.268,3.771-3.268c-2.313-10.105,3.218-5.983,3.218-5.983
	c0.251-4.374,2.614,1.207,2.614,1.207c3.369-1.81,1.307-3.771,1.307-3.922s2.212-2.765,2.212-2.765c-1.609-4.374,4.123,0,4.123,0
	v-6.637c-6.485-2.715-3.553-4.307-3.553-4.307c4.424-2.413-3.151-4.491-3.151-4.491v-5.899c-2.614,0.335-4.424-3.419-4.424-3.419
	c-1.274,2.681-3.754,1.743-3.754,1.743c1.073-3.218-4.223-9.117-4.223-9.117c3.418-1.475-3.419-5.966-3.419-5.966
	c-7.106-0.536,3.419-8.044,3.419-8.044l-1.542-2.212c-2.965,3.16-7.013,3.321-9.02,3.172c0.154,0.155,0.31,0.313,0.473,0.479
	c-0.036,1.352-0.069,2.703-0.104,4.055c-1.669,1.366-3.583,1.665-5.704,1.558c-1.244-0.063-3.085-0.659-3.158,1.697
	c0,0-0.101,0.117-0.101,0.116c-4.576,1.625-5.913,2.757-6.989,5.748c0.256,0.777,1.234,1.337,1.491,2.114
	c0.753,0.954-1.826,2.763,0.779,3.243c-2.162,2.503-4.583,6.81-0.058,7.615c0.446,0.971-7.944,5.731-9.33,10.066
	c-10.62,4.749-4.117,8.605-6.917,12.187C129.343,158.554,130.507,158.847,130.507,158.847z"/>
<path id="JammuandKashmir" fill="#eeeeee" stroke="#231815" stroke-miterlimit="10" d="M169.22,95.063c0,0-1.072-3.083,2.95-0.67
	c0,0,0.67-3.218,5.229-2.547c0,0,3.083-10.324,15.284,1.475c1.039,1.005,3.856,1.21,5.229,2.279c0,0,4.291,0.67,8.849-2.547v2.816
	c0,0,4.424,0.804,3.486,5.363c0,0,3.352,2.145,6.167-1.609c0,0,4.29-2.011,0.536,6.167l3.219-0.593
	c0.48-2.958,6.477-7.25,5.729,0.538c-0.127,1.321,4.191,5.15,6.746,0.642c2.138-3.536,4.953-1.257,6.428-4.609
	c4.558-2.413-1.683-8.392-1.929-10.177c0.024-0.165,2.039-2.874-0.434-3.81c-0.001,0-0.002-0.001-0.002-0.001
	c-7.421,0.447-8.044-7.389-8.044-7.389c0.001,0,0.001,0,0.001-0.001c6.386,0.462,1.569-9.544,1.569-9.544s3.739-0.61,5.224-0.204
	c4.123,1.128,5.811-6.671,5.763-7.702c-0.042-0.888-0.184-1.703,0.991-1.629c2.887,0.183,3.092-1.931,3.494-3.912
	c6.104-0.412,7.154-5.367,6.865-10.589c1.014-2.563,4.122-3.353,1.823-6.339c0-0.001,0-0.001-0.001-0.002
	c2.633-2.728-2.473-4.354-2.405-4.486c-1.921-7.552-9.161-0.58-13.151-6.501c-1.344-1.758-3.165-1.168-4.061,0.118
	c-1.23,1.767-2.642,1.481-4.139,1.207c-5.642-1.035-17.849,4.942-17.849,4.942c-1.872-0.017-18.658,12.347-18.803,12.471
	c-6.743-9.572-8.943-19.655-8.943-19.655c-9.251,2.547-8.849-3.218-8.849-3.218c-5.631-0.805-0.736-2.837-0.736-2.837
	c0.514-0.966,0.745-6.288-0.66-7.043c-0.001,0-0.002,0.001-0.003,0.002l0.001-0.002c-0.31-1.976-4.099-10.768-8.801-5.802
	c0.546-8.664-9.538-5.881-10.605-5.639c-2.531-1.586-3.424-2.58-6.408-3.025c-0.072,0.924,1.222,1.393,0.809,2.43
	c-2.953-0.817-5.476,0.556-8.065,1.587c0.526,0.197,1.053,0.393,1.58,0.589c0.001,0,0.001,0,0.001,0c0,0,0,0-0.001,0
	c-0.428,0.367-0.856,0.733-1.285,1.099c-0.002,0.001-0.003,0.001-0.001,0c-0.687,0.021-10.875-5.707-5.237,1.667
	c0.648,0.848-2.776,0.197-3.021-0.039c-3.788,0.113-7.692-1.829-11.347,0.638c-1.936,1.211-2.458,3.783-4.669,4.8
	c-0.43,0.198,0.214,0.848,0.698,1.075c0,0,0,0,0,0c-0.478,0.481-0.957,0.962-1.436,1.443c-1.518-1.811-1.933,0.171-2.743,0.797
	c-7.251,1.15-4.034,12.546,3.876,8.658c3.486,0.268,3.473,2.599,3.469,2.622c0,0,0,0,0,0c0,0,0,0,0.001,0
	c0.013,0.011,1.197,3.416,2.99,4.283c2.389,1.639,5.021,2.542,8.504,2.331c-4.506,4.171,3.083,7.859,3.082,7.858
	c0,0,2.656-0.223,3.165,2.134c0,0-1.903,3.124-2.411,4.319c0,0,0.015,0.016,0.016,0.016c-0.001,0.001-0.002,0.002-0.003,0.004
	c-0.005-0.007-0.009-0.014-0.013-0.02c-2.716,1.192-6.891,0.382-6.967,5.228c-0.01,0.651-1.029,1.07-1.956,0.793
	c0,0-4.647-1.448-2.435,8.407c0,0,2.313,15.083,1.508,18.1c0,0-1.455,3.657,1.008,5.327c-0.797,2.354,2.003,1.167,2.354,2.393
	c-0.844,0.43-1.268,1.063-0.088,1.409c1.061,0.311,2.249,0.191,3.381,0.261l0,0c1.615,0.51,6.021,5.798,8.712,4.687
	c1.613,1.716,5.249,2.151,3.409,6.044c8.29,0.942,9.769,2.091,12.393,4.739c2.006,0.149,6.055-0.013,9.02-3.172
	C167.276,103.509,171.365,102.168,169.22,95.063z"/>
<path id="Uttarakhand" fill="#eeeeee" stroke="#231815" stroke-miterlimit="10" d="M202.135,164.177c0,0,0.134,7.843,5.296,4.156
	c0,0-1.274,8.313,6.837-0.67c0,0,1.944-1.475,5.162,3.352s10.19,4.894,5.028,6.302c0,0-3.217,1.072,2.548,5.564
	c0,0,4.692-2.347,4.089,2.011c0,0,4.424,1.475,6.771,3.419l7.642,0.269c0,0,3.819,6.946,5.359,1.61
	c-0.926-1.373-0.988-3.112,1.411-5.053c1.915-1.549,2.896-4.618,2.899-7.038c0.195-1.298-0.375-2.894,0.681-3.844
	c2.221-1.998,2.67-4.477,2.541-6.972l0,0c1.147-0.213,2.433-0.575,2.457-1.881c0.043-2.342,5.464-4.232,5.556-5.923
	c5.576,0.074-1.422-4.043-2.259-5.245c-2.542-3.645-6.339-4.667-10.59-4.394c-0.813-5.706-4.908-7.346-6.453-7.23
	c-1.632-3.8-2.713-4.114-5.6-1.615c-1.389-0.505-2.01-1.281-4.315-3.261s-6.299-13.979-8.978-5.732
	c-0.151,0.467-0.796,0.634-1.21,0.939c0.516,0.449,5.515,4.893-0.045,3.945c0,0-11.552-7.231-16.378-0.528
	c0,0-6.469-0.034-6.167,5.798c0,0-2.564,4.324-0.402,8.246l-4.223,2.815l7.642,3.989
	C207.431,157.205,203.543,163.774,202.135,164.177z"/>
<path id="HimachalPradesh" fill="#eeeeee" stroke="#231815" stroke-miterlimit="10" d="M192.448,145.071v4.625
	c3.419-0.402,7.341,3.52,7.341,3.52l4.223-2.815c-2.162-3.922,0.402-8.246,0.402-8.246c-0.302-5.832,6.167-5.798,6.167-5.798
	c4.827-6.703,16.378,0.528,16.378,0.528c5.561,0.947,0.562-3.496,0.045-3.945c0,0-0.001,0.001-0.001,0.001
	c-0.017-0.013-0.028-0.027-0.044-0.041c-0.346-1.122,1.213-3.193-1.506-3.133c-0.011-0.027-0.02-0.055-0.031-0.082
	c-1.537-3.215-0.027-3.787-0.199-7.437c-0.173-3.65-0.677-4.696-2.395-7.78c-1.718-3.083-0.842-4.886-1.263-7.329
	c-1.193-0.282-1.542-1.053-1.397-1.944l-3.219,0.593c3.754-8.178-0.536-6.167-0.536-6.167c-2.815,3.754-6.167,1.609-6.167,1.609
	c0.938-4.559-3.486-5.363-3.486-5.363v-2.816c-4.558,3.218-8.849,2.547-8.849,2.547c-1.373-1.068-4.19-1.274-5.229-2.279
	c-12.201-11.799-15.284-1.475-15.284-1.475c-4.558-0.67-5.229,2.547-5.229,2.547c-4.022-2.413-2.95,0.67-2.95,0.67
	c2.145,7.106-1.944,8.447-1.944,8.447l1.542,2.212c0,0-10.525,7.508-3.419,8.044c0,0,6.837,4.491,3.419,5.966
	c0,0,5.296,5.899,4.223,9.117c0,0,2.48,0.938,3.754-1.743c0,0,1.81,3.754,4.424,3.419v5.899c0,0,6.175,1.695,4.115,3.801
	C189.199,141.407,192.448,145.071,192.448,145.071z"/>
<g id="WestBengal">
	<path fill="#eeeeee" stroke="#231815" stroke-miterlimit="10" d="M444.757,230.669c-0.711,0.198-1.152,0.301-1.152,0.3
		c0,0-5.703-0.427-9.523-3.343c0,0-7.529,4.573-11.063-4.525c-0.154-0.397-0.09-1.019,0.027-1.586h-3.646
		c-1.074-2.658-4.291,1.854-4.291,1.854c-2.424,0.303-5.873-0.935-8.418-2.069c0.211,1.901,0.807,3.404,2.15,3.51
		c0,0,0,4.424,2.213,6.033c0,0,0.205,1.741-0.055,3.195l1.293,0.995c0,0-1.07,3.888,0.672,4.96c0,0,1.072,0.67-0.939,2.547
		c0,0-11.797,7.374-5.898,10.726c0,0,4.826,1.743,3.889,5.631c0,0-8.313,0.402-3.486,6.167l-2.055,2.815
		c0,0,3.664,1.274,2.658,9.318c0,0,3.418,4.156-1.207,3.788c0,0,2.078,3.385-5.027,10.357v2.815c0,0-5.766-5.229-4.156,2.547h-1.742
		c0,0-0.135,2.682-4.961,0l-2.682,4.424c0,0-6.57,0-8.582,5.363c0,0-1.475,1.073-3.754-1.743c0,0-1.742-1.61-2.279,1.943h-3.082
		c0,0,2.145,2.079-0.805,4.09c0,0,0.268,2.815,4.559,3.218c0,0,1.875,4.425,9.25,3.084c0,0,1.609,0.938-0.535,1.743
		c0,0-2.951,2.995,6.568,8c0,0-0.652,2.993,2.355,5.139l-2.623,2.28c0,0,1.207,1.608,4.424,2.815c0,0,0,8.714,4.424,2.278
		c0,0,1.969,3.908,6.816,6.11c2.578,0.663,4.48,0.237,5.75-2.532c0.74-1.614,2.193-3.029,3.615-4.169c0,0,4.736-3.298,2.455-6.381
		c0,0,3.754-0.134,1.475,3.889c0,0-0.4,4.29,0.939,5.496c0,0,2.412-3.485,3.754-2.011c0,0,3.217,0.537,2.814-5.095
		c0,0,5.9-0.938,5.363-3.754c0,0,2.549-0.806,4.424,1.877c0,0-2.852-6.354-3.367-12.033c0.838-4.827-1.557-5.429-2.264-5.933
		c0,0-0.352-3.318,2.213-5.229c0,0-1.307-1.709-4.826,0.251c0,0-1.207-3.821,0.402-6.184c0,0-6.838-2.866-4.426-7.994
		c0,0,9.705-8.296-2.613-11.011c0,0-11.363-2.715-7.693-9.553c0,0-0.402-6.436,4.072-2.212c0,0,2.615-2.162,2.666-6.687
		c0,0,10.508,1.106,10.105-3.922c0,0-0.855-1.307-2.012,0.503c0,0-2.363-3.218-2.363-4.475c0,0-4.775,4.726-8.195-3.62
		c-1.76-1.91-8.898-1.207-4.625-5.43c0,0,1.459-1.357-0.201-2.815l6.385-6.637c0,0-7.994-8.949,1.057-1.508
		c0,0,4.424,1.005,3.016,4.475l1.006,2.363c0,0,0.855-5.48,4.375-2.564c0,0,2.715,0.704-1.559-3.921c0,0,3.52-1.408,4.475,3.418
		c0,0,0.805,5.229,8.496,4.927c0,0,2.564-5.178,4.072-5.43c0,0,0.037,0.067,0.088,0.167c1.072-3.211,3.113-5.614,3.113-5.614
		C444.569,235.751,444.579,232.695,444.757,230.669z"/>
	<path fill="#eeeeee" stroke="#231815" stroke-miterlimit="10" d="M431.063,332.957c0,0-3.217,1.685-0.252,2.614
		C430.812,335.571,431.841,334.497,431.063,332.957z"/>
	<path fill="#eeeeee" stroke="#231815" stroke-miterlimit="10" d="M433.61,340.565c0,0-4.523-3.771-0.234,4.743
		c0,0,2.918,1.843,1.912-1.643L433.61,340.565z"/>
	<path fill="#eeeeee" stroke="#231815" stroke-miterlimit="10" d="M429.858,340.75c0,0-2.281-1.408-1.207,3.553
		c0,0,2.637,5.986,1.977-2.279L429.858,340.75z"/>
	<path fill="#eeeeee" stroke="#231815" stroke-miterlimit="10" d="M426.54,341.253c0,0-1.744-2.581-2.213,2.045
		c0,0-1.141,7.439,2.346,1.239C426.673,344.537,426.942,342.292,426.54,341.253z"/>
	<path fill="#eeeeee" stroke="#231815" stroke-miterlimit="10" d="M429.79,335.99c0,0-4.49,2.749,0.27,2.548
		C430.06,338.538,430.896,336.626,429.79,335.99z"/>
	<path fill="#eeeeee" stroke="#231815" stroke-miterlimit="10" d="M434.651,336.46c0,0-3.453-2.111-3.018,1.676
		C431.634,338.136,435.655,339.175,434.651,336.46z"/>
	<path fill="#eeeeee" stroke="#231815" stroke-miterlimit="10" d="M433.38,332.604c0,0-2.887,1.878-0.74,2.648
		C432.64,335.253,435.663,335.387,433.38,332.604z"/>
	<path fill="#eeeeee" stroke="#231815" stroke-miterlimit="10" d="M427.872,335.254c0,0-2.842-0.527-1.266,2.015
		C426.606,337.269,428.433,336.763,427.872,335.254z"/>
	<path fill="#eeeeee" stroke="#231815" stroke-miterlimit="10" d="M422.517,342.828c0,0-2.949,0-0.637,3.569
		C421.88,346.397,423.429,346.226,422.517,342.828z"/>
</g>
<path id="Rajasthan" fill="#eeeeee" stroke="#231815" stroke-miterlimit="10" d="M138.384,311.456c0,0-3.553-3.286-2.547-6.101
	c0,0,9.251,1.005,7.542-9.754c0,0,3.52-6.938-2.916-7.843c0,0,4.424-5.43-0.905-4.625c0,0-0.101-3.017,1.91-3.62
	c0,0-2-5.229,2.871-0.704c0,0,1.956,0.034-2.167-5.162c0,0-0.068-3.386,2.63,0.837c0,0,2.096,1.106,4.509-4.022
	c0,0,5.732-1.81,1.709,4.525c0,0-3.218,4.525,5.128,3.721l0.905,1.207c0,0,6.033-5.631,5.229,1.408c0,0,4.123,0,1.207,3.721
	c0,0-5.731-1.207-1.709,2.715c0,0-2.212,3.117,1.307,5.028c0,0-2.111,3.117-7.139,1.207c0,0-1.005,3.62,1.609,4.022l1.609,1.911
	l0.905-2.815c0,0,6.109,2.715,4.462-3.218c0,0,2.979,0.905,4.186-4.424c0,0,6.134,2.011,9.352,0.101c0,0,1.91,3.056,4.726,3.489
	c0,0,3.418-1.88,0.905-4.193l-0.101-5.631l3.218,1.81c0,0,4.625-5.229-2.112-6.234c0,0-4.223-2.414,0.402-2.011
	c0,0,0.101-3.821-0.704-5.028c0,0,4.927,0.93,7.943-1.546c0,0,3.318,4.362,2.816-3.883c0,0-1.609-4.927-4.022-0.704
	c0,0-13.977,2.615-14.379-8.245c0,0,10.055-12.972,33.384-21.117c0,0,6.134-9.553-1.005-4.324c0,0-2.112-2.715-3.318-0.302
	c0,0-4.022-1.81-4.022,1.106c0,0-4.424-1.609-5.027,1.408c0,0-4.324-2.917,4.223-4.324c0,0,4.223-1.81-1.911-2.614
	c0,0,4.927-4.223-2.112-7.24c0,0-1.783-0.855-2.217-9.098c-2.6,2.099-5.156,1.087-5.156,1.087c-1.475,4.022-3.754,2.414-3.754,2.414
	l0.134-7.374c4.022-3.754-1.475-4.424-1.475-4.424v1.475c-4.022,0.268-3.218,2.681-3.218,2.681c-1.743,0.402-3.218-3.62-7.24-4.156
	c0.67,1.743,0.938,3.352,0.938,3.352c-5.899-0.268-2.279,4.022-2.279,4.022c-8.581,1.743-3.486-4.29-3.888-8.447
	c-4.827-5.497-9.787-10.86-9.787-10.86c-0.536-15.15-4.022-13.809-4.022-13.809c-2.145,1.207-4.961,0.804-4.961,0.804
	c-1.475-2.815-4.424-3.62-4.424-3.62c-0.939,1.608-3.803,1.608-3.803,1.608c-5.145-3.083-0.869-2.681-0.869-2.681
	c2.299-7.911-0.69-5.899-0.69-5.899c1.877-6.436-0.67-5.229-0.67-5.229l-0.449-1.996c-2.343-0.492-5.405-0.964-8.634-0.988
	c0,0-1.164-0.293-1.867-3.288c-0.573,0.732-1.525,1.454-3.104,2.169c-1.66,1.189-3.725,0.388-5.478,1.125l-2.053,0.832
	c-2.145,18.77-15.552,23.597-15.552,23.597c-9.922,4.424-9.211,11.489-9.478,11.572c-3.651,0.101-6.456,7.201-6.726,7.995
	c-1.389,0.028-2.556,1.229-4.037,0.767c-0.035-1.097-0.03-2.225-1.585-2.244c-1.55-0.019-1.605,1.079-1.632,2.194
	c-1.85,0.619-4.266-1.043-5.661,1.405c-1.415-0.783-2.373,1.706-3.842,0.538c-0.356-0.73,0.262-2.227-1.126-2.067
	c-0.834,0.095-0.649,1.286-0.451,2.044c0.131,0.503,0.415,0.966,0.63,1.448c-1.214,0.891-2.44,1.139-3.69,0.065
	c-0.738-1.027-1.472-2.06-2.76-2.466c0.167-2.32,0.24-4.766-2.576-5.493c-4.259-0.743-7.094,2.541-7.094,2.541
	c-7.757,14.548-15.936,9.721-14.595,17.899c0,0-3.155,3.099,0.384,6.443c2.063,1.519,3.196,4.683,6.646,3.708
	c4.256-0.09,4.854,2.607,3.611,8.143c-0.273,0.5-3.268,4.365-0.184,7.18c0,5.229,3.56,5.005,5.926,5.39
	c2.654-0.295,3.853,0.926,4.098,1.17c0,0-2.382,7.249,9.684,21.997c-0.096,0.042-0.171,0.09-0.261,0.134h3.613
	c-0.536,3.218,1.877,2.279,1.877,2.279c2.413-2.548,4.424-0.805,4.424-0.805h4.558c0.67,4.156,6.838-0.67,6.838-0.67l1.207,2.95
	c3.888-0.671,5.229,4.692,5.229,4.692c2.949-5.363,4.558,2.145,4.558,2.145l4.157-0.402c1.609,2.28,2.011,0.402,2.011,0.402
	c-0.268-5.229,3.754-2.011,3.754-2.011c-2.547,2.011,0.671,2.815,0.671,2.815c-3.352,1.475-2.28,4.29-2.28,4.29
	c2.816,1.475,3.084,3.352,3.084,3.352l2.011-1.609c3.352,2.011-1.456,7.374-1.456,7.374c3.907,0,2.394,3.084,2.394,3.084
	c4.425,0,3.486,4.827,3.486,4.827c8.581,2.145,8.849,5.631,8.849,5.631h2.882c-0.021,0.857,0.004,1.604,0.063,2.265
	C132.35,314.401,135.645,313.905,138.384,311.456z"/>
<path id="Delhi" fill="#eeeeee" stroke="#231815" stroke-miterlimit="10" d="M187.32,191.058c-4.291,4.156,2.547,3.218,2.547,3.218
	c1.609,3.888,4.291-0.134,4.291-0.134l-2.815-6.971C185.711,187.572,187.32,191.058,187.32,191.058z"/>
<path id="Bihar" fill="#eeeeee" stroke="#231815" stroke-miterlimit="10" d="M412.964,239.995c-1.742-1.073-0.672-4.96-0.672-4.96
	l-1.293-0.995c-0.182,1.015-0.586,1.892-1.455,1.933c-2.127,0.102-3.016,4.726-3.016,4.726l-2.715-2.815
	c-4.826,3.117-9.553,2.112-9.553,2.112c-0.201,2.212-1.541,1.509-1.541,1.509c-4.594-2.012-3.186-7.441-6-3.741
	c-1.936,2.542-3.52,4.344-7.096,1.356s-12.313-3.348-12.313-3.348c-2.211,4.223-5.529,0.301-5.529,0.301
	c1.508-7.542-2.916-4.525-2.916-4.525c-3.621,4.123-6.838,2.514-6.838,2.514c0.703-2.514-2.777-2.211-2.777-2.211
	c-0.988-2.194-3.842-2.991-5.789-3.095c-1.398-0.075-3.254-0.375-2.75-2.093c1.182-4.026-0.771-6.173-4.934-5.872
	c-1.01,0.073-4.139-2.507-5.168-2.717c0,0-5.303,0.844-7.084,2.386c0,0,6.447,6.194,5.039,10.887l4.021,0.537
	c0,0-1.072,3.486,3.018,4.223c0,0,1.273,1.877-5.699,1.073c0,0-0.736,2.011-3.217,2.48c0,0-2.412,2.078,4.76,2.748
	c0,0,3.285,2.145-2.748,4.022c0,0,0.602,4.759,10.994,8.446c0,0,4.625,3.888-4.291,2.48c0,0-1.08,2.022-4.797,0.307
	c0,0-5.527,8.207-13.973,10.754c0,0-4.291,6.1,2.814,12.401c0,0,1.207,3.084-1.475,3.889c0,0,10.658,4.357,12.133-0.604
	c0,0,2.279,5.148,5.096,2.373c0,0,2.547-1.435,2.412,3.258c0,0,5.633,3.888,4.693-0.537l2.145-0.536c0,0,1.477-5.094,4.961,1.073
	c0,0,14.213-2.949,14.48-10.458c0,0,7.91-0.804,8.848,4.424c0,0,3.621,0.402,2.951,4.29c0,0,3.619,2.146,3.754-3.352
	c0,0,2.682-2.95,3.486-0.402c0,0,2.277-3.352,3.887,0.134c0,0,4.91-3.083,4.232-11.396c0,0,3.879-0.537,3.41-4.224l3.352,0.067
	c0,0-0.221-7.308,6.66-0.939l2.055-2.815c-4.826-5.765,3.486-6.167,3.486-6.167c0.938-3.888-3.889-5.631-3.889-5.631
	c-5.898-3.352,5.898-10.726,5.898-10.726C414.036,240.665,412.964,239.995,412.964,239.995z"/>
<path id="Jharkhand" fill="#eeeeee" stroke="#231815" stroke-miterlimit="10" d="M407.132,277.2c1.006-8.044-2.658-9.318-2.658-9.318
	c-6.881-6.369-6.66,0.939-6.66,0.939l-3.352-0.067c0.469,3.687-3.41,4.224-3.41,4.224c0.678,8.312-4.232,11.396-4.232,11.396
	c-1.609-3.486-3.887-0.134-3.887-0.134c-0.805-2.547-3.486,0.402-3.486,0.402c-0.135,5.497-3.754,3.352-3.754,3.352
	c0.67-3.888-2.951-4.29-2.951-4.29c-0.938-5.229-8.848-4.424-8.848-4.424c-0.268,7.508-14.48,10.458-14.48,10.458
	c-3.484-6.167-4.961-1.073-4.961-1.073l-2.145,0.536c0.939,4.425-4.693,0.537-4.693,0.537c0.135-4.692-2.412-3.258-2.412-3.258
	c-2.816,2.775-5.096-2.373-5.096-2.373c-1.475,4.961-12.133,0.604-12.133,0.604s-0.088,7.172-2.625,8.379
	c0,0,0.135,0.938,3.021,1.207c0,0,1.682,1.207,1.414,3.083c4.559,1.341,5.094,8.447,9.518,7.642c0,0,1.072,1.609,0,3.218v3.083
	c0,0,1.877,0.738,1.676,4.291c0,0,1.609,4.29,5.832,2.949c0,0,0,4.336-5.697,9.039c0,0,5.564,7.721,11.195,2.491
	c0,0,6.033,0.783,10.994-2.491v7.452c0,0-5.9,2.413,4.021,2.949c0,0,2.816-4.424,8.18-1.072c0,0,4.691-2.01,3.352,2.146
	c0,0,7.643,0.447,2.682-12.245c0,0,3.217-0.761,4.021,1.519c0,0,4.961-0.736,6.303,4.257c0,0,3.35-6.636,5.094,1.659l1.605-0.131
	l2.492-2.165c-3.008-2.146-2.355-5.139-2.355-5.139c-9.52-5.005-6.568-8-6.568-8c2.145-0.805,0.535-1.743,0.535-1.743
	c-7.375,1.341-9.25-3.084-9.25-3.084c-4.291-0.402-4.559-3.218-4.559-3.218c2.949-2.011,0.805-4.09,0.805-4.09h3.082
	c0.537-3.553,2.279-1.943,2.279-1.943c2.279,2.815,3.754,1.743,3.754,1.743c2.012-5.363,8.582-5.363,8.582-5.363l2.682-4.424
	c4.826,2.682,4.961,0,4.961,0h1.742c-1.609-7.776,4.156-2.547,4.156-2.547v-2.815c7.105-6.972,5.027-10.357,5.027-10.357
	C410.55,281.356,407.132,277.2,407.132,277.2z"/>
<path id="UttarPradesh" fill="#eeeeee" stroke="#231815" stroke-miterlimit="10" d="M229.151,244.553
	c-7.375,12.335-5.363,14.748-5.363,14.748c-12.871,1.743-9.385,8.044-9.385,8.044c3.889,2.414-0.67,3.754-0.67,3.754
	c-0.134,5.229-3.486,4.558-3.486,4.558l2.351,6.972c-3.147,2.279,1.806,2.815,1.806,2.815c-0.804,5.363,1.207,4.157,1.207,4.157
	c0.804-5.363,4.29-1.341,4.29-1.341c0.67,4.29,2.413,1.341,2.413,1.341l1.341,1.713c6.972-3.381,1.877-6.138,1.877-6.138
	c2.547-3.888-3.352-3.754-3.352-3.754c2.949-5.899-1.475-5.765-1.475-5.765l0.134-4.424c-2.949-0.938-2.095-3.486-2.095-3.486
	c-5.329-1.961,1.709-4.073,1.709-4.073c0.201,5.581,4.173-2.766,5.48-2.815c1.307-0.05,0.502,4.123,0.502,4.123
	c-3.569,1.96-1.709,2.111-1.709,2.111c3.368-1.86,0.804,1.911,1.156,2.464c0.352,0.553,1.86-2.866,2.916-1.157
	c-0.151,2.263,2.313,1.76,2.313,1.76c3.369,0.251,2.934-2.131,2.934-2.131c-2.615-3.972,3.401,0.371,3.401,0.371
	c-4.424,3.52-1.207,4.475-1.207,4.475c-0.352-2.414,2.011-1.659,2.011-1.659c1.056-2.715,1.86-0.302,1.86-0.302l4.324,0.101
	c0.402-5.179,8.899-6.033,8.899-6.033l3.972,3.681c-3.117,2.776-2.967,5.218-2.967,5.218c3.067-3.821,3.57,0.654,3.57,0.654
	c0.654-4.776,2.463-2.866,2.463-2.866c3.117,0.352,5.983-1.458,5.983-1.458c-1.207,0.855-1.659,6.083-1.659,6.083
	c1.91-2.061,7.34-1.005,7.34-1.005c1.659-8.597,5.53-3.017,5.53-3.017c2.011-5.078,3.721-1.709,3.721-1.709
	c-2.665,2.916,1.609,2.263,1.609,2.263c0.553,1.91,3.67,1.458,3.67,1.458l0.785,3.369h3.388c-0.604,2.413,2.463,1.508,2.463,1.508
	l1.24,1.929c1.609,4.359,1.743,0.87,1.743,0.87l4.023-0.536c4.021-1.475,4.758,2.413,4.758,2.413c-4.223,0.805,0,4.961,0,4.961
	l-2.346,4.592c1.199,0.749,1.785,2.564,2.072,4.203c3.734-0.307,2.416,3.887,8.922,1.127c-0.102-2.58,1.73-3.911,3.578-4.599
	c-1.744-0.371-1.846-1.033-1.846-1.033c2.537-1.207,2.625-8.379,2.625-8.379c2.682-0.805,1.475-3.889,1.475-3.889
	c-7.105-6.301-2.814-12.401-2.814-12.401c8.445-2.547,13.973-10.754,13.973-10.754c3.717,1.715,4.797-0.307,4.797-0.307
	c8.916,1.408,4.291-2.48,4.291-2.48c-10.393-3.687-10.994-8.446-10.994-8.446c6.033-1.877,2.748-4.022,2.748-4.022
	c-7.172-0.67-4.76-2.748-4.76-2.748c2.48-0.47,3.217-2.48,3.217-2.48c6.973,0.804,5.699-1.073,5.699-1.073
	c-4.09-0.737-3.018-4.223-3.018-4.223l-4.021-0.537c1.408-4.692-5.039-10.887-5.039-10.887c-1.064-0.219-4.393-2.278-7.496-1.582
	c-2.514,2.414-4.123,2.715-4.123,2.715c-0.102-5.531-10.057-3.419-10.057-3.419c1.711-7.642-2.814-3.62-6.133-4.424
	c-5.832-6.033-11.563-3.821-11.563-3.821c-3.821-3.117-10.594-7.009-10.594-7.009c-0.108-3.612-2.73-4.334-5.543-4.837
	c0,0-2.561-0.568-6.668-3.222c-3.801-5.114-4.363-1.21-5.855-1.514c-0.403-0.057-3.344-1.257-4.627-3.158
	c-1.54,5.336-5.359-1.61-5.359-1.61l-7.642-0.269c-2.346-1.944-6.771-3.419-6.771-3.419c0.603-4.357-4.089-2.011-4.089-2.011
	c-5.765-4.492-2.548-5.564-2.548-5.564c5.162-1.408-1.81-1.475-5.028-6.302s-5.162-3.352-5.162-3.352
	c-8.111,8.983-6.837,0.67-6.837,0.67c-5.162,3.687-5.296-4.156-5.296-4.156c1.408-0.402,5.296-6.972,5.296-6.972l-5.784-3.019
	c-17.544,14.598-10.305,32.984-10.305,32.984l2.815,6.971v2.816c2.682,2.949,4.022,7.642,4.022,7.642
	c-4.559,1.207-1.475,4.022-1.475,4.022c-0.625,1.005-1.289,1.73-1.949,2.265c0.435,8.243,2.217,9.098,2.217,9.098
	c7.039,3.017,2.112,7.24,2.112,7.24c6.134,0.805,1.911,2.614,1.911,2.614c-8.547,1.408-4.223,4.324-4.223,4.324
	c0.603-3.017,5.027-1.408,5.027-1.408c0-2.917,4.022-1.106,4.022-1.106c1.207-2.413,3.318,0.302,3.318,0.302
	c4.025-2.948,3.831-1.198,2.896,0.891C233.333,230.965,229.151,244.553,229.151,244.553z"/>
<path id="Chhattisgarh" fill="#eeeeee" stroke="#231815" stroke-miterlimit="10" d="M277.417,425.919c0,0,1.509-2.916,5.128-2.715
	c0,0,1.911-5.631,4.525-4.826c0,0,1.006-2.112-1.106-3.117c0,0,5.655-2.012,6.85-7.24c0,0-0.716-11.061-4.235-12.268l1.609-5.229
	c0,0-9.05-2.313-3.52-7.844l1.911,1.609c0,0,7.441-1.006,6.938,4.122c0,0,1.208,0.43,2.715-1.394c0,0,3.721-0.215,3.117,3.204
	c0,0,4.021-1.609,1.307-4.727c0,0-6.636,2.313-5.832-6.837c0,0,3.318-2.816-1.106-5.33l-0.302-8.647c0,0,1.912-0.201,2.414,2.111
	c0,0,3.619-2.212,3.318-8.346c0,0,9.854-0.604,10.156,1.408c0,0,2.514,1.81,2.916-4.928c0,0,4.928,1.106,3.117-5.933
	c0,0,1.609-5.631,4.928-7.039c0,0-6.135-4.424,8.949-10.859l-0.102-3.497c5.697-4.703,5.697-9.039,5.697-9.039
	c-4.223,1.341-5.832-2.949-5.832-2.949c0.201-3.553-1.676-4.291-1.676-4.291v-3.083c1.072-1.609,0-3.218,0-3.218
	c-4.424,0.805-4.959-6.301-9.518-7.642c0.268-1.877-1.414-3.083-1.414-3.083c-0.461-0.043-0.846-0.104-1.176-0.174
	c-1.848,0.688-3.68,2.019-3.578,4.599c-6.506,2.76-5.188-1.434-8.922-1.127l0,0c0,0-5.859,3.038-5.859,5.551
	c0,0-6.602-4.022-14.764-2.313l-1.928-2.112c0,0-3.117,1.307,0,3.62c0,0,0.905,0.704-2.212,2.816c0,0-2.011,2.715,3.72,2.313
	c0,0,10.76,3.52,6.938,9.754c0,0-2.011,0.905-3.419,0.804c0,0-4.726,10.257-10.458,12.268l-6.134,0.704v3.419
	c0,0-3.017-0.131-2.414,4.661h-2.241v1.976c0,0-3.893,0.101-1.077,4.524c0,0,1.207,2.213-2.514,2.313v5.933
	c0,0-2.034,1.81-5.542,2.715c1.701,0.175,8.606,1.126-0.357,4.392c0,0-1.408,3.753,1.877,4.759c0,0,2.346,1.274-0.402,5.765
	c0,0-0.872,1.811,1.609,1.609v5.497c0,0-4.625,1.341-4.223,4.625c0,0,8.179,0.604,0.872,4.425c0,0-1.14,6.1,1.34,2.077
	c0,0,1.824-0.402,2.622,2.682c0,0,1.267,3.821,5.423,3.62c0,0,2.494,5.632-5.423,5.698c0,0-2.487-5.765-7.18,4.827
	c0,0-0.469,2.129,1.676,4.182c0,0-0.43,1.563-3.758,3.415c3.458,0.478,3.976,2.458,3.976,2.458c4.072-3.268,8.698,7.441,8.698,7.441
	c-2.564,5.631,1.542,0.604,1.542,0.604l0.67,1.743h1.341l2.547,8.015l3.486-1.848C273.126,432.522,277.115,430.344,277.417,425.919z
	"/>
<path id="Odisha" fill="#eeeeee" stroke="#231815" stroke-miterlimit="10" d="M397.276,339.342c-4.424,6.436-4.424-2.278-4.424-2.278
	c-3.217-1.207-4.424-2.815-4.424-2.815l0.131-0.115l-1.605,0.131c-1.744-8.295-5.094-1.659-5.094-1.659
	c-1.342-4.993-6.303-4.257-6.303-4.257c-0.805-2.279-4.021-1.519-4.021-1.519c4.961,12.692-2.682,12.245-2.682,12.245
	c1.34-4.155-3.352-2.146-3.352-2.146c-5.363-3.352-8.18,1.072-8.18,1.072c-9.922-0.536-4.021-2.949-4.021-2.949V327.6
	c-4.961,3.274-10.994,2.491-10.994,2.491c-5.631,5.229-11.195-2.491-11.195-2.491l0.102,3.497
	c-15.084,6.436-8.949,10.859-8.949,10.859c-3.318,1.408-4.928,7.039-4.928,7.039c1.811,7.039-3.117,5.933-3.117,5.933
	c-0.402,6.737-2.916,4.928-2.916,4.928c-0.303-2.012-10.156-1.408-10.156-1.408c0.301,6.134-3.318,8.346-3.318,8.346
	c-0.502-2.313-2.414-2.111-2.414-2.111l0.302,8.647c4.424,2.514,1.106,5.33,1.106,5.33c-0.804,9.15,5.832,6.837,5.832,6.837
	c2.715,3.117-1.307,4.727-1.307,4.727c0.604-3.419-3.117-3.204-3.117-3.204c-1.508,1.823-2.715,1.394-2.715,1.394
	c0.503-5.128-6.938-4.122-6.938-4.122l-1.911-1.609c-5.53,5.531,3.52,7.844,3.52,7.844l-1.609,5.229
	c3.52,1.207,4.235,12.268,4.235,12.268c-1.194,5.229-6.85,7.24-6.85,7.24c2.112,1.005,1.106,3.117,1.106,3.117
	c-2.614-0.805-4.525,4.826-4.525,4.826c-3.62-0.201-5.128,2.715-5.128,2.715c-0.301,4.425-4.29,6.604-4.29,6.604
	c1.417,2.583,7.336,1.956,11.616,1.11c3.363-2.991,7.496-5.565,9.316-2.284c1.559-1.206,3.921-3.82,1.609-4.524
	c0,0-1.184-0.503,0.966-2.614c0,0-2.073-2.263,2.604-5.078c0,0,4.324,3.469,1.76,5.279c0,0-0.504,3.972,3.971-1.76l0.354-1.156
	c0,0,2.211-0.151,3.016,1.961c0,0,6.234-2.916,1.508-6.033c0,0,2.635-1.76,1.771-3.872c0,0,9.592-0.703,5.168-3.569
	c0,0-1.156-3.218,2.514-0.754c0,0,0.1-3.973,2.412-1.207l1.258-2.464c0,0,1.006,2.615,3.469,2.564c0,0,1.76,2.614,2.063,3.821
	c5.631,0,6.686,2.514,9.352,1.608c0,0,3.82-2.966,1.961-4.676c0,0,1.658-2.815,4.676-1.559c0,0-1.309-2.161,0.4-2.463h1.158
	l0.289,3.259c0.15-0.17,0.303-0.342,0.453-0.513c0,0,4.637-8.06,9.531-11.277c2.748-3.084-1.428-0.627-1.779-0.883
	c-3.336-2.414,5.1-8.953,8.348-6.96c0.475,1.015-4.545,5.167-3.15,6.569c6.703-5.832,14.111-6.093,18.494-8.813
	c1.334-0.626,4.014-6.169,7.959-7.325c1.107-0.324,3.74-2.228,2.641-3.117c-2.615-2.111-0.453-3.339,1.508-4.273
	c0.848-0.315,4.451-3.421,3.75-4.478c-0.35-0.525-5.66,4.125-5.006,1.159c0.4-1.91,3.861-2.163,3.67-2.967
	c-0.859-3.584-3.359-7.062-1.682-10.09c1.973-3.559,5.047-6.622,9.387-6.16c3.424,0.363,3.486-1.274,3.635-3.532
	C399.245,343.25,397.276,339.342,397.276,339.342z"/>
<path id="MadhyaPradesh" fill="#eeeeee" stroke="#231815" stroke-miterlimit="10" d="M262.333,347.89
	c3.721-0.101,2.514-2.313,2.514-2.313c-2.816-4.424,1.077-4.524,1.077-4.524v-1.976h2.241c-0.603-4.792,2.414-4.661,2.414-4.661
	v-3.419l6.134-0.704c5.731-2.011,10.458-12.268,10.458-12.268c1.408,0.101,3.419-0.804,3.419-0.804
	c3.821-6.234-6.938-9.754-6.938-9.754c-5.731,0.402-3.72-2.313-3.72-2.313c3.117-2.112,2.212-2.816,2.212-2.816
	c-3.117-2.313,0-3.62,0-3.62l1.928,2.112c8.162-1.709,14.764,2.313,14.764,2.313c0-2.514,5.859-5.551,5.859-5.551
	c-0.287-1.638-0.873-3.454-2.072-4.203l2.346-4.592c0,0-4.223-4.156,0-4.961c0,0-0.736-3.888-4.758-2.413l-4.023,0.536
	c0,0-0.134,3.489-1.743-0.87l-1.24-1.929c0,0-3.067,0.905-2.463-1.508h-3.388l-0.785-3.369c0,0-3.117,0.452-3.67-1.458
	c0,0-4.273,0.653-1.609-2.263c0,0-1.709-3.369-3.721,1.709c0,0-3.871-5.581-5.53,3.017c0,0-5.43-1.056-7.34,1.005
	c0,0,0.452-5.229,1.659-6.083c0,0-2.866,1.81-5.983,1.458c0,0-1.81-1.91-2.463,2.866c0,0-0.503-4.475-3.57-0.654
	c0,0-0.15-2.441,2.967-5.218l-3.972-3.681c0,0-8.497,0.854-8.899,6.033l-4.324-0.101c0,0-0.805-2.414-1.86,0.302
	c0,0-2.363-0.754-2.011,1.659c0,0-3.218-0.956,1.207-4.475c0,0-6.016-4.343-3.401-0.371c0,0,0.435,2.382-2.934,2.131
	c0,0-2.463,0.503-2.313-1.76c-1.056-1.709-2.564,1.709-2.916,1.157c-0.352-0.553,2.212-4.324-1.156-2.464
	c0,0-1.86-0.151,1.709-2.111c0,0,0.805-4.173-0.502-4.123c-1.307,0.05-5.279,8.396-5.48,2.815c0,0-7.039,2.112-1.709,4.073
	c0,0-0.854,2.547,2.095,3.486l-0.134,4.424c0,0,4.424-0.134,1.475,5.765c0,0,5.899-0.134,3.352,3.754c0,0,5.095,2.756-1.877,6.138
	l-1.341-1.713c0,0-1.743,2.949-2.413-1.341c0,0-3.486-4.022-4.29,1.341c0,0-2.011,1.206-1.207-4.157c0,0-4.953-0.536-1.806-2.815
	l-2.351-6.972c0,0,3.352,0.67,3.486-4.558c0,0,4.559-1.341,0.67-3.754c0,0-3.486-6.301,9.385-8.044c0,0-2.012-2.413,5.363-14.748
	c0,0,4.182-13.588-17.114-11.712c-0.724,1.615-1.891,3.433-1.891,3.433c-23.329,8.145-33.384,21.117-33.384,21.117
	c0.402,10.86,14.379,8.245,14.379,8.245c2.414-4.223,4.022,0.704,4.022,0.704c0.502,8.245-2.816,3.883-2.816,3.883
	c-3.017,2.476-7.943,1.546-7.943,1.546c0.804,1.207,0.704,5.028,0.704,5.028c-4.625-0.402-0.402,2.011-0.402,2.011
	c6.737,1.005,2.112,6.234,2.112,6.234l-3.218-1.81l0.101,5.631c2.514,2.313-0.905,4.193-0.905,4.193
	c-2.816-0.433-4.726-3.489-4.726-3.489c-3.218,1.911-9.352-0.101-9.352-0.101c-1.207,5.329-4.186,4.424-4.186,4.424
	c1.646,5.933-4.462,3.218-4.462,3.218l-0.905,2.815l-1.609-1.911c-2.614-0.402-1.609-4.022-1.609-4.022
	c5.028,1.911,7.139-1.207,7.139-1.207c-3.519-1.911-1.307-5.028-1.307-5.028c-4.022-3.922,1.709-2.715,1.709-2.715
	c2.916-3.721-1.207-3.721-1.207-3.721c0.804-7.039-5.229-1.408-5.229-1.408l-0.905-1.207c-8.346,0.804-5.128-3.721-5.128-3.721
	c4.022-6.335-1.709-4.525-1.709-4.525c-2.413,5.128-4.509,4.022-4.509,4.022c-2.699-4.223-2.63-0.837-2.63-0.837
	c4.123,5.195,2.167,5.162,2.167,5.162c-4.872-4.525-2.871,0.704-2.871,0.704c-2.011,0.604-1.91,3.62-1.91,3.62
	c5.329-0.805,0.905,4.625,0.905,4.625c6.436,0.905,2.916,7.843,2.916,7.843c1.709,10.759-7.542,9.754-7.542,9.754
	c-1.005,2.815,2.547,6.101,2.547,6.101c-2.739,2.449-6.034,2.945-8.719,2.8c0.489,5.537,3.457,4.606,3.457,4.606
	c0.167,7.341-4.793,5.497-4.793,5.497l-1.977,2.179c-5.798,0.201-1.643,1.978-1.643,1.978c3.988,0.201,3.486,2.279,3.486,2.279
	c-3.419-0.604-5.631,1.71-5.631,1.71c2.162,1.262,2.222,3.037,1.676,5.095c-0.182,0.683-0.055,1.765,0.074,2.517
	c1.108,0.64,2.683,1.149,4.685,0.768c0,0,0.612-2.882,4.127,1.141c0,0-0.374,9.05,6.331,4.691c0,0,4.424-1.072,6.771,5.766
	c0,0,3.083-0.469,4.223,1.207c0,0,1.408-2.549,3.888-0.269c0,0,9.184-2.614,11.664,2.146c0,0-1.609,6.032,5.966,4.29
	c0,0-0.737-2.212,3.084-1.542c0,0,2.547-0.938,0.536-3.017c0,0,3.485-1.676,3.418-5.027c0,0,6.167-4.895,7.643-1.677
	c0,0,1.207,1.476,3.553-2.346c0,0,5.899-1.609,6.167,5.161c0,0-7.105-2.212-2.346,2.95c0,0,2.011-2.146,2.681,0.402
	c0,0,8.514,0.001,12-4.29c0,0,3.754-1.14,4.76,2.279c0,0,2.212-3.286,4.692,0.67c0,0,6.502,0.804,6.167-3.218
	c0,0,1.542-0.804,2.547,0.938c0,0,2.749-1.677,3.352-3.352c0,0,1.542,2.211,4.96,2.479v1.341c0,0,6.637-0.938,7.978,1.072
	c0,0,4.491,0.738,6.771-1.675c0,0,3.218-0.402,6.502,5.497c0,0,0.137,0.01,0.357,0.033c3.508-0.905,5.542-2.715,5.542-2.715V347.89z
	"/>
<path id="Kerala" fill="#eeeeee" stroke="#231815" stroke-miterlimit="10" d="M182.997,626.726c0,0,3.72-3.921,1.106-7.34
	c0,0-4.827,4.927-1.911-7.341c0,0,2.815-0.201-0.402-3.922c0,0,3.419-4.223-0.905-5.229c0,0-2.212,0-4.625,2.514
	c0,0-4.927-1.307-2.414-10.256c0,0,1.911-5.028-3.921-5.933c0,0-0.201-2.112,0.804-3.018c0,0,2.917-4.122-5.631-3.82l1.81-2.514
	c0,0-3.62-3.018-6.335-3.218c0,0-1.307-3.52,1.81-3.017c0,0,6.536-2.615-0.503-4.425c0,0-3.017-1.408-4.927-4.022
	c-2.638-0.094-5.275,2.9-13.95-8.793c-2.742-0.961-2.038-4.078-2.038-4.078s-5.351-4.435-10.217-6.423
	c0.741,1.701,3.434,8.411,4.426,11.687c1.442,4.76,4.677,8.097,8.238,11.244c1.698,0.071,3.405,0.507,1.94,2.163
	c0.123,0.138,0.247,0.275,0.37,0.413c0,0,0,0,0,0.001c0.161,1.746,0.396,3.636,1.542,4.882c2.814,3.056,3.552,6.763,4.423,10.623
	c0.836,3.706,2.503,7.226,3.805,10.828c-1.078,1.21-0.008,1.842,0.694,2.57c1.157,1.618,1.472,9.63,5.292,11.54
	c0.004,0.144,3.212,5.361,2.816,8.547c-0.172,1.38-3.009-0.62-4.123,0.201c-0.023,0.018,2.744,10.192,6.264,12.505
	c-1.006,3.017,6.567,13.329,11.535,16.254c0.093,0.194,0.277,0.431,0.533,0.693c1.009-1.271,2.082-3.093,2.082-5.117
	c0,0,2.715,0.401,0-5.229c1.297-2.138,3.52-3.017-0.402-7.14C180.181,632.558,182.896,631.05,182.997,626.726z"/>
<g id="Puducherry">
	<path fill="#eeeeee" stroke="#231815" stroke-miterlimit="10" d="M241.296,591.274c-0.021-1.415-0.143-3.609-0.643-3.951
		C240.654,587.323,235.103,588.881,241.296,591.274z"/>
	<path fill="#eeeeee" stroke="#231815" stroke-miterlimit="10" d="M236.592,566.427c0,0-4.156,0.402,0.603,3.185
		c0,0,0.982,0.311,2.713-0.062c0.222-0.74,0.444-1.479,0.667-2.22c0.059-0.134,0.118-0.267,0.177-0.399
		C239.359,565.26,235.92,561.538,236.592,566.427z"/>
	<path fill="#eeeeee" stroke="#231815" stroke-miterlimit="10" d="M143.412,568.823c0.002,0.001,0.003,0.002,0.005,0.004
		c0.645,0.721,1.29,1.44,1.935,2.159C146.817,569.33,145.109,568.895,143.412,568.823z"/>
	<path fill="#eeeeee" stroke="#231815" stroke-miterlimit="10" d="M294.956,459.988c-0.019-0.393-0.061-0.803-0.154-1.254
		c-0.114-0.556-0.188-1.097-0.222-1.622C292.814,457.785,290.101,459.173,294.956,459.988z"/>
</g>
<path id="AndhraPrades" fill="#eeeeee" stroke="#231815" stroke-miterlimit="10" d="M346.046,404.854h-1.158
	c-1.709,0.302-0.4,2.463-0.4,2.463c-3.018-1.257-4.676,1.559-4.676,1.559c1.859,1.71-1.961,4.676-1.961,4.676
	c-2.666,0.905-3.721-1.608-9.352-1.608c-0.303-1.207-2.063-3.821-2.063-3.821c-2.463,0.051-3.469-2.564-3.469-2.564l-1.258,2.464
	c-2.313-2.766-2.412,1.207-2.412,1.207c-3.67-2.464-2.514,0.754-2.514,0.754c4.424,2.866-5.168,3.569-5.168,3.569
	c0.863,2.112-1.771,3.872-1.771,3.872c4.727,3.117-1.508,6.033-1.508,6.033c-0.805-2.112-3.016-1.961-3.016-1.961l-0.354,1.156
	c-4.475,5.731-3.971,1.76-3.971,1.76c2.564-1.811-1.76-5.279-1.76-5.279c-4.676,2.815-2.604,5.078-2.604,5.078
	c-2.15,2.111-0.966,2.614-0.966,2.614c2.312,0.704-0.051,3.318-1.609,4.524c-3.318-5.982-14.329,7.492-14.329,7.492
	c-1.056,7.742-4.072,4.625-4.072,4.625c-5.078,5.329-8.195,4.626-8.195,4.626c-1.106,0.15-2.514,3.167-2.514,3.167
	c-1.559,0.453-6.033-2.363-6.033-2.363c-2.765,3.771-3.218,1.659-3.218,1.659c-4.374,2.012,2.212,3.017,2.212,3.017
	c2.363,0.201,1.307,3.721,1.307,3.721c-5.128,0.051-8.396-5.53-8.396-5.53l-4.575,2.766c5.178,3.218-1.86,5.832-1.86,5.832
	c-0.704-2.012-3.268-2.363-3.268-2.363c-2.815,1.308-7.793,2.815-7.793,2.815c-6.436-0.101-3.821,8.497-3.821,8.497
	c-7.24-1.106-7.139,3.117-7.139,3.117c-2.062-3.017-1.709,2.815-3.62,1.709c-2.363-2.765-4.022-0.905-4.022-0.905
	c-5.179-3.066-9.754,5.028-9.754,5.028l-1.76-1.71c-1.759,1.207-2.815-0.15-2.815-0.15c-3.771,2.413-8.899-0.955-8.899-0.955
	l-1.106,1.81c-1.106-0.754-4.324-0.754-4.324-0.754c-8.246,0-5.179,4.224-5.179,4.224c1.709,0.804,0.955,1.81,0.955,1.81
	c-3.67,1.76-1.81,4.776-1.81,4.776c5.933,5.731,0.503,9.15,0.503,9.15c-0.804,0.251-2.262-0.653-2.262-0.653
	c-1.559,1.458-2.212-0.353-2.212-0.353c-3.771-2.514-1.659,1.659-1.659,1.659c2.463-0.251,0.503,4.224,0.503,4.224
	c-3.62,6.134,3.218,7.14,3.218,7.14c-4.022,6.435,2.866,4.625,2.866,4.625c0.352-2.665,3.972-1.559,3.972-1.559
	c2.866,4.978,2.112-0.251,2.112-0.251c3.469,2.966,1.86,4.122,1.86,4.122c-3.57,0.151-2.615,2.515-2.615,2.515
	c4.575,3.117,0.654,2.514,0.654,2.514c-3.318-4.072-4.676-1.408-4.676-1.408s-8.346-7.943-6.033-3.117c0,0,2.111,1.207,1.81,2.313
	c0,0,3.622,0.905,0.654,3.52c0,0-1.861,1.911,2.262,2.514c0,0-0.101-5.43,2.514-2.815c0,0,1.609,1.006,3.419,1.006
	c0,0,0.503,2.212,1.508,2.916c0,0,0.604-2.011,4.625-1.407c0,0,2.313-0.604,3.117-3.117c0,0,3.419-0.905,4.022,1.709l2.313,0.101
	c0,0-1.609,4.425,1.106,4.726c0,0-0.201,1.358,4.625,1.132v5.203l4.123,0.805c0,0,1.408,3.419-2.514,6.335
	c0,0,1.709,5.43-1.307,2.916c0,0-3.318-2.491-1.307,0.665c0,0-1.6,0.162-2.092,3.348c0.674,0.595,1.414,1.353,2.227,2.322
	c0,0,3.218,1.273,6.771-5.128c0.504-0.908-1.944-3.52,2.48-4.86c0,0,6.234-1.476,6.838,1.676c0,0,3.284,0.401,4.29-2.682
	c0,0,2.48,3.888,3.352-4.625c0,0,2.346-0.939,4.223,2.614c0,0,1.274-3.619,2.883,0.671c0,0,4.626-1.341,7.106-8.446
	c0,0,1.273-0.202,1.273,1.34l1.949-0.497c-0.112-0.206-0.295-0.375-0.597-0.481c0.479-2.359-1.897-4.723-0.223-7.192
	c1.613,0.563,1.494,5.979,3.127,6.36c0-0.71-0.531-4.722-0.57-5.385c-0.298-5.128-3.455-10.205-0.085-15.443
	c0.508-0.79,0.193-2.482-0.297-3.484c-4.257-8.698-1.344-16.345,3.453-23.632c1.922-2.923,5.408-3.493,8.523-4.292
	c1.292-0.332,2.167,0.809,2.022,2.313c-1.023,1.389-0.57,2.664,0.982,2.021c1.116-0.463,3,0.273,3.238-2.87
	c0.115-0.888,0.839-1.29,1.433-1.794c0.727-0.209,0.877-0.811,0.982-1.442h0.001c0.728-1.254,1.792-2.426,2.122-3.775
	c1.024-4.19,3.887-5.325,7.49-4.293c4.378,1.256,7.912,0.12,11.696-2.046c2.248-1.286,3.228-2.638,3.129-4.741
	c-4.855-0.815-2.141-2.203-0.376-2.876c-0.177-2.705,0.779-4.977,3.593-6.54c1.621-0.901,3.051-2.157,4.545-3.284
	c1.93-1.454,3.592-3.638,10.832-5.85c7.441-12.201,16.139-12.223,20.975-18.904c4.547-6.28,8.207-10.346,11.811-14.422
	L346.046,404.854z"/>
<g id="AndamanandNicobarIslands">
	<path fill="#eeeeee" stroke="#231815" stroke-miterlimit="10" d="M532.245,518.597c0,0-5.137,8.849,0,11.799c0,0,3.174,1.071,0-5.9
		C532.245,524.495,533.544,521.546,532.245,518.597z"/>
	<path fill="#eeeeee" stroke="#231815" stroke-miterlimit="10" d="M529.962,530.454c0,0-3.461,4.276,1.039,3.74
		C531.001,534.194,531.122,530.714,529.962,530.454z"/>
	<path fill="#eeeeee" stroke="#231815" stroke-miterlimit="10" d="M532.724,540.048c0,0,0.102-6.837-3.619-4.323l-0.414,4.323
		c0,0-3.225,7.743,3.119,6.134c0,0,0.594-0.502-0.805-2.715C531.005,543.467,535.237,541.657,532.724,540.048z"/>
	<path fill="#eeeeee" stroke="#231815" stroke-miterlimit="10" d="M531.81,547.992c0,0-2.625,0.302-0.805,2.715
		C531.005,550.707,532.835,549.613,531.81,547.992z"/>
	<path fill="#eeeeee" stroke="#231815" stroke-miterlimit="10" d="M526.991,556.539c0,0-1.025-7.542,2.857-5.128
		c0,0-1.869,9.754,1.156,5.631c0,0,1.82,6.637,0,7.843C529.306,564.933,523.372,555.835,526.991,556.539z"/>
	<path fill="#eeeeee" stroke="#231815" stroke-miterlimit="10" d="M529.405,566.293c0,0-2.164-1.408-1.535,2.514
		C527.87,568.807,530.612,570.014,529.405,566.293z"/>
	<path fill="#eeeeee" stroke="#231815" stroke-miterlimit="10" d="M527.755,582.147c0,0-4.314-1.341-3.51,7.105
		C524.245,589.253,528.854,589.924,527.755,582.147z"/>
	<path fill="#eeeeee" stroke="#231815" stroke-miterlimit="10" d="M532.825,620.895c0,0-2.211-2.548-0.703,2.949
		C532.122,623.844,533.405,621.968,532.825,620.895z"/>
	<path fill="#eeeeee" stroke="#231815" stroke-miterlimit="10" d="M563.394,661.519c0,0-7.238,1.608-1.877,5.631
		c0,0,0.537,7.374,4.424,4.156c0,0-1.475-3.879,0-5.291C565.94,666.015,563.259,664.736,563.394,661.519z"/>
	<path fill="#eeeeee" stroke="#231815" stroke-miterlimit="10" d="M559.538,657.765c0,0-3.25,1.608,0.906,1.608L559.538,657.765z"/>
	<path fill="#eeeeee" stroke="#231815" stroke-miterlimit="10" d="M550.522,642.479c0,0-0.803,2.949,1.342,6.436
		C551.864,648.915,553.606,645.563,550.522,642.479z"/>
	<path fill="#eeeeee" stroke="#231815" stroke-miterlimit="10" d="M541.003,639.933c0,0-0.402,4.291,1.744,4.827
		C542.747,644.76,543.284,642.347,541.003,639.933z"/>
	<path fill="#eeeeee" stroke="#231815" stroke-miterlimit="10" d="M544.757,642.347c0,0-1.877,1.072,0,1.072V642.347z"/>
	<path fill="#eeeeee" stroke="#231815" stroke-miterlimit="10" d="M552.937,635.24c0,0-2.279,2.682,0.938,2.682L552.937,635.24z"/>
	<path fill="#eeeeee" stroke="#231815" stroke-miterlimit="10" d="M549.985,648.915c0,0-3.82-1.406-2.949,0.738
		C547.036,649.653,550.054,650.056,549.985,648.915z"/>
	<path fill="#eeeeee" stroke="#231815" stroke-miterlimit="10" d="M518.444,569.611c0,0-1.91-3.218-1.809,0
		C516.636,569.611,517.841,570.315,518.444,569.611z"/>
</g>
<path id="Chandigarh" fill="#eeeeee" stroke="#231815" stroke-miterlimit="10" d="M185.334,140.225
	c-0.221,0.226-0.535,0.457-0.964,0.69c0,0-1.985,1.082,0.939,2.98c0.426-0.742,0.962-1.777,1.511-3.087
	C186.339,140.58,185.842,140.38,185.334,140.225z"/>
<path id="Haryana" fill="#eeeeee" stroke="#231815" stroke-miterlimit="10" d="M201.647,154.187l-1.858-0.97
	c0,0-3.922-3.922-7.341-3.52v-4.625c0,0-2.452-2.762-5.628-4.264c-0.549,1.31-1.085,2.345-1.511,3.087
	c0.625,0.406,1.471,0.849,2.614,1.327v6.637c0,0-5.731-4.374-4.123,0c0,0-2.212,2.614-2.212,2.765s2.062,2.112-1.307,3.922
	c0,0-2.363-5.581-2.614-1.207c0,0-5.53-4.123-3.218,5.983c0,0-3.369,1.86-3.771,3.268c0,0-3.017-0.352-3.67-2.212
	c0,0-2.263-0.704-3.771,1.458c0,0-5.731-3.67-7.089,4.424c0,0-4.625-1.508-2.062-4.223c0,0,1.559-3.369-1.307-1.659
	c0,0,0-5.128-2.011-1.81c0,0-4.223-5.731-7.29-1.609c0,0-1.718-0.574-4.337-1.124l0.449,1.996c0,0,2.548-1.207,0.67,5.229
	c0,0,2.989-2.012,0.69,5.899c0,0-4.275-0.402,0.869,2.681c0,0,2.864,0,3.803-1.608c0,0,2.95,0.804,4.424,3.62
	c0,0,2.816,0.402,4.961-0.804c0,0,3.486-1.341,4.022,13.809c0,0,4.96,5.363,9.787,10.86c0.402,4.157-4.692,10.189,3.888,8.447
	c0,0-3.621-4.291,2.279-4.022c0,0-0.268-1.609-0.938-3.352c4.022,0.536,5.497,4.558,7.24,4.156c0,0-0.805-2.413,3.218-2.681v-1.475
	c0,0,5.497,0.67,1.475,4.424l-0.134,7.374c0,0,2.28,1.609,3.754-2.414c0,0,4.021,1.609,7.105-3.352c0,0-3.083-2.815,1.475-4.022
	c0,0-1.341-4.693-4.022-7.642v-2.816c0,0-2.682,4.022-4.291,0.134c0,0-6.837,0.938-2.547-3.218c0,0-1.609-3.486,4.022-3.888
	C191.342,187.17,184.103,168.785,201.647,154.187z"/>
<path id="Gujarat" fill="#eeeeee" stroke="#231815" stroke-miterlimit="10" d="M133.122,318.863c0,0-3.721,1.173-3.52-6.872h-2.882
	c0,0-0.268-3.486-8.849-5.631c0,0,0.938-4.827-3.486-4.827c0,0,1.513-3.084-2.394-3.084c0,0,4.808-5.363,1.456-7.374l-2.011,1.609
	c0,0-0.268-1.877-3.084-3.352c0,0-1.072-2.815,2.28-4.29c0,0-3.218-0.805-0.671-2.815c0,0-4.021-3.218-3.754,2.011
	c0,0-0.402,1.877-2.011-0.402l-4.157,0.402c0,0-1.609-7.508-4.558-2.145c0,0-1.341-5.363-5.229-4.692l-1.207-2.95
	c0,0-6.167,4.826-6.838,0.67h-4.558c0,0-2.011-1.743-4.424,0.805c0,0-2.414,0.939-1.877-2.279h-3.613
	c-4.441,2.168-1.884,5.899-1.884,5.899c6.704,0.67-2.145,2.011-2.145,2.011c-6.167,6.301-7.106-2.413-7.106-2.413l-5.095,0.268
	c-1.877,2.011-4.424,1.609-4.424,1.609c-2.815,4.693-8.313,2.682-8.313,2.682c-2.547-4.692-8.179-3.62-8.179-3.62
	c-1.207,1.475-2.949-0.134-2.949-0.134c-1.341,1.341-5.095,0.402-5.095,0.402c-2.548-2.146-3.486,0.402-3.486,0.402
	c-0.938-2.95-1.983-2.216-1.983-2.216c-0.032,1.317-0.063,2.633-0.093,3.95c-0.606,8.724-9.983,1.226-11.197,3.763
	c0,0-5.631,5.229-3.159,8.36c2.335,1.237,3.725-1.908,5.036-3.131c3.182-0.923,5.83-2.681,6.167-1.609
	c-8.729,2.971-6.837,7.508-1.743,11.53c-0.938,4.96,7.105,7.715,9.628,9.802c6.838,5.65,6.389,3.833,7.855,3.107
	c6.649,2.643,5.125,0.276,7.856-0.574c2.739,0.842,4.559,0.268,7.106-3.754c1.743,2.145,4.628-1.747,4.96-1.475
	c0.852,0.694,4.827,0.402,0.402,4.094c-1.024,0.854-1.206,2.43,0.001,3.647c0,0,0.001,0.001,0.001,0.002
	c-2.21,2.662-6.571,6.872-10.996,4.86c-2.279,6.837-2.95-0.134-6.838,4.47c-4.022-1.654-5.941,1.19-7.793,1.162
	c-2.711-0.04-2.318-1.683-2.933-3.084c-0.77-0.018-3.81-0.415-4.156,0.536c-0.561,1.54,1.888,3.337,2.484,4.46
	c4.672,8.789,12.608,14.927,18.655,22.634c5.294,6.75,11.796,11.459,21.026,12.122c0.189,0.073,0.469,0.084,0.808,0.054
	c0.411-1.837,1.438-4.416,3.698-1.05c2.916-1.114,6.449-2.872,8.474-4.167c0.537,0.164,3.098-0.502,3.797-0.86
	c2.099-0.598,12.451-3.965,11.093-18.193c-0.069-0.722-0.139-1.55-0.129-2.396c3.296-1.206-0.34-3.215,1.151-4.357
	c0,0,2.145,0.603,4.29-2.548c0,0,5.833,3.688,8.581,1.811c0,0-1.207,3.62-6.771,0.47c0,0-2.815,1.809-0.804,3.352
	c0,0-3.385,4.893,4.24,2.916c-6.586,2.245-5.028,6.083-5.028,6.083l3.72,0.553c-7.592,1.71,0.654,2.012,0.654,2.012
	c-6.938,8.647,0,10.356,0,10.356c-1.508,0.805-1.207,2.313-1.207,2.313c6.335,0.604,0.302,2.413,0.302,2.413
	c4.424,2.313,0.536,3.185,0.536,3.185c0.57,1.213,0.249,2.839-0.396,4.434c1.281,1.018,3.613,3.277-1.493,2.905
	c-0.985,1.609-1.932,2.783-1.932,2.783s-0.478,1.144-0.631,2.878c1.291-0.963,3.246-2.119,5.023-1.966
	c0.303-0.423,0.994-1.161,2.58-2.387c0,0,4.558-0.268,1.139,3.017c0,0,0.657,0.531,1.112,1.229c2.987,0.556,6.71-0.762,5.927-11.351
	c0,0-0.202-2.413,5.162,2.614c0,0,5.43,0.854,3.151-3.193h3.017c0,0,0.604-6.326-6.1-8.604c0,0,3.553,0.268,4.692-3.218
	c0,0,6.101-3.688,10.458-3.62c0,0-2.749-4.759-7.709-0.871c0,0-4.156-1.61-1.072-4.76c0,0-3.888-2.614,0.804-2.547
	c0,0,0.514-1.795,4-1.728c0,0-0.547-2.235-0.246-3.368c0.546-2.058,0.486-3.833-1.676-5.095c0,0,2.212-2.313,5.631-1.71
	c0,0,0.502-2.078-3.486-2.279c0,0-4.156-1.776,1.643-1.978l1.977-2.179C128.328,324.359,133.289,326.204,133.122,318.863z"/>
<g id="Daman">
	<path fill="#eeeeee" stroke="#231815" stroke-miterlimit="10" d="M60.156,363.462c0.879-0.08,2.206-0.479,3.698-1.05
		C61.594,359.046,60.566,361.625,60.156,363.462z"/>
	<path fill="#eeeeee" stroke="#231815" stroke-miterlimit="10" d="M96.358,369.786c-0.414,1.023-0.956,2.027-1.493,2.905
		C99.971,373.063,97.64,370.804,96.358,369.786z"/>
</g>
<g id="Lakshadweep">
	<path fill="#eeeeee" stroke="#231815" stroke-miterlimit="10" d="M60.823,561.366c-0.905-0.604-2.011,0.804,0,2.413
		C60.823,563.779,61.728,561.969,60.823,561.366z"/>
	<path fill="#eeeeee" stroke="#231815" stroke-miterlimit="10" d="M68.666,567.198c-0.704-0.503-2.212,1.995,0,2.707
		C68.666,569.905,69.37,567.7,68.666,567.198z"/>
	<path fill="#eeeeee" stroke="#231815" stroke-miterlimit="10" d="M80.632,575.544c0,0,3.519,2.212,0,2.715V575.544z"/>
	<path fill="#eeeeee" stroke="#231815" stroke-miterlimit="10" d="M71.08,581.778c0,0-1.408,0.503,0,1.307
		C71.08,583.085,72.286,582.885,71.08,581.778z"/>
	<path fill="#eeeeee" stroke="#231815" stroke-miterlimit="10" d="M66.655,576.901c0,0-2.514-0.955-0.503,1.357L66.655,576.901z"/>
	<path fill="#eeeeee" stroke="#231815" stroke-miterlimit="10" d="M69.37,585.097c0,0-3.095-1.106-1.196,1.407
		C68.174,586.504,69.27,585.801,69.37,585.097z"/>
	<path fill="#eeeeee" stroke="#231815" stroke-miterlimit="10" d="M77.113,584.854c0,0-2.313,0.041-0.604,1.649L77.113,584.854z"/>
	<path fill="#eeeeee" stroke="#231815" stroke-miterlimit="10" d="M67.558,602.291c0,0-2.717,0.503,0,1.308V602.291z"/>
	<path fill="#eeeeee" stroke="#231815" stroke-miterlimit="10" d="M77.917,592.738c0,0-0.804-0.342-1.421,1.811
		C76.496,594.549,78.722,595.454,77.917,592.738z"/>
	<path fill="#eeeeee" stroke="#231815" stroke-miterlimit="10" d="M89.079,570.718c0,0-2.715,0.2,0,1.307V570.718z"/>
	<path fill="#eeeeee" stroke="#231815" stroke-miterlimit="10" d="M82.196,565.086c-0.257-0.703-2.112-0.101-0.782,1.71
		C81.414,566.796,82.453,565.79,82.196,565.086z"/>
	<path fill="#eeeeee" stroke="#231815" stroke-miterlimit="10" d="M62.935,550.204c0,0-2.514,0.201,0.805,1.811
		C63.739,552.015,64.745,551.411,62.935,550.204z"/>
	<path fill="#eeeeee" stroke="#231815" stroke-miterlimit="10" d="M56.7,567.7c0,0-1.508,0.027,0,0.818
		C56.7,568.519,57.304,568.807,56.7,567.7z"/>
</g>
</svg>
