<?xml version="1.0" encoding="utf-8"?>
<!-- Generator: Adobe Illustrator 16.0.0, SVG Export Plug-In . SVG Version: 6.00 Build 0)  -->
<!DOCTYPE svg PUBLIC "-//W3C//DTD SVG 1.1//EN" "http://www.w3.org/Graphics/SVG/1.1/DTD/svg11.dtd">
<svg version="1.1" id="Indonesia" xmlns="http://www.w3.org/2000/svg" xmlns:xlink="http://www.w3.org/1999/xlink" x="0px" y="0px"
	 width="612px" height="792px" viewBox="0 0 612 792" enable-background="new 0 0 612 792" xml:space="preserve">
<g id="Sumatera-sub">
	<g id="KepulauanRiau">
		<path fill="#ff837d" stroke="#FF0000" stroke-miterlimit="10" d="M337.559,236.676c-0.201-2.226-5.463-7.487-7.688-6.678
			c-1.202,0.437-2.43,8.094-2.227,8.701C327.846,239.306,337.762,238.901,337.559,236.676z"/>
		<path fill="#ff837d" stroke="#FF0000" stroke-miterlimit="10" d="M461.063,69.874c-1.613-2.434-1.89-7.285-2.693-8.903
			c-0.813-1.618-4.316,2.158-6.205,4.586c-1.895,2.428-3.51,5.127-2.16,9.443c1.35,4.313,3.237,4.046,5.666,3.507l3.777,5.396
			c0,0,4.313-2.153,4.586-5.666C464.299,74.73,462.681,72.302,461.063,69.874z"/>
	</g>
	<g id="KepulauanBangkaBelitung">
		<path fill="#ff837d" stroke="#FF0000" stroke-miterlimit="10" d="M440.555,329.959c-3.844,0.398-6.475,9.308-6.475,15.777
			c0,6.479,0.809,12.146,3.844,12.95c3.035,0.813,6.479-6.07,6.479-6.07c2.833,1.22,3.438,6.684,7.083,5.267
			c3.642-1.416,4.249-5.666,4.249-8.296c0-2.637,3.029-2.229,3.438-8.101C459.576,335.618,444.399,329.554,440.555,329.959z"/>
		<path fill="#ff837d" stroke="#FF0000" stroke-miterlimit="10" d="M404.739,346.754c-3.44-0.405-4.654-1.619-3.237-5.868
			c1.416-4.249,1.214-11.13-1.619-11.938c-2.833-0.81-9.51-1.215-9.51-1.215l-4.25-9.915c0,0-0.203-13.152-0.404-13.76
			c-0.203-0.606-4.857-5.261-4.857-5.868c0-0.604,0-6.677-3.029-7.688c-3.035-1.011-9.104-1.417-8.1,1.012
			c1.018,2.428,4.053,8.897,2.229,9.51c-1.819,0.607-4.25-1.214-4.651-3.845c-0.401-2.63-1.015-9.713-4.25-6.88
			s-8.297,5.464-5.465,8.297c2.834,2.833-9.511,9.308-7.893,11.938c1.615,2.63,6.479,3.237,12.143,3.439
			c5.664,0.203,10.116,0.203,10.521,4.654c0.4,4.446,0,8.094,2.631,8.493c2.631,0.404,2.428,9.313,3.844,12.552
			c0,0,0.606,1.012,6.272,4.047s9.511,5.059,10.726,8.094c1.217,3.035,5.868,3.035,8.299,1.821
			C406.561,352.42,408.18,347.156,404.739,346.754z"/>
	</g>
	<path id="Jambi" fill="#ff837d" stroke="#FF0000" stroke-miterlimit="10" d="M262.67,271.083c0,2.266-3.4,3.396-8.689-0.378
		c-5.289-3.778-4.155-6.807-9.822-5.667c-5.667,1.134-7.178,5.29-7.178,5.29s-4.156,1.89-4.156,5.289
		c0,3.396-3.022,5.667-5.667,8.312c-2.644,2.646-5.667,7.555-6.044,13.222c-0.378,5.668-5.666,9.823-3.4,15.489
		c2.266,5.666,6.799,8.69,8.311,13.601c1.512,4.911,2.645,9.823,17.378,15.489c0,0,12.466-13.601,17-12.467
		c4.534,1.133,4.533-1.89,6.8-6.423c2.267-4.534,7.934-2.271,9.445-4.912c1.511-2.646,1.89,3.021,3.778,6.423
		c1.888,3.401,5.667,4.532,7.556-2.267c1.888-6.806,4.533-12.475,11.333-17.001c6.8-4.532,12.845-3.022,17-1.895
		c4.156,1.133,6.045-2.266,7.183-4.532c0.387-0.771,1.798-1.271,3.479-1.606c-1.263-10.276-2.221-26.431-2.221-26.431
		s-4.372,2.061-7.199,1.025c-2.83-1.023-7.979-3.086-11.325-1.28c-3.345,1.8-5.146-2.063-8.234-4.375
		c-1.98-1.485-4.589-2.657-6.142-4.729h-23.14C268.714,261.26,262.67,268.817,262.67,271.083z"/>
	<path id="Lampung" fill="#ff837d" stroke="#FF0000" stroke-miterlimit="10" d="M363.918,384.419c-1.889-3.398-6.045-4.533-7.934-1.139
		c-1.896,3.4-6.422,3.021-6.045,5.287c0.377,2.271-4.156,4.534-7.562,7.185c-3.396,2.646-15.483,6.8-19.271,9.063
		c-3.774,2.271-5.666,16.623-6.422,19.646c-0.756,3.021-4.529,3.021-8.313,2.267c-3.778-0.755-6.8-6.045-8.312-3.778
		c-0.774,1.162-3.037,2.726-5.06,3.962c1.254,0.604,2.647,1.171,4.269,1.688c4.286,1.354,29.25,41.228,35.244,37.571
		c5.993-3.65-7.602-13.365-4.625-16.473c2.979-3.102,11.717,9.318,15.438,8.491c5.41-1.201,4.66-6.505,8.488-7.462
		c0,0,2.83-0.772,4.373,2.059c1.545,2.831,4.635,3.86,5.403,3.604c0.771-0.258,0.517,5.919,0.517,5.919s5.918,2.313,7.203,0.771
		c1.287-1.545,4.66-28.313,4.66-28.313c2.479-16.161,0.69-26.636-1.83-31.125c-2.033-3.617-2.041-3.609-1.498-6.672
		C368.309,392.991,365.146,386.633,363.918,384.419z"/>
	<g id="NanggröeAcehDarussalam">
		<path fill="#ff837d" stroke="#FF0000" stroke-miterlimit="10" d="M43.14,128.148c-1.35-0.81-7.824-5.666-9.443-7.285
			c-1.619-1.613-6.475-6.199-8.364-5.396s-3.776,4.854-1.348,8.094c2.428,3.237,7.554,3.237,12.95,7.284s10.826,4.949,11.332,4.317
			C50.425,132.466,44.489,128.958,43.14,128.148z"/>
		<path id="NanggröeAcehDarussalam" fill="#ff837d" stroke="#FF0000" stroke-miterlimit="10" d="M103.996,115.814
			c-1.133-4.911-3.4-19.645-5.667-23.801s-3.778-10.578-1.133-11.711s7.178-9.445,8.311-13.6c0.663-2.433,4.798-6.651,8.129-9.751
			c-0.629-2.897-2.48-5.25-4.679-5.824c-3.33-0.871-6.74-0.938-7.286-6.96c-0.545-6.025-6.332-11.401-11.874-18.731
			c-5.542-7.331-8.74-0.854-13.586-0.793c-4.847,0.066-5.982-5.745-10.652-4.576c-4.671,1.169-20.67,2.722-25.612,0.874
			c-4.945-1.845-18.69-18.396-29.624-14.313C-0.609,10.709,9.17,32.844,12.209,36.67c3.041,3.828,28.082,32.892,32.397,38.202
			c4.317,5.31,15.526,4.236,15.729,5.07c0,0,11.929,16.657,13.738,19.385c1.808,2.724,2.396,2.776,2.681,5.919
			c0.285,3.139,12.761,12.004,12.761,12.004s-0.626,13.021,0.585,18.798c0.968,4.618,6.78,3.887,11.335,5.072
			C102.806,132.363,104.754,119.101,103.996,115.814z"/>
	</g>
	<g id="SumateraUtara">
		<path fill="#ff837d" stroke="#FF0000" stroke-miterlimit="10" d="M91.898,184.026c-2.229-1.653-2.494-3.313-3.854-6.105
			c-1.36-2.796-7.104-8.815-8.842-9.004c-1.738-0.189-3.287,4.122-4.535,4.217c-1.247,0.096-4.232-0.116-4.458,0.143
			c-0.832,0.948,3.438,5.976,4.686,7.68c1.248,1.703,3.363,5.446,3.968,7.632c0.605,2.18,4.156,5.212,6.159,6.729
			c2.003,1.521,3.589,2.132,3.891,7.396c0.302,5.26,2.003,5.592,4.951,6.107c2.947,0.521,3.854-3.222,3.703-6.82
			c-0.151-3.604,1.247-7.25,1.738-10.71C99.796,187.816,94.127,185.685,91.898,184.026z"/>
		<path fill="#ff837d" stroke="#FF0000" stroke-miterlimit="10" d="M122.866,239.711c-1.214-2.428-6.07-11.332-6.07-11.332l-6.07,0.809
			c0,1.214,9.712,15.784,9.712,15.784S124.081,242.139,122.866,239.711z"/>
		<path id="SumateraUtara" fill="#ff837d" stroke="#FF0000" stroke-miterlimit="10" d="M167.088,210.638
			c6.8-0.756-4.533-11.711-6.422-15.111c-1.889-3.396,16.623,4.911,16.623,4.911s1.889-7.934,1.889-13.978s-5.29-10.2-5.29-10.2
			s9.067-5.667,13.223-9.066c4.156-3.396-5.667-9.439-5.667-9.439s0.756-10.2,1.133-12.85c0.234-1.637-0.111-10.943-0.409-18.069
			c-0.457-1.35-1.022-2.538-1.753-3.392c-2.812-3.263-7.672,2.667-8.491,2.315c-0.82-0.352,2.188-10.971-1.543-14.922
			c-4.374-4.632-7.977-6.69-13.123-10.035c-6.49-4.219-10.244-10.606-16.209-13.636c-5.965-3.03-12.86-6.258-14.059-8.548
			c-1.198-2.291-1.283-5.395-7.556-8.183c-6.273-2.79-7.24-3.992-5.918-8.749c0.449-1.61,0.443-3.25,0.119-4.737
			c-3.331,3.1-7.466,7.318-8.129,9.751c-1.133,4.149-5.667,12.467-8.311,13.6c-2.645,1.133-1.133,7.555,1.133,11.711
			s4.533,18.89,5.667,23.801c0.759,3.287-1.189,16.549-2.562,25.313c1.144,0.298,2.211,0.71,3.1,1.36
			c4.425,3.27,7.32,8.146,10.523,8.743c0,0,7.462,5.66,10.292,13.641c2.83,7.979,6.738,16.194,10.035,28.563
			c1.029,3.859,5.079,25.895,7.718,27.016c0.166,0.07,0.341,0.146,0.51,0.22c3.306-4.304,7.444-9.646,8.74-11.153
			C154.62,206.861,160.288,211.394,167.088,210.638z"/>
	</g>
	<path id="SumateraSelatan" fill="#ff837d" stroke="#FF0000" stroke-miterlimit="10" d="M378.785,362.474
		c2.572-2.831,3.345-3.347,2.83-8.234c-0.516-4.889,0.001-6.177-4.117-6.688c-4.117-0.52-4.372-1.807-4.63-4.63
		c-0.257-2.83-1.286-7.204-5.66-7.204l-0.772-10.292c0,0-24.688-5.403-28.303,2.061c-3.609,7.463-6.432,13.122-5.918,6.175
		c0.516-6.942-1.279-9.008,0.516-10.293c1.793-1.281,9.006-5.919,7.205-10.031c-1.803-4.115-5.92-1.283-7.463-2.828
		c-1.545-1.547-1.545-5.146-3.603-5.146c-0.655,0-1.308-3.516-1.896-8.306c-1.688,0.335-3.101,0.839-3.481,1.606
		c-1.134,2.271-3.021,5.666-7.177,4.532s-10.205-2.644-17,1.894c-6.8,4.527-9.445,10.196-11.333,17.002
		c-1.888,6.799-5.667,5.667-7.556,2.267c-1.889-3.398-2.267-9.064-3.778-6.423s-7.178,0.378-9.445,4.912
		c-2.267,4.531-2.266,7.556-6.8,6.423c-3.955-0.988-13.94,9.228-16.428,11.854c0.896,3.188,2.102,7.086,2.87,8.011
		c1.349,1.613,8.634,0.27,8.903,4.854c0.27,4.587,2.967,8.904,6.205,8.635c3.237-0.271,3.508-3.507,5.126-1.616
		c1.619,1.891,6.746,1.352,7.285,3.773c0.539,2.43,0.539,4.317-1.889,6.479c-2.428,2.153-9.173,9.979-9.173,9.979
		s-0.81,1.078,4.047,6.205s11.332,12.681,11.332,12.681s4.317-1.074,8.634,1.354s7.825,5.935,10.522,10.791
		c1.485,2.673,2.483,6.651,4.068,10.416c1.638,0.874,3.878,3.54,6.478,4.06c3.777,0.758,7.556,0.758,8.312-2.267
		c0.76-3.023,2.646-17.378,6.427-19.646c3.772-2.267,15.862-6.421,19.269-9.063c3.398-2.646,7.938-4.911,7.561-7.183
		c-0.377-2.269,4.152-1.889,6.045-5.284c1.889-3.399,6.045-2.271,7.934,1.134c1.229,2.214,4.391,8.578,8.736,12.549
		c0.132-0.739,0.294-1.653,0.469-2.85c0.9-6.142,5.412-7.854,4.889-11.577c-0.521-3.73-5.889-0.694-3.855-9.266
		C374.152,373.279,376.211,365.305,378.785,362.474z"/>
	<g id="Riau">
		<path fill="#ff837d" stroke="#FF0000" stroke-miterlimit="10" d="M268.963,189.73c2.833,2.229,10.724,10.729,12.545,6.684
			c1.821-4.053-10.117-15.986-13.355-13.766c-3.238,2.229-7.487,3.035-6.07,5.666C263.374,190.711,266.13,187.505,268.963,189.73z"
			/>
		<path fill="#ff837d" stroke="#FF0000" stroke-miterlimit="10" d="M294.256,203.085c-0.202-5.666-5.868-7.487-5.868-7.487
			s-2.833,2.833-0.81,5.463C289.603,203.693,294.458,208.751,294.256,203.085z"/>
		<path id="Riau" fill="#ff837d" stroke="#FF0000" stroke-miterlimit="10" d="M181.014,213.414c4.587,0.27,4.588-3.513,8.364-0.271
			c3.777,3.238,12.411,7.554,11.332,13.22c-1.08,5.666-5.126,7.824,3.507,17.537c8.633,9.713,10.792,16.998,17.537,20.235
			c3.792,1.82,9.206,4.835,13.506,7.27c0.908-0.707,1.721-1.072,1.721-1.072s1.512-4.156,7.178-5.29
			c5.667-1.139,4.533,1.889,9.822,5.667c5.289,3.772,8.689,2.644,8.689,0.378c0-2.271,6.044-9.823,6.044-9.823h23.14
			c-0.869-1.159-1.412-2.596-1.319-4.534c0.257-5.401,1.802-5.661,4.117-7.205c2.315-1.543,1.801-3.854,1.801-3.854
			s8.749-1.544,6.948-3.604c-1.801-2.058-6.948-5.398-9.006-3.344s-5.402,3.344-3.087-0.258c2.315-3.604,5.918-8.234,5.918-8.234
			s5.406,1.546,5.663,0.002c0.257-1.543-1.029-12.092-1.029-12.092c-1.301-1.747-2.949-1.896-5.579-1.896
			c-2.63,0-2.833-4.25-4.047-5.864c-1.214-1.619-5.261-1.417-5.261-1.417s-1.619-7.285-2.023-7.896
			c-0.404-0.604-3.642-0.401-4.25,3.44c-0.607,3.845,3.036,7.688,2.226,9.104c-0.81,1.417-13.962,9.313-15.581,7.082
			c-1.619-2.226,6.678-7.688,10.32-9.915c3.643-2.226-2.833-7.283-4.452-9.51c-1.619-2.226-15.176-0.604-16.188-1.214
			c-1.012-0.607-4.452-6.272-3.642-6.479c0.81-0.198,2.023-0.198,2.833-1.615c0.809-1.417,1.012-6.479,1.012-8.499
			c0-2.023,0.607-11.736,0.405-13.152c-0.203-1.417-13.962-5.261-16.998-5.666c-3.036-0.405,1.821,8.499-1.417,5.463
			c-3.238-3.036-8.499-5.261-11.332-4.854c-2.833,0.399-2.023-2.023,0.202-3.237c2.226-1.214,4.25-4.25,3.845-6.678
			c-0.405-2.434,0.607-5.063-1.214-8.1c-1.821-3.029-4.047,0.607-4.047,0.607s-4.25-0.202-6.273,2.226
			c-2.023,2.434-4.452-2.226-7.689-4.648c-3.237-2.434-4.25-6.07-4.25-6.07l-6.434-0.979c-7.056,0.826,3.345,16.979,1.399,17.934
			c-1.946,0.951-7.317-10.214-7.317-10.214s-10.685-5.959-11.576-8.49c-0.659-1.873-1.061-6.938-2.364-10.766
			c0.297,7.125,0.643,16.438,0.409,18.069c-0.377,2.646-1.133,12.85-1.133,12.85s9.823,6.045,5.667,9.439
			c-4.156,3.4-13.223,9.066-13.223,9.066s5.29,4.156,5.29,10.2s-1.889,13.978-1.889,13.978s-0.925-0.415-2.335-1.02
			C176.167,205.522,178.245,213.25,181.014,213.414z"/>
	</g>
	<g id="Bengkulu">
		<path fill="#ff837d" stroke="#FF0000" stroke-miterlimit="10" d="M254.394,444.084c-4.047-3.238-8.094-4.452-10.118-3.646
			c0,0-3.237,2.833,2.023,6.88C251.561,451.365,258.44,447.321,254.394,444.084z"/>
		<path id="Bengkulu" fill="#ff837d" stroke="#FF0000" stroke-miterlimit="10" d="M297.838,412.255
			c-2.698-4.856-6.206-8.362-10.522-10.791c-4.316-2.434-8.634-1.354-8.634-1.354s-6.475-7.554-11.332-12.681
			s-4.047-6.205-4.047-6.205s6.745-7.825,9.173-9.982c2.428-2.152,2.428-4.047,1.889-6.476c-0.539-2.428-5.666-1.889-7.285-3.776
			c-1.619-1.887-1.889,1.354-5.126,1.619c-3.238,0.271-5.936-4.048-6.205-8.635c-0.27-4.588-7.555-3.238-8.903-4.856
			c-0.768-0.922-1.974-4.814-2.87-8.006c-0.364,0.392-0.572,0.612-0.572,0.612c-14.733-5.666-15.867-10.579-17.378-15.489
			c-1.111-3.605-3.853-6.208-6.129-9.579l-15.028,10.782c1.755,3.961,3.454,8.109,6.674,8.525
			c7.975,1.021,10.287,19.437,21.671,27.344c11.384,7.907,16.885,11.798,16.149,15.104l-0.516,9.011l32.166,28.815
			c5.338,3.598,7.694,7.637,14.001,10.668c2.023-1.24,4.285-2.8,5.06-3.962c0.472-0.708,1.091-0.678,1.834-0.28
			C300.321,418.906,299.323,414.928,297.838,412.255z"/>
	</g>
	<g id="SumateraBarat">
		<path fill="#ff837d" stroke="#FF0000" stroke-miterlimit="10" d="M133.793,267.635l-9.308-1.214l-2.023,12.141
			c0,0,6.475,7.285,7.284,10.934c0.81,3.642,3.238,8.492,6.476,9.706c3.237,1.221,12.141,7.285,8.903-3.231
			C141.887,285.441,133.793,267.635,133.793,267.635z"/>
		<path fill="#ff837d" stroke="#FF0000" stroke-miterlimit="10" d="M157.67,310.531c0,0-4.856,4.856-3.237,6.88
			c1.619,2.023,10.522,7.689,11.736,6.479C167.383,322.674,160.099,311.343,157.67,310.531z"/>
		<path fill="#ff837d" stroke="#FF0000" stroke-miterlimit="10" d="M181.143,341.284c0,0-1.619-2.428-3.238-5.261
			c-1.619-2.833-6.475-7.688-6.475-7.688s-2.833,2.021-1.619,5.261s1.619,8.095,1.619,8.095l4.856,1.214l0.81,5.666
			c0,0,2.023,1.618,4.047,3.646c2.024,2.021,6.88,5.262,6.475,0C187.213,346.95,181.143,341.284,181.143,341.284z"/>
		<path fill="#ff837d" stroke="#FF0000" stroke-miterlimit="10" d="M217.714,312.639c-2.266-5.666,3.022-9.821,3.4-15.489
			c0.378-5.667,3.4-10.578,6.044-13.222c2.644-2.645,5.667-4.912,5.667-8.313c0-1.896,1.292-3.314,2.435-4.211
			c-4.3-2.435-9.713-5.443-13.506-7.27c-6.745-3.237-8.903-10.522-17.537-20.235c-8.634-9.713-4.587-11.872-3.507-17.537
			c1.08-5.666-7.555-9.979-11.332-13.22c-3.776-3.237-3.777,0.54-8.364,0.271c-2.769-0.163-4.848-7.896-6.062-13.995
			c-4.913-2.107-15.755-6.532-14.287-3.896c1.889,3.4,13.222,14.355,6.422,15.111c-6.8,0.755-12.468-3.777-14.734-1.133
			c-1.296,1.513-5.434,6.854-8.74,11.147c7.863,3.319,18.969,7.46,20.074,13.938c1.129,6.616,3.536,11.412,7.104,15.382
			c1.897,2.11,7.815,6.229,9.616,13.437c1.801,7.2,12.049,29.778,16.211,36.021c1.542,2.313,6.173,7.2,5.144,11.062
			c0,0-4.888,6.182-0.257,11.063c1.336,1.41,2.357,3.617,3.361,5.885l15.028-10.782
			C219.077,315.446,218.314,314.139,217.714,312.639z"/>
	</g>
</g>
<g id="Sulawesi-sub" display="none">
	<g id="SulawesiUtara" display="inline">
		<path fill="#ff837d" stroke="#FF0000" stroke-miterlimit="10" d="M282.546,153.426c-2.28-1.521-2.027-4.813-6.84-6.333
			c-4.813-1.521-5.32,2.787-9.373,9.12c-4.054,6.333-9.88,5.573-12.16,5.32c-2.28-0.259-0.253,7.347-0.253,7.347
			s-3.04,2.28-6.84,2.28c-3.8,0-13.68,15.96-20.267,17.729c-6.308,1.698-26.524-4.021-34.678-5.627l0.956,9.79l14.277,8.159
			c0,0,0.263,8.923-0.972,14.954c1.874,0.091,4.018,0.129,6.483,0.084c13.68-0.253,32.426-5.32,32.426-5.32
			s13.426-20.52,20.772-27.104c7.346-6.59,9.627-11.904,10.387-16.724c0.76-4.813,2.533-6.08,6.08-7.093
			C286.092,159,284.826,154.946,282.546,153.426z"/>
		<path fill="#ff837d" stroke="#FF0000" stroke-miterlimit="10" d="M354.906,12.539c-0.182-2.712-2.713-8.32-6.512-8.501
			c-3.797-0.187-2.713,12.299-0.904,14.646c1.809,2.354,0.725,4.522-0.541,8.501c-1.268,3.979,0.725,7.234,0.725,7.234
			c4.521,1.086,6.328-10.313,7.596-12.661C356.535,19.412,355.088,15.251,354.906,12.539z"/>
	</g>
	<path id="Gorontalo" display="inline" fill="#ff837d" stroke="#FF0000" stroke-miterlimit="10" d="M207.37,201.213l-14.277-8.159
		l-0.956-9.79c-0.36-0.071-0.73-0.146-1.041-0.199c-7.347-1.267-6.08,2.28-9.12,6.08s-16.466-9.12-16.466-9.12
		s-8.752-0.146-13.747-0.328c-1.114,3.698-3.507,8.886-8.168,8.648c-7.208-0.36-38.56-2.884-39.64,0.72
		c-1.081,3.604-0.721,6.485,3.964,13.693c1.762,2.708,3.366,5.265,4.631,7.591c1.526-0.021,2.847-0.018,3.814,0.074
		c5.319,0.507,6.84-5.32,9.373-6.333c2.533-1.013,5.573,1.267,9.626,5.32c4.054,4.053,5.827-0.512,13.173-1.773
		c7.347-1.267,40.026,0.253,40.026,0.253l6.586,6.333c0,0,2.733,1.53,11.25,1.942C207.632,210.136,207.37,201.213,207.37,201.213z"
		/>
	<path id="SulawesiBarat" display="inline" fill="#ff837d" stroke="#FF0000" stroke-miterlimit="10" d="M36.563,371.057l15.856,0.72
		c0,0,1.801-10.451,2.162-19.46c0.36-9.01-5.766-6.126-5.766-6.126s0-12.253,0.36-18.738c0.36-6.479-1.441-11.526-2.883-14.416
		c-1.443-2.884-1.801-8.286-4.325-11.892c-2.003-2.86-2.415-22.965-2.5-31.14c-1.336,1.616-2.492,3.13-3.157,4.259
		c-2.533,4.306-2.533,10.386-4.307,11.146c-1.773,0.76-4.56,5.568-6.333,11.647c-1.773,6.08,1.267,16.213,4.053,24.573
		c2.787,8.354-4.307,6.587-7.853,8.863c-3.547,2.277-2.787,19.763-5.573,25.589c-2.787,5.821-9.626,5.063-12.16,6.075
		c-2.534,1.019-0.507,7.098,2.787,9.119c3.293,2.026-2.28,10.392-3.04,14.946c-0.76,4.563,5.827,21.279,5.827,21.279
		s17.396-5.043,19.989-5.064l6.862-10.493L36.563,371.057L36.563,371.057z"/>
	<path id="SulawesiSelatan" display="inline" fill="#ff837d" stroke="#FF0000" stroke-miterlimit="10" d="M133.142,370.698
		c5.768-5.399-3.604-9.369-9.009-12.974c-5.405-3.604-13.333-7.568-19.101-8.648c-5.767-1.081-11.53-4.318-17.657-9.009
		c-6.127-4.685-10.81-15.497-12.613-14.776c-1.803,0.727-9.729,0.36-14.054-0.721c-2.402-0.6-7.469,0.246-11.502,1.116
		c0.002,0.58,0.004,1.16-0.03,1.766c-0.36,6.485-0.36,18.738-0.36,18.738s6.125-2.884,5.766,6.126
		c-0.36,9.009-2.162,19.46-2.162,19.46l-15.856-0.72v20.896l-6.862,10.493c0.006,0,0.018-0.002,0.024-0.002
		c2.533,0,5.32,3.546,3.546,9.373c-1.773,5.826,6.587,17.229,6.587,17.229s0.76,24.063-1.773,26.599
		c-2.533,2.534-2.28,15.706-2.28,20.52c0,4.814-6.333,9.627-8.866,20.271c-2.533,10.64,14.439,19.76,18.24,20.771
		c3.8,1.02,9.373-6.84,12.16-6.08c2.787,0.767,6.333,0,8.613-1.771c2.28-1.773,8.867,2.279,8.867,2.279
		c3.546-5.573-5.573-17.479-6.333-24.066c-0.76-6.586,3.546-15.199,5.573-22.799c2.027-7.604-1.773-12.16-2.026-13.173
		c-0.253-1.02-1.013-28.373-1.013-28.373s1.773-0.761,4.56-5.066c2.787-4.305-1.52-8.613-1.52-8.613s0.253-17.98-0.253-18.233
		c-6.668-3.335-8.106-12.16-8.106-12.16s15.706-14.946,19.506-15.959c3.8-1.015,14.44-0.507,16.973,2.533
		c2.533,3.039-1.014,7.6-1.014,7.6l0.048,1.55c2.146-0.687,4.517-0.979,6.705-0.208c6.127,2.161,10.092,5.403,14.056,6.485
		c0.798,0.218,1.835,0.171,3.022,0.038C126.375,377.893,129.459,374.149,133.142,370.698z"/>
	<g id="SulawesiTengah" display="inline">
		<path fill="#ff837d" stroke="#FF0000" stroke-miterlimit="10" d="M196.162,288.703c-6.08-1.773-15.706,1.267-18.239,7.854
			c-2.533,6.586,4.307,13.426,4.307,13.426s5.319-6.586,9.373-11.653C195.655,293.263,202.242,290.477,196.162,288.703z"/>
		<path fill="#ff837d" stroke="#FF0000" stroke-miterlimit="10" d="M196.921,298.577c0,0,6.84,10.646,10.64,8.106
			c3.8-2.534,2.28-13.427,2.28-13.427S200.721,284.903,196.921,298.577z"/>
		<path fill="#ff837d" stroke="#FF0000" stroke-miterlimit="10" d="M203.508,262.357c-2.787-6.586-18.24-3.293-24.573-2.787
			c-6.333,0.513-3.546,4.563,0.507,6.593c4.054,2.021,1.267,3.034,1.267,3.034l-29.64-1.52l-1.52,8.867l-20.267,0.507
			c0-9.626-6.586-4.307-13.173,2.026c-6.586,6.333-7.853,15.447-8.866,20.013c-1.014,4.56-14.693,1.013-19.253-0.767
			c-4.56-1.771-5.32-9.873-6.586-13.679c-1.267-3.8-5.827-8.354-11.4-7.6c-5.573,0.76-8.613-13.68-10.893-30.906
			c-2.28-17.226,9.12-34.199,16.72-39.266c7.6-5.067,10.386-2.533,14.946,1.267c3.731,3.108,14.911,2.32,21.772,2.206
			c-1.265-2.326-2.869-4.882-4.631-7.591c-4.685-7.208-5.045-10.089-3.964-13.693c1.08-3.604,32.432-1.081,39.64-0.72
			c4.661,0.232,7.054-4.95,8.168-8.646c-1.584-0.061-2.799-0.115-3.227-0.182c-1.773-0.253-9.373-2.278-18.746-1.52
			c-9.373,0.758-8.866-7.097-11.652-9.626c-2.787-2.533-9.627,2.274-9.88-0.765c-0.254-3.039-15.707-2.528-15.707-2.528
			s0.253,3.546-0.507,8.104c-0.76,4.563-2.28,6.586-5.573,9.12c-3.293,2.533-4.307,8.36-9.12,8.104
			c-4.813-0.254-4.053-5.063-8.613-7.603c-4.56-2.533-0.76,7.854-5.32,8.866c-4.56,1.014-4.56,10.387-4.307,13.173
			c0.253,2.787-2.787-0.507-6.84,2.28c-4.053,2.786-4.56,13.426-2.28,17.729c2.28,4.312-0.253,4.813-2.533,10.135
			c-2.28,5.317,1.013,25.079,1.013,25.079s-5.237,5.378-9.003,9.931c0.085,8.175,0.497,28.274,2.5,31.14
			c2.523,3.604,2.882,9.008,4.325,11.892c1.308,2.614,2.893,7.021,2.913,12.65c4.033-0.87,9.1-1.718,11.502-1.116
			c4.325,1.081,12.251,1.439,14.054,0.722c1.803-0.722,6.486,10.097,12.613,14.775c6.127,4.687,11.891,7.928,17.657,9.009
			c5.768,1.08,13.695,5.045,19.101,8.648c5.405,3.604,14.776,7.563,9.009,12.974c-3.683,3.451-6.767,7.194-8.147,10.48
			c4.716-0.521,11.902-2.402,16.797,5.366c0,0,7.825-2.945,14.605,4.665l-0.008-0.421c7.6,3.548,5.32-3.548,2.28-7.348
			s-2.787-6.08-5.32-10.386c-2.533-4.311-9.626-6.08-9.373-10.645c0.253-4.562-7.347-16.214-10.387-20.268
			c-3.04-4.056-6.586-3.04-9.626-5.573c-3.04-2.531-11.399-12.158-10.387-16.973c1.014-4.813,4.813,3.293,9.627,7.601
			c4.813,4.311,9.119-0.508,10.133-6.333c1.014-5.826,3.8-6.079,12.413-7.348c8.613-1.27,16.466-13.937,24.826-24.571
			c8.359-10.641,7.093-12.666,7.093-12.666s9.373,0.764,11.146-3.039c1.773-3.802,3.293,4.31,8.866,8.104
			c5.573,3.8,5.066-2.279,6.84-6.08C206.293,271.475,206.294,268.943,203.508,262.357z"/>
	</g>
	<g id="SulawesiTenggara" display="inline">
		<path fill="#ff837d" stroke="#FF0000" stroke-miterlimit="10" d="M191.348,429.3c-2.786-1.02-6.84-2.787-7.6,4.56
			c-0.76,7.347,6.333,8.36,6.333,8.36c4.054-0.254,6.333-2.787,6.587-8.867C196.921,427.273,194.135,430.313,191.348,429.3z"/>
		<path fill="#ff837d" stroke="#FF0000" stroke-miterlimit="10" d="M139.163,483.512c-2.09,0-6.333,6.333-5.573,10.133
			c0.761,3.8,7.854,11.906,10.134,10.387C146.002,502.512,144.483,483.512,139.163,483.512z"/>
		<path fill="#ff837d" stroke="#FF0000" stroke-miterlimit="10" d="M188.815,489.338c-5.066-1.521-2.786-3.806-4.053-9.119
			c-1.267-5.32,2.786-11.4,6.84-12.413c4.053-1.014,1.772-8.866,0.253-11.906s-4.813-5.827-9.373-3.294s-3.547,14.44-4.56,19
			c-1.014,4.563-1.014,16.72-1.014,19.76c0,3.039-2.787,4.059-6.333,1.019c-3.547-3.04-1.014-5.573,3.04-10.646
			c4.053-5.063,1.267-6.84,2.026-14.688c0.76-7.854-2.533-8.106-5.32-4.313c-2.786,3.8-6.079,2.786-11.399,4.563
			c-5.32,1.771-2.28,8.354-0.253,11.9c2.026,3.553,0,7.353-2.533,11.146c-2.534,3.8-0.761,9.12-0.761,9.12
			c1.014,1.52,3.294,0.76,6.08,0.506c2.787-0.253,9.12-0.253,7.6,3.547s-3.8,10.64,5.32,11.146c9.12,0.506,8.359-6.333,6.08-10.139
			c-2.28-3.8,4.56-1.771,11.146-5.063C198.188,496.178,193.881,490.858,188.815,489.338z"/>
		<path fill="#ff837d" stroke="#FF0000" stroke-miterlimit="10" d="M141.792,386.549c-6.128-9.729-15.855-4.324-19.819-5.407
			c-3.964-1.082-7.929-4.324-14.056-6.485c-2.188-0.771-4.56-0.479-6.705,0.208l0.459,15.17c0,0-6.84,8.106-7.6,12.413
			c-0.76,4.313,23.813,27.612,23.813,27.612s8.36,1.773,9.627,4.813c1.267,3.04-0.761,3.299-4.054,5.826
			c-3.293,2.533-3.04,7.854-3.547,19.253c-0.506,11.399,12.667,12.413,22.293,13.938c9.627,1.52,6.08-3.547,4.054-6.08
			c-2.027-2.533,0.253-8.866,0.253-11.653c0-2.786,15.96-4.307,15.96-4.307s5.573-4.313,9.119,0
			c3.547,4.307,9.627-1.521,9.627-1.521V436.9l-8.106-0.507c0,0-3.293-4.307-5.573-9.119c-2.28-4.813-3.293-9.88-12.666-14.693
			c-9.374-4.813,1.772-7.093,1.772-7.093l-0.245-14.271C149.617,383.6,141.792,386.549,141.792,386.549z"/>
	</g>
</g>
<g id="Jawa-sub" display="none">
	<path id="JawaTimur" display="inline" fill="#ff837d" stroke="#FF0000" stroke-miterlimit="10" d="M550.889,191.531
		c-4.963-2.521-9.59-4.762-13.192-9.813c-3.503-4.907-0.104-15.487,2.156-21.193c0.033-3.188,0.777-6.06,2.099-8.601
		c-0.327-0.005-0.532-0.005-0.532-0.005c1.015-12.54-3.046-20.287-5.754-21.646c-2.707-1.354-12.188-1.688-13.875-2.024
		c-1.691-0.339-1.354-5.415-2.031-7.659c-2.168-7.179-8.573,4.045-19.399,4.045s-12.637,1.515-17.601,4.04
		c-4.964,2.521-25.72-6.063-35.194-9.604c-9.478-3.531-4.513-7.438-0.897-15.524c3.604-8.082-4.964-14.284-3.609-13.271
		c1.354,1.007,30.687,5.054,41.964,5.054c11.281,0,6.771-8.089,9.479-7.576c2.707,0.508,11.729,0,25.72-10.609
		c13.988-10.613-47.831-7.58-58.208-7.075c-10.378,0.509-12.636,1.521-17.598,8.59c-4.965,7.075-8.574,4.04-10.38-1.01
		c-1.81-5.053-15.795-6.568-22.108-4.548c-6.313,2.021-13.987-7.077-21.208-6.063c-4.604,0.646-8.839-4.256-12.595-8.15
		c-1.021,7.837-2.55,20.269-2.55,24.864c0,6.921-5.438,13.837-10.377,15.813c-4.938,1.979-9.391-5.436-11.856-0.494
		c-2.476,4.941-1.483,27.184-1.483,27.184s7.906,4.442,5.438,10.869c-2.472,6.429-9.392,8.4-13.838,13.348
		c-2.638,2.93-3.703,8.289-3.938,12.89c15.063-0.188,27.284,1.795,27.284,1.795s1.019,7.445,12.185,6.433
		c5.724-0.521-3.963-8.938,31.813-2.027c29.781,5.753,35.083,10.732,46.363-2.03c7.444-8.432,20.075,1.896,30.457,8.46
		c10.379,6.57,26.171,10.499,41.965,12.521c15.793,2.021,0.338,10.657,8.46,11.168C546.15,200.159,555.851,194.06,550.889,191.531z"
		/>
	<path id="DaerahKhususIbukotaJakarta" display="inline" fill="#ff837d" stroke="#FF0000" stroke-miterlimit="10" d="
		M102.772,37.279c4.749-3.28,6.519-12.508,5.728-20.484c-0.396,0.47-0.997,0.858-1.955,1.134c-6.47,1.811-11.142,0.444-13.746-2.412
		L91.9,26.901C93.877,32.338,96.348,41.727,102.772,37.279z"/>
	<path id="DaerahIstimewaYogyakarta" display="inline" fill="#ff837d" stroke="#FF0000" stroke-miterlimit="10" d="M318.283,134.678
		c-4.514-1.354-5.866-8.122-8.122-14.44c-2.257-6.313-12.634,0.904-18.501,1.812c-3.684,0.563-7.723,10.563-10.106,18.259
		c11.702,6.234,32.44,20.593,48.703,22.824c-0.276-4.396-0.647-8.901-1.146-12.204C327.759,141.898,322.795,136.031,318.283,134.678
		z"/>
	<path id="Banten" display="inline" fill="#ff837d" stroke="#FF0000" stroke-miterlimit="10" d="M72.816,42.176
		c-1.354-9.928,6.317-7.218,13.086-5.864c3.215,0.646,6.319-0.753,8.701-2.393c-1.104-2.25-1.941-4.923-2.702-7.021L92.8,15.51
		c-0.801-0.88-1.424-1.888-1.822-3.003C89.393,8.07,76.2,14.471,70.785,11.946C65.37,9.421,64.468,8.41,64.468,8.41
		s-2.932,8.471-5.639,2.403c-2.708-6.063-5.415-5.56-10.83,0.505c-5.415,6.063-4.287,23.721-7.445,29.276
		c-3.158,5.558-7.67,0.859-10.829,3.384c0,0-3.384,24.366-14.214,16.244c-3.425-2.563-4.738-4.737-7.445,0
		c-2.707,4.738-1.354,7.445,5.415,6.771c0,0,20.305,2.707,29.104,0.677s15.948,5.479,21.433,8.45
		c1.692,0.917,5.521,0.855,9.42,0.872C75.774,65.944,73.883,50.005,72.816,42.176z"/>
	<path id="JawaTengah" display="inline" fill="#ff837d" stroke="#FF0000" stroke-miterlimit="10" d="M372.204,54.394
		c-4.963-1.01-8.574,5.555-16.244,6.065c-7.67,0.505-11.731-17.688-21.659-19.711c-9.927-2.023-16.695,10.104-19.402,24.258
		c-2.707,14.146-13.538,10.104-18.5,6.563c-4.962-3.528-11.281,3.033-21.208,2.021c-9.926-1.013-19.402-6.567-24.817-6.567
		c0,0-8.122,7.074-13.989,4.042c0,0-11.14-3.934-20.897-4.669c-0.013,6.541-0.473,16.04-3.243,18.192
		c-4.061,3.157-16.244,7.673-13.537,12.184c2.708,4.516,9.928,6.771,10.378,11.278c0.303,3.035,1.631,11.377,3.428,18.438
		c8.46-0.188,36.301-0.471,35.152,4.131c-0.677,2.703,20.313,2.526,33.503,9.476c0.122,0.063,0.262,0.143,0.385,0.209
		c2.384-7.696,6.422-17.693,10.106-18.259c5.867-0.901,16.242-8.125,18.501-1.812c2.256,6.318,3.608,13.089,8.122,14.44
		c4.512,1.354,9.476,7.221,10.828,16.244c0.496,3.303,0.867,7.811,1.146,12.204c1.737,0.232,3.441,0.381,5.062,0.313
		c1.418-0.056,2.813-0.085,4.188-0.103c0.229-4.604,1.3-9.96,3.937-12.895c4.447-4.938,11.367-6.92,13.842-13.345
		c2.471-6.425-5.438-10.871-5.438-10.871s-0.988-22.235,1.481-27.18c2.472-4.941,6.918,2.472,11.856,0.494
		c4.938-1.979,10.377-8.896,10.377-15.813c0-4.598,1.522-17.025,2.552-24.864C375.979,56.656,374.002,54.759,372.204,54.394z"/>
	<path id="JawaBarat" display="inline" fill="#ff837d" stroke="#FF0000" stroke-miterlimit="10" d="M198.708,96.775
		c-2.708-4.511,9.476-9.021,13.537-12.184c2.77-2.152,3.229-11.651,3.243-18.192c-2.346-0.177-4.615-0.172-6.627,0.121
		c-10.378,1.521-7.558-9.208-8.911-16.785c-1.354-7.58-13.198-16.238-16.583-20.979c-3.236-4.531-4.286,9.468-10.152,8.461
		C167.347,36.201,160.806,23.508,159,23c-1.806-0.505-3.158,5.589-9.476,6.092c-6.317,0.505-15.677-6.729-17.259-15.906
		c-1.692-9.813-17.936-8-21.659-6.091c-4.421,2.266,0.021,7.181-2.106,9.695c0.791,7.979-0.979,17.204-5.728,20.484
		c-3.951,2.734-6.403,0.233-8.169-3.354c-2.382,1.64-5.486,3.035-8.701,2.393c-6.769-1.354-14.439-4.063-13.086,5.864
		c1.067,7.829,2.958,23.769,0.621,34.817c9.098,0.021,18.592,0.413,2.313,14.361c-9.476,8.122-1.806,16.419,18.951,18.951
		c20.757,2.527,34.79-3.805,46.025,5.729c19.967,16.938,34.302,12.59,47.717,18.299c24.48,10.414-13.537-11.321,21.659-7.784
		c0,0,0.903-0.031,2.412-0.063c-1.796-7.063-3.125-15.398-3.428-18.438C208.635,103.541,201.415,101.285,198.708,96.775z"/>
</g>
<g id="Kalimantan-sub" display="none">
	<path id="KalimantanTimur" display="inline" fill="#ff837d" stroke="#FF0000" stroke-miterlimit="10" d="M319.266,9.38
		c-2.184,1.748-2.619,0.001-6.115-1.747s-6.771-1.093-8.521,0.655s-4.369,2.185-7.646,0c-3.277-2.188-4.588,1.747-5.025,3.495
		c-0.437,1.742-3.932,1.092-5.461,4.363C284.967,19.43,282.781,34.286,283,38s0.655,14.42-1.529,15.943
		c-2.184,1.529-0.436,10.929-1.747,14.643s-2.404,5.462-7.428,5.462s-8.083,0.655-9.176,4.369
		c-1.092,3.714-3.496,10.269-0.656,12.453c2.84,2.184,6.552,2.84-0.438,8.52c-6.991,5.681-12.672,7.646-12.89,12.453
		c-0.218,4.807,0.874,4.151,1.966,8.083c1.093,3.933-1.749,7.211-4.152,9.396c-2.403,2.188-2.621,5.024-4.369,9.182
		c-1.748,4.146-0.438,9.394-4.588,7.858c-4.15-1.523-4.588-3.713-8.083-1.31c-3.496,2.403-5.68,1.966-5.68,1.966l-0.219,12.021
		c0,0-17.696,10.269-13.327,13.764s1.749,12.453,1.749,12.453s11.797,0.437,18.57,2.185s12.89-3.495,19.662-4.369
		s15.729,4.152,7.427,28.621c-8.301,24.476,4.151,6.336,5.462,5.025c1.311-1.313,9.832-10.271,7.209,7.427
		c-2.622,17.697,1.093,14.202,2.841,20.537s0.874,12.672,6.554,16.167c5.68,3.495,12.018,8.739,11.144,14.42
		c-0.874,5.683,1.093,0.438,5.025,6.117c3.932,5.681,5.025,12.672,4.369,15.949c-0.656,3.271,0.001,23.595,2.623,25.343
		c1.623,1.082,11.697,2.415,20.228,2.548c0.536-3.105,0.807-5.523,0.807-5.523s-6.824-0.323-10.725-1.301
		c-3.9-0.976,4.551-5.201,4.875-9.75s-1.625-6.499-4.875-6.499s-3.574-1.626-3.574-1.626l12.35-7.799c0,0-0.646-8.126,1.625-8.771
		c2.275-0.649,4.875-4.229,10.398-5.201c5.524-0.979,7.475-4.549,9.426-9.749c1.949-5.201,4.875-10.074,11.375-13.979
		c6.5-3.896,9.75-8.124,10.073-13.646c0.324-5.525-3.575-1.95-3.575-1.95s-2.6-15.273-0.975-18.521
		c1.624-3.25-0.325-8.447,1.949-17.874c2.275-9.427,7.8-20.477,11.375-24.373c3.574-3.898,6.824-0.324,10.074,0.977
		c3.25,1.3-2.604-13.325,0.326-10.076c2.924,3.25,10.725,6.5,15.924,7.15c5.199,0.646,7.475-1.95,11.375,0.322
		c3.896,2.272,6.498,0,11.374-6.5s-1.624-5.196-4.876-5.853c-3.25-0.648-8.773-12.349-12.674-14.299
		c-3.899-1.95-3.899-6.825-8.449-8.45c-4.549-1.625-9.104-5.521-12.354-9.099c-3.249-3.574-6.174-3.25-7.8-9.428
		c-1.625-6.177,7.8-14.302,9.425-16.896c1.626-2.6-10.728-14.95-10.728-14.95l-1.625-9.749l-7.476-0.646l-0.977-12.998
		c-9.425,0-10.726-5.2-7.476-10.4s0.976-6.825-5.854-9.099c-6.825-2.275-1.95-6.5-1.95-6.5s20.146,1.946,25.021-1.304
		s-14.946-18.521-17.873-21.445c-2.028-2.03-0.457-3.119,2.433-3.602c-3.96-3.187-8.903-7.085-9.427-7.085
		C349.634,8.726,321.45,7.632,319.266,9.38z"/>
	<g id="KalimantanSelatan" display="inline">
		<path fill="#ff837d" stroke="#FF0000" stroke-miterlimit="10" d="M298.031,387.295c0,1.626,0.326,8.123,1.95,10.396
			c1.625,2.276,0.975,13.001,0.65,13.979c-0.325,0.975,10.725-9.104,10.725-9.104s0.324-8.449-0.319-17.549
			c-0.647-9.104-1.306-5.524-0.979-11.051c0.188-3.121-0.771-4.762-1.638-5.621c-2.876,3.712-7.052,9.889-10.53,18.146
			C297.982,386.7,298.031,386.982,298.031,387.295z"/>
		<path fill="#ff837d" stroke="#FF0000" stroke-miterlimit="10" d="M280.128,289.596c-3.148,10.229-6.296,22.82-10.755,26.755
			c-4.458,3.935-18.623,6.031-17.574,9.967c1.049,3.938,3.411,9.443,0.525,11.542c-2.886,2.104-4.46,4.721-4.984,9.706
			c0,0-10.229,0.527-11.803,7.083c-1.051,4.378-5.257,18.104-7.938,26.745c4.182,2.135,12.586,8.501,12.586,8.501
			s-0.325,23.725,1.3,26.323c1.625,2.6,10.725-3.899,17.549-7.8c6.825-3.899,25.349-9.43,29.575-11.699
			c4.225-2.275,4.224-1.95,6.174-6.824c1.575-3.938,2.724-4.27,3.108-3.396c3.478-8.263,7.653-14.438,10.53-18.146
			c-0.67-0.664-1.289-0.878-1.289-0.878l6.5-10.398c0,0,1.625-10.072,1.625-15.271c0-5.2,2.925-3.248,4.552-2.273
			c1.625,0.979,1.299-3.575,2.604-8.771c0.465-1.857,0.845-3.8,1.146-5.525c-8.531-0.133-18.604-1.466-20.229-2.548
			c-2.622-1.748-3.279-22.066-2.623-25.343c0.656-3.277-0.437-10.271-4.369-15.949c-0.976-1.41-1.831-2.146-2.552-2.543
			c-1.574,1.871-3.333,4.114-4.207,4.987C287.997,285.398,283.275,279.365,280.128,289.596z"/>
	</g>
	<path id="KalimantanTengah" display="inline" fill="#ff837d" stroke="#FF0000" stroke-miterlimit="10" d="M291.304,275.264
		c0.874-5.681-5.463-10.925-11.144-14.42c-5.681-3.495-4.806-9.832-6.554-16.167c-1.749-6.335-5.463-2.84-2.841-20.537
		s-5.898-8.738-7.209-7.427c-1.311,1.311-13.764,19.438-5.462-5.025c8.302-24.469-0.655-29.495-7.427-28.621
		s-12.89,6.117-19.662,4.369c-4.111-1.062-10.063-1.638-14.114-1.928c-4.931,1.396-9.701,2.568-11.806,2.568
		c-5.2,0-8.449,7.146-9.75,13.646s-1.3,20.799-5.85,24.699c-4.55,3.896-1.95,9.1-3.9,11.7c-1.95,2.6-5.201,1.3-11.05,3.25
		c-5.85,1.945-22.1,10.396-29.249,11.05c-7.149,0.646-20.799,5.201-24.699,9.75c-3.9,4.55-21.448,26.646-26.648,25.998
		c-5.201-0.648-6.499,1.299-3.9,9.75c2.599,8.445-0.651,19.499,2.599,25.35c3.25,5.85,3.25,15.599,2.6,20.8
		c-0.65,5.2-7.149,9.751-11.699,11.05c-2.47,0.705-5.892,3.903-8.718,7.405c1.71,3.041,6.12-0.255,6.12-0.255
		s7.149,2.275,13.974-2.273c6.825-4.55,11.049-4.552,15.275-2.602s4.225,3.9,7.149,0.976c2.925-2.926,6.825-0.976,6.825-0.976
		s-1.95,26,0.65,29.9c2.6,3.896,12.024-9.432,17.224-12.025c5.2-2.6,12.35,7.475,12.35,7.475l18.199-13.974
		c0,0-1.95-5.85,0.649-9.101c2.6-3.25,8.45,7.146,13,10.396c4.55,3.248,6.174-2.925,10.399-3.249
		c4.224-0.323,3.575,14.625,3.575,14.625l9.099,0.649c7.474-10.075,13.649-2.276,16.9-1.305c0.372,0.11,0.85,0.323,1.388,0.604
		c2.681-8.646,6.887-22.367,7.938-26.745c1.574-6.556,11.803-7.083,11.803-7.083c0.524-4.985,2.099-7.607,4.984-9.706
		c2.885-2.099,0.524-7.604-0.525-11.542c-1.049-3.936,13.116-6.032,17.574-9.967c4.459-3.938,7.607-16.524,10.755-26.755
		c3.147-10.23,7.869-4.197,9.443-5.771c0.873-0.872,2.632-3.111,4.207-4.982C291.596,277.633,290.646,279.534,291.304,275.264z"/>
	<path id="KalimantanBarat" display="inline" fill="#ff837d" stroke="#FF0000" stroke-miterlimit="10" d="M83.538,355.115
		c4.55-1.299,11.049-5.85,11.699-11.05c0.65-5.201,0.65-14.95-2.6-20.8c-3.25-5.854,0-16.898-2.599-25.352
		c-2.599-8.45-1.301-10.396,3.9-9.748c5.2,0.646,22.749-21.448,26.648-25.998c3.9-4.549,17.549-9.104,24.699-9.75
		c7.15-0.65,23.399-9.104,29.249-11.05c5.85-1.95,9.1-0.649,11.05-3.25c1.95-2.604-0.65-7.806,3.9-11.7
		c4.55-3.899,4.549-18.199,5.85-24.699c1.301-6.499,4.549-13.649,9.75-13.649c2.105,0,6.875-1.172,11.806-2.563
		c-2.622-0.188-4.456-0.257-4.456-0.257s2.62-8.958-1.749-12.453s13.327-13.77,13.327-13.77l0.21-11.555
		c-5.472-1.537-9.796-0.229-11.245-0.053c-2.098,0.262-11.017,10.755-12.328,9.439c-1.312-1.313-9.444-4.979-15.74-6.297
		c-6.296-1.312-10.229-0.262-8.918-6.027c1.311-5.771-18.099-1.055-27.279-1.313c-9.18-0.263-11.28,17.837-11.28,17.837
		s-7.345-0.262-9.705,3.672c-2.36,3.938-6.558,4.727-13.117,5.246c-6.558,0.524-8.131-4.191-16.788-3.672
		c-8.656,0.524-12.328,4.197-17.049,7.345c-4.722,3.147-9.968,3.147-12.066-0.781c-2.099-3.938-5.509-2.104-8.132-2.104
		s-2.098-9.438-4.197-9.438s-8.918-4.728-8.132-8.657c0.786-3.938-4.983-3.672-5.508-4.458c-0.524-0.787-8.132-7.347-7.869-8.132
		c0.263-0.787-1.574-8.396-3.147-10.229c-0.919-1.071-1.566-4.104-1.897-6.71l-7.058,0.588c-3.9,2.925-2.601,9.104-4.55,12.675
		c-1.949,3.575-7.475,2.604-7.475,8.125c0,5.525-3.574,11.375-5.85,13.649c-2.275,2.274,1.625,8.124,0.975,12.35
		c-0.65,4.229-4.875,3.574-3.574,7.806c1.3,4.226,2.274,14.943,2.6,20.473c0.326,5.522,0.649,3.9,3.9,2.925
		c3.25-0.975,7.149,10.729,7.474,16.25c0.325,5.525,0.325,7.479-2.6,8.45s0.649,15.6,0.649,15.6c6.174,0.65,9.101,1.624,13,6.499
		c3.9,4.875-3.899,0.979-7.475,0c-3.576-0.975-0.975,5.525-0.975,8.45s4.875,3.249,8.45,1.625c3.575-1.624,4.225,3.9,4.225,3.9
		l-4.55,0.318c0,0-2.6,9.431-1.3,14.306c1.3,4.875,4.225,1.944,6.825-0.979s6.825-4.551,6.825-4.551s-0.325-6.174,1.95-5.521
		c2.274,0.646,4.55,5.853,3.899,8.446c-0.65,2.604,6.5,5.854,6.5,5.854c0,17.869-5.201,17.549-7.475,19.818
		c-2.275,2.275,8.774,8.775,8.774,8.775s-1.625,12.674,0.975,20.146c2.6,7.479,3.9,19.824,3.575,28.273s5.199,0.976,9.424-2.925
		c4.225-3.899,6.175,2.602,7.475,7.146c0.102,0.356,0.235,0.646,0.38,0.904C77.646,359.022,81.068,355.823,83.538,355.115z"/>
</g>
<g id="KepulauanMaluku-sub" display="none">
	<g id="Maluku" display="inline">
		<path fill="#ff837d" stroke="#FF0000" stroke-miterlimit="10" d="M183.505,417.007c0,0,8.09,16.18,10.296,11.026
			C196.007,422.893,196.009,412.594,183.505,417.007z"/>
		<path fill="#ff837d" stroke="#FF0000" stroke-miterlimit="10" d="M57.289,426.323c0,0-3.611-1.203-1.404-6.619
			c2.206-5.411,5.616-10.631,7.622-9.021c2.006,1.604,6.018,3.609,8.825,2.604c2.809-1.003,8.425-7.02,10.832-6.218
			c2.406,0.803,9.628,6.021,7.822,7.823c-1.805,1.805-8.224,0.2-9.828,3.409c-1.604,3.21-0.803,4.413-6.419,4.413
			c-5.616,0-14.041-2.813-14.643,0.195C59.495,425.926,57.289,426.323,57.289,426.323z"/>
		<path fill="#ff837d" stroke="#FF0000" stroke-miterlimit="10" d="M244.834,425.323l-7.422-0.396c0,0,0.602-11.64,2.808-15.646
			c2.207-4.011,8.023-8.424,8.826-10.631c0.802-2.206,2.607-10.631,7.221-9.227c4.614,1.398,5.215,3.21,2.607,4.607
			c-2.607,1.404-2.607,3.41-1.403,4.613c1.203,1.204,1.403,5.817-0.201,9.829s-2.006,5.416-5.015,6.218
			C249.246,415.49,244.433,422.517,244.834,425.323z"/>
		<path fill="#ff837d" stroke="#FF0000" stroke-miterlimit="10" d="M338.506,373.976c0,0-2.207,2.206,1.003,4.412
			c3.209,2.207,6.819,4.012,10.431-0.802c3.61-4.814,3.41-14.646,3.41-14.646s-4.213-1.003-5.216-2.604
			c-1.003-1.605-6.819-10.029-7.422-7.021S342.518,370.967,338.506,373.976z"/>
		<path fill="#ff837d" stroke="#FF0000" stroke-miterlimit="10" d="M347.131,350.702l10.43,9.433c0,0,4.213,0.201,4.814-4.412
			c0.602-4.614,0.2-8.826,0.2-8.826l-4.613-3.61l4.613-2.006l-0.2-10.023c0,0-2.206,0.195-2.407-2.206
			c-0.2-2.407-3.61-8.431-6.018-5.021c-2.406,3.41-5.015,8.825-5.616,13.646C347.732,342.483,347.131,350.702,347.131,350.702z"/>
		<path fill="#ff837d" stroke="#FF0000" stroke-miterlimit="10" d="M129.298,251.82c0,0-1.404,6.224,1.604,6.619
			c3.009,0.401,7.021-3.811,10.431-3.604c3.409,0.195,9.026-0.604,6.418-4.212c-2.607-3.61-4.011-4.814-6.819-3.209
			C138.123,249.012,130.101,249.413,129.298,251.82z"/>
		<path fill="#ff837d" stroke="#FF0000" stroke-miterlimit="10" d="M127.693,234.771c0,0,0.602,9.026,1.203,9.628
			c0.602,0.604,4.213-0.201,5.416-4.012s-0.401-9.227,1.003-10.631c1.404-1.404,2.607,1.003,2.407,5.616l4.412,1.003
			c0,0,4.613,8.224,6.82,8.021c2.206-0.201,5.416,1.203,8.825-4.012c3.41-5.215,7.021-8.826,6.419,0.401
			c0,0,6.018-1.203,7.422,0.602c1.403,1.805,10.229,3.41,11.834,2.607c1.605-0.809,1.003-4.018,1.003-4.018l15.244,0.808
			l0.201,4.813c0,0,16.247,6.218,19.657,9.829c3.409,3.611,8.022,5.616,9.227,4.814l0.802-7.427c0,0,3.009-3.009,0.803-5.215
			s2.206-6.418-7.622-5.416l-0.201-9.427c0,0-10.028-6.62-10.43-7.221c-0.402-0.604-11.634,0.197-11.634,0.197
			s-16.247-7.819-16.648-8.426c-0.401-0.602-13.64,7.422-13.64,7.422l-0.803-7.222l-8.424,4.614l-2.407-2.207l-21.062,0.802
			l-2.006,5.616C135.516,226.346,128.295,231.16,127.693,234.771z"/>
		<path fill="#ff837d" stroke="#FF0000" stroke-miterlimit="10" d="M65.713,230.759c1.484-4.298,3.812,3.811,5.817,2.006
			c2.005-1.805,2.206-4.813,7.822-4.813c5.616,0,13.238,0.194,17.05,3.009c3.811,2.808,5.816,2.604,5.215,5.616
			c-0.601,3.009-0.602,5.61,1.404,5.215c2.006-0.401,4.012-1.203,3.811,5.416c-0.2,6.619-2.607,5.015-4.813,5.61
			c-2.206,0.604-2.809,5.021-6.619,5.416c-3.812,0.401-9.871,1.553-16.648-2.401C76.344,254.428,59.896,247.608,65.713,230.759z"/>
		<path fill="#ff837d" stroke="#FF0000" stroke-miterlimit="10" d="M101.818,438.563c0,0-4.012-1.003-5.216-2.206
			c-1.203-1.203-3.209,1.604-4.012,3.813c-0.802,2.201-7.822,2.006-7.822,2.006s-1.003,4.012-5.215,0.802
			c-4.213-3.209-3.812-1.805-8.023,0.803c-4.213,2.607-5.416,2.607-12.035,1.604c-6.619-1.003-13.841,1.203-19.256,3.811
			c-5.416,2.608-7.222-2.406-8.625,4.018c-1.404,6.418-4.814,8.819-4.614,10.63l-2.551,0.352c1.229,1.392,2.717,2.621,4.128,2.621
			c3.229,0,6.057-4.038,6.863,0c0.808,4.039-0.404,6.461-4.038,6.057c-3.634-0.398-4.038,2.021-2.422,4.852
			c0.631,1.104,1.948,3.387,3.601,5.8c1.219-0.564,2.739-0.946,4.649-1.021c0,0,3.811-7.021,8.825-7.621
			c5.014-0.604,17.651-4.214,22.866-10.829l10.632-1.203c0,0,3.209-7.021,7.221-7.622c4.012-0.604,5.015-0.4,7.822-2.607
			c2.809-2.206,2.006,1.404,7.222-4.212C107.033,442.775,110.042,439.767,101.818,438.563z"/>
	</g>
	<g id="MalukuUtara" display="inline">
		<path fill="#ff837d" stroke="#FF0000" stroke-miterlimit="10" d="M7.343,175.198c-1.023,0.981-2.407,11.64,0.401,13.038
			c2.808,1.404,8.424,1.605,10.631-1.805s5.215-4.012,7.823-3.009c2.608,1.003,8.625,1.604,10.229-0.2
			c1.604-1.806,5.015-3.41,5.817-2.608c0.802,0.808-0.602,6.619,4.012,5.616c4.613-1.002,26.878-3.209,25.674-5.014
			c-1.203-1.805-25.875-3.41-29.686-3.209c-3.812,0.201-3.812-3.41-6.619-3.009c-2.809,0.396-5.216,3.41-9.227,1.003
			C22.387,173.593,12.157,170.584,7.343,175.198z"/>
		<path fill="#ff837d" stroke="#FF0000" stroke-miterlimit="10" d="M110.844,170.183c3.21-3.811,6.419-11.433,9.629-10.029
			c3.209,1.404,4.212,4.218,7.02,4.218c2.809,0,13.439,6.814,10.431,9.227c-3.009,2.407-12.637,0.201-15.445,1.604
			c-2.808,1.4-7.822,4.813-9.828,0.604C110.644,171.587,110.844,170.183,110.844,170.183z"/>
		<path fill="#ff837d" stroke="#FF0000" stroke-miterlimit="10" d="M120.271,137.488l-5.816,1.404c0,0-1.003-3.604-2.809-6.018
			c-1.806-2.407-5.215-10.029,0.803-11.438c6.018-1.398,9.628,5.616,9.628,5.616S118.467,132.474,120.271,137.488z"/>
		<path fill="#ff837d" stroke="#FF0000" stroke-miterlimit="10" d="M143.138,141.901c0,0-9.628-5.015-12.235-11.834
			c-2.607-6.813-9.828-12.229-9.828-12.229l0.602-21.864c0,0-8.425-12.235-8.023-16.247c0.402-4.012,1.003-10.43,1.003-10.43
			s-4.212-1.811-3.61-7.622c0.602-5.817,4.613-6.021,4.813-10.437c0.201-4.407,1.003-11.229,1.404-12.436
			c0.401-1.204,11.434-19.256,14.643-16.849c3.209,2.401-3.61,11.229-3.61,11.229s0.602,3.41,3.209,5.416s1.204,18.654,1.204,18.654
			s-2.809,5.616-7.823,8.425c-5.015,2.808-5.816,7.221,0.201,9.828c6.018,2.604,4.613-1.203,5.415-5.014
			c0.803-3.813,4.613-6.224,6.619-6.224s-2.206-3.409,0.201-6.218c2.407-2.808,5.215-9.427,10.631-9.628s8.023-0.401,8.023-0.401
			l1.003,18.058c0,0-17.853,10.229-17.05,11.834c0.803,1.604,14.643,9.021,14.843,9.628c0.201,0.602-0.4,10.023-0.4,10.023
			s-5.015-3.605-8.023-3.009c-3.009,0.604-9.829-3.811-12.035-4.813c-2.207-1.005-6.619-1.005-6.018,2.207
			c0.602,3.209,3.209,8.424,2.206,11.229c-1.003,2.812-2.206,6.619-0.2,10.029c2.006,3.41,5.416,15.043,7.622,18.253
			S145.946,140.697,143.138,141.901z"/>
		<path fill="#ff837d" stroke="#FF0000" stroke-miterlimit="10" d="M142.938,29.575c0,0-3.209-8.431-1.806-11.64
			c1.404-3.209,5.216-10.229,7.823-11.634s4.012-5.817,5.616-0.803c1.604,5.014,1.404,11.634-0.401,16.047
			C152.365,25.964,146.949,30.778,142.938,29.575z"/>
	</g>
</g>
<g id="WestPapua-sub" display="none">
	<g id="Papua" display="inline">
		<path fill="#ff837d" stroke="#FF0000" stroke-miterlimit="10" d="M257.568,91.331c5.783,0.479,13.976,4.337,19.277,5.777
			c5.301,1.446,29.397-0.479,27.951-3.854c-1.446-3.373-8.675-0.482-15.903-2.41c-7.229-1.928-9.156-4.337-15.903-3.374
			c-6.747,0.964-25.06-5.783-26.505,0C246.115,88.953,251.785,90.849,257.568,91.331z"/>
		<path fill="#ff837d" stroke="#FF0000" stroke-miterlimit="10" d="M469.771,330.033c-2.41-5.777,7.229-24.572,7.229-24.572
			s-1.205-172.044-3.614-171.803c-2.41,0.235-9.155-7.952-9.155-7.952s-17.104,1.44-20.236-2.65
			c-3.132-4.096-5.542-4.337-6.506-1.687c-0.97,2.646-12.529,0.235-12.529,0.235s-29.879-19.03-31.813-19.518
			c-1.928-0.482-7.229-0.241-9.15-4.337c-1.934-4.099-12.289-6.506-23.373-9.397c-11.084-2.891-12.289-8.675-15.186-10.355
			c-2.893-1.688-20.479,13.494-25.779,15.18c-5.305,1.687-5.063,5.783-2.648,8.193c2.409,2.403,2.896,6.982,2.896,6.982
			s-7.229,0.482-7.951,0.482c-0.723,0-5.061,1.687-7.71,4.578c-2.65,2.891-6.265,0.479-15.18,0.479
			c-8.916,0-6.747,17.354-9.879,17.59c-3.132,0.241-12.289,9.885-12.289,9.885v9.15c0,0-8.434,5.783-12.289,8.192
			c-3.855,2.41-4.819,7.952-4.819,7.952l-19.277,1.928l-8.192-10.361c1.446-11.807-0.964-11.084-4.578-10.602
			c-0.711,0.094-1.212,0.021-1.57-0.196c-1.498,7.921-2.784,15.519-2.784,18.253c0,6.566,15.595,25.445,12.312,28.729
			c-1.056,1.056-3.991,3.221-7.664,5.747c0.117,0.143,0.188,0.231,0.188,0.231s-5.301,2.896-2.892,6.747
			c2.41,3.855,9.638,5.303,9.638,5.303l10.121,8.678l27.951,0.479c0,0,10.12,6.747,14.939,8.193
			c4.819,1.442,10.121,7.71,25.542,12.526c15.42,4.817,37.107,18.796,43.854,22.648c6.746,3.854,5.303,7.229,4.818,12.53
			c-0.48,5.301,1.928,6.747,7.711,9.639c5.783,2.895,7.229,13.494,8.188,22.168s13.979,15.901,16.391,18.313c0,0,1.44,4.817,0,7.71
			c-1.445,2.896-8.192-0.479-11.084,3.374c-2.896,3.854,14.938,12.528,14.938,12.528s-6.266,0.964-8.676,1.446l4.339,7.71
			c0,0-3.373,0-8.677-0.482c-5.301-0.479-15.42,3.374-22.647,11.566c-7.229,8.189-17.351,30.843-17.351,38.07
			c0,7.229,4.816,0.966,8.189-0.48c3.372-1.444,18.313,2.41,22.172,3.374c3.854,0.964,8.674-6.268,8.674-6.268
			s2.41,5.304,10.119,6.268c7.711,0.964,4.338-5.783,4.338-5.783c1.928-5.781,11.563-11.084,14.938-7.229
			c3.373,3.854,6.268,1.441,11.084-1.932c4.816-3.374,17.831-2.894,17.831-2.894s1.445,10.604,10.12,16.867
			c8.674,6.265,24.096,29.396,24.096,29.396l8.192,2.409l1.44-104.094C476.52,339.196,472.181,335.822,469.771,330.033z"/>
		<path fill="#ff837d" stroke="#FF0000" stroke-miterlimit="10" d="M264.958,65.79c3.536,0,7.389,1.286,14.136,1.286
			c6.747,0,5.461-3.219,5.783-6.105c0.322-2.892-7.068-1.928-7.389-2.892c-0.32-0.97-10.924-13.171-14.458-15.742
			c-3.533-2.57-3.213,9.639-1.286,11.563C263.673,55.831,264.958,65.79,264.958,65.79z"/>
	</g>
	<g id="PapuaBarat" display="inline">
		<path fill="#ff837d" stroke="#FF0000" stroke-miterlimit="10" d="M32.432,91.25c-1.205,2.169-8.675,0-11.566,1.687
			c-2.892,1.688-9.879,4.819-8.675,7.47c0,0,11.807,9.644,17.831,6.747c6.024-2.891,9.879-5.777,7.71-12.524
			C35.564,87.876,33.637,89.081,32.432,91.25z"/>
		<path fill="#ff837d" stroke="#FF0000" stroke-miterlimit="10" d="M62.552,28.841c0.482-5.783,11.084,1.928,14.217-4.578
			c3.132-6.506-3.615-8.916-8.675-10.843c-5.06-1.927-13.012-2.168-15.18-0.729c-2.169,1.446,5.783,10.361,6.024,12.53
			c0.241,2.168-7.711-3.614-9.397-6.747c-1.687-3.133-4.819-5.061-8.674-4.337c-3.855,0.729-3.855,9.397-1.928,8.674
			c0,0,2.65,3.374,12.289,8.916C60.865,37.275,62.552,28.841,62.552,28.841z"/>
		<path fill="#ff837d" stroke="#FF0000" stroke-miterlimit="10" d="M213.375,165.691c0-2.733,1.286-10.332,2.784-18.253
			c-1.457-0.894-0.452-4.356-0.839-10.166c-0.482-7.229-1.205-9.396-5.301-11.807s-3.614,6.265-2.168,9.638
			c1.446,3.373,0.241,9.156-2.168,9.879c-2.41,0.729-1.687-6.506-3.855-13.494c-2.168-6.982-7.71-10.843-7.71-11.563
			c0-0.729-0.241-13.735-1.446-18.795c-1.205-5.063-2.651-11.325-2.651-11.325s6.506-5.06,6.265-7.952
			c-0.241-2.891-0.241-5.783,2.41-7.229c2.65-1.446-1.446-4.578-5.06-7.952c-3.615-3.374-4.819-12.771-4.819-12.771
			s4.096-1.928,3.132-5.78c-0.964-3.854-20.24-3.373-25.782-3.135c-5.542,0.241-7.711-1.687-11.325-6.982
			c-3.614-5.307-18.072-10.361-30.602-12.289c-12.53-1.934-20.963,13.253-23.614,16.144c-2.65,2.896-21.445,4.819-25.3,5.542
			c-3.855,0.727,0,10.844-1.205,16.146c-1.205,5.301-9.397,5.301-9.397,5.301L66.17,56.79c0,0-2.168-2.896-12.048-3.373
			c-9.88-0.482-2.892,11.084,0,16.385s7.711,3.854,7.711,3.854c-0.725,6.269,2.331,5.625,7.793,7.559
			c5.462,1.928,7.71-0.646,7.71-0.646s9.638-1.284,12.85,1.607c3.211,2.891,8.354,3.533,8.354,3.533s0,4.813,2.248,5.141
			s3.535,0.964,2.25,3.533c-1.286,2.57-0.642,7.063,1.928,8.997c2.569,1.928,2.892,7.389,2.892,7.389s3.855,1.286,7.71,5.463
			c3.855,4.178,4.819,2.57,9.316-0.317c4.497-2.896,3.213-2.25,4.497,0.643c1.284,2.892,5.783,0.645,5.783,0.645
			s38.233-1.282,42.409-5.142c4.175-3.854,5.463-5.461,7.391-0.322c1.928,5.145-0.964,9.96-4.177,12.854
			c-3.213,2.891-2.892,6.104-10.924,6.425c-8.033,0.32-11.244-5.461-15.421-7.711c-4.177-2.25-10.603,8.033-14.136,14.138
			c-3.533,6.105-7.71,6.427-8.033,4.819c-0.322-1.606-7.067-3.855-11.244-4.819c-4.177-0.964-5.461-0.964-6.747,0.646
			c-1.286,1.604-8.353,1.284-9.638,6.104c-1.286,4.819-0.322,6.104,6.104,5.461c6.427-0.642,8.353,1.932,13.172,5.146
			s4.498,10.276,8.033,13.492c3.535,3.216,4.819-4.18,5.783-1.605c0.964,2.569,0.964,7.068,3.214,10.604
			c2.25,3.532-0.964,5.145-5.141,4.817c-4.177-0.321,2.569,16.386,5.141,21.525c2.571,5.142,4.819,3.53,6.425,0.643
			c1.605-2.891,2.892-0.643,6.425-0.32c3.533,0.318,11.888-11.563,10.282-13.813s-2.251-3.211,4.819-9.642
			c7.07-6.43,5.461-3.854,5.139,0c-0.322,3.854,4.819,5.143,8.674,5.78c3.855,0.646,1.607,5.462,2.892,7.394
			c1.284,1.929,6.747-5.146,8.674-3.215c1.927,1.931-0.32,6.43,2.571,8.354c2.892,1.928,3.855-0.646,5.14-4.177
			c1.284-3.533,3.855,1.285,5.141,5.461c1.286,4.176,3.534,2.569,5.783-0.646c1.922-2.743,4.422-0.104,5.111,0.729
			c3.673-2.526,6.607-4.691,7.664-5.747C228.969,191.136,213.375,172.257,213.375,165.691z"/>
	</g>
</g>
<g id="NusaTenggar-sub" display="none">
	<g id="NusaTenggaraTimur" display="inline">
		<path fill="#ff837d" stroke="#FF0000" stroke-miterlimit="10" d="M246.202,102.458l-24.417-1.11c0,0-10.543-9.711-8.879-12.763
			c1.665-3.059,8.602-9.989,16.093-9.989c7.492,0,20.532-0.555,21.92,1.665c1.387,2.22,6.104-1.665,6.104-1.665
			c3.33-4.161,4.994-4.161,8.324,1.942c3.329,6.104,10.543,6.104,10.543,6.104l0.278,8.879c0,0,8.323-4.162,11.653,0.832
			c3.329,4.994,5.271,10.544,8.046,11.937c2.774,1.388,10.544,6.382,6.659,11.647c-3.885,5.272-7.769,6.938-9.711,6.659
			s-4.439,6.659-6.382,6.659s-2.22-3.329-6.659-3.606c-4.439-0.272-11.653-6.104-11.653-6.104c-3.052-3.052-2.497-5.271-4.717-8.324
			c-2.22-3.052-8.602-5.549-11.099-7.491C249.808,105.788,246.202,102.458,246.202,102.458z"/>
		<path fill="#ff837d" stroke="#FF0000" stroke-miterlimit="10" d="M344.7,146.851c0,0,9.712,6.104,12.209,1.11
			c2.497-4.995,2.22-10.544-1.942-11.653c-4.162-1.11-5.826,3.329-5.826,3.329C346.365,140.192,342.48,144.354,344.7,146.851z"/>
		<path fill="#ff837d" stroke="#FF0000" stroke-miterlimit="10" d="M397.418,157.672c-0.761-0.339-0.277,6.937-0.277,6.937
			s12.764,0,17.48-4.438c4.716-4.439,11.653-5.55,10.543-11.104c-1.109-5.549-0.986-11.586-3.329-9.711
			C419.061,141.58,402.413,159.892,397.418,157.672z"/>
		<path fill="#ff837d" stroke="#FF0000" stroke-miterlimit="10" d="M260.907,50.572c0,0-8.324-1.665-7.214-9.15
			c1.109-7.491,5.271-13.602,9.711-14.434c4.44-0.832,12.485-8.602,12.485-8.602l19.7-0.277c0,0,1.665,6.104,5.271,5.827
			c3.607-0.272,12.486,0.555,16.371,3.052c3.89,2.497,8.604,2.497,10.543,6.659c1.942,4.162,11.104,6.659,12.485-3.33l20.812-1.104
			c0,0,4.994,4.162,6.386,6.104c1.388,1.942,11.101,4.438,13.041,1.664c1.938-2.771,1.104-10.816,5.549-11.931
			c4.438-1.109,8.047-1.942,8.047-1.942s4.722-9.434,10.821-9.153c6.104,0.275,0.557,3.604,6.104,3.056
			c5.549-0.562,7.213-1.942,9.711,1.387c2.495,3.33,0,7.771,3.604,7.771c3.607,0,9.434-1.109,9.434-1.109s3.059-11.653,8.884-11.653
			c5.822,0,8.319,7.491,8.319,7.491s5.553,0.833,6.659,1.942c1.109,1.104,2.22-7.216,6.658-8.047
			c4.438-0.833,6.104,4.156,8.324-0.277c2.22-4.438,4.438-6.381,7.485-4.994c3.059,1.389,4.162,1.942,11.104,1.665
			c6.937-0.276,15.261-0.276,14.979,5.271c-0.271,5.552-0.556,7.216-16.093,9.713c-15.538,2.496-23.026,3.328-20.255-1.109
			c2.774-4.438-0.277-9.435-2.497-4.162c-2.22,5.271-8.324,18.867-11.099,15.815c-2.775-3.058-3.058-8.604-5.271-8.324
			c-2.22,0.276-1.938-4.994-1.938-4.994s-2.497-4.438-6.659-0.555s-6.659,4.438-6.659,4.438s-0.832,11.936-10.544,11.104
			c-9.711-0.833-10.543-4.72-8.323-7.771c2.223-3.052-1.664-2.771-6.938-3.329c-5.271-0.555-4.159-3.885-4.159-3.885
			s-4.438,1.109-4.72,3.054c-0.274,1.94-3.885,4.16-3.604,6.383c0.278,2.223,2.497,3.604-4.717,6.104
			c-7.216,2.497-11.933,8.047-11.933,8.047h-19.146c0,0-2.497,2.773-6.938,4.161c-4.438,1.389-6.938,2.772-11.377,0.557
			c-4.438-2.22-15.537-0.833-15.537-0.833s1.939,6.104-2.771,5.271c-4.717-0.833-5.55-2.775-9.711,0
			c-4.162,2.771-4.438,3.604-8.879-1.392c-4.44-4.991-7.214-1.39-9.711-3.328c-2.498-1.939-18.313-0.559-18.313-0.559
			s-3.33-0.555-6.104-2.497C269.507,46.41,267.844,51.682,260.907,50.572z"/>
		<path fill="#ff837d" stroke="#FF0000" stroke-miterlimit="10" d="M503.395,69.444c5.025,0.563,6.701-2.792,5.586-8.378
			c-1.111-5.586-5.021,0-9.489,0c-1.951,0-4.017-1.706-5.71-3.627l-4.521,0.624l-10.818,10.821l-13.869-0.555
			c0,0-4.723,9.711-9.715,10.543c-4.991,0.833-6.384,1.104-10.269,6.653c-3.885,5.556-6.104,7.492-6.937,13.873
			c-0.832,6.388-11.937,22.479-12.208,26.643c-0.2,2.979,4.988,7.214,11.376,8.602c6.381,1.387,13.595-2.22,19.693-9.989
			l17.764-1.938c0,0,2.494-7.492,7.214-9.989c4.717-2.497,7.769-4.994,7.769-4.994s0.277-9.982,9.156-11.376
			c0,0-0.914-8.688,6.609-12.185c-2.287-3.338-4.107-6.494-4.981-8.022C497.808,72.238,498.367,68.884,503.395,69.444z"/>
	</g>
	<g id="NusaTenggaraBarat" display="inline">
		<path fill="#ff837d" stroke="#FF0000" stroke-miterlimit="10" d="M66.177,48.673c0,0,6.325,6.659,11.75,5.236
			c5.425-1.428,8.915-0.184,13.139,0.983c4.226,1.166,7.629-1.669,11.239-12.707c3.609-11.036,7.682-24.577-1.322-25.212
			c-9.003-0.634-13.641-2.157-18.939,3.747c-5.296,5.907-7.285,11.445-5.918,17.021c1.367,5.573,0.436,10.59-3.376,9.783
			C68.938,46.729,68.433,45.558,66.177,48.673z"/>
		<path fill="#ff837d" stroke="#FF0000" stroke-miterlimit="10" d="M111.633,62.781c0,0-5.827-9.435-2.774-10.815
			c3.052-1.394,5.271-3.33,4.162-7.214c-1.11-3.891,1.665-9.156,3.607-10.821s6.104-2.497,7.214-5.271
			c1.11-2.771,23.584-2.771,23.584-2.771s2.497,8.047,4.717,8.602c2.22,0.561,6.382,2.774,6.382,5.827
			c0,3.054,7.491,3.054,8.878,3.329c1.388,0.277,3.885-4.717,5.549-4.717c1.665,0,13.873,1.938,7.492-4.162
			c-6.382-6.104-12.486-4.717-12.486-4.717s-5.827-8.604-9.156-9.156c-3.33-0.555-10.821-3.052-6.659-6.659
			c4.162-3.604,13.873-8.879,18.313-6.381c4.439,2.497,10.266,10.82,10.543,13.317c0.278,2.497,2.22,4.717,4.995,2.771
			c2.774-1.938,6.659-11.376,10.266-6.937c3.607,4.438,6.381,3.604,6.104,5.826c-0.277,2.22,4.439-4.723,7.214-3.891
			c2.775,0.833,8.324,0.277,8.879,8.324s0.277,10.544,3.33,11.099c3.052,0.561,6.104,6.659-0.833,7.22
			c-6.937,0.555-7.769-5.827-9.989-3.058c-2.22,2.774-16.093,11.104-21.087,9.156c0,0-0.833-3.053-0.833-6.937
			c0-3.891,0.278-8.053-1.665-5.827c-1.943,2.22-8.046,13.313-12.208,13.596c-4.162,0.277-6.937-0.832-8.046,1.388
			c-1.109,2.226-8.324,2.497-12.208,2.497c-3.885,0-11.376,6.104-13.596,8.046c-2.22,1.942-5.272-3.604-7.769-3.604
			c-2.497,0-4.717,5.826-7.492,4.994C123.286,65,111.633,62.781,111.633,62.781z"/>
	</g>
	<path id="Bali" display="inline" fill="#ff837d" stroke="#FF0000" stroke-miterlimit="10" d="M47.262,12.004
		c-5.549-2.488-6.659-7.771-11.099-4.861c-4.439,2.897-14.798,6.212-18.128,3.729c-2.957-2.208-12.6-2.455-14.73-2.484
		c-1.079,2.083-1.688,4.435-1.716,7.051c0.056-0.141,0.115-0.292,0.169-0.427c1.85-4.561,2.22,5.474,4.439,10.034
		c2.22,4.559,11.562,0.854,18.59,5.827c5.162,3.646,2.969,8.965,11.653,12.208c4.439,1.652,9.274-4.311,22.289-13.983
		C65.297,24.213,52.811,14.489,47.262,12.004z"/>
</g>
<g id="Indonesia" display="none">
	<g id="NusaTenggar" display="inline">
		<path fill="#ff837d" stroke="#FF0000" stroke-miterlimit="10" d="M337.453,238.254c-0.766-0.383-1.301-1.912-2.219-3.288
			s-3.213-0.23-3.213-0.23l-0.076-2.44c0,0-1.987,0-2.904-1.688c-0.918-1.682-1.376-1.682-2.294-0.536c0,0-1.302,1.071-1.683,0.458
			c-0.383-0.605-3.979-0.458-6.041-0.458c-2.064,0-3.979,1.912-4.438,2.759c-0.459,0.841,2.447,3.518,2.447,3.518l6.729,0.306
			c0,0,0.99,0.918,1.682,1.454c0.688,0.535,2.449,1.229,3.062,2.064c0.612,0.84,0.459,1.453,1.302,2.294
			c0,0,1.986,1.604,3.211,1.682c1.229,0.076,1.301,0.994,1.836,0.994s1.228-1.912,1.758-1.835c0.535,0.076,1.605-0.384,2.682-1.836
			C340.357,240.012,338.218,238.636,337.453,238.254z"/>
		<path fill="#ff837d" stroke="#FF0000" stroke-miterlimit="10" d="M353.739,245.977c-1.146-0.306-1.605,0.918-1.605,0.918
			c-0.764,0.153-1.835,1.299-1.224,1.988c0,0,2.677,1.682,3.365,0.307C354.964,247.812,354.887,246.281,353.739,245.977z"/>
		<path fill="#ff837d" stroke="#FF0000" stroke-miterlimit="10" d="M372.168,246.817c-0.764,0.612-5.354,5.659-6.729,5.047
			c-0.211-0.093-0.078,1.912-0.078,1.912s3.52,0,4.818-1.224c1.301-1.223,3.211-1.529,2.9-3.058
			C372.779,247.965,372.814,246.3,372.168,246.817z"/>
		<path fill="#ff837d" stroke="#FF0000" stroke-miterlimit="10" d="M365.439,217.454c-0.078-0.611,0.916-1.229,0.992-1.764
			c0.072-0.529,1.301-0.841,1.301-0.841s-0.312,0.917,1.146,1.07c1.452,0.154,2.521,0.077,1.911,0.918s-0.383,1.912,2.294,2.141
			c2.679,0.229,2.905-3.059,2.905-3.059s0.688-0.153,1.835-1.227c1.146-1.068,1.835,0.151,1.835,0.151s-0.076,1.452,0.533,1.375
			c0.608-0.076,0.688,1.453,1.453,2.294c0.767,0.842,2.444-2.901,3.062-4.354c0.608-1.453,1.453-0.077,0.688,1.146
			c-0.769,1.229,1.301,0.995,5.582,0.313c4.277-0.688,4.354-1.148,4.438-2.682c0.074-1.524-2.221-1.524-4.131-1.454
			c-1.911,0.076-2.219-0.071-3.059-0.457c-0.847-0.384-1.453,0.152-2.063,1.375c-0.611,1.229-1.07-0.147-2.295,0.076
			c-1.226,0.229-1.529,2.524-1.835,2.223c-0.307-0.311-1.836-0.535-1.836-0.535s-0.688-2.064-2.295-2.064
			c-1.604,0-2.445,3.21-2.445,3.21s-1.604,0.313-2.602,0.313c-0.994,0-0.31-1.229-0.994-2.146c-0.688-0.918-1.146-0.534-2.676-0.381
			c-1.531,0.153,0-0.764-1.687-0.841s-2.979,2.521-2.979,2.521s-0.994,0.23-2.222,0.535c-1.223,0.313-0.991,2.524-1.526,3.289
			c-0.533,0.77-3.211,0.076-3.597-0.459c-0.382-0.536-1.759-1.682-1.759-1.682l-5.73,0.306c-0.386,2.753-2.906,2.065-3.439,0.918
			c-0.535-1.146-1.835-1.146-2.906-1.835c-1.066-0.688-3.52-0.918-4.512-0.841c-0.993,0.076-1.452-1.607-1.452-1.607l-5.433,0.077
			c0,0-2.217,2.146-3.438,2.371c-1.225,0.23-2.368,1.912-2.676,3.979c-0.309,2.063,1.984,2.521,1.984,2.521
			c1.912,0.308,2.371-1.146,3.138-0.611c0.766,0.535,1.683,0.688,1.683,0.688s4.359-0.383,5.049,0.153
			c0.688,0.53,1.451-0.459,2.678,0.918c1.226,1.375,1.303,1.146,2.445,0.382c1.146-0.77,1.377-0.229,2.676,0
			c1.305,0.229,0.77-1.453,0.77-1.453s3.063-0.383,4.282,0.229c1.224,0.61,1.907,0.229,3.136-0.149
			c1.227-0.383,1.912-1.147,1.912-1.147h5.271c0,0,1.301-1.523,3.289-2.218C366.127,218.448,365.516,218.066,365.439,217.454z"/>
		<path fill="#ff837d" stroke="#FF0000" stroke-miterlimit="10" d="M396.186,225.241c-0.309-1.54-1.386,0-2.617,0
			c-0.532,0-1.104-0.477-1.567-1l-1.245,0.172l-2.979,2.979l-3.823-0.147c0,0-1.302,2.676-2.677,2.9
			c-1.377,0.229-1.76,0.312-2.83,1.835c-1.068,1.529-1.686,2.064-1.909,3.823c-0.229,1.759-3.288,6.194-3.365,7.34
			c-0.055,0.823,1.377,1.989,3.136,2.371c1.76,0.382,3.748-0.612,5.431-2.752l4.896-0.536c0,0,0.688-2.063,1.988-2.753
			c1.3-0.688,2.145-1.376,2.145-1.376s0.073-2.754,2.521-3.135c0,0-0.253-2.396,1.821-3.357c-0.631-0.921-1.133-1.791-1.375-2.212
			c-0.614-1.077-0.461-2.001,0.926-1.847C396.034,227.703,396.492,226.78,396.186,225.241z"/>
		<path fill="#ff837d" stroke="#FF0000" stroke-miterlimit="10" d="M283.744,213.091c-2.482-0.175-3.76-0.595-5.22,1.033
			s-2.008,3.147-1.632,4.688c0.377,1.537,0.12,2.918-0.93,2.698c-1.05-0.223-1.189-0.546-1.812,0.313c0,0,1.743,1.839,3.238,1.441
			c1.495-0.393,2.457-0.049,3.621,0.272c1.165,0.316,2.103-0.459,3.098-3.5C285.103,216.998,286.225,213.266,283.744,213.091z"/>
		<path fill="#ff837d" stroke="#FF0000" stroke-miterlimit="10" d="M316.807,220.971c1.912-0.152,1.07-1.835,0.229-1.987
			c-0.843-0.147-0.765-0.842-0.918-3.059c-0.152-2.217-1.683-2.065-2.447-2.294c-0.764-0.229-2.063,1.682-1.987,1.071
			c0.076-0.611-0.688-0.389-1.683-1.605c-0.994-1.224-2.065,1.375-2.83,1.912c-0.764,0.534-1.299-0.077-1.376-0.765
			c-0.076-0.688-1.682-2.981-2.906-3.677c-1.224-0.688-3.899,0.771-5.046,1.766c-1.147,0.994,0.917,1.682,1.834,1.834
			c0.918,0.146,2.523,2.521,2.523,2.521s1.682-0.383,3.441,1.3c1.757,1.688-1.606,1.146-2.065,1.146
			c-0.458,0-1.146,1.377-1.529,1.301c-0.382-0.077-2.446-0.077-2.446-0.918s-1.147-1.453-1.758-1.604
			c-0.612-0.153-1.301-2.371-1.301-2.371s-6.193,0-6.499,0.765c-0.306,0.765-1.454,0.994-1.988,1.453
			c-0.536,0.458-1.3,1.912-0.994,2.979c0.306,1.069-0.306,1.604-1.147,1.986s0.765,2.982,0.765,2.982s3.211,0.605,3.977,0.841
			c0.764,0.229,1.376-1.376,2.064-1.376s1.53,1.527,2.141,0.994c0.611-0.535,2.677-2.222,3.747-2.222
			c1.07,0,3.058-0.072,3.365-0.688c0.306-0.611,1.07-0.308,2.217-0.383c1.147-0.077,2.83-3.137,3.365-3.748
			c0.534-0.611,0.459,0.537,0.459,1.604c0,1.07,0.229,1.911,0.229,1.911c1.376,0.534,5.198-1.759,5.813-2.521
			C314.665,219.366,314.895,221.125,316.807,220.971z"/>
		<path fill="#ff837d" stroke="#FF0000" stroke-miterlimit="10" d="M268.938,211.719c-1.529-0.686-1.835-2.14-3.059-1.339
			c-1.224,0.798-4.079,1.712-4.997,1.021c-0.814-0.604-3.472-0.677-4.06-0.684c-0.297,0.575-0.465,1.222-0.473,1.943
			c0.016-0.039,0.032-0.081,0.047-0.118c0.51-1.256,0.611,1.509,1.223,2.765c0.612,1.257,3.187,0.236,5.124,1.607
			c1.422,1.005,0.818,2.47,3.211,3.358c1.223,0.458,2.556-1.186,6.143-3.854C273.909,215.084,270.467,212.404,268.938,211.719z"/>
	</g>
	<g id="WestPapua" display="inline">
		<path fill="#ff837d" stroke="#FF0000" stroke-miterlimit="10" d="M533.768,114.403c1.836,0.153,4.438,1.376,6.118,1.836
			c1.688,0.458,9.328-0.147,8.869-1.224c-0.458-1.071-2.752-0.153-5.047-0.765c-2.294-0.612-2.905-1.376-5.047-1.071
			c-2.146,0.306-7.952-1.835-8.411,0C530.133,113.649,531.933,114.25,533.768,114.403z"/>
		<path fill="#ff837d" stroke="#FF0000" stroke-miterlimit="10" d="M601.109,190.156c-0.771-1.836,2.294-7.8,2.294-7.8
			s-0.384-54.599-1.147-54.521c-0.764,0.077-2.905-2.523-2.905-2.523s-5.429,0.459-6.424-0.841c-0.993-1.3-1.758-1.376-2.063-0.535
			c-0.311,0.842-3.979,0.076-3.979,0.076s-9.479-6.04-10.094-6.192c-0.611-0.148-2.294-0.071-2.906-1.377
			c-0.605-1.299-3.896-2.063-7.416-2.979c-3.519-0.918-3.896-2.754-4.813-3.288c-0.917-0.536-6.5,4.282-8.188,4.817
			c-1.683,0.528-1.604,1.834-0.842,2.6c0.766,0.764,0.918,2.217,0.918,2.217s-2.294,0.153-2.521,0.153
			c-0.229,0-1.604,0.536-2.447,1.454c-0.841,0.917-1.987,0.147-4.817,0.147c-2.828,0-2.14,5.505-3.135,5.581
			c-0.994,0.077-3.899,3.141-3.899,3.141v2.901c0,0-2.677,1.835-3.896,2.604c-1.227,0.765-1.529,2.521-1.529,2.521l-6.117,0.613
			l-2.6-3.289c0.459-3.747-0.307-3.517-1.452-3.364c-0.227,0.03-0.386,0.008-0.499-0.062c-0.462-0.285-0.143-1.385-0.267-3.229
			c-0.153-2.293-0.383-2.979-1.688-3.748c-1.301-0.764-1.146,1.989-0.688,3.063s0.075,2.905-0.688,3.135
			c-0.767,0.229-0.536-2.063-1.224-4.283c-0.688-2.217-2.448-3.438-2.448-3.669c0-0.229-0.076-4.354-0.458-5.965
			c-0.383-1.604-0.842-3.594-0.842-3.594s2.063-1.605,1.989-2.523c-0.077-0.918-0.077-1.835,0.764-2.294
			c0.841-0.458-0.458-1.452-1.604-2.521c-1.146-1.071-1.526-4.059-1.526-4.059s1.3-0.605,0.994-1.835
			c-0.313-1.224-6.425-1.065-8.188-0.995c-1.759,0.077-2.442-0.529-3.594-2.218c-1.146-1.682-5.735-3.288-9.712-3.896
			c-3.979-0.611-6.652,4.205-7.493,5.123c-0.842,0.918-6.806,1.523-8.028,1.759c-1.225,0.229,0,3.438-0.384,5.124
			c-0.382,1.682-2.979,1.682-2.979,1.682l0.459-3.823c0,0-0.688-0.918-3.824-1.065c-3.135-0.153-0.918,3.517,0,5.2
			c0.917,1.682,2.447,1.223,2.447,1.223c-0.229,1.988,0.734,1.786,2.474,2.396c1.732,0.61,2.446-0.201,2.446-0.201
			s3.059-0.407,4.077,0.51c1.021,0.919,2.646,1.122,2.646,1.122s0,1.524,0.713,1.632c0.714,0.101,1.122,0.306,0.716,1.121
			c-0.404,0.813-0.2,2.243,0.609,2.854c0.815,0.612,0.918,2.35,0.918,2.35s1.227,0.404,2.447,1.729
			c1.223,1.326,1.528,0.815,2.957-0.103c1.426-0.917,1.019-0.713,1.426,0.205c0.409,0.917,1.836,0.203,1.836,0.203
			s12.133-0.407,13.458-1.636c1.325-1.224,1.734-1.729,2.347-0.102c0.611,1.63-0.307,3.16-1.321,4.077
			c-1.021,0.918-0.917,1.938-3.472,2.04c-2.55,0.101-3.563-1.733-4.894-2.447c-1.327-0.713-3.365,2.549-4.487,4.486
			c-1.121,1.938-2.44,2.039-2.549,1.523c-0.103-0.509-2.242-1.224-3.566-1.523c-1.321-0.313-1.729-0.313-2.143,0.204
			c-0.408,0.509-2.648,0.401-3.06,1.938c-0.406,1.528-0.104,1.938,1.938,1.733c2.04-0.205,2.651,0.605,4.188,1.631
			c1.522,1.02,1.426,3.262,2.548,4.282c1.122,1.02,1.523-1.325,1.836-0.516c0.306,0.815,0.306,2.243,1.02,3.365
			c0.713,1.122-0.307,1.631-1.631,1.529c-1.326-0.104,0.813,5.199,1.631,6.831c0.816,1.632,1.529,1.122,2.038,0.205
			c0.511-0.918,0.918-0.205,2.04-0.104c1.121,0.104,3.772-3.67,3.262-4.384c-0.509-0.713-0.714-1.021,1.53-3.061
			c2.244-2.037,1.733-1.227,1.631,0c-0.103,1.226,1.529,1.634,2.752,1.838c1.229,0.2,0.518,1.729,0.919,2.344
			c0.407,0.61,2.146-1.631,2.755-1.021c0.609,0.613-0.104,2.041,0.813,2.653c0.918,0.611,1.225-0.205,1.631-1.326
			c0.406-1.122,1.228,0.408,1.631,1.733c0.409,1.323,1.122,0.813,1.836-0.204c0.61-0.871,1.402-0.033,1.621,0.229
			c0.038,0.046,0.063,0.076,0.063,0.076s-1.688,0.917-0.917,2.146c0.766,1.224,3.059,1.682,3.059,1.682l3.213,2.751l8.868,0.154
			c0,0,3.212,2.142,4.741,2.599c1.53,0.459,3.212,2.448,8.104,3.979c4.896,1.523,11.776,5.964,13.917,7.188
			c2.146,1.223,1.688,2.293,1.529,3.979c-0.153,1.683,0.612,2.142,2.446,3.059c1.835,0.917,2.295,4.283,2.6,7.036
			c0.313,2.752,4.438,5.046,5.2,5.811c0,0,0.459,1.529,0,2.447c-0.459,0.917-2.6-0.153-3.519,1.071
			c-0.92,1.224,4.736,3.977,4.736,3.977s-1.982,0.31-2.753,0.458l1.376,2.447c0,0-1.065,0-2.752-0.153
			c-1.682-0.148-4.896,1.071-7.188,3.67c-2.295,2.604-5.511,9.789-5.511,12.082c0,2.294,1.528,0.313,2.604-0.147
			c1.069-0.458,5.811,0.765,7.034,1.065c1.223,0.312,2.753-1.983,2.753-1.983s0.765,1.683,3.212,1.983
			c2.445,0.312,1.376-1.836,1.376-1.836c0.61-1.834,3.672-3.517,4.74-2.293c1.065,1.229,1.982,0.458,3.519-0.606
			c1.529-1.07,5.658-0.919,5.658-0.919s0.459,3.361,3.212,5.354s7.646,9.329,7.646,9.329l2.604,0.764l0.458-33.03
			C603.25,193.062,601.874,191.991,601.109,190.156z"/>
		<path fill="#ff837d" stroke="#FF0000" stroke-miterlimit="10" d="M536.113,106.298c1.122,0,2.344,0.408,4.479,0.408
			c2.146,0,1.733-1.021,1.835-1.938c0.104-0.917-2.236-0.611-2.344-0.917c-0.102-0.307-3.467-4.18-4.589-4.996
			c-1.121-0.813-1.021,3.063-0.407,3.671C535.705,103.138,536.113,106.298,536.113,106.298z"/>
		<path fill="#ff837d" stroke="#FF0000" stroke-miterlimit="10" d="M462.322,114.378c-0.382,0.688-2.753,0-3.67,0.534
			c-0.918,0.529-3.142,1.523-2.753,2.364c0,0,3.74,3.063,5.652,2.146c1.911-0.918,3.141-1.835,2.448-3.979
			C463.316,113.308,462.705,113.689,462.322,114.378z"/>
		<path fill="#ff837d" stroke="#FF0000" stroke-miterlimit="10" d="M471.88,94.573c0.153-1.835,3.521,0.612,4.513-1.447
			c0.993-2.065-1.146-2.83-2.754-3.441c-1.604-0.611-4.129-0.688-4.813-0.229c-0.688,0.458,1.835,3.282,1.911,3.976
			c0.073,0.688-2.447-1.146-2.981-2.141c-0.536-0.995-1.529-1.606-2.753-1.377c-1.224,0.229-1.224,2.979-0.612,2.753
			c0,0,0.848,1.064,3.899,2.823C471.346,97.25,471.88,94.573,471.88,94.573z"/>
	</g>
	<g id="KepulauanMaluku" display="inline">
		<path fill="#ff837d" stroke="#FF0000" stroke-miterlimit="10" d="M452.63,206.255c0,0,3.085,6.168,3.926,4.205
			C457.396,208.499,457.396,204.573,452.63,206.255z"/>
		<path fill="#ff837d" stroke="#FF0000" stroke-miterlimit="10" d="M404.514,209.808c0,0-1.375-0.458-0.535-2.521
			c0.842-2.064,2.146-4.058,2.905-3.441c0.767,0.612,2.294,1.376,3.364,0.994s3.212-2.676,4.13-2.37
			c0.917,0.306,3.67,2.294,2.981,2.982c-0.688,0.688-3.135,0.071-3.746,1.299c-0.612,1.224-0.307,1.683-2.447,1.683
			s-5.354-1.071-5.582,0.077C405.354,209.655,404.514,209.808,404.514,209.808z"/>
		<path fill="#ff837d" stroke="#FF0000" stroke-miterlimit="10" d="M476.011,209.426l-2.83-0.153c0,0,0.229-4.436,1.07-5.965
			c0.842-1.528,3.059-3.211,3.364-4.052c0.307-0.842,0.994-4.052,2.753-3.521c1.76,0.536,1.987,1.229,0.994,1.765
			c-0.994,0.529-0.994,1.3-0.534,1.759c0.458,0.458,0.534,2.217-0.077,3.747s-0.765,2.063-1.912,2.37
			C477.692,205.679,475.855,208.355,476.011,209.426z"/>
		<path fill="#ff837d" stroke="#FF0000" stroke-miterlimit="10" d="M511.719,189.85c0,0-0.841,0.841,0.383,1.688
			c1.229,0.842,2.604,1.524,3.979-0.311c1.375-1.836,1.298-5.583,1.298-5.583s-1.604-0.383-1.986-0.994
			c-0.382-0.606-2.601-3.817-2.828-2.678C512.331,183.121,513.249,188.703,511.719,189.85z"/>
		<path fill="#ff837d" stroke="#FF0000" stroke-miterlimit="10" d="M515.008,180.98l3.979,3.594c0,0,1.604,0.077,1.835-1.682
			c0.229-1.76,0.077-3.365,0.077-3.365l-1.765-1.376l1.765-0.765l-0.077-3.823c0,0-0.842,0.077-0.918-0.841
			c-0.076-0.917-1.376-3.21-2.294-1.912c-0.917,1.3-1.912,3.365-2.146,5.201C515.238,177.845,515.008,180.98,515.008,180.98z"/>
		<path fill="#ff837d" stroke="#FF0000" stroke-miterlimit="10" d="M431.965,143.281c0,0-0.535,2.371,0.613,2.523
			c1.146,0.153,2.676-1.453,3.975-1.376c1.301,0.077,3.441-0.229,2.447-1.605s-1.529-1.835-2.6-1.224
			C435.329,142.211,432.271,142.364,431.965,143.281z"/>
		<path fill="#ff837d" stroke="#FF0000" stroke-miterlimit="10" d="M431.354,136.783c0,0,0.229,3.438,0.464,3.67
			c0.229,0.229,1.604-0.076,2.063-1.528c0.46-1.455-0.152-3.521,0.384-4.053c0.534-0.536,0.994,0.382,0.917,2.142l1.688,0.381
			c0,0,1.759,3.135,2.601,3.063c0.842-0.076,2.064,0.459,3.364-1.528c1.3-1.989,2.676-3.365,2.446,0.153
			c0,0,2.295-0.459,2.826,0.229c0.533,0.688,3.897,1.301,4.517,0.994c0.606-0.306,0.381-1.529,0.381-1.529l5.813,0.313l0.075,1.834
			c0,0,6.192,2.371,7.493,3.747s3.063,2.141,3.521,1.836l0.306-2.83c0,0,1.146-1.147,0.308-1.989
			c-0.842-0.841,0.844-2.447-2.901-2.063l-0.076-3.599c0,0-3.823-2.521-3.979-2.752c-0.149-0.229-4.437,0.077-4.437,0.077
			s-6.194-2.979-6.349-3.212c-0.15-0.229-5.198,2.83-5.198,2.83l-0.311-2.753l-3.213,1.759l-0.918-0.841l-8.022,0.306l-0.771,2.146
			C434.336,133.57,431.583,135.405,431.354,136.783z"/>
		<path fill="#ff837d" stroke="#FF0000" stroke-miterlimit="10" d="M407.725,135.253c0.566-1.645,1.453,1.453,2.219,0.764
			c0.771-0.688,0.846-1.835,2.981-1.835c2.142,0,5.048,0.077,6.499,1.147c1.454,1.065,2.218,0.988,1.988,2.14
			c-0.23,1.149-0.229,2.142,0.536,1.989c0.765-0.153,1.523-0.458,1.452,2.063c-0.077,2.523-0.994,1.912-1.835,2.146
			c-0.841,0.229-1.07,1.912-2.522,2.063c-1.453,0.153-3.764,0.59-6.348-0.918C411.777,144.276,405.508,141.676,407.725,135.253z"/>
		<path fill="#ff837d" stroke="#FF0000" stroke-miterlimit="10" d="M421.489,214.472c0,0-1.529-0.381-1.988-0.841
			c-0.458-0.458-1.224,0.612-1.528,1.453c-0.308,0.841-2.979,0.765-2.979,0.765s-0.387,1.529-1.988,0.306
			c-1.604-1.223-1.451-0.688-3.063,0.312c-1.604,0.994-2.063,0.994-4.588,0.606c-2.521-0.382-5.271,0.458-7.342,1.452
			c-2.063,0.994-2.753-0.918-3.287,1.529c-0.535,2.447-1.836,3.365-1.761,4.053l-0.972,0.14c0.468,0.522,1.033,1,1.57,1
			c1.229,0,2.312-1.54,2.617,0c0.31,1.534-0.152,2.462-1.539,2.309c-1.39-0.153-1.539,0.771-0.926,1.847
			c0.238,0.421,0.74,1.291,1.371,2.212c0.469-0.216,1.049-0.356,1.771-0.389c0,0,1.449-2.676,3.361-2.906
			c1.911-0.229,6.729-1.604,8.717-4.13l4.057-0.458c0,0,1.229-2.678,2.753-2.906c1.528-0.229,1.911-0.148,2.979-0.989
			c1.068-0.847,0.769,0.528,2.757-1.606C423.478,216.079,424.624,214.931,421.489,214.472z"/>
		<path fill="#ff837d" stroke="#FF0000" stroke-miterlimit="10" d="M385.475,114.072c-0.392,0.374-0.918,4.438,0.151,4.977
			c1.071,0.535,3.213,0.605,4.054-0.689c0.842-1.299,1.987-1.523,2.982-1.146c0.992,0.382,3.287,0.606,3.898-0.076
			c0.606-0.689,1.91-1.3,2.217-0.994c0.307,0.305-0.229,2.523,1.531,2.141c1.758-0.383,10.246-1.224,9.781-1.907
			c-0.459-0.688-9.857-1.304-11.313-1.228c-1.451,0.077-1.451-1.301-2.521-1.146c-1.07,0.147-1.988,1.3-3.518,0.383
			C391.209,113.46,387.309,112.313,385.475,114.072z"/>
		<path fill="#ff837d" stroke="#FF0000" stroke-miterlimit="10" d="M424.931,112.16c1.229-1.453,2.446-4.358,3.67-3.822
			c1.229,0.534,1.605,1.604,2.683,1.604c1.064,0,5.123,2.604,3.977,3.521c-1.146,0.918-4.813,0.076-5.889,0.605
			c-1.07,0.535-2.982,1.836-3.746,0.229C424.854,112.695,424.931,112.16,424.931,112.16z"/>
		<path fill="#ff837d" stroke="#FF0000" stroke-miterlimit="10" d="M428.524,99.696l-2.224,0.535c0,0-0.382-1.376-1.065-2.293
			c-0.688-0.918-1.987-3.823,0.307-4.354c2.294-0.535,3.67,2.142,3.67,2.142S427.836,97.784,428.524,99.696z"/>
		<path fill="#ff837d" stroke="#FF0000" stroke-miterlimit="10" d="M437.241,101.378c0,0-3.67-1.912-4.663-4.511
			c-0.995-2.604-3.748-4.665-3.748-4.665l0.229-8.335c0,0-3.211-4.665-3.059-6.193c0.153-1.53,0.383-3.979,0.383-3.979
			s-1.604-0.688-1.376-2.9c0.229-2.221,1.759-2.294,1.836-3.979c0.075-1.682,0.381-4.276,0.534-4.741
			c0.152-0.459,4.358-7.341,5.582-6.423c1.224,0.917-1.376,4.282-1.376,4.282s0.229,1.3,1.223,2.064
			c0.994,0.764,0.459,7.105,0.459,7.105s-1.064,2.146-2.979,3.211c-1.911,1.07-2.217,2.753,0.077,3.747
			c2.294,0.995,1.759-0.459,2.063-1.912c0.309-1.448,1.759-2.368,2.523-2.368c0.764,0-0.842-1.302,0.076-2.367
			c0.918-1.071,1.983-3.6,4.054-3.675c2.063-0.072,3.059-0.149,3.059-0.149l0.381,6.882c0,0-6.805,3.9-6.499,4.512
			c0.313,0.612,5.582,3.441,5.658,3.671c0.077,0.229-0.146,3.823-0.146,3.823s-1.912-1.376-3.063-1.146
			c-1.146,0.229-3.748-1.453-4.589-1.835c-0.841-0.388-2.521-0.388-2.293,0.841c0.229,1.224,1.223,3.212,0.841,4.282
			c-0.383,1.065-0.841,2.521-0.076,3.817c0.771,1.302,2.064,5.735,2.906,6.959C436.095,98.626,438.313,100.92,437.241,101.378z"/>
		<path fill="#ff837d" stroke="#FF0000" stroke-miterlimit="10" d="M437.165,58.557c0,0-1.224-3.211-0.688-4.435
			c0.535-1.229,1.987-3.9,2.981-4.438c0.993-0.535,1.529-2.217,2.141-0.305c0.612,1.912,0.536,4.435-0.147,6.117
			C440.759,57.18,438.694,59.016,437.165,58.557z"/>
	</g>
	<path id="Kalimantan" display="inline" fill="#ff837d" stroke="#FF0000" stroke-miterlimit="10" d="M314.156,72.653
		c-1.021-0.198-2.754-3.874-3.977-4.48c-1.229-0.612-1.229-2.146-2.65-2.65c-1.427-0.51-2.855-1.729-3.874-2.854
		c-1.02-1.122-1.938-1.021-2.448-2.957c-0.51-1.938,2.448-4.487,2.957-5.308c0.509-0.813-3.365-4.688-3.365-4.688l-0.51-3.063
		l-2.345-0.198l-0.306-4.078c-2.957,0-3.364-1.631-2.345-3.269c1.02-1.631,0.306-2.141-1.835-2.854s-0.611-2.039-0.611-2.039
		s6.321,0.611,7.85-0.408c1.53-1.02-4.69-5.811-5.607-6.729c-0.637-0.642-0.143-0.979,0.763-1.128c-1.242-1-2.795-2.229-2.958-2.229
		c-0.274,0-9.116-0.343-9.801,0.206c-0.686,0.549-0.822,0-1.919-0.548c-1.097-0.549-2.125-0.343-2.673,0.205
		c-0.549,0.548-1.371,0.686-2.399,0c-1.028-0.688-1.439,0.548-1.577,1.097c-0.137,0.549-1.233,0.342-1.713,1.371
		s-1.166,5.688-1.097,6.854c0.069,1.165,0.206,4.521-0.479,5.004c-0.685,0.479-0.137,3.427-0.548,4.592
		c-0.412,1.165-0.754,1.713-2.331,1.713c-1.577,0-2.536,0.206-2.879,1.371c-0.342,1.166-1.096,3.222-0.206,3.907
		c0.891,0.685,2.056,0.891-0.137,2.673c-2.193,1.78-3.976,2.396-4.044,3.905c-0.068,1.509,0.274,1.304,0.617,2.531
		c0.343,1.234-0.549,2.269-1.303,2.948c-0.754,0.688-0.822,1.576-1.371,2.878c-0.549,1.305-0.138,2.947-1.439,2.467
		c-1.302-0.479-1.44-1.162-2.537-0.404c-1.096,0.753-1.781,0.61-1.781,0.61l-0.003,0.146c-1.717-0.483-3.073-0.074-3.528-0.021
		c-0.658,0.082-3.456,3.374-3.868,2.965c-0.412-0.41-2.963-1.563-4.938-1.978c-1.975-0.411-3.209-0.083-2.797-1.895
		c0.411-1.813-5.678-0.327-8.559-0.41c-2.88-0.082-3.538,5.596-3.538,5.596s-2.305-0.083-3.045,1.151
		c-0.74,1.229-2.058,1.479-4.115,1.646c-2.058,0.165-2.551-1.313-5.267-1.148s-3.868,1.313-5.349,2.306s-3.127,0.987-3.785-0.247
		c-0.658-1.234-1.729-0.658-2.551-0.658c-0.823,0-0.658-2.962-1.317-2.962c-0.658,0-2.798-1.479-2.551-2.716
		c0.246-1.234-1.563-1.152-1.728-1.399s-2.551-2.304-2.469-2.551c0.082-0.248-0.494-2.634-0.988-3.21
		c-0.288-0.335-0.491-1.288-0.595-2.104l-2.214,0.187c-1.224,0.918-0.816,2.854-1.427,3.979c-0.612,1.12-2.345,0.813-2.345,2.553
		c0,1.729-1.122,3.563-1.835,4.276c-0.714,0.719,0.51,2.555,0.306,3.875c-0.204,1.326-1.529,1.121-1.121,2.447
		c0.408,1.325,0.713,4.69,0.816,6.422c0.102,1.733,0.203,1.229,1.223,0.918c1.02-0.306,2.243,3.364,2.345,5.104
		c0.102,1.729,0.102,2.345-0.815,2.646c-0.917,0.312,0.204,4.896,0.204,4.896c1.937,0.204,2.854,0.509,4.078,2.039
		c1.224,1.524-1.224,0.306-2.345,0c-1.122-0.312-0.306,1.729-0.306,2.646s1.529,1.021,2.651,0.512
		c1.122-0.511,1.325,1.228,1.325,1.228l-1.428,0.101c0,0-0.815,2.957-0.407,4.486c0.407,1.529,1.325,0.612,2.141-0.306
		c0.815-0.918,2.141-1.434,2.141-1.434s-0.103-1.937,0.612-1.729c0.713,0.204,1.427,1.835,1.223,2.646
		c-0.204,0.816,2.04,1.836,2.04,1.836c0,5.607-1.632,5.508-2.345,6.226c-0.714,0.713,2.752,2.752,2.752,2.752
		s-0.51,3.977,0.306,6.318c0.816,2.348,1.224,6.223,1.122,8.868c-0.102,2.649,1.631,0.311,2.956-0.918
		c1.326-1.224,1.938,0.816,2.345,2.242c0.032,0.112,0.074,0.203,0.12,0.285c0.537,0.954,1.92-0.08,1.92-0.08
		s2.243,0.713,4.383-0.713c2.141-1.429,3.466-1.429,4.792-0.815c1.326,0.611,1.326,1.228,2.244,0.31
		c0.917-0.917,2.14-0.31,2.14-0.31s-0.612,8.155,0.205,9.383c0.815,1.225,3.772-2.958,5.403-3.771
		c1.632-0.813,3.875,2.344,3.875,2.344l5.71-4.383c0,0-0.612-1.835,0.204-2.854c0.815-1.021,2.651,2.24,4.078,3.265
		c1.428,1.019,1.937-0.918,3.263-1.021c1.325-0.102,1.122,4.592,1.122,4.592l2.854,0.201c2.345-3.158,4.282-0.716,5.302-0.404
		c0.116,0.03,0.266,0.102,0.436,0.188c1.312,0.67,3.948,2.667,3.948,2.667s-0.102,7.443,0.408,8.258
		c0.51,0.816,3.364-1.223,5.505-2.44c2.142-1.229,7.953-2.957,9.279-3.671c1.325-0.719,1.325-0.612,1.937-2.146
		c0.494-1.231,0.854-1.339,0.975-1.063c0.029,0.063,0.044,0.146,0.044,0.25c0,0.509,0.102,2.548,0.611,3.262
		c0.51,0.714,0.306,4.079,0.205,4.385c-0.102,0.31,3.364-2.854,3.364-2.854s0.102-2.65-0.102-5.507
		c-0.204-2.854-0.408-1.731-0.306-3.471c0.058-0.979-0.241-1.492-0.514-1.763c-0.209-0.208-0.404-0.276-0.404-0.276l2.039-3.262
		c0,0,0.51-3.161,0.51-4.792s0.917-1.021,1.427-0.713c0.51,0.306,0.408-1.122,0.815-2.753c0.146-0.583,0.265-1.192,0.359-1.734
		c0.168-0.975,0.253-1.729,0.253-1.729s-2.141-0.104-3.364-0.408c-1.224-0.31,1.427-1.632,1.529-3.063
		c0.102-1.43-0.51-2.038-1.529-2.038c-1.02,0-1.122-0.514-1.122-0.514l3.874-2.444c0,0-0.204-2.551,0.51-2.754
		c0.714-0.2,1.529-1.321,3.262-1.633c1.733-0.306,2.345-1.428,2.957-3.059c0.611-1.632,1.529-3.161,3.568-4.384
		c2.039-1.229,3.059-2.553,3.161-4.282c0.102-1.734-1.122-0.612-1.122-0.612s-0.815-4.792-0.305-5.812
		c0.509-1.021-0.103-2.651,0.611-5.608c0.713-2.956,2.447-6.423,3.568-7.646c1.122-1.229,2.142-0.104,3.16,0.306
		c1.02,0.408-0.815-4.18,0.103-3.161c0.917,1.021,3.364,2.04,4.996,2.244s2.345-0.612,3.568,0.103c1.223,0.719,2.038,0,3.567-2.038
		C317.215,72.449,315.176,72.857,314.156,72.653z"/>
	<path id="Jawa" display="inline" fill="#ff837d" stroke="#FF0000" stroke-miterlimit="10" d="M258.845,219.673
		c-1.121-0.572-2.167-1.077-2.982-2.219c-0.792-1.109-0.024-3.5,0.488-4.788c0.008-0.727,0.176-1.369,0.473-1.943
		c-0.074-0.001-0.12-0.001-0.12-0.001c0.23-2.833-0.688-4.584-1.3-4.891c-0.612-0.311-2.753-0.381-3.135-0.458
		c-0.383-0.076-0.306-1.229-0.459-1.731c-0.49-1.622-1.938,0.915-4.384,0.915c-2.447,0-2.854,0.342-3.977,0.912
		c-1.122,0.571-5.812-1.37-7.953-2.168c-2.141-0.8-1.019-1.683-0.204-3.509s-1.122-3.229-0.815-3
		c0.306,0.228,6.932,1.142,9.482,1.142c2.548,0,1.529-1.827,2.14-1.711c0.612,0.113,2.651,0,5.812-2.396
		c3.161-2.398-10.808-1.718-13.152-1.604c-2.344,0.114-2.855,0.342-3.976,1.94c-1.122,1.6-1.938,0.913-2.345-0.229
		c-0.408-1.142-3.568-1.479-4.996-1.022c-1.428,0.457-3.161-1.604-4.792-1.371c-1.041,0.146-1.997-0.961-2.845-1.848
		c-0.482-0.501-0.929-0.93-1.335-1.012c-1.121-0.228-1.937,1.255-3.67,1.371c-1.733,0.114-2.651-3.997-4.894-4.453
		c-2.243-0.458-3.772,2.283-4.384,5.48c-0.612,3.191-3.059,2.282-4.18,1.479c-1.121-0.799-2.549,0.688-4.792,0.457
		c-2.243-0.229-4.384-1.479-5.608-1.479c0,0-1.834,1.599-3.16,0.913c0,0-2.517-0.894-4.722-1.06c-0.53-0.041-1.042-0.04-1.498,0.027
		c-2.345,0.343-1.707-2.081-2.014-3.792c-0.306-1.713-2.982-3.671-3.747-4.741c-0.731-1.021-0.968,2.14-2.293,1.911
		c-1.326-0.229-2.804-3.096-3.212-3.211c-0.408-0.114-0.713,1.263-2.142,1.376c-1.427,0.113-3.542-1.521-3.9-3.594
		c-0.382-2.221-4.052-1.813-4.893-1.376c-0.999,0.512,0.005,1.622-0.476,2.188c-0.089,0.106-0.225,0.195-0.441,0.257
		c-1.462,0.409-2.518,0.104-3.106-0.546c-0.182-0.195-0.322-0.426-0.412-0.678c-0.358-1.002-3.339,0.443-4.563-0.127
		c-1.223-0.571-1.427-0.799-1.427-0.799s-0.663,1.914-1.274,0.544c-0.611-1.37-1.224-1.256-2.447,0.113
		c-1.223,1.367-0.969,5.354-1.682,6.61c-0.714,1.258-1.733,0.194-2.447,0.771c0,0-0.765,5.505-3.211,3.67
		c-0.774-0.58-1.071-1.071-1.683,0c-0.612,1.067-0.306,1.682,1.224,1.525c0,0,4.587,0.61,6.576,0.151
		c1.988-0.458,3.603,1.239,4.843,1.91c0.382,0.208,1.247,0.193,2.128,0.195c2.056,0.008,4.201,0.095,0.523,3.247
		c-2.141,1.835-0.408,3.71,4.282,4.279c4.69,0.57,7.861-0.856,10.399,1.295c4.512,3.827,7.751,2.849,10.782,4.137
		c5.531,2.354-3.059-2.562,4.894-1.762c0,0,0.204-0.008,0.545-0.016c1.912-0.042,8.202-0.104,7.942,0.935
		c-0.153,0.61,4.59,0.571,7.57,2.145c0.027,0.015,0.059,0.031,0.087,0.047c2.644,1.408,7.33,4.651,11.005,5.155
		c0.392,0.056,0.777,0.088,1.143,0.07c0.321-0.016,0.635-0.021,0.947-0.021c3.403-0.042,6.165,0.404,6.165,0.404
		s0.229,1.684,2.752,1.452c1.293-0.116-0.895-2.021,7.188-0.46c6.729,1.303,7.927,2.429,10.476-0.457
		c1.683-1.902,4.537,0.431,6.882,1.91c2.345,1.484,5.913,2.371,9.482,2.829c3.568,0.457,0.077,2.409,1.912,2.522
		C257.774,221.622,259.966,220.243,258.845,219.673z"/>
	<g id="Sulawesi" display="inline">
		<path fill="#ff837d" stroke="#FF0000" stroke-miterlimit="10" d="M397.02,65.363c-0.688-0.459-0.605-1.447-2.063-1.906
			c-1.452-0.459-1.604,0.841-2.829,2.752c-1.226,1.905-2.981,1.683-3.67,1.604s-0.077,2.217-0.077,2.217s-0.918,0.688-2.063,0.688
			c-1.147,0-4.129,4.813-6.117,5.353c-1.903,0.519-8.008-1.215-10.469-1.693c-0.107-0.021-0.225-0.043-0.313-0.063
			c-2.218-0.382-1.835,0.688-2.752,1.835c-0.918,1.147-4.972-2.753-4.972-2.753s-2.646-0.043-4.149-0.099
			c-0.478-0.021-0.845-0.035-0.974-0.06c-0.535-0.07-2.829-0.688-5.658-0.459c-2.829,0.23-2.678-2.14-3.518-2.899
			c-0.842-0.771-2.906,0.688-2.981-0.23c-0.077-0.917-4.741-0.765-4.741-0.765s0.076,1.064-0.152,2.447
			c-0.229,1.376-0.688,1.982-1.683,2.753c-0.995,0.765-1.3,2.521-2.753,2.441c-1.452-0.07-1.225-1.523-2.6-2.294
			c-1.377-0.765-0.23,2.37-1.605,2.682c-1.377,0.306-1.377,3.135-1.301,3.976c0.076,0.842-0.842-0.152-2.064,0.688
			c-1.225,0.845-1.375,4.057-0.688,5.354s-0.077,1.453-0.766,3.058c-0.688,1.606,0.306,7.571,0.306,7.571s-1.58,1.624-2.718,2.996
			c-0.403,0.488-0.752,0.945-0.953,1.286c-0.764,1.3-0.764,3.135-1.299,3.365c-0.537,0.229-1.377,1.681-1.912,3.517
			c-0.534,1.836,0.383,4.896,1.224,7.418c0.841,2.523-1.3,1.988-2.37,2.676c-1.07,0.688-0.841,5.965-1.682,7.729
			c-0.844,1.759-2.906,1.523-3.672,1.836c-0.766,0.306-0.152,2.141,0.842,2.753c0.994,0.605-0.688,3.135-0.918,4.511
			c-0.229,1.377,1.759,6.423,1.759,6.423s5.251-1.521,6.034-1.523c0.002,0,0.005-0.003,0.007-0.003c0.765,0,1.606,1.068,1.069,2.829
			c-0.534,1.762,1.988,5.198,1.988,5.198s0.229,7.27-0.533,8.029c-0.771,0.764-0.689,4.74-0.689,6.192
			c0,1.449-1.91,2.902-2.676,6.112c-0.766,3.213,4.357,5.967,5.505,6.271s2.829-2.065,3.671-1.836c0.842,0.229,1.911,0,2.6-0.535
			c0.688-0.536,2.683,0.688,2.683,0.688c1.065-1.683-1.688-5.271-1.912-7.266c-0.229-1.987,1.065-4.587,1.687-6.882
			c0.607-2.293-0.533-3.67-0.611-3.979c-0.074-0.306-0.307-8.563-0.307-8.563s0.533-0.229,1.377-1.529
			c0.842-1.299-0.459-2.599-0.459-2.599s0.072-5.432-0.074-5.506c-2.018-1.006-2.447-3.671-2.447-3.671s4.74-4.517,5.889-4.816
			c1.146-0.306,4.357-0.153,5.123,0.764c0.764,0.918-0.307,2.294-0.307,2.294l0.016,0.474l0.137,4.579c0,0-2.063,2.44-2.293,3.742
			c-0.229,1.306,7.188,8.334,7.188,8.334s2.524,0.536,2.905,1.454c0.383,0.917-0.229,0.994-1.225,1.764
			c-0.992,0.765-0.92,2.365-1.068,5.812c-0.152,3.44,3.822,3.747,6.729,4.205c2.904,0.459,1.836-1.071,1.223-1.836
			c-0.606-0.764,0.076-2.676,0.076-3.517c0-0.847,4.816-1.307,4.816-1.307s1.684-1.299,2.754,0c1.07,1.307,2.904-0.458,2.904-0.458
			v-4.052L364,150.777c0,0-0.994-1.299-1.684-2.753c-0.688-1.452-0.994-2.979-3.822-4.435c-2.83-1.454,0.535-2.146,0.535-2.146
			l-0.074-4.309l-0.002-0.125c2.295,1.07,1.604-1.071,0.688-2.219c-0.916-1.146-0.84-1.834-1.604-3.139
			c-0.766-1.301-2.904-1.834-2.828-3.213c0.076-1.376-2.221-4.895-3.139-6.112c-0.916-1.229-1.984-0.917-2.902-1.688
			c-0.918-0.764-3.439-3.67-3.136-5.124c0.307-1.452,1.452,0.995,2.905,2.295c1.451,1.302,2.752-0.148,3.061-1.912
			c0.307-1.759,1.146-1.835,3.746-2.218c2.602-0.381,4.97-4.205,7.492-7.417c2.521-3.211,2.143-3.822,2.143-3.822
			s2.828,0.229,3.365-0.919c0.533-1.146,0.992,1.306,2.676,2.446c1.684,1.146,1.528-0.688,2.063-1.835
			c0.535-1.146,0.535-1.912-0.307-3.896s-5.506-0.991-7.416-0.844c-1.912,0.153-1.072,1.376,0.152,1.988
			c1.223,0.612,0.381,0.918,0.381,0.918l-8.945-0.458l-0.459,2.676l-6.117,0.153c0-2.906-1.983-1.3-3.977,0.611
			c-1.986,1.91-2.369,4.662-2.676,6.041c-0.309,1.375-4.438,0.307-5.813-0.229c-1.38-0.536-1.605-2.979-1.988-4.129
			c-0.383-1.146-1.76-2.521-3.441-2.294c-1.682,0.229-2.6-4.129-3.287-9.329c-0.688-5.199,2.754-10.323,5.049-11.853
			c2.293-1.529,3.133-0.77,4.51,0.383c1.129,0.938,4.504,0.699,6.572,0.666c0.461-0.008,0.857-0.005,1.15,0.021
			c1.604,0.153,2.064-1.604,2.83-1.911c0.766-0.307,1.684,0.387,2.904,1.604c1.223,1.224,1.76-0.153,3.977-0.535
			c2.218-0.383,12.082,0.076,12.082,0.076l1.988,1.912c0,0,0.824,0.462,3.396,0.586c0.565,0.025,1.212,0.04,1.956,0.021
			c4.131-0.073,9.787-1.604,9.787-1.604s4.055-6.194,6.271-8.185c2.217-1.986,2.9-3.597,3.135-5.048
			c0.229-1.452,0.766-1.836,1.836-2.143C398.091,67.045,397.708,65.821,397.02,65.363z"/>
		<path fill="#ff837d" stroke="#FF0000" stroke-miterlimit="10" d="M418.861,22.835c-0.055-0.818-0.819-2.517-1.965-2.566
			c-1.146-0.055-0.819,3.712-0.273,4.422c0.546,0.709,0.22,1.365-0.164,2.566c-0.382,1.201,0.221,2.184,0.221,2.184
			c1.363,0.328,1.909-3.106,2.291-3.815C419.354,24.91,418.917,23.654,418.861,22.835z"/>
		<path fill="#ff837d" stroke="#FF0000" stroke-miterlimit="10" d="M370.943,106.196c-1.836-0.529-4.74,0.389-5.504,2.37
			c-0.771,1.989,1.299,4.058,1.299,4.058s1.604-1.987,2.83-3.521C370.792,107.571,372.779,106.731,370.943,106.196z"/>
		<path fill="#ff837d" stroke="#FF0000" stroke-miterlimit="10" d="M371.175,109.178c0,0,2.063,3.211,3.211,2.446
			c1.148-0.77,0.688-4.058,0.688-4.058S372.32,105.048,371.175,109.178z"/>
		<path fill="#ff837d" stroke="#FF0000" stroke-miterlimit="10" d="M369.492,148.635c-0.842-0.306-2.065-0.841-2.295,1.376
			c-0.23,2.217,1.91,2.523,1.91,2.523c1.226-0.076,1.912-0.847,1.99-2.682C371.175,148.022,370.333,148.94,369.492,148.635z"/>
		<path fill="#ff837d" stroke="#FF0000" stroke-miterlimit="10" d="M353.739,164.999c-0.63,0-1.911,1.912-1.683,3.058
			c0.229,1.148,2.365,3.594,3.06,3.136C355.805,170.733,355.346,164.999,353.739,164.999z"/>
		<path fill="#ff837d" stroke="#FF0000" stroke-miterlimit="10" d="M368.729,166.757c-1.525-0.458-0.842-1.146-1.225-2.753
			c-0.383-1.607,0.842-3.441,2.064-3.748c1.224-0.305,0.535-2.676,0.076-3.594c-0.459-0.917-1.453-1.764-2.83-0.994
			c-1.375,0.765-1.069,4.354-1.375,5.729c-0.312,1.376-0.312,5.053-0.312,5.971c0,0.917-0.843,1.224-1.911,0.306
			c-1.066-0.918-0.307-1.683,0.922-3.212c1.223-1.529,0.383-2.064,0.606-4.438s-0.771-2.441-1.604-1.3
			c-0.845,1.147-1.836,0.841-3.438,1.375c-1.604,0.537-0.688,2.524-0.077,3.595c0.613,1.071,0,2.224-0.766,3.364
			c-0.766,1.147-0.229,2.753-0.229,2.753c0.309,0.459,0.994,0.229,1.835,0.153c0.845-0.076,2.757-0.076,2.297,1.07
			c-0.461,1.146-1.147,3.212,1.604,3.358c2.753,0.154,2.521-1.912,1.835-3.058c-0.688-1.147,1.377-0.536,3.362-1.53
			C371.557,168.822,370.257,167.216,368.729,166.757z"/>
	</g>
	<g id="Sumatera" display="inline">
		<path fill="#ff837d" stroke="#FF0000" stroke-miterlimit="10" d="M130.353,91.435c-0.076-0.842-2.064-2.829-2.905-2.521
			c-0.455,0.165-0.917,3.059-0.841,3.288C126.683,92.429,130.43,92.276,130.353,91.435z"/>
		<path fill="#ff837d" stroke="#FF0000" stroke-miterlimit="10" d="M177.024,28.401c-0.612-0.918-0.714-2.752-1.02-3.358
			c-0.306-0.612-1.631,0.813-2.345,1.729c-0.714,0.918-1.326,1.938-0.816,3.568c0.51,1.631,1.223,1.529,2.141,1.325l1.428,2.04
			c0,0,1.631-0.816,1.733-2.146C178.247,30.236,177.635,29.319,177.024,28.401z"/>
		<path fill="#ff837d" stroke="#FF0000" stroke-miterlimit="10" d="M169.274,126.686c-1.453,0.153-2.447,3.521-2.447,5.965
			c0,2.446,0.306,4.587,1.453,4.896c1.147,0.306,2.447-2.293,2.447-2.293c1.07,0.458,1.299,2.521,2.676,1.982
			c1.377-0.529,1.606-2.142,1.606-3.135s1.147-0.841,1.3-3.059S170.728,126.533,169.274,126.686z"/>
		<path fill="#ff837d" stroke="#FF0000" stroke-miterlimit="10" d="M155.74,133.031c-1.3-0.147-1.759-0.605-1.224-2.217
			c0.536-1.604,0.459-4.205-0.612-4.512c-1.07-0.306-3.594-0.458-3.594-0.458l-1.606-3.747c0,0-0.076-4.97-0.152-5.2
			c-0.077-0.229-1.835-1.983-1.835-2.218c0-0.229,0-2.523-1.147-2.906c-1.147-0.381-3.441-0.535-3.059,0.389
			c0.383,0.917,1.53,3.359,0.842,3.594c-0.688,0.229-1.606-0.458-1.759-1.453c-0.153-0.994-0.382-3.67-1.605-2.604
			c-1.224,1.069-3.135,2.063-2.064,3.14c1.071,1.065-3.594,3.519-2.982,4.513c0.612,0.993,2.447,1.222,4.588,1.299
			c2.141,0.076,3.824,0.076,3.977,1.759c0.153,1.688,0,3.063,0.994,3.215c0.994,0.151,0.918,3.52,1.453,4.737
			c0,0,0.229,0.384,2.37,1.529c2.142,1.146,3.595,1.911,4.053,3.058c0.458,1.148,2.218,1.148,3.135,0.688
			C156.428,135.174,157.04,133.185,155.74,133.031z"/>
		<path fill="#ff837d" stroke="#FF0000" stroke-miterlimit="10" d="M19.094,50.423c-0.51-0.306-2.957-2.146-3.569-2.752
			c-0.611-0.612-2.446-2.345-3.16-2.039c-0.713,0.306-1.427,1.835-0.51,3.059c0.918,1.229,2.854,1.229,4.894,2.753
			c2.039,1.529,4.091,1.87,4.282,1.637C21.847,52.055,19.604,50.729,19.094,50.423z"/>
		<path fill="#ff837d" stroke="#FF0000" stroke-miterlimit="10" d="M37.519,71.539c-0.842-0.626-0.942-1.253-1.457-2.313
			c-0.514-1.056-2.685-3.331-3.341-3.396c-0.657-0.071-1.242,1.558-1.714,1.594c-0.471,0.036-1.599-0.044-1.685,0.054
			c-0.314,0.358,1.3,2.256,1.771,2.9c0.472,0.645,1.271,2.06,1.5,2.884s1.57,1.969,2.328,2.542c0.757,0.573,1.356,0.806,1.47,2.793
			c0.115,1.988,0.757,2.113,1.872,2.31c1.113,0.197,1.456-1.217,1.399-2.573c-0.057-1.361,0.471-2.74,0.657-4.053
			C40.503,72.971,38.362,72.165,37.519,71.539z"/>
		<path fill="#ff837d" stroke="#FF0000" stroke-miterlimit="10" d="M49.222,92.582c-0.459-0.918-2.294-4.282-2.294-4.282l-2.294,0.307
			c0,0.458,3.67,5.964,3.67,5.964S49.681,93.499,49.222,92.582z"/>
		<path fill="#ff837d" stroke="#FF0000" stroke-miterlimit="10" d="M145.446,133.333c-1.557-0.194-1.653-0.686-1.75-1.75
			c-0.097-1.07-0.486-2.728-2.139-2.728l-0.292-3.889c0,0-9.332-2.042-10.696,0.777c-1.364,2.815-2.431,4.959-2.236,2.335
			c0.194-2.627-0.483-3.405,0.194-3.896c0.677-0.479,3.404-2.23,2.723-3.792c-0.681-1.556-2.237-0.479-2.819-1.063
			c-0.583-0.584-0.583-1.945-1.362-1.945c-0.247,0-0.494-1.329-0.716-3.138c-0.477-3.887-0.839-9.988-0.839-9.988
			s-1.652,0.779-2.722,0.39c-1.069-0.389-3.014-1.167-4.278-0.48c-1.264,0.681-1.945-0.778-3.111-1.652
			c-0.748-0.561-1.735-1.004-2.321-1.788c-0.329-0.438-0.533-0.979-0.499-1.714c0.098-2.042,0.681-2.139,1.556-2.722
			s0.68-1.459,0.68-1.459s3.307-0.583,2.626-1.361c-0.681-0.778-2.626-2.042-3.403-1.264c-0.777,0.771-2.042,1.264-1.167-0.103
			c0.875-1.357,2.237-3.106,2.237-3.106s2.042,0.584,2.14,0c0.096-0.583-0.39-4.569-0.39-4.569c-0.491-0.66-1.114-0.716-2.108-0.716
			s-1.07-1.606-1.529-2.217c-0.459-0.612-1.988-0.535-1.988-0.535s-0.612-2.753-0.765-2.982c-0.153-0.229-1.376-0.147-1.606,1.3
			c-0.23,1.453,1.147,2.906,0.841,3.441s-5.275,3.518-5.887,2.676c-0.612-0.841,2.523-2.905,3.9-3.747
			c1.376-0.841-1.071-2.752-1.683-3.594c-0.612-0.841-5.735-0.229-6.117-0.459c-0.382-0.229-1.682-2.371-1.376-2.447
			c0.306-0.077,0.765-0.077,1.071-0.606c0.306-0.536,0.382-2.447,0.382-3.212c0-0.77,0.229-4.438,0.153-4.976
			c-0.076-0.535-5.276-1.988-6.423-2.141c-1.147-0.153,0.688,3.211-0.535,2.063c-1.224-1.146-3.212-1.982-4.283-1.835
			c-1.07,0.152-0.764-0.765,0.077-1.224c0.841-0.458,1.606-1.605,1.453-2.523c-0.153-0.917,0.229-1.906-0.459-3.059
			s-1.529,0.229-1.529,0.229s-1.606-0.071-2.371,0.847c-0.764,0.917-1.682-0.847-2.906-1.765c-1.223-0.918-1.605-2.294-1.605-2.294
			l-2.432-0.364c-2.666,0.313,1.264,6.417,0.529,6.771c-0.735,0.359-2.765-3.854-2.765-3.854s-4.038-2.258-4.374-3.208
			c-0.25-0.708-0.401-2.622-0.894-4.068c-0.173-0.508-0.387-0.959-0.663-1.279c-1.063-1.229-2.899,1.008-3.209,0.875
			c-0.31-0.133,0.827-4.146-0.583-5.639c-1.653-1.75-3.015-2.528-4.959-3.792c-2.453-1.595-3.872-4.008-6.125-5.153
			c-2.254-1.145-4.86-2.364-5.313-3.229c-0.453-0.866-0.485-2.037-2.855-3.09c-2.371-1.06-2.737-1.515-2.237-3.312
			c0.17-0.611,0.168-1.229,0.045-1.792c-0.238-1.095-0.938-1.979-1.768-2.201c-1.259-0.329-2.547-0.353-2.754-2.63
			c-0.206-2.271-2.393-4.308-4.487-7.078c-2.094-2.771-3.303-0.319-5.134-0.3c-1.832,0.025-2.261-2.171-4.025-1.729
			c-1.765,0.438-7.811,1.021-9.679,0.33C16.019,9.214,10.824,2.958,6.692,4.5c-4.131,1.543-0.436,9.908,0.713,11.354
			c1.149,1.447,10.612,12.436,12.243,14.438s5.867,1.603,5.944,1.918c0,0,4.508,6.294,5.191,7.317
			c0.684,1.029,0.906,1.057,1.014,2.237c0.107,1.188,4.822,4.537,4.822,4.537s-0.237,4.92,0.221,7.104
			c0.366,1.741,2.562,1.471,4.283,1.917c0.432,0.109,0.836,0.271,1.171,0.518c1.672,1.232,2.766,3.079,3.977,3.304
			c0,0,2.819,2.146,3.889,5.154c1.07,3.015,2.547,6.121,3.792,10.793c0.389,1.458,1.919,9.785,2.917,10.209
			c0.063,0.026,0.129,0.054,0.193,0.081c2.971,1.254,7.168,2.819,7.586,5.267c0.427,2.5,1.336,4.313,2.684,5.813
			c0.717,0.798,2.954,2.354,3.634,5.076c0.681,2.723,4.554,11.255,6.126,13.607c0.583,0.875,2.333,2.727,1.944,4.186
			c0,0-1.847,2.333-0.097,4.181c0.505,0.533,0.891,1.368,1.271,2.223c0.663,1.498,1.305,3.065,2.521,3.228
			c3.014,0.388,3.887,7.345,8.189,10.334c4.302,2.981,6.381,4.458,6.103,5.709l-0.195,3.397l12.155,10.896
			c2.018,1.354,2.908,2.884,5.291,4.03c0.474,0.229,1,0.438,1.613,0.636c1.62,0.511,11.053,15.579,13.318,14.198
			c2.266-1.385-2.872-5.057-1.748-6.229c1.125-1.173,4.428,3.521,5.834,3.208c2.044-0.454,1.761-2.459,3.208-2.815
			c0,0,1.07-0.292,1.653,0.773c0.583,1.07,1.75,1.459,2.042,1.362c0.292-0.103,0.195,2.234,0.195,2.234s2.236,0.875,2.723,0.292
			c0.486-0.584,1.761-10.7,1.761-10.7c0.937-6.107,0.262-10.065-0.692-11.768c-0.768-1.362-0.771-1.358-0.566-2.521
			c0.05-0.28,0.111-0.625,0.177-1.077c0.34-2.319,2.045-2.966,1.848-4.375c-0.198-1.41-2.225-0.262-1.459-3.5
			c0,0,0.778-3.013,1.75-4.083c0.973-1.07,1.264-1.265,1.07-3.112C146.807,134.014,147.002,133.527,145.446,133.333z"/>
		<path fill="#ff837d" stroke="#FF0000" stroke-miterlimit="10" d="M104.431,73.694c1.07,0.847,4.052,4.059,4.741,2.523
			c0.688-1.529-3.823-6.041-5.047-5.2c-1.223,0.841-2.83,1.147-2.294,2.146C102.318,74.065,103.36,72.854,104.431,73.694z"/>
		<path fill="#ff837d" stroke="#FF0000" stroke-miterlimit="10" d="M113.989,78.741c-0.077-2.146-2.217-2.83-2.217-2.83
			s-1.071,1.065-0.306,2.063C112.23,78.971,114.065,80.882,113.989,78.741z"/>
		<path fill="#ff837d" stroke="#FF0000" stroke-miterlimit="10" d="M98.925,169.813c-1.529-1.223-3.058-1.682-3.823-1.376
			c0,0-1.224,1.071,0.765,2.604C97.854,172.566,100.455,171.036,98.925,169.813z"/>
		<path fill="#ff837d" stroke="#FF0000" stroke-miterlimit="10" d="M53.352,103.135l-3.518-0.459l-0.765,4.587
			c0,0,2.447,2.753,2.753,4.13c0.306,1.375,1.224,3.211,2.447,3.669c1.223,0.459,4.588,2.753,3.365-1.224
			C56.41,109.864,53.352,103.135,53.352,103.135z"/>
		<path fill="#ff837d" stroke="#FF0000" stroke-miterlimit="10" d="M62.374,119.346c0,0-1.834,1.834-1.224,2.6
			c0.612,0.77,3.977,2.906,4.436,2.446C66.044,123.933,63.292,119.651,62.374,119.346z"/>
		<path display="none" fill="#ff837d" stroke="#FF0000" stroke-miterlimit="10" d="M71.244,130.968c0,0-0.611-0.918-1.223-1.989
			c-0.612-1.064-2.447-2.899-2.447-2.899s-1.071,0.765-0.612,1.982c0.458,1.229,0.612,3.063,0.612,3.063l1.834,0.459l0.306,2.141
			c0,0,0.765,0.612,1.529,1.376c0.765,0.767,2.6,1.989,2.447,0C73.538,133.109,71.244,130.968,71.244,130.968z"/>
	</g>
</g>
</svg>
