<?xml version="1.0" encoding="utf-8"?>
<!-- Generator: Adobe Illustrator 16.0.0, SVG Export Plug-In . SVG Version: 6.00 Build 0)  -->
<!DOCTYPE svg PUBLIC "-//W3C//DTD SVG 1.1//EN" "http://www.w3.org/Graphics/SVG/1.1/DTD/svg11.dtd">
<svg version="1.1" id="Layer_2" xmlns="http://www.w3.org/2000/svg" xmlns:xlink="http://www.w3.org/1999/xlink" x="0px" y="0px"
	 width="612px" height="792px" viewBox="0 0 612 792" enable-background="new 0 0 612 792" xml:space="preserve">
<path id="westAzerbaijan" fill="#eeae6a" stroke="#231F20" stroke-miterlimit="10" d="M56.198,135.849
	c1.743-0.308,0.923-1.743,1.538-3.794c0.615-2.05,6.972-0.82,8.1-1.64c1.128-0.821,0.41-7.075,0.41-7.075l7.178-0.513
	c0,0,0,1.538,1.538,2.974c1.538,1.435,14.662-1.436,16.097-0.82s3.383,3.076,4.921,3.076s1.64,1.333,2.871,2.563
	c1.23,1.23,6.254,1.948,8.408-1.641c2.153-3.588-3.281-18.147-3.281-18.147l-5.229-0.308c-0.717,1.23-1.436,3.076-3.486,2.05
	c-2.051-1.025-2.153-2.358-1.542-3.109c1.182-1.452,0.363-2.001-0.728-3.455c-1.091-1.455-0.545-2.728-0.545-3.273
	c0-0.546-3.273-1.819-4.546-1.455s-4.001,2.546-6.365,2.182s-3.273-0.727-4.364,0.909c-1.091,1.637-3.273,2.91-6.001,2.182
	c-2.728-0.727-2-3.818-2.729-6.728c-0.727-2.91-4.364-1.819-7.819-3.092c-3.455-1.272-6.184-6.729-8.547-10.366
	c-2.364-3.637-7.638-20.186-9.82-24.004c-2.183-3.819-2.91-6.729-2.728-8.548c0.182-1.818,2.364-2.182,6.001-4.182
	c3.637-2,0.546-3.092-0.182-4.546c-0.728-1.455-0.545-7.82,1.273-10.912c0.763-1.295,1.875-2.236,2.912-2.896
	c-0.247-0.488-0.471-0.674-1.333-1.881c-1.164-1.629-2.095-4.655-4.306-4.771c-2.211-0.116-3.375-0.582-3.375-0.582
	s-0.116-3.258-2.211-5.121c-2.095-1.862-3.958-2.096-4.54-5.122c-0.582-3.026-1.629-3.607-3.724-4.772
	c-2.095-1.164-4.306-2.444-5.237-3.607s-1.513-1.047-3.259,0s-2.561,3.258-3.142,6.168c-0.582,2.91-0.233,5.819-1.513,6.051
	c-1.28,0.233-2.212,0.932-4.656,0.351c-2.444-0.582-6.517-1.047-6.284,0.465c0.232,1.513,1.745,2.328,1.629,3.841
	c-0.116,1.512-0.232,2.677,1.164,3.491c1.396,0.814,3.375,1.979,2.56,3.724c-0.814,1.745-2.211,2.211-1.629,3.724
	c0.582,1.513,1.047,1.398,1.047,1.398s0.233,1.861,0.931,2.56c0.699,0.699,2.793,0.232,2.328,1.629
	c-0.465,1.396-1.165,2.095-1.048,3.608c0.117,1.513-0.232,2.909,0.35,2.909c0.582,0,1.396,0.582,1.28,2.561
	c-0.116,1.978-0.931,7.332-0.232,7.448c0.698,0.116,4.771-0.931,4.771,0.698c0,1.629-1.164,2.677-1.746,3.492
	c-0.582,0.815-0.349,1.629-1.047,3.258c-0.698,1.629-2.095,4.075-3.025,5.355c-0.931,1.28-2.793,5.353-0.582,5.353
	c2.211,0,3.608-0.698,4.539,1.164c0.931,1.862,1.163,2.561,3.258,2.444c2.095-0.116,3.84,2.211,2.91,2.793
	c-0.932,0.582-1.862,1.514-1.048,2.445c0.815,0.931,1.397,0.466,0.931,2.211s-0.465,4.422-0.349,4.771
	c0.116,0.349,1.28-0.35,1.979,0.814c0.698,1.164,1.048,0.931,2.211,1.746c1.164,0.814,2.793,1.629,2.677,3.026
	c-0.116,1.396-1.396,1.048-1.164,3.143c0.233,2.095-1.047,2.561,0.349,4.189c1.396,1.629,3.026,0.465,3.258,1.979
	c0.233,1.513-0.698,1.513-0.349,2.444c0.349,0.931,1.164,1.047,0.233,2.561c-0.931,1.513-2.909,3.492,0.233,4.074
	c3.143,0.582,4.539,0.698,4.888,2.909c0.349,2.211-0.582,4.189-1.396,5.004c-0.815,0.814-0.349,0.465,0.814,2.211
	c1.164,1.746,1.513,3.724,3.607,3.375s2.677-1.629,3.259,0.931c0.582,2.561,0.117,4.307,0.814,5.122
	c0.699,0.814,1.048,1.745,1.048,2.676s1.164,1.397,1.164,2.561s-1.629,3.142-0.699,3.84c0.931,0.698,2.444-0.814,4.306-0.698
	c0.857,0.053,2.255,0.406,3.607,1.051l-0.047-2.86C53.84,137.182,54.455,136.157,56.198,135.849z"/>
<path id="Ardabil" fill="#eeae6a" stroke="#231F20" stroke-miterlimit="10" d="M114.435,19.479
	c0.205,2.872,0.205,15.175,1.23,16.405c1.025,1.23,2.666,3.691-0.615,3.691c-3.281,0-2.667,2.461-2.667,2.461
	s3.281,0.41,2.051,2.871c-1.23,2.46-2.46,6.152-4.101,6.972c-1.641,0.82-4.717,3.28-4.717,3.28s5.537,3.282,7.382,4.102
	c1.846,0.82,6.152,1.23,8.408,0c2.255-1.23,3.076-2.871,3.076,0.41s0.205,6.357,2.05,7.997c1.845,1.64-0.205,3.076-0.205,3.076
	s0.82,1.025,3.28,1.846c2.46,0.821,4.306,1.64,3.691,3.691s-4.921,2.666-4.306,4.101c0.615,1.436,4.306,4.511,3.896,6.152
	s-0.206,3.486,1.846,4.717c2.051,1.23,2.051,2.87,3.281,3.28c1.23,0.411,2.256-0.41,3.076,0.411c0.819,0.82,1.64,1.23,2.46,2.666
	c0.82,1.436,1.435,1.23,3.691,0.82c2.255-0.41,6.972,0.41,7.587-0.41s0.206-5.536-0.82-6.972c-1.026-1.436-3.281-4.101-3.896-5.331
	s-3.69-3.486-2.871-5.947c0.82-2.46,0.411-4.716-0.615-7.382c-1.026-2.666,2.05-4.101,2.255-6.356
	c0.168-1.85,0.883-6.594-0.785-11.294c-0.366-0.066-0.759-0.263-1.208-0.658c-1.979-1.746-5.005-7.798-5.937-7.915
	c-0.931-0.116-2.327,1.629-4.189-0.116c-1.862-1.746-0.814-3.607-2.094-3.957c-1.281-0.349-6.285-1.979-6.401-4.422
	c-0.116-2.444,2.793-3.142,6.285-3.84s4.771-3.724,1.513-5.703c-3.258-1.978-7.216-5.586-1.28-7.798
	c5.935-2.211,4.073-1.862,1.862-4.306s-7.915-9.777-9.66-9.428c-1.746,0.35-4.539,0.698-5.819,2.095
	c-1.28,1.397-5.703,4.19-7.332,4.888c-1.22,0.522-3.158,1.242-4.885,2.449C111.617,16.843,114.331,18.03,114.435,19.479z"/>
<path id="NorthKhorasan" fill="#eeae6a" stroke="#231F20" stroke-miterlimit="10" d="M384.14,74.368
	c-1.455,1.091-2.911,0.545-2.911,3.091c0,2.546-0.545,3.273-2.182,5.456c-1.637,2.183-4.001,5.092-3.819,7.457
	c0.183,2.364-0.182,2.909-0.182,2.909l-2-0.182l-0.363,4.547l3.273,0.545c0,0,0.909,3.091,0,5.092c-0.91,2-1.818,5.82-1.818,5.82
	c0.363,2.182,2.183,1.091,4.546-0.364c2.364-1.455,3.455-1.273,3.455-1.273s-0.364,2.364,1.091,4.183
	c1.455,1.819,2.728,5.638,5.274,6.183c2.546,0.546,3.637,0.546,3.637,0.546s0.364-2.365,3.818-4.183
	c3.456-1.818,9.639-4.365,9.639-4.365s5.819,2.365,8.002,2.91s5.637-0.364,7.273,0.909s3.455,3.273,5.456,3.637
	c2.001,0.363,4.183,2.364,6.001,3.273s7.274,1.273,6.547-2.182c-0.728-3.456-1.455-7.457,0.363-8.729s6.547-2,5.274-4.546
	c-1.273-2.546-4.547-1.819-3.637-4.364c0.908-2.546,4.545-3.819,4.545-3.819l0.139-15.32c-1.493-0.206-2.861-0.629-3.283-1.102
	c-0.93-1.047-0.234-4.074-2.329-4.307c-2.095-0.232-6.867-2.211-8.379-2.676c-1.513-0.466-3.958-1.048-5.471-1.746
	c-1.512-0.698-6.864-0.349-8.378-0.931c-1.514-0.582-2.328-0.815-2.328-3.143c0-2.327-0.817-3.144-2.33-5.937
	s-2.677-4.189-3.724-2.91c-1.048,1.28-1.514,3.375-3.957,2.793c-2.444-0.582-6.404-1.281-7.917-2.328
	c-1.513-1.048-1.63,0.116-3.143,0.349c-1.512,0.232-7.098-0.698-8.728,0.582c-1.63,1.28-2.327,1.629-1.861,3.258
	c0.465,1.629,0.465,2.561,0.465,2.561s-0.034,0-0.087,0c0.443,0.89,0.755,1.813,0.755,2.668
	C384.867,71.822,385.594,73.277,384.14,74.368z"/>
<path id="SistanandBaluchestan" fill="#eeae6a" stroke="#231F20" stroke-miterlimit="10" d="M596.134,458.984
	c-1.63-0.815-3.491-0.349-5.005-0.116c-1.513,0.232-7.796,1.86-8.728-0.001c-0.932-1.863,0.932-5.354,1.163-7.683
	c0.232-2.327-0.349-11.289-1.279-14.896c-0.932-3.607-1.048-6.982-0.466-9.427c0.582-2.443,1.164-5.354-0.931-4.888
	c-2.096,0.466-3.609,2.325-6.286-0.699c-2.677-3.025-2.33-4.541-6.17-5.589c-3.84-1.047-5.935-1.395-6.517-1.86
	s-2.328,1.047-6.168-2.212c-3.841-3.258-8.381-7.449-9.661-10.708c-1.28-3.258-2.328-6.519-2.794-6.751s-1.047-1.28-0.814-1.746
	s-0.932-2.561-1.746-2.793c-0.814-0.231-1.396-2.211-1.629-2.561c-0.232-0.349-1.164-1.629-1.164-1.629l0.35-3.724
	c0,0-1.98-1.63-6.635-7.333c-4.655-5.703-8.029-10.357-8.029-10.357l28.744-35.612c0,0,0.699-1.629,0.466-3.259
	c-0.232-1.629,1.163-2.326,0.581-4.189c-0.581-1.862-1.63-3.028-1.745-4.308c-0.116-1.281-0.931-2.561-1.047-3.026
	c-0.117-0.466,1.86-3.725-1.746-4.539c-3.108-0.703-20.334-3.147-25.044-3.811c-0.896,2.38-2.632,5.381-5.855,6.42
	c-5.637,1.818-12.73,3.092-12.911,4.364c-0.182,1.272,2.545,7.091-1.637,8.183c-4.183,1.092-7.273-0.545-7.82,1.456
	c-0.546,2-0.909,5.819-0.909,5.819l-14.002,6.001c0,0-1.637,3.819-1.455,6.183c0.183,2.364,0.547,25.096,1.092,32.37
	c0.546,7.274,4.184,11.82,2.546,13.093c-1.636,1.273-1.455,2-0.546,5.273s0.909,11.274,0.909,12.366s3.82,3.272-1.636,3.092
	c-5.456-0.182-10.366-1.455-11.64,0.182c-1.272,1.637-2.909,1.818-0.727,3.819c2.183,2,2.91,8.001,0.001,8.184
	c-2.91,0.182-4.91-0.546-5.456,3.637c-0.545,4.183-3.089,30.55-3.271,31.642c-0.183,1.09,2.547,4.001,2.547,6.364
	c0,2.364-1.639,4.909-0.547,6.547c1.092,1.637,3.818,1.819,4.364,4.183c0.547,2.364,0.729,7.274,0.729,7.274
	s-5.819-0.364-5.274,2.364c0.546,2.728,6.184,15.274,6.365,17.275c0.181,2-3.818,0.91-1.454,3.456
	c2.363,2.546,6.364,5.091,6.183,10.002c-0.093,2.506-0.091,6.67-0.067,10.147c2.57-1.098,5.931-2.507,7.55-1.966
	c2.095,0.697,3.725,3.025,3.725,3.025l7.682-0.349c0,0,0.234,2.56,3.377,1.279c3.142-1.279,3.956-0.001,5.12,0.931
	c1.163,0.932,2.444,2.095,2.328-0.814c0,0,1.978-0.814,2.793,0.116c0.813,0.932,1.861,1.048,2.676,1.28s1.28,3.025,2.328,2.212
	c1.047-0.815,0.115-2.096-0.582-2.678c-0.698-0.582-1.979-1.63,0.35-3.026c2.327-1.396,4.654-2.21,5.004,1.048
	c0.349,3.259-0.115,4.423,1.281,4.423c1.397,0,9.775,1.747,12.336,2.212s3.493,1.979,5.237,2.909
	c1.745,0.931,6.867,2.444,8.263,0.232c1.396-2.212,0.233-3.142,0.233-3.142h1.513l0.349-1.165c0,0,1.514,1.048,1.514,0.699
	s1.396-5.237,1.163-8.961c-0.232-3.725,0.116-5.473,0.699-6.171c0.582-0.698-0.583-3.375,0-4.771c0.582-1.397,2.909,0.466,3.49-4.54
	c0.582-5.004,0.117-11.522,2.445-12.337c2.328-0.815,7.447-2.794,7.913-4.423s4.074,1.28,4.307,0s-0.349-2.328,0.465-3.143
	c0.815-0.814,0.233-2.212,1.164-2.793c0.932-0.581,3.259-0.581,3.724-1.396c0.466-0.815,4.189,0.115,5.703-1.048
	s2.211,0.232,3.143-1.047c0.931-1.281,3.493-1.166,6.17-1.049c2.676,0.116,6.981,0.813,7.215,0.465s0.582-2.443,0.465-5.236
	c-0.115-2.794,0.351-2.678,1.397-2.794c1.047-0.115,1.979-0.464,1.049-2.792s-0.932-5.237-0.35-5.936s2.212-1.164,2.212-1.164
	C599.16,463.058,597.763,459.799,596.134,458.984z"/>
<path id="Kermanshah" fill="#eeae6a" stroke="#231F20" stroke-miterlimit="10" d="M64.4,218.795c2.051-2.05-0.205-0.82-0.615-4.307
	c-0.41-3.485,1.23-1.025,3.691-1.64c2.461-0.615,2.051-3.486,3.896-2.666c1.846,0.821,3.281,3.076,5.946,2.256
	c2.666-0.82,8.408,6.972,13.329,7.998c4.921,1.025,5.126-0.411,6.767-1.846c1.64-1.436,6.356,1.846,9.228,1.23
	c2.871-0.615,0.82-4.512,0.41-6.152c-0.41-1.641,5.946,0.82,5.946,0.82s-1.435-2.46-2.255-4.101s2.255-2.871,4.306-5.742
	c2.051-2.871,1.64-5.332,1.64-5.332s2.256,1.025,5.127,1.436c2.871,0.41,1.64,0,4.716-2.666c3.076-2.666,2.666-4.101,2.461-6.357
	c-0.205-2.255-5.537-1.435-7.177-3.486s-0.821-5.537,0.615-7.792c1.436-2.256,0.41-1.641-0.41-2.461
	c-0.821-0.82-0.615-3.281-0.615-3.281c-0.205-1.23-7.177-2.05-11.278-1.845c-4.101,0.205-2.871,2.666-3.691,4.306
	c-0.821,1.64-4.306,0.615-6.152,1.641c-1.845,1.025-0.615,3.486-0.41,5.126c0.205,1.64-10.869,0.82-10.869,0.82
	c-0.82-2.461-3.896-4.512-6.562-5.537c-2.666-1.025-1.64-4.102-1.64-5.126c0-1.025-1.846-2.461-2.872-3.896
	c-1.025-1.435-1.846-2.05-3.28-2.05c-0.744,0-2.698,0.716-4.41,1.406c0.292,0.481,0.759,0.599,1.231,0.441
	c0.698-0.232-0.349,0.35-0.465,1.862c-0.117,1.513,0.931,1.979-0.583,2.211c-1.513,0.232-3.375,1.746-4.422,0.931
	c-1.047-0.815-2.561-1.28-2.561-0.233s-1.164,0.814-1.164,1.979s0.699,3.026,0,3.724c-0.698,0.699-1.164,0.931-2.328,0.583
	c-1.164-0.35-1.047,0.698-1.28,2.211s-1.164-0.117-1.746,0.465s-0.698,2.444-0.698,2.444s-1.979,0.582-1.28,1.629
	c0.698,1.048,1.979,0.814,1.979,2.56c0,1.746,1.28,2.793-0.931,2.91c-2.211,0.116-4.422-1.164-4.422-1.164s-0.698,0.465-0.465,2.211
	c0.232,1.746-0.233,2.91-1.164,2.91c-0.931,0-1.396,0.814-0.582,2.909c0.815,2.095,1.513,1.28,2.561,1.396
	c1.047,0.116,2.211,1.979,1.28,3.375c-0.931,1.396-1.746,2.327-1.048,3.026c0.698,0.698-0.582,1.745-1.745,2.909
	c-1.164,1.164-0.931,2.677-1.513,3.143c-0.582,0.465-2.56,1.513-0.116,2.095c2.444,0.582,3.726,2.444,4.423,3.841
	c0.601,1.202,2.322,4.211,3.309,5.472C59.719,223.806,62.892,220.303,64.4,218.795z"/>
<path id="Bushehr" fill="#eeae6a" stroke="#231F20" stroke-miterlimit="10" d="M277.661,449.485c-0.82-1.846-3.69-2.051-6.971-4.921
	c-3.282-2.872-2.667-8.203-4.717-11.688c-2.05-3.485-6.562-4.717-9.022-6.973c-2.461-2.255-5.947-16.609-6.356-19.686
	c-0.411-3.076-1.026-5.331-1.23-6.151c-0.206-0.82-3.076-3.486-5.332-9.433c-2.255-5.946-8.407-11.893-10.868-13.534
	c-2.46-1.64-5.126-1.64-5.331-2.871c-0.205-1.23-0.821-5.536-0.821-5.536s-4.716-1.23-6.151-1.641
	c-1.436-0.41-10.048,0.205-10.253-0.615c-0.205-0.82-1.23-3.281-1.23-3.281s-2.256-1.64-3.486-3.075
	c-1.23-1.436-2.05-6.768-2.05-6.768s-6.152-3.485-7.998-5.331c-1.845-1.846-1.845,1.23-1.641,2.666
	c0.084,0.59-0.596,1.178-1.423,1.668c1.237,1.791,0.897,5.091,0.897,6.801c0,2.211,0.815,2.792,2.445,3.957
	c1.629,1.164,5.703,8.614,5.703,8.614s1.164,0.233,2.444,1.28c1.28,1.047,2.444,3.026,3.491,4.074
	c1.048,1.047,2.793,2.678,2.445,6.401c-0.349,3.725-2.328,5.702-0.582,6.866c1.746,1.164,4.771-1.28,6.4,0.465
	c1.63,1.746,3.026,4.888,1.746,5.005c-1.28,0.116-2.91-1.163-3.375,0c-0.465,1.163,0.583,4.073,1.98,5.237
	c1.396,1.165,3.375,0,4.655,2.095s1.397,5.007,1.979,8.382c0.582,3.375,2.095,6.518,3.491,7.914
	c1.397,1.396,3.375,3.375,2.794,4.889c-0.582,1.512-1.63,2.559,0.349,4.072s4.306,2.444,4.306,2.444s0.349,2.211,2.211,3.841
	c1.862,1.629,3.375,2.794,8.263,2.678s8.03-0.698,9.078,0.932c1.047,1.629,3.608,4.307,7.099,5.121
	c3.492,0.814,5.586,2.096,7.216,4.19c1.629,2.095,2.094,3.025,3.142,3.491c1.047,0.465,1.863,1.163,0.116,1.513
	c-1.745,0.35-3.375,0.931-1.629,1.979c1.392,0.836,3.892,1.82,5.438,2.834l6.676-2.162
	C281.556,455.228,278.481,451.331,277.661,449.485z"/>
<path id="EastAzerbaijan" fill="#eeae6a" stroke="#231F20" stroke-miterlimit="10" d="M106.398,107.142
	c3.346-1.409,5.459-1.409,6.691-3.345c1.232-1.937,7.571-4.579,8.627-5.106c1.057-0.528,3.522-0.176,5.283,0.704
	c1.761,0.881,3.874-0.176,5.282-1.585c0.937-0.936,3.428-2.258,6.079-3.196c-0.113-0.02-0.228-0.044-0.345-0.084
	c-1.23-0.41-1.23-2.05-3.281-3.28c-2.051-1.23-2.255-3.076-1.846-4.717s-3.281-4.716-3.896-6.152
	c-0.615-1.435,3.691-2.05,4.306-4.101s-1.23-2.87-3.691-3.691c-2.46-0.82-3.28-1.846-3.28-1.846s2.05-1.436,0.205-3.076
	c-1.846-1.64-2.05-4.716-2.05-7.997s-0.82-1.64-3.076-0.41c-2.256,1.23-6.563,0.82-8.408,0c-1.845-0.82-7.382-4.102-7.382-4.102
	s3.076-2.46,4.717-3.28c1.641-0.82,2.871-4.512,4.101-6.972c1.23-2.461-2.051-2.871-2.051-2.871s-0.615-2.461,2.667-2.461
	c3.281,0,1.64-2.46,0.615-3.691c-1.025-1.23-1.025-13.534-1.23-16.405c-0.104-1.449-2.817-2.635-5.481-3.457
	c-0.58,0.405-1.136,0.865-1.633,1.392c-1.978,2.094-3.724,2.56-5.237,2.792c-1.513,0.233-2.793,2.909-3.607,4.306
	c-0.814,1.396-1.514,2.211-3.026,2.095c-1.512-0.116-1.978-0.465-4.306,2.211s-4.307,3.492-4.889,4.54
	c-0.582,1.047-1.081,3.375-6.476,2.211c-5.395-1.164-5.046,0.582-5.977,1.047c-0.931,0.465-1.746,0.349-6.401-0.466
	c-4.655-0.815-7.564-1.862-10.823-1.979c-3.259-0.116-6.285-1.047-6.75-2.211c-0.12-0.302-0.21-0.509-0.296-0.68
	c-1.037,0.66-2.149,1.601-2.912,2.896c-1.818,3.091-2,9.457-1.273,10.912c0.728,1.454,3.819,2.545,0.182,4.546
	c-3.637,2-5.819,2.364-6.001,4.182c-0.182,1.819,0.545,4.729,2.728,8.548c2.182,3.819,7.456,20.367,9.82,24.004
	c2.364,3.637,5.092,9.093,8.547,10.366c3.455,1.273,7.092,0.182,7.819,3.092c0.728,2.91,0,6.001,2.729,6.728
	c2.728,0.728,4.91-0.545,6.001-2.182c1.091-1.636,2-1.273,4.364-0.909s5.092-1.818,6.365-2.182s4.546,0.909,4.546,1.455
	c0,0.545-0.545,1.818,0.545,3.273c1.091,1.454,1.909,2.003,0.728,3.455c-0.611,0.751-0.509,2.083,1.542,3.109
	c2.05,1.025,2.769-0.82,3.486-2.05l4.759,0.28C104.045,109.283,104.936,107.758,106.398,107.142z"/>
<path id="Gilan" fill="#eeae6a" stroke="#231F20" stroke-miterlimit="10" d="M158.519,100.099c1.409,1.585,5.986,7.219,6.163,8.452
	c0.176,1.232,1.409,2.641,2.465,3.874c1.057,1.233,4.754,5.458,6.691,5.634c1.937,0.176,3.346,1.409,5.283,1.937
	c1.937,0.528,8.099,0,10.388-0.705c2.29-0.704,4.754-2.993,6.516-2.641c0.737,0.147,2.122,0.465,3.522,0.783
	c0.774-0.515,2.454-1.74,3.678-3.422c1.255-1.726,3.229-6.69,4.088-8.928c-1.785-1.188-3.969-2.757-5.255-4.104
	c-2.444-2.561-2.911-2.445-3.958-5.122s-0.349-5.004-3.608-5.703c-3.258-0.698-6.168-2.677-7.448-2.328
	c-1.28,0.349-13.035,0.698-18.737-2.445c-5.703-3.142-8.613-6.053-9.078-8.846s-1.28-3.142-1.629-5.935
	c-0.349-2.793-1.746-7.216-1.629-8.845c0.117-1.629,0.117-6.168-0.582-7.564c-0.699-1.396-1.397-2.677-3.492-1.513
	c-1.621,0.9-2.545,2.28-3.797,2.055c1.668,4.7,0.953,9.444,0.785,11.294c-0.206,2.256-3.281,3.691-2.255,6.356
	c1.025,2.666,1.435,4.921,0.615,7.382c-0.82,2.461,2.255,4.717,2.871,5.947s2.871,3.896,3.896,5.331
	c0.897,1.257,1.324,5.029,1.002,6.499C156.351,98.346,157.832,99.326,158.519,100.099z"/>
<path id="RazaviKhorasan" fill="#eeae6a" stroke="#231F20" stroke-miterlimit="10" d="M535.042,152.188
	c0.464-2.444,0.698-7.682-1.281-8.846s-2.095-1.28-0.814-2.56c1.28-1.281,1.862-3.143,1.63-5.586
	c-0.234-2.444-2.678-6.518-1.979-10.242c0.697-3.724,0.93-5.936,0.465-6.635l-25.953-0.465c0,0-3.259-5.703-4.655-6.983
	c-1.396-1.28-3.608-6.052-5.354-6.866c-1.745-0.815-3.259-0.698-5.004-2.095c-1.746-1.396-4.772-2.095-6.053-2.095
	s-1.747-0.233-2.328-1.513s-1.861,0.349-2.793-0.699s0.117-1.978-1.861-3.375c-1.979-1.396-1.28-5.005-1.862-6.75
	c-0.582-1.746-1.63-2.095-2.793-1.513c-1.164,0.582-3.608-0.815-6.052-2.561c-2.444-1.746-6.055-1.98-6.869-2.678
	c-0.815-0.698-1.397-1.164-1.979,0.116c-0.582,1.28-3.607,0.698-5.354-0.465s-2.797-0.582-4.076,0.698
	c-0.702,0.702-2.699,0.772-4.515,0.521l-0.139,15.32c0,0-3.637,1.273-4.545,3.819c-0.91,2.545,2.363,1.818,3.637,4.364
	c1.272,2.546-3.456,3.273-5.274,4.546s-1.091,5.274-0.363,8.729c0.728,3.455-4.729,3.091-6.547,2.182s-4-2.91-6.001-3.273
	c-2.001-0.364-3.819-2.364-5.456-3.637s-5.091-0.364-7.273-0.909s-8.002-2.91-8.002-2.91s-6.183,2.546-9.639,4.365
	c-3.198,1.683-3.746,3.831-3.81,4.141c0.616,0.37,1.345,0.559,2.142,0.252c2.29-0.88,3.521-3.345,3.697-1.761
	c0.178,1.584,0.353,2.289,1.409,3.698c1.057,1.408,2.114,3.874,0.705,5.106c-1.409,1.232-4.051,3.345-4.051,3.345l3.698,5.635
	c0,0-2.993,5.458-2.816,7.219c0.176,1.761,0.352,4.93,0.352,4.93s9.684,6.339,9.684,9.685s-0.704,5.987-0.352,7.924
	c0.352,1.937,0.704,3.345-3.522,3.874c-4.225,0.528-4.224,2.465-4.753,2.817c-0.528,0.352-1.408,2.113-4.578,2.113
	s-4.578,2.464-5.811,4.049s-5.635,7.396-5.635,7.396s9.509,0.528,10.564,0.176c1.057-0.353,5.282-2.466,6.515-4.754
	c1.232-2.289,2.818-4.578,5.106-5.811c2.289-1.233,8.452-4.05,12.502-3.169c4.05,0.88,4.754,2.641,6.515,2.994
	c1.762,0.352,9.157,4.93,4.931,6.867s-6.691,3.17-4.931,6.515c1.762,3.345,5.282,6.867,5.459,8.804c0.176,1.937,1.585,0,3.874,0.704
	c2.288,0.704,4.225,3.698,7.395,3.521c3.17-0.176,3.7-3.17,5.989-2.29c2.288,0.881,1.232,3.698,4.225,6.339
	c2.994,2.641,4.755,4.049,4.755,4.049s0-1.76,2.993-2.112c2.993-0.353,22.011-2.113,23.419-1.057s3.698,4.049,3.698,4.049
	s10.917-1.761,12.678,1.233c1.76,2.993,1.056,4.931,3.521,4.578c2.465-0.353,2.817-4.402,5.986-4.578
	c1.266-0.07,3.095-0.028,4.833,0.048c-0.578-4.77,5.007-8.143,9.312-8.143c4.307,0,3.374-0.698,0.349-4.073
	c-3.025-3.375-4.189-3.607-2.211-4.189s4.771-3.026,4.771-3.026c0.116-1.164,2.211,1.513,2.211-2.095
	c0-3.608,3.725-3.84,3.375-5.935c-0.349-2.095,1.746-7.216,1.863-9.079c0.116-1.862-1.745-5.703-1.048-6.75
	c0.698-1.047,2.444,0.815,2.677-2.444c0.232-3.258,2.562-6.052,2.909-7.682C536.903,155.68,534.576,154.633,535.042,152.188z"/>
<path id="Hormozgan" fill="#eeae6a" stroke="#231F20" stroke-miterlimit="10" d="M450.993,475.33
	c-1.408-2.465-1.586-1.233-5.459-1.409c-3.874-0.177-5.988-2.642-8.276-5.282c-2.289-2.642-3.522-0.528-6.163-1.057
	s-2.642-2.993-4.578-4.226c-1.937-1.233-2.994-1.761-3.346-4.402c-0.353-2.642-2.289-2.465-4.931-3.345
	c-2.641-0.882-2.465-6.518-2.641-9.51c-0.177-2.993-1.408-0.705-2.642-2.994c-1.232-2.289,2.642-4.754,4.402-5.635
	c1.761-0.88,2.289,0.177,2.113-2.816c-0.177-2.994-0.881-2.994-3.521-2.994s-5.812-0.704-8.452-2.993s-2.642-10.389-2.642-10.389
	l-8.979,0.176l-0.176,1.762c-0.353,2.641-4.402,2.817-10.39,2.817s-8.979-6.164-10.036-9.686s2.289-18.313,2.289-18.313
	s-1.232,0.352-3.698,0.528c-2.465,0.176-10.564,4.754-12.854,5.986c-2.288,1.233-4.402-0.528-6.163-1.584
	c-1.761-1.058-2.641,0.352-2.641,0.352s0,0,3.17,3.874c3.169,3.874,3.521,3.169,2.112,5.281c-1.408,2.114-1.585,12.327-1.585,16.023
	c0,3.698,1.937,4.402,4.755,8.277c2.817,3.874-7.396,12.502-9.684,15.318c-2.29,2.817-11.799,1.057-19.193,0.353
	c-7.396-0.705-16.376,3.17-17.784,3.698c-1.409,0.529-1.761,0.352-0.176,2.112c1.584,1.762-0.706,4.754-2.994,7.22
	c-2.289,2.465-3.521,4.05-6.163,1.761c-2.641-2.289-5.635-0.881-7.747-1.409c-2.113-0.527-5.987-4.226-10.917-6.163
	c-1.413-0.555-3.129-0.979-4.859-1.303l-6.265,2.029c0.393,0.257,0.727,0.517,0.963,0.775c1.163,1.28,6.284,5.354,9.892,6.518
	c3.607,1.164,9.775,3.025,10.125,4.422s-0.815,3.727,3.026,5.938s4.422,3.724,9.194,3.143c4.771-0.583,5.121-1.747,6.634-0.815
	s6.401,0.232,7.564,0.697c1.164,0.466,1.515,4.075,2.561,4.425c1.047,0.348,5.354,0.465,5.354,0.465l1.513,2.793
	c0,0,4.422,1.048,7.099-1.164c2.678-2.211,7.332-6.517,9.078-6.634c1.746-0.116,1.862-2.443,3.492-2.561
	c1.629-0.115,6.4,2.212,8.378-0.231c1.979-2.444,1.398-5.702,3.027-6.517c1.629-0.815,5.237-0.814,6.517-1.047
	c1.28-0.233,2.678-0.116,5.122-2.212c2.443-2.095,5.935-4.188,9.076-4.771s12.687,1.86,14.666,2.442
	c1.978,0.582,1.748,1.864,2.213,1.98s0.232,0.697-0.466,1.163s2.211,1.862,3.608,1.746c1.396-0.116-0.35,1.164-0.699,1.28
	c-0.349,0.116,0.815,1.979,1.629,2.793c0.815,0.815,1.513,3.143,1.862,4.19c0.349,1.048,1.396,5.701,1.048,8.378
	c-0.35,2.678-0.466,3.958,0.582,5.471c1.047,1.513,1.047,5.121,1.047,5.121s3.025,1.681,2.211,3.109s-2.094,1.545-1.047,3.757
	c1.047,2.211,1.398,1.864,2.329,3.145c0.931,1.279,1.745,6.749,1.745,6.749s5.237,0.35,6.4,1.048c1.165,0.697,6.4-0.116,7.332,0.465
	c0.932,0.582,0.698,3.841,0.698,3.841s3.607-3.026,5.005-2.443c1.396,0.581,1.747,5.122,5.819,5.354
	c4.074,0.233,6.285-1.862,8.38-1.862c2.096,0,7.914,1.281,10.125,1.514s6.52,1.63,7.451,3.725c0.931,2.096,3.491,3.143,5.936,2.212
	c0.553-0.211,1.24-0.507,1.992-0.827c-0.023-3.478-0.025-7.642,0.067-10.147c0.182-4.911-3.819-7.456-6.183-10.002
	c-2.364-2.546,1.635-1.456,1.454-3.456c-0.182-2.001-5.819-14.548-6.365-17.275c-0.048-0.245-0.045-0.464,0-0.662
	c-2.295-0.666-4.671-1.473-6.068-2.28C452.911,479.203,452.401,477.795,450.993,475.33z"/>
<path id="KohgiluyehandBoyerAhmad" fill="#eeae6a" stroke="#231F20" stroke-miterlimit="10" d="M215.748,359.82
	c1.937-0.704,1.232-7.219,1.937-8.628c0.705-1.408,2.817-0.352,5.635-1.584c2.817-1.233,2.289-5.635,1.233-8.628
	c-1.056-2.994-2.289-6.163-0.88-6.867c1.409-0.705,3.345,2.466,5.634,4.93c2.29,2.465,4.931,0.705,6.339,1.232
	c1.408,0.529,2.113,2.466,4.401,1.409c2.289-1.057,1.233-9.332,1.233-9.332s-10.565-8.453-12.502-10.741
	c-1.937-2.29-1.408-8.628-1.408-8.628s-3.346-0.528-5.283,0.881c-1.937,1.408-2.817,2.289-4.578,0.703
	c-1.761-1.584-1.409-4.577-3.874-4.577c-2.465,0-2.817-1.057-4.931-3.698c-2.112-2.641-4.578-0.352-6.691,0.352
	c-2.113,0.705-5.282-2.113-5.282-2.113s-0.528,3.698-1.761,5.459c-1.233,1.76-2.641,2.289-6.515,2.464
	c-3.874,0.176-2.641,1.058-1.056,2.818c1.584,1.761,0.176,5.105-1.585,6.515c-1.761,1.409,0.704,5.283,3.169,6.339
	c2.465,1.058,1.937-0.528,4.226-2.112c2.289-1.585,0.881,2.641,1.938,4.225c1.057,1.585,4.049,1.057,4.578,2.642
	c0.529,1.584,1.937,1.761,2.994,3.698c1.056,1.938-1.585,0.704-2.994,2.289c-1.408,1.584,3.874,6.339,3.874,6.339l-0.121,7.899
	c0.229,0.133,0.363,0.208,0.363,0.208s0.819,5.332,2.05,6.768c1.23,1.436,3.486,3.075,3.486,3.075s0.012,0.028,0.029,0.069
	c0.078-0.959,0.191-1.788,0.356-2.172C210.29,359.819,213.811,360.524,215.748,359.82z"/>
<path id="Lorestan" fill="#eeae6a" stroke="#231F20" stroke-miterlimit="10" d="M110.581,222.66
	c-2.373,2.556-8.033,1.643-9.858,1.643c-1.826,0-1.826,3.286-2.556,4.746c-0.73,1.461-3.104-2.008-4.381-1.095
	c-1.278,0.913-0.366,2.556,1.825,4.381c2.191,1.825,2.556,2.191,2.556,3.469s1.826,1.095,3.651,1.46
	c1.826,0.366,4.747,3.651,7.851,4.93c3.104,1.278,4.016,3.651,5.659,5.295c1.643,1.642,4.929,1.642,7.485,3.285
	s6.39,4.747,6.39,4.747s3.104-3.65,4.564-4.564c1.46-0.913,13.51-0.365,14.605,0.365c1.096,0.73,4.747,1.46,7.12,1.643
	c2.374,0.182,6.208,1.46,10.772,1.826c4.564,0.364,4.746,5.659,4.746,5.659l7.668-4.199c0,0-0.365-2.374-0.913-4.564
	c-0.548-2.191,0.73-4.564,0.73-4.564s3.651,0.913,7.12-0.548c3.468-1.46-0.548-2.374-2.008-4.016
	c-1.46-1.643,0.73-1.461,3.286-3.469c2.556-2.008,0.73-3.834,0.73-3.834s-1.278,0.182-3.468,0.73
	c-2.191,0.548-2.374-0.913-2.739-3.833c-0.366-2.921-2.739-2.374-4.564-3.469s-0.547-4.747-0.547-4.747s-4.564-0.548-6.755-0.365
	c-2.19,0.183-1.825,3.651-4.199,3.468c-2.373-0.182-2.739-2.921-2.921-4.017s-5.477-0.365-7.85-0.913s0.183-1.46,1.643-3.469
	s0.365-5.294,0.365-5.294s-2.19,0.548-4.017,0.365c-1.825-0.183-3.286-4.199-3.286-4.199s-5.295-0.913-6.755,1.46
	c-1.461,2.373-3.286,1.46-7.303,0.365c-4.016-1.095-4.381-4.747-4.747-6.207c-0.366-1.46-2.556-0.548-4.929-0.913
	c-1.179-0.181-1.457-1.94-1.438-3.664c-0.441,0.397-0.845,0.401-2.296,0.194c-2.871-0.411-5.127-1.436-5.127-1.436
	s0.411,2.461-1.64,5.332c-2.051,2.871-5.126,4.101-4.306,5.742s2.255,4.101,2.255,4.101s-0.147-0.057-0.394-0.147
	c0.649,1.014,0.98,1.909,1.262,2.658C114.415,218.46,112.954,220.104,110.581,222.66z"/>
<path id="Zanjan" fill="#eeae6a" stroke="#231F20" stroke-miterlimit="10" d="M115.691,125.351c0,0,5.112,2.374,7.851,2.374
	s2.008,2.556,2.739,5.842c0.73,3.286-0.548,3.469-2.009,4.199c-1.46,0.73-0.365,5.842-0.365,5.842s2.739-0.365,2.921,0.548
	c0.182,0.913,1.278,2.556,3.469,2.921c2.19,0.365,2.191,1.643,3.469,3.468s4.381,1.826,5.842,2.191
	c1.461,0.365,2.921,2.008,5.112,1.825c2.191-0.182,3.286,0.913,5.112,0.73c1.826-0.183,0-4.564-0.183-6.938
	c-0.183-2.373,1.826-3.833,3.834-5.842c2.008-2.008,3.286,0.73,5.66,2.008s2.556-1.643,3.833-2.921
	c1.278-1.278,4.199-1.096,5.294-2.921c1.096-1.826,1.46-6.755,1.46-9.676c0-2.921-7.12-4.017-10.041-4.93
	c-2.921-0.913-2.739-5.477-2.373-6.754c0.365-1.278,1.643-3.834,3.469-4.564c1.825-0.73,4.381,2.008,4.381,2.008l3.895-0.223
	c-0.837-0.871-1.542-1.681-1.915-2.115c-1.056-1.232-2.289-2.642-2.465-3.874c-0.177-1.233-4.754-6.867-6.163-8.452
	c-0.687-0.773-2.167-1.753-3.505-2.556c-0.045,0.209-0.106,0.372-0.183,0.474c-0.615,0.82-5.332,0-7.587,0.41
	c-2.256,0.41-2.871,0.615-3.691-0.82c-0.82-1.436-1.641-1.846-2.46-2.666c-0.742-0.742-1.653-0.144-2.731-0.327
	c-2.65,0.938-5.142,2.26-6.079,3.196c-1.409,1.409-3.521,2.466-5.282,1.585c-1.761-0.88-4.226-1.232-5.283-0.704
	c-1.057,0.528-7.395,3.169-8.627,5.106c-1.232,1.937-3.346,1.937-6.691,3.345c-1.462,0.616-2.354,2.141-2.892,3.662l0.47,0.028
	c0,0,3.639,9.752,3.779,15.26c1.022-0.135,2.255-0.365,3.007-0.741C112.223,124.621,113.135,124.438,115.691,125.351z"/>
<path id="Alborz" fill="#eeae6a" stroke="#231F20" stroke-miterlimit="10" d="M202.112,129.844c-0.536,1.607,0,3.75,3.482,5.356
	s5.625,1.875,1.339,4.286c-4.285,2.41-5.356,5.356-6.695,6.428c-1.34,1.072-4.554,1.875-4.554,4.018s0,4.821-1.339,5.089
	c-1.339,0.268-1.071,0.268,0.535,1.607c1.607,1.339,2.947,2.411,2.947,2.411l2.411-0.268c0,0-0.268-5.089,2.678-5.357
	c2.946-0.268,19.284-1.071,19.284-1.071s0.268-5.625,4.554-6.428c4.285-0.804,5.356-0.535,5.356-0.535s2.143-4.553,2.143-6.428
	c0-0.58,0-1.417,0-2.295c-1.886-0.624-3.839-0.551-7.037-0.704c-4.306-0.205-7.587-2.666-9.638-3.896
	c-1.285-0.771-2.327-1.702-2.927-2.291C209.373,129.286,202.442,128.854,202.112,129.844z"/>
<path id="Semnan" fill="#eeae6a" stroke="#231F20" stroke-miterlimit="10" d="M285.946,148.592c0,0-11.517,9.375-14.464,10.981
	c-2.946,1.607-2.411,4.553-5.624,4.821c-3.214,0.268-4.554,0.268-8.304-2.678c-3.749-2.946-10.177-5.089-9.642-3.214
	c0.535,1.875,1.606,4.821,0.535,6.429c-1.071,1.606-2.143,4.017,0,6.428c2.143,2.411,4.018,4.553,2.411,7.768
	c-1.607,3.214-2.143,5.892-3.214,8.57c-1.071,2.679-2.143,6.428-2.143,6.428s3.214,1.875,5.089,2.947
	c1.875,1.071,6.695,0.267,10.981,0.267c4.286,0,7.499,0.537,9.642,2.143c2.143,1.607,4.82,2.946,4.82,2.946l96.958-1.607
	c0,0,4.002-10.164,10.03-16.167c-0.44-0.022-0.705-0.037-0.705-0.037s4.402-5.811,5.635-7.396s2.641-4.049,5.811-4.049
	s4.05-1.761,4.578-2.113c0.529-0.353,0.528-2.289,4.753-2.817c4.227-0.528,3.874-1.937,3.522-3.874
	c-0.353-1.937,0.352-4.578,0.352-7.924s-9.684-9.685-9.684-9.685s-0.176-3.169-0.352-4.93c-0.177-1.761,2.816-7.219,2.816-7.219
	l-3.698-5.635c0,0,2.642-2.113,4.051-3.345c1.409-1.233,0.352-3.698-0.705-5.106c-1.057-1.409-1.231-2.113-1.409-3.698
	c-0.176-1.584-1.407,0.88-3.697,1.761c-0.797,0.306-1.525,0.118-2.142-0.252c-0.006,0.025-0.009,0.042-0.009,0.042
	s-1.091,0-3.637-0.546c-2.547-0.545-3.819-4.364-5.274-6.183c-1.455-1.818-1.091-4.183-1.091-4.183s-1.091-0.182-3.455,1.273
	c-2.363,1.455-4.183,2.546-4.546,0.364c0,0,0.908-3.819,1.818-5.82c0.909-2,0-5.092,0-5.092l-3.273-0.545l0.344-4.294
	c-2.9-0.403-4.93,0.787-6.027,1.64c-1.585,1.232-1.057,3.874-1.937,4.579c-0.882,0.704-2.465,0.704-2.289,3.697
	s-1.585,4.226-3.17,6.515c-1.584,2.29-6.339,3.698-8.276,3.698c-1.937,0-6.866-1.937-10.035,2.817
	c-3.169,4.754-5.812,2.465-6.867,2.993c-1.057,0.528-5.811,4.05-8.629,4.402c-1.747,0.219-7.083,0.166-10.886,0.095
	c-0.242,0.188-0.496,0.349-0.749,0.476c-2.051,1.025-4.921,2.051-3.691,5.331c1.23,3.281-5.332,6.563-6.767,8.612
	c-1.436,2.051-9.433,1.23-12.099,3.076c-2.666,1.845-3.691,3.691-5.537,3.691c-1.577,0-3.599,1.943-4.154,2.509
	c0.442,0.277,0.908,0.499,1.354,0.574C284.875,148.324,285.946,148.592,285.946,148.592z"/>
<path id="Kerman" fill="#eeae6a" stroke="#231F20" stroke-miterlimit="10" d="M464.594,316.527c-1.875-1.071-5.624-2.677-8.327-6.16
	c-2.704-3.481-15.242-13.928-19.528-16.875c-4.285-2.945-24.373-9.106-30.801-11.249c-6.429-2.143-12.053-0.268-12.053-0.268
	s-0.536,2.411-0.27,5.089c0.269,2.678-2.678,4.553-4.284,5.357c-1.607,0.804-6.696,3.213-9.374,2.41s-3.751,1.607-6.696,6.696
	c-2.946,5.089-20.089,10.714-25.98,12.589c-5.893,1.875-6.695,1.071-9.91,0.267c-3.213-0.804-8.57,1.34-8.57,1.34l0.268,17.677
	l-6.695,5.088c0,0,2.678,3.482,5.088,5.892c2.411,2.411,2.143,5.089,2.411,12.322c0.268,7.231,1.874,10.713,1.874,10.713
	l6.696,0.536c0,0,9.374,11.785,12.589,15.535c3.214,3.749,1.338,8.035,1.071,13.125c-0.056,1.062,0.3,2.101,0.894,3.079
	c0.437-0.176,1.055-0.208,1.856,0.274c1.761,1.056,3.875,2.817,6.163,1.584c2.289-1.232,10.389-5.811,12.854-5.986
	c2.466-0.177,3.698-0.528,3.698-0.528s-3.346,14.791-2.289,18.313s4.049,9.686,10.036,9.686s10.037-0.177,10.39-2.817l0.176-1.762
	l8.979-0.176c0,0,0.001,8.1,2.642,10.389s5.812,2.993,8.452,2.993s3.345,0,3.521,2.994c0.176,2.993-0.353,1.937-2.113,2.816
	c-1.761,0.881-5.635,3.346-4.402,5.635c1.233,2.289,2.465,0.001,2.642,2.994c0.176,2.992,0,8.628,2.641,9.51
	c2.642,0.88,4.578,0.703,4.931,3.345c0.352,2.642,1.409,3.169,3.346,4.402c1.937,1.232,1.938,3.697,4.578,4.226
	s3.874-1.585,6.163,1.057c2.288,2.641,4.402,5.105,8.276,5.282c3.873,0.176,4.051-1.056,5.459,1.409s1.918,3.873,5.273,5.811
	c1.397,0.808,3.773,1.614,6.068,2.28c0.454-2.004,5.274-1.702,5.274-1.702s-0.182-4.91-0.729-7.274
	c-0.546-2.363-3.272-2.546-4.364-4.183c-1.092-1.638,0.547-4.183,0.547-6.547c0-2.363-2.729-5.274-2.547-6.364
	c0.183-1.092,2.727-27.459,3.271-31.642c0.546-4.183,2.546-3.455,5.456-3.637c2.909-0.183,2.182-6.184-0.001-8.184
	c-2.183-2.001-0.546-2.183,0.727-3.819c1.273-1.637,6.184-0.363,11.64-0.182c5.456,0.181,1.636-2,1.636-3.092s0-9.093-0.909-12.366
	s-1.09-4,0.546-5.273c1.638-1.273-2-5.819-2.546-13.093c-0.545-7.274-0.909-30.005-1.092-32.37
	c-0.162-2.104,1.114-5.354,1.397-6.044c-3.917-4.348-8.351-9.478-9.353-11.479C469.414,322.419,466.469,317.599,464.594,316.527z"/>
<path id="Ilam" fill="#eeae6a" stroke="#231F20" stroke-miterlimit="10" d="M125.714,277.063c1.105-3.07,1.719-8.229,1.842-9.58
	c0.123-1.352-1.351-1.229-1.351-2.21c0-0.982,1.842-1.105,1.842-1.105s0-1.72,1.474-1.965c1.474-0.246,1.842-2.334,1.596-3.808
	c-0.138-0.83-0.86-2.282-1.465-3.393c-0.277,0.315-0.45,0.519-0.45,0.519s-3.834-3.104-6.39-4.747s-5.842-1.643-7.485-3.285
	c-1.643-1.644-2.556-4.017-5.659-5.295c-3.104-1.278-6.025-4.564-7.851-4.93c-1.826-0.365-3.651-0.183-3.651-1.46
	s-0.365-1.644-2.556-3.469c-2.191-1.826-3.104-3.469-1.825-4.381c1.278-0.913,3.651,2.556,4.381,1.095
	c0.73-1.46,0.73-4.746,2.556-4.746c1.825,0,7.485,0.913,9.858-1.643s3.834-4.199,3.286-5.66c-0.281-0.75-0.613-1.645-1.262-2.658
	c-1.379-0.505-5.9-2.065-5.552-0.673c0.41,1.64,2.46,5.537-0.41,6.152c-2.871,0.615-7.587-2.666-9.228-1.23
	c-1.641,1.435-1.846,2.871-6.767,1.846c-4.921-1.026-10.663-8.818-13.329-7.998c-2.666,0.82-4.101-1.435-5.946-2.256
	c-1.846-0.82-1.436,2.051-3.896,2.666c-2.46,0.615-4.101-1.845-3.691,1.64c0.41,3.486,2.666,2.256,0.615,4.307
	c-1.509,1.508-4.681,5.011-7.886,6.596c0.16,0.204,0.302,0.367,0.415,0.464c0.814,0.698,0.582,2.444,1.513,3.025
	c0.931,0.582,1.862-1.978,3.84-1.164s2.91,1.513,1.396,3.026c-1.513,1.513-1.28,1.979,0.698,1.746c1.978-0.232,2.793,0,3.142,1.746
	c0.349,1.746,0.814,3.026,2.444,4.771c1.63,1.746,2.041,5.017,0.178,5.832c-1.862,0.814-2.738,1.384-2.738,1.384
	s-0.582,1.047,1.28,1.047c1.862,0,1.862,1.397,0.931,2.444c-0.931,1.048-1.164,1.863,1.28,2.212c2.444,0.348,7.1-1.164,14.781,4.888
	c7.681,6.052,12.453,11.289,14.431,12.22c1.978,0.931,3.375,0.582,4.888,0.116c1.513-0.465,3.142,0.234,4.073,1.514
	c0.931,1.281,1.746,1.862,1.047,2.327c-0.698,0.466-0.35,1.514,0.698,2.677c1.047,1.165,3.142,2.445,2.211,3.726
	c-0.931,1.28-0.931,1.396,0.582,2.444c1.513,1.047,2.909,3.259,5.12,6.285c0.195,0.267,0.391,0.528,0.586,0.786
	c0.361-1.909,0.857-3.807,1.489-4.597C122.276,282.466,124.608,280.134,125.714,277.063z"/>
<path id="Kurdistan" fill="#eeae6a" stroke="#231F20" stroke-miterlimit="10" d="M131.733,176.236l0.369-6.754
	c0,0-7.492-8.474-7.983-9.088s-1.351-5.158-1.351-5.158s5.036-0.246,7.492-2.088c1.212-0.909,2.304-2.177,3.1-3.229
	c-0.902-1.49-1.132-2.521-3.063-2.842c-2.19-0.366-3.287-2.008-3.469-2.921c-0.182-0.913-2.921-0.548-2.921-0.548
	s-1.096-5.112,0.365-5.842c1.461-0.73,2.739-0.913,2.009-4.199c-0.73-3.286,0-5.842-2.739-5.842s-7.851-2.374-7.851-2.374
	c-2.556-0.913-3.468-0.73-4.929,0c-0.751,0.376-1.985,0.606-3.007,0.741c0.031,1.221-0.107,2.236-0.498,2.887
	c-2.153,3.588-7.177,2.871-8.408,1.641c-1.23-1.23-1.333-2.563-2.871-2.563s-3.486-2.46-4.921-3.076s-14.559,2.255-16.097,0.82
	c-1.538-1.436-1.538-2.974-1.538-2.974l-7.178,0.513c0,0,0.718,6.254-0.41,7.075c-1.128,0.82-7.484-0.41-8.1,1.64
	c-0.615,2.051,0.205,3.486-1.538,3.794c-1.743,0.308-2.358,1.333-2.46,3.588l0.047,2.86c1.585,0.757,3.106,1.917,3.609,3.488
	l0.814,1.862c0,0,2.328,1.281,4.888,0.35c2.561-0.932,5.354-2.096,6.75-1.165c1.396,0.932,1.63,2.328,3.492,1.862
	c1.862-0.465,3.84-1.28,3.957,0.233c0.116,1.513-4.307,2.793-4.307,2.793c-2.095,0.117-6.517,0.931-6.634,2.444
	c-0.116,1.513-1.28,3.607-0.349,6.051s3.375,4.19,3.957,5.586s-0.116,1.513,0,2.792c0.038,0.416,0.141,0.725,0.282,0.956
	c1.712-0.69,3.666-1.406,4.41-1.406c1.435,0,2.255,0.616,3.28,2.05c1.026,1.436,2.872,2.871,2.872,3.896
	c0,1.025-1.026,4.101,1.64,5.126c2.666,1.025,5.741,3.076,6.562,5.537c0,0,11.073,0.82,10.869-0.82
	c-0.206-1.641-1.436-4.101,0.41-5.126c1.846-1.025,5.331,0,6.152-1.641c0.82-1.64-0.41-4.101,3.691-4.306
	c4.101-0.205,11.074,0.615,11.278,1.845c0,0-0.206,2.461,0.615,3.281c0.061,0.062,0.123,0.112,0.186,0.159l2.034-2.035
	L131.733,176.236z"/>
<path id="Tehran" fill="#eeae6a" stroke="#231F20" stroke-miterlimit="10" d="M202.199,158.712c4.512-0.205,7.382-0.41,9.433,0.821
	c2.051,1.23,5.742,1.025,6.357,1.845s0.82,3.691-0.205,5.126c-1.025,1.436-0.205,4.716-1.23,5.126c0,0-0.752,0.378,0.304,0.99
	c1.056,0.611,2,0.667,3.112-0.056c1.111-0.723,4.445-2.5,8.168-0.889c3.723,1.611,6.39,1.389,7.168,1.611
	c0.777,0.223,1.222,2.445,3.222,2.889c2,0.445,4.668,0.834,6.057,2.278c0.762,0.792,2.945,2.721,4.761,4.302
	c0.403-1.148,0.872-2.346,1.514-3.631c1.607-3.214-0.268-5.357-2.411-7.768c-2.143-2.411-1.071-4.821,0-6.428
	c1.071-1.607,0-4.554-0.535-6.429c-0.536-1.875,5.893,0.268,9.642,3.214c3.75,2.946,5.089,2.946,8.304,2.678
	c3.213-0.268,2.678-3.214,5.624-4.821c2.947-1.607,14.464-10.981,14.464-10.981s-1.071-0.268-2.679-0.535
	c-0.447-0.075-0.913-0.296-1.354-0.574c-0.095,0.096-0.151,0.157-0.151,0.157s-9.433-2.871-13.125-3.691
	c-3.691-0.821-2.871,1.23-6.151,3.896c-3.28,2.666-6.151,2.666-11.073,1.435c-4.921-1.23-4.921-4.511-5.946-6.356
	c-1.025-1.845-6.562-3.691-9.228-5.332c-0.686-0.422-1.332-0.721-1.985-0.937c0,0.878,0,1.715,0,2.295
	c0,1.875-2.143,6.428-2.143,6.428s-1.071-0.269-5.356,0.535c-4.286,0.804-4.554,6.428-4.554,6.428s-16.338,0.804-19.284,1.071
	c-2.647,0.241-2.7,4.363-2.683,5.199C200.754,158.705,201.396,158.749,202.199,158.712z"/>
<path id="SouthKhorasan" fill="#eeae6a" stroke="#231F20" stroke-miterlimit="10" d="M521.424,230.047
	c-5.12-0.116-10.357-2.328-9.31-6.052s0.814-8.495,0.232-13.267c0-0.001,0-0.002-0.001-0.003c-1.738-0.076-3.567-0.118-4.833-0.048
	c-3.169,0.176-3.521,4.226-5.986,4.578c-2.466,0.353-1.762-1.585-3.521-4.578c-1.761-2.994-12.678-1.233-12.678-1.233
	s-2.29-2.993-3.698-4.049s-20.426,0.704-23.419,1.057c-2.993,0.352-2.993,2.112-2.993,2.112s-1.761-1.408-4.755-4.049
	c-2.992-2.641-1.937-5.458-4.225-6.339c-2.289-0.88-2.819,2.114-5.989,2.29c-3.17,0.176-5.106-2.817-7.395-3.521
	c-2.289-0.705-3.698,1.233-3.874-0.704c-0.177-1.937-3.697-5.459-5.459-8.804c-1.761-3.345,0.704-4.578,4.931-6.515
	s-3.169-6.515-4.931-6.867c-1.761-0.353-2.465-2.113-6.515-2.994c-4.05-0.881-10.213,1.937-12.502,3.169
	c-2.288,1.233-3.874,3.521-5.106,5.811c-1.232,2.289-5.458,4.402-6.515,4.754c-0.881,0.294-7.642-0.025-9.859-0.139
	c-6.028,6.003-10.03,16.167-10.03,16.167l-14.259,0.236c0.164,8.247,0.539,26.35,0.539,26.35l-3.076,4.511
	c0,0,2.461,3.486,3.691,5.332s4.716,8.408,5.536,10.048c0.82,1.64,2.051,4.921,4.717,5.536s9.843,0.411,12.509,5.537
	c2.665,5.126,8.407,11.688,8.407,11.688c1.641,1.846,3.691,5.946,3.691,5.946s-1.228,2.356-0.629,5.9
	c1.12-0.32,6.154-1.549,11.817,0.339c6.428,2.143,26.516,8.304,30.801,11.249c4.286,2.947,16.824,13.393,19.528,16.875
	c2.703,3.482,6.452,5.088,8.327,6.16c1.875,1.072,4.82,5.892,6.695,9.643c1.002,2.001,5.436,7.131,9.353,11.479
	c0.035-0.085,0.058-0.138,0.058-0.138l14.002-6.001c0,0,0.363-3.819,0.909-5.819c0.547-2.001,3.638-0.364,7.82-1.456
	c4.182-1.091,1.455-6.91,1.637-8.183c0.181-1.272,7.274-2.546,12.911-4.364c3.224-1.039,4.959-4.04,5.855-6.42
	c-0.756-0.106-1.201-0.168-1.201-0.168s-1.964-16.688-0.981-20.86c0.981-4.172,1.717-5.399-2.209-18.407
	c-3.928-13.008-7.608-18.898-2.454-25.034c5.153-6.135,4.908-3.436,5.153-6.135s0.714-2.382,1.963-2.454
	C525.264,232.142,526.546,230.163,521.424,230.047z"/>
<path id="Fars" fill="#eeae6a" stroke="#231F20" stroke-miterlimit="10" d="M317.543,362.91c-1.965-3.561-1.964-3.561-2.332-6.017
	c-0.369-2.456-1.966-3.439-4.913-6.264c-2.947-2.824-1.228-3.438-0.736-5.281c0.49-1.842,0.123-12.526,0.123-12.526l-3.438-3.563
	c0,0-5.772-0.368-6.632-0.368c-0.86,0-4.175,0-4.544-0.737c-0.369-0.737-5.281-4.421-7.492-5.772
	c-2.211-1.351-7.983-4.052-9.457-4.913c-1.474-0.859-3.316-4.421-3.808-5.772c-0.491-1.351,0.983-2.088,3.071-3.07
	c2.088-0.982,1.352-2.579,1.229-3.315c-0.122-0.737-4.175-4.544-4.175-4.544s-11.422-0.86-13.509-1.105
	c-2.088-0.246-2.334-1.965-4.914-4.053c-2.578-2.088-6.877,0.859-9.088,4.421c-2.21,3.563-1.474,6.754-1.228,10.317
	c0.246,3.562-2.333,11.054-4.053,14c-1.072,1.838-1.189,5.156-1.125,7.393c0.477,0.384,0.759,0.612,0.759,0.612
	s1.056,8.275-1.233,9.332c-2.289,1.057-2.993-0.879-4.401-1.409c-1.409-0.528-4.05,1.232-6.339-1.232
	c-2.289-2.464-4.226-5.635-5.634-4.93c-1.409,0.704-0.176,3.873,0.88,6.867c1.056,2.994,1.584,7.395-1.233,8.628
	c-2.817,1.232-4.93,0.176-5.635,1.584c-0.704,1.41,0,7.924-1.937,8.628c-1.937,0.705-5.458,0-5.986,1.232
	c-0.165,0.384-0.278,1.213-0.356,2.172c0.161,0.391,1.017,2.47,1.202,3.212c0.205,0.82,8.817,0.206,10.253,0.615
	c1.436,0.41,6.151,1.641,6.151,1.641s0.616,4.306,0.821,5.536c0.205,1.23,2.871,1.23,5.331,2.871
	c2.461,1.641,8.612,7.588,10.868,13.534c2.256,5.946,5.126,8.612,5.332,9.433c0.205,0.82,0.819,3.075,1.23,6.151
	c0.41,3.076,3.896,17.431,6.356,19.686c2.461,2.256,6.972,3.487,9.022,6.973c2.051,3.485,1.436,8.816,4.717,11.688
	c3.281,2.87,6.151,3.075,6.971,4.921c0.82,1.846,3.896,5.742,3.896,5.742l-0.411,0.133c1.73,0.323,3.446,0.748,4.859,1.303
	c4.93,1.938,8.804,5.636,10.917,6.163c2.112,0.528,5.106-0.88,7.747,1.409c2.642,2.289,3.874,0.704,6.163-1.761
	c2.288-2.466,4.578-5.458,2.994-7.22c-1.585-1.761-1.233-1.583,0.176-2.112c1.408-0.528,10.389-4.403,17.784-3.698
	c7.395,0.704,16.903,2.465,19.193-0.353c2.288-2.816,12.501-11.444,9.684-15.318c-2.818-3.875-4.755-4.579-4.755-8.277
	c0-3.696,0.177-13.909,1.585-16.023c1.409-2.112,1.057-1.407-2.112-5.281c-3.17-3.874-3.17-3.874-3.17-3.874
	s0.263-0.415,0.784-0.626c-0.594-0.979-0.949-2.018-0.894-3.079c0.267-5.09,2.143-9.376-1.071-13.125
	c-3.215-3.75-12.589-15.535-12.589-15.535l-6.696-0.536c0,0-0.026-0.06-0.074-0.174l-11.303,0.579
	C320.368,367.822,319.509,366.471,317.543,362.91z"/>
<path id="Qazvin" fill="#eeae6a" stroke="#231F20" stroke-miterlimit="10" d="M154.408,151.246c1.566,1.371,6.755,3.721,7.048,5.189
	c0.293,1.469-0.49,3.132,1.958,2.937c2.447-0.196,4.209,0.881,5.188,1.469s3.035,1.86,5.776,1.273
	c2.742-0.588,3.525-1.469,4.112-3.035c0.587-1.566,2.741-1.175,5.874-0.979c3.133,0.196,5.189,0.979,7.636,0.881
	c1.296-0.052,3.496,0.084,5.514-0.194c-0.485-0.391-1.486-1.203-2.634-2.159c-1.606-1.339-1.875-1.339-0.535-1.607
	c1.339-0.269,1.339-2.946,1.339-5.089s3.214-2.946,4.554-4.018c1.339-1.071,2.41-4.018,6.695-6.428
	c4.286-2.411,2.143-2.679-1.339-4.286s-4.018-3.75-3.482-5.356c0.33-0.99,7.261-0.558,12.539-0.079
	c-0.358-0.351-0.559-0.58-0.559-0.58c-0.205-2.666-2.255-4.306-6.562-7.382c-4.306-3.076-8.408-4.101-8.408-4.101
	s0.16-0.093,0.423-0.269c-1.4-0.318-2.785-0.636-3.522-0.783c-1.761-0.352-4.226,1.938-6.516,2.641
	c-2.289,0.704-8.452,1.233-10.388,0.705c-1.937-0.528-3.346-1.761-5.283-1.937c-1.253-0.113-3.241-1.922-4.776-3.519l-3.895,0.223
	c0,0-2.556-2.738-4.381-2.008c-1.826,0.73-3.104,3.286-3.469,4.564c-0.366,1.278-0.548,5.842,2.373,6.754
	c2.921,0.913,10.041,2.008,10.041,4.93c0,2.921-0.365,7.85-1.46,9.676c-1.095,1.826-4.016,1.644-5.294,2.921
	c-1.278,1.278-1.46,4.199-3.833,2.921s-3.652-4.016-5.66-2.008c-2.008,2.008-4.017,3.469-3.834,5.842
	c0.05,0.65,0.224,1.452,0.412,2.276C151.758,150.513,153.633,150.568,154.408,151.246z"/>
<path id="Qum" fill="#eeae6a" stroke="#231F20" stroke-miterlimit="10" d="M209.171,178.604c0.615,1.025,0.615,4.101,0.615,4.101
	s-5.127-0.615-6.972,1.025c-1.846,1.641-1.846,1.641-1.846,1.641s-1.64,1.23-3.896,0c-2.256-1.23-4.512-2.46-4.512-0.41
	c0,2.051-2.051,7.382-1.436,9.023c0.615,1.64,2.667,3.896,4.102,3.691c1.435-0.206,3.691-0.411,3.691,1.435s1.845,3.691,2.05,5.126
	c0.206,1.436,0,2.666,3.896,2.051s7.997-1.846,9.022-0.82c1.026,1.025,1.846,2.46,1.846,2.46l3.281-2.05c0,0-0.205-6.356,1.23-6.767
	c1.436-0.41,4.306-2.255,10.458-2.46c5.219-0.174,10.728-0.065,14.91-2.904c0.3-1.018,1.166-3.883,2.032-6.049
	c0.644-1.606,1.096-3.216,1.7-4.939c-1.816-1.581-3.999-3.51-4.761-4.302c-1.389-1.444-4.056-1.833-6.057-2.278
	c-2-0.444-2.445-2.667-3.222-2.889c-0.778-0.222-3.445,0-7.168-1.611c-3.723-1.611-7.057,0.167-8.168,0.889
	c-1.112,0.722-2.056,0.667-3.112,0.056c-0.62-0.359-0.616-0.636-0.508-0.805l-3.487,1.252
	C211.632,174.093,208.556,177.579,209.171,178.604z"/>
<path id="Yazd" fill="#eeae6a" stroke="#231F20" stroke-miterlimit="10" d="M394.749,276.005c0,0-2.051-4.1-3.691-5.946
	c0,0-5.742-6.562-8.407-11.688c-2.666-5.126-9.843-4.922-12.509-5.537s-3.896-3.896-4.717-5.536
	c-0.82-1.641-4.306-8.203-5.536-10.048c-0.933-1.398-2.57-3.737-3.309-4.788l-5.099-0.543c0,0-1.436,2.461-2.666,3.691
	c-1.23,1.23-5.536,3.485-5.536,3.485h-4.102c0,0-1.23,0.821-3.281,2.666c-2.051,1.846-4.306,1.025-8.816,1.025
	c-4.512,0-5.332,0.411-6.357,3.896c-1.024,3.486-4.307,4.101-7.587,4.715c-3.281,0.615-3.486,1.436-3.486,2.872
	c0,1.435-2.666,2.666-2.666,2.666l-16.815,0.206c0,0-3.28,2.05-7.382,4.511c-4.101,2.46-2.05,2.255-1.64,3.69
	c0.41,1.436-1.23,22.146-0.615,22.556c0.615,0.411,4.921,7.383,4.921,7.383l-2.87,3.69c0,0-1.026,0.411-5.127,0.821
	c-1.262,0.125-2.212,0.544-2.925,1.063c0.583,0.551,3.971,3.781,4.083,4.456c0.123,0.736,0.859,2.333-1.229,3.315
	c-2.087,0.982-3.562,1.72-3.071,3.07c0.492,1.351,2.334,4.913,3.808,5.772c1.474,0.86,7.246,3.562,9.457,4.913
	c2.211,1.352,7.123,5.035,7.492,5.772c0.369,0.737,3.684,0.737,4.544,0.737c0.859,0,6.632,0.368,6.632,0.368l3.438,3.563
	c0,0,0.367,10.684-0.123,12.526c-0.491,1.842-2.211,2.457,0.736,5.281c2.947,2.825,4.544,3.808,4.913,6.264
	c0.368,2.456,0.367,2.456,2.332,6.017c1.966,3.562,2.825,4.912,2.825,4.912l11.303-0.579c-0.316-0.784-1.567-4.236-1.8-10.539
	c-0.269-7.232,0-9.911-2.411-12.322c-2.41-2.41-5.088-5.892-5.088-5.892l6.695-5.088l-0.268-17.677c0,0,5.357-2.144,8.57-1.34
	c3.215,0.804,4.018,1.608,9.91-0.267c5.892-1.875,23.034-7.5,25.98-12.589c2.945-5.088,4.019-7.5,6.696-6.696
	s7.767-1.606,9.374-2.41c1.606-0.805,4.553-2.68,4.284-5.357c-0.267-2.679,0.27-5.089,0.27-5.089s0.084-0.027,0.235-0.071
	C393.521,278.361,394.749,276.005,394.749,276.005z"/>
<path id="Hamadan" fill="#eeae6a" stroke="#231F20" stroke-miterlimit="10" d="M160.015,206.433
	c-1.201-2.502-3.003-6.507-3.103-8.408c-0.1-1.902-0.1-6.007-0.1-6.007s2.002-0.3,3.504-0.5c1.501-0.2,1.101-8.208,1.602-9.41
	c0.5-1.201,4.905-2.603,6.506-2.503s2.603-7.208,3.104-8.708c0.5-1.502-2.703-2.303-3.404-2.903
	c-0.475-0.408,1.678-3.813,3.11-5.958c-1.175-0.31-2.076-0.862-2.631-1.195c-0.979-0.587-2.741-1.665-5.188-1.469
	c-2.448,0.196-1.665-1.468-1.958-2.937c-0.293-1.468-5.482-3.818-7.048-5.189c-0.775-0.677-2.649-0.732-4.348-0.616
	c0.498,2.184,1.097,4.529-0.229,4.662c-1.826,0.183-2.921-0.912-5.112-0.73c-2.191,0.183-3.651-1.46-5.112-1.825
	c-1.461-0.366-4.564-0.366-5.842-2.191c-0.151-0.217-0.285-0.425-0.406-0.626c-0.796,1.051-1.888,2.319-3.1,3.229
	c-2.456,1.842-7.492,2.088-7.492,2.088s0.86,4.544,1.351,5.158s7.983,9.088,7.983,9.088l-0.369,6.754l-7.491-0.123l-2.034,2.035
	c0.773,0.583,1.553,0.214,0.225,2.302c-1.436,2.255-2.255,5.741-0.615,7.792s6.972,1.23,7.177,3.486
	c0.205,2.256,0.615,3.691-2.461,6.357c-1.521,1.317-1.988,2.083-2.419,2.472c-0.019,1.724,0.258,3.483,1.438,3.664
	c2.374,0.365,4.563-0.547,4.929,0.913c0.365,1.46,0.73,5.112,4.747,6.207c4.017,1.096,5.842,2.008,7.303-0.365
	c1.46-2.374,6.755-1.46,6.755-1.46s1.46,4.016,3.286,4.199c1.691,0.169,3.691-0.288,3.979-0.355
	c1.335-0.621,3.029-1.459,3.967-2.121C162.217,210.036,161.216,208.935,160.015,206.433z"/>
<path id="Markazi" fill="#eeae6a" stroke="#231F20" stroke-miterlimit="10" d="M188.819,230.842c1.691-0.923,5.998-1.999,6.92-3.383
	s5.075-1.384,5.537-1.23s5.383,0.154,7.382-2.153c1.999-2.307,4.152,0.769,5.844,0.308c1.692-0.461,4.152,0.308,4.46-4.152
	c0.308-4.46,0.923-8.305,0.923-8.305s-2.558-1.854-3.805-4.214l-0.347,0.216c0,0-0.82-1.435-1.846-2.46
	c-1.025-1.025-5.125,0.205-9.022,0.82s-3.691-0.615-3.896-2.051c-0.205-1.436-2.05-3.281-2.05-5.126s-2.256-1.641-3.691-1.435
	c-1.435,0.205-3.486-2.051-4.102-3.691c-0.615-1.641,1.436-6.972,1.436-9.023c0-2.05,2.255-0.82,4.512,0.41
	c2.256,1.23,3.896,0,3.896,0s0,0,1.846-1.641c1.845-1.64,6.972-1.025,6.972-1.025s0-3.076-0.615-4.101
	c-0.615-1.026,2.46-4.512,3.691-5.537l3.487-1.252c0.076-0.119,0.204-0.185,0.204-0.185c1.025-0.41,0.205-3.691,1.23-5.126
	c1.025-1.435,0.82-4.306,0.205-5.126s-4.306-0.615-6.357-1.845c-2.05-1.23-4.921-1.026-9.433-0.821
	c-0.804,0.037-1.445-0.007-1.966-0.101c0.002,0.095,0.005,0.158,0.005,0.158l-2.411,0.268c0,0-0.12-0.096-0.313-0.252
	c-2.018,0.278-4.218,0.142-5.514,0.194c-2.447,0.098-4.503-0.686-7.636-0.881c-3.132-0.196-5.287-0.587-5.874,0.979
	c-0.587,1.566-1.371,2.447-4.112,3.035c-1.188,0.254-2.247,0.159-3.145-0.078c-1.433,2.146-3.585,5.55-3.11,5.958
	c0.701,0.601,3.904,1.401,3.404,2.903c-0.501,1.501-1.502,8.809-3.104,8.708s-6.006,1.302-6.506,2.503
	c-0.501,1.201-0.1,9.209-1.602,9.41c-1.502,0.2-3.504,0.5-3.504,0.5s0,4.104,0.1,6.007c0.1,1.901,1.902,5.906,3.103,8.408
	s2.202,3.604,0.501,4.805c-0.938,0.662-2.632,1.5-3.967,2.121c0.023-0.006,0.038-0.01,0.038-0.01s1.095,3.286-0.365,5.294
	s-4.017,2.921-1.643,3.469s7.667-0.183,7.85,0.913s0.548,3.834,2.921,4.017c2.374,0.183,2.009-3.286,4.199-3.468
	c2.191-0.183,6.755,0.365,6.755,0.365s-1.278,3.651,0.547,4.747s4.199,0.548,4.564,3.469c0.365,2.921,0.548,4.381,2.739,3.833
	c1.504-0.376,2.564-0.577,3.09-0.668C187.411,233.601,187.817,231.388,188.819,230.842z"/>
<path id="ChaharmahalandBakhtiari" fill="#eeae6a" stroke="#231F20" stroke-miterlimit="10" d="M225.686,302.735
	c-0.3-2.603,0.601-6.206,0.4-9.31c-0.2-3.104,0.901-3.203,2.502-4.605s0.801-3.604,0.501-6.006c-0.3-2.402-1.602-4.105-4.004-5.306
	c-2.403-1.201-3.003-3.504-4.104-4.705c-1.101-1.201-2.603-0.301-4.305-1.502c-1.701-1.202-0.2-4.305-0.2-5.405
	c0-1.102-2.402-4.205-3.303-6.006c-0.901-1.802-1.602-2.203-2.703-1.301c-1.101,0.901-4.104,1.301-6.606,1.602
	c-2.502,0.3-2.503,0.7-4.305,3.303c-1.801,2.602-3.604,1.401-5.105,0c-1.501-1.402-2.102-3.604-4.705-2.403
	c-2.603,1.201-4.304,0-4.304,0l-6.813-5.128c0.03,0.182,0.046,0.289,0.046,0.289l-6.921,3.79c0.288,1.074,0.711,2.022,1.325,2.635
	c2.46,2.461,12.508,11.484,12.508,11.484s-0.819,2.87,0.821,5.331s10.048,9.843,10.048,9.843v5.127l4.101,3.896
	c0,0-2.269,2.975-3.423,6.505c0.917,0.721,3.219,2.334,4.878,1.78c2.113-0.704,4.579-2.993,6.691-0.352
	c2.113,2.642,2.465,3.698,4.931,3.698c2.465,0,2.113,2.993,3.874,4.577c1.761,1.585,2.641,0.705,4.578-0.703
	c1.528-1.112,3.927-1.018,4.874-0.929C227.146,308.929,225.907,304.645,225.686,302.735z"/>
<path id="Isfahan" fill="#eeae6a" stroke="#231F20" stroke-miterlimit="10" d="M359.273,227.407c0,0-0.375-18.103-0.539-26.35
	l-82.699,1.371c0,0-2.678-1.339-4.82-2.946c-2.143-1.606-5.356-2.143-9.642-2.143c-4.286,0-9.106,0.804-10.981-0.267
	c-1.875-1.072-5.089-2.947-5.089-2.947s0.04-0.139,0.111-0.379c-4.182,2.839-9.691,2.73-14.91,2.904
	c-6.152,0.205-9.022,2.05-10.458,2.46c-1.436,0.411-1.23,6.767-1.23,6.767l-2.934,1.834c1.248,2.36,3.805,4.214,3.805,4.214
	s-0.615,3.845-0.923,8.305c-0.308,4.46-2.768,3.691-4.46,4.152c-1.691,0.461-3.845-2.615-5.844-0.308
	c-2,2.307-6.921,2.307-7.382,2.153s-4.614-0.154-5.537,1.23s-5.229,2.46-6.92,3.383c-1.002,0.546-1.408,2.759-1.575,4.477
	c0.239-0.042,0.378-0.062,0.378-0.062s1.826,1.826-0.73,3.834c-2.556,2.008-4.747,1.826-3.286,3.469
	c1.46,1.643,5.477,2.556,2.008,4.016c-3.469,1.46-7.12,0.548-7.12,0.548s-1.278,2.373-0.73,4.564
	c0.434,1.736,0.752,3.583,0.867,4.275l6.813,5.128c0,0,1.701,1.201,4.304,0c2.603-1.2,3.204,1.001,4.705,2.403
	c1.501,1.401,3.304,2.602,5.105,0c1.802-2.603,1.802-3.003,4.305-3.303c2.502-0.3,5.505-0.701,6.606-1.602
	c1.102-0.901,1.802-0.501,2.703,1.301c0.901,1.801,3.303,4.904,3.303,6.006c0,1.101-1.501,4.203,0.2,5.405
	c1.702,1.201,3.204,0.301,4.305,1.502c1.101,1.2,1.701,3.503,4.104,4.705c2.402,1.201,3.704,2.904,4.004,5.306
	c0.3,2.402,1.101,4.604-0.501,6.006s-2.703,1.501-2.502,4.605c0.2,3.104-0.701,6.707-0.4,9.31c0.221,1.91,1.46,6.194,1.275,10.2
	c0.253,0.023,0.409,0.047,0.409,0.047s-0.529,6.339,1.408,8.628c1.623,1.916,9.29,8.151,11.743,10.129
	c-0.064-2.237,0.053-5.555,1.125-7.393c1.72-2.946,4.299-10.438,4.053-14c-0.246-3.563-0.982-6.754,1.228-10.317
	c2.21-3.562,6.51-6.509,9.088-4.421c2.579,2.088,2.825,3.807,4.914,4.053c2.087,0.245,13.509,1.105,13.509,1.105
	s0.039,0.036,0.093,0.089c0.713-0.519,1.663-0.937,2.925-1.063c4.101-0.41,5.127-0.821,5.127-0.821l2.87-3.69
	c0,0-4.306-6.972-4.921-7.383c-0.615-0.41,1.025-21.121,0.615-22.556c-0.41-1.435-2.461-1.23,1.64-3.69
	c4.102-2.461,7.382-4.511,7.382-4.511l16.815-0.206c0,0,2.666-1.23,2.666-2.666c0-1.436,0.205-2.256,3.486-2.872
	c3.28-0.614,6.563-1.229,7.587-4.715c1.025-3.486,1.846-3.896,6.357-3.896c4.511,0,6.766,0.82,8.816-1.025
	c2.051-1.845,3.281-2.666,3.281-2.666h4.102c0,0,4.306-2.255,5.536-3.485c1.23-1.23,2.666-3.691,2.666-3.691l5.099,0.543
	c-0.236-0.337-0.383-0.544-0.383-0.544L359.273,227.407z"/>
<path id="Mazandaran" fill="#eeae6a" stroke="#231F20" stroke-miterlimit="10" d="M315.021,123.694c0.075-0.062,0.151-0.124,0.224-0.19
	c0.049-0.044,0.094-0.092,0.141-0.138c0.059-0.058,0.118-0.116,0.174-0.177c0.047-0.051,0.091-0.104,0.136-0.156
	c0.052-0.061,0.104-0.123,0.152-0.186c0.041-0.054,0.081-0.11,0.12-0.165c0.046-0.065,0.09-0.131,0.132-0.198
	c0.035-0.057,0.069-0.113,0.102-0.171c0.04-0.07,0.074-0.14,0.108-0.211c0.027-0.056,0.056-0.112,0.079-0.168
	c0.033-0.079,0.06-0.159,0.086-0.238c0.016-0.049,0.035-0.099,0.049-0.148c0.033-0.125,0.059-0.25,0.072-0.375
	c0.003-0.023,0.002-0.047,0.004-0.071c0.009-0.109,0.012-0.217,0.004-0.324c-0.004-0.046-0.015-0.091-0.021-0.137
	c-0.012-0.081-0.025-0.162-0.048-0.241c-0.015-0.05-0.035-0.099-0.054-0.148c-0.028-0.073-0.06-0.146-0.098-0.217
	c-0.026-0.049-0.058-0.097-0.089-0.146c-0.045-0.068-0.097-0.135-0.152-0.201c-0.04-0.046-0.08-0.092-0.125-0.136
	c-0.066-0.065-0.142-0.128-0.22-0.189c-0.051-0.041-0.1-0.082-0.156-0.12c-0.094-0.064-0.202-0.125-0.313-0.185
	c-0.057-0.03-0.106-0.063-0.167-0.092c-0.179-0.086-0.373-0.167-0.591-0.239c-3.691-1.23-6.151-1.64-6.356-5.332
	c-0.015-0.265-0.041-0.557-0.065-0.844c-3.018-0.439-6.618-1.92-6.618-1.92s2.858-0.953,5.145-1.144
	c0.336-0.028,0.711-0.06,1.103-0.095c-0.065-0.459-0.135-0.916-0.205-1.358c-5.309,0.612-13.329,1.229-21.723,3.418
	c-10.707,2.793-22.693,4.888-25.836,5.819c-3.143,0.931-6.75,3.724-15.246,1.861c-8.496-1.861-19.436-3.84-22.461-5.12
	c-3.026-1.28-12.103-7.099-12.103-7.099s-1.285-0.761-2.892-1.831c-0.858,2.238-2.833,7.202-4.088,8.928
	c-1.641,2.255-4.102,3.691-4.102,3.691s4.102,1.025,8.408,4.101c4.306,3.076,6.356,4.716,6.562,7.382c0,0,1.436,1.64,3.486,2.87
	c2.051,1.23,5.332,3.691,9.638,3.896c4.306,0.206,6.356,0,9.022,1.64c2.666,1.641,8.203,3.487,9.228,5.332
	c1.025,1.846,1.025,5.126,5.946,6.356c4.922,1.23,7.793,1.23,11.073-1.435c3.281-2.666,2.46-4.717,6.151-3.896
	c3.691,0.82,13.125,3.691,13.125,3.691s2.461-2.666,4.306-2.666c1.846,0,2.872-1.846,5.537-3.691
	c2.666-1.846,10.663-1.025,12.099-3.076c1.435-2.05,7.997-5.332,6.767-8.612c-1.229-3.28,1.641-4.306,3.691-5.331
	c0.253-0.127,0.507-0.289,0.749-0.476l0,0C314.948,123.758,314.984,123.725,315.021,123.694z"/>
<path id="Golestan" fill="#eeae6a" stroke="#231F20" stroke-miterlimit="10" d="M384.867,68.73c0-0.855-0.312-1.778-0.755-2.668
	c-0.997-0.001-11.1-0.023-13.533-0.466c-2.56-0.466-4.306-1.28-9.193-0.582c-4.888,0.698-9.661,2.445-13.851,5.937
	s-9.427,5.586-10.009,8.263c-0.582,2.676,0.698,6.052-1.279,7.448c-1.979,1.396-3.492,2.444-5.936,2.211
	c-2.444-0.233-2.794,0.582-4.423,1.629c-1.63,1.048-5.587,3.026-9.894,2.561c-4.306-0.466-6.051-0.466-6.051-0.466
	s-0.583,2.095,0.93,5.47c1.514,3.375,3.613,8.788,0.431,9.429c-0.999,0.201-2.269,0.37-3.731,0.539
	c0.07,0.443,0.14,0.899,0.205,1.358c2.275-0.2,5.186-0.477,5.186-0.477s0.763,2.859-2.096,3.621c-0.728,0.194-1.69,0.165-2.72,0.015
	c0.024,0.287,0.051,0.579,0.065,0.844c0.205,3.691,2.665,4.101,6.356,5.332c0.218,0.073,0.412,0.153,0.591,0.239
	c0.061,0.029,0.11,0.062,0.167,0.092c0.11,0.06,0.219,0.121,0.313,0.185c0.057,0.039,0.105,0.08,0.156,0.12
	c0.078,0.062,0.153,0.124,0.22,0.189c0.045,0.044,0.085,0.09,0.125,0.136c0.056,0.066,0.106,0.133,0.152,0.201
	c0.031,0.048,0.063,0.096,0.089,0.146c0.038,0.071,0.069,0.144,0.098,0.217c0.019,0.049,0.039,0.098,0.054,0.148
	c0.022,0.079,0.036,0.16,0.048,0.241c0.007,0.045,0.018,0.09,0.021,0.137c0.008,0.107,0.005,0.215-0.004,0.324
	c-0.002,0.024-0.001,0.047-0.004,0.071c-0.014,0.125-0.039,0.25-0.072,0.375c-0.014,0.05-0.033,0.099-0.049,0.148
	c-0.026,0.08-0.053,0.159-0.086,0.238c-0.023,0.057-0.052,0.112-0.079,0.168c-0.034,0.071-0.068,0.141-0.108,0.211
	c-0.032,0.058-0.066,0.114-0.102,0.171c-0.042,0.067-0.086,0.132-0.132,0.198c-0.039,0.056-0.078,0.111-0.12,0.165
	c-0.049,0.063-0.1,0.125-0.152,0.186c-0.045,0.053-0.089,0.105-0.136,0.156c-0.056,0.061-0.115,0.119-0.174,0.177
	c-0.047,0.046-0.092,0.093-0.141,0.138c-0.072,0.066-0.148,0.128-0.224,0.19c-0.037,0.031-0.073,0.064-0.111,0.093
	c3.803,0.071,9.139,0.124,10.886-0.095c2.818-0.352,7.572-3.874,8.629-4.402c1.056-0.528,3.698,1.761,6.867-2.993
	c3.169-4.754,8.099-2.817,10.035-2.817c1.938,0,6.692-1.408,8.276-3.698c1.585-2.289,3.346-3.522,3.17-6.515
	s1.407-2.993,2.289-3.697c0.88-0.705,0.352-3.346,1.937-4.579c1.098-0.854,3.127-2.043,6.027-1.64l0.02-0.253l2,0.182
	c0,0,0.364-0.545,0.182-2.909c-0.182-2.364,2.183-5.274,3.819-7.457c1.637-2.182,2.182-2.909,2.182-5.456
	c0-2.546,1.456-2,2.911-3.091C385.594,73.277,384.867,71.822,384.867,68.73z"/>
<path id="Khuzestan" fill="#eeae6a" stroke="#231F20" stroke-miterlimit="10" d="M199.725,338.866c1.409-1.584,4.05-0.351,2.994-2.289
	c-1.057-1.938-2.465-2.114-2.994-3.698c-0.528-1.584-3.521-1.056-4.578-2.642c-1.057-1.584,0.352-5.811-1.938-4.225
	c-2.289,1.584-1.761,3.17-4.226,2.112c-2.465-1.056-4.931-4.93-3.169-6.339c1.761-1.409,3.169-4.754,1.585-6.515
	c-1.585-1.76-2.817-2.642,1.056-2.818c3.874-0.176,5.282-0.704,6.515-2.464c1.233-1.761,1.761-5.459,1.761-5.459
	s0.153,0.135,0.404,0.333c1.154-3.531,3.423-6.505,3.423-6.505l-4.101-3.896v-5.127c0,0-8.408-7.382-10.048-9.843
	s-0.821-5.331-0.821-5.331s-10.047-9.023-12.508-11.484c-0.614-0.613-1.037-1.561-1.325-2.635l-0.747,0.409
	c0,0-0.182-5.295-4.746-5.659c-4.564-0.366-8.398-1.644-10.772-1.826c-2.373-0.183-6.024-0.913-7.12-1.643
	c-1.095-0.73-13.145-1.278-14.605-0.365c-1.121,0.7-3.203,3.006-4.114,4.045c0.604,1.111,1.327,2.563,1.465,3.393
	c0.246,1.474-0.123,3.562-1.596,3.808c-1.474,0.245-1.474,1.965-1.474,1.965s-1.842,0.123-1.842,1.105
	c0,0.981,1.474,0.858,1.351,2.21c-0.123,1.351-0.737,6.509-1.842,9.58c-1.105,3.071-3.438,5.403-4.912,7.246
	c-0.632,0.791-1.128,2.688-1.489,4.597c2.017,2.669,3.953,4.799,3.953,4.799s0.116,1.862-1.629,5.004
	c-1.746,3.144-3.375,8.612-3.375,8.612l-0.116,15.246h10.474v19.786h3.725c0,0,1.513,4.074,1.979,4.771c0.465,0.699,3.258,0,3.258,0
	s1.979,3.258,2.793,3.957c0.814,0.699,0.233,1.862-0.233,2.095c-0.465,0.233-0.116,1.396,0.699,2.444
	c0.814,1.047,0.349,4.656,4.073,4.888c3.724,0.233,4.191-0.58,3.492-1.977c-0.698-1.397-0.815-2.561,0.466-1.63
	c1.28,0.932,8.03,3.607,8.263-1.978c0.232-5.586-0.815-5.703-1.63-6.285c-0.814-0.581-1.396-2.909-0.349-3.607
	c1.047-0.699,1.746-1.047,2.211-0.349c0.465,0.698,0.931,2.793,1.746,3.259c0.814,0.466,4.888,4.073,5.353,2.793
	c0.466-1.28,1.513-1.513,1.513-0.233c0,1.28,0.116,3.259,1.164,3.026c1.048-0.233,3.026-1.513,5.004-0.466s2.329,1.978,2.445,3.841
	c0.116,1.862,1.28,3.375,5.47-0.116c4.189-3.492,8.146-6.401,11.172-5.586c0.688,0.186,1.183,0.588,1.547,1.116
	c0.827-0.49,1.507-1.079,1.423-1.668c-0.204-1.435-0.204-4.511,1.641-2.666c1.576,1.576,6.292,4.347,7.634,5.123l0.121-7.899
	C203.598,345.205,198.316,340.451,199.725,338.866z M163.795,344.955c-0.67-0.894-5.585-2.904-5.585-2.904
	c1.564-1.788,4.916-2.234,7.596,0S164.466,345.849,163.795,344.955z"/>
</svg>
