<?xml version="1.0" encoding="utf-8"?>
<!-- Generator: Adobe Illustrator 16.0.3, SVG Export Plug-In . SVG Version: 6.00 Build 0)  -->
<!DOCTYPE svg PUBLIC "-//W3C//DTD SVG 1.1//EN" "http://www.w3.org/Graphics/SVG/1.1/DTD/svg11.dtd">
<svg version="1.1" id="Layer_1" xmlns="http://www.w3.org/2000/svg" xmlns:xlink="http://www.w3.org/1999/xlink" x="0px" y="0px"
	 width="672.999px" height="235px" viewBox="0 0 672.999 235" enable-background="new 0 0 672.999 235" xml:space="preserve">
<g id="sub-map" display="none">
	<g id="east-sub" display="inline">
		<path id="Sarawak" fill="#77C6F9" d="M218.635,112.709c0.476-2.141-1.838-5.254-3.007-7.005c-1.166-1.751-0.97-3.696,1.362-7.199
			c2.337-3.502,1.557-6.227,1.362-9.518c-0.193-3.292-4.086-1.183-5.836-0.21c-0.704,0.392-1.439,0.183-2.065-0.205
			c-1.128,1.229-2.028,2.136-2.172,2.324c-0.513,0.664-3.144-0.294-3.863-0.776c-2.085-1.39-1.998-0.912-3.865,0.7
			c0.805,0.857,2.883,2.318,3.055,3.482c0.261,1.766,1.965,4.426,1.612,6.051c-0.451,2.114-0.28,4.468-0.288,6.621
			c-0.004,0.901,2.794,2.675,3.501,3.301c-1.997,3.416-3.325-1.08-5.061-0.388c-1.051,0.421-2.564-0.552-3.857-0.203
			c-0.71,0.195-0.599-4.398-0.684-4.935c-0.469-2.982-2.327-5.185-2.364-8.482c-0.012-1.089,0.879-4.224,0.008-5.314
			c0.804,1.007-3.981,2.838-4.77,2.867c-0.788,0.031-1.155,1.456-1.669,2.026c-1.185,1.321-2.499,0.527-2.063,2.58
			c0.529,2.485-0.265,7.084,1.271,9.16c0.751,1.015,2.157-0.024,1.735,1.756c-0.386,1.628-0.642,3.615-1.615,5.02
			c-1.886,2.724-1.535,4.574-4.505,6.66c-2.294,1.611-3.046,1.196-5.104-0.912c-0.636-0.65-1.222-1.705-1.846-2.474
			c-0.863-1.067-1.263-2.625-1.715-3.896c-0.382-1.07-4.189-0.599-5.314-0.641c2.377-1.962,0.587-4.122-0.528-6.303
			c-1.234-2.415-2.755-1.598-4.26-3.606c-4.544-6.059-7.868,8.714-9.271,11.261c-3.204,5.815-8.908,10.656-13.833,14.937
			c-4.429,3.847-7.302,9.663-10.971,14.231c-0.738,0.921-1.183,1.947-1.841,2.903c-1.108,1.608-3.043,0.386-4.278,1.205
			c-1.064,0.706,0.816,2.003,0.594,2.777c-0.358,1.25-3.403,2.728-4.461,3.284c-7.542,3.963-17.248,5.412-25.518,7.268
			c-3.887,0.873-7.744,1.419-11.716,1.719c-2.657,0.2-7.17,0.15-9.254,1.885c-2.237,1.863-5.942,3.112-6.741,5.986
			c-1.366,4.895,2.208,3.089,3.821,6.466c-0.756-0.036-4.015-0.597-4.161,0.12c-0.587,2.871,2.51,3.214,4.648,3.675
			c-1.235,1.586-1.863,0.376-3.332,0.027c-2.319-0.544-4.036,2.435-5.521-0.906c-2.9-6.522-4.484,7.076-2.003,6.388
			c0.149-0.054,0.296-0.125,0.435-0.236c-0.157,0.124-0.301,0.2-0.435,0.236c-0.707,0.254-1.512,0.029-2.145,0.709
			c-1.53,1.648,1.771,1.348,2.323,1.303c0.799-0.066,2.432,0.975,2.991-0.029c1.042-1.876,1.799-0.948,3.307-0.196
			c-1.332,0.241-2.526,0.902-2.431,2.434c-1.401-0.492-4.008-2.243-4.865-0.1c-0.85,2.13-1.218,4.493-1.936,6.674
			c-0.914,2.765-2.989,4.098-1.195,6.926c1.639,2.581,3.609,2.12,6.245,2.844c-1.216,1.159-2.13,0.097-3.601,0.097
			c-1.495,0-2.254-2.058-3.178-1.901c-1.877,0.311-5.43,0.663-4.108,3.737c1.052,2.436,4.367,7.223,7.329,5.896
			c2.058-0.923,2.528,0.171,4.044,1.314c0.65,0.018,1.233,0.245,1.75,0.683c0.371,0.367,0.736,1.841,1.189,2.036
			c-1.361-0.585-4.793-4.217-6.053-3.497c-3.021,1.728-5.592-0.265-8.394-2.221c-0.755-0.527-7.664-5.828-8.049-3.13
			c-0.412,2.894-1.767,3.351-4.086,5.061c0.284-2.431,2.721-2.318,3.207-4.509c0.488-2.194-7.647-1.346-8.265-2.788
			c-0.691-1.615-2.618-0.869-0.457-2.443c2.652-1.933-0.142-2.418-1.717-2.049c-0.766,0.176-0.692,3.023-2.361,1.28
			c-0.442-0.464-1.197-3.085-1.683-3.283c-0.06-0.024-1.182,4.316-1.468,4.938c-0.345-3.835-9.996-1.872-12.937-1.849
			c-1.614,0.012-1.706-1.451-2.423-2.406c-1.072-1.431-3.899-1.42-5.351-2.434c-2.156-1.497-2.339-3.802-2.259-6.147
			c-0.07,0.465-0.186,0.824-0.381,0.87c-0.729,0.184-2.804,0.336-3.012,1.104c-0.633,2.351-0.369,4.508,2.271,5.373
			c0.454,0.146,2.242,0.076,2.518,0.677c0.555,1.206-1.424,2.084-1.192,3.353c0.395,2.173-0.181,1.864,1.362,3.406
			c1.168,1.167,2.335,2.336,3.501,3.504c1.016,1.012,1.575,2.117,3.135,2.476c2.597,0.599,3.093,0.342,3.093,3.44
			c0,1.875,2.326,1.019,2.896,2.372c0.868,2.059,1.124,2.1,3.628,2.466c1.705,0.254,3.11,1.705,3.886,3.253
			c0.604,1.207,0.183,1.978,0.504,3.081c0.269,0.919,2.914,0.514,3.66,0.834c1.451,0.628,1.681,2.153,2.608,3.111
			c1.17,1.201,3.978,1.462,5.567,1.253c3.207-0.423,9.404-1.423,10.559-4.68c0.549-1.549,1.126-1.064,2.788-1.213
			c2.397-0.216,4.479-1.306,6.777-1.628c2.22-0.31,4.861,0.91,6.832,1.754c1.233,0.527,2.033,0.525,3.335,0.315
			c1.37-0.22,1.405,1.488,2.509,1.744c2.055,0.48,4.154-2.698,6.396-1.77c1.941,0.805,3.836,1.518,5.418-0.374
			c1.237-1.478,2.062-3.068,4.151-3.276c1.694-0.17,3.387-0.356,5.078-0.54c1.527-0.165,1.316-2.533,1.83-3.731
			c0.521-1.22,2.512-3.399,2.129-4.803c-0.229-0.842-1.171-0.938-1.52-1.63c-0.28-0.554,3.09-1.526,3.366-1.717
			c1.765-1.207,3.872-1.564,5.664-2.822c1.461-1.025,4.181-0.568,5.85-0.455c1.02,0.069,8.698,1.748,9.402,0.106
			c0.559-1.299,6.998-0.546,6.758,1.153c-0.266,1.881-1.683,1.92-2.816,3.13c-1.837,1.965,3.688,0.726,4.531,0.836
			c1.636,0.212,3.136,0.917,4.924,1.109c2.64,0.284,3.611,1.478,5.321,3.23c1.376,1.416,1.754-0.055,3.104-0.259
			c2.689-0.408,3.216,1.344,4.69,2.785c0.44,0.432,4.489-1.895,5.291-2.125c1.966-0.568,1.932-2.843,3.896-3.693
			c3.304-1.429,4.491-2.302,8.264-2.282c1.157,0.006,1.741,1.608,3.025,1.075c2.091-0.871,4.101-2.005,6.266-2.688
			c1.553-0.49,6.163,2.962,6.457,2.531c1.624-2.391,1.243-4.527,3.599-6.238c2.129-1.553,1.812-6.309,2.138-8.698
			c0.069-0.506,2.85-0.639,3.521-1.179c2.275-1.832-0.149-2.511,1.52-4.352c1.04-1.151-2.172-1.287-2.439-2.022
			c-0.435-1.198-0.592-3.12-0.752-4.392c-0.435-3.437,4.398-1.626,6.172-3.645c1.192-1.358-0.275-1.57,1.692-2.65
			c2.113-1.162,3.616-3.54,6.267-3.54c4.509,0,0.817-4.667-1.787-4.667c-1.074,0-1.699-0.355-0.841-1.557
			c0.563-0.789-0.235-1.892,0.16-2.319c0.683-0.748,1.183-1.389,1.227-2.467c0.044-1.063-1.289-1.348-1.289-1.78
			c0-0.432,1.449-2.984,1.931-3.198c1.867-0.823,4.052-2.255,4.394-4.438c1.303,0.497,1.234,1.604,2.578,1.757
			c1.596,0.176,2.059-0.591,3.55-0.591c3.115,0,2.473-5.978,2.271-7.724c-0.135-1.157,0.729-8.346,2.594-7.647
			c1.985,0.745,2.603-0.36,1.587-2.012c-1.558-2.535-1.597-4.512-1.853-7.425c-0.16-1.802,1.268-4.46,0.97-5.873
			c-0.276-1.323-2.372-0.572-0.508-2.006c1.066-0.823,1.624-1.886,1.997-3.044C216.709,117.322,218.159,114.85,218.635,112.709z"/>
		<g id="Sabah">
			<path fill="#487ECC" d="M340.795,72.354c-2.938,2.094-7.873-1.937-10.327-3.075c-3.054-1.418-4.648-3.137-7.267-5.43
				c-3.432-3.009-6.482-4.517-10.896-5.575c-1.477-0.354-3.476-0.673-4.407,0.857c-0.555,0.913-1.916,1.553-1.501,2.796
				c0.239,0.716-0.055,1.391-0.293,2.043c-0.818-1.107-1.117-2.392-2.522-1.987c-2.688,0.777-3.141,1.592-4.657-0.792
				c-0.969-1.521,4.304-1.732,4.979-2.055c2.906-1.394,0.601-4.01-0.479-5.958c-0.557-1.004-0.756-4.636-2.57-2.906
				c-1.831,1.745-2.558,3.016-5.133,3.513c-3.897,0.754-7.801,1.48-11.7,2.208c2.083-1.175,5.772-2.061,7.102-4.086
				c-0.974-0.551-1.944-1.102-2.918-1.653c1.937-1.586-0.578-3.794-1.486-5.352c-0.849-1.453,4.347-1.308,4.517-1.751
				c1.408-3.719,1.412-6.491-2.016-9.009c-1.556-1.145-3.961-2.332-5.102-3.928c-0.339-0.478-1.078,1.001-1.178,1.094
				c-1.082,1.034-1.857-0.22-2.464-0.946c-1.242-1.486-4.253,0.568-4.678-2.359c-0.172-1.179-0.115-2.42-0.631-3.529
				c-1.031-2.21-0.831-2.006-0.063-4.302c0.646-1.942-2.496-4.219-4.289-4.018c-0.932,0.104-6.31,2.208-3.137,3.65
				c1.233,0.562-1.153,4.533-1.697,5.708c-0.874,1.896-5.308,2.867-5.308,4.896c0,1.083-4.403,1.945-2.947-0.464
				c1.127-1.862,2.55-4.037,3.201-6.137c0.348-1.115-0.005-1.639-0.776-2.362c-1.33-1.244,1.459-1.712,0.718-3.198
				c-0.718-1.434-2.515-2.649-3.698-3.696c-0.601,0.872-1.2,1.959-1.362,3.015c-0.325,2.111-1.568,2.154-2.435,3.982
				c-0.669,1.409,0.721,3.581-0.407,5.063c-0.753,0.988-1.562,1.807-2.251,2.866c-1.432,2.197-3.15,6.123-5.61,7.353
				c-1.352,0.677-2.861,1.164-2.812,2.857c0.028,0.945-2.214,1.891-2.891,2.573c-1.31,1.323-2.472,2.786-3.651,4.222
				c-1.553,1.886-0.629,1.335-0.589,3.046c0.035,1.591-1.126,3.625-2.216,4.716c-1.518,1.518,0.595,3.119-1.708,4.48
				c-3.981,2.351-3.139,4.256-5.149,7.75c-1.748,3.038-8.767,2.7-9.194-1.238c-2.514,2.582-4.977,5.258-7.647,7.68
				c-5.145,4.664,2.674,5.964,5.511,6.604c2.964,0.666-1.419,5.91-4.307,9.054c0.626,0.387,1.361,0.596,2.065,0.205
				c1.75-0.973,5.643-3.081,5.836,0.21c0.194,3.292,0.975,6.016-1.362,9.518c-2.332,3.503-2.528,5.448-1.362,7.199
				c1.169,1.751,3.482,4.864,3.007,7.005s-1.926,4.613,0.063,9.603c0.681-2.125,0.726-4.571,2.122-6.437
				c1.076-1.433,3.012-1.338,4.502-2.096c1.737-0.883,0.993-2.174,1.224-3.787c0.237-1.656,2.973-0.259,3.937,0.228
				c2.175,1.098,2.234,3.338,4.604,1.128c1.305-1.216,0.923-2.437,3.115-2.258c1.983,0.162,4.047-0.081,6.001,0.358
				c2.732,0.612,1.159,5.161,4.67,2.534c1.548-1.157,1.171-2.819,3.143-1.898c0.548,0.256,1.343,0.215,1.927,0.252
				c3.198,0.202,6.412,0.19,9.613,0.198c3.779,0.008,9.754-1.122,12.922,0.592c3.164,1.709,4.459,5.317,8.092,5.393
				c2.797,0.059,2.827-1.54,4.804-3.517c-1.709-0.748-0.475-1.79-1.118-2.688c-0.46-0.645-2.306-1.582-0.587-2.663
				c1.02-0.64,7.409,3.063,8.223,4.183c3.273,4.5,8.337,1.799,12.443,0.602c3.033-0.883,6.061-1.256,9.191-1.544
				c1.28-0.116,3.147-0.073,4.122-1.088c0.779-0.808,0.413-2.445,1.774-2.35c1.146,0.078,5.66-0.659,2.957-2.333
				c-2.174-1.346-2.015-2.03-3.588-4.046c-0.738-0.946-4.115-2.086-5.29-2.028c-3.754,0.181-8.391,1.084-9.287-3.994
				c-0.345-1.932-2.36-2.403-1.207-4.214c1.49-2.343,3.946-1.995,6.396-2.463c0.375-0.071,3.334-1.692,3.107-1.746
				c1.628,0.375,1.35,4.781,3.979,2.364c1.209-1.111,2.563-0.049,4.067,0.166c2.854,0.409,5.639-1.526,8.237-2.438
				c3.93-1.376,11.349-1.586,13.003-6.31C346.889,77.288,345.363,69.1,340.795,72.354z"/>
			<path fill="#77C6F9" d="M268.486,9.913c0,0-0.907-4.411,0-4.93C269.396,4.464,273.155,2,273.155,2s3.244,0.259,3.244,1.815
				c0,1.558-0.908,1.427,0,2.725c0.409,0.585-0.153,2.95-1.033,2.879c-1.132-0.092,0.826-2.216-0.955-1.553
				c-1.116,0.416-2.573,1.099-3.329,2.047c-1.038,1.297-1.428,2.074-1.428,2.074L268.486,9.913z"/>
			<path fill="#77C6F9" d="M261.4,8.615c-0.06-0.442,0.386-1.644,0.634-2.086c0.447-0.788,2.348-0.923,2.92-1.66
				c0.573-0.742,0.185-3.081,1.556-1.362c0.619,0.778,0,1.021,0.145,1.8c0.111,0.584,1.43,1.686-0.109,1.728
				c-0.534,0.015-1.188-1.189-1.04-1.196c-0.652,0.029-1.269,0.72-1.096,1.436c0.028,0.122,1.553,0.193,0.988,0.859
				c-0.188,0.223-1.807-0.127-2.213-0.067C262.989,8.097,261.412,8.708,261.4,8.615z"/>
			<path fill="#77C6F9" d="M280.874,24.57c0,0-1.685-0.065-1.231,0.843c0.454,0.908,1.49,1.038,1.231,1.492
				c-0.259,0.454-2.27,0.259-2.787,0.714c-0.519,0.453-0.065,1.815,1.816,1.621c1.879-0.195,5.188,0,4.54-2.011
				C283.794,25.218,282.048,24.301,280.874,24.57z"/>
		</g>
	</g>
	<g id="west-sub" display="inline">
		<path id="Johor" fill="#487ECC" d="M166.271,185.589c-1.104-4.884-3.951-9.487-6.271-13.868c-1.313-2.479-2.646-4.971-4.192-7.313
			c-1.141-1.726,0.677-4.188-1.121-5.72c-1.699-1.449-4.85-3.965-4.667-6.448c0.097-1.296,0.775-1.575-0.181-2.418
			c-1.249-1.105-2.552-2.206-3.991-3.06c-0.646-0.386-1.286-0.745-1.915-1.101c-0.129,0.466-0.362,0.867-0.771,0.825
			c-0.941-0.097-1.201,1.168-0.91,1.655c0.293,0.485,0.974,0.778,0.293,1.652c-0.681,0.877,0.387,0.681,0.487,1.557
			c0.097,0.876,0.584,1.751-1.267,1.848c-1.848,0.098-6.322-3.405-8.755-3.989c-2.433-0.583-3.404,1.656-6.322,2.141
			c-2.918,0.486-9.338-5.836-10.8-7.394c-1.111-1.185-3.292-3.043-5.516-4.555c-0.155,1.989-0.481,4.598-1.164,5.659
			c-1.168,1.814-0.908,6.614-2.465,9.078c-1.556,2.466-2.593,2.596-2.853,4.41c-0.228,1.591-0.653,4.47-0.234,6.382
			c0.937,0.063,2.236,0.278,1.92,1.014c-0.545,1.27-0.248,2.937,0.66,3.896c1.17,1.235,2.34,2.47,3.511,3.705
			c1.672,1.764,1.213,0.654,3.519,1.048c1.492,0.257,2.998,1.658,4.207,2.473c2.046,1.378,4.083,2.773,6.149,4.121
			c1.541,1.002,3.053,1.821,4.773,2.483c1.684,0.649,5.176,1.415,5.979,3.286c0.857,1.999,1.419,4.176,1.937,6.283
			c0.477,1.943-0.12,3,1.984,2.919c1.48-0.057,3.63-0.107,4.763-1.224c0.803-0.787,0.743-2.286,1.427-3.243
			c0.875-1.226,2.18-1.868,3.685-1.785c2.64,0.148,6.452,1.715,9.031,0.583c2.681-1.175,2.473,1.441,2.338,3.603
			c1.833-0.729,3.66-1.551,5.34-2.596C167.645,189.778,166.931,188.505,166.271,185.589z"/>
		<path id="Melaka" fill="#77C6F9" d="M98.831,153.201c-2.074-0.809-6.354-0.099-8.69,0c-1.589,0.068-3.121,2.342-3.938,3.786
			c0.541,0.262,1.041,0.563,1.447,0.95c1.594,1.527,3.361,2.639,5.296,3.748c3.556,2.042,5.868,3.222,9.94,3.222
			c0.151,0,0.438,0.004,0.77,0.024c-0.419-1.912,0.006-4.791,0.234-6.382c0.244-1.708,1.177-1.926,2.583-3.999
			C104.238,154.541,100.472,153.841,98.831,153.201z"/>
		<path id="Negeri_Sembilan" fill="#67AFE5" d="M109.208,145.062c0.683-1.062,1.009-3.67,1.164-5.659
			c-0.697-0.472-1.399-0.909-2.072-1.282c-2.821-1.557-7.394-6.127-9.047-7.197c-1.654-1.071-2.725-1.365-4.767-1.654
			c-2.043-0.294-3.989-0.975-5.352-0.681c-1.362,0.289-1.653,0-1.945-0.78c-0.292-0.777-1.07-1.652-1.598-2.334
			c-0.48-0.619-1.102-0.113-2.599-0.016c-0.123,0.622-0.159,1.361,0.142,1.963c0.648,1.297,1.687,4.41,1.687,4.41
			s-2.075,5.316-2.854,6.872c-0.778,1.559-2.464,0.908-3.762,0.778c-1.296-0.131-1.037,4.022-1.167,5.189
			c-0.094,0.85-0.601,3.14-0.869,4.325c0.072,0.023,0.143,0.052,0.216,0.074c1.092,0.342,2.207,0.704,3.22,1.242
			c1.213,0.643,0.761,1.89,1.15,3.071c0.73,2.213,3.398,2.614,5.445,3.604c0.817-1.444,2.349-3.718,3.938-3.786
			c2.335-0.099,6.616-0.809,8.69,0c1.642,0.64,5.408,1.34,7.644,1.35c0.089-0.13,0.177-0.265,0.269-0.411
			C108.3,151.676,108.041,146.876,109.208,145.062z"/>
		<path id="Selangor" fill="#487ECC" d="M78.207,139.482c1.298,0.13,2.983,0.78,3.762-0.778c0.779-1.556,2.854-6.872,2.854-6.872
			s-1.038-3.113-1.687-4.41c-0.301-0.602-0.265-1.342-0.142-1.963c-0.15,0.009-0.305,0.016-0.474,0.016
			c-1.848,0-3.696-2.431-4.573-3.21c-0.875-0.777,0.39-1.07,0.973-1.945c0.584-0.875-1.069-0.974-1.361-2.627
			c-0.292-1.653,0.584-2.724,1.653-3.404c1.07-0.681-0.194-3.114-2.82-5.059c-2.625-1.945-3.923-2.396-3.924-2.397
			c0.021,0.188,0.033,0.295,0.033,0.295s-2.595,3.301-3.632,3.561c-1.038,0.259-3.632-3.503-5.318-4.54
			c-1.686-1.038-1.686,1.037-1.167,2.594c0.518,1.556-0.779,1.816-3.113,0.778c-2.335-1.038-10.507-4.54-11.415-5.059
			c-0.773-0.441-5.116-0.79-6.391-0.883c0.118,0.179,0.242,0.364,0.379,0.567c1.187,1.742,3.852,2.953,5.449,4.397
			c1.276,1.156,2.648,2.2,3.871,3.415c1.407,1.397,2.013,3.057,3.075,4.682c1.4,2.142,3.885,3.348,4.944,5.572
			c1.147,2.41,1.628,5.351,3.138,7.564c0.422,0.619,0.842,1.063,1.067,1.794c0.176,0.574,0.819,0.566,0.938,0.95
			c0.215,0.693-1.017,1.096-1.043,1.673c-0.048,1.072-0.122,2.144-0.122,3.214c0,1.238-3.127,1.824-0.925,3.242
			c1.744,1.128,3.263-0.188,3.722,2.213c0.588,3.083,3.044,3.365,5.609,4.359c1.527,0.592,3.044,1.266,4.604,1.775
			c0.269-1.186,0.775-3.476,0.869-4.325C77.17,143.504,76.911,139.351,78.207,139.482z"/>
		<path id="Pahang" fill="#77C6F9" d="M79.212,114.288c-1.069,0.681-1.945,1.751-1.653,3.404c0.292,1.653,1.946,1.752,1.361,2.627
			c-0.583,0.875-1.848,1.168-0.973,1.945c0.876,0.779,2.725,3.21,4.573,3.21c1.849,0,2.544-0.68,3.072,0
			c0.527,0.682,1.306,1.557,1.598,2.334c0.292,0.78,0.583,1.069,1.945,0.78c1.363-0.294,3.308,0.387,5.352,0.681
			c2.042,0.289,3.112,0.583,4.767,1.654c1.653,1.07,6.226,5.641,9.047,7.197c2.823,1.558,6.13,4.28,7.588,5.837
			c1.461,1.558,7.881,7.88,10.8,7.394c2.918-0.485,3.89-2.724,6.322-2.141c2.433,0.584,6.907,4.086,8.755,3.989
			c1.851-0.097,1.364-0.972,1.267-1.848c-0.1-0.876-1.167-0.68-0.487-1.557c0.68-0.874,0-1.167-0.293-1.652
			c-0.291-0.487-0.031-1.752,0.91-1.655c0.409,0.042,0.642-0.359,0.771-0.825c-2.034-1.163-3.938-2.317-5.518-4.312
			c-2.291-2.894-1.447-6.369-1.624-9.746c-0.141-2.723-0.37-5.435-0.456-8.156c-0.035-1.052-0.076-2.128,0.045-3.176
			c0.147-1.253,2.436-2.807,1.235-4.006c-2.239-2.238-7.789-8.86-2.76-10.872c1.397-0.558-0.053-1.945-0.163-2.985
			c-0.17-1.621,1.999-2.032,1.265-3.713c-0.696-1.59-0.671-2.945,0.153-4.452c0.318-0.583,0.494-1.245,0.6-1.941
			c-6.167,0.421-3.863,4.43-3.116,5.801c0.779,1.428-1.295,3.244-1.686,4.412c-0.39,1.167-2.464-2.206-3.892-2.725
			c-1.427-0.518-2.205-3.631-3.89-4.021c-1.687-0.389-4.542,0.13-5.709,0c-1.167-0.129-0.387-4.41-0.127-5.577
			c0.257-1.167,1.167-2.205,3.372-2.595c2.205-0.388,0.647-1.945,0-3.762c-0.65-1.815-1.298-1.945-3.115-1.296
			c-1.814,0.648-2.075-1.039-2.982-2.335c-0.907-1.297,0.518-1.039,0.778-3.243c0.26-2.205-1.944-1.815-4.15-2.076
			c-2.153-0.254-1.958-1.25-2.31-2.98c-0.678,0.093-1.572,0.14-2.166-0.126c-1.071-0.48-0.292,2.328-1.458,2.133
			c-1.168-0.194-1.558,0.973-2.335,1.741c-0.779,0.767-1.946-1.741-3.406-1.838s-1.459,1.459-2.043,2.432
			c-0.583,0.973-1.36,0.39-2.334-0.593c-0.972-0.984-1.653,0.983-3.109,0.983c-1.455,0-2.729-3.892-2.729-3.892l-6.226-0.389
			c0,0-0.389,3.502-0.973,4.573c-0.584,1.069-0.973,0.681-0.875,0c0.097-0.682-0.486-1.751-1.265-1.946
			c-0.778-0.193-1.167-1.264-1.556-2.237c-0.39-0.973-1.557-0.966-1.557-0.966s-0.195,5.051-1.071,5.218
			c-0.875,0.167-1.751,1.584-3.21,2.266c-1.46,0.681-2.724-0.099-3.891-0.726c-1.168-0.627-0.876-0.441-2.724-0.054
			c-1.849,0.39-4.683-1.487-4.683-1.487l0,0c0.098,0.984,0.24,2.028,0.24,2.817c0,1.686,3.631,9.729,5.188,11.544
			c1.556,1.814,3.372,3.891,3.632,5.707c0.23,1.613,0.972,8.287,1.134,9.764c0.001,0.001,1.299,0.452,3.924,2.397
			C79.018,111.174,80.282,113.606,79.212,114.288z"/>
		<path id="Terengganu" fill="#91E8FF" d="M99.869,42.588c0.13,2.983,1.947,5.188,1.557,6.485c-0.389,1.297-1.557,6.616-0.519,7.523
			c1.039,0.909,3.113,2.725,3.113,4.411c0,1.686,1.816,5.447,2.983,5.837c1.168,0.39,2.465,3.125,2.855,4.936
			c0.387,1.809,0.129,2.846,2.334,3.106c2.206,0.261,4.41-0.129,4.15,2.076c-0.26,2.204-1.685,1.946-0.778,3.243
			c0.907,1.296,1.167,2.983,2.982,2.335c1.817-0.649,2.465-0.519,3.115,1.296c0.647,1.817,2.205,3.374,0,3.762
			c-2.206,0.39-3.115,1.428-3.372,2.595c-0.26,1.167-1.04,5.448,0.127,5.577c1.168,0.13,4.022-0.389,5.709,0
			c1.685,0.39,2.462,3.503,3.89,4.021c1.428,0.519,3.502,3.892,3.892,2.725c0.391-1.168,2.465-2.983,1.686-4.412
			c-0.747-1.372-3.051-5.38,3.116-5.801c0.224-1.436,0.159-3.015,0.483-4.34c0.531-2.183-1.281-5.212-0.097-7.109
			c1.15-1.84-0.392-3.964-0.41-6.13c-0.012-1.537,0.167-4.877-0.885-6.063c-0.793-0.89-1.356-2.073-1.952-3.095
			c-3.825-6.555-6.418-14.441-12.303-19.46c-2.095-1.787-4.954-2.894-7.267-4.404c-1.609-1.05-3.281-2.125-4.672-3.461
			c-1.706-1.641-2.851-3.53-4.745-4.93l-4.214,3.183C100.649,36.492,99.74,39.604,99.869,42.588z"/>
		<path id="Kelantan" fill="#487ECC" d="M66.955,78.486c1.848-0.388,1.556-0.574,2.724,0.054c1.167,0.627,2.431,1.406,3.891,0.726
			c1.458-0.682,2.335-2.1,3.21-2.266c0.875-0.167,1.071-5.218,1.071-5.218s1.167-0.007,1.557,0.966
			c0.388,0.973,0.778,2.044,1.556,2.237c0.779,0.195,1.362,1.265,1.265,1.946c-0.097,0.681,0.292,1.069,0.875,0
			c0.584-1.071,0.973-4.573,0.973-4.573l6.226,0.389c0,0,1.273,3.892,2.729,3.892c1.456,0,2.137-1.967,3.109-0.983
			c0.974,0.983,1.75,1.566,2.334,0.593c0.584-0.972,0.584-2.529,2.043-2.432s2.626,2.605,3.406,1.838
			c0.778-0.769,1.167-1.936,2.335-1.741c1.167,0.195,0.387-2.613,1.458-2.133c0.594,0.266,1.487,0.219,2.166,0.126
			c-0.009-0.042-0.017-0.083-0.024-0.126c-0.39-1.81-1.687-4.546-2.855-4.936c-1.167-0.39-2.983-4.151-2.983-5.837
			c0-1.687-2.074-3.502-3.113-4.411c-1.038-0.908,0.13-6.227,0.519-7.523c0.39-1.297-1.427-3.502-1.557-6.485
			c-0.128-2.984,0.78-6.096,0.78-6.096l4.214-3.183c-0.161-0.119-0.324-0.236-0.497-0.346c-1.495-0.965-2.346-3.095-3.296-4.577
			c-0.496-0.774-1.003-1.564-1.357-2.416c-0.429-1.029-0.121-2.167-0.652-3.181c-1.396-2.658-7.418-2.636-9.957-3.679
			c-0.545,1.821-0.308,4.789-2.075,5.967c-1.293,0.862-1.923,2.289-2.961,3.405c-1.122,1.205-0.144,4.503-1.19,5.026
			c-0.984,0.493-1.346,0.912-1.646,1.44c1.516,1.968,3.635,4.688,4.142,5.176c0.809,0.777-0.94,2.983-0.162,4.669
			s-1.428,5.059-3.243,5.795c-1.816,0.737-4.54-1.386-4.28-0.606c0.259,0.777-1.815,1.685-5.188,1.296
			c-3.374-0.389-5.189,9.599-5.708,11.026c-0.519,1.426-0.908,2.205-0.778,3.891c0.129,1.686-1.946,4.67-2.335,5.707
			c-0.39,1.037-0.779,1.557-1.297,2.465c-0.276,0.481-0.221,1.515-0.11,2.63l0,0C62.272,76.999,65.106,78.876,66.955,78.486z"/>
		<path id="Perak" fill="#67AFE5" d="M59.27,109.52c2.334,1.038,3.631,0.778,3.113-0.778c-0.519-1.557-0.519-3.632,1.167-2.594
			c1.686,1.037,4.28,4.799,5.318,4.54c1.038-0.26,3.632-3.561,3.632-3.561s-0.908-8.243-1.167-10.06
			c-0.26-1.815-2.076-3.892-3.632-5.707c-1.557-1.816-5.188-9.859-5.188-11.544c0-1.688-0.648-4.54-0.13-5.447
			c0.518-0.909,0.907-1.428,1.297-2.465c0.389-1.037,2.464-4.021,2.335-5.707c-0.13-1.686,0.259-2.465,0.778-3.891
			c0.519-1.428,2.334-11.415,5.708-11.026c3.373,0.389,5.447-0.519,5.188-1.296c-0.259-0.779,2.464,1.343,4.28,0.606
			c1.815-0.737,4.021-4.109,3.243-5.795s0.97-3.892,0.162-4.669c-0.507-0.488-2.626-3.208-4.142-5.176
			c-0.243,0.427-0.443,0.926-0.9,1.593c-0.657,0.96-2.295-1.621-3.609-0.945c-1.322,0.68-1.242,1.039-2.033-0.275
			c-0.783-1.304-0.795-3.064-1.695-4.217c-1.803-2.316-3.949,0.948-5.554,1.108c-1.192,0.12-1.888-0.627-2.898-0.012
			c-1.41,0.857-1.421,2.139-3.236,2.313c-2.503,0.24-2.192,3.233-3.36,4.991c-2.186,3.289-3.215,0.56-4.762-1.751
			c-0.557-0.832-1.345-1.418-1.726-2.282c-0.874,0.846-1.845,2.003-2.567,3.357c-1.037,1.945-1.037,5.447-2.075,6.745
			c-1.038,1.297-1.945,3.114-1.945,5.018s-1.168,1.598-3.373,2.116c-2.205,0.52-2.206,1.687-3.244,2.595
			c-1.038,0.909-2.205,4.28-3.762,4.929c-1.557,0.648-0.908-1.297-1.686-2.335c-0.44-0.587-1.378-0.966-2.111-1.185
			c0.079,0.336,0.16,0.67,0.245,0.998c0.345,1.316-3.897,0.798-2.619,3.665c0.705,1.581,0.985,3.48,2.046,4.883
			c0.953,1.261,3.579,1.172,4.836,2.446c1.817,1.838-1.043,7.109,2.531,6.705c-0.863,0.792-1.149,1.999-0.779,3.113
			c0.656,1.967-1.022,3.572-1.167,5.447c-0.258,3.361-1.145,6.867,2.164,9.187c1.864,1.308,4.95,2.312,3.549,4.897
			c-1.441,2.662-1.478,3.334-0.039,5.528c1.275,0.093,5.618,0.441,6.391,0.883C48.763,104.98,56.935,108.482,59.27,109.52z"/>
		<g id="Pinang">
			<path fill="#4D80D2" d="M20.674,47.187c0,0.007,1.603,0.642,1.783,0.617c0.708-0.093,1.106-1.056,2.054-0.905
				c0.919,0.147,1.663,1.768,1.901,2.653c0.27,1.002-0.316,1.218-0.624,2.026c-0.479,1.261,0.188,2.273-1.159,2.7
				c-0.325,0.103-3.113-0.272-3.102-0.308c0-0.001,0.351-1.167,0.351-1.167s-0.864-4.12-0.877-4.182
				C20.895,48.117,20.67,47.694,20.674,47.187z"/>
			<path fill="#4D80D2" d="M33.586,55.721c-0.194-1.556,0.487-9.046,0-11.09c-0.485-2.043-1.556-1.265-3.891-1.362
				c-0.563-0.024-1.04-0.07-1.441-0.126c0.166,0.652-0.268,1.982-0.375,2.559c-0.13,0.69-0.549,1.599-0.453,2.287
				c0.19,1.36,1.424,2.381,1.909,3.632c0.624,1.608,0.961,3.383,1.361,5.089c0.732,0.219,1.67,0.598,2.111,1.185
				c0.082,0.11,0.146,0.233,0.201,0.359C33.328,57.628,33.704,56.658,33.586,55.721z"/>
		</g>
		<path id="Kedah" fill="#77C6F9" d="M53.775,23.665c-2.052-1.271,2.385-3.98-0.063-4.915c-1.154-0.439-3.981-0.779-5.186-0.492
			c-0.951,0.227-2.588,1.347-3.144,0.028c-1.071-2.539,0.118-5.398-2.822-6.516c-2.004-0.763-2.272,0.19-4.212,0.444
			c-1.584,0.208-2.412-1.027-3.612-1.724c-2.11-1.229-4.125-0.922-6.081-1.874c0.185,2.202-1.958,5.085-3.37,5.955
			c-1.175,0.723-2.95,3.145-3.919,4.547c0.07,0.095,0.14,0.19,0.215,0.282c1.028,1.263,2.6,1.815,3.574,3.212
			c0.905,1.299,1.725,3.009,2.112,4.54c0.704,2.785-0.057,6.414-0.2,9.245c-0.149,2.976-0.353,4.026,1.123,6.574
			c0.028,0.049,0.048,0.109,0.064,0.172c0.401,0.057,0.878,0.103,1.441,0.126c2.335,0.097,3.405-0.681,3.891,1.362
			c0.487,2.043-0.194,9.534,0,11.09c0.118,0.937-0.258,1.907-0.577,2.532c0.462,1.065,0.095,2.555,1.485,1.976
			c1.557-0.649,2.724-4.021,3.762-4.929c1.038-0.908,1.039-2.075,3.244-2.595c2.205-0.518,3.373-0.212,3.373-2.116
			s0.907-3.72,1.945-5.018c1.038-1.297,1.038-4.799,2.075-6.745c0.722-1.354,1.693-2.511,2.567-3.357
			c-0.114-0.261-0.193-0.546-0.215-0.873c-0.038-0.544-0.099-2.929,0.545-3.072c2.712-0.603,2.358-1.203,3.09-3.905
			C55.57,25.069,56.022,25.056,53.775,23.665z"/>
		<g id="Perlis">
			<path fill="#91E8FF" d="M25.285,14.571c1.413-0.87,3.555-3.753,3.37-5.955c-0.358-0.174-0.713-0.384-1.067-0.661
				c-1.185-0.92-0.156-3.03-1.424-4.088c-1.492-1.244-1.946,0.071-3.453-1.545c-1.431-1.536-1.535,2.887-1.624,3.63
				c-0.11,0.919-0.102,1.821-0.39,2.715c-0.32,0.992-1.509,1.628-1.509,2.662c0,2.749,0.467,5.516,2.178,7.79
				C22.335,17.715,24.11,15.294,25.285,14.571z"/>
			<path fill="#91E8FF" d="M2.104,12.685c-0.434,0.668,0.6,1.597,1.129,2.534c0,0,1.557-0.129,1.687,0.908
				c0.138,1.099-0.421,3.06,0.005,4.005c0.699,1.552,1.444-0.106,2.289-0.888c0.887-0.823,1.347-0.9,2.535-1.065
				c0.718-0.1,2.516,0.156,2.889-0.699c0.162-0.372-0.585-3.016-0.752-3.551c-0.341-1.09-2.538-3.579-3.854-3.25
				c-1.554,0.39-0.371,0.779-1.288,1.297c-1.223,0.693-2.918-0.21-4.063,0.283C2.39,12.385,2.206,12.527,2.104,12.685z"/>
			<path fill="#91E8FF" d="M7.233,21.583C7.6,20.655,8.094,19.5,8.967,18.938c1.015-0.653,1.784-0.011,1.669,1.154
				c-0.111,1.108-0.757,1.43-1.137,2.565c-0.301,0.908-1.379,1.021-2.169,0.779C6.81,23.276,6.882,22.473,7.233,21.583z"/>
		</g>
	</g>
</g>
<g id="main-map">
	<g id="east-malaysia">
		<path fill="#77C6F9" d="M340.142,190.827c-0.014,0.494,0.08,3.263-0.468,3.405c-0.704,0.183-2.697,0.335-2.896,1.101
			c-0.608,2.353-0.355,4.511,2.183,5.374c0.437,0.149,2.157,0.078,2.421,0.678c0.533,1.205-1.368,2.085-1.146,3.354
			c0.38,2.172-0.174,1.86,1.31,3.404c1.123,1.169,2.245,2.336,3.367,3.503c0.975,1.014,1.515,2.117,3.014,2.479
			c2.497,0.598,2.973,0.341,2.973,3.437c0,1.877,2.237,1.022,2.785,2.375c0.833,2.058,1.079,2.099,3.485,2.468
			c1.642,0.25,2.992,1.701,3.737,3.251c0.58,1.207,0.176,1.979,0.484,3.08c0.259,0.92,2.803,0.514,3.521,0.837
			c1.393,0.625,1.614,2.152,2.507,3.105c1.125,1.203,3.823,1.466,5.353,1.258c3.083-0.423,9.042-1.425,10.15-4.681
			c0.528-1.55,1.083-1.064,2.682-1.213c2.305-0.216,4.306-1.307,6.516-1.629c2.134-0.311,4.673,0.91,6.567,1.753
			c1.187,0.528,1.957,0.526,3.208,0.317c1.317-0.22,1.352,1.486,2.411,1.745c1.977,0.479,3.993-2.699,6.149-1.77
			c1.867,0.804,3.688,1.516,5.21-0.376c1.189-1.478,1.982-3.067,3.991-3.277c1.629-0.168,3.256-0.355,4.883-0.539
			c1.468-0.166,1.266-2.532,1.758-3.73c0.501-1.219,2.415-3.398,2.047-4.804c-0.221-0.842-1.125-0.939-1.46-1.628
			c-0.27-0.555,2.969-1.526,3.237-1.718c1.693-1.21,3.722-1.564,5.443-2.823c1.405-1.025,4.021-0.566,5.624-0.455
			c0.981,0.069,8.364,1.75,9.041,0.106c0.535-1.299,6.728-0.545,6.497,1.153c-0.255,1.882-1.618,1.92-2.707,3.13
			c-1.767,1.964,3.544,0.725,4.355,0.836c1.572,0.214,3.015,0.918,4.733,1.109c2.538,0.283,3.474,1.479,5.114,3.231
			c1.326,1.414,1.688-0.055,2.986-0.26c2.587-0.408,3.092,1.345,4.51,2.786c0.423,0.43,4.316-1.895,5.086-2.126
			c1.892-0.566,1.858-2.842,3.746-3.691c3.178-1.43,4.317-2.306,7.946-2.285c1.112,0.006,1.677,1.611,2.908,1.077
			c2.011-0.871,3.942-2.006,6.024-2.688c1.494-0.489,5.927,2.961,6.207,2.532c1.564-2.392,1.195-4.527,3.459-6.24
			c2.049-1.549,1.743-6.309,2.058-8.695c0.066-0.506,2.737-0.64,3.384-1.18c2.188-1.833-0.142-2.512,1.462-4.353
			c1.001-1.148-2.089-1.285-2.346-2.021c-0.417-1.2-0.566-3.118-0.722-4.391c-0.419-3.438,4.228-1.626,5.933-3.646
			c1.146-1.359-0.263-1.57,1.629-2.651c2.03-1.162,3.476-3.538,6.022-3.538c4.335,0,0.787-4.669-1.718-4.669
			c-1.03,0-1.633-0.354-0.808-1.556c0.541-0.789-0.225-1.892,0.152-2.321c0.656-0.747,1.14-1.389,1.182-2.465
			c0.042-1.063-1.24-1.348-1.24-1.782c0-0.431,1.394-2.984,1.857-3.197c1.793-0.821,3.894-2.253,4.223-4.438
			c1.253,0.499,1.186,1.606,2.479,1.757c1.534,0.177,1.979-0.589,3.414-0.589c2.994,0,2.376-5.979,2.182-7.726
			c-0.128-1.156,0.701-8.346,2.494-7.646c1.908,0.744,2.502-0.36,1.526-2.012c-1.497-2.535-1.535-4.514-1.782-7.425
			c-0.153-1.802,1.22-4.461,0.935-5.873c-0.268-1.323-2.283-0.573-0.491-2.007c2.915-2.332,1.886-6.598,3.963-9.481
			c1.032-1.432,2.895-1.339,4.326-2.095c1.67-0.883,0.956-2.175,1.178-3.788c0.228-1.655,2.857-0.258,3.783,0.228
			c2.093,1.099,2.15,3.339,4.428,1.127c1.253-1.217,0.889-2.436,2.993-2.257c1.908,0.163,3.891-0.08,5.772,0.358
			c2.627,0.613,1.112,5.161,4.487,2.535c1.488-1.158,1.126-2.82,3.021-1.899c0.528,0.256,1.291,0.215,1.855,0.252
			c3.072,0.202,6.162,0.189,9.239,0.196c3.635,0.01,9.377-1.121,12.424,0.592c3.043,1.712,4.288,5.318,7.78,5.396
			c2.688,0.059,2.717-1.542,4.617-3.518c-1.642-0.748-0.456-1.789-1.074-2.688c-0.442-0.645-2.218-1.581-0.564-2.661
			c0.979-0.642,7.122,3.062,7.905,4.183c3.146,4.499,8.018,1.798,11.967,0.601c2.912-0.883,5.824-1.255,8.834-1.544
			c1.23-0.115,3.024-0.072,3.964-1.086c0.747-0.809,0.396-2.446,1.705-2.353c1.102,0.079,5.441-0.658,2.844-2.331
			c-2.09-1.348-1.938-2.031-3.45-4.046c-0.71-0.947-3.956-2.087-5.086-2.029c-3.608,0.182-8.066,1.085-8.93-3.994
			c-0.328-1.932-2.268-2.403-1.159-4.214c1.433-2.343,3.794-1.994,6.147-2.462c0.363-0.073,3.207-1.694,2.988-1.747
			c1.564,0.376,1.297,4.78,3.826,2.364c1.163-1.111,2.466-0.05,3.91,0.165c2.744,0.408,5.421-1.525,7.921-2.438
			c3.775-1.377,10.91-1.586,12.5-6.31c1.051-3.123-0.416-11.312-4.808-8.057c-2.825,2.092-7.57-1.938-9.93-3.076
			c-2.937-1.419-4.47-3.137-6.985-5.43c-3.301-3.009-6.231-4.518-10.477-5.575c-1.418-0.354-3.342-0.674-4.236,0.857
			c-0.534,0.912-1.843,1.554-1.444,2.796c0.229,0.717-0.053,1.392-0.281,2.043c-0.787-1.108-1.075-2.393-2.424-1.986
			c-2.585,0.776-3.021,1.593-4.479-0.792c-0.931-1.521,4.139-1.732,4.787-2.057c2.793-1.393,0.578-4.008-0.46-5.957
			c-0.534-1.004-0.727-4.635-2.47-2.906c-1.76,1.745-2.46,3.014-4.938,3.513c-3.746,0.753-7.497,1.479-11.248,2.207
			c2.004-1.175,5.549-2.062,6.828-4.086c-0.936-0.551-1.871-1.103-2.806-1.654c1.863-1.586-0.555-3.794-1.429-5.352
			c-0.815-1.454,4.18-1.309,4.341-1.751c1.356-3.719,1.36-6.491-1.936-9.009c-1.497-1.144-3.81-2.333-4.905-3.928
			c-0.327-0.477-1.038,1.001-1.131,1.095c-1.042,1.035-1.787-0.221-2.371-0.946c-1.194-1.487-4.089,0.569-4.498-2.358
			c-0.165-1.179-0.107-2.421-0.604-3.529c-0.992-2.21-0.799-2.006-0.063-4.303c0.622-1.942-2.4-4.218-4.123-4.018
			c-0.896,0.104-6.066,2.209-3.017,3.651c1.187,0.562-1.108,4.532-1.63,5.707c-0.841,1.896-5.104,2.868-5.104,4.897
			c0,1.083-4.233,1.945-2.832-0.463c1.083-1.862,2.452-4.038,3.078-6.138c0.332-1.116-0.006-1.638-0.749-2.361
			c-1.278-1.244,1.403-1.713,0.689-3.199c-0.689-1.435-2.416-2.648-3.554-3.697c-0.578,0.872-1.153,1.959-1.31,3.016
			c-0.312,2.111-1.507,2.154-2.342,3.981c-0.644,1.41,0.693,3.581-0.392,5.063c-0.723,0.988-1.5,1.808-2.163,2.865
			c-1.377,2.198-3.028,6.124-5.392,7.354c-1.301,0.676-2.755,1.163-2.706,2.857c0.027,0.945-2.128,1.891-2.778,2.573
			c-1.26,1.322-2.376,2.786-3.512,4.222c-1.49,1.885-0.603,1.334-0.565,3.046c0.035,1.592-1.082,3.625-2.13,4.716
			c-1.46,1.518,0.573,3.118-1.643,4.479c-3.827,2.352-3.016,4.256-4.95,7.751c-1.682,3.037-8.429,2.701-8.841-1.238
			c-2.416,2.582-4.784,5.259-7.352,7.681c-4.946,4.665,2.57,5.965,5.298,6.603c3.962,0.927-5.733,10.708-6.229,11.379
			c-0.491,0.664-3.022-0.295-3.715-0.774c-2.004-1.39-1.92-0.913-3.715,0.699c0.775,0.857,2.772,2.318,2.938,3.482
			c0.252,1.767,1.886,4.426,1.551,6.051c-0.436,2.115-0.273,4.47-0.28,6.621c-0.003,0.901,2.688,2.674,3.367,3.302
			c-1.92,3.414-3.198-1.081-4.863-0.389c-1.014,0.42-2.468-0.552-3.711-0.202c-0.684,0.193-0.575-4.399-0.656-4.936
			c-0.453-2.982-2.238-5.186-2.274-8.481c-0.012-1.091,0.846-4.226,0.008-5.315c0.774,1.007-3.827,2.837-4.585,2.867
			c-0.756,0.031-1.11,1.457-1.603,2.026c-1.142,1.322-2.404,0.527-1.985,2.579c0.509,2.484-0.255,7.085,1.221,9.16
			c0.723,1.016,2.076-0.024,1.669,1.757c-0.371,1.628-0.616,3.614-1.552,5.021c-1.813,2.724-1.477,4.572-4.332,6.659
			c-2.205,1.611-2.929,1.195-4.907-0.912c-0.611-0.65-1.174-1.705-1.774-2.475c-0.831-1.066-1.213-2.626-1.648-3.896
			c-0.366-1.07-4.027-0.6-5.109-0.642c2.286-1.963,0.563-4.12-0.509-6.302c-1.188-2.416-2.646-1.599-4.095-3.606
			c-4.369-6.058-7.564,8.715-8.913,11.259c-3.081,5.816-8.565,10.657-13.301,14.938c-4.258,3.849-7.021,9.664-10.547,14.23
			c-0.712,0.922-1.138,1.948-1.77,2.905c-1.064,1.608-2.927,0.386-4.114,1.204c-1.022,0.706,0.785,2.003,0.571,2.777
			c-0.345,1.25-3.272,2.729-4.29,3.285c-7.25,3.963-16.581,5.411-24.533,7.267c-3.736,0.872-7.445,1.418-11.264,1.719
			c-2.554,0.2-6.895,0.148-8.897,1.885c-2.148,1.863-5.711,3.112-6.481,5.984c-1.313,4.896,2.123,3.091,3.676,6.469
			c-0.727-0.037-3.86-0.599-4.001,0.119c-0.565,2.871,2.413,3.214,4.469,3.675c-1.187,1.586-1.791,0.374-3.203,0.029
			c-2.229-0.549-3.882,2.434-5.309-0.905c-2.937-6.873-4.471,8.588-1.508,6.148c-0.761,0.627-1.743,0.121-2.479,0.945
			c-1.47,1.646,1.704,1.348,2.233,1.304c0.769-0.067,2.34,0.974,2.877-0.031c1.001-1.875,1.729-0.948,3.18-0.194
			c-1.281,0.241-2.43,0.903-2.338,2.432c-1.347-0.492-3.852-2.243-4.677-0.098c-0.818,2.128-1.17,4.491-1.861,6.671
			c-0.878,2.767-2.874,4.098-1.149,6.928c1.573,2.582,3.47,2.121,6.004,2.843c-1.169,1.159-2.047,0.097-3.461,0.097
			c-1.439,0-2.169-2.056-3.056-1.901c-1.804,0.313-5.22,0.662-3.948,3.736c1.009,2.439,4.196,7.224,7.046,5.896
			c1.977-0.92,2.431,0.171,3.886,1.316c0.626,0.018,1.188,0.244,1.684,0.681c0.355,0.37,0.708,1.843,1.145,2.037
			c-1.311-0.584-4.609-4.217-5.82-3.495c-2.904,1.725-5.377-0.267-8.07-2.223c-0.726-0.526-7.366-5.828-7.737-3.129
			c-0.396,2.894-1.699,3.351-3.928,5.059c0.271-2.43,2.614-2.315,3.083-4.508c0.469-2.191-7.353-1.347-7.947-2.788
			c-0.664-1.614-2.517-0.869-0.439-2.442c2.55-1.933-0.135-2.418-1.648-2.05c-0.737,0.179-0.666,3.023-2.271,1.28
			c-0.427-0.464-1.151-3.085-1.617-3.284c-0.059-0.024-1.136,4.317-1.412,4.938c-0.331-3.835-9.61-1.871-12.438-1.848
			c-1.551,0.012-1.639-1.451-2.329-2.408c-1.03-1.43-3.748-1.42-5.145-2.43C339.383,197.468,340.085,193.932,340.142,190.827z"/>
		<path fill="#77C6F9" d="M592.708,9.912c0,0-0.873-4.41,0-4.929C593.581,4.464,597.197,2,597.197,2s3.118,0.259,3.118,1.815
			s-0.873,1.427,0,2.725c0.394,0.585-0.149,2.95-0.995,2.878c-1.087-0.092,0.796-2.216-0.918-1.553
			c-1.073,0.416-2.471,1.099-3.2,2.047c-0.998,1.297-1.372,2.076-1.372,2.076L592.708,9.912z"/>
		<path fill="#77C6F9" d="M585.896,8.616c-0.059-0.442,0.368-1.644,0.608-2.086c0.429-0.789,2.257-0.923,2.806-1.659
			c0.553-0.742,0.179-3.083,1.496-1.362c0.597,0.779,0,1.021,0.141,1.8c0.105,0.583,1.373,1.686-0.104,1.728
			c-0.515,0.014-1.145-1.188-1-1.196c-0.628,0.029-1.221,0.72-1.056,1.436c0.028,0.122,1.495,0.193,0.951,0.86
			c-0.181,0.222-1.738-0.129-2.128-0.068C587.423,8.097,585.908,8.709,585.896,8.616z"/>
		<path fill="#77C6F9" d="M604.618,24.57c0,0-1.622-0.064-1.186,0.843c0.437,0.908,1.435,1.038,1.186,1.492
			c-0.25,0.454-2.183,0.259-2.682,0.713c-0.499,0.454-0.063,1.816,1.746,1.622c1.808-0.195,4.987,0,4.364-2.011
			S605.747,24.3,604.618,24.57z"/>
	</g>
	<g id="west-malaysia">
		<path fill="#77C6F9" d="M18.525,34.946c0,2.863,0.483,5.748,2.301,8.073c0.988,1.264,2.499,1.815,3.436,3.212
			c0.87,1.299,1.658,3.009,2.03,4.539c0.678,2.787-0.054,6.415-0.191,9.246c-0.145,2.978-0.34,4.027,1.078,6.574
			c0.308,0.554-0.184,2.098-0.298,2.731c-0.125,0.688-0.527,1.597-0.435,2.285c0.183,1.359,1.37,2.382,1.836,3.632
			c0.719,1.927,1.04,4.088,1.545,6.087c0.332,1.316-3.746,0.797-2.517,3.665c0.677,1.58,0.947,3.479,1.966,4.883
			c0.916,1.262,3.441,1.173,4.65,2.446c1.746,1.839-1.003,7.108,2.433,6.705c-0.829,0.792-1.105,1.999-0.748,3.113
			c0.63,1.966-0.984,3.571-1.123,5.447c-0.249,3.361-1.102,6.867,2.079,9.188c1.793,1.307,4.759,2.311,3.412,4.897
			c-1.499,2.879-1.421,3.427,0.327,6.094c1.142,1.742,3.703,2.951,5.239,4.397c1.228,1.154,2.546,2.199,3.722,3.414
			c1.353,1.398,1.935,3.058,2.957,4.683c1.346,2.142,3.735,3.349,4.754,5.571c1.104,2.411,1.565,5.353,3.018,7.566
			c0.405,0.618,0.809,1.063,1.025,1.794c0.17,0.573,0.789,0.566,0.902,0.948c0.207,0.693-0.978,1.098-1.002,1.677
			c-0.046,1.068-0.118,2.141-0.118,3.211c0,1.237-3.006,1.822-0.889,3.244c1.676,1.124,3.138-0.192,3.578,2.211
			c0.565,3.084,2.926,3.366,5.393,4.359c1.537,0.62,3.061,1.335,4.633,1.849c1.049,0.343,2.122,0.705,3.097,1.241
			c1.166,0.644,0.731,1.892,1.105,3.074c0.888,2.797,4.761,2.695,6.627,4.552c1.533,1.526,3.232,2.64,5.092,3.749
			c3.419,2.041,5.642,3.222,9.556,3.222c0.562,0,2.997,0.04,2.587,1.037c-0.523,1.271-0.237,2.938,0.634,3.895
			c1.125,1.235,2.25,2.472,3.376,3.707c1.606,1.764,1.167,0.654,3.382,1.049c1.435,0.256,2.883,1.656,4.045,2.472
			c1.967,1.378,3.924,2.773,5.912,4.121c1.479,1.002,2.935,1.822,4.587,2.483c1.62,0.648,4.978,1.415,5.749,3.285
			c0.824,2.001,1.365,4.175,1.863,6.282c0.459,1.945-0.116,3.002,1.906,2.921c1.423-0.057,3.491-0.107,4.58-1.221
			c0.772-0.791,0.715-2.29,1.372-3.247c0.841-1.225,2.096-1.867,3.543-1.783c2.537,0.146,6.204,1.713,8.683,0.581
			c2.577-1.174,2.377,1.441,2.246,3.602c1.764-0.729,3.521-1.552,5.136-2.594c2.66-1.718,1.974-2.991,1.339-5.909
			c-1.061-4.882-3.798-9.485-6.029-13.868c-1.262-2.478-2.542-4.97-4.03-7.311c-1.098-1.727,0.65-4.187-1.078-5.721
			c-1.634-1.449-4.665-3.968-4.488-6.45c0.093-1.296,0.745-1.574-0.173-2.417c-1.202-1.105-2.454-2.206-3.837-3.062
			c-2.638-1.629-5.159-2.799-7.147-5.412c-2.201-2.893-1.391-6.366-1.56-9.747c-0.136-2.718-0.356-5.432-0.439-8.154
			c-0.032-1.052-0.074-2.127,0.044-3.175c0.142-1.254,2.342-2.807,1.187-4.008c-2.151-2.237-7.488-8.858-2.654-10.871
			c1.342-0.559-0.05-1.944-0.156-2.984c-0.164-1.621,1.922-2.031,1.215-3.711c-0.669-1.591-0.645-2.946,0.147-4.453
			c0.938-1.786,0.578-4.314,1.04-6.281c0.511-2.183-1.232-5.213-0.092-7.11c1.105-1.84-0.378-3.964-0.394-6.131
			c-0.011-1.536,0.16-4.877-0.854-6.063c-0.761-0.891-1.303-2.073-1.875-3.095c-3.677-6.555-6.171-14.44-11.829-19.46
			c-2.014-1.787-4.761-2.894-6.986-4.404c-1.547-1.051-3.154-2.125-4.491-3.462c-1.779-1.779-2.92-3.852-5.039-5.275
			c-1.438-0.965-2.256-3.095-3.17-4.578c-0.477-0.773-0.964-1.563-1.305-2.415c-0.412-1.028-0.116-2.167-0.627-3.182
			c-1.342-2.657-7.131-2.636-9.573-3.679c-0.524,1.822-0.296,4.788-1.995,5.967c-1.243,0.862-1.849,2.289-2.847,3.406
			c-1.078,1.204-0.138,4.502-1.144,5.025c-1.714,0.892-1.469,1.545-2.447,3.032c-0.632,0.961-2.207-1.62-3.47-0.944
			c-1.271,0.68-1.194,1.038-1.954-0.274c-0.753-1.305-0.766-3.065-1.629-4.219c-1.734-2.315-3.798,0.948-5.34,1.108
			c-1.146,0.12-1.815-0.626-2.786-0.012c-1.355,0.858-1.367,2.139-3.112,2.313c-2.406,0.239-2.108,3.231-3.231,4.991
			c-2.101,3.288-3.09,0.56-4.578-1.751c-0.697-1.084-1.773-1.747-1.866-3.157c-0.036-0.542-0.095-2.929,0.525-3.071
			c2.607-0.603,2.267-1.203,2.97-3.905c0.664-2.551,1.1-2.564-1.061-3.955c-1.974-1.271,2.292-3.98-0.062-4.915
			c-1.109-0.44-3.827-0.78-4.984-0.493c-0.915,0.228-2.489,1.347-3.023,0.027c-1.029-2.54,0.113-5.397-2.713-6.516
			c-1.927-0.762-2.185,0.19-4.051,0.444c-1.522,0.208-2.318-1.027-3.473-1.725c-2.4-1.451-4.669-0.751-6.873-2.533
			c-1.138-0.921-0.148-3.032-1.368-4.089c-1.435-1.243-1.871,0.072-3.32-1.545c-1.375-1.535-1.476,2.888-1.561,3.63
			c-0.105,0.919-0.098,1.821-0.375,2.715C19.668,33.276,18.525,33.913,18.525,34.946z"/>
		<path fill="#77C6F9" d="M2.1,36.303c-0.417,0.669,0.577,1.598,1.086,2.535c0,0,1.497-0.13,1.622,0.908
			c0.132,1.099-0.405,3.06,0.004,4.006c0.672,1.552,1.388-0.105,2.2-0.888c0.853-0.823,1.295-0.901,2.438-1.065
			c0.691-0.1,2.419,0.156,2.778-0.699c0.156-0.372-0.563-3.016-0.723-3.55c-0.328-1.09-2.439-3.58-3.706-3.25
			c-1.494,0.389-0.357,0.778-1.237,1.297c-1.176,0.692-2.806-0.21-3.907,0.282C2.375,36.003,2.198,36.146,2.1,36.303z"/>
		<path fill="#77C6F9" d="M7.032,45.201c0.352-0.928,0.828-2.083,1.667-2.646c0.975-0.652,1.715-0.01,1.604,1.155
			c-0.105,1.107-0.728,1.431-1.092,2.565c-0.29,0.908-1.326,1.021-2.086,0.779C6.625,46.895,6.694,46.092,7.032,45.201z"/>
		<path fill="#77C6F9" d="M19.954,70.805c0,0.008,1.541,0.643,1.715,0.618c0.68-0.094,1.063-1.058,1.974-0.906
			c0.884,0.147,1.599,1.769,1.828,2.653c0.259,1.002-0.304,1.218-0.6,2.026c-0.461,1.262,0.18,2.273-1.114,2.699
			c-0.313,0.104-2.992-0.271-2.982-0.307c0-0.002,0.337-1.167,0.337-1.167s-0.831-4.121-0.843-4.182
			C20.167,71.735,19.95,71.312,19.954,70.805z"/>
	</g>
</g>
</svg>
