<?xml version="1.0" encoding="utf-8"?>
<!-- Generator: Adobe Illustrator 16.0.0, SVG Export Plug-In . SVG Version: 6.00 Build 0)  -->
<!DOCTYPE svg PUBLIC "-//W3C//DTD SVG 1.1//EN" "http://www.w3.org/Graphics/SVG/1.1/DTD/svg11.dtd">
<svg version="1.1" id="Layer_1" xmlns="http://www.w3.org/2000/svg" xmlns:xlink="http://www.w3.org/1999/xlink" x="0px" y="0px"
	 width="595.28px" height="841.89px" viewBox="0 0 595.28 841.89" enable-background="new 0 0 595.28 841.89" xml:space="preserve">
<image overflow="visible" width="514" height="314" xlink:href="marina.jpg"  transform="matrix(0.75 0 0 0.75 105 302.8901)">
</image>
<g id="main">
	<g id="A2-2">
		<path fill="#999999" d="M227.208,383.9c0-0.005,0.004-0.01,0.009-0.01h6.272c0.005,0,0.012,0.004,0.016,0.008l0.78,1.108
			c0.003,0.004,0.006,0.013,0.006,0.018v1.938c0,0.006-0.004,0.011-0.01,0.012l-6.855,0.997c-0.005,0.001-0.01-0.003-0.01-0.008
			L227.208,383.9z"/>
		<path fill="none" stroke="#000000" stroke-miterlimit="10" d="M227.208,383.9c0-0.005,0.004-0.01,0.009-0.01h6.272
			c0.005,0,0.012,0.004,0.016,0.008l0.78,1.108c0.003,0.004,0.006,0.013,0.006,0.018v1.938c0,0.006-0.004,0.011-0.01,0.012
			l-6.855,0.997c-0.005,0.001-0.01-0.003-0.01-0.008L227.208,383.9z"/>
	</g>
	<polygon id="A2-1" fill="#999999" stroke="#000000" stroke-miterlimit="10" points="221.958,383.89 214.333,383.89 213.25,384.807 
		213.417,387.724 221.958,387.974 	"/>
	<polygon id="A1-2" fill="#999999" stroke="#000000" stroke-miterlimit="10" points="226.833,374.099 232.917,374.099 
		234.333,374.557 234.542,378.015 226.833,378.015 	"/>
	<polygon id="A1-1" fill="#999999" stroke="#000000" stroke-miterlimit="10" points="222.167,374.099 214,374.099 213,374.974 
		213,378.015 222.167,377.849 	"/>
</g>
</svg>
