<?xml version="1.0" encoding="utf-8"?>
<!-- Generator: Adobe Illustrator 16.0.0, SVG Export Plug-In . SVG Version: 6.00 Build 0)  -->
<!DOCTYPE svg PUBLIC "-//W3C//DTD SVG 1.1//EN" "http://www.w3.org/Graphics/SVG/1.1/DTD/svg11.dtd">
<svg version="1.1" id="main" xmlns="http://www.w3.org/2000/svg" xmlns:xlink="http://www.w3.org/1999/xlink" x="0px" y="0px"
	 width="612px" height="792px" viewBox="0 0 612 792" enable-background="new 0 0 612 792" xml:space="preserve">
<path id="Colima" fill="#3dffa6" stroke="#231F20" stroke-miterlimit="10" d="M271.499,309.511c0.634-1.902,0.952-1.268,1.586-2.22
	c0.634-0.951,1.269-1.585,0.793-2.221c-0.477-0.634,0.317-2.378,0.158-3.33c-0.158-0.952-0.158-3.806-0.158-3.806
	s-1.745-2.062-2.221-3.013s-1.744,1.11-2.538,1.903c-0.792,0.793-1.903,0-3.806-0.793c-1.902-0.792-2.378-0.634-2.537,0.317
	c-0.159,0.952-2.062,2.696-2.062,2.696c-3.965,0.477-7.771,2.379-8.247,2.696c-0.13,0.086-0.534,0.328-1.047,0.63
	c0.026,0.018,0.049,0.033,0.076,0.05c2.018,1.318,5.271,0.988,6.013,1.276c0.741,0.289-0.206,0.988-0.083,1.071
	c0.106,0.071,9.413,4.894,11.826,7.478C270.078,311.604,271.132,310.611,271.499,309.511z"/>
<path id="Yucatán" fill="#3dffa6" stroke="#231F20" stroke-miterlimit="10" d="M537.843,273.155c0,0-0.713,1.903,1.785,2.259
	c2.497,0.357,1.427-2.259,2.854-1.07c1.427,1.189,3.567,3.688,2.854,4.758c-0.713,1.071-0.117,0.476-0.117,0.476
	s0.713,2.022,2.021,1.784c1.309-0.238,2.974,1.784,3.212,3.331c0.237,1.546,1.427,4.044,3.45,6.303
	c0.778,0.871,1.784,1.916,2.729,2.874l1.909-1.684c0,0,1.783,3.449,1.546-0.714c0,0,1.31,0.476,2.022-0.476
	c0.714-0.951-1.427-2.497,0.832-2.735c2.26-0.238,2.498-0.357,2.854-1.428c0.357-1.07,2.735-2.378,2.855-3.806
	c0.118-1.427,2.854-0.713,3.687-2.497c0.833-1.785,5.352-1.309,7.375-2.498c2.021-1.189,11.061-10.586,11.895-14.749l-0.149-10.328
	c-5.188-1.245-11.225-3.197-12.154-3.131c-1.568,0.112-0.783,1.456-2.801,1.568c-2.016,0.112-6.112,0.879-8.065,2.241
	c-3.949,2.752-28.135,2.038-33.273,10.979c-0.065,0.111-0.118,0.218-0.173,0.326v7.622L537.843,273.155z"/>
<path id="Sinaloa" fill="#3dffa6" stroke="#231F20" stroke-miterlimit="10" d="M234.192,230.813c0.713,1.546,3.211-1.784,1.308-2.26
	c-1.903-0.476-1.427-3.211-0.833-4.163c0.595-0.951,0.595-2.616,1.427-4.044c0.833-1.427,1.665-2.259-1.784-2.021
	c-3.449,0.238-2.26-1.546-3.092-3.093c-0.833-1.546-0.119-1.427-1.07-4.044c-0.952-2.617-2.141-3.687-2.141-3.687
	c-2.26,1.785-2.142-2.617-2.855-4.044c-0.713-1.427,0.357-2.021,0.357-2.021c3.092,0.951,1.309-1.071-0.238-3.449
	c-1.546-2.379-1.189-4.52-3.568-6.423c-2.378-1.902-2.735-0.832-4.044,0.714c-1.308,1.546-5.59-0.714-4.757-2.498
	c0.833-1.784-0.714-2.141-2.022-4.758c-1.309-2.616-5.115-4.044-5.115-4.044s-0.713-1.506-1.665-3.251
	c-0.952-1.745-1.427-0.158-2.062-4.124c-0.634-3.964-0.912-8.207-0.912-8.207s1.189,0.238,3.211-1.189
	c2.022-1.427,1.189-1.784,0-2.141c-1.189-0.357-2.498-2.736-4.282-4.401c-1.785-1.665-0.595-3.806-2.379-4.996
	c-1.784-1.189-2.021,0.357-3.211,0.119s-0.238-1.903-2.735-1.308c-2.498,0.594-2.498,0.476-4.876-2.736
	c-2.379-3.211-1.903-3.806-1.903-3.806c1.784-2.617-2.26-2.498-1.308-3.568c0.951-1.07,1.546-2.378,0.119-4.52
	c-1.428-2.141-3.806-0.595-2.974-2.854s-2.617-1.903-4.757-1.784c-0.917,0.051-1.504,0.538-1.879,1.079
	c0.39,0.19,0.944,0.342,1.76,0.468c0,0-3.806,8.207-5.353,8.683c-1.546,0.476-5.946,1.784-2.735,1.903
	c3.211,0.119-2.855,2.379-2.498,2.141c0.22-0.147-3.726,2.424-6.781,4.414c-0.879,1.668-2.622,3.693-2.622,3.693s0,2.594,0.165,3.83
	c0.165,1.235,0.535,1.235,1.936,1.853c1.4,0.618,0.88,2.224,1.564,3.13c0.685,0.906,1.729,1.112,2.06,1.153
	c0.329,0.042-1.854-2.306-1.688-3.13c0.165-0.823,2.031,1.988,3.047,2.471c1.391,0.662-1.27,0.947,0.494,2.513
	c1.381,1.225,1.42-1.138,2.677,0.453c1.129,1.428-2.065,0.547-0.083,1.153c0.725,0.221,2.43,1.194,3.5,1.152
	c1.071-0.041-0.453-0.576-1.318-1.029c-0.865-0.453-1.317-0.948-1.523-1.895c-0.206-0.947,0.741-1.194,1.771-1.276
	c1.029-0.083,0.658,2.018,0.781,2.635c0.123,0.618,1.153,0.824,1.895,1.112s-0.536,0.865,0.247,1.277
	c0.783,0.412,3.125,1.023,4.407,2.059c3.372,2.726,4.038,1.965,2.306,0.823c-0.392-0.258-1.688-1.482-1.112-1.977
	c0.577-0.494,1.398,0.826,2.43,1.895c2.79,2.887,3.265,0.606,4.942,4.324c0.468,1.038,1.4,3.583,1.112,4.571
	c-0.289,0.988-1.73,0.247-1.524,0.453c0.206,0.206,0.516,0.759,0.329,1.565c-0.31,1.337,3.397,1.717,4.407,3.212
	c0.947,1.404,2.635,1.441,3.253,1.606c0.618,0.165,0.742-0.535,1.235-0.865c0.494-0.329,0.7,0.206,1.359,0.947
	c0.659,0.741-0.083,1.277-0.906,1.317c-0.824,0.042-3.994-1.729-4.406-1.729s16.726,11.415,18.202,15.443
	c0.53,1.448,1.194,2.759,1.194,2.759s2.724,1.961,3.13,3.293c1.178,3.875,17.253,19.93,17.995,21.413
	c0.328,0.656,0.608,1.476,0.835,2.527l0.229-3.889C231.099,228.91,233.478,229.267,234.192,230.813z"/>
<path id="SanLuisPotosí" fill="#3dffa6" stroke="#231F20" stroke-miterlimit="10" d="M323.99,191.682
	c-0.634-1.744-0.476-0.159-0.951,1.586c-0.476,1.744-3.172,2.378-3.172,2.378l-0.158,4.917c0,0-9.675,10.149-12.846,10.942
	c-3.172,0.793-4.916,2.22-6.819-0.158c-1.903-2.379-1.585,4.44-1.427,5.074c0.158,0.635,0.635,0.476,0.792,4.124
	c0.159,3.648,4.282,7.136,6.978,7.612c0,0,0.793,3.806,2.221,3.806c1.427,0,2.696-1.427,4.281-3.489
	c1.586-2.062,2.854-3.806,4.916,0.634c0,0-0.158,1.902-1.427,4.44c-1.27,2.538,0.951,2.538,0.951,4.599
	c0,2.061-0.159,3.172-1.745,5.075c-1.585,1.903-2.061,3.171-2.061,3.171s3.964-0.951,6.185,0.159c2.22,1.11,5.709,0.952,5.709,0.952
	s-0.477,2.22,3.488,3.488c3.966,1.269,5.393,1.427,5.71-1.269c0,0,1.427-3.013,3.806-1.269s4.282,3.489,5.868,3.965
	c1.585,0.476,3.489,1.585,5.233-0.952c1.744-2.538,0.951,3.806,5.233,2.537l0.951-2.061l2.062-0.318c0,0,0.634-3.33,1.903-2.696
	c1.269,0.634,1.109,8.087,2.537,8.405c1.427,0.317,2.22-0.952,3.806,1.586c0,0,7.137,1.109,5.393-1.586c0,0-2.855-1.744,0.792-2.22
	c3.648-0.476,2.062-0.159,0.477-2.221c-1.586-2.062-2.22-1.745-0.159-3.172c2.062-1.428,2.062-1.427,0.952-3.647
	c-1.11-2.22-1.428-3.965-1.428-3.965s2.062,1.111,2.537-0.792c0.476-1.903-0.158-2.538,1.27-3.172
	c1.427-0.634,2.062-1.427-2.063-3.013c-1.476-0.568-2.908-1.217-4.144-1.816c-2.057,0.936-10.684-0.127-10.684-0.127
	s-0.952-5.472-2.735-5.234c-1.784,0.238-2.498-3.092-3.331-1.903c-0.832,1.189,2.022,1.308,1.309,2.855
	c-0.714,1.546-2.26-1.666-4.639-1.071c-2.379,0.595-2.379-1.308-4.163-1.784s-2.26,0.713-3.092,0.357
	c-0.833-0.357,2.021-3.449,0.356-3.925c-1.665-0.476-0.238-1.784,0.714-2.617c0.951-0.833-1.546-1.665-1.546-1.665l-0.423-2.701
	c-0.524,0.056-1.154-0.025-1.6-0.272c-1.07-0.594-0.238-1.427-2.141-0.356c-1.903,1.07-0.357,1.427-0.238,2.141
	c0.119,0.713-2.498,0.357-2.616-2.379c-0.119-2.736-1.189-2.26-1.07-4.282c0.118-2.022,1.664-3.211,0.118-6.661
	c-1.546-3.449-0.832-4.52-0.356-6.898c0.476-2.378-2.735-1.903-2.142-3.687c0.595-1.784,0.477-3.092-0.832-4.401
	c-1.308-1.308-1.784,0.595-1.784,0.595l-0.156-0.495c-0.377,0.788-0.89,1.595-1.588,2.239
	C324.942,192.951,324.625,193.426,323.99,191.682z"/>
<path id="Querétaro" fill="#3dffa6" stroke="#231F20" stroke-miterlimit="10" d="M340.008,283.027
	c1.903,1.585,2.379,0.635,3.647,0.318c1.269-0.318,1.428,0.159,1.11-4.282l1.745-0.635c1.269,0.951,0.634-5.709,0.634-5.709
	s5.867-1.427,6.343-2.22c0.476-0.792-1.586-0.476,0.476-3.172c2.063-2.696,1.903-6.343,1.903-6.343l2.063-0.793
	c0,0,0.475,0.634,3.171,0c1.251-0.293,1.613-1.544,1.645-2.8c-0.171,0.001-0.347-0.012-0.534-0.054
	c-1.428-0.318-1.269-7.771-2.537-8.405c-1.27-0.634-1.903,2.696-1.903,2.696l-2.062,0.318l-0.951,2.061
	c-4.282,1.269-3.489-5.075-5.233-2.537c-0.517,0.751-1.047,1.176-1.578,1.399c-0.05,1.869-0.399,3.028,0.785,3.675
	c1.744,0.952,1.744,0.318,0.634,1.745c-1.109,1.427-3.013,1.269-3.013,1.269c-2.855-2.22-2.696,0.317-2.696,0.317
	c-0.158,3.171-0.792,1.745-1.427,4.123c-0.634,2.379-3.489,0-3.489,0c-0.951,1.586-2.379,1.744-4.123,1.11
	c-1.744-0.634-1.586,1.586-2.537,3.331c-0.952,1.745,1.744,3.172,1.744,3.172c0.317,5.233,0.634,5.392,2.062,6.185
	c0.795,0.441,1.048,0.834,1.008,1.479l2.322,0.266C341.276,281.124,338.104,281.441,340.008,283.027z"/>
<path id="Durango" fill="#3dffa6" stroke="#231F20" stroke-miterlimit="10" d="M244.222,221.179l0.476,2.696
	c0,0,2.379,0.476,1.586,2.062c-0.793,1.585-3.806,0-2.696,2.854c1.11,2.855,1.268,3.648,2.379,2.062
	c1.11-1.586,2.061-4.123,2.695-2.696c0.634,1.428,2.379,2.379,2.379,2.379s2.836,4.847,3.33,4.758
	c1.744-0.317,0.159-1.903,1.586-2.062c1.427-0.159,2.854-1.269,2.854-3.013s0-4.757,1.427-4.599
	c1.427,0.159,3.647,1.586,1.427-3.806c-2.22-5.393-0.635-3.807,0-5.393c0.634-1.585-0.635-2.695,1.745-5.55
	c2.379-2.854,6.818-4.282,4.282-5.233c0,0,0.635-3.806-0.159-5.709c-0.793-1.903,0.159-2.062,2.061-3.331
	c1.903-1.269,3.172-0.476,3.49-2.378c0.316-1.903,2.22-1.586,3.489-4.282h6.026c0,0,1.586-1.903,3.489-0.952
	c1.903,0.952,3.489,2.22,8.088,0.952c0,0,0.792-1.11-0.159-4.6c-0.951-3.489-1.269-6.026-2.379-6.66c0,0-1.11,0.476-0.793-0.635
	c0,0,0.952-4.599-1.11-1.269c-2.062,3.331-3.013,6.027-3.013,6.027s-4.916-1.903-6.344-3.489c-1.427-1.586-0.634-2.854-2.378-4.282
	c-1.744-1.428-4.758-3.965-3.489-5.392c1.268-1.427,4.917-0.159,2.22-2.22c-2.696-2.062-2.22-1.27-0.793-3.806
	c1.428-2.538,2.221-3.013,1.428-7.771s1.744-6.343,1.744-6.343s-0.951-4.282-2.22-6.978c-1.481-3.147-11.26-3.331-14.272-4.282
	c-3.013-0.952-3.806-2.537-4.123-0.317c-0.317,2.221-3.648,4.758-3.806,6.344c-0.159,1.585,0,5.392-4.44,0.951
	c-4.44-4.44-3.172,2.379-7.295-0.951c0,0-3.013,0.476-5.075,0.634c-2.062,0.159,1.585-1.428-4.123-1.745
	c0,0-1.269-1.586-2.538-2.062s-2.221-2.378-2.379-1.11c-0.158,1.269-3.964-2.379-5.233-3.172s-1.269,0.952-2.696,3.013
	c-1.427,2.062-0.951,6.026-2.695,8.247c-1.745,2.22-2.696,4.44-2.855,7.294l-1.902,1.11l0.158,4.758c0,0,3.172-2.221-0.634,1.744
	l-1.11,1.427l-4.599-0.317c0,0,0.476-0.476-0.476-0.793c-0.286-0.095-0.789-0.119-1.35-0.105c-0.162,0.263-0.506,0.592-1.108,1.016
	c-2.022,1.427-3.211,1.189-3.211,1.189s0.277,4.242,0.912,8.207c0.635,3.965,1.11,2.379,2.062,4.124
	c0.951,1.745,1.665,3.251,1.665,3.251s3.806,1.428,5.115,4.044c1.308,2.617,2.854,2.974,2.022,4.758
	c-0.833,1.784,3.449,4.044,4.757,2.498c1.309-1.546,1.666-2.616,4.044-0.714c2.379,1.904,2.022,4.044,3.568,6.423
	c1.546,2.378,3.33,4.4,0.238,3.449c0,0-1.07,0.595-0.357,2.021c0.713,1.427,0.595,5.829,2.855,4.044c0,0,1.189,1.07,2.141,3.687
	c0.951,2.617,0.238,2.498,1.07,4.044c0.833,1.546-0.357,3.331,3.092,3.093c2.871-0.198,2.774,0.347,2.181,1.358l1.387,1.814
	L244.222,221.179z"/>
<path id="Hidalgo" fill="#3dffa6" stroke="#231F20" stroke-miterlimit="10" d="M353.806,280.491c0,0.476,1.586,3.965,0.635,4.757
	c-0.951,0.793,0.158,1.428,1.11,2.062c0.951,0.634,0.158,1.902,0.792,2.061c0.635,0.159,1.903-2.22,3.172-4.599
	c1.27-2.378,2.062-0.634,3.33-0.159c1.27,0.476,0.952-1.744,1.586-1.11c0.635,0.634,0.635,2.695-0.316,3.488
	c-0.952,0.793-0.634,2.696,0.476,1.903c1.11-0.793-0.158-3.171,4.282-1.744s2.854,1.903,2.061,3.647
	c-0.792,1.745-1.427,2.062,0.476,1.903c1.904-0.159,2.855,0.793,4.282-0.634c1.428-1.427,2.221-2.22,3.172-2.062
	c0.952,0.158-1.586-1.745-1.269-3.014c0.317-1.268,2.538-1.427,2.697-2.537c0.158-1.11,1.268-5.551-1.429-4.757
	c-2.695,0.793-0.634-1.745,0.317-1.903c0.951-0.158,5.075-3.33,4.282-4.916s0-3.172-2.379-1.11
	c-2.379,2.062-7.295,7.611-8.405,4.282c-1.11-3.331,2.062-6.344,2.062-6.344l-1.903-0.159c0,0,1.903-2.378,3.331-3.33
	c1.427-0.952-0.538,1.744,2.378,1.744c0.794,0-1.427-2.537,0.476-5.075c1.904-2.538,1.904-0.952-0.951-2.538
	c-2.854-1.586-3.172,0.317-4.757-2.062c-1.127-1.69,1.424-2.74,1.065-3.546c-0.161,0.126-0.79,0.192-2.178,0.374
	c-3.647,0.476-0.792,2.22-0.792,2.22c1.744,2.695-5.393,1.586-5.393,1.586c-1.377-2.204-2.156-1.538-3.271-1.532
	c-0.031,1.256-0.394,2.507-1.645,2.8c-2.696,0.634-3.171,0-3.171,0l-2.063,0.793c0,0,0.159,3.647-1.903,6.343
	c-2.062,2.696,0,2.379-0.476,3.172c-0.476,0.793-6.343,2.22-6.343,2.22s0.56,5.878-0.425,5.8c0.95,0.949,1.938,1.896,2.17,1.973
	C349.365,280.65,353.806,280.491,353.806,280.491z"/>
<path id="Tabasco" fill="#3dffa6" stroke="#231F20" stroke-miterlimit="10" d="M523.095,327.392c-1.903-0.238-3.093-0.476-6.303-1.546
	c-3.211-1.07-2.974-2.616-4.877-2.616s-1.903,6.065-1.903,6.065s-8.683-4.282-9.873-5.114c-1.188-0.833-0.831-6.661-0.831-6.661
	s-2.617,0.119-4.163-0.595c-0.882-0.407-1.53-2.322-1.927-3.893c-2.165,0.396-3.765,0.762-3.765,0.762l-1.905,2.128
	c-1.681,1.569-5.712,1.904-9.633,1.457c-3.509-0.401-11.322,2.695-17.743,4.716c0.308,0.481,0.605,0.902,0.836,1.134
	c0.834,0.832,0.476,2.973,0.238,3.687c-0.238,0.714,0.237,1.784,2.498,3.449c2.261,1.666,0.714,1.428,3.212,2.854
	c2.496,1.427,3.925,2.617,3.33,4.401c-0.595,1.784-1.902,1.666-0.119,2.854c0.15,0.1,0.323,0.212,0.506,0.33
	c0.51-0.585,0.925-1.32,1.278-2.114c0.951-2.141,2.378-3.568,3.092-4.757s0-2.616,1.189-4.758c1.19-2.141,1.31-2.498,3.568-1.07
	c2.26,1.427,3.331,1.903,2.498,3.568c-0.832,1.665,0.278,4.877,0.992,5.591c0.713,0.713,1.744-0.714,2.695-0.12
	c0.951,0.594-1.427,2.022,2.616,3.092c1.341,0.355,0.714-3.925,5.709-5.114c0,0,1.07,0.119,1.428-2.022
	c0.356-2.141,0.951,0.713,3.331-1.427c2.378-2.141,2.021-2.617,3.567-2.854s3.092,0.951,3.806,0.476
	c0.713-0.476-0.238,2.974,1.664,3.687c1.904,0.714,2.618,3.449,1.191,4.757c-1.429,1.309,2.259,0.595,3.568,1.19
	c1.275,0.58,2.994,1.838,1.645,3.004l8.345,0.445l0.238-11.418h0.105L523.095,327.392z"/>
<path id="Guerrero" fill="#3dffa6" stroke="#231F20" stroke-miterlimit="10" d="M372.518,327.115c-1.744,0.634-3.172,0.476-4.599-0.318
	c-1.428-0.792,0.635-0.951,0-1.427s-1.586-1.11-3.172-2.221c-1.585-1.11-2.379-1.269-2.221-2.537
	c0.159-1.27-1.427-3.648-1.427-3.648s-2.379,0.793-3.806,0.159c-1.428-0.634-3.647-5.233-3.647-5.233
	c-1.428,0.634-3.489-1.745-3.489-1.745s-0.317,0.634-3.013,3.013c-2.696,2.379-3.014,0.952-3.965,0.793
	c-0.952-0.158-4.758,5.233-6.344,4.758c-1.585-0.476-0.951-3.489-1.744-4.124s-0.635-2.854-0.159-3.806
	c0.476-0.951-2.696-2.537-3.488-1.903c-0.793,0.634-2.22,0.159-3.33,0.159s0.158,2.062,0.316,4.123
	c0.158,2.062,0.794,2.379,3.014,3.965c2.22,1.586-0.635,1.903-0.635,1.903s-1.903-3.647-4.123-2.696s-2.22,0-3.014-0.793
	c-0.792-0.793-5.867,0-9.355,0.317c-3.489,0.318-2.854-2.696-5.233-2.537c-2.379,0.159-2.855,3.806-2.538,6.502
	c0.316,2.695-4.758,1.745-6.027,4.123c-0.813,1.525,0.067,3.047,0.805,3.945c1.16-1.01,3.373-2.337,8.195,3.686
	c2.647,3.306,7.827,5.673,9.225,6.629c5.445,3.729,7.013,4.946,9.8,5.683c2.183,0.577,5.106,2.676,8.937,3.458
	c3.829,0.782,8.203,3.16,9.556,4.745c2.125,2.49,6.844,0.951,15.646,4.561c4.051,1.661,5.478,0.247,5.478,0.247
	s2.31,3.333,4.574,4.985c0.58-0.822,1.329-1.48,2.282-1.663c3.092-0.595,0.238-2.379,0.833-3.568
	c0.723-1.447,4.639,1.427,2.735-2.498c-0.418-0.862,4.639-1.784,3.448-4.044c-1.189-2.259,0-2.259,1.071-3.092
	c1.07-0.833-4.044-2.26-4.044-2.26l-0.357-1.902c-1.427-0.239-1.902-0.952-1.427-2.142c0.476-1.189,0.356-1.903-0.119-3.806
	c-0.476-1.903-2.498-1.665-3.33-3.806c-0.428-1.099,0.307-2.227,1.346-3.067l-0.117-2.919
	C375.055,327.115,374.263,326.48,372.518,327.115z"/>
<path id="Morelos" fill="#3dffa6" stroke="#231F20" stroke-miterlimit="10" d="M365.382,304.674c-1.109-1.11-1.189-0.873-3.647-0.635
	c-2.458,0.238-3.488-1.744-4.123-1.348c-0.634,0.396,0.079,3.806-1.11,4.757c-1.189,0.952-1.586,1.031-1.902,2.3
	c-0.175,0.698-0.902,1.588-1.521,2.248c0.196,0.005,0.388-0.026,0.569-0.106c0,0,2.22,4.599,3.647,5.233
	c1.427,0.634,3.806-0.159,3.806-0.159s0.882,1.324,1.265,2.523l4.049-2.841c0,0,2.141,0.555,3.013,0.714
	c0.872,0.159-1.031-6.264-0.317-7.691c0.419-0.838,0.811-1.734,1.144-2.924C365.396,306.86,366.38,305.672,365.382,304.674z"/>
<path id="Tlaxcala" fill="#3dffa6" stroke="#231F20" stroke-miterlimit="10" d="M390.993,297.934c-0.793-1.11-3.409-0.951-4.36-1.823
	c-0.952-0.873,0-1.983-1.586-2.776c-1.586-0.792-2.301-0.872-2.458-1.585c-0.159-0.713,0.08-1.744-1.031-1.031
	s-1.506,1.031-2.617,0.634c-0.579-0.207-0.939-0.673-1.178-1.106c-0.575,0.329-1.207,0.957-2.072,1.821
	c-1.427,1.427-2.378,0.476-4.282,0.634c-0.708,0.059-1.063,0.052-1.191-0.07c-0.576,0.569-1.052,1.204-0.791,1.576
	c0.217,0.309,0.651,0.897,1.101,1.498c0.152-0.072,0.377,0.021,0.644,0.087c0.635,0.159,2.141,0.396,3.331,2.538
	c1.188,2.141,0.951,3.33,3.488,3.885s2.935,0.555,4.044-0.317c1.11-0.872,3.014,0.792,3.728-0.159
	c0.714-0.952,0.159-2.696,1.269-2.458C388.14,299.52,391.786,299.044,390.993,297.934z"/>
<path id="EstadodeMéxico" fill="#3dffa6" stroke="#231F20" stroke-miterlimit="10" d="M370.526,295.706
	c-0.449-0.601-0.884-1.189-1.101-1.498c-0.261-0.372,0.215-1.006,0.791-1.576c-0.216-0.205,0.219-0.737,0.716-1.833
	c0.794-1.744,2.38-2.22-2.061-3.647s-3.172,0.951-4.282,1.744c-1.109,0.793-1.428-1.11-0.476-1.903
	c0.951-0.793,0.951-2.854,0.316-3.488c-0.634-0.634-0.316,1.585-1.586,1.11c-1.269-0.476-2.061-2.22-3.33,0.159
	c-1.269,2.379-2.537,4.758-3.172,4.599c-0.634-0.159,0.159-1.427-0.792-2.061c-0.952-0.634-2.062-1.269-1.11-2.062
	c0.951-0.792-0.635-4.282-0.635-4.757c0,0-4.44,0.159-4.916,0c-0.232-0.077-1.22-1.023-2.17-1.973
	c-0.063-0.005-0.133-0.033-0.209-0.09l-1.745,0.635c0.317,4.44,0.158,3.964-1.11,4.282c-1.037,0.259-1.546,0.94-2.736,0.314
	c0.031,0.78,0.091,1.636,0.199,2.144c0.238,1.11,2.379,1.189,0.238,1.665c0,0-0.555,2.775-0.872,2.934
	c-0.317,0.158-2.221,0.238-1.982,1.348c0.237,1.11,2.3,3.489,1.349,4.44c-0.952,0.951-2.459,0.555-2.776,2.854
	c-0.316,2.3-1.03,4.282-2.537,5.63c-1.146,1.025-2.152,2.646-2.465,4.061c1.192,0.062,3.25,1.265,2.86,2.044
	c-0.476,0.952-0.634,3.171,0.159,3.806s0.159,3.647,1.744,4.124c1.586,0.476,5.392-4.916,6.344-4.758
	c0.951,0.159,1.269,1.586,3.965-0.793c2.695-2.378,3.013-3.013,3.013-3.013s1.571,1.813,2.92,1.851
	c0.619-0.66,1.347-1.55,1.521-2.248c0.316-1.269,0.713-1.348,1.902-2.3c1.171-0.936,0.5-4.25,1.085-4.731
	c-0.734-1.268-1.293-2.789-0.768-3.991c1.11-2.538,1.744-1.982,2.537-4.044c0.793-2.062,2.3-1.903,2.221-0.238
	c-0.079,1.666,0.634,2.616,2.062,3.41c1.427,0.792,1.744,1.903,0.951,3.013c-0.359,0.502-0.36,1.786-0.254,3.039
	c0.328,0.101,0.606,0.327,1.047,0.767c0.998,0.998,0.014,2.186,4.87,2.071c0.233-0.835,0.438-1.813,0.602-3.023
	c0.396-2.934-0.238-4.124-0.477-6.264C370.239,296.218,370.315,295.805,370.526,295.706z"/>
<path id="DistritoFederal" fill="#3dffa6" stroke="#231F20" stroke-miterlimit="10" d="M364.589,300.868
	c0.793-1.11,0.476-2.221-0.951-3.013c-1.428-0.793-2.141-1.744-2.062-3.41c0.079-1.665-1.428-1.824-2.221,0.238
	c-0.793,2.062-1.427,1.506-2.537,4.044c-0.525,1.202,0.033,2.723,0.768,3.991c0.01-0.007,0.016-0.02,0.025-0.026
	c0.635-0.396,1.665,1.586,4.123,1.348c1.484-0.143,2.101-0.285,2.601-0.132C364.229,302.654,364.229,301.371,364.589,300.868z"/>
<path id="Puebla" fill="#3dffa6" stroke="#231F20" stroke-miterlimit="10" d="M403.205,316.092c-1.665,1.348-1.824,0.079-2.22-1.031
	c-0.396-1.11-1.19-0.634-3.014-1.744c-1.824-1.11-1.903-1.903-1.271-3.172c0.635-1.269,1.667-1.903,1.35-3.568
	c-0.318-1.665,0.158-2.22,0.555-3.647c0.396-1.427,2.221-0.555,3.41,0c1.189,0.555,0.556-0.238,1.348-2.299
	c0.793-2.062-2.299-1.507-3.409-1.666c-1.109-0.158-1.188-1.031-2.775-1.189s-0.793-0.951-1.429-2.458
	c-0.634-1.506-1.744-1.824,0.081-2.934c1.823-1.11,1.188-2.141,1.665-4.599c0.476-2.458,2.617-4.996,3.251-6.106
	s-2.063-0.555-4.362-1.744c-2.3-1.19-2.22,0.396-2.934,1.348c-0.714,0.951-1.269,1.506-1.586,0.396
	c-0.316-1.11-0.713-0.317-2.141-0.873c-1.427-0.555-1.109-2.062-1.109-2.062c1.823-1.348,1.189-1.031,0.316-1.585
	c-0.871-0.555-0.792-1.665,0.159-1.586c0.951,0.08,1.823,0.159,3.25-1.348c1.428-1.507-2.299-1.269-3.25-2.458
	c-0.951-1.189-0.555-2.933,0.079-3.806c0.635-0.873-2.378-1.427-3.489-0.792c-1.11,0.635-0.157,2.458-0.316,3.964
	c-0.089,0.836-1.007,1.623-1.807,2.158c0.051,1.666-3.503,4.358-4.378,4.504c-0.951,0.159-3.013,2.696-0.317,1.903
	c2.696-0.793,1.587,3.647,1.429,4.757c-0.159,1.11-2.38,1.269-2.697,2.537c-0.317,1.269,2.221,3.172,1.269,3.014
	c-0.374-0.062-0.726,0.027-1.1,0.24c0.238,0.433,0.599,0.899,1.178,1.106c1.111,0.397,1.506,0.079,2.617-0.634
	s0.872,0.317,1.031,1.031c0.157,0.713,0.872,0.793,2.458,1.585c1.586,0.793,0.634,1.903,1.586,2.776
	c0.951,0.872,3.567,0.713,4.36,1.823s-2.854,1.585-3.964,1.348c-1.109-0.238-0.555,1.507-1.269,2.458
	c-0.714,0.951-2.617-0.713-3.728,0.159c-1.109,0.872-1.507,0.872-4.044,0.317s-2.3-1.745-3.488-3.885
	c-1.19-2.141-2.696-2.379-3.331-2.538c-0.635-0.158-1.03-0.476-0.793,1.666c0.238,2.141,0.873,3.33,0.477,6.264
	s-1.031,4.52-1.745,5.947s1.189,7.85,0.317,7.691c-0.872-0.159-3.013-0.714-3.013-0.714l-4.049,2.841
	c0.13,0.408,0.203,0.802,0.162,1.125c-0.158,1.268,0.636,1.426,2.221,2.537c1.586,1.111,2.537,1.745,3.172,2.221
	s-1.428,0.634,0,1.427c1.427,0.793,2.854,0.952,4.599,0.318c1.745-0.635,2.537,0,2.537,0l0.117,2.919
	c0.985-0.796,2.245-1.334,3.055-1.334c1.665,0,1.31,0.357,1.785-0.951c0.476-1.309,2.616-0.595,4.281,0.119
	c1.665,0.714,2.616,0.238,4.043-0.356c1.428-0.595,1.072-1.666,0.714-2.26c-0.355-0.595-2.378,1.784-2.378,1.784
	s0.118-0.952-0.238-2.379c-0.356-1.427,0.476-3.568,2.141-4.044s2.141,1.427,1.665,2.141c-0.476,0.714,2.617,3.093,2.617,3.093
	c2.973,0.595,1.903-2.855,6.066-2.855c4.364,0,2.497-0.476,4.521-0.951c2.02-0.476,2.378-0.357,3.209-1.665
	c0.627-0.982,1.252-1.428,1.978-1.741C407.366,315.477,404.707,314.876,403.205,316.092z"/>
<path id="Zacatecas" fill="#3dffa6" stroke="#231F20" stroke-miterlimit="10" d="M328.094,187.23c-1.119-0.256-2.257-0.392-2.991-0.146
	c-1.903,0.635-2.538-0.476-4.441-3.489c-1.902-3.014-3.013-2.22-4.758-1.269c-1.744,0.951-5.55,1.427-4.123-0.317
	c1.428-1.744-1.269-1.745-2.696-2.22c-1.427-0.476-0.476-1.744-3.964-3.647c-3.489-1.903-9.674-1.745-9.674-1.745l-0.159,2.538
	c0,0-1.11-0.317-3.33-0.952c-0.35-0.1-0.648-0.081-0.903,0.021c0.066,0.711-0.208,2.04-0.208,2.04
	c-0.317,1.111,0.793,0.635,0.793,0.635c1.11,0.634,1.428,3.171,2.379,6.66c0.951,3.489,0.159,4.6,0.159,4.6
	c-4.599,1.269-6.185,0-8.088-0.952c-1.903-0.952-3.489,0.952-3.489,0.952h-6.026c-1.269,2.696-3.172,2.378-3.489,4.282
	c-0.317,1.903-1.586,1.11-3.49,2.378c-1.902,1.269-2.854,1.428-2.061,3.331c0.793,1.904,0.159,5.709,0.159,5.709
	c2.537,0.951-1.903,2.378-4.282,5.233c-2.379,2.855-1.11,3.965-1.745,5.55c-0.635,1.585-2.22,0,0,5.393
	c2.22,5.392,0,3.964-1.427,3.806c-1.427-0.158-1.427,2.855-1.427,4.599c0,1.399-0.919,2.388-2.019,2.808l1.585,1.668
	c0.51-0.295,0.952-0.677,1.069-1.145c0.317-1.269,1.427-0.159,1.427-0.159s-1.745-2.538,1.11-2.854
	c2.855-0.317,0.476,3.33,0.476,3.33s1.269,0.793,2.696-1.11c1.428-1.903-0.635-1.269-1.269-3.964
	c-0.634-2.696-0.317-3.171,1.744-2.855c2.062,0.317,4.916,0.476,2.696,3.013c-2.221,2.537-2.854,9.198-1.269,9.356
	s0-5.233,2.22-8.405c0,0,4.6,0.476,3.489,2.854l-1.427,3.013c0,0,1.744,0.159-0.635,3.331c0,0,0.635,0.952,2.379,0.635
	c1.744-0.318,2.379-0.477,3.806-1.903c1.427-1.427,1.903-1.427,0.476-2.379c-1.427-0.952-0.634-2.696,1.586-2.378
	c2.22,0.316,2.695,0.317,1.11,2.378s0.951,0.634,2.22,0.792c1.269,0.159,0.634,1.586,0.158,2.062s0.159,1.428-0.634,1.585
	c-0.793,0.159-0.159,1.427-1.585,2.062c-1.428,0.634-5.709,4.123-5.709,4.123s-1.744-1.11-1.11,1.11c0.634,2.22,0,3.806-1.427,4.123
	c-1.428,0.318-2.22,2.22-0.159,2.854c2.062,0.634,2.696,1.11,1.11,2.062c-1.585,0.952-3.171,0.318-2.854,1.11
	c0.317,0.793,1.585,0.793,2.379,2.696c0.793,1.903,1.11,0.159,2.062,0.317s2.062,2.062,3.965,1.903
	c1.902-0.158,3.647,1.269,4.282-1.269c0,0-0.159-3.171,0.792-3.171s1.269,1.269,4.599-0.792c3.33-2.062,3.647-0.476,3.489-3.806
	s-3.647-1.428-3.33-3.331c0.095-0.569,0.39-1.038,0.755-1.417c-0.369-0.329-2.034-1.827-2.725-2.688
	c-0.757-0.946,3.95-4.938,4.28-6.474c0.329-1.536,0.329-3.731,0.329-3.731s2.962,0.658,3.95-0.658
	c0.987-1.316,2.194-0.439,2.743-1.207c0.549-0.768,2.963,0.549,2.963,0.549c1.098,0.439,0.329,2.085,2.085,1.755
	c1.755-0.329,1.865,0.659,1.426,1.866c0,0-1.536,0.768,0.548,1.755l2.686,1.879c0.76-0.548,1.258-0.352,1.258-0.352
	s1.903,2.855,3.014,3.013c0.574,0.083,1.191,1.142,1.806,2.188l0.138-0.068c0.144-0.33,0.69-1.476,2.02-3.071
	c1.586-1.903,1.745-3.014,1.745-5.075c0-2.062-2.221-2.062-0.951-4.599c1.269-2.538,1.427-4.44,1.427-4.44
	c-2.062-4.44-3.33-2.696-4.916-0.634c-1.585,2.062-2.854,3.489-4.281,3.489c-1.428,0-2.221-3.806-2.221-3.806
	c-2.696-0.476-6.819-3.964-6.978-7.612c-0.158-3.648-0.634-3.489-0.792-4.124c-0.159-0.634-0.476-7.453,1.427-5.074
	c1.903,2.378,3.647,0.952,6.819,0.158c3.171-0.793,12.846-10.942,12.846-10.942l0.158-4.917c0,0,2.696-0.634,3.172-2.378
	c0.476-1.745,0.317-3.331,0.951-1.586c0.635,1.744,0.952,1.269,3.014-0.634c0.698-0.645,1.211-1.452,1.588-2.239L328.094,187.23z"/>
<path id="Aguascalientes" fill="#3dffa6" stroke="#231F20" stroke-miterlimit="10" d="M304.117,237.879
	c0.438-1.207,0.329-2.195-1.426-1.866c-1.756,0.33-0.987-1.316-2.085-1.755c0,0-2.414-1.316-2.963-0.549
	c-0.548,0.768-1.755-0.109-2.743,1.207c-0.988,1.316-3.95,0.658-3.95,0.658s0,2.195-0.329,3.731c-0.33,1.536-5.037,5.528-4.28,6.474
	c0.69,0.861,2.355,2.359,2.725,2.688c0.854-0.889,2.099-1.279,2.099-1.279s5.55,3.647,8.088,2.22c2.537-1.428,4.123-4.6,5.867-4.757
	c1.745-0.159,2.379-0.793,2.379-0.793s-1.903-0.475-0.793-1.744c0.23-0.263,0.446-0.456,0.645-0.6l-2.686-1.879
	C302.581,238.647,304.117,237.879,304.117,237.879z"/>
<path id="Coahuila" fill="#3dffa6" stroke="#231F20" stroke-miterlimit="10" d="M291.958,175.983c2.22,0.635,3.33,0.952,3.33,0.952
	l0.159-2.538c0,0,6.185-0.159,9.674,1.745c3.488,1.903,2.537,3.171,3.964,3.647c1.428,0.476,4.124,0.476,2.696,2.22
	c-1.427,1.744,2.379,1.269,4.123,0.317c1.745-0.952,2.855-1.745,4.758,1.269c1.903,3.013,2.538,4.124,4.441,3.489
	c0.734-0.245,1.872-0.11,2.991,0.146l-0.06-0.188l-0.119-4.995c0,0-1.07,0.119,0.596-2.022c1.665-2.141-1.19-0.356-0.714-5.114
	c0.476-4.757,5.828-2.735,8.088-2.141c3.935,1.036,5.471-2.378,1.546-2.854c-3.55-0.431-2.26-0.476-2.498-1.666
	c-0.237-1.189-2.974-1.665-2.974-1.665l0.952-1.071c-2.854-0.594-3.449-2.378-3.449-2.378s-1.428,0-1.665-1.666
	c-0.238-1.665-1.189-0.476-0.477-3.33c0.714-2.854-1.546-0.952-1.546-2.616c0-1.666-1.188-2.855-2.497-4.52
	s-3.212-4.282-3.212-4.282l8.445-7.612l1.665,2.021l2.616-3.568c0,0,2.022-4.4-0.595-5.946c-2.616-1.547-2.379-0.357-3.687,0.238
	c-1.309,0.594-1.309-3.093-1.309-3.093s1.07-1.784,2.735-3.092c1.665-1.308,5.471-1.427,5.471-1.427l1.19-6.661l3.806-2.498
	c0,0,3.211,4.044,3.568,4.044c0.244,0,2.229-2.524,3.447-4.106c-2.133-2.896-3.942-6.414-6.406-8.261
	c-2.338-1.752-2.99-2.933-3.361-5.041c-0.578-3.288-5.573-9.155-6.386-13.667c-0.648-3.605-6.946-9.747-8.851-10.867
	c0,0-2.576-0.561-3.024-1.905s-2.353-5.266-5.265-5.377c-2.913-0.112-10.195,0.335-12.996-0.672c-2.8-1.008-3.473-1.905-4.593,0
	c-1.12,1.905-1.568,0.672-4.257,1.232c-2.688,0.561-3.249,3.361-4.033,6.722c-0.785,3.361-1.905,2.241-1.569,4.257
	c0.336,2.017-0.895,2.242-2.8,3.362c-1.904,1.121-2.128,3.137-2.128,3.137c-0.898,0.575-1.925,0.468-2.992,0.037
	c-1.872,3.359-4.896,8.341-6.467,8.55l-6.026,13.48c0,0,1.903,3.014-1.269,1.903c0,0,2.22,5.551,2.062,9.516l-0.476,4.282
	c0,0,1.11,0.476,1.586,2.378c0.476,1.903,1.744,2.538,0.634,4.44c-1.11,1.903-2.22,1.903-0.158,4.124
	c0.747,0.805,1.284,1.86,1.667,2.9c3.013,0.558,5.836,1.391,6.579,2.967c1.269,2.696,2.22,6.978,2.22,6.978
	s-2.537,1.585-1.744,6.343s0,5.233-1.428,7.771c-1.427,2.537-1.903,1.744,0.793,3.806c2.696,2.061-0.952,0.792-2.22,2.22
	c-1.27,1.427,1.745,3.964,3.489,5.392c1.744,1.427,0.951,2.696,2.378,4.282c1.428,1.586,6.344,3.489,6.344,3.489
	s0.951-2.696,3.013-6.027c0.953-1.539,1.261-1.383,1.318-0.771C291.309,175.902,291.608,175.883,291.958,175.983z"/>
<g id="BajaCalifornia">
	<path fill="#3dffa6" stroke="#231F20" stroke-miterlimit="10" d="M89.457,108.14c0.397-1.145,0.288-1.812-0.206-2.306
		c-0.494-0.495-0.906-0.535-1.029-1.565c-0.124-1.029,0.124-2.841-0.33-3.666c-0.453-0.823-4.621,0.085-4.694-2.141
		c-0.031-0.957,0.232-1.812-0.33-2.141c-1.309-0.766-1.214-3.665-2.306-4.901c-0.501-0.567-2.425,3.327-2.594-1.605
		c-0.037-1.086-1.826-1.151-2.841,0.577c-0.467,0.794-1.171-2.203-0.618-3.5c0.549-1.289-0.962-2.331-1.647-2.965
		c-1.092-1.012,1.236-2.343-1.564-3.953c-1.717-0.987-7.635-6.34-8.896-7.906c-2.132-2.649-4.937,0.06-4.941-3.129
		c-0.002-1.225-0.483-1.42-1.565-2.018c-2.184-1.208-1.852-4.297-3.335-5.188c-0.735-0.441,0.914-2.722,0.165-9.019
		c-0.149-1.254-1.07-1.565-1.07-1.565s0.726-7.821-1.606-8.03c-1.174-0.105,0.091-2.716-2.142-3.5
		c-0.944-0.332,0.101-3.753,1.277-11.202c0.156-0.991,0.964-1.428,0.659-2.265c-2.025-5.542,0.206-0.659,0.906-0.166
		c0.7,0.495,0.536,0.495,1.524,0.371c0.988-0.124-1.47-2.335-1.84-2.706c-0.21-0.21,0.638,0.186,1.576,0.568
		c-2.479-1.508-4.537-2.152-5.065-2.541c-2.378-1.744,0.951-5.55-2.538-8.405c-0.626-0.512,1.903-1.269,2.379-5.075
		c0.111-0.889,2.346-1.041,4.339-0.997c-0.752-0.451-1.39-1.007-1.39-1.602c0-1.457,1.412-3.983,1.412-3.983L3.331,5.661
		c-0.471,1.05,0.429,3.521,0.841,4.88s1.153,1.236,2.841,3.13c1.688,1.895,1.03,4.612,1.03,4.612s0.124,0.659,1.111,0.906
		c0.989,0.247,0.989,0.782,1.647,1.524c0.659,0.741,2.142,0.7,2.636,1.194s-0.165,1.853-0.288,2.553
		c-0.124,0.7-1.688,0.33-1.977,0.453c-0.288,0.124,0.741,0.783,1.318,1.812c0.577,1.03,0.124,1.359-0.288,1.853
		c-0.412,0.495,1.688,2.43,2.595,3.007c0.906,0.577,2.512,3.376,3.088,3.994c0.576,0.618,1.235,1.936,1.771,2.924
		c0.535,0.988-0.289,2.1-0.701,3.047c-0.412,0.947-0.083,1.606,0.33,1.4c0.412-0.206,0.988-0.165,1.606,0.824
		c0.618,0.988,2.347,2.388,3.376,3.088c1.029,0.701,0.412,4.736,0.329,6.507c-0.082,1.771,1.029,3.624,1.029,3.624
		s0.289-0.577,0.701-0.989c0.411-0.412,0.865,0.083,1.771,0.783c0.906,0.7,1.564,1.854,1.564,1.854l0.042,7.166
		c0,0,1.358,0.988,2.1,2.059c0.741,1.071-0.288,3.047,0.33,3.542c0.618,0.494,1.276,0.453,2.553,1.688
		c1.277,1.236,0.905,0.535,1.853,0.824c0.947,0.288,0.906,1.071,1.483,1.441s1.153,0.206,2.636,1.441
		c1.483,1.235,1.936,1.936,1.936,1.936c3.894-0.813,8.03,5.888,8.648,6.753c0.618,0.865,0.864,0.124,1.564,0.535
		c0.7,0.412,0.659,2.471,0.659,2.471s2.224,1.359,2.924,1.647c0.7,0.288,3.666,5.642,3.666,5.642l1.935,0.165l0.165,1.277
		c0,0,1.441,1.441,2.142,2.595c0.7,1.153-0.659,3.088-1.112,4.035c-0.454,0.947,0.429,0.534,0.577,0.989
		c0.562,1.741-0.989,3.905-2.248,5.482h28.123C89.393,109.589,89.225,108.808,89.457,108.14z"/>
	<path fill="#3dffa6" stroke="#231F20" stroke-miterlimit="10" d="M73.666,77.969c0.013,0.972,7.022,10.258,9.161,10.203
		c2.14-0.055-1.536-1.865-1.042-4.827c0.494-2.962-2.249-0.987-3.346-2.03c-1.097-1.042,0.604-2.194-0.987-3.729
		C75.86,76.049,73.611,73.636,73.666,77.969z"/>
	<path fill="#3dffa6" stroke="#231F20" stroke-miterlimit="10" d="M87.38,95.194c-0.296,0.119,2.523,3.018,2.743,2.414
		C90.343,97.004,89.301,94.426,87.38,95.194z"/>
	<path fill="#3dffa6" stroke="#231F20" stroke-miterlimit="10" d="M38.561,108.085c0.081,0.608,2.029,0.055,1.865,0.768
		c-0.165,0.713,1.919,2.634,2.03-0.877c0.11-3.511-1.119-6.84-2.03-5.814c-0.439,0.494,0.713,2.468,0,3.62
		C39.712,106.933,38.451,107.262,38.561,108.085z"/>
</g>
<g id="Nayarit">
	<path fill="#3dffa6" stroke="#231F20" stroke-miterlimit="10" d="M240.576,268.28c0.793-0.317,0.317-2.379,1.585-3.014
		c1.269-0.634,2.221,0.793,4.282-1.427c2.062-2.221,2.696-0.317,4.441,0.476c1.744,0.793,2.062,0.476,4.123,2.696
		c2.062,2.22,5.868,8.563,4.283,2.379c0,0-0.634-0.952-2.062-1.745c-1.427-0.793,1.11-0.952,2.22-2.379
		c1.11-1.427-1.11-4.757,0.952-5.708c2.062-0.952,2.695,0.158,4.123-0.634c1.427-0.793,3.965,0.951,4.599-3.013
		c0.634-3.965-1.269-2.22-2.696-4.599c-1.427-2.379,1.903-4.123-2.537-4.757s-3.172-0.634-3.013-3.331
		c0.159-2.696-5.233,1.903-4.123-3.013s2.696-3.806,1.744-5.392l-1.702-1.792c-0.271,0.104-0.554,0.174-0.836,0.205
		c-1.427,0.159,0.158,1.745-1.586,2.062c-0.494,0.089-3.33-4.758-3.33-4.758s-1.745-0.951-2.379-2.379
		c-0.634-1.427-1.585,1.11-2.695,2.696c-1.111,1.586-1.269,0.793-2.379-2.062c-1.11-2.854,1.902-1.269,2.696-2.854
		c0.793-1.586-1.586-2.062-1.586-2.062l-0.476-2.696l-6.343,0.318l-1.387-1.814c-0.12,0.204-0.257,0.425-0.397,0.664
		c-0.832,1.428-0.832,3.093-1.427,4.044c-0.595,0.952-1.071,3.688,0.833,4.163c1.903,0.476-0.595,3.806-1.308,2.26
		c-0.714-1.546-3.093-1.902-3.331-1.07l-0.229,3.889c0.287,1.322,0.491,3.012,0.605,5.214c0.206,3.953,2.694,6.809,3.211,8.935
		c0.762,3.132,6.037,4.701,6.054,6.136c0.008,0.759-0.33,1.069-0.454,4.651c-0.123,3.583-2.306,4.694-3.624,6.917
		c-1.318,2.224-2.1,1.564-2.347,2.388c-0.247,0.824,0.289,0.865,2.677,0.988c1.25,0.064,1.933,0.481,2.297,1.063
		C239.579,269.189,240.19,268.435,240.576,268.28z"/>
	<path fill="#3dffa6" stroke="#231F20" stroke-miterlimit="10" d="M211.571,248.841c0,0,1.481,3.949,2.743,2.743
		c1.262-1.207-0.987-2.414-0.987-2.414C212.45,248.786,211.571,248.841,211.571,248.841z"/>
	<path fill="#3dffa6" stroke="#231F20" stroke-miterlimit="10" d="M214.973,253.559c-0.128-0.704,1.098-0.878,1.756-0.494
		c0.658,0.384,1.097,1.426,0.109,1.481C215.85,254.601,215.082,254.162,214.973,253.559z"/>
	<path fill="#3dffa6" stroke="#231F20" stroke-miterlimit="10" d="M219.032,257.069c0,0,0.055-1.371,0.823-1.152
		c0.768,0.219,1.097,0.988,0.768,1.427C220.293,257.782,219.306,258.166,219.032,257.069z"/>
</g>
<g id="BajaCaliforniaSur">
	<path fill="#3dffa6" stroke="#231F20" stroke-miterlimit="10" d="M155.549,208.702c-0.009-0.29-4.935-1.272-4.653-4.118
		c0.155-1.562-0.823-2.329-1.524-2.841c-1.515-1.109-0.055-2.986-0.7-3.789c-0.673-0.837-2.289,1.254-3.171,0.372
		c-0.882-0.882,0.312-3.522-2.872-4.108c-1.454-0.268-2.519-4.04-4.252-2.811c-0.587,0.417,0.412,3.789,0.412,3.789
		s-3.451-0.02-5.683-1.936c-2.263-1.941-0.885-3.605-2.311-5.316c-1.101-1.321-0.64-3.247,0.581-5.021
		c2.365-3.439-4.049-7.483-4.365-8.607c-0.351-1.248-0.937-3.608-1.349-4.432c-0.083-0.165-0.143-4.467-1.657-3.969
		c-0.862,0.283-2.356-0.866-2.347-1.936c0.012-1.509-1.318-2.84-2.512-3.748c-1.102-0.837-0.85-4.89-0.535-6.671
		c0.183-1.034-1.694-7.012-2.677-7.701c-0.939-0.659,0.371-0.742,0.412-1.73c0.042-0.988-1.317-0.7-2.059-1.071
		S114,140.383,114,140.383s-1.482-1.812-2.841-3.253s-3.317-4.029-2.43,1.812c0.044,0.288,0.535,0.865,1.853,1.977
		c1.318,1.112,0.725,4.104-1.362,1.211c-0.771-1.07-2.234-2.566-1.438-4.423c0.648-1.514-1.606-2.677-2.347-3.336
		c-0.741-0.659-0.371-0.906,0.165-2.224c0.536-1.317,1.153-1.03,0.618-1.236c0,0-4.118-1.482-4.818-2.1
		c-0.7-0.618,0.082-1.606-0.412-2.388c-0.494-0.783-1.441-1.235-1.647-2.471c-0.206-1.236,0.39-2.222-0.741-2.759
		c-1.545-0.735-9.292-5.535-8.359-8.565c0.144-0.466-0.292-1.347-0.604-2.301H61.512c-0.821,1.029-1.518,1.809-1.418,2.053
		c0.252,0.62,1.729,0.165,1.729,0.165c0.824,0.124-0.034,2.971,0.618,3.871c0.673,0.931,1.802,0.797,2.553-0.123
		c1.215-1.49,3.259,1.789,0.741,1.647c-0.741-0.042-2.52,3.232-2.636,1.112c-0.047-0.868-3.707-2.677-3.707-2.677
		s0.206-2.8-0.247-3.047c-0.454-0.248-2.198,1.123-3.624,2.059c-1.717,1.127-9.986-1.582-11.697-1.439
		c-0.743,0.063,1.331,0.193,1.236,2.186c-0.048,0.998,2.566,2.234,3.277,1.271c0.427-0.579,0.247,1.647,0.247,1.647
		s0.636-0.165,1.295,0.329c0.659,0.494,0.165,2.06,0.947,2.142c0.782,0.083,4.785,0.41,4.406,6.054
		c-0.096,1.439,3.789,2.437,5.421,1.976c2.938-0.83,3.036,4.214,7.217,4.068c2.452-0.085,4.42,10.553,7.706,3.838
		c0.435-0.89,2.389,0.165,3.294,0.618c0.906,0.453,1.636,2.389,2.498,2.389c2.614,0-0.38-2.329-1.18-2.554
		c-0.561-0.158,0.042-0.906,0.618-1.359c0.577-0.453,1.464-6.162,1.729-1.523c0.063,1.106-1.402,2.737-0.74,3.346
		c2.333,2.142,2.708,1.521,1.357,3.078c-0.375,0.433,8.277,6.548,9.307,6.712c1.03,0.165,2.406,2.851,3.789,1.359
		c0.354-0.382,1.946,0.808,2.265,2.141c0.63,2.629,2.436,2.962,2.924,4.613c0.947,3.199,2.031,3.055,2.43,13.712
		c0.058,1.538-1.676,0.832-1.688,1.359c-0.05,2.093-2.112,7.644-2.801,10.625c-0.232,1.006,2.95-0.686,7.413,1.276
		c0.945,0.416,1.317,2.347,2.224,3.542c0.906,1.194,2.329-0.961,2.471-0.124c0.633,3.744,12.687,7.55,16.761,14.084
		c1.14,1.828,4.331,6.787,9.595,7.453c1.925,0.243,2.593,3.531,3.458,4.972c0.865,1.442,1.11,10.696,5.067,10.594
		c1.787-0.046,3.978-4,7.618-5.477C158.903,216.302,155.612,210.553,155.549,208.702z"/>
	<path fill="#3dffa6" stroke="#231F20" stroke-miterlimit="10" d="M104.003,127.724c-0.768-1.152-0.933-0.823-0.988-0.274
		c-0.055,0.548,0.549,1.371,0.549,1.371C103.783,128.93,104.771,128.875,104.003,127.724z"/>
	<path fill="#3dffa6" stroke="#231F20" stroke-miterlimit="10" d="M107.13,123.5c0,0,1.536,0.22,1.152-0.548
		c-0.384-0.768-1.262-0.823-1.536-0.384C106.472,123.006,107.13,123.5,107.13,123.5z"/>
	<path fill="#3dffa6" stroke="#231F20" stroke-miterlimit="10" d="M121.721,157.455c0.439-1.646,1.207-1.536,1.755-1.81
		c0.548-0.274,0.604-2.414-0.768-1.756c-1.371,0.659-2.14,2.908-2.249,3.73c-0.11,0.823-0.659,0.987-0.056,1.646
		C120.404,159.266,121.282,159.101,121.721,157.455z"/>
	<path fill="#3dffa6" stroke="#231F20" stroke-miterlimit="10" d="M124.847,163.104c1.152-0.055-0.164-1.536-0.164-1.536l-0.659,0.438
		C124.024,162.007,123.695,163.159,124.847,163.104z"/>
	<path fill="#3dffa6" stroke="#231F20" stroke-miterlimit="10" d="M129.4,164.037c0.494,0,0.768-0.384,0.548-1.481
		c-0.219-1.097-0.932-1.865-1.097-0.274C128.687,163.873,129.4,164.037,129.4,164.037z"/>
	<path fill="#3dffa6" stroke="#231F20" stroke-miterlimit="10" d="M134.227,179.945c0.768-0.33-0.494-1.042-0.548-1.975
		s-0.274-1.536-1.372-1.975c-1.097-0.439-1.097-1.207-1.81-1.152c0,0-0.329,1.481,0.768,2.633
		C132.362,178.628,133.459,180.274,134.227,179.945z"/>
	<path fill="#3dffa6" stroke="#231F20" stroke-miterlimit="10" d="M101.533,185.046c0,0,2.085,3.347,2.469,2.579
		c0.384-0.768-0.658-2.249-1.207-2.798C102.246,184.278,101.588,184.114,101.533,185.046z"/>
	<path fill="#3dffa6" stroke="#231F20" stroke-miterlimit="10" d="M107.841,187.789c-0.438-0.548-3.236-0.439-2.852,0.438
		c0,0,4.608,3.237,5.266,3.84c0.658,0.603,1.097-1.042-0.165-2.414C108.829,188.283,108.28,188.337,107.841,187.789z"/>
	<path fill="#3dffa6" stroke="#231F20" stroke-miterlimit="10" d="M138.45,190.202c1.317-0.329,0.494-2.304-0.055-2.797
		c-0.548-0.493-1.426-1.316-1.426-1.316C136.695,186.417,137.133,190.531,138.45,190.202z"/>
	<path fill="#3dffa6" stroke="#231F20" stroke-miterlimit="10" d="M148.873,194.865c-0.494-2.358-2.14-3.839-2.633-3.785
		c0,0,0,2.633,0.768,3.621C147.775,195.688,149.366,197.224,148.873,194.865z"/>
</g>
<path id="Chiapas" fill="#3dffa6" stroke="#231F20" stroke-miterlimit="10" d="M532.253,358.792c-2.854-0.714-2.259-2.736-2.973-4.282
	c-0.713-1.546-1.428-2.497-4.639-4.044c-3.212-1.546-6.779-4.876-7.256-6.185c-0.476-1.308-1.309,0.119-2.854-0.595
	c-1.548-0.713-0.596-1.784-0.596-1.784l0.575,0.031c1.35-1.166-0.369-2.424-1.645-3.004c-1.31-0.595-4.997,0.119-3.568-1.19
	c1.427-1.308,0.713-4.043-1.191-4.757c-1.902-0.713-0.951-4.163-1.664-3.687c-0.714,0.476-2.26-0.713-3.806-0.476
	s-1.189,0.713-3.567,2.854c-2.38,2.141-2.975-0.714-3.331,1.427c-0.357,2.141-1.428,2.022-1.428,2.022
	c-4.995,1.189-4.368,5.469-5.709,5.114c-4.043-1.07-1.665-2.498-2.616-3.092c-0.951-0.595-1.982,0.833-2.695,0.12
	c-0.714-0.714-1.824-3.926-0.992-5.591c0.833-1.666-0.238-2.141-2.498-3.568c-2.259-1.427-2.378-1.07-3.568,1.07
	c-1.189,2.142-0.476,3.568-1.189,4.758s-2.141,2.617-3.092,4.757c-0.951,2.141-2.354,3.861-4.877,3.331
	c-0.752-0.158-5.392,11.974-5.748,12.925c-1.498,3.992-1.19,4.401,0.476,6.661c0.598,0.811,0.218,2.181-0.513,3.602
	c0.4,0.241,0.928,0.506,1.66,0.788c2.678,1.029,2.579,1.715,2.579,1.715c-0.729-0.036-1.427,0.357-1.427,0.357
	s9.276,5.114,15.462,11.062c6.185,5.946,18.91,19.149,18.91,19.149s1.903-2.378,1.31-3.806c-0.596-1.428,0.118-2.854,0.238-4.758
	c0.117-1.903,1.783-2.259,1.783-2.259l-3.093-4.163l9.634-16.532l25.335,0.119c0,0-0.119-3.687,0.951-5.709
	C535.702,359.148,535.107,359.505,532.253,358.792z"/>
<path id="Campeche" fill="#3dffa6" stroke="#231F20" stroke-miterlimit="10" d="M559.63,327.768c-0.672-0.209-1.336-0.523-1.448-0.971
	c-0.237-0.951,1.07-1.189,1.07-1.189l-1.188-1.189l1.427-2.022v-25.691c0,0-1.351-1.306-2.86-2.836l-2.729-2.874
	c-2.023-2.259-3.213-4.757-3.45-6.303c-0.238-1.546-1.903-3.568-3.212-3.331c-1.308,0.238-2.021-1.784-2.021-1.784
	s-0.596,0.595,0.117-0.476c0.714-1.07-1.427-3.568-2.854-4.758c-1.428-1.189-0.357,1.427-2.854,1.07
	c-2.498-0.356-1.785-2.259-1.785-2.259l-2.854-0.595v-7.622c-1.115,2.2-0.337,3.644-1.508,5.835
	c-2.769,5.18,2.745,15.683-2.8,17.477c-1.538,0.497-2.465,6.61-2.578,9.187c-0.111,2.577-14.004,10.531-14.9,11.54
	c-0.896,1.008-2.128,1.344-2.801,1.344c-0.67,0-0.336,0.896-1.345,1.344c-1.008,0.449-3.655,1.814-4.48,1.009
	c-1.265-1.235-7.305-0.384-11.359,0.358c0.396,1.571,1.045,3.485,1.927,3.893c1.546,0.713,4.163,0.595,4.163,0.595
	s-0.357,5.828,0.831,6.661c1.19,0.833,9.873,5.114,9.873,5.114s0-6.065,1.903-6.065s1.666,1.546,4.877,2.616
	c3.21,1.07,4.399,1.309,6.303,1.546l0.105,3.568h36.29C559.49,330.959,559.29,329.647,559.63,327.768z"/>
<g id="QuintanaRoo">
	<path fill="#3dffa6" stroke="#231F20" stroke-miterlimit="10" d="M606.302,259.123c-0.225-2.682-0.896-1.457-1.903-4.369
		c-1.01-2.913-3.025-4.146-4.034-3.81c-1.009,0.336-0.505,1.974-1.346,2.689c-0.823,0.702-3.992,0.179-7.563-0.678l0.149,10.328
		c-0.834,4.163-9.873,13.559-11.895,14.749c-2.023,1.189-6.542,0.713-7.375,2.498c-0.832,1.784-3.568,1.07-3.687,2.497
		c-0.12,1.428-2.498,2.736-2.855,3.806c-0.356,1.071-0.595,1.19-2.854,1.428c-2.259,0.238-0.118,1.784-0.832,2.735
		c-0.713,0.952-2.022,0.476-2.022,0.476c0.237,4.163-1.546,0.714-1.546,0.714l-1.909,1.684c1.51,1.53,2.86,2.836,2.86,2.836v25.691
		l-1.427,2.022l1.188,1.189c0,0-1.308,0.238-1.07,1.189c0.112,0.448,0.776,0.762,1.448,0.971c0.029-0.162,0.061-0.326,0.099-0.495
		c0.477-2.142,5.296,1.578,5.296,1.578s5.892-7.461,6.836-11.569c0.429-1.869,4.4-0.476,4.4-0.476s0.689-1.025,0.882-2.498
		c0.189-1.473,4.288-5.555,4.288-5.555l0.784,1.904c0.672,1.456,0.225,1.793-0.784,3.809c-1.009,2.017-0.111,2.241,0.896,2.801
		c1.009,0.56,2.128,1.905,2.128,1.905s0.193,4.64-2.352,9.634c-0.204,0.399,1.119-0.56,1.792-1.569
		c0.672-1.008,2.017-3.584,2.017-3.584l-0.225-3.361c0,0,1.01-2.017,1.569-4.37s-0.094-3.15,0.448-4.033
		c1.317-2.145,3.47-7.04,3.693-8.608c0.224-1.568,1.124-3.043,1.124-3.043c1.008-1.457,1.343-1.793-0.112-1.681
		c-1.456,0.112-1.68,1.681-1.68,1.681c-2.017,2.353-2.241,1.457-1.457-1.569c0.784-3.025,5.385-0.467,4.705-4.257
		c-0.821-4.58-3.781,2.572-6.146-0.873c-1.581-2.305,0.433-2.041,1.44-2.041s1.567-2.353,2.8-2.8
		c1.232-0.449,1.31-1.702,0.896-3.025c-1.429-4.585,1.359-7.676,3.024-9.411C603.185,268.78,606.892,266.167,606.302,259.123z"/>
	<path fill="#3dffa6" stroke="#231F20" stroke-miterlimit="10" d="M602.308,278.507c0,0,3.014-2.299,4.203-4.044
		s1.587-2.378-0.078-1.903c-1.666,0.476-1.983,0.158-2.935,0.158c-0.952,0-1.03,0.872-1.348,2.141
		C601.832,276.129,601.277,277.714,602.308,278.507z"/>
	<path fill="#3dffa6" stroke="#231F20" stroke-miterlimit="10" d="M594.301,252.34c0,0,2.616,0.555,3.092,0.317s1.189-1.11,1.189-1.11
		s-2.141-0.396-3.013-0.159S594.301,252.34,594.301,252.34z"/>
</g>
<path id="Oaxaca" fill="#3dffa6" stroke="#231F20" stroke-miterlimit="10" d="M460.771,366.135c-0.206-0.134-0.405-0.265-0.581-0.386
	c-1.07-0.741-2.044-0.996-3.953-1.071c-4.791-0.187-1.702-1.469-0.946-2.553c0.445-0.641,0.658,0.453,1.729,1.317
	c1.069,0.865,1.853,0.453,2.553,0.577c0.509,0.09,0.652,0.55,1.717,1.189c0.73-1.421,1.11-2.791,0.513-3.602
	c-1.666-2.26-1.974-2.669-0.476-6.661c0.272-0.727,3.043-7.976,4.672-11.288l-20.928-0.329l-0.118-2.498
	c0,0-4.877-2.022-5.947-4.044c-1.07-2.022-1.666-2.379-0.119-3.092c1.547-0.714,0.595-2.022-1.071-1.665
	c-1.665,0.357-5.708,4.282-5.708,4.282l-3.567-0.238c0,0-3.331-3.331-3.331-4.639c0-1.309,4.044-3.568,0.951-7.612
	c0,0-5.233,0.595-7.137-1.071c-1.902-1.665-4.399-7.255-6.897-8.563c-2.498-1.308-2.854-1.546-2.736,0.119
	c0.119,1.666,1.07,3.687,0,4.044c-1.07,0.356-1.902,0.713-2.736,2.022c-0.831,1.308-1.189,1.189-3.209,1.665
	c-2.023,0.476-0.156,0.951-4.521,0.951c-4.163,0-3.094,3.45-6.066,2.855c0,0-3.093-2.378-2.617-3.093
	c0.476-0.713,0-2.616-1.665-2.141s-2.497,2.617-2.141,4.044c0.356,1.427,0.238,2.379,0.238,2.379s2.022-2.379,2.378-1.784
	c0.358,0.595,0.714,1.665-0.714,2.26c-1.427,0.594-2.378,1.07-4.043,0.356c-1.665-0.713-3.806-1.427-4.281-0.119
	c-0.476,1.308-0.12,0.951-1.785,0.951s-5.232,2.26-4.4,4.401s2.854,1.903,3.33,3.806c0.476,1.902,0.595,2.617,0.119,3.806
	c-0.476,1.189,0,1.903,1.427,2.142l0.357,1.902c0,0,5.114,1.427,4.044,2.26c-1.071,0.833-2.261,0.833-1.071,3.092
	c1.19,2.26-3.866,3.182-3.448,4.044c1.903,3.925-2.013,1.051-2.735,2.498c-0.595,1.189,2.259,2.974-0.833,3.568
	c-0.953,0.183-1.702,0.841-2.282,1.663c0.791,0.578,1.578,0.952,2.258,0.903c4.259-0.304,13.26,5.971,13.26,5.971
	s11.941,0.674,13.137,2.06c1.975,2.289,7.781,3.335,8.976,3.871c1.195,0.536,8.004,0.487,8.688-0.042
	c2.69-2.073,10.499-4.477,15.903-6.113c1.574-0.477,1.995-3.944,6.334-4.059c0.209-0.006,6.258,0,6.341-0.741
	c0.083-0.741-1.111-0.495-3.912-0.289c-2.8,0.206-2.224-0.412-2.224-0.412s2.252-2.531,3.789-3.706
	c1.554-1.188,1.935,2.883,1.935,2.883s2.1-1.565,3.419-1.235c1.317,0.329,0.576,0.906-1.153,2.017
	c-1.729,1.112,0.082,1.195,2.388,1.565c1.535,0.247,5.49,1.822,8.149,2.741c1.34,0.463,2.352,0.76,2.559,0.635
	C463.096,367.623,461.827,366.822,460.771,366.135z"/>
<path id="Jalisco" fill="#3dffa6" stroke="#231F20" stroke-miterlimit="10" d="M311.938,250.993l-0.158-3.806l1.647-0.825
	c-0.614-1.046-1.231-2.105-1.806-2.188c-1.11-0.158-3.014-3.013-3.014-3.013s-0.792-0.317-1.902,0.952
	c-1.11,1.269,0.793,1.744,0.793,1.744s-0.634,0.635-2.379,0.793c-1.745,0.158-3.33,3.33-5.867,4.757
	c-2.538,1.427-8.088-2.22-8.088-2.22s-1.245,0.391-2.099,1.279c0.047,0.042,0.076,0.068,0.076,0.068s-0.029-0.026-0.076-0.068
	c-0.365,0.379-0.661,0.847-0.755,1.417c-0.317,1.903,3.171,0,3.33,3.331s-0.159,1.744-3.489,3.806
	c-3.331,2.061-3.647,0.792-4.599,0.792s-0.792,3.171-0.792,3.171c-0.634,2.538-2.379,1.111-4.282,1.269
	c-1.903,0.159-3.014-1.745-3.965-1.903s-1.269,1.586-2.062-0.317c-0.793-1.903-2.062-1.903-2.379-2.696
	c-0.317-0.792,1.269-0.158,2.854-1.11c1.586-0.951,0.952-1.427-1.11-2.062c-2.061-0.634-1.269-2.537,0.159-2.854
	c1.427-0.317,2.062-1.903,1.427-4.123c-0.634-2.221,1.11-1.11,1.11-1.11s4.282-3.489,5.709-4.123
	c1.427-0.635,0.792-1.903,1.585-2.062c0.793-0.158,0.159-1.11,0.634-1.585s1.11-1.903-0.158-2.062
	c-1.269-0.159-3.806,1.269-2.22-0.792s1.11-2.062-1.11-2.378c-2.221-0.317-3.013,1.427-1.586,2.378
	c1.427,0.952,0.952,0.952-0.476,2.379c-1.427,1.427-2.062,1.585-3.806,1.903c-1.744,0.317-2.379-0.635-2.379-0.635
	c2.379-3.172,0.635-3.331,0.635-3.331l1.427-3.013c1.11-2.379-3.489-2.854-3.489-2.854c-2.22,3.172-0.634,8.563-2.22,8.405
	s-0.952-6.819,1.269-9.356c2.22-2.538-0.634-2.696-2.696-3.013c-2.061-0.316-2.378,0.159-1.744,2.855
	c0.634,2.696,2.696,2.061,1.269,3.964c-1.427,1.903-2.696,1.11-2.696,1.11s2.379-3.647-0.476-3.33
	c-2.854,0.316-1.11,2.854-1.11,2.854s-1.11-1.11-1.427,0.159c-0.117,0.468-0.559,0.85-1.069,1.145l0.117,0.124
	c0.952,1.585-0.634,0.476-1.744,5.392s4.282,0.317,4.123,3.013c-0.159,2.696-1.427,2.696,3.013,3.331s1.11,2.378,2.537,4.757
	c1.428,2.379,3.331,0.634,2.696,4.599c-0.634,3.964-3.172,2.22-4.599,3.013c-1.428,0.792-2.061-0.317-4.123,0.634
	c-2.062,0.951,0.159,4.282-0.952,5.708c-1.11,1.428-3.647,1.586-2.22,2.379c1.428,0.792,2.062,1.745,2.062,1.745
	c1.585,6.185-2.221-0.159-4.283-2.379c-2.061-2.22-2.378-1.903-4.123-2.696c-1.745-0.793-2.379-2.696-4.441-0.476
	c-2.061,2.22-3.013,0.792-4.282,1.427c-1.269,0.634-0.792,2.696-1.585,3.014c-0.386,0.154-0.997,0.909-1.522,1.644
	c0.332,0.53,0.398,1.194,0.379,1.861c-0.042,1.401-1.854,1.894-3.707,1.976c-1.853,0.082-3.954,1.565-4.777,2.306
	c-0.824,0.742,0.247,1.235,1.4,2.347c1.153,1.112,1.029,2.842,1.235,4.036c0.206,1.194,1.441,2.018,2.512,4.282
	c1.071,2.265,4.818,6.094,5.807,6.918c0.989,0.823,0.906,1.153,1.441,2.553c0.535,1.4,1.112,2.183,2.347,3.047
	c1.236,0.865,2.882,0.247,2.882,0.247s-0.288,1.646,0.248,1.646c0.528,0,0.659-0.037,2.6,1.227c0.514-0.302,0.917-0.544,1.047-0.63
	c0.476-0.317,4.282-2.22,8.247-2.696c0,0,1.903-1.744,2.062-2.696c0.158-0.952,0.634-1.11,2.537-0.317
	c1.903,0.793,3.014,1.586,3.806,0.793c0.793-0.793,2.062-2.854,2.538-1.903s2.221,3.013,2.221,3.013s0,2.854,0.158,3.806
	c0.159,0.951-0.635,2.695-0.158,3.33c0.289,0.386,0.166,0.772-0.116,1.229c1.338,0.085,2.777,0.107,3.447-0.117
	c1.427-0.476,2.379-0.792,3.489,0.952s2.22-3.806,4.123-5.233c1.903-1.428,3.331-0.476,4.757-1.745c0,0,0.952,2.22,2.221-1.903
	c0,0,2.696-1.744,0.951-3.172c-1.745-1.427-2.22,1.269-3.172-1.11c-0.951-2.378-2.378-3.489-0.951-5.55
	c1.427-2.062-0.634-3.488-3.489-3.647c0,0-2.538,1.903-1.586-1.744c0,0,0.793-1.11,3.806-1.428c3.013-0.317,1.903-1.903,6.343-3.172
	c3.397-0.97,6.423-1.293,9.361-2.101c-0.709-1.084-0.164-2.183-0.164-2.183c3.013-3.013,0.792-3.806,0.792-3.806
	c-3.013-3.489-0.317-3.806,0.952-5.551c1.269-1.745,2.061-5.075,4.44-6.978c2.379-1.903,1.427-3.013,1.427-3.013
	s2.538-0.317,1.586-1.269C311.146,252.579,311.146,251.786,311.938,250.993z"/>
<path id="Guanajuato" fill="#3dffa6" stroke="#231F20" stroke-miterlimit="10" d="M348.73,256.543
	c-1.185-0.646-0.835-1.806-0.785-3.675c-1.265,0.531-2.539-0.113-3.655-0.448c-1.586-0.476-3.489-2.221-5.868-3.965
	s-3.806,1.269-3.806,1.269c-0.317,2.696-1.744,2.538-5.71,1.269c-3.965-1.269-3.488-3.488-3.488-3.488s-3.489,0.159-5.709-0.952
	c-2.221-1.11-6.185-0.159-6.185-0.159s0.014-0.037,0.041-0.1l-1.785,0.893l0.158,3.806c-0.793,0.793-0.793,1.586,0.158,2.538
	c0.952,0.951-1.586,1.269-1.586,1.269s0.952,1.11-1.427,3.013c-2.379,1.903-3.172,5.232-4.44,6.978
	c-1.269,1.745-3.965,2.062-0.952,5.551c0,0,2.221,0.792-0.792,3.806c0,0-0.952,1.904,1.269,3.172c2.22,1.269,0,1.269,0.951,2.22
	c0.951,0.951,4.282,1.427,5.867-0.476c1.586-1.903,3.807-1.902,4.758-0.792c0.952,1.11,2.379,1.269-0.476,2.379
	c0,0,0.793,0.792,1.11,2.062s3.33,1.585,3.33,1.585s1.428-1.585,2.538-1.269c1.109,0.317,2.062,2.854,2.062,2.854
	s4.916,0.951,6.818-0.159c1.903-1.11,2.695,0.158,4.281-0.952c1.587-1.11,0.317-1.11,0.952-3.33c0.635-2.22,0.951-2.854-0.476-3.647
	c-1.428-0.793-1.744-0.952-2.062-6.185c0,0-2.696-1.427-1.744-3.172c0.951-1.744,0.793-3.964,2.537-3.331
	c1.744,0.634,3.172,0.476,4.123-1.11c0,0,2.855,2.379,3.489,0c0.635-2.378,1.269-0.952,1.427-4.123c0,0-0.159-2.538,2.696-0.317
	c0,0,1.903,0.159,3.013-1.269C350.475,256.861,350.475,257.495,348.73,256.543z"/>
<path id="Michoacán" fill="#3dffa6" stroke="#231F20" stroke-miterlimit="10" d="M341.104,285.771
	c-0.109-0.508-0.169-1.363-0.202-2.144c-0.265-0.139-0.563-0.342-0.911-0.63c-1.904-1.584,1.268-1.904-0.795-3.488l-2.323-0.264
	c-0.033,0.513-0.25,1.184-0.53,2.168c-0.633,2.221,0.637,2.221-0.948,3.332c-1.586,1.111-2.38-0.157-4.281,0.955
	c-1.902,1.112-6.818,0.165-6.818,0.165s-0.954-2.537-2.064-2.853s-2.536,1.271-2.536,1.271s-3.014-0.314-3.332-1.583
	s-1.111-2.06-1.111-2.06c2.854-1.112,1.426-1.271,0.473-2.38c-0.952-1.108-3.173-1.107-4.757,0.797
	c-1.583,1.904-4.915,1.431-5.867,0.481c-0.952-0.951,1.268-0.953-0.954-2.219c-0.534-0.305-0.881-0.645-1.105-0.988
	c-2.938,0.811-5.963,1.135-9.359,2.109c-4.439,1.272-3.328,2.857-6.341,3.177c-3.013,0.32-3.805,1.431-3.805,1.431
	c-0.949,3.649,1.587,1.743,1.587,1.743c2.854,0.157,4.917,1.582,3.492,3.644c-1.425,2.063,0.003,3.173,0.957,5.55
	c0.953,2.378,1.427-0.318,3.172,1.108c1.746,1.425-0.948,3.172-0.948,3.172c-1.265,4.124-2.219,1.905-2.219,1.905
	c-1.427,1.27-2.854,0.32-4.756,1.749c-1.901,1.428-3.007,6.98-4.118,5.237c-1.112-1.743-2.063-1.426-3.49-0.948
	c-0.67,0.224-2.108,0.204-3.446,0.12c-0.182,0.295-0.428,0.619-0.676,0.993c-0.634,0.952-0.952,0.318-1.584,2.222
	c-0.365,1.1-1.418,2.093-2.244,2.737c0.388,0.414,0.604,0.774,0.57,1.044c-0.151,1.19,1.073,1.894,2.185,2.551
	c1.112,0.658,1.312,1.891,1.691,3.087c0.583,1.838,24.375,8.319,26.694,9.53c0.222,0.116,0.509-0.219,0.945-0.599
	c-0.739-0.897-1.62-2.418-0.808-3.944c1.267-2.38,6.342-1.433,6.022-4.129c-0.319-2.695,0.154-6.343,2.533-6.504
	c2.378-0.161,1.747,2.853,5.235,2.533c3.488-0.321,8.562-1.118,9.355-0.325c0.794,0.792,0.795,1.744,3.015,0.79
	c2.219-0.954,4.125,2.692,4.125,2.692s2.854-0.319,0.633-1.903c-2.222-1.583-2.856-1.901-3.017-3.962
	c-0.16-2.062-1.431-4.122-0.32-4.123s2.538,0.473,3.33-0.162c0.143-0.114,0.365-0.155,0.628-0.142
	c0.312-1.416,1.315-3.037,2.461-4.064c1.506-1.349,2.218-3.333,2.532-5.632c0.315-2.3,1.822-1.904,2.772-2.857
	c0.951-0.952-1.112-3.329-1.352-4.439c-0.238-1.11,1.664-1.19,1.981-1.35c0.317-0.159,0.87-2.935,0.87-2.935
	C343.483,286.958,341.343,286.881,341.104,285.771z"/>
<path id="Veracruz" fill="#3dffa6" stroke="#231F20" stroke-miterlimit="10" d="M470.167,340.475c-1.783-1.189-0.476-1.07,0.119-2.854
	c0.595-1.784-0.834-2.974-3.33-4.401c-2.498-1.427-0.951-1.189-3.212-2.854c-2.261-1.665-2.736-2.735-2.498-3.449
	c0.237-0.714,0.596-2.854-0.238-3.687c-0.23-0.232-0.528-0.653-0.836-1.134c-0.756,0.237-1.492,0.461-2.198,0.662
	c-6.722,1.904-7.906-1.569-8.515-3.25c-0.607-1.681-2.575-4.44-4.033-4.369c-3.289,0.161-2.703-1.89-4.817-2.577
	c-4.021-1.307-13.221-0.038-16.357-5.714c-1.372-2.482-1.12-1.904-2.353-2.913c-1.232-1.008-0.11-1.455-1.792-2.576
	c-1.68-1.12-3.024-3.137-3.137-5.154c-0.111-2.017-1.37-3.213-1.568-5.489c-0.303-3.486-15.92-19.229-16.021-21.286
	c-0.221-4.481-6.009-10.904-3.138-15.236c2.136-3.221-0.216-4.133-2.239-5.377c-2.777-1.707-5.115-7.721-6.542-12.344
	c-0.495,0.051-0.939,0.075-1.267,0.05c-1.546-0.119-2.616-1.665-2.616-1.665c-1.188-0.594-1.547-1.308-4.043-2.854
	c-2.498-1.546-2.38,0.952-2.38,0.952s-5.471-0.595-7.493,0.356c-0.006,0.002-0.014,0.005-0.021,0.008
	c1.235,0.599,2.668,1.248,4.144,1.816c4.124,1.586,3.489,2.378,2.063,3.013c-1.428,0.634-0.794,1.269-1.27,3.172
	c-0.476,1.903-2.537,0.792-2.537,0.792s0.317,1.745,1.428,3.965c1.109,2.221,1.109,2.22-0.952,3.647
	c-2.061,1.427-1.427,1.11,0.159,3.172c0.981,1.277,1.963,1.642,1.701,1.847c0.358,0.807-2.192,1.856-1.065,3.546
	c1.585,2.379,1.902,0.476,4.757,2.062c2.855,1.586,2.855,0,0.951,2.538c-1.902,2.538,0.318,5.075-0.476,5.075
	c-2.916,0-0.951-2.696-2.378-1.744c-1.428,0.951-3.331,3.33-3.331,3.33l1.903,0.159c0,0-3.172,3.013-2.062,6.344
	c1.11,3.33,6.026-2.22,8.405-4.282c2.379-2.063,1.586-0.477,2.379,1.11c0.063,0.127,0.091,0.266,0.096,0.412
	c0.8-0.535,1.718-1.321,1.807-2.158c0.159-1.506-0.794-3.33,0.316-3.964c1.111-0.634,4.124-0.08,3.489,0.792
	c-0.634,0.873-1.03,2.617-0.079,3.806c0.951,1.189,4.678,0.952,3.25,2.458c-1.427,1.507-2.299,1.427-3.25,1.348
	c-0.951-0.079-1.03,1.031-0.159,1.586c0.873,0.555,1.507,0.238-0.316,1.585c0,0-0.317,1.506,1.109,2.062
	c1.428,0.555,1.824-0.237,2.141,0.873c0.317,1.11,0.872,0.555,1.586-0.396c0.714-0.952,0.634-2.538,2.934-1.348
	c2.3,1.189,4.996,0.634,4.362,1.744s-2.775,3.647-3.251,6.106c-0.477,2.458,0.158,3.489-1.665,4.599
	c-1.825,1.11-0.715,1.427-0.081,2.934c0.636,1.507-0.158,2.299,1.429,2.458s1.666,1.031,2.775,1.189
	c1.11,0.159,4.202-0.396,3.409,1.666c-0.792,2.061-0.158,2.854-1.348,2.299c-1.189-0.555-3.014-1.427-3.41,0
	c-0.396,1.427-0.873,1.983-0.555,3.647c0.317,1.666-0.715,2.3-1.35,3.568c-0.633,1.269-0.554,2.062,1.271,3.172
	c1.823,1.11,2.617,0.634,3.014,1.744c0.396,1.11,0.555,2.379,2.22,1.031c1.502-1.216,4.161-0.616,5.425,2.541
	c0.241-0.103,0.492-0.192,0.759-0.281c1.07-0.357,0.119-2.378,0-4.044c-0.118-1.665,0.238-1.427,2.736-0.119
	c2.498,1.309,4.995,6.898,6.897,8.563c1.903,1.666,7.137,1.071,7.137,1.071c3.093,4.044-0.951,6.304-0.951,7.612
	c0,1.308,3.331,4.639,3.331,4.639l3.567,0.238c0,0,4.043-3.925,5.708-4.282c1.666-0.357,2.618,0.951,1.071,1.665
	c-1.547,0.713-0.951,1.07,0.119,3.092c1.07,2.021,5.947,4.044,5.947,4.044l0.118,2.498l20.928,0.329
	c0.503-1.023,0.898-1.675,1.076-1.637c1.588,0.334,2.73-0.224,3.599-1.216C470.49,340.687,470.317,340.575,470.167,340.475z"/>
<path id="NuevoLeón" fill="#3dffa6" stroke="#231F20" stroke-miterlimit="10" d="M372.042,165.991l0.119-11.061l-4.877-0.833
	c0,0-0.951,1.784-1.308,1.546c-0.357-0.238-2.736-3.568-2.855-3.211c-0.118,0.357-1.664,2.022-2.259,1.785
	c-0.595-0.239-1.07-4.521-1.07-4.521s-3.449-0.833-4.401-1.784l0.238-5.947c0,0-2.26-2.141-3.568-2.021
	c-1.309,0.119-1.784-0.714-0.356-2.022c1.427-1.308-0.238-3.211-2.261-3.092c-2.021,0.119-0.118-0.238,0.833-2.26
	s0.119-1.308-0.714-3.449c-0.832-2.141-0.832-5.947-0.832-5.947l-3.449-1.19l-0.119-1.665l4.302-2.91
	c-0.729-0.697-1.401-1.512-2.044-2.385c-1.219,1.582-3.203,4.106-3.447,4.106c-0.357,0-3.568-4.044-3.568-4.044l-3.806,2.498
	l-1.19,6.661c0,0-3.806,0.119-5.471,1.427c-1.665,1.309-2.735,3.092-2.735,3.092s0,3.687,1.309,3.093
	c1.308-0.595,1.07-1.785,3.687-0.238c2.617,1.546,0.595,5.946,0.595,5.946l-2.616,3.568l-1.665-2.021l-8.445,7.612
	c0,0,1.903,2.617,3.212,4.282s2.497,2.854,2.497,4.52c0,1.665,2.26-0.238,1.546,2.616c-0.713,2.854,0.238,1.666,0.477,3.33
	c0.237,1.666,1.665,1.666,1.665,1.666s0.595,1.784,3.449,2.378l-0.952,1.071c0,0,2.736,0.476,2.974,1.665
	c0.238,1.189-1.052,1.235,2.498,1.666c3.925,0.476,2.389,3.89-1.546,2.854c-2.26-0.594-7.612-2.616-8.088,2.141
	c-0.477,4.758,2.379,2.974,0.714,5.114c-1.666,2.142-0.596,2.022-0.596,2.022l0.119,4.995l0.714,2.26c0,0,0.477-1.903,1.784-0.595
	c1.309,1.309,1.427,2.617,0.832,4.401c-0.594,1.784,2.617,1.309,2.142,3.687c-0.476,2.379-1.189,3.449,0.356,6.898
	c1.546,3.45,0,4.639-0.118,6.661c-0.119,2.021,0.951,1.546,1.07,4.282c0.118,2.736,2.735,3.092,2.616,2.379
	c-0.119-0.714-1.665-1.071,0.238-2.141c1.902-1.07,1.07-0.238,2.141,0.356c1.07,0.595,3.211,0.238,2.379-0.713
	c-0.833-0.951-1.427-2.26,1.546-2.379l1.903,0.238c0,0-2.142-4.401-0.476-6.303c1.665-1.903,0.832-2.974,3.568-2.617
	c2.735,0.357,3.211,0.595,4.52-0.713c1.308-1.308,2.26-0.952,0.237-3.211c-2.021-2.26-2.974-1.665-2.379-5.352
	c0.596-3.687,1.784-5.947-0.832-6.304c-2.617-0.356-1.546-1.308-0.476-1.784s3.806-0.833,4.639-2.617
	c0.832-1.785,3.33-2.26,4.281-1.665c0.952,0.595,0.714,0,1.189-1.785c0.477-1.784-0.237-3.33,1.07-4.52
	c1.309-1.189,2.498,1.189,7.137-2.498C372.756,169.321,379.654,165.872,372.042,165.991z"/>
<path id="Tamaulipas" fill="#3dffa6" stroke="#231F20" stroke-miterlimit="10" d="M398.82,156.167c-2.352,0.784-2.465,3.025-4.93,1.569
	c-2.464-1.457-4.257-3.809-9.074-3.585c-4.816,0.224-8.626-3.137-10.979-3.697s-3.921-1.568-5.49-2.913
	c-1.568-1.344-6.161-1.232-6.161-1.232l-0.337-2.465l-1.231-0.448l-0.896-4.144c-0.784-4.706-4.257-5.042-4.369-8.739
	s-0.863-2.87-1.311-4.327c-0.448-1.456,0.912-6.175-1.19-6.739c-1.282-0.345-2.389-1.08-3.389-2.038l-4.302,2.91l0.119,1.665
	l3.449,1.19c0,0,0,3.806,0.832,5.947c0.833,2.141,1.665,1.427,0.714,3.449s-2.854,2.379-0.833,2.26
	c2.022-0.119,3.688,1.784,2.261,3.092c-1.428,1.309-0.952,2.141,0.356,2.022c1.309-0.119,3.568,2.021,3.568,2.021l-0.238,5.947
	c0.952,0.951,4.401,1.784,4.401,1.784s0.476,4.282,1.07,4.521c0.595,0.238,2.141-1.428,2.259-1.785
	c0.119-0.357,2.498,2.974,2.855,3.211c0.356,0.238,1.308-1.546,1.308-1.546l4.877,0.833l-0.119,11.061
	c7.612-0.119,0.714,3.33-3.925,7.017c-4.639,3.688-5.828,1.309-7.137,2.498c-1.308,1.189-0.594,2.736-1.07,4.52
	c-0.476,1.785-0.237,2.379-1.189,1.785c-0.951-0.595-3.449-0.12-4.281,1.665c-0.833,1.784-3.568,2.141-4.639,2.617
	s-2.142,1.427,0.476,1.784c2.616,0.357,1.428,2.617,0.832,6.304c-0.595,3.687,0.357,3.092,2.379,5.352
	c2.022,2.26,1.07,1.903-0.237,3.211c-1.309,1.308-1.784,1.07-4.52,0.713c-2.736-0.356-1.903,0.714-3.568,2.617
	c-1.666,1.902,0.476,6.303,0.476,6.303l-1.903-0.238c-2.973,0.119-2.379,1.428-1.546,2.379c0.485,0.556-0.043,0.906-0.779,0.986
	l0.423,2.701c0,0,2.497,0.833,1.546,1.665c-0.952,0.833-2.379,2.141-0.714,2.617c1.665,0.476-1.189,3.568-0.356,3.925
	c0.832,0.356,1.308-0.833,3.092-0.357s1.784,2.378,4.163,1.784c2.379-0.594,3.925,2.617,4.639,1.071
	c0.714-1.547-2.141-1.666-1.309-2.855c0.833-1.189,1.547,2.141,3.331,1.903c1.783-0.238,2.735,5.234,2.735,5.234
	s8.683,1.07,10.704,0.119c2.022-0.952,7.493-0.356,7.493-0.356s-0.118-2.498,2.38-0.952c2.496,1.546,2.854,2.26,4.043,2.854
	c0,0,1.07,1.546,2.616,1.665c0.327,0.025,0.771,0.001,1.267-0.05c-0.73-2.368-1.223-4.372-1.413-5.245
	c-0.56-2.577,0.976-3.774,1.232-5.713c0.619-4.652,1.569-21.734,1.12-22.854c-0.447-1.12-0.672-6.946,0-9.411
	c0.673-2.465-0.224-2.913-0.224-2.913c-0.447,0.561-0.896,1.233-1.681-0.448s0.673-2.577,0.673-2.577
	c1.681,1.344,1.344,1.344,1.792-1.232s-0.225-4.594,0.896-6.162c1.12-1.569-0.337-1.681-0.562-2.913
	c-0.223-1.232,1.569-2.353,0.673-3.473c0,0-1.119-1.905-0.56-4.146c0.56-2.241,1.905,1.905,3.248,1.232
	c1.346-0.672,0.113-3.473,0.113-3.473c0.673-0.672,2.688,1.232,2.688,1.232s-3.013,7.424-2.129,7.058
	c0.596-0.246,7.019-12.934,7.395-19.268C400.787,155.131,398.82,156.167,398.82,156.167z"/>
<g id="Sonora">
	<path fill="#3dffa6" stroke="#231F20" stroke-miterlimit="10" d="M93.744,90.915c-0.166,0.658,4.223,3.182,5.759,2.469
		c1.536-0.713,1.701-5.431,1.152-7.296c-0.548-1.865-0.604-4.005-2.962-2.907c-2.358,1.097-2.448,0.716-2.249,2.962
		C95.828,90.476,93.908,90.257,93.744,90.915z"/>
	<path fill="#3dffa6" stroke="#231F20" stroke-miterlimit="10" d="M93.305,95.578c0,0-0.823-1.755-0.109-1.81
		c0.713-0.055,1.865-0.109,1.7,0.658C94.731,95.194,93.305,95.578,93.305,95.578z"/>
	<path fill="#3dffa6" stroke="#231F20" stroke-miterlimit="10" d="M172.938,130.428c0,0-1.784-1.07-0.832-3.449
		c0.951-2.379-0.833-6.423-1.785-7.493c-0.951-1.071,0.595-2.379-2.497-2.855c-2.231-0.343-1.19-1.308-0.595-1.903
		c0.595-0.594-0.477-1.784-2.379-3.925c-1.903-2.141-1.427-5.114-1.665-6.065c-0.238-0.952,3.092,0,5.471-0.119
		c2.379-0.119,2.141-0.713,4.044-1.427c1.903-0.714,1.903-1.427,1.903-1.427c-0.951-9.396-4.044-9.634-4.163-16.057
		c-0.044-2.378-0.952-3.806-0.952-3.806s3.449,0.119,2.022-2.022c-2.05-3.075,0.595-3.331,0.595-3.331
		c-0.714-4.282,0.238-4.757,1.784-5.59c1.546-0.833-1.308-1.546-1.308-1.546l-0.119-10.348c0,0,3.688,0,1.308-1.308
		c-2.378-1.308-0.951-2.736-0.951-2.736s-0.476-1.189-1.903-2.854c-1.428-1.666-3.211-1.309-3.211-1.309
		c0-3.449-1.546-2.974-1.546-2.974c-0.595-4.757,0.238-3.687,2.498-4.282c0,0-0.119-1.546,2.022-1.665
		c2.141-0.119-2.498-2.617-2.498-2.617s0.357-1.427-0.833-1.903s-0.833-0.357,0.753-1.149c0.598-0.299,1.149-1.003,1.606-1.764
		h-46.035c0,0-65.313-24.199-70.131-26.215c0,0-1.331-0.433-2.419-1.087c-1.993-0.043-4.228,0.108-4.339,0.997
		c-0.476,3.806-3.005,4.563-2.379,5.075c3.489,2.854,0.159,6.661,2.538,8.405c0.528,0.388,2.587,1.033,5.065,2.541
		c0.714,0.291,1.479,0.573,1.871,0.573c0.906,0,7.294,5.94,8.34,6.083c1.046,0.143,4.148-1.041,4.229-2.757
		c0.047-0.998,6.558,2.187,6.511,3.279c-0.187,4.286-0.103,3.411,8.269,4.99c2.406,0.454,3.876,2.675,2.471,5.465
		c-3.517,6.986,4.566,13.784,4.566,13.784l-0.041,2.8l0.782,0.659c0.947,0.782,0.865,0.452,0.947,1.729
		c0.083,1.276,0.371,2.718,0.618,3.17c0.247,0.453-0.33,3.171-0.33,3.171l1.318,0.041c0.817,0.856,4.227,8.389,6.012,9.513
		c1.034,0.651-1.112,1.771-0.618,3.129s3.253,0.658,3.624,1.193c0.371,0.535,0.042,1.978,0.412,2.636
		c0.371,0.659,0.453,1.195,0.7,3.13c0.247,1.936,2.141,3.294,3.541,4.447c1.401,1.153,2.595,0.988,3.007,1.606
		c0.412,0.618-1.771,0.33-2.018,0.659c-0.248,0.329,2.512,2.676,3.336,3.541c0.823,0.864,0.823,2.183,1.606,3.006
		c0.782,0.823,3.728,0.769,4.036,1.482c0.078,0.181,5.567,9.728,8.277,10.377c0.925,0.222,0.536-0.494,1.071-0.535
		c0.536-0.042,0.577,0.494,1.112,1.195c0.535,0.7,1.194,1.4,1.771,1.4c0.577,0,0.33-0.618,0.247-1.524
		c-0.082-0.906,0.248-1.276,0.494-0.741c0.248,0.535,0.947,0.535,2.224,0.947c1.277,0.412,3.047,0.412,3.666,1.07
		s-0.783,1.195-0.783,1.195c-1.112,1.111,0.042,0.865,0.206,1.523c0.165,0.658-0.412,1.688-0.659,2.141
		c-0.248,0.453,0.165,1.812,0.618,3.542c0.453,1.729,1.44,1.276,2.1,2.676s-1.07,1.359-1.07,1.359
		c3.36,1.076,5.131,5.375,9.348,4.653c2.853-0.488,3.287,1.633,3.294,3.048c0.034,6.207,4.179,6.58,6.794,6.177
		c0.91-0.141,0.165-0.989,0.7-1.442c0.536-0.453,1.977,1.813,3.542,3.377c1.565,1.565,1.895,4.159,1.895,4.283
		c0,0.124-0.536,2.101-1.139,3.83c-0.086,0.248-0.211,0.517-0.358,0.795c3.055-1.99,7.001-4.561,6.781-4.414
		c-0.357,0.238,5.709-2.022,2.498-2.141c-3.211-0.119,1.189-1.427,2.735-1.903c1.547-0.476,5.353-8.683,5.353-8.683
		C172.819,133.282,173.414,132.45,172.938,130.428z"/>
</g>
<path id="Chihuahua" fill="#3dffa6" stroke="#231F20" stroke-miterlimit="10" d="M272.228,84.246c0,0-2.518-0.636-4.127-2.538
	c0,0-4.056-0.798-5.958-2.226c-1.903-1.428-3.135-3.191-3.135-3.191c-3.249-1.008-5.265-4.258-7.394-8.067
	c-2.128-3.809,1.121-6.833-1.568-9.074c-2.689-2.241-2.465-4.146-2.913-5.826c-0.448-1.681-3.148-5.322-6.162-5.825
	c-4.467-0.747-14.035-14.482-19.045-15.349c-3.247-0.562-3.249-6.834-5.489-7.394c-2.241-0.561-2.242-1.344-2.242-1.344H180.92
	v11.091h-11.213c-0.457,0.761-1.008,1.465-1.606,1.764c-1.586,0.792-1.943,0.674-0.753,1.149s0.833,1.903,0.833,1.903
	s4.639,2.498,2.498,2.617c-2.141,0.119-2.022,1.665-2.022,1.665c-2.26,0.595-3.092-0.476-2.498,4.282c0,0,1.546-0.476,1.546,2.974
	c0,0,1.784-0.357,3.211,1.309c1.427,1.665,1.903,2.854,1.903,2.854s-1.427,1.428,0.951,2.736c2.379,1.308-1.308,1.308-1.308,1.308
	l0.119,10.348c0,0,2.854,0.713,1.308,1.546c-1.546,0.833-2.498,1.309-1.784,5.59c0,0-2.645,0.256-0.595,3.331
	c1.427,2.141-2.022,2.022-2.022,2.022s0.908,1.427,0.952,3.806c0.119,6.423,3.211,6.661,4.163,16.057c0,0,0,0.713-1.903,1.427
	c-1.903,0.714-1.665,1.308-4.044,1.427c-2.379,0.119-5.709-0.833-5.471,0.119c0.238,0.951-0.238,3.925,1.665,6.065
	c1.902,2.141,2.974,3.331,2.379,3.925c-0.595,0.595-1.636,1.561,0.595,1.903c3.092,0.476,1.546,1.784,2.497,2.855
	c0.952,1.07,2.736,5.114,1.785,7.493c-0.952,2.378,0.832,3.449,0.832,3.449c0.351,1.489,0.125,2.332,1.214,2.863
	c0.375-0.541,0.962-1.027,1.879-1.079c2.141-0.119,5.59-0.476,4.757,1.784s1.546,0.714,2.974,2.854
	c1.427,2.141,0.833,3.449-0.119,4.52c-0.952,1.071,3.092,0.952,1.308,3.568c0,0-0.476,0.595,1.903,3.806
	c2.378,3.211,2.378,3.33,4.876,2.736c2.497-0.595,1.546,1.07,2.735,1.308s1.427-1.308,3.211-0.119
	c1.785,1.189,0.595,3.331,2.379,4.996c1.784,1.665,3.092,4.043,4.282,4.401c0.835,0.25,1.491,0.503,1.108,1.125
	c0.561-0.014,1.064,0.01,1.35,0.105c0.952,0.317,0.476,0.793,0.476,0.793l4.599,0.317l1.11-1.427
	c3.806-3.965,0.634-1.744,0.634-1.744l-0.158-4.758l1.902-1.11c0.159-2.854,1.11-5.075,2.855-7.294
	c1.744-2.221,1.269-6.185,2.695-8.247c1.428-2.062,1.428-3.806,2.696-3.013s5.075,4.44,5.233,3.172
	c0.159-1.269,1.111,0.634,2.379,1.11s2.538,2.062,2.538,2.062c5.708,0.317,2.061,1.903,4.123,1.745
	c2.062-0.159,5.075-0.634,5.075-0.634c4.123,3.331,2.854-3.489,7.295,0.951c4.44,4.44,4.282,0.634,4.44-0.951
	c0.158-1.585,3.489-4.123,3.806-6.344c0.317-2.22,1.11-0.634,4.123,0.317c1.503,0.475,4.692,0.758,7.694,1.314
	c-0.383-1.041-0.92-2.095-1.667-2.9c-2.062-2.22-0.952-2.22,0.158-4.124c1.11-1.903-0.158-2.537-0.634-4.44
	c-0.476-1.903-1.586-2.378-1.586-2.378l0.476-4.282c0.158-3.965-2.062-9.516-2.062-9.516c3.172,1.111,1.269-1.903,1.269-1.903
	l6.026-13.48c1.571-0.209,4.595-5.191,6.467-8.55C276.5,87.068,274.054,84.703,272.228,84.246z"/>
</svg>
