<?xml version="1.0" encoding="utf-8"?>
<!-- Generator: Adobe Illustrator 16.0.0, SVG Export Plug-In . SVG Version: 6.00 Build 0)  -->
<!DOCTYPE svg PUBLIC "-//W3C//DTD SVG 1.1//EN" "http://www.w3.org/Graphics/SVG/1.1/DTD/svg11.dtd">
<svg version="1.1" id="레이어_1" xmlns="http://www.w3.org/2000/svg" xmlns:xlink="http://www.w3.org/1999/xlink" x="0px"
	 y="0px" width="960px" height="580.333px" viewBox="0 0 960 580.333" enable-background="new 0 0 960 580.333"
	 xml:space="preserve">
<path id="WesternCape" fill="#eeeeee" stroke="#000000" stroke-miterlimit="10" d="M320.188,519.563c0,0-5.667-4.78-7.78-3.565
	c-1.907,1.097-1.611,0.133-2.532,0.003c-2.077-0.293-0.938-3.063,1.313-3.406S316,510.5,316,510.5h3.594
	c0,0,0.563-1.109-0.531-2.141s-3.813-2.109-3-3.609c1.693-3.125-4.063-4.25-4.063-4.25h-6.438c-4.125-4-7.813-2.625-10.438-1.813
	s-12.875,1.5-15,0.438s-2.692-2.008-0.417-4.167c1.625-1.542,8.565-9.817,8.75-11.75c0.642-6.72,2.917-7.833,3.625-7.833
	s1.875,1.125,2.417-1.75c1.227-6.516,8.25-0.125,10.625-0.208s3.708-0.959,1.625-2.667s-3.458-4.292-3.458-4.292l-0.083-4.208
	c-0.833-1.125-3.333-2.542-2.74-4.938c1.356-5.473,5.115-3.896,6.115-3.729s0.469,1,2.333-0.583
	c3.369-2.861,11.083-1.167,11.083-1.167c-3.625-1.917,2.875-9.167,5.969-5.803c4.18,4.546,14.031-2.906,13.813-4.906
	s0.719-2.583,2.969-4.333s0.667-4.208-2.625-4s-0.917-0.416,0.708-2.791s-0.375-2.5-2.208-1.917s-2.75-1.958-2.917-2.625
	s-2.917-4.125-4,0.708s-2.958,3.167-3.917,2.167s-1.875-1.25-1-2.292s0.167-2.166-1.042-2.041s-1.75-0.126-2.438-1.376
	s-3.37-2.006-6.063-0.688c-3.614,1.77-5.688,1.438-6.188,1.438s-6.313-1.375-9.75,5.375c-5.074,9.963-9,6.438-8.938,4.563
	s0.5-1.953-1.125-1.875c-4.315,0.207-7.125,0.063-7.063-1.313s-0.75-0.875-2-0.188s-1.688,2-2.5-0.188s-0.25-1.875-5.125-0.938
	S271.75,427,271.75,427c4.925-4.6-5.422-4.505-10.25-7.5c-5.59-3.468-8.5,11.875-8.5,11.875c-0.625-0.375-4.105-0.367-2.917,5.208
	c2.149,10.081-3.75,2.418-3.75,6.751s-6.272,5.9-7.833,5.167c-14.573-6.847-12.5,2.666-12.5,2.666
	c-19.167,4.833-18.167,14.167-18.167,14.167L198,465.667c-7,3.833-5.667,2-3.833,5.834c3.667,7.668-10.333,7-10.333,6.685
	s-0.5-3.685-3.333-0.685s-9.5-4.834-9.5-4.834c-7.5-2.667-9-16.666-9-16.666c2.333-0.166,7.5-5,6-8.334s-6.5-1.166-8.167,1.167
	S159,452.167,153,453.667s-9-0.833-12.167,8.5s-5.333,3-5.333-0.833s1-0.667-1.057-5.5s-1.796-3.938-0.609-7.333
	c4.713-13.483-19-17.167-19-17.167c6.833-11.833-4.75-30.084-4.917-36.084s4.333-4.167,3-5.167s-5.417-1.333-2.917-2.25
	c4.274-1.567,2.333-6.916-0.833-7.583s-3.583-0.333-4.417-3.333s-2.417-3.917-4.083-3.584s-2,0.332-3-1.334
	c-1-1.668-2.583-6.001-5-3.918s0,7.415,0,7.415c-5.583-11.334-6.792,3.058-6.792,3.058c-1.313,3.688-6.626,8.929-10.563,6.241
	c-7.431-5.072-5.814,3.857-5.814,3.857c-9.125,0.313-2.941,4.965-2.941,4.965c-2.999,0.73-4.62,2.972-5.487,5.386
	c5.638,7.734,10.593,14.462,12.433,17.497c5,8.25,13.25,22,11,38.5s-8.167,18.334-14.167,16.334s-5.5,4.668-3.833,10.834
	c0,0,1.125-3.293,4-1.043s-0.742,1.374,5.5,8.209c1.47,1.609-0.833,0.667-1.833,1.5s3.262,1.574,3.417,6.583
	c0.03,0.979,5.417,0.083,7.917,8.208s5.015-0.78,6.5,13.625c0.361,3.501-2.125,1.5-4,2.625s-0.75,2.5-1,5.625
	s-1.625,5.25,1.875,11.125c0,0-5-12.25,9.25-11.25s8.875,5,9.125,13.125c0,0,3.875-1.25,7-1.125s5.125,1,6.125,2.75
	s2.25,0.75,3.75,0.875s9,2.125,5.625,8c0,0,5.625,2.021,10.25,5.875c3,2.5,6.741-1.172,13.125,1.5c2.532,1.06,3.125,3.25,7.25-0.75
	s1.458-2.292,4.625-2.958s8.917-4.332,12.417-8.166s12.417-2.5,15.5-1.667s1.833-1.499,1.75-2.583s12.333-2.876,16.958-0.376
	s5.875,1,8.25-0.625s9.75-1,15.125,0s6.375-2.75,6.375-4.5s6-3.75,8.625-3.125c0,0,0.625-7.25,6.875-7s9.803-0.076,14-2.875
	c1.272-0.849,8.5,0.875,12.5,2.75s18.958,0.501,22.958,2.501c0,0-0.833-4.834,5.5-4.667c1.453,0.038,3.402,0.078,5.617,0.143
	C317.88,521.386,320.188,519.563,320.188,519.563z"/>
<path id="NorthernCape" fill="#eeeeee" stroke="#000000" stroke-miterlimit="10" d="M344.688,425.906
	c1.686,0.691,3.688,0.49,3.938-0.599s0.875-1.433,1.813-1.433l6.281,0.25c0,0-0.218-14.083,5.448-14.375s7.333,0.938,10.021-2
	s9.438-3.958,11.688-3.958s2.917-3.375,5.75-1.75s5.822,1.796,5.167-1.125c-0.458-2.042,2.417-2.958,3.167-3.042
	s4.125-9.499,1.75-10.958c0,0,2.125-1.875,2.417-2.792s-1.583-0.874-2.667-0.708c-0.736,0.112-0.569-3.494-0.817-6.818
	c-0.903-0.402-1.736-1.24-2.767-2.474c-1.467-1.755-1.313-1.313-2.813-0.438s-2.188-0.313-3.188-1.188s-19.009-16.462-20.375-22.083
	c-0.563-2.314-1.25-2.229-3.125-2.229s-2.875-0.75-2.938-2.313s-0.875-1.563-2.313-1.188s-5.063-5.438-6.375-4.438
	s-1.5,1-2.313-0.688s-3.625-2.313-2.438-6.5s23.785-40.629,23.625-43.625c-0.083-1.563-2.667,0.896-2.583-1.813
	s2.863-7.621,3.896-11.688c0.354-1.396,0.021-1.271-0.854-1.479c-0.875-0.209-2.208-1.543,1.375-2.834
	c3.279-1.182,1.727-5.518,5.538-8.225c-1.491-0.172-2.855,0.021-3.663,0.934c-2.25,2.541-3.75-2.417-5.667-5.25
	c-1.917-2.834,3.044-6.212,7.833-10.667c3.583-3.333-10.583,0.75-10.333-1.083c0.405-2.973,0.284-4.417-3.083-2.5
	c-4.451,2.533-1.11,8.46-1.5,8.916c-1.504,1.76-3.5,3-3.167,6.25s-0.5,0.75-2.167,2.834c-1.667,2.083-5.208,0.577-5.072-0.584
	c0.694-5.963-1.376-3.659-3.178-5.166c-2.858-2.392,4.083-3.917,3.053-5.084c-1.833-2.075-1.886-1.083-0.136-3.5
	c2.625-3.625-15.417,0.5-15.417,0.5v-3.584c0-2-1.958-2.832-1.958-2.832l0.125-6c2.75-5.417-3.167-5.917-5.583-7.917
	s2.583-8.583,2.583-8.583c4.667-3.167-3.167-11.167-4.333-9.583s-2.083,1.833-3.583,0.333s-4.583-2.5-10.083-3.667
	s-1.917-4.5-1.917-4.5C320.5,196.75,302.5,195,302.5,195v-6c-2-5.083-1.25-5.417-0.083-7.583c1.166-2.167,1.167-3.083-0.167-3.5
	s-2.917-0.333-2.25-1.667c0.931-1.863,4.917,0.75,5.917-0.5s2.333-3.583-2.5-4.083c-5.887-0.609-9.75-0.583-9.583,2
	s0.75,2.667-2.083,2.75S289,179.5,289,179.5h-3.5v4c-1,1.167-2.38,2.302-2.797,7.052s-5.88,0.053-5.88,0.053s0.072-7.73-0.095-10.73
	c-0.07-1.261-0.852-1.773-1.733-1.95c-0.434,0.582-0.9,1.096-1.412,1.492c-3.667,2.833-0.396,3.471-6.167,3.583
	c-2.959,0.058-3,1.5-4.167,2.833s-1.833,1.75-3.583,2.25s-3.75,1.417-4.833,4.25s-3.583,11.083-17.833,10.5
	c0,0,0.813,6.604-2.438,7.042s-5.097,2.02-13.25-0.063c-1.38-0.353-8.188-0.438-9.938,0.625s-6.688,0.813-9.813-0.5
	s-4.729-2.021-7.063-0.271s-0.833,1.25-3,1.333s-1.75,1.063-2.313,1.375s-1.5,1.188-2.125-1.063s-2.725-2.248-2.875-18.625
	c-0.026-2.875,1.75-1.75,2.188-2.188s1.167-0.5,1.5-1.958s2.542-3.333,3.792-4.375c0,0,3.333-9.479,0.083-17.104
	s-7.138-7.697-5.375-12.063c0.875-2.167-1.125-1.583-1.625-3.917s-1.833-5.167-4.417-7.667s-3.583-5.5-3.75-7.667
	s-5.25-8-9.25-9.917s-8-3.167-8.833-5.75V280c0,0-4.625,0.313-6.625,2s-1.25,1.375-3.625,1.313s-2,0.021-3.083,0.771
	s-2.333,0.499-4.5,0.416s-2.333,1.416-2.417,2.5s-1.569,1.224-1.833,4.667c-0.167,2.167-4.333,1.749-6.25,2.333
	s-3.667-0.916-4.417,1.334s-0.206,2.095,1.583,3.5c1.167,0.916-0.5,1.916-1.417,2.083s-1.167,1.083-3.042,2.208
	s-8.875,0.5-10.125-2.375S102,297.5,98,298.625s-9.75,2.625-13.375,1.75s-3.25,0.75-5.625,1.125s-8.5-1.75-9.625-3.75
	s-9.686-2.907-14.375-2.5c-2.589,0.225-3.25-0.75-3.333-1.583s-2.893-1.019-6.5-1c-2.099,0.011-2.083-0.583-2.333-1.583
	s0.791-2.421-2.333-7.459c-1.85-2.982-0.375-3,1.25-4.5s0.25-6.625-2.667-7.375s-2.082,2.002-4.75-0.666
	c-1.021-1.021-2.027,0.774-0.958-3.459c0.31-1.227,1.105-2.041-0.427-1.875s-2.365-0.916-3.115-2.166s-2.25,0.75-4.5,1
	s-4.25,1.5-5.25,5.083s-2.25,3.333-4,3.583s1.75,1.584,1.583,3.917s-2.391,6.663-5.667,5.75c-1.039-0.29-0.759-0.38-1.25-0.167
	c-1.334,0.58-2.75,3-6.5,3.375s0.063,2.813,1.188,4.813s1.701,2.732,2.813,6.229c0.672,2.114,2.75,1.666,4.417,3.833
	s1,1.168,1.083,2.751s1.667,2.416,3.333,3.583s2.167,3.501,2.167,5.167s6.5,6.999,8.75,20.249s8,22,10.25,31
	c1.422,5.689,13.13,21.962,22.817,35.253c0.868-2.414,2.488-4.655,5.487-5.386c0,0-6.184-4.652,2.941-4.965
	c0,0-1.617-8.93,5.814-3.857c3.938,2.688,9.251-2.554,10.563-6.241c0,0,1.208-14.392,6.792-3.058c0,0-2.417-5.332,0-7.415
	s4,2.25,5,3.918c1,1.666,1.333,1.667,3,1.334s3.25,0.584,4.083,3.584s1.25,2.666,4.417,3.333s5.107,6.016,0.833,7.583
	c-2.5,0.917,1.584,1.25,2.917,2.25s-3.167-0.833-3,5.167s11.75,24.251,4.917,36.084c0,0,23.713,3.684,19,17.167
	c-1.187,3.395-1.448,2.5,0.609,7.333s1.057,1.667,1.057,5.5s2.167,10.166,5.333,0.833s6.167-7,12.167-8.5s5.167-2.5,6.833-4.833
	s6.667-4.501,8.167-1.167s-3.667,8.168-6,8.334c0,0,1.5,13.999,9,16.666c0,0,6.667,7.834,9.5,4.834s3.333,0.369,3.333,0.685
	s14,0.983,10.333-6.685c-1.833-3.834-3.167-2.001,3.833-5.834l9.833-0.333c0,0-1-9.334,18.167-14.167c0,0-2.073-9.513,12.5-2.666
	c1.561,0.733,7.833-0.834,7.833-5.167s5.899,3.33,3.75-6.751c-1.188-5.575,2.292-5.583,2.917-5.208c0,0,2.91-15.343,8.5-11.875
	c4.828,2.995,15.175,2.9,10.25,7.5c0,0-2.063,2.75,2.813,1.813s4.313-1.25,5.125,0.938s1.25,0.875,2.5,0.188s2.063-1.188,2,0.188
	s2.748,1.52,7.063,1.313c1.625-0.078,1.188,0,1.125,1.875s3.864,5.4,8.938-4.563c3.438-6.75,9.25-5.375,9.75-5.375
	s2.574,0.332,6.188-1.438c2.693-1.318,5.375-0.563,6.063,0.688s1.229,1.501,2.438,1.376s1.917,0.999,1.042,2.041
	s0.042,1.292,1,2.292s2.833,2.666,3.917-2.167s3.833-1.375,4-0.708s1.083,3.208,2.917,2.625c0.598-0.189,1.21-0.303,1.712-0.289
	C341.004,426.463,342.319,424.935,344.688,425.906z"/>
<path id="EasternCape" fill="#eeeeee" stroke="#000000" stroke-miterlimit="10" d="M605.001,391.167c-0.5-3.667-2-2.583-9.334-7.333
	c-9.609-6.224-21.251-7.458-22.334-7.167s-3.125,2.252-5.167,0.459c-3.44-3.021-5.875,0.583-6.958-1.625
	c-1.97-4.016,2.854-7.188,5.198-9.407s0.677-3.928,0.677-3.928c-2.302-2.854-1.802,0.002-2.5,0c-1.836-0.005-5.25-2.416-5.083-6.916
	c0.089-2.39-1.679-4.49-3.356-5.942c-8.774,4.479-25.432,6.942-27.727,7.234c-2.625,0.334-1.583,1.375-2.041,2.416
	s-6.157,1.021-5.063,3.011c5.181,9.427-3.281,3.531-2.5,7.969S516.5,375,516.5,375v5c-1.375-0.459-2.237-0.665-2.875-1.374
	c-1.082-1.202-4.25-0.417-5.459-0.542s-1.157,0.145-1.333-0.666c-0.331-1.525-0.542-0.375-1.5-0.792c-1.919-0.835-3.458,1-7.375-1
	c-4.934-2.52-10.625-12.375-12.374-11.875c-0.938,0.269-1.619,0.187-2.121-0.111c-1.258,3.402-3.731,6.508-8.463,7.61
	c-8.162,1.902-9.872,2.701-11.625,5.5c-1.125,1.797-2.75,1.5-3.75,1.25s-2.188-1.875-4.125-0.125s-8.563,1.188-11.125-1.563
	s-3.563-3.188-6.063-1.938s-4.188-0.125-4.938-1.375s-8.438-3.188-15.063,1.438s-9.115,5.3-11.938,3
	c-2.378-1.938-1.25-2.625-3.438-1.5c-1.906,0.979-3.157,1.168-4.296,0.661c0.248,3.324,0.081,6.931,0.817,6.818
	c1.083-0.166,2.958-0.209,2.667,0.708s-2.417,2.792-2.417,2.792c2.375,1.459-1,10.874-1.75,10.958s-3.625,1-3.167,3.042
	c0.655,2.921-2.333,2.75-5.167,1.125s-3.5,1.75-5.75,1.75s-9,1.021-11.688,3.958s-4.354,1.708-10.021,2s-5.448,14.375-5.448,14.375
	l-6.281-0.25c-0.938,0-1.563,0.344-1.813,1.433s-2.252,1.29-3.938,0.599c-2.368-0.972-3.684,0.557-4.351,1.889
	c1.038,0.028,1.592,0.604,0.497,2.206c-1.625,2.375-4,2.999-0.708,2.791s4.875,2.25,2.625,4s-3.188,2.333-2.969,4.333
	s-9.632,9.452-13.813,4.906c-3.094-3.364-9.594,3.886-5.969,5.803c0,0-7.715-1.694-11.083,1.167
	c-1.864,1.583-1.333,0.75-2.333,0.583s-4.758-1.744-6.115,3.729c-0.594,2.396,1.907,3.813,2.74,4.938l0.083,4.208
	c0,0,1.375,2.584,3.458,4.292s0.75,2.584-1.625,2.667s-9.398-6.308-10.625,0.208c-0.542,2.875-1.708,1.75-2.417,1.75
	s-2.983,1.113-3.625,7.833c-0.185,1.933-7.125,10.208-8.75,11.75c-2.275,2.159-1.708,3.104,0.417,4.167s12.375,0.375,15-0.438
	s6.313-2.188,10.438,1.813H312c0,0,5.755,1.125,4.063,4.25c-0.813,1.5,1.906,2.578,3,3.609s0.531,2.141,0.531,2.141H316
	c0,0-2.563,1.75-4.813,2.094s-3.39,3.113-1.313,3.406c0.921,0.13,0.625,1.094,2.532-0.003c2.113-1.215,7.78,3.565,7.78,3.565
	s-2.307,1.823-2.737,4.914c7.438,0.216,18.013,0.727,24.049,2.524c7.833,2.333,10.527,3.924,18.5,5
	c4.166,0.563,6.667-1.666,10.333,1.5c0,0-0.213-3.374,3.333-5c1.464-0.671,0.167-1.168,1-2.834s10.208-4.792,16.333-1.917
	s15.625,2.041,16.375,1.458c0,0-11.5-6.743,11.042-13.582c7.417-2.25,10.083,2.021,20.75,2.146
	c7.083,0.083,6.458,0.239,10.583-2.261s4.594-2.475,9.875-3.662s48.829-25.523,55.375-34.346c4.313-5.813,2,0.373,9.875-6.127
	s32.418-24.572,46.625-43.375c2.753-3.644,0.917-0.251,5.417-3.251s6.331-3.748,8.208-6.188c3.125-4.063,5.25-1.688,7.875-4.563
	c1.032-1.131,6.368-6.989,12.849-14.649C605.593,394.188,605.263,393.09,605.001,391.167z"/>
<path id="KwazuluNatal" fill="#eeeeee" stroke="#000000" stroke-miterlimit="10" d="M724.834,210.833
	c-6,0.167-30.146,1.167-33.459-0.458s-3.25-2.458-3.292,0.958s-2.584,11.167-2,19.833l-21.957,0.167c0,0-4.984-1.057-10.644-3.754
	c-1.21,2.487-3.482,5.907-5.107,4.733c-3.583-2.588-8.25,3.063-8.75-0.688s-3.188,1.438-6.25-0.875s-7.375-0.563-8.813-0.188
	S616.375,231,617,229.438s-4.813-0.625-5.438,0.75c-0.677,1.489-1.563,3.063-2.75,2.438s-2.438-0.094-3,1.094
	c-0.521,1.102-1.64,0.124-2.438-0.094c-7.811-2.133-12.563,0.938-13.125,2.063s-0.313,1.434-2.232,0.813
	c-1.809-0.586-2.793,0.68-3.389,2.017c0.225-0.038,0.457-0.083,0.704-0.142c2.625-0.625,3.792,4.834,1.334,4.959
	c-2.179,0.11-2.166,1.25-1.584,4.166c1.861,9.326-3.667,14.917-3.083,16c3.593,6.662-0.584,3.5-0.5,6.584
	c0.084,3.083-2.887,1.45-4.334,2.332c-2.434,1.484-9.083,8-10.416,7.418c-1.333-0.584-3.167,1.666-3.084,3.333
	s0.083,1.667-4.166,1.75c-7.67,0.149-9.137,5.465-9.354,8.443c1.338,0.389,2.688,1.69,2.605,2.848
	c-0.125,1.75,0.125,3.667,1.916,3.417c3.067-0.428,9.334,6.458,10.209,7.558s0.166,0.359,1.791,0.025s4.792,2.667,4.125,3.959
	s-1.266,0.914,0.751,2.124c6.538,3.923,1.625,12.584-0.292,12.542s-3.125,0.208-2.458,1.833s1,5.334-2.5,5.834s-5.792,4.625-5.167,8
	s0.791,3.625-1.75,5.75c-0.87,0.728-1.97,1.414-3.232,2.058c1.678,1.452,3.445,3.553,3.356,5.942
	c-0.167,4.5,3.247,6.911,5.083,6.916c0.698,0.002,0.198-2.854,2.5,0c0,0,1.667,1.709-0.677,3.928s-7.168,5.392-5.198,9.407
	c1.083,2.208,3.518-1.396,6.958,1.625c2.042,1.793,4.084-0.168,5.167-0.459s12.725,0.943,22.334,7.167
	c7.334,4.75,8.834,3.666,9.334,7.333c0.262,1.923,0.592,3.021,0.848,4.184c10-11.82,22.735-27.94,26.651-37.685
	c3.751-9.333,10.584-6.249,11.125-16.291C644.13,332,667.167,310.833,673.667,305s9.166-2.832,16.5-9.166
	s12.771-11.271,13.708-12.959s1.063-1.297,2.078-1.547s1.281-0.391,1.094-1.547s0.078-2.572,1.203-3.447s5.584-7.501,5.584-17.168
	c0-9.666,3.333-17.832,7-25.832C724.501,225.333,730.834,210.667,724.834,210.833z"/>
<path id="FreeState" fill="#eeeeee" stroke="#000000" stroke-miterlimit="10" d="M519.645,212.486c-4.135-1.7-8.328-4.983-9.27-8.111
	c-1.417-4.708-4.084,0.958-6,1.083s-9.042,2.75-10.459,0.167c-0.813-1.481-1.132-0.811-1.452,0.022
	c-0.238,0.62-0.478,1.329-0.922,1.312c-1.54-0.062-3.126,0.667-2.959,1.417S485,214.708,482.542,212
	c-4.169-4.593-5.458,2.208-6.229,1.813c-1.913-0.982-3.737-0.108-9-0.563c-17.392-1.502-17.688,8.688-24,9.563
	s3.063,7.188,0.563,7.5s0.569,3.447-2.125,3.563c-6.5,0.277-16.958,8.084-16.208,12s-2.961,3.621-3.125,0.5
	c-0.25-4.75-6.917-0.709-6.75-3.375c0.113-1.802-7.458,0.209-7.208,2.125s-1.798,2.654-2.292,1.582
	c-1.208-2.623-3.041,0.004-3.292,0.002c-7.667-0.074-8.986,4.795-10.542,4.791c-3.167-0.008-3.125,3.656-4.542,4.084
	c-4.417,1.332-5.604,7.104-5.604,7.104c-0.455,0.219-0.837,0.462-1.191,0.713c-3.811,2.707-2.259,7.043-5.538,8.225
	c-3.583,1.291-2.25,2.625-1.375,2.834c0.875,0.208,1.208,0.082,0.854,1.479c-1.033,4.066-3.813,8.979-3.896,11.688
	s2.5,0.25,2.583,1.813c0.16,2.996-22.438,39.438-23.625,43.625s1.625,4.813,2.438,6.5s1,1.688,2.313,0.688s4.938,4.813,6.375,4.438
	s2.25-0.375,2.313,1.188s1.063,2.313,2.938,2.313s2.563-0.085,3.125,2.229c1.366,5.621,19.375,21.208,20.375,22.083
	s1.688,2.063,3.188,1.188s1.345-1.317,2.813,0.438c1.031,1.233,1.863,2.071,2.767,2.474c-0.117-1.569-0.326-3.076-0.767-4.099
	c0.441,1.022,0.649,2.529,0.767,4.099c1.139,0.507,2.39,0.318,4.296-0.661c2.188-1.125,1.06-0.438,3.438,1.5
	c2.822,2.3,5.313,1.625,11.938-3s14.313-2.688,15.063-1.438s2.438,2.625,4.938,1.375s3.5-0.813,6.063,1.938
	s9.188,3.313,11.125,1.563s3.125-0.125,4.125,0.125s2.625,0.547,3.75-1.25c1.753-2.799,3.463-3.598,11.625-5.5
	c4.731-1.103,7.205-4.208,8.463-7.61c-2.027-1.206-0.996-6.096-0.963-7.098c0.041-1.25-1-0.729-1.625-0.792
	s-0.451,0.599-1.375-1.125c-5.759-10.745-10.75-16.875-11.375-18.625s-3.333-1.5-1.292-3.834c4.037-4.616,10.25-2.833,11.959-5.291
	s4.125-2.917,4.458-5.167s3.208-4.417,4.958-4.958s0.834-0.792,0.459-1.375c-0.834-1.297,0.541-1.5,1.083-1.5s0.542,0,1.625-1.709
	c1.339-2.112,2.375-2.041,2.75-4.416s3.438-4.75,4.75-6.938s1.668-0.604,3.459-0.604s2.074-0.14,2.792-1.166
	c1.569-2.244,2.708-0.667,4.125-0.75s2.041,0.833,3.166-1.584S518,290.5,518,290.5h7.688c0.75-6,9.146-2.346,10.98-4.512
	s5.333,0.554,5.333,2.387s-0.458,1.584,1.5,1.709s3.292,0.333,3.125,1.875s0.625,2.583,1.667,1.666
	c0.485-0.427,1.167-0.463,1.853-0.265c0.218-2.979,1.685-8.294,9.354-8.443c4.249-0.083,4.249-0.083,4.166-1.75
	s1.751-3.917,3.084-3.333c1.333,0.582,7.982-5.934,10.416-7.418c1.447-0.882,4.418,0.751,4.334-2.332
	c-0.084-3.084,4.093,0.078,0.5-6.584c-0.584-1.083,4.944-6.674,3.083-16c-0.582-2.916-0.595-4.056,1.584-4.166
	c2.458-0.125,1.291-5.584-1.334-4.959c-0.247,0.059-0.479,0.104-0.704,0.142c-3.727,0.631-4.441-1.454-4.441-1.454
	c-5.938-10.625-18.563-14.188-19.313-13.688s-1.896,0.531-3.125-2.75c-3.628-9.681-6.625,1.125-10.938-2.438
	s-7.875-2.938-8.688-1.875s-2.688,4.375-4.125,1.75c-3.088-5.639-5.125-0.125-5.063-1.625s-0.688-3.125-3.5-2.813
	C523.807,213.806,521.732,213.344,519.645,212.486z"/>
<path id="NorthWest" fill="#eeeeee" stroke="#000000" stroke-miterlimit="10" d="M387.792,255.584c1.417-0.428,1.375-4.092,4.542-4.084
	c1.556,0.004,2.875-4.865,10.542-4.791c0.251,0.002,2.083-2.625,3.292-0.002c0.494,1.072,2.542,0.334,2.292-1.582
	s7.321-3.927,7.208-2.125c-0.167,2.666,6.5-1.375,6.75,3.375c0.164,3.121,3.875,3.416,3.125-0.5s9.708-11.723,16.208-12
	c2.694-0.115-0.375-3.25,2.125-3.563s-6.875-6.625-0.563-7.5s6.608-11.065,24-9.563c5.263,0.455,7.087-0.419,9,0.563
	c0.771,0.396,2.061-6.406,6.229-1.813c2.458,2.708,6.208-2.875,6.041-3.625s1.419-1.478,2.959-1.417
	c0.444,0.018,0.684-0.692,0.922-1.312c-1.148-2.482-1.731-6.461,1.453-11.813c0.943-1.585-0.916-1.625-1.583-1.083
	s-3.458-1.083-1.5-3.708s-4.994-1.958-3.209-9.354c0.875-3.625-5.405-2.366-0.986-7.602c0.879-1.042-1.389-5.669,2.528-5.835
	s3.396-4.83,5.917-0.667c1.917,3.167,8.25,1.458,9.042-0.417s1.187-0.229,1.687,0.771s4.88-2.727,2.688-6.438
	c-1.625-2.75,1.67-2.563,0.585-4.688s5.745-4.371,0.623-7.521c-2.167-1.333-1.334-1.417-0.792-2.417s1.439-1.125,2.72,0.375
	s6.738-0.708,7.03-1.708s1.167-0.25,2.042,0.542c0.427,0.386,1.674-0.785,3.014-1.69c-1.147-2.946-2.402-5.143-4.909-5.143
	c-3.313,0-0.563,0.188-3.375-2.313s1.438-2.688,3-1.875s4.015,0.014,2.625-1.938c-5.171-7.26-24-1.5-25.625-3.25
	s-4.438,1.813-4,3.125s-10,1.938-10.813,0.688s-0.75-1.5-2.125-1.313s-2.938,1.042-2.5-1.938c0.746-5.084-2.438,0.625-3.375-2.063
	S467.5,122,467.5,122v-5.5h-1.813c-0.125,3-8.449,3.668-8.637,4.543s-1.574,2.73-3.574,1.48c-2.474-1.546-1.836-1.539-8.711-2.289
	c-4.113-0.449-4.663-4.728-4.441-8.094c-3.628,1.974-10.247,3.853-23.907,6.359c0,0,2,4,1.083,7.083s-7.625,16.042-8.875,23.042
	s-9.75,13.5-15.875,14.375s-9.708-0.25-10.833-0.792s-2.354-1.115-3.385-0.333s-1.031,1.125-1.719,1.188s-1.5,0.906-2.5,1.625
	s-12.854,0.896-14.604-0.646s-6.266-1.393-8.875-1.333c-4.583,0.104-5.833-3.083-6.396-3.646s-5.938-2.563-9.938-1.688
	s-8.5-3-9.875-4.875s-10.938-7.938-13.125-7.813c0,0,0.25-2-2.625-2.125s-5.75-0.063-6.75-1.063s-3.75,0.438-4.875,1.063
	s-3.5,0.688-4.875,0.813s-5.208,3.458-5.708,4.958s-0.25,2.167-1.333,2.583s-1.833,2.75-2.333,6.333s-0.833,2.75-1.833,3.667
	s-0.291,4.167-1.333,5.667c-0.896,1.291-2.167,7.754-4.838,11.341c0.881,0.176,1.663,0.689,1.733,1.95
	c0.167,3,0.095,10.73,0.095,10.73s5.463,4.697,5.88-0.053s1.797-5.885,2.797-7.052v-4h3.5c0,0-0.083-3,2.75-3.083
	s2.25-0.167,2.083-2.75s3.696-2.609,9.583-2c4.833,0.5,3.5,2.833,2.5,4.083s-4.986-1.363-5.917,0.5
	c-0.667,1.333,0.917,1.25,2.25,1.667s1.333,1.333,0.167,3.5c-1.167,2.167-1.917,2.5,0.083,7.583v6c0,0,18,1.75,11.25,7.667
	c0,0-3.583,3.333,1.917,4.5s8.583,2.167,10.083,3.667s2.417,1.25,3.583-0.333s9,6.417,4.333,9.583c0,0-5,6.583-2.583,8.583
	s8.333,2.5,5.583,7.917l-0.125,6c0,0,1.958,0.832,1.958,2.832V249c0,0,18.042-4.125,15.417-0.5c-1.75,2.417-1.697,1.425,0.136,3.5
	c1.031,1.167-5.911,2.692-3.053,5.084c1.802,1.507,3.872-0.797,3.178,5.166c-0.135,1.161,3.406,2.667,5.072,0.584
	c1.667-2.084,2.5,0.416,2.167-2.834s1.663-4.49,3.167-6.25c0.39-0.456-2.951-6.383,1.5-8.916c3.367-1.917,3.488-0.473,3.083,2.5
	c-0.25,1.833,13.917-2.25,10.333,1.083c-4.789,4.455-9.75,7.833-7.833,10.667c1.917,2.833,3.417,7.791,5.667,5.25
	c0.808-0.913,2.172-1.105,3.663-0.934c0.354-0.251,0.736-0.494,1.191-0.713C382.188,262.688,383.375,256.916,387.792,255.584z"/>
<path id="Gautenge" fill="#eeeeee" stroke="#000000" stroke-miterlimit="10" d="M523.722,142.393c-1.34,0.905-2.587,2.077-3.014,1.69
	c-0.875-0.792-1.75-1.542-2.042-0.542s-5.75,3.208-7.03,1.708s-2.178-1.375-2.72-0.375s-1.375,1.083,0.792,2.417
	c5.122,3.15-1.708,5.396-0.623,7.521s-2.21,1.938-0.585,4.688c2.192,3.711-2.188,7.438-2.688,6.438s-0.895-2.646-1.687-0.771
	s-7.125,3.583-9.042,0.417c-2.521-4.164-2,0.5-5.917,0.667s-1.649,4.794-2.528,5.835c-4.419,5.236,1.861,3.977,0.986,7.602
	c-1.785,7.396,5.167,6.729,3.209,9.354s0.833,4.25,1.5,3.708s2.526-0.502,1.583,1.083c-3.185,5.353-2.602,9.331-1.453,11.813
	c0.32-0.833,0.64-1.503,1.452-0.022c1.417,2.583,8.543-0.042,10.459-0.167s4.583-5.792,6-1.083c0.941,3.128,5.135,6.411,9.27,8.111
	c1.885-1.819,4.918-1.798,4.918-1.798c-0.688-4.875,3.313-3.063,3.375-6.5s5.375-4.313,5.313-7.375s2-1.938,2.938-1.063
	s1.875,1.313,2.563-0.313s5.688,0.438,5.438-1.188s0.188-2.563,2.563-3.438s1.25-1.375,0.625-2.375s-1.89-2.637-3.563-2
	c-4.834,1.841-9.812-4.104-11.021-7.438s2.542-5.375,5.084-7.167s5.791,1.25,7.625,1.042s4.625-0.917,3.833-1.913
	s-0.738-3.492,1.229-3.899c1.104-0.229,1.984,0.939,1.688-1.625c-1.063-9.188,5.719-7.313,4.281-9.563s1.688-2.375,1.625-3.406
	s-0.344-1.063-1.719-0.969s-0.469-0.344-2,2.031c-1.743,2.704-3.531,0.531-4.719-1.063s-1.813-2.313-3.156-0.969s0,1.5,1.281,3.313
	s0.344,4.563-2.719,4.656s0-1.031-1.219-2.281c-1.475-1.513-1.625,0.344-2.344,0.688s-1.188,1.313-2.271-2.042
	c-1.49-4.614-3.167-11.458-0.167-13c5.022-2.581,5.875-4.375,4.958-7.333s-1.271-2.313-3.021-1.813s-4.521,1.521-2.729,3.021
	c2.603,2.18,0.125,4.542-1,3.292s-3.375-1.417-4.25,0s-5.282,3.411-5.666,2.542C526.642,140.784,525.13,141.442,523.722,142.393"/>
<path id="Mpumalanga" fill="#eeeeee" stroke="#000000" stroke-miterlimit="10" d="M525.438,213.625c2.813-0.313,3.563,1.313,3.5,2.813
	s1.975-4.014,5.063,1.625c1.438,2.625,3.313-0.688,4.125-1.75s4.375-1.688,8.688,1.875s7.31-7.243,10.938,2.438
	c1.229,3.281,2.375,3.25,3.125,2.75s13.375,3.063,19.313,13.688c0,0,0.715,2.085,4.441,1.454c0.596-1.337,1.58-2.603,3.389-2.017
	c1.92,0.621,1.67,0.313,2.232-0.813s5.314-4.195,13.125-2.063c0.798,0.218,1.916,1.195,2.438,0.094c0.563-1.188,1.813-1.719,3-1.094
	s2.073-0.948,2.75-2.438c0.625-1.375,6.063-2.313,5.438-0.75s6.125,1.5,7.563,1.125s5.75-2.125,8.813,0.188s5.75-2.875,6.25,0.875
	s5.167-1.9,8.75,0.688c1.625,1.174,3.897-2.246,5.107-4.733c-4.535-2.162-9.502-5.376-12.69-9.955c0,0-1.293-1.167-0.209-3.167
	s-1.541-1.792-1.833-2.583s-1.583-0.958-1.458-2.708c0,0-1.084,0.875-2.417,1.125s-2.167-0.875-2.292-2.625
	s0.042-11.542,0.042-11.542s0.625-3.75,5-9.5s4.875-5.875,7.292-11.375s1.5-3.917,3.25-6.417s5.501-3.833,6.834-6.917
	s8.749-3.167,22.416,7.667c0,0,3.25,2.583,5.5,1.417s2.25-1,1-3.167s-0.499-5.258,0.834-7.712s1.917-4.204,0.417-7.788
	s-0.583-3.083,0.583-6s3.382-40.563-1.417-50.5c-1.459-3.021-2.001-1.334-2.667-7.417c-0.227-2.068-0.358-3.336-0.55-4.188
	c-2.608,0.272-5.8-0.889-5.826,0.782c-0.042,2.635-2.791,2.198-3.125,1.282s-0.916-1.729-1.333-1
	c-1.105,1.932-7.603,0.103-8.5,0.458c-6.577,2.605-7.458,3.292-9.417,1.083s-6.549,0.705-6.25,1.708
	c1.203,4.039-2.291,3.333-2.041,7.833s3.917,1.792,5.833,1.5s2.792,2,2.334,2.458s-2.015-0.35-2.959,0.667
	c-2.18,2.346,1.292,1.542,3.708,4.958s-12.541,5-12.5,3.458s0-2.833-2.625-1.833s-1.272,0.281-5-1.583
	c-3.416-1.708-2.556,3.95-2.833,4.167c-3.228,2.517-0.667,1.542-0.542,4.417s-4.583,1.458-3.083,2.958
	c3.98,3.982-4.291,6.292-5.666,6.917s-2.292,1.792-2.667,0.125s-1.208-3.375-2.875-2.458c-3.56,1.957-5.625,0.167-7.042,0.292
	s-2.541-0.333-2.291,2.625c0.524,6.203-1.917,4.958-1.917,4.958v4.5h-2.062c-0.375-2-1.625-3.219-3.375-1.885S598.5,135,598.5,135
	v8.292c-5-0.875-6.646,2.458-7.229,1.917s-1.521-1.5-1.563-0.625s-0.875,2.042-2.75,1.167c-2.241-1.047-15.417,1.708-16.75,0.646
	s-3.195-1.652-4.208-0.938c-2.071,1.46-2.5,0.5-2.875,0s-2.708,0.75-1.167-1.333s-0.958-2.833-2.208-2.25s-1.25,0.917-1.375-0.292
	s-2.167-1.25-2.167-1.25s0.167-3.167,0-4.583s0.165-1.095,1.374-1.25c2.303-0.295,1.708-2.416-0.376-2.958s-6.71-0.875-6.71-3.125
	s0.496-1.69-2.587-3.206c-4.002-1.968-10.841,3.42-10.591,4.67s-0.433,2.175-3.349,2.009s-2.321,2.932-3.321,2.682
	s-3.186-0.383-3.228,1.039s0.673,3.684,5.007,1.142c2.445-1.434,4.368-1.848,5.814-1.826c0.666-0.558,1.886-0.975,2.82-1.242
	c1.75-0.5,2.104-1.146,3.021,1.813s0.064,4.752-4.958,7.333c-3,1.542-1.323,8.386,0.167,13c1.083,3.354,1.552,2.385,2.271,2.042
	s0.869-2.2,2.344-0.688c1.219,1.25-1.844,2.375,1.219,2.281s4-2.844,2.719-4.656s-2.625-1.969-1.281-3.313s1.969-0.625,3.156,0.969
	s2.976,3.766,4.719,1.063c1.531-2.375,0.625-1.938,2-2.031s1.656-0.063,1.719,0.969s-3.063,1.156-1.625,3.406
	s-5.345,0.375-4.281,9.563c0.297,2.564-0.583,1.396-1.688,1.625c-1.967,0.408-2.021,2.903-1.229,3.899s-1.999,1.705-3.833,1.913
	s-5.083-2.833-7.625-1.042s-6.293,3.833-5.084,7.167s6.187,9.279,11.021,7.438c1.673-0.637,2.938,1,3.563,2s1.75,1.5-0.625,2.375
	s-2.813,1.813-2.563,3.438s-4.75-0.438-5.438,1.188s-1.625,1.188-2.563,0.313s-3-2-2.938,1.063s-5.25,3.938-5.313,7.375
	s-4.063,1.625-3.375,6.5c0,0-3.033-0.021-4.918,1.798C521.732,213.344,523.807,213.806,525.438,213.625z"/>
<path id="Limpopo" fill="#eeeeee" stroke="#000000" stroke-miterlimit="10" d="M532.428,136.755c-4.334,2.542-5.049,0.28-5.007-1.142
	s2.228-1.289,3.228-1.039s0.405-2.849,3.321-2.682s3.599-0.759,3.349-2.009s6.589-6.638,10.591-4.67
	c3.083,1.516,2.587,0.956,2.587,3.206s4.626,2.583,6.71,3.125s2.679,2.663,0.376,2.958c-1.209,0.155-1.541-0.167-1.374,1.25
	s0,4.583,0,4.583s2.042,0.042,2.167,1.25s0.125,0.875,1.375,0.292s3.749,0.167,2.208,2.25s0.792,0.833,1.167,1.333
	s0.804,1.46,2.875,0c1.013-0.714,2.875-0.124,4.208,0.938s14.509-1.693,16.75-0.646c1.875,0.876,2.708-0.292,2.75-1.167
	s0.979,0.083,1.563,0.625s2.229-2.792,7.229-1.917V135c0,0-1.187-1.052,0.563-2.385s3-0.115,3.375,1.885h2.062V130
	c0,0,2.441,1.245,1.917-4.958c-0.25-2.958,0.874-2.5,2.291-2.625s3.482,1.665,7.042-0.292c1.667-0.917,2.5,0.792,2.875,2.458
	s1.292,0.5,2.667-0.125s9.646-2.935,5.666-6.917c-1.5-1.5,3.208-0.083,3.083-2.958s-2.686-1.9,0.542-4.417
	c0.277-0.216-0.583-5.875,2.833-4.167c3.728,1.864,2.375,2.583,5,1.583s2.666,0.291,2.625,1.833s14.916-0.041,12.5-3.458
	s-5.888-2.613-3.708-4.958c0.944-1.016,2.501-0.208,2.959-0.667s-0.418-2.75-2.334-2.458s-5.583,3-5.833-1.5
	s3.244-3.794,2.041-7.833c-0.299-1.003,4.291-3.917,6.25-1.708s2.84,1.521,9.417-1.083c0.897-0.355,7.395,1.474,8.5-0.458
	c0.417-0.729,0.999,0.083,1.333,1s3.083,1.354,3.125-1.282c0.026-1.671,3.218-0.509,5.826-0.782
	c-0.371-1.654-0.971-1.712-2.95-2.812c-3-1.667-5.584-9-5.75-12s-2.167-3.333-3.333-4.667s-2.978-1.747-2.666-14.417
	C666.5,47,664.75,42.375,663.375,39.5S657.25,13.375,650.5,12.75s-7.083-0.25-9.833-1.833s-8.584-1.167-10.834-0.333
	s-12.499,1.583-15.999,1.667s-2.889,1.144-5.167-1.25c-1.666-1.75-3.25-0.5-3.833-0.417s-1.333,0.688-2.5-0.74
	s-15.417-8.427-20.084-6.177s-5.208-0.084-9.958,1.583s-4.293,0-8.084,0.167s-9.083,2.833-10.458,5.25s1.313,5.208-2.813,6.271
	s-6.938,1.813-11,3.813s-3.688,0.625-6.063,2.063s-1.784-2.488-8.792,0.604c-3.405,1.502-6.25,3.333-6.583,5.667
	S517.063,31,516.125,32s-2.875,1.188-3.125,2.813s-0.438,2.25-1.875,3.125s-2.688,1.938-2.938,3.875S506.313,44.5,505,45.25
	s-4.038,2.719-4.875,5.063c-0.625,1.75-2.688,1.313-2.688,0.75s-4.806-1.812-5.438,3.063c-0.438,3.375-2.125,3.25-3.563,4.063
	s-5.021,1.062-6.188,1.479s-2.313,2.083-3.625,2.458s-2,0.375-2.188,1.375s-0.75,0.625-1.5,0.75s-1.313,0.25-1.188,1.188
	s-0.125,0.688-1.313,0.813s-2.125,2.375-2.125,3.188s-0.438,1.5-1.625,1.625s-2.5,0.656-3.125,2.5s-1.313,4.313-1.375,7
	s-0.604,3.021-1.146,3.479s-0.208,1.5-0.625,3.125s-0.875,1.625-1.125,1.958s-0.249,1.083,0.292,2.167s0.104,5.208-3.584,6.833
	s-11,6.125-13.375,10c-0.917,1.496-2.019,2.774-4.301,4.016c-0.222,3.366,0.328,7.645,4.441,8.094
	c6.875,0.75,6.237,0.743,8.711,2.289c2,1.25,3.387-0.605,3.574-1.48s8.512-1.543,8.637-4.543h1.813v5.5c0,0,4.188,1.688,5.125,4.375
	s4.121-3.021,3.375,2.063c-0.438,2.979,1.125,2.125,2.5,1.938s1.313,0.063,2.125,1.313s11.25,0.625,10.813-0.688
	s2.375-4.875,4-3.125s20.454-4.01,25.625,3.25c1.39,1.951-1.063,2.75-2.625,1.938s-5.813-0.625-3,1.875s0.063,2.313,3.375,2.313
	c2.507,0,3.762,2.197,4.909,5.143c1.408-0.951,2.92-1.609,3.695,0.148c0.384,0.87,4.791-1.125,5.666-2.542s3.125-1.25,4.25,0
	s3.603-1.111,1-3.292c-0.835-0.699-0.673-1.292-0.091-1.779C536.796,134.907,534.873,135.321,532.428,136.755z"/>
</svg>
