<?xml version="1.0" encoding="utf-8"?>
<!-- Generator: Adobe Illustrator 16.0.0, SVG Export Plug-In . SVG Version: 6.00 Build 0)  -->
<!DOCTYPE svg PUBLIC "-//W3C//DTD SVG 1.1//EN" "http://www.w3.org/Graphics/SVG/1.1/DTD/svg11.dtd">
<svg version="1.1"
	 id="svg2" xmlns:dc="http://purl.org/dc/elements/1.1/" xmlns:rdf="http://www.w3.org/1999/02/22-rdf-syntax-ns#" xmlns:cc="http://creativecommons.org/ns#" xmlns:sodipodi="http://sodipodi.sourceforge.net/DTD/sodipodi-0.dtd" xmlns:svg="http://www.w3.org/2000/svg" xmlns:inkscape="http://www.inkscape.org/namespaces/inkscape" inkscape:version="0.48.2 r9819" sodipodi:docname="ラ드뎸.svg"
	 xmlns="http://www.w3.org/2000/svg" xmlns:xlink="http://www.w3.org/1999/xlink" x="0px" y="0px" width="1091.992px"
	 height="630.119px" viewBox="0 0 1091.992 630.119" enable-background="new 0 0 1091.992 630.119" xml:space="preserve">
<g id="Дальневосточный">
	<path fill="#eeeeee" stroke="#000000" stroke-miterlimit="10" d="M820.58,27.547c0,0-14.5,4-2.75,16.5
		C817.83,44.047,825.83,36.797,820.58,27.547z"/>
	<path fill="#eeeeee" stroke="#000000" stroke-miterlimit="10" d="M671.496,136.13c0,0,0.334,8.333-11,7c0,0-2.5,15,14,13.333
		l7.5-9.333c0,0-6.834-4.167-7.334-9.333C674.662,137.797,673.83,134.964,671.496,136.13z"/>
	<path fill="#eeeeee" stroke="#000000" stroke-miterlimit="10" d="M683.08,134.165c-1.096-3.329-8.918,0.632-1.918,7.966
		C681.162,142.13,688.33,150.13,683.08,134.165z"/>
	<path fill="#eeeeee" stroke="#000000" stroke-miterlimit="10" d="M704.162,121.63c0,0-23.498,8.058-12.332,10.975
		C691.83,132.605,712.328,136.464,704.162,121.63z"/>
	<path fill="#eeeeee" stroke="#000000" stroke-miterlimit="10" d="M701.955,161.109c0,0-16-6.188-10.438,10.563
		C691.517,171.672,704.705,164.234,701.955,161.109z"/>
	<path fill="#eeeeee" stroke="#000000" stroke-miterlimit="10" d="M946.83,406.464c0,0-29.502-15.667-36.668-19.5
		c0,0,2.334-4.167-19-24.667c0,0-7.832,3.334,5.334,10.667c1.666,4.333-8,10,10.5,24.5c0,0,4.166,2.001,7.666,1.667
		c0,0,22.67,28.871,29.168,33.5c12.5,20.833,17.199,21.038,20.832,23.333c0,0,3.334-0.501-4.332-8.667c0,0-2.002-4.334,10.332-1.5
		c0,0,6.5-4.167-20.832-9.5c0,0-17.834-26-6.834-25.5c0,0,10-0.832,5.834-4.166L946.83,406.464z"/>
	<path fill="#eeeeee" stroke="#000000" stroke-miterlimit="10" d="M1011.83,324.63c0,0,5.334-11.833-12.334-4.333
		C999.496,320.297,1007.164,329.796,1011.83,324.63z"/>
	<path fill="#eeeeee" stroke="#000000" stroke-miterlimit="10" d="M1015.33,334.797c0,0-8.5-5.75-3.25,3
		C1012.08,337.797,1015.205,339.047,1015.33,334.797z"/>
	<path fill="#eeeeee" stroke="#000000" stroke-miterlimit="10" d="M1018.83,347.547c0,0-5.625-8.125-4.125,5.875
		C1014.705,353.422,1019.33,357.047,1018.83,347.547z"/>
	<path fill="#eeeeee" stroke="#000000" stroke-miterlimit="10" d="M1020.205,363.297c0,0-8.217-1.5-3.547,2.75
		C1016.658,366.047,1021.83,366.422,1020.205,363.297z"/>
	<path fill="#eeeeee" stroke="#000000" stroke-miterlimit="10" d="M1023.705,377.922c0,0-4.492-6.25-3.184,12.375
		C1020.521,390.297,1025.58,390.922,1023.705,377.922z"/>
	<path fill="#eeeeee" stroke="#000000" stroke-miterlimit="10" d="M1024.121,398.172c0,0-3.533-6.125-3.6,4.375
		C1020.521,402.547,1024.539,405.422,1024.121,398.172z"/>
	<path fill="#eeeeee" stroke="#000000" stroke-miterlimit="10" d="M1022.201,418.422c0,0,2.08-7.75-3.334-6.625
		C1018.867,411.797,1017.449,426.047,1022.201,418.422z"/>
	<path fill="#eeeeee" stroke="#000000" stroke-miterlimit="10" d="M1020.281,433.672c0,0-3.951-6-4.826,1.25
		C1015.455,434.922,1020.234,439.422,1020.281,433.672z"/>
	<path fill="#eeeeee" stroke="#000000" stroke-miterlimit="10" d="M999.662,289.797c-13.666-14.167-10.332-28.333-10.332-28.333
		c-13.166-6.5-9.168-14.667-9.168-14.667c8.334-9.167,0-9.833,0-9.833c-15.5-3.333-10.5-13.5-10.5-13.5c4.168-5.667,0-5.667,0-5.667
		c-14,0.333-19.832-9-19.832-9c-2.834,25-23.834-19.333-23.834-19.333c6.834-5.333,4.166-9.167,4.166-9.167
		c-9.166-9.667-1-8.167-1-8.167c9.834,3.5,6.5,0.333,6.5,0.333c-10.332-19.833,11.5-25.5,11.5-25.5c-6.832-7-14.332-37-14.332-37
		c-11.334-24.833,5.166-31,5.166-31c-5.332-10.833-16.127-0.333-16.127-0.333c-5.629-6.833-12.707,1.667-12.707,1.667
		c-16,3.667-8.332-4.167-8.332-4.167c7.5-8.333-1.668-15.333-1.668-15.333c-9.334,0.5-11-3.167-11-3.167
		c-4.666-10.167,10.168-8.167,10.168-8.167c1.332-15.667,13.166-12.667,13.166-12.667c5.5-10.833,10.334-10.167,10.334-10.167
		c1-8.667-17.5-9.333-17.5-9.333l1.666-9.833c-4.832-12.5-17.666,3.5-17.666,3.5c1.832,6.667-3.334,10.333-3.334,10.333
		c8.834-1.167,11.166,1.667,11.166,1.667c-5.5,13.333-18.332,3.334-18.332,3.334s-60.5,39.5-58,60.5c0,0,14.5,0,14.5,2.5
		c0,0,2.5,14.5-17,10c0,0-2,14.5-12,21c0,0-11.5,25-16.5,11c0,0-12.5-8-27.5,23.5c0,0-23.5,18-23.5,0c0,0-36.5,16-38,28
		c0,0,17,12.5,5,14c0,0,0,10.166-9.832,6.166c-2.334,12.667-11.168,7.833-11.168,7.833c-7.166-3.833-4.166,1-4.166,1
		c12.5,21.5-0.334,17-0.334,17c-27.832-11.667-18-14.167-18-14.167l-12.834-13.5c-1.332,3.167-5,3.333-5,3.333
		c-14.832,0-12.166,3.5-12.166,3.5c13.332,17.167-18.5,17.5-18.5,17.5c0.166-15.333-16.334-1.667-16.334-1.667c-3.666,8.667-8,6-8,6
		c1.385-11.77-5.854-2.838-8.344,0.523c0.926,0.815,1.91,1.477,2.678,1.477v10.75c0,0,5,0.5,16.5,19.75c0,0-11.5,7.25-8.75,25.25
		h-7.5l-7.25,6.5c0,0,17,22,5.25,35.25l4.5,4c0,0-2.75,5.75,4.75,13.25c0,0,3,6.25-1.5,12.75c0,0-0.5,7.25,18.75,4.25
		c0,0,4.25,2.25-1.584,9.417c0,0,7.834-3.166,14,13.667h3.5c0,0-6.166,9.499,8.834,17.666l-1.5,26c0,0,3.332,11.167,19.332-10.333
		c0,0,4,12.333,9,3.833c0,0-1.832-9.5,7.168-22.833c0,0,11.5-4.166,17,6.667l6.832-3c0,0,13.168,12.875,15.668,24.333
		c3.25,3.333,19.25,5.083,20.5,16.958c0,0,3.375,1.75,4.875-3.375l4.75,8.25l4.875-6.375c0,0,0.375,12.875,8.375,17l-4.75,4.75
		l8.709,6.01c5.254-4.96,11.332-8.384,11.332-8.384c14.5,5.833,17.125-5.014,22-0.667c4.877,4.347,36.834,32.834,36.834,32.834
		c10.166-8.666,31.832-5.334,31.832-5.334c10.666,30.166,26.334-6.833,26.334-6.833c5.334-17.333,13.5-0.667,13.5-0.667
		c-2.332,8,3.166,18.167,3.166,18.167c6.166,6.5,2.5,25.166,2.5,25.166c-12.666-0.834-13.166,11.834-13.166,11.834
		c16.334,11.5,15.334,19.5,15.334,19.5c-7.668,7.167-5.5,10-5.5,10c12.166,5.834,9.5-15.501,9.5-15.501
		c28.75-4,22.232-27.498,23.25-51.25c0.75-17.5-2.084-31.416-2.084-31.416c4.832-38.333-24.322-49.173-27-61.167
		s-7.834-17.5-7.834-17.5c-12.166-15.833-28.666-3.834-28.666-3.834c11,11.166-1.834,13.834-1.834,13.834
		c-0.166-9.333-4.832-6.334-4.832-6.334c-3.5,5.333-5.5,3.5-5.5,3.5c-3.668-7.834-7.668-1.666-7.668-1.666
		c-9,10.667-9.332,1.666-9.332,1.666c6.5-33.5,1.332-35.916,4.75-49.708c3.416-13.792-3.125-18.5-3.125-18.5c5.125-2.75,4-8,4-8
		c-8.125-13.625,31.625-39.625,31.625-39.625c-8.375-5.375,6.25-13.25,6.25-13.25c9-9.125,7.25,3.75,7.25,3.75
		c7,4.25,6.625-14.25,6.625-14.25c13.125-12.625,4.375-12.875,4.375-12.875c-7,13.875-16.25-33-16.25-33l11.375-17.5l7.5,8
		c14.25,8.5,1.375-16.625,1.375-16.625c2.5-6.875-7.75-13.625-7.75-13.625c-1.25-3.375,7.125-11.75,7.125-11.75
		c7,1.75,3.375,10.125,3.375,10.125l11.166,8.333c-1.334,30.333,8.387,31.714,13.666,54c-1.332,17.167,4.834,18,4.834,18
		c1.332,28.833,32.334,32.167,56.5,46.667C1011.996,315.297,999.662,289.797,999.662,289.797z"/>
</g>
<g id="Сибирский">
	<path fill="#eeeeee" stroke="#000000" stroke-miterlimit="10" d="M530.579,148.797c0,0-8.75,2-4.25,21.25c0,0,5.5-5,16.5-6.25
		c0,0-1-13.25-10.75-11.5L530.579,148.797z"/>
	<path fill="#eeeeee" stroke="#000000" stroke-miterlimit="10" d="M516.329,138.297c0,0-19.5-1-6.25,17c0,0,11.928,8.25,13.964-7.5
		C524.043,147.797,524.329,140.047,516.329,138.297z"/>
	<path fill="#eeeeee" stroke="#000000" stroke-miterlimit="10" d="M505.465,118.797c0,0-12.261,13.98,0.989,19.49
		c0,0,12.375-0.615,5-14.74C511.454,123.547,508.101,116.547,505.465,118.797z"/>
	<path fill="#eeeeee" stroke="#000000" stroke-miterlimit="10" d="M752.996,495.798c-12.389-7.624-6.848-16.991,0.168-23.616
		l-8.709-6.01l4.75-4.75c-8-4.125-8.375-17-8.375-17l-4.875,6.375l-4.75-8.25c-1.5,5.125-4.875,3.375-4.875,3.375
		c-1.25-11.875-17.25-13.625-20.5-16.958c-2.5-11.458-15.668-24.333-15.668-24.333l-6.832,3c-5.5-10.833-17-6.667-17-6.667
		c-9,13.333-7.168,22.833-7.168,22.833c-5,8.5-9-3.833-9-3.833c-16,21.5-19.332,10.333-19.332,10.333l1.5-26
		c-15-8.167-8.834-17.666-8.834-17.666h-3.5c-6.166-16.833-14-13.667-14-13.667c5.834-7.167,1.584-9.417,1.584-9.417
		c-19.25,3-18.75-4.25-18.75-4.25c4.5-6.5,1.5-12.75,1.5-12.75c-7.5-7.5-4.75-13.25-4.75-13.25l-4.5-4
		c11.75-13.25-5.25-35.25-5.25-35.25l7.25-6.5h7.5c-2.75-18,8.75-25.25,8.75-25.25c-11.5-19.25-16.5-19.75-16.5-19.75v-10.75
		c-0.768,0-1.752-0.662-2.678-1.477c-0.508,0.685-0.822,1.144-0.822,1.144c-16.334,19.333-16.334,5.333-16.334,5.333
		c15.668-24.167,18.334-35,18.334-35c1.332-24-20.666-17.667-20.666-17.667c-4.334,5.667-7.668,3.167-7.668,3.167
		c-0.332-4.5-4.166-5.333-4.166-5.333c-6.5-0.167-5-1.333-5-1.333c7.166-8.167,2.166-7.5,2.166-7.5c-6.166-0.667-12,10.5-12,10.5
		c1,8.333-5.167,12.167-5.167,12.167c-1.167,10.333-12.333,10.5-12.333,10.5c-1.333-6-5.833-3.5-5.833-3.5
		c-8.666,9.833-20.167,12.333-20.167,12.333c-14,10.5-9,21.5-9,21.5c-8,7-28.833,3.5-28.833,3.5l-0.333,13.333
		c14.333,14,1.333,15,1.333,15c-8.5-14-11.333-11.667-11.333-11.667s-2.625,3.875,4.625,9.125l-5.088,5.625
		c0,0,14.108,11.236-3.662,22.5c0,0,2.875,12.25,10.125,8l5.5,11.375c0,0-14.333,16.374,0,28.708c0,0-3.833,11.666,4.333,17
		c0,0-3.167,8.167,8.667,12.667c0,0,3.167,7.833-5.5,14.333c0,0-2.167,3.001,2.333,8.834c0,0-16.833,12.167-0.833,21.5l-10.03,9.5
		c0,0-5.47-5.167-5.47-5.667s-7.666,11.334-16.333,3.167c0,0-11.333,1.666-16.333-3.834c0,0-13.5-9.5-16.833,15l-6.833,1.5
		c0,0-6.917,19.667-31.167,14.667c0,0-6.5-0.75-7.5-9.25c0,0-1.5-1.75-5.5,5c0,0-10.75,10.5,4,13c0,0,4.5,5.25-6.25,9.75
		c0,0-5.491,6.87-8.096,14.43c5.27,5.444,3.512,16.737,3.512,16.737c14.167-1.834,15.5,13.334,15.5,13.334c16.333,3.5,19.5-5,19.5-5
		c8.167-0.833,7.667,7.167,7.667,7.167c8.333,3.667,17.667,39,17.667,39c0.833,6.667,3.667,6.166,3.667,6.166
		c3.833-5.834,6.333-3.833,6.333-3.833c2.167,13.5,24,8.333,24,8.333c11,21.833,26,17.834,26,17.834
		c10.167,18,18.333,2.5,18.333,2.5c14.667,1.334,10.503-1.746,13.833-4.834c27.667-27.5,43.833-2.167,43.833-2.167
		c30,2.166,29.166-6.166,29.166-6.166c-4.832-6.333-4.834-12-4.834-12c8-6.833,8.168-12,8.168-12c18.5-5.666,30,5,30,5
		c3.5,17.667,20.332,14.167,20.332,14.167c12-14.5,33.168-5.5,33.168-5.5c4.666,5,22,4.5,30.166,2.833
		c7.334-2.167,20.334-18,20.334-18c5.332-11,9.666-7.667,9.666-7.667c5.834,2.833,11.334,1.667,11.334,1.667
		c2.166-8.833,10.832-3.333,10.832-3.333c5.834,1.833,12.168-2.834,13.168-8.334c4-1.166,5.666-3.833,5.666-3.833
		C742.83,517.631,752.996,495.798,752.996,495.798z"/>
</g>
<path id="Уральский" fill="#eeeeee" stroke="#000000" stroke-miterlimit="10" d="M463.663,394.964
	c-4.5-5.833-2.333-8.834-2.333-8.834c8.667-6.5,5.5-14.333,5.5-14.333c-11.833-4.5-8.667-12.667-8.667-12.667
	c-8.167-5.334-4.333-17-4.333-17c-14.333-12.334,0-28.708,0-28.708l-5.5-11.375c-7.25,4.25-10.125-8-10.125-8
	c17.771-11.264,3.662-22.5,3.662-22.5l5.088-5.625c-7.25-5.25-4.625-9.125-4.625-9.125l-1.833-3.167c-7.167-4.667-3.333,4-3.333,4
	c3.042,7.542-0.667,5.667-0.667,5.667c-8.167-7.167-6,1.167-6,1.167c11,9.667,6.833,12.167,6.833,12.167
	c-11.5,4.333-15.667-10.167-15.667-10.167c3.833-5.833,6.333-14.5,6.333-14.5c0.833-7.333-3.5-3.667-3.5-3.667
	c0.167,7.5-5,10.167-5,10.167c-7.833,5.333-4.667,11.333-4.667,11.333c4.667,7.5-4.167,16.333-3.667,26.5
	c13.333-0.667,18.833,9.167,18.833,9.167c4,12.333-6.667,11.167-6.667,11.167c-1.833-22.334-12.833-11-12.833-11l-0.167,11.5
	l-16.5,16.5c-10.333,8.333-17.167-3.666-17.167-3.666c-12-8.833-0.5-8.5-0.5-8.5c15.833,11.501,27.167-15.167,27.167-15.167
	c-3.333-2.5-4.167-12.167-4.167-12.167c10.333-18.333,6.25-32.5,6.25-32.5c21.75-22.167-2.5-20.25-2.5-20.25
	c-5.583,12.667-20.167,20.667-20.167,20.667c3,9.5-6.167,19.167-6.167,19.167c9.5-0.25,4.833,10.5,4.833,10.5
	c7.417,7.25-5.667,9.167-5.667,9.167c-4.187-8.463-8.257-14.615-11.984-19.112c-2.267,2.235-4.54,6.479,1.234,12.362l-5.833,5.122
	c0,0,9.167,7.211-9.167,16.545c0,0-10.333-0.834-19.833,8c0,0-5.5,0.666-11.5,7.5c0,0-1.333-7.083-9.167,3.333
	c-5,16.666-11.167,6.167-16.5,33.834c-7.667,3.5-0.833,15-21.333,26.333c0,0-0.667,3.168,2.5,5.834c0,0,2.166,13.499-18.667,17.666
	c0,0,1.333,10.001-10.5,4.334v11.5c0,0,17.167,4.5,8.5,17.333c0,0-11,0.666-13.5-6.667c0,0-13.667,0.333-4.5,15
	c0,0,30.167-6.999,13.5,10.167l-5.833-3.834c0,0-11.662,11.168-10.831,22.834c0,0,8.126-1.423,7.748,9.714
	c1.53-1.146,3.917-1.213,3.917-1.213c3.333-15.333,9.333-9,9.333-9c6.667,5.167,5.333-0.167,5.333-0.167
	c-10.167-18.833,6.833-11.334,6.833-11.334c8.667,8.166,53.333,4.667,53.333,4.667c4.833-5.833,8.333-0.667,8.333-0.667
	c4.401-0.499,7.349,0.726,9.321,2.763c2.604-7.56,8.096-14.43,8.096-14.43c10.75-4.5,6.25-9.75,6.25-9.75c-14.75-2.5-4-13-4-13
	c4-6.75,5.5-5,5.5-5c1,8.5,7.5,9.25,7.5,9.25c24.25,5,31.167-14.667,31.167-14.667l6.833-1.5c3.333-24.5,16.833-15,16.833-15
	c5,5.5,16.333,3.834,16.333,3.834c8.667,8.167,16.333-3.667,16.333-3.167s5.47,5.667,5.47,5.667l10.03-9.5
	C446.829,407.131,463.663,394.964,463.663,394.964z"/>
<path id="СевероКавказский" fill="#eeeeee" stroke="#000000" stroke-miterlimit="10" d="M63.829,500.297
	c2.333-10.667-7-15.167-7-15.167c-7.5-0.5-10.25-7.583-10.25-7.583c-16-1.875-10.25,7.75-10.25,7.75
	c4.875,9.375-8.5,13.375-8.5,13.375c-3-5.25-8.5-0.541-8.5-0.541v4.5c7.333,5.5,19.833,31,19.833,31
	c10.667,2.166,11.5,10.167,11.5,10.167c-3,8.167,4.667,12.333,4.667,12.333v10.167c2.667,13,13,2,13,2
	c-0.333-21.333,4.667-25.5,4.667-25.5c-0.333-16.167,5.333-19.167,5.333-19.167c0.247,0.03,0.474,0.029,0.712,0.045l-8.378-8.379
	C71.663,504.964,63.829,500.297,63.829,500.297z"/>
<path id="Южный" fill="#eeeeee" stroke="#000000" stroke-miterlimit="10" d="M116.329,448.464
	c2.5-18.334-4.441-10.965-10.667-16.022c-7.167-11.022-17.333-8.645-17.333-8.645c-8.667,17.333-20.322,3.243-20.322,3.243l0,0
	c0.17,0.799,0.155,1.258,0.155,1.258c-2.5,12.5-10.167,8.666-10.167,8.666c-4.333,12.166-10.167,9.834-10.167,9.834
	c-10.5-16-15.833,3-15.833,3c-11.333-3.666-6.333,5.833-6.333,5.833c-7.333-2.167-16.333,4.167-16.333,4.167
	c-13.667-14.333,1.167,16.5,1.167,16.5c-0.5,24,8.833,21.833,8.833,21.833s5.5-4.709,8.5,0.541c0,0,13.375-4,8.5-13.375
	c0,0-5.75-9.625,10.25-7.75c0,0,2.75,7.083,10.25,7.583c0,0,9.333,4.5,7,15.167c0,0,7.833,4.667,6.833,15l8.378,8.379
	c7.618,0.484,10.455-6.545,10.455-6.545l17.5,0.833c15.167-13-2.667-24.166-2-29.166c3.5-2.167,4.667-12,4.667-12
	c6.833-1.333,9.167-10.999,18.667-13.333C130.329,454.8,116.329,448.464,116.329,448.464z"/>
<path id="Центральный" fill="#eeeeee" stroke="#000000" stroke-miterlimit="10" d="M105.079,420.547
	c8-7.75,13.75-5.75,13.75-5.75c-2.5-20.25,4.167-20.333,4.167-20.333c13.667-6.5,11.083-16.167,11.083-16.167
	c14.375-9.875,16.214-11.181,25.25-11.25c1.938-6.125,12.5-3.75,12.5-3.75c4-7.75,13.25,5,13.25,5c2.25-8,13.75-6.25,13.75-6.25
	l0.25-7l4.25-5.917l-5.667-1c-2.833,5.333-11.5,2.5-11.5,2.5c-11.167-23-26-14.5-26-14.5c-7.833,6.833-6.167,2.334-6.167,2.334
	c1.333-19.666-8.5-13.334-8.5-13.334c-1.333-5.334-6.167-6-6.167-6v-5.333h-8.375c-4.125-6.25-10.375-2.5-10.375-2.5
	c-5.625-15.625-15.375-2.5-15.375-2.5c-9-6.875-21.938-7.125-21.938-7.125c1.563,15.5-9.438,9.625-9.438,9.625
	c-15.333,12.832-12.333,25.001-12.333,25.001c1.333,20.5-12.667,4.5-12.667,4.5l-6.833,8.833l8.167,9c9.833-4.5,6.167,11,6.167,11
	c-12.833,3.333-4.167,15.334-4.167,15.334c-4.333,15.5,9.333,17.999,9.333,17.999l0.833,15.334c4.09,3.75,5.313,7.031,5.678,8.742
	c0,0,11.655,14.09,20.322-3.243c0,0,7.299-1.704,13.887,4.479C106.409,425.296,105.079,420.547,105.079,420.547z"/>
<path id="Приволжский" fill="#eeeeee" stroke="#000000" stroke-miterlimit="10" d="M273.329,362.131
	c0,0-1.5,5.707-16.167,3.854l-8.5-9.354c0,0-14.5-4.666-11.167,6.5c0,0-6.417,1.117-11.417-0.483c0,0-6.25-2.851-9.75,4.399
	c0,0-7.5-8,0-18c0,0,4.833-11.5-3.333-12.25l-9.667,3.833c0,0,1.667,3.833,0,8.5l-4.25,5.917l-0.25,7c0,0-11.5-1.75-13.75,6.25
	c0,0-9.25-12.75-13.25-5c0,0-10.563-2.375-12.5,3.75c-9.036,0.069-10.875,1.375-25.25,11.25c0,0,2.584,9.667-11.083,16.167
	c0,0-6.667,0.083-4.167,20.333c0,0-5.75-2-13.75,5.75c0,0,1.33,4.749-2.863,7.729c1.188,1.114,2.352,2.481,3.446,4.165
	c6.225,5.058,13.167-2.312,10.667,16.022c0,0,14,6.336,12,15.001c4,22.499,14.833,1.166,14.833,1.166
	c4.5,0,19.833-1.833,19.833-1.833c7-3.667,6,4.667,6,4.667c10.667-1.5,9.167,6.833,9.167,6.833
	c8.333,1.667,7.167,17.167,7.167,17.167c3.5-1.833,5.833,1.833,5.833,1.833c1.5,6.167,4.333,4.667,4.333,4.667
	c4.5-5.5,9-2.334,9-2.334c5.667,8.5,8.167,6.334,8.167,6.334c7.667-9.833,10.333,8.833,10.333,8.833
	c10.667-2.5,15.831,6.333,15.831,6.333c6.665,0.333,6.002-7,6.002-7c-7.24-6.869-6.672-10.013-4.75-11.453
	c0.378-11.137-7.748-9.714-7.748-9.714c-0.831-11.666,10.831-22.834,10.831-22.834l5.833,3.834
	c16.667-17.166-13.5-10.167-13.5-10.167c-9.167-14.667,4.5-15,4.5-15c2.5,7.333,13.5,6.667,13.5,6.667
	c8.667-12.833-8.5-17.333-8.5-17.333v-11.5c11.833,5.667,10.5-4.334,10.5-4.334c20.833-4.167,18.667-17.666,18.667-17.666
	c-3.167-2.666-2.5-5.834-2.5-5.834c20.5-11.333,13.667-22.833,21.333-26.333C292.996,368.464,283.329,372.965,273.329,362.131z"/>
<g id="СевероЗападный">
	<path fill="#eeeeee" stroke="#000000" stroke-miterlimit="10" d="M324.829,241.797c0,0,9,4.667,11.667,8.333
		c0,0-3.666-25.334,8.667-30.667l38.333-30.333c0,0,28.667,1.333,32-8.333c0,0-1-11.333-13,0c0,0-7.666-4-21.333,2
		c0,0-13-7.333-37,23h-5c0,0-6.667,10.667-14.333,13c0,0-5,4.667-1.333,12L324.829,241.797z"/>
	<path fill="#eeeeee" stroke="#000000" stroke-miterlimit="10" d="M390.746,96.88c0,0-3.667,3.583-8.583,3.75
		c0,0-8.25,3.833,1.917,6.417c0,0,12.333-0.833,11.333-8.333C395.413,98.714,394.158,94.539,390.746,96.88z"/>
	<path fill="#eeeeee" stroke="#000000" stroke-miterlimit="10" d="M390.746,93.88c0,0-4.651,7.833-12.742,2.417
		C378.004,96.297,382.163,85.797,390.746,93.88z"/>
	<path fill="#eeeeee" stroke="#000000" stroke-miterlimit="10" d="M406.579,99.464c0,0-10.167-0.334-0.75,8.333
		C405.829,107.797,425.746,109.047,406.579,99.464z"/>
	<path fill="#eeeeee" stroke="#000000" stroke-miterlimit="10" d="M414.907,95.547c0,0-8.911-0.917-2.661,5.583
		C412.246,101.13,421.402,102.13,414.907,95.547z"/>
	<path fill="#eeeeee" stroke="#000000" stroke-miterlimit="10" d="M409.663,110.38c0,0-9.833-2.833-5.167,6.167
		C404.496,116.547,412.746,117.464,409.663,110.38z"/>
	<path fill="#eeeeee" stroke="#000000" stroke-miterlimit="10" d="M420.163,110.38c0,0-6.667-6.083-7.917,1.417
		c0,0-1.771,6,4.989,4.333C417.236,116.13,422.746,113.714,420.163,110.38z"/>
	<path fill="#eeeeee" stroke="#000000" stroke-miterlimit="10" d="M430.079,109.047c0,0-12.083,0.75-4.333,7.417
		C425.746,116.464,436.079,117.297,430.079,109.047z"/>
	<path fill="#eeeeee" stroke="#000000" stroke-miterlimit="10" d="M20.704,254.922c0,0-2.875,1.5-9.25-3.875c0,0-12.25-4-2.875,5.625
		l10.25,11.375c0,0,4.375,3,7.375-1.375C26.204,266.672,21.579,249.047,20.704,254.922z"/>
	<path fill="#eeeeee" stroke="#000000" stroke-miterlimit="10" d="M359.163,299.252l5.833-5.122
		c-5.774-5.883-3.501-10.127-1.234-12.362c-10.367-12.508-18.058-12.097-18.058-12.097c2.375,12.875-11,13.375-11,13.375
		c-3.625-13.375-20.375-9.375-20.375-9.375c-29.625,2.25-6.625-9-6.625-9c0.125-4.375-36.125-1.875-36.125-1.875
		c-13.375,21.125-17.125-4.625-17.125-4.625c6.125-14.625,12.75-3.125,12.75-3.125c8.75-8.625-3.75-16.25-3.75-16.25
		c-1.875,9.375-12.5,14-12.5,14c-0.875,10.875-6.875,13-6.875,13c-6.75,0.5-10.75-8.5-10.75-8.5c-20.25-6.5-21,11.25-21,11.25
		c-11.25-0.25-10.25-11.5-10.25-11.5c2.75-10.5-3.25-8.25-3.25-8.25c-8.25,7.25-2.25,12.25-2.25,12.25c-4.25,13-10.25,3-10.25,3
		c-10-18.25,8.75-29.5,8.75-29.5c9.75-3.25,0.25-15.75,0.25-15.75c9.25-13.5,9.5-5.5,9.5-5.5c0.5,30.5,22,35,22,35
		c15.25-1.5,13.25-20.25,13.25-20.25c-3.75-7-6.417-26.167-6.417-26.167c-10.583-9.833,0.25-21.167,0.25-21.167
		c-33.167-9-32.417,3.833-32.417,3.833c-0.417,10.667-6.5,11.918-6.5,11.918c-10.167,2.333-10.667,8.5-10.667,8.5
		c-0.667,10.833-15.833,11.167-19.333,19.833c-2.5,8-9.5,9.5-9.5,9.5c-6.5,25.333-32.833,17.333-32.833,17.333
		c-15.333,0.667-4.333,11.5-5.167,11.5s-8.333,4.333-8.333,4.333c-10.333-14.167-26.333,5.833-26.333,5.833
		c-12.167-0.667-16.667,19.667-16.667,19.667l7.667,18.333c0,0,11,5.875,9.438-9.625c0,0,12.938,0.25,21.938,7.125
		c0,0,9.75-13.125,15.375,2.5c0,0,6.25-3.75,10.375,2.5h8.375v5.333c0,0,4.833,0.666,6.167,6c0,0,9.833-6.332,8.5,13.334
		c0,0-1.666,4.499,6.167-2.334c0,0,14.833-8.5,26,14.5c0,0,8.667,2.833,11.5-2.5l5.667,1c1.667-4.667,0-8.5,0-8.5l9.667-3.833
		c8.167,0.75,3.333,12.25,3.333,12.25c-7.5,10,0,18,0,18c3.5-7.25,9.75-4.399,9.75-4.399c5,1.601,11.417,0.483,11.417,0.483
		c-3.333-11.166,11.167-6.5,11.167-6.5l8.5,9.354c14.667,1.854,16.167-3.854,16.167-3.854c10,10.834,19.667,6.333,19.667,6.333
		c5.333-27.667,11.5-17.168,16.5-33.834c7.833-10.416,9.167-3.333,9.167-3.333c6-6.834,11.5-7.5,11.5-7.5
		c9.5-8.834,19.833-8,19.833-8C368.33,306.463,359.163,299.252,359.163,299.252z"/>
</g>
</svg>
