<?xml version="1.0" encoding="utf-8"?>
<!-- Generator: Adobe Illustrator 23.0.1, SVG Export Plug-In . SVG Version: 6.00 Build 0)  -->
<svg version="1.1" id="Korea" xmlns="http://www.w3.org/2000/svg" xmlns:xlink="http://www.w3.org/1999/xlink" x="0px" y="0px"
	 viewBox="0 0 530.8 903" style="enable-background:new 0 0 530.8 903;" xml:space="preserve">
<g id="Southkorea">
	<path id="Gangwon" fill="#62bfea" stroke="#cad7e0" stroke-width="0.25" d="M295.1,422.8c-0.9,6.1-13.1,12.3-14.9,13.8c-1.8,1.5-11-3.4-13.9-1.3c-2.9,2.2-4.7,1.3-5.3-0.5
		c-0.7-1.8-14.6,0.1-14.6,0.1s-0.2-0.6-2.9,1.8c-2.8,2.3-9-2.2-10.1-1.8c-1.1,0.4-6.4,2-8.8,0.8c-2.3-1.2-5,1-6,1.6
		c-1,0.6-3-0.6-3-0.6c-0.3,0.2-0.6,0.4-0.9,0.5c-0.3,0.2-0.6,0.4-0.8,0.5c0.3,0.4,0.7,1,0.9,1.5c0.4,1.1,0,5.4,3.2,3.1
		c0,0,0.8,0.4,0.7,0.8c0,0.5-0.2,1.1,0.3,1.5c0.5,0.3-0.1,1,0.2,1.5c0.3,0.6,0.2,1.2,0.8,0.9c0.6-0.3-0.7,1.7,2,3.4c0,0,0.3,1,0.7,0
		s2.4-0.6,2.4-2.6c0,0,1.2-1,2.2,0.1c0,0-0.6,0.6-0.5,1.6c0.1,1-1.8,1-0.1,3.4l1.3-0.1c0,0,0.6,2,1.3,1.9c0.7-0.1,0.8,1.4,1.1-0.3
		c0,0,1.8-0.4,2.3-1.4c0.5-1-0.3,0.5,1.6,0.3c0,0,0.5,1.8,2,0c0,0,0.8-0.6,0.9,5.1c0,0,0.3-0.2,0.5,0.7c0.2,0.9,0.1,2.8,1.2,3.2
		c1.2,0.4,1.4-0.2,1.9,0.4s2.4,0.1,2.4,0.1s0,2.8,1.1,3.1c1,0.2,3.1,0.4,3.2,1.2c0.1,0.8,0.5,0.8,0.7,1c0.2,0.3,0,0.9-0.1,1.2
		c-0.1,0.3,0.6,3.7-0.6,3.9c-1.2,0.3-2.3,0.8-2.3,0.8s0.1,0.7-0.2,0.9c-0.3,0.1-2.9,1.4-2.7,2.5c0,0,1.5,1.1-0.1,3.2l1.4,2.5
		c0,0-1.4,1.7-2.1,2.1c-0.7,0.3-0.6,2.1,0.1,1.5c0.7-0.6,0.7-0.7,2-0.1c0,0,0.5-1.1,1-0.7c0,0,0.1,6.9-1.6,6.9c0,0,1.4,1.6,1.8,1.3
		c0.5-0.3,1.2-0.2,2-1.1c0.8-0.9,0.7-0.7,1.6-0.1c0.9,0.6,2.1,1.9,2.4,1.8c0.3-0.1,0.6-0.2,0.8,0.2c0.2,0.5,2.1,1.4,2.3,2.6
		c0,0,2.7-0.6,5.5,1c0,0,0.3-1,1-0.1c0.7,0.9,0.6,1.2,1.6,1.4c1,0.2,1.7,0.5,1.5,1.1c-0.2,0.6-0.5,1.1-1.4,1.2
		c-1,0.1-0.9-0.3-1.5,0.6c0,0-0.4,0.2-1.2,1.3c-0.7,1-1.1,0.6-1.5,1c-0.4,0.4-0.6,0.4,0.6,0.9s2,1.8,1.7,2.2
		c-0.3,0.4,0.4,1.4,0.2,2.9c-0.2,1.4-1.4,3.5-1.6,3.7s0,1.1,0.2,1.3c0,0-1.4-0.2-1.1,1.3s-0.1,2.5,0.1,3.1c0.2,0.6,0.9,1.5,0,2.7
		c0,0,1.3,1.7-0.2,2.6c-1.5,0.9-0.9,2.7-0.7,3c0.2,0.3-0.1,0.7-0.4,0.8c-0.1,0.3,0.4,1.4,0.4,1.4c-0.4,0.4,0.1,0.4,0.1,0.4
		c-0.1,2.8,2.2,3.4,2.2,3.4l0.6,0.5l1.8-0.3l0.5-0.3c1.4,0.3,1.6-0.5,1.8-0.6c0.2-0.1,0.3,0.3,0.3,0.3l0.5-0.5
		c1.7-0.4,2.4,0.8,2.4,0.8l0.7-1.4l1,0.2c1.4-2.1,0-4.6,0-4.6c-0.7-1.9,4-3.2,4-3.2s-0.3-0.5,0.1,0c0.3,0.5,0.9,0.3,0.9,0.3
		c1.5,0.4,2.4,3.1,2.4,3.1c-0.9,1.2,0,2.1,0,2.1c2.2,0.4,3.6-0.9,3.6-0.9c3-0.5,2.2-2.8,2.2-2.8c1,0.1,1.9,1.4,1.9,1.4
		c1.9,0.7,1.5-1.3,1.5-1.3l2.2-1.4c2,2.5,2.9,1.7,2.9,1.7c0.3,1,1.1,1.6,1.1,1.6l3.2-1.2l1.1,0.5c-0.5,0.3-0.2,1.4-0.2,1.4
		c-1.6,0.3-1.3,1.1-1.3,1.1c-1.3,0.1-0.8,1.4-0.8,1.4c-1.3-0.4-1.9,0.3-2,1.2c0,0.9,2.3,1.9,2.3,1.9c2.4-3.1,4.1-1.4,4.1-1.4
		c-0.1-0.7,0.9-0.1,0.9-0.1c1-1,1.7,1,1.7,1l-0.4,1c2.7,0.8,1.5,1.8,1.8,2.2c0.4,0.4,0.7-0.6,0.7-0.6l2.5,0.1l1.4-1.2l1.5,2
		c0.5-0.6,2.6,1.2,2.6,1.2c0.5-0.7,1.4,0.4,1.4,0.4c0.5-0.2,1.9,0.3,1.9,0.3l1.3-0.5l0.7,1c0.2,0.1,0.4,0.2,0.6,0.3c0,0,0,0,0,0
		c0.2,0.1,0.4,0.2,0.5,0.3v0c0,0,0,0,0,0c0.3,0.2,0.6,0.4,0.6,0.4c1.9,0.3,1.3,1,1.7,0.7c0.4-0.3,1.4,1.1,1.6,1
		c1-0.9,2.8,0.8,2.8,0.8c1.5-0.8,0-2.3,0-2.3l0.4-1.1c0.9,0.4,1-0.8,1-0.8c0.5,0.2,0.1-1,0.1-1l1.7,0.5c-0.5,0.9,2,0.6,2,0.6
		c-0.2,0.7,1.1,2,1.2,2.1c0.1,0,1.9,0.5,1.9,0.5c-0.2-1.1,1.1,0,1.1,0l0.3-1c0.5-0.1,1.5-2.8,1.5-2.8l1.4-0.5c1.3,2.2,0.2,1.1,2.9,1
		c2.7-0.1,5.2,1.8,5.2,1.1c-0.1-0.7,0.5-1.7,0.5-1.7c2-1.8,2.4-0.5,2.4-0.5c0.8-0.2,1.4,0.8,1.4,0.8c2.2-0.1,4,3.5,4,3.5
		c1.9-1.1,3.5,0.3,3.5,0.3l-0.6-0.9c0.3-0.7-0.4-2.1-0.4-2.1c0.5-1.5,2.4-2.5,2.4-2.5s0.4-2.6,1-1.6c0.6,1,1.2,0,1.2,0
		c0.5-1.7,2.8-2.1,4.3-2.1c-0.2-0.6-0.3-1.2-0.2-1.9c0.5-5.5-0.3-6-3-8.8c-2.8-2.8-5.5-11.7-8.3-14.2s-6.3-9.5-6-11.5
		s-3.5-5.5-3.6-9.3c-0.1-3.8-14.6-15.5-16.1-19.3s-5.5-7.8-6.6-10.8s-2.9-3.5-2.9-3.5s-2.6-8.3-3-10.4s-7.1-15.3-9-17.1
		s0.4-2.8-0.3-3.3s-5.8-12-6.6-13.3c-0.2-0.3-0.3-0.6-0.4-1l-3.4,2.6L295.1,422.8L295.1,422.8L295.1,422.8L295.1,422.8L295.1,422.8z
		"/>
	<path id="Jeonbuk" fill="#62bfea" stroke="#cad7e0" stroke-width="0.25" d="M170.7,681c1.2-0.1,1.9,1.6,1.6,2.6c-0.3,1-0.9,0.3-0.8,1.1c0.1,0.8,1.4,0.4,1,1.5
		c-0.4,1.1,0.1,1.2,0.1,1.2c0.4-0.8,0.8-1.2,1.1-0.7s1,1.1,0.4,1.9c-0.6,0.8-0.1,0.5,0.3,1.8c0.4,1.3,0.9,0.7,1.9,0.3s1,0.1,1.5,0.3
		c0.5,0.1,0.5,1,1.1,0.6s-0.9-1.2-0.6-2c0.3-0.8,0.7,0.1,1.1-0.3c0.4-0.4,0.3-0.7,1.5,0.4c1.1,1,1.9,0.1,1.9,0.1
		c0.7,0.2,0.9-1.3,1.3-1.8c0.4-0.6,1,0.5,1.4,0s1-0.3,1-0.4s-0.1-1.3,0.4-1c0.5,0.3,1.4,0.1,1.6-1.5c0.2-1.6-1.1-1,0.4-1.8
		c1.5-0.8,1-1.6,1.2-2s-0.7-1.4-0.9-1.8c-0.1-0.4,0.2-0.1,1-0.8c0.8-0.7-0.2-0.8,2.1-0.9c2.2-0.1,1.9,0.3,2-0.6c0.1-1,0.1-1,1-0.5
		c0.9,0.5,0.7,0.6,0.5,1.2c-0.2,0.6,0.6,0.2,0.6,0.2c1.7,0,0.4-0.1,2.7,1.4c2.3,1.5,0.3,1.1,1.1,1.7s-0.4,0,0.2,0.9
		c0.6,0.8,1.2-0.1,1,1.2c-0.3,1.3,1.9-0.6,1,0.5c-0.9,1.1,3.4,0.6,3-0.1c-0.4-0.7-0.6-2.5-0.1-2.1c0.5,0.4,1.3-1.3,1.6-1.6
		c0.3-0.2,0.3-1.5,0.4-1.3c0.1,0.3,0.7,0.3,1.3-0.1c0.6-0.4,0.9-0.5,0.9,1.4c0,1.9,0.2,0.8,0.9,1.4c0.7,0.6-0.1,0.4-0.2,1.6
		c-0.1,1.2,0.2,0.8-1.1,0.9c-1.3,0.1,0.4,1.5,0.4,1.5s0.2,1.2,0.9,0.4c0.7-0.9,0.6,0.1,1,0.9c0.4,0.8-0.3,1.1,0,1.2
		c0.3,0.1,0.4-0.2,0.2,0.8c-0.2,1.1-1,0.3-1,0.3c-0.7,0.2,0.2,0.3-0.2,0.8c-0.4,0.5-0.9,1.2,0.1,1.3c1,0.1,0.7,0.8,1.1,0.5
		c0.4-0.3,1.3,0.3,2,0.7s2,0,2-0.1c0-0.1-0.2-0.4,0.6-0.5c0.8-0.1,0.5,0.2,1-0.8s1.9-1.3,1.9-1.3c0.2-0.7,0.9-0.6,0.5,0.1
		c-0.4,0.8,2.7,1.9,2.4,0.9c-0.3-1,0.4-2,1.6-0.3c1.2,1.7,3.4,0.8,3.6,1.1c0.2,0.3,1.3,1,1.8,0.4c0.6-0.7,0.9-0.6,1.8-1
		c1-0.4,0.9,0.5,1.5,0.3c0.6-0.2,0.2,0.8,0.8,0.9c0.6,0,2.3-3.7,3.2-4.7s0.2,0.3,1.5-0.2c1.3-0.6,2.1-0.2,2.4,0.1
		c0.3,0.4,0.6-0.5,1.1,0.1c0.4,0.5,3.9,3.3,5,4c0.1,0.1,0.1,0.1,0.2,0.1c0.8,0.4,1.2-0.5,1.8-1.1c0,0,0,0,0,0
		c0.1-0.1,0.2-0.2,0.3-0.2c0.9-0.5,0.7-1.8,0.1-2.2c-0.6-0.5-0.1-1.6,0.6-2c0.7-0.4,0.3-2.4,1.6-2.6c1.4-0.2,0.9-2.2,1.6-2.8
		s-1-0.9-1.7-1c-0.7-0.2-0.9-2-0.1-2.4c0.8-0.5,0.8-0.8,0.3-1.4c-0.5-0.6-1-2.1-1.4-2.5c-0.4-0.4,0.5-0.5-0.2-0.6
		c-0.7-0.1-0.3,0.4-1.5-0.8c-1.3-1.1-1.1-2.1-0.4-2.5c0.8-0.4,1.2-1.1,1-1.9c-0.2-0.9,0.4-1.2,1.2-1.7c0.8-0.5,0-1.5-0.4-2.2
		c-0.4-0.7,0.5-2,0.8-2.1c0.4-0.1,0.5-1.1,0.6-2.3c0.1-1.2,1.6-0.9,1.1-1.6c-0.4-0.7,0.7-1.7,0.2-3.4c-0.4-1.7,1.2-1.5,1.2-1.5
		c0.1-0.7,0.6-1.5,1.7-1.8c1.1-0.3,1.5-1.7,1.8-3.1c0.3-1.3,1.3-1.2,2.1-0.8s1.7-1.4,2.3-1.4c0.6,0,1.1,0.4,1.5-0.7
		c0.4-1.1,1.9,0.1,1.7-0.6c-0.2-0.7,1-3,1-3.1c0.1-0.1,1.1,0.4,1.2-0.5c0-0.1,0-0.1,0-0.2c0-1.2,0.2-0.9,1.2-1.7
		c1-0.8,1.1-1.3,0.2-2.2c-0.6-0.7-1.3-3.9-1.6-5.4c0,0-0.1,0.1-0.1,0.1c0,0-0.6,0.4-1.6-1.4c0,0-3.3,0.9-4.1,1.8
		c0,0-2.7,0.8-2.1-0.2c0,0-0.5-1.3-1.5-0.6c0,0-0.5-0.8-0.8-0.2c-0.3,0.7-0.2-0.7-1.3-0.5c-1.1,0.2-1-1.4-0.9-1.9
		c0.1-0.6-1.5-0.3-1.6,0.6c-0.1,0.9,0.1,1.7-0.9,0.3c-0.1-0.2-0.2-0.3-0.3-0.5c0,0,0,0,0,0c-0.5-0.8-0.7-1.2-1.1-1.3
		c-0.1,0-0.2,0-0.3,0c-0.7,0.1-1.2-0.1-0.8,2.4c0,0,0.9,0.1,1.2,0.8c0,0-0.3,0.1-0.7,0.3c-0.4,0.2-1.2-0.3-0.9,0.6
		c0.3,0.8,0.1,1.9,0.1,1.9s-1.5-2.5-2.2-2.3c-0.7,0.3-0.7,0.3-0.9-0.1s-2.6-1-2.6-1s0.8,0.7,0.2,3.1c-0.5,2.4-1.8,1.6-2.4,1.1
		c0,0,0.1,1.6-1.9,0.2c0,0-0.8,1.2-1.8-1.5c-1.1-2.7,0.1-1.9-1.7-1.1c-1.8,0.9-0.7,1.4-2.3-0.2c-1.6-1.6-1.5-3.2-1.4-4
		c0-0.8-1.2-2.7-0.6-3.4c0,0-0.9-2.6-2-1.7c-1.1,0.8-0.2,1.3-1.3,0.6s0.4,0.7-1.1,1c-1.5,0.3-2,0.2-2.1-0.2c0-0.5-1.1,1-0.5,1.6
		c0.6,0.7-0.3,1.6-1-0.1c0,0-0.8-0.6-1.6-0.3c-0.8,0.3-0.5,1.6-1.4,0.6s-1.3,1.5-1.8,0.5c-0.4-1.1-2.5,0.4-2.2,1.7
		c0,0-0.9,0.2-1.4-0.4c-0.5-0.6-0.9,0.2-1.3-0.2c-0.4-0.4-1.8-1.5-1.8-1.5s0.2-3.2-1.4-4.6c0,0,0,0.5-0.8,0.6
		c-0.8,0.1-0.5-1-1.6-0.9c-1.1,0.1-1.6,0.8-2.3,0.2c-0.7-0.6,0-1.3-2.1-0.3c-2.2,1-2.2,0.9-2.7,0.7c-0.5-0.2-1.9,1.9-1.9,5.3
		c0,0-0.1,1.4-1.9,2.1c-1.7,0.7-2.3,1.6-2.5,1.7c-0.2,0.1-2.5-0.2-3.1,0.6c-0.6,0.7-1.1,1.5-0.6,1.9c0.3,0.3-0.5,0.7-1.6,0.8
		c0.4,0.9-0.2,1.7-0.8,1.5c-0.8-0.3-14.4,1.3-14.3,1.9s2.1,0.4,4.1,0.6s2.8,3,2.1,4.6s1.4,1.6,2.5,0.3s0.3,0.9,3.1,0.6
		s4.6-1.9,5.6-2.4s-0.3,0.8,0.5,1.9s-3.1,1.4-1.5,4c0,0-3.3-1.8-4.3-0.5s2.9,1,3.4,3.2c0.5,2.2,1.5,0.5,2.3,0
		c0.8-0.5-1.4,2.5-0.6,3.7s-3,0.6-2.8-1.6s-2.1-0.3-2.3,0.5s-4.4-2-4.8-1.1s1.6,3,0.9,3.6s-2,1.4-2.4,3.1s-9.1,5.5-9.8,7.4
		s-0.3,2.7,1.4,2.3s-1.1,1.9,8.3,1.5c0,0,3.8-1,3.8-0.7c0,0.2,0,2.6,0.5,3.1s-2.8-1.6-4.8,0.8s-5.9-0.8-8.9,4.9
		c-0.9,1.7-1.7,2.7-2.2,3.4C168.6,680.3,169.8,681,170.7,681z"/>
	<g id="Gyeongbuk">
		<path fill="#62bfea" stroke="#cad7e0" stroke-width="0.25" d="M360.2,536.5c0,0-0.6,1-1.2,0c-0.6-1-1,1.6-1,1.6s-1.9,1-2.4,2.5c0,0,0.7,1.4,0.4,2.1l0.6,0.9
			c0,0-1.6-1.5-3.5-0.3c0,0-1.8-3.7-4-3.5c0,0-0.6-1.1-1.4-0.8c0,0-0.4-1.4-2.4,0.5c0,0-0.6,1.1-0.5,1.7c0.1,0.7-2.5-1.3-5.2-1.1
			c-2.7,0.1-1.6,1.2-2.9-1l-1.4,0.5c0,0-1,2.6-1.5,2.8l-0.3,1c0,0-1.3-1-1.1,0c0,0-1.8-0.4-1.9-0.5c-0.1,0-1.3-1.4-1.2-2.1
			c0,0-2.5,0.3-2-0.6l-1.7-0.5c0,0,0.4,1.2-0.1,1c0,0-0.1,1.2-1,0.8l-0.4,1.1c0,0,1.5,1.5,0,2.3c0,0-1.8-1.7-2.8-0.8
			c-0.2,0.2-1.2-1.3-1.6-1c-0.4,0.3,0.2-0.5-1.7-0.7c0,0-0.2-0.2-0.6-0.4c0,0,0,0,0,0c-0.5,1-1.5,2.8-2.5,1.5
			c-1.3-1.8,0.4,0.8-1.2,0.6c-1.6-0.3-2.1,0.9-2.1,0.9s1.3,0.6-0.7,2.5c-2,1.9-2.1,0.2-2.9,2.1c-0.8,1.9-1.9,1.1-2.7,2.1
			c-0.8,1,0.2,0.8-1.1,1.6c-1.2,0.8,0.1,1.6-0.8,2.7c-0.8,1.1-1,0.4-1,2.1c0,0,1.7-0.3,1.5,2.6c0,0-1.8,2.4-1.8,2.7
			c0,0.3-1.7-0.5-2.9,0.2c-1.2,0.7-0.5,1.1-2.6-0.2c-2.1-1.3-3.5-1.7-3.7-3.4l-2.6-1.3c0,0-0.8,0.5-0.6,1c0.2,0.6,0.8,0.9-1.2,0.9
			l-0.1,2.9c0,0-3.5-0.5-4.7-1.4c-1.2-0.9-0.9,0.5-1.7,0.7c-0.8,0.2-0.8,0.8-0.7,1.4c0.1,0.6-0.6-0.7-1.1,0.4
			c-0.5,1.1-0.7-0.2-1-0.8c-0.2-0.6-1.3-0.4-1.3-0.4l-1.9,5.7c0,0,1.7,1,1.6,1.7c0,0,2.3,1.3,1.1,1.5c-0.1,0-1.7,0.7-3.9-1.6
			c0,0-0.6,1.4-1.9,1s-1.6-2.8-2.3-0.5s-0.6,1.5-1.1,1.5c-0.4,0-0.4,1.8-0.8,1.5c-0.4-0.3-2.5-0.2-3,0.6c-0.5,0.8,0.3,0.2,0.7,0.1
			c0.4-0.2,1.6,0.2,1.7,0.8c0.1,0.6,0.7-0.2,1,0.8c0.3,0.9,0.5,0.5,0.3,1.6c-0.2,1,0.4,1.2-0.3,2.2c-0.7,0.9-0.7,0.9-0.7,0.9
			s-0.6-1.7-1.5-1.7c-0.9,0-0.8-3.3-1.6-2.1c-0.7,1.2-0.9,1.7-1.3,1.6c-0.4-0.1-0.5,0.7-0.2,1.1c0.3,0.4,0.5,0.4-0.2,0.7
			c-0.7,0.4-1.2-0.5-1.7,0c-0.5,0.5-2,0.6-1.6,1.3c0.4,0.7-0.2,1.3,1.7,2c0,0,1.8-0.2,2.5,0.7c0.7,0.9,0.7,0.4,0.7,1.3
			c0,1,0.1,1.2,0.9,1.4c0.8,0.2,1,0.1,1.1,1.4c0.1,1.3,0.3,1.3-0.7,1.3c-1,0.1-1.4-0.6-1.1,0.7c0.3,1.4,0.7,2.3,0.3,3.4
			c-0.4,1.1-0.6,1.7,0.1,2.1c0.7,0.3-1.8,2.1-0.7,2.8c1.1,0.7,0.9,1.4,0.8,1.7c-0.1,0.4,0.9,0.7,0.4,1.6c-0.5,0.9-0.5,0.8-1,0.9
			c-0.5,0.1-2.4,2.3-1.9,3.1s0.4,3.1,1,3c0.5-0.1,1.8,0.1,2.1-0.6c0.2-0.7,1.2-2.4,1.2-1.5c0,0.9,0.1,0.9,0.1,0.9s3,1.9,3,2.4
			c0,0.5,0.9,0.5,1.1,0.2c0.2-0.3,2.1-1.4,2.5-1.4c0.4,0.1,2.9,0.8,2.3,1.5c-0.6,0.7-1,1.5-0.5,1.9c0.6,0.3,0.2,1,0.7,1.2
			c0.5,0.2,1,1.2,0.6,1.4c-0.4,0.1-0.7,0.7-1.6-0.2c-0.8-0.8-2.8-0.4-3.3,0.4c-0.5,0.8-0.9,0.5-0.2,1.3c0.7,0.8,0.1,1.2,1.1,2.2
			c0,0-1,1-0.5,2.1c0.5,1.1-1.2,0.1-1.5,1.7c-0.3,1.6-0.8,1.8-0.5,2.6c0.3,0.8,0.2,1.5-0.7,1.9c-0.8,0.5-0.2,1-1.3,0.8
			c-0.1,0-0.3,0-0.4,0c0,0-0.1,0-0.1,0c-0.1,0-0.2,0.1-0.3,0.1c-0.1,0-0.1,0.1-0.2,0.1c-0.1,0.1-0.2,0.1-0.3,0.2
			c-0.1,0-0.1,0.1-0.2,0.1c-0.1,0.1-0.2,0.1-0.3,0.2c-0.1,0.1-0.2,0.1-0.3,0.2c-0.1,0.1-0.1,0.1-0.2,0.2c-0.1,0.1-0.2,0.2-0.3,0.3
			c0,0-0.1,0.1-0.1,0.1c-0.1,0.1-0.2,0.2-0.3,0.3c0,0,0,0-0.1,0.1c-0.1,0.1-0.2,0.3-0.3,0.4c0.3,1.5,1,4.7,1.6,5.4
			c0.8,0.9,0.7,1.4-0.2,2.2c-1,0.8-1.2,0.5-1.2,1.7c0,0.1,0,0.2,0,0.2c0.3,0.2,0.5,0.5,0.5,1.3c0,0-0.1,1.1,1,0.7
			c1.2-0.4,1.4-0.6,1.3,0.1c-0.1,0.7,1.1,0.5,0.6,2.1s0.6,0.5,1.2,0.4c0.6-0.1,0.7-0.8,0.8,0.1c0.1,0.8,1.2,0.4,1.3,0.1
			c0.2-0.3,0.5-0.3,0.7,0.3c0.2,0.5,1,2.2,1.7,1.9c0.7-0.3,1.1-0.9,1.6-0.2c0.6,0.7,1.2,0,1.6-0.4c0.4-0.4,1.6-0.2,1.8,0.5
			c0,0,1.1,0,1.3,0.6c0.2,0.6,1.2-0.9,1,0.5c-0.2,1.4,0.3,3.1,1.3,2.8c1-0.3,1.1,0.2,1.3,0.8c0.2,0.6,0.1,1.2,0.8,1.4
			c0.7,0.2,1.3,0.5,1.6,1.8c0.3,1.3,0.8,4.7,0.4,4.5c-0.4-0.3-1.2,0.7-1.5,0.9c-0.3,0.2-1,0-1.1,0.5c-0.1,0.6-0.3,1.5,0.4,1.2
			c0.7-0.3,1.4-0.6,1.7,0.1c0.3,0.7,2.5,0.9,2.7,1.1c0.2,0.2,0.5-0.4,0.3-0.8c-0.2-0.4-0.1-1,1.2-0.1c1.3,1,1.6,0,1.7-0.2
			c0.1-0.2,1,0.2,1.3,0c0.3-0.3,1.1,0,1.5,0.5c0.4,0.5,0.9,0,1.1-0.1c0.1-0.1,0.4,0.3,1,0.3c0.5,0,1.1,1.8,0.7,2.2c0,0,0,0.1,0,0.1
			c0,0,0,0,0.1,0c0,0,0,0,0,0c0.1,0,0.2,0,0.4,0l0,0c0.1,0,0.1,0,0.2,0c0,0,0,0,0.1,0c0.1,0,0.1,0,0.2,0c0,0,0.1,0,0.1,0
			c0.1,0,0.2-0.1,0.3-0.1c0.1,0,0.1-0.1,0.2-0.1c0,0,0.1,0,0.1-0.1c0.1,0,0.1-0.1,0.2-0.1c0,0,0.1,0,0.1-0.1c0.1,0,0.2-0.1,0.2-0.2
			c0,0,0,0,0,0c0.1-0.1,0.2-0.1,0.2-0.2c0,0,0,0,0,0c0.1-0.1,0.1-0.1,0.1-0.2c0,0,0,0,0-0.1c0-0.1,0.1-0.2,0.1-0.2c0,0,0,0,0-0.1
			c0-0.1,0-0.2,0-0.3c0,0,0,0,0,0c0-0.1-0.1-0.2-0.1-0.3c0,0,0-0.1-0.1-0.1c0-0.1-0.1-0.2-0.2-0.3c0,0-0.1-0.1-0.1-0.1
			c-0.1-0.1-0.2-0.3-0.4-0.4c-2.7-2.7-2.9-2.9-2.4-4.4c0.5-1.5,4.1,1.7,5.1,0.5c1.1-1.2-0.3-2.8-1.6-3.5c-1.3-0.6-2.3-1.5-0.9-2.6
			c1.4-1.1-0.1-1.1,0.9-2.2c1-1.1,0.3-1.4,1.7-1.2c1.4,0.2,2.9,0.1,3.1-1c0.2-1.1-2.6-2.5-4.9-2.4c-2.3,0.2-1.6-1.6-1.3-2.2
			c0.3-0.6,1.5-1,1.3-1.5c-0.2-0.6,0.7-2.8,2.1-3.3c1.4-0.6,0.3-1.3,1-0.9c0.7,0.4,1.5,0.1,1.4,1.3c-0.1,1.1-0.1,1.7-0.4,1.7
			c-0.3,0,0,0.6,1.3,1c1.3,0.5,1.1,0.9,1.3-0.4c0.2-1.3,1.8-2.2,1.9-3.3c0.1-1.1-1-2.8-0.3-3.2c0.7-0.5,1.1,1.6,2.1,0.4
			c1-1.1,1.4-0.2,2.2-1.3c0.8-1,2-1.9,2.2-1.9c0.2,0,1.8,0.1,2.5-0.5c0.7-0.5,1.8-0.5,2.3,0.1c0.5,0.5,3,0.3,2.4,2.3
			c0,0,1.3,1.5,0.8,2.2c-0.4,0.7-0.4,1.2,0.1,1.5c0.5,0.4-1.3,1.1,0,2c1.3,0.9,0.9,1.7,1,2c0,0.3,0.2,2-0.2,2.6
			c-0.4,0.6-1.4,1.2-2.4,0.2c-1-0.9,0.8,1.3,0.3,1.8c-0.5,0.5-1.3,1.3-0.8,1.8c0.5,0.5,0.5,0.8-0.9,2l-1.1,0.4c0,0,0.5,2.2,0.9,2.9
			c0.4,0.7-0.4,3.4-1.5,3.4c-1.2,0-1,0.7-1.9,1c-0.9,0.3-2.5,0.5-1.8-1.1c0,0-0.6-1-0.2-1.5c0.4-0.5-1,0.7-1.5,0.3
			c-0.5-0.5-1.2-0.6-1.9,0.3c-0.8,0.9-2.8,0.7-2.2,1.9c0.6,1.1,0.2,1.9-0.1,2.3c0,0-0.1,0.1-0.1,0.2c0,0.1,0,0.1,0,0.2
			c0,0.1,0,0.1,0,0.2c0,0,0,0,0,0.1c0,0.1,0,0.1,0,0.2c0,0,0,0,0,0.1c0,0.1,0,0.1,0.1,0.2c0,0.1,0.1,0.2,0.1,0.2c0,0,0,0,0,0.1
			c0,0,0.1,0.1,0.1,0.1c0,0,0,0,0,0c0,0,0.1,0.1,0.1,0.1c0,0,0,0,0,0c0,0,0.1,0,0.1,0c0.3-0.4,0,3.6,0.7,3.5c0.7-0.1,0.9-0.1,1,0.8
			c0.2,0.8,2.6,3.1,4.6,2.1c2.1-1,1.9-1.2,2.6-0.8c0.7,0.4,1.3-0.9,1.7,0.2c0.4,1,1,1.4,1.9,1.1c0.9-0.4,4.5,1.9,5.2,0.6
			c0.7-1.3,0.4-1.2,1.3-1.7c0.9-0.5,1.4-0.8,1.9-0.1c0.4,0.7,0.5-0.3,1-0.8c0.5-0.5,1.6-2.2,1.5-2.8c-0.1-0.6,0.9,0.6,1.6,0.2
			c0.7-0.4,1.7-0.6,2.1-0.2c0.4,0.4,0.4-0.5,1.8,1c1.4,1.5,2.5,1,3.1,0.3c0,0,0,0,0.1-0.1c0.4-0.4,0.6-0.7,0.9-1c0,0,0,0,0,0
			c0.1,0,0.1-0.1,0.2-0.1c0,0,0.1,0,0.1-0.1c0.1,0,0.2-0.1,0.2-0.1c0,0,0.1,0,0.1,0c0.1-0.1,0.3-0.1,0.4-0.1c1.3-0.4,0.5-1.6,1.4-1
			c0.9,0.7,2.1,0.7,1.1-0.8c-0.9-1.5,0.7-3.9,1.2-3.7c0.5,0.1,0.3,0.4,1-0.4c0.7-0.8,1-0.2,1.5-0.6c0.5-0.4,1.1-1.6,1.5-0.9
			c0.4,0.6,2,0.7,2.2,0c0.2-0.6,0.9,0.5,1.8,0c0.9-0.5,0.7,1.2,2.2,1.3c1.4,0.1,1.5,0.3,1.4,1.4c-0.1,1.1-1,2.3,0.2,2.9
			c1.2,0.6,0.9-0.4,1.5,0.2c0.6,0.6,0.8,0.8,1.3-0.3c0.5-1.1,1.3,0.1,1.6-0.5c0.4-0.6,1.6-1.9,2.6-1.2c1.1,0.7,2.5,0.1,3.5,1.1
			c0.6,0.6,1.7,0.6,2.6,0.5c0-1.7,0.4-3.7,1.8-5.3c3-3.7,1-5.5,1-5.5c2.5-1.2,2.7-8,2-9.5c-0.7-1.5-1.7-2,1.8-6s-0.3-11-0.3-9.5
			s-8,12.8-8.7,8.5c-0.7-4.3-1.2-1.3-2.7-3.2s3.5-5.5,3.5-5.5c-3.7-2-3.8-12-4.2-16.5c-0.3-4.5,2.8-7.3,4.2-10.3s0.5-11.2-0.8-13.5
			c-1.3-2.3,1.2-7.5,1.2-7.5c1.8,0.8,4.1-5.2,1.3-11.3c-2.8-6.1-2.9-14.3-2.9-14.3c2.4-9.6-4.6-12.4-6-16.7
			C363,534.4,360.6,534.7,360.2,536.5z"/>
		<path fill="#62bfea" stroke="#cad7e0" stroke-width="0.25" d="M422.7,509.1c0,0-1.2-5-3.6-3.6c-2.4,1.4-5.4,1.6-5.2,3.6c0.2,2,4.2,5.4,7.2,4.2
			C424.1,512.1,422.7,509.1,422.7,509.1z"/>
		<path fill="#62bfea" stroke="#cad7e0" stroke-width="0.25" d="M427.9,513.3c0,0,0.5-1.6-0.4-1.8c-0.9-0.2-1.6-0.9-2.1-0.4c-0.4,0.5-0.3,2.3,0.7,2.7
			S427.9,513.3,427.9,513.3z"/>
	</g>
	<path id="Ulsan" fill="#62bfea" stroke="#cad7e0" stroke-width="0.25" d="M370.7,660.1c-1-0.9-2.4-0.3-3.5-1.1c-1.1-0.7-2.3,0.6-2.6,1.2s-1.2-0.6-1.6,0.5
		c-0.5,1.1-0.7,0.9-1.3,0.3c-0.6-0.6-0.3,0.5-1.5-0.2c-1.2-0.6-0.4-1.8-0.2-2.9c0.1-1.1,0.1-1.3-1.4-1.4c-1.4-0.1-1.2-1.8-2.2-1.3
		c-0.9,0.5-1.6-0.7-1.8,0c-0.2,0.6-1.9,0.6-2.2,0c-0.4-0.6-1,0.5-1.5,0.9s-0.8-0.2-1.5,0.6c-0.7,0.8-0.5,0.5-1,0.4
		c-0.5-0.2-2.1,2.2-1.2,3.7c0.9,1.5-0.2,1.5-1.1,0.8c-0.9-0.7-0.1,0.6-1.4,1c-0.2,0-0.3,0.1-0.4,0.1c0,0-0.1,0-0.1,0.1
		c-0.1,0-0.2,0.1-0.2,0.1c0,0-0.1,0-0.1,0.1c-0.1,0-0.1,0.1-0.2,0.1c0,0,0,0-0.1,0c-0.4,0.3-0.5,0.6-0.9,1c0,0,0,0,0,0
		c1.2,0.5,3.7,2-1.8,4.8c0,0,0.1,1.5,0.7,1.4c0.5-0.1,1.5,0.4,1,1.1c-0.5,0.7,2.9,1.4,4,1.4c1.1,0,0,0.5,1.9,1.1
		c1.9,0.6,1.4,1.2,1.9,2.3c0.5,1.1,3.1,4.2,4.7,3.3c1.6-0.8,1.6-0.1,1.4,0.3c-0.1,0.5,0.8,1,1.2,1.6c0,0,0,0.1,0,0.2c0,0,0,0,0,0
		c0,0.1,0,0.1-0.1,0.2c0,0,0,0,0,0c0,0.1-0.1,0.1-0.2,0.2c0,0,0,0.1-0.1,0.1c0,0-0.1,0.1-0.1,0.1c-0.1,0.1-0.2,0.2-0.3,0.3
		c0,0,0,0,0,0c-0.1,0.2-0.2,0.3-0.3,0.5c0,0,0,0,0,0c0,0.1,0,0.1,0.1,0.2c0,0,0,0,0,0c0,0,0.1,0.1,0.1,0.1c0,0,0,0,0,0
		c0.1,0,0.1,0.1,0.2,0.1c0,0,0.1,0,0.1,0c0.1,0,0.2,0,0.3,0.1c0.1,0,0.3,0,0.5,0c2.9,0.1,2.8-0.8,3.4,0.6c0.5,1.3,0,2.9,2.4,3.5
		c1.3-0.9,3.1-1.5,2.5-1.7c-0.8-0.3-1-2.2,0-2.8c1-0.7-0.3-4.8-0.3-4.8l1.5,0.8c2.2-5.5-1.3-5.7-2.3-6.3c-1-0.7-0.3-2.2,1.3-2.2
		s3.1,7.2,4.6,5.5c1.5-1.7,2.3-10.7,2.6-11.5c0.2-0.5-0.3-2.2-0.3-4.3C372.4,660.7,371.3,660.7,370.7,660.1z"/>
	<path id="Busan" fill="#62bfea" stroke="#cad7e0" stroke-width="0.25" d="M361.3,684.5c-0.6-1.4-0.5-0.5-3.4-0.6c-0.2,0-0.3,0-0.5,0c-0.1,0-0.2,0-0.3-0.1c0,0-0.1,0-0.1,0
		c-0.1,0-0.2-0.1-0.2-0.1c0,0,0,0,0,0c-0.1,0-0.1-0.1-0.1-0.1c0,0,0,0,0,0c-0.1,0.3-0.3,0.7-0.4,1.2c-0.4,2.7-2.4,1.2-3.7,0.9
		c-1.3-0.4-0.7,1.1-0.9,1.9c-0.2,0.8-0.9,3.4-1.3,3.3c-0.4-0.1-1.5,0.2-2,0.7c-0.6,0.6-2.1-0.6-1.7,0.4c0.4,0.9-1.4,1.2-2.1,1.3
		c-0.8,0.1-2,3.6-2.7,4.2c-0.7,0.5-1.9-0.5-3.2,0.4c-1.3,0.9-1.7-0.4-2,0.3c-0.3,0.7-1.2,0.5-2,1.1c-0.9,0.6,0.9,2.6,0.3,2.8
		c-0.5,0.2-0.4,0.4,0,1c0.4,0.6-0.9,1.7-1,0.6c-0.1-1.1-1.4-0.8-1.4-0.8c-1.1,1.6-2.7-0.6-3.4,0.6c-0.6,1.2,2.2,2,2.7,2.7
		c0.5,0.7,0.7,1.7,0,2c-0.7,0.3-1.7-0.4-0.8,0.6c0.8,1-1.6,1.7-1.6,1.7s-0.6,5.6,0.2,6.1c0.8,0.5,2.8,4.8,2.8,4.8s5.5-4.8,2.1-8.8
		c-1.2-1.4-1.9-2.4,0.7-2.4c0,0,3.3,0.4,4.4-1.1c1.1-1.4,0.5,2.1,0.5,2.1c0.1,3.1,3.2,3.1,3.2,3.1v-3.1l1.6,2.3l0.7-2.3
		c0,0,4,4.9,4,1.9s-3-3.1-3-3.1l1.2-1.9c2.5,3.3,5.3,1.5,4.5,0c-1.2-2.2,0.5-3.2,0.5-3.2c4.3,2.5,2.4-3.4,4.1-3.4c1.7,0-0.2-3.7,1-3
		c1.2,0.7,1-3.5,2-3.5s-0.8-3-0.8-4.5s3.3,0.7,3.7-1c0.1-0.5,0.6-1,1.2-1.4C361.3,687.4,361.9,685.8,361.3,684.5z"/>
	<path id="Seoul" fill="#62bfea" stroke="#cad7e0" stroke-width="0.25" d="M191.9,500.6c0.8,0.4,2.1,1,2.2,1c0.1,0.1,0.1,0.7,0.5,0.2c0.4-0.5,0.8-0.5,1.3-0.2
		c0.5,0.2,0.1,3.7-0.3,4c-0.4,0.3,0.6,0.7,0.3,1.4c-0.3,0.7,0.4,0,1.1,0.3c0.7,0.3,0.8-0.6,1.7-1.4c0.9-0.8,1.4,1,1.1,1.5
		c-0.3,0.5,0.8,0.8,0.5,1c-0.3,0.2,0,0.5,0.4,0.9c0.4,0.4,0.2,0.9,0.8,1.4s1.1-0.7,1.5-1.1c0.4-0.4-0.1,0.7,1.3,0.8
		c1.3,0.1,1.2-0.7,1.8-0.8c0.7,0,1.6-2,2.1-1.2s0.9,0.6,1.4,0s0.8,0.7,0.6,1.5s0.6,0.6,0.5,1.1s1.2,0.3,1.5,0c0.3-0.3,0-0.9,0.3-0.7
		c0.4,0.2,0.8-0.1,1.2-0.9c0.4-0.8,0.9-1,1.4-0.6c0.5,0.4,0.5-0.6,0.8-0.5c0.3,0.1,0.7,0.2,0.6-0.2c-0.1-0.4-0.2-0.7,0.2-0.5
		c0.4,0.2,0.7-0.6,0.9-1c0.2-0.4,0.4-0.1,0.5-1.1c0.1-1.1-0.3,0-0.9-0.5c-0.7-0.5-0.3-0.7,0-1c0.3-0.3,0.7-0.8,0.6-1.2
		c-0.1-0.4,0.4-1.2,0.9-1.1c0.5,0.1,0.9-1.1,0.7-1.3c-0.3-0.1-0.5-1.9-0.5-1.9s-0.7,0.8-1.9,0.9c-1.2,0.1-1.4,1-1.4,1
		c-1.9,0.1-1-1-1.1-1.2s0.7-1.6,0.7-1.6c0.9-2.7-0.5-2.5-0.5-2.5c1.4-1.9-0.1-2.1-0.1-2.1c-0.3,0-0.6,0.1-0.6-0.6s-0.2-2.1-0.2-3
		c0-0.9-1-0.3-1.3-0.5c-0.2-0.2-0.2,0-0.5,0c-0.4,0-0.8,1.1-0.9,0.6c0-0.5-0.3-0.6-0.7-0.5c-0.4,0.1-0.6-0.2-1-0.5
		c-0.4-0.4-0.8,0.1-1,0.7c-0.2,0.5-0.3,0.6-0.7,0.9s-0.1,1-0.4,1.3s-0.9-0.1-0.3,1.5c0.6,1.6-1.2,1.3-1.5,1.3
		c-0.3,0-0.4-1.8-0.8-2.1c-0.3-0.3-0.9,0.5-1.2,0.5c-0.3,0-0.4,0.6-1,0.4c-0.6-0.1-0.3,1.8-0.7,2c-0.5,0.3-0.4,2.5-0.7,2.7
		c-0.2,0.2-0.6,0-0.8-0.2c-0.2-0.2-0.4,1.2-0.4,1.2c-0.4-0.4-1.4,0.4-1.4,0.4c-0.8,0.1-2.8-2.2-3-2.6c-0.3-0.4-1-0.2-0.7,0.2
		s-0.9,1.7-0.9,1.7S192,500.5,191.9,500.6z"/>
	<path id="Gwangju" fill="#62bfea" stroke="#cad7e0" stroke-width="0.25" d="M207.4,701.9c-2-1.4-2.5,0.7-2.8,0.1c-0.3-0.6-0.4-1.3-0.2-1.6c0.2-0.3-0.9-0.7-1-1.1
		c-0.1-0.4-0.3-1-0.7-1.7s-0.5-0.8-0.4-1.3c0.2-0.5-1.5-0.7-1.8-0.9c-0.3-0.3-1.2,1.1-2.1,0.9c-0.8-0.2-2,1.3-2.3,1.4
		c-0.4,0.1-1.1-0.2-1.7,0.5c-0.6,0.7-1.8,0.5-1.8,0.5s-1.8-1.8-2.4-1.6c0,0,1.4-2,0.4-1.7c-1,0.3-2.6,1.1-2.7,2.8
		c-0.2,1.7,0,0.9-0.4,1c-0.4,0.1-1.3,0.4-1.6-0.2c-0.3-0.6-0.8,1-0.9,1.4c-0.1,0.4-1.6-0.2-1.5,0.5s0.7,1.3,0.8,1.8
		c0.1,0.5-0.7,0-0.9,0.9c-0.2,0.9-0.6,1.1-0.2,1.4s0.4,1.1,0.1,1.9c-0.2,0.8-0.1,0.6,0.6,0.7c0.7,0.1,0.3,1.2,1.3,0.5
		c1.1-0.7,1.7,0.4,1.7-0.2c-0.1-0.6,1.6,0.7,1.7,0.1s0.8,0.7,1.2,0.6c0.5-0.1,0.2,0.6,0.7,0.8s-0.1,0.8,0.7,1.3
		c0.7,0.5-0.1,0.8-0.4,0.7c-0.3-0.1-0.8,0.1-0.5,0.6c0.3,0.5,1.2-0.7,1,0.2c-0.2,0.8,0.5,0.9,1.2,0.5c0.8-0.4,0.8-0.4,1.2,0.1
		c0.4,0.5,1.1-0.1,1.2-0.3c0.1-0.2,1.5-0.5,2-1.2c0.4-0.7,0.7-0.5,1.1-0.4s0.9,0,1.3-0.3s1,0.3,1.3-0.2c0.3-0.5,0.8-0.6,1.1-0.5
		c0.3,0.1,0.8,1.4,1.8,1.4c1-0.1,1.2-0.7,1.1-1.1c-0.1-0.4,1-0.6,1.1-0.6c0.1,0,1.7-0.8,1.5-1.5c-0.2-0.7,0.7-1.3,0.8-1.4
		c0-0.1,0-1.1-0.2-1.4c-0.2-0.3,0.4-0.8,0-1.1C206.9,703.9,209.4,703.3,207.4,701.9z"/>
	<path id="Gyeonggi" fill="#62bfea" stroke="#cad7e0" stroke-width="0.25" d="M209.7,553.6c0,0,2.1-1.1,2.4-0.9c0.3,0.2,0.6,0.3,1-0.2c0.4-0.5,1.1,0.2,1.1,0.2
		c0.9-0.8-0.1-1.2-0.1-1.2c0.7-1.8,2.4-0.8,2.4-0.8c1.5-1.3,4,1.2,4,1.2s-1.2,0.1,0.1,0c1.2-0.1,0.7,2.1,1.4,1.8c0.7-0.2,2,1.3,2,1
		c0-0.3,1-0.7,0.9-0.2c0,0.6,0.7,0.3,0.9,0.4c0.2,0.1,0.9,1.7,0.9,1.7c0.2,0.2,1.5-1.1,0.8-2.3c-0.7-1.2,1.8-0.3,2.6-1.6
		c0.8-1.3,1.9-0.7,2.4-0.5c0.5,0.2-0.2-0.6,1.3-1.3c1.5-0.6,0-0.5-0.3-1.8c-0.3-1.3,2.8-1.6,2.8-1.6c3.8-2.4,1.4-0.5,1.8-3.1
		c0.5-2.6,2.4,0,3.3-0.9c0.9-0.9,1.9-0.5,2.7,0.3c0.8,0.8,1.6,0.1,1.3-0.2c-0.3-0.4,0.2-2.6,1.2-2.1c1,0.5,1.6,0.4,1.3,0
		c-0.3-0.4-0.3-1.3,0.2-1.1s0.8-0.6,1.4-0.7c0.6-0.1,0.5-3.4,0.5-3.4c-0.3-0.3-0.4-1.4-0.4-1.4c0.7-0.6,1.8,0.9,2,1.1
		s1.1,0.3,1.1,0.3c0.5,0.3,1.2-0.3,1.2-0.3s-0.1-1.1,0.1-1.1c0.3-0.1,0.4-0.1,0.4-0.7c0-0.6,0.8-1.8,0.9-1.8c0.1,0,0.7-0.3,0.7-0.3
		c0.2-1.7,1.1-2.6,1-2.3c0.3-0.1,0.6-0.5,0.4-0.8c-0.2-0.3-0.8-2.1,0.7-3c1.5-0.9,0.2-2.6,0.2-2.6c0.9-1.3,0.2-2.1,0-2.7
		c-0.2-0.6,0.2-1.6-0.1-3.1s1.1-1.3,1.1-1.3c-0.1-0.2-0.4-1.1-0.2-1.3s1.4-2.3,1.6-3.7s-0.5-2.5-0.2-2.9c0.3-0.4-0.5-1.7-1.7-2.2
		s-0.9-0.5-0.6-0.9s0.7,0,1.5-1c0.7-1,1.2-1.3,1.2-1.3c0.7-0.8,0.6-0.5,1.5-0.6c1-0.1,1.2-0.7,1.4-1.2c0.2-0.6-0.6-0.9-1.5-1.1
		c-1-0.2-0.9-0.5-1.6-1.4c-0.7-0.9-1,0.1-1,0.1c-2.8-1.6-5.5-1-5.5-1c-0.2-1.2-2.1-2.1-2.3-2.6c-0.2-0.5-0.5-0.3-0.8-0.2
		c-0.3,0.1-1.5-1.2-2.4-1.8c-0.9-0.6-0.7-0.9-1.6,0.1c-0.8,0.9-1.6,0.8-2,1.1c-0.5,0.3-1.8-1.3-1.8-1.3c1.6-0.1,1.6-6.9,1.6-6.9
		c-0.5-0.4-1,0.7-1,0.7c-1.3-0.6-1.3-0.5-2,0.1c-0.7,0.6-0.8-1.2-0.1-1.5c0.7-0.3,2.1-2.1,2.1-2.1l-1.4-2.5c1.7-2.1,0.1-3.2,0.1-3.2
		c-0.2-1.1,2.3-2.4,2.7-2.5c0.3-0.1,0.2-0.9,0.2-0.9s1.1-0.5,2.3-0.8c1.2-0.3,0.5-3.6,0.6-3.9c0.1-0.3,0.3-1,0.1-1.2
		c-0.2-0.3-0.6-0.2-0.7-1c-0.1-0.8-2.2-1-3.2-1.2c-1-0.2-1.1-3.1-1.1-3.1s-1.9,0.5-2.4-0.1c-0.5-0.6-0.7,0-1.9-0.4
		c-1.2-0.4-1.1-2.2-1.2-3.2c-0.2-0.9-0.5-0.7-0.5-0.7c-0.2-5.7-0.9-5.1-0.9-5.1c-1.5,1.8-2,0-2,0c-1.9,0.2-1.1-1.3-1.6-0.3
		c-0.5,1-2.3,1.4-2.3,1.4c-0.3,1.7-0.5,0.2-1.1,0.3c-0.7,0.1-1.3-1.9-1.3-1.9l-1.3,0.1c-1.6-2.4,0.3-2.4,0.1-3.4
		c-0.1-1,0.5-1.6,0.5-1.6c-0.9-1.1-2.2-0.1-2.2-0.1c-0.1,2.1-2,1.7-2.4,2.6c-0.4,1-0.7,0-0.7,0c-2.6-1.7-1.4-3.7-2-3.4
		c-0.6,0.3-0.5-0.4-0.8-0.9c-0.3-0.6,0.3-1.2-0.2-1.5c-0.5-0.3-0.3-1-0.3-1.5c0-0.5-0.7-0.8-0.7-0.8c-3.2,2.3-2.9-2-3.2-3.1
		c-0.2-0.5-0.6-1.1-0.9-1.5c-0.6,0.4-1.1,0.7-1.6,1c0,0,0,0,0,0c-0.5,0.3-0.9,0.7-1.4,1c0,0,0,0,0,0c-0.4,0.3-0.8,0.6-1.2,0.9
		c0,0,0,0,0,0c-0.4,0.3-0.7,0.6-1,0.9c0,0,0,0,0,0c-1.9,1.6-2.8,3-3.3,4.2c0,0,0,0,0,0c-0.1,0.2-0.1,0.4-0.2,0.6c0,0,0,0,0,0
		c-0.1,0.2-0.1,0.4-0.1,0.6c0,0,0,0,0,0c0,0.2-0.1,0.4-0.1,0.6c0,0,0,0,0,0c0,0.2-0.1,0.4-0.1,0.6v0c0,0.2,0,0.4-0.1,0.6
		c0,0.2,0,0.4-0.1,0.6c-0.4,3.5-0.3,2.2-4.9,4.7c-4.6,2.5,0.4,1.8-3.3,6.9s-12.1,7.3-12.1,7.3c0.5,1.2,0.2,6.5,0.1,8.5
		c1.2-0.6,2.9-0.9,3.3-2c0.4-1.2,2-2.9,2.2-2.4c0,0-1.5,2.4-1.3,3.5c0.2,1.1-3.3,1-3.8,1.9c-0.4,0.9-0.3,7.3-0.1,9s1,3.8-0.2,3.7
		c-1.2-0.1-1.3,0.1-1.4-2.8c-0.1-2.8,1-5-1.3-3.7c-2.3,1.3-5,1.2-6.3,0.5c-1.3-0.7-1.7,1.3-1.3,4.8c0,0,1,8.7,1.7,10.5
		c0.5-0.6,2.6-2.6,3.5-2.5c1.1,0.1,1.7,0.3,2.3-0.8c0.5-1,1.8-2.3,2.2-1.9c0.4,0.4,0.7-1.6,1.5-0.5c0.8,1,3.2,2.9,3.3,3.6
		c0.1,0.7,1-1,1.6,0c0.6,1,3.2,0.8,3.2,0.8s1.1-1.3,0.9-1.7s0.5-0.6,0.7-0.2c0.3,0.4,2.3,2.6,3,2.6c0,0,1-0.8,1.4-0.4
		c0,0,0.2-1.4,0.4-1.2c0.2,0.2,0.6,0.5,0.8,0.2c0.2-0.2,0.2-2.4,0.7-2.7c0.5-0.3,0.1-2.2,0.7-2c0.6,0.1,0.7-0.4,1-0.4
		c0.3,0,0.9-0.9,1.2-0.5c0.3,0.3,0.4,2.1,0.8,2.1c0.3,0,2.1,0.2,1.5-1.3c-0.6-1.6,0-1.1,0.3-1.5c0.3-0.3,0-1,0.4-1.3
		c0.5-0.3,0.5-0.4,0.7-0.9c0.2-0.5,0.6-1,1-0.6c0.4,0.4,0.6,0.7,1,0.5c0.4-0.1,0.7-0.1,0.7,0.5s0.5-0.6,0.9-0.6c0.4,0,0.3-0.2,0.5,0
		c0.2,0.2,1.3-0.4,1.3,0.5c0,0.9,0.2,2.3,0.2,3c0,0.7,0.3,0.6,0.6,0.6c0,0,1.5,0.2,0.1,2.1c0,0,1.4-0.2,0.5,2.5c0,0-0.7,1.3-0.7,1.6
		s-0.8,1.3,1.1,1.2c0,0,0.2-0.8,1.4-1c1.2-0.1,1.9-0.9,1.9-0.9s0.3,1.7,0.5,1.9c0.3,0.2-0.1,1.4-0.7,1.3c-0.5-0.1-1,0.7-0.9,1.1
		c0.1,0.4-0.3,0.9-0.6,1.2c-0.3,0.3-0.7,0.5,0,1c0.7,0.5,1-0.6,0.9,0.5c0,1.1-0.3,0.7-0.5,1.1c-0.2,0.4-0.5,1.2-0.9,1
		c-0.4-0.2-0.3,0.1-0.2,0.5c0.1,0.4-0.3,0.3-0.6,0.2c-0.3-0.1-0.3,0.9-0.8,0.5c-0.5-0.4-1.1-0.1-1.4,0.6c-0.4,0.8-0.8,1.1-1.2,0.9
		c-0.4-0.2-0.1,0.4-0.3,0.7c-0.3,0.3-1.6,0.5-1.5,0c0.1-0.5-0.7-0.4-0.5-1.1c0.1-0.7-0.1-2.1-0.6-1.4c-0.5,0.6-0.9,0.8-1.4,0
		c-0.5-0.8-1.5,1.2-2.1,1.2c-0.7,0-0.5,0.9-1.8,0.8c-1.3-0.1-0.9-1.2-1.3-0.8c-0.4,0.4-0.9,1.6-1.5,1.1c-0.6-0.5-0.4-1-0.8-1.4
		c-0.4-0.4-0.7-0.7-0.4-0.9c0.3-0.2-0.8-0.5-0.5-1c0.3-0.5-0.3-2.2-1.1-1.5c-0.9,0.8-1,1.7-1.7,1.4c-0.7-0.3-1.4,0.4-1.1-0.3
		c0.3-0.7-0.7-1.1-0.3-1.4c0.4-0.3,0.8-3.7,0.3-4c-0.5-0.2-0.9-0.3-1.3,0.2c-0.4,0.5-0.4-0.1-0.5-0.2c-0.1,0-1.4-0.7-2.2-1
		c-0.1,0.1-0.6,0.9-0.6,0.9c-0.2,0.4-0.1,2.6-0.6,2.8c-0.5,0.2-0.8,1.1-0.1,2.3c0.7,1.2,2.7,0.9,2.1,2.9c-0.7,2-5.1,7.5-5.8,7.3
		c0.1,1.4-1,2.6-0.5,3.9s4.4,3.6,6.5,3s-1.8,1.4-1.3,2.8s-2-0.8-1.9-1.8c0.1-1-4.4,1.6-5.5,1.8c-1.1,0.2-1-0.2-0.6,1.8
		s-0.5,3.8-1,4.1c-0.5,0.3-0.5,1.3,0.8,1.8s-0.3,2.9,2.5,1s-2.6,4.4-0.6,4.6c2,0.1,2.8-1.8,4.8-3.6c2-1.8,4.1-1.7,4,0
		c-0.1,1.7,2.5,0.4,1,1.9c-1.5,1.5-9.1,7.9-4.3,8.3c4.9,0.4,1.4,2.3,1.1,2.8s2.3,0.6,2.9,2.6s1.8,1.6,3.5,2.3c1.8,0.6,1.1,2,1.1,2.8
		s2.3-2.1,4.8-2c2.5,0.1,0.4-2.1,0.5-3.9c0.1-1.8,1.8-2.9,3.1-0.5c0,0,0.9,1-0.4,1s-1.6-2.5-1.5,1.5c0,0.3,0,0.6,0,0.8
		C207,552.5,209.7,553.6,209.7,553.6z"/>
	<path id="Jeju" fill="#62bfea" stroke="#cad7e0" stroke-width="0.25" d="M199.5,826.7c-3,0.8-5-3.9-7-3.4s-17.8,5.3-18.3,4.5s-3.6-0.3-3.4,1.3s-1.4,0.8-1.4,0.4
		s-1.3-0.3-1.6,0.9s-1.3,0.5-1.3,0s-1.3-0.4-1.9,0.5s-3.6-0.3-3.9,0.8s-0.8,3.3-1.5,2.4s-3.3,1.3-2.8,3.1c0.1,0.4-8.4,6.5-4.4,10.6
		s3.8,3.1,4.4,4.9s4.4-0.3,5.3-1.9s4.6,0.3,5.8-1.1s3.3,0.9,3.3,0.9s1.8-3.5,1.9-2.4s-0.3,3,1.5,2.3s3.6-1.6,5.1-0.6
		s3.1-1.5,4.9-1.6s5,0,6.6-1.4s2.3-1.7,4-1.5c1.8,0.2,7.8-6.8,7.3-9.7S202.5,826,199.5,826.7z"/>
	<path id="Daegu" fill="#62bfea" stroke="#cad7e0" stroke-width="0.25" d="M301.5,665.1c2-1.2,1.8-0.1,2.4-0.8c0.6-0.7,1-1.4,1.8-1.4c0.9,0.1,1.4-0.1,1.7,0.2
		c0.3,0.4,1.5-0.1,1.8-0.7c0.3-0.6-1.3-1.6,1-2.6c0-0.1,0-0.2,0-0.2c0-0.1,0-0.1,0.1-0.2c0.4-0.4,0.8-1.2,0.1-2.3
		c-0.6-1.1,1.5-1,2.2-1.9c0.8-0.9,1.4-0.8,1.9-0.3c0.5,0.5,2-0.8,1.5-0.3c-0.4,0.5,0.2,1.5,0.2,1.5c-0.6,1.6,0.9,1.4,1.8,1.1
		c0.9-0.3,0.7-1,1.9-1c1.2,0,1.9-2.7,1.5-3.4c-0.4-0.7-0.9-2.9-0.9-2.9l1.1-0.4c1.4-1.3,1.4-1.5,0.9-2c-0.5-0.5,0.3-1.3,0.8-1.8
		c0.5-0.5-1.3-2.7-0.3-1.8c1,0.9,2.1,0.4,2.4-0.2c0.4-0.6,0.2-2.3,0.2-2.6c0-0.3,0.3-1.2-1-2c-1.3-0.9,0.5-1.6,0-2
		c-0.5-0.3-0.5-0.8-0.1-1.5c0.4-0.7-0.8-2.2-0.8-2.2c0.6-2-1.9-1.7-2.4-2.3c-0.5-0.5-1.6-0.6-2.3-0.1c-0.7,0.5-2.3,0.5-2.5,0.5
		c-0.2,0-1.4,0.9-2.2,1.9c-0.8,1-1.2,0.2-2.2,1.3c-1,1.1-1.4-0.9-2.1-0.4c-0.7,0.5,0.4,2.1,0.3,3.2c-0.1,1.1-1.7,2.1-1.9,3.3
		c-0.2,1.3,0,0.8-1.3,0.4c-1.3-0.5-1.6-1-1.3-1c0.3,0,0.3-0.6,0.4-1.7s-0.7-0.9-1.4-1.3c-0.7-0.4,0.4,0.3-1,0.9
		c-1.4,0.6-2.4,2.8-2.1,3.3c0.2,0.5-1,0.9-1.3,1.5c-0.3,0.6-1.1,2.3,1.3,2.2c2.3-0.2,5.2,1.2,4.9,2.4c-0.2,1.1-1.7,1.2-3.1,1
		c-1.4-0.2-0.7,0.1-1.7,1.2c-1,1.1,0.5,1.1-0.9,2.2c-1.4,1-0.4,1.9,0.9,2.6c1.3,0.6,2.7,2.3,1.6,3.5c-1.1,1.2-4.7-2-5.1-0.5
		c-0.5,1.5-0.3,1.7,2.4,4.4c0.2,0.2,0.3,0.3,0.4,0.4c0,0,0.1,0.1,0.1,0.1c0.1,0.1,0.1,0.2,0.2,0.3c0,0,0,0.1,0.1,0.1
		c0,0.1,0.1,0.2,0.1,0.3c0,0,0,0,0,0c0,0.1,0,0.2,0,0.3c0,0,0,0,0,0.1c0,0.1,0,0.2-0.1,0.2c0,0,0,0,0,0.1c0,0.1-0.1,0.1-0.1,0.2
		c0,0,0,0,0,0c-0.1,0.1-0.1,0.2-0.2,0.2c0,0,0,0,0,0c-0.1,0.1-0.1,0.1-0.2,0.2c0,0-0.1,0-0.1,0.1c-0.1,0-0.1,0.1-0.2,0.1
		c0,0-0.1,0-0.1,0.1c-0.1,0-0.1,0.1-0.2,0.1c-0.1,0-0.2,0.1-0.3,0.1c0,0-0.1,0-0.1,0c-0.1,0-0.1,0-0.2,0c0,0,0,0-0.1,0
		c-0.1,0-0.1,0-0.2,0l0,0C299.9,665.4,300.3,665.8,301.5,665.1z"/>
	<g id="Jeonnam">
		<path fill="#62bfea" stroke="#cad7e0" stroke-width="0.25" d="M260.3,717.2c0.7-1.5-1.1-2.4-1.1-2.8c0-0.4,0.2-2-0.5-1.8c-0.7,0.2-1.7,0-1.7-0.8c0-0.7-0.4-1.3-1.1-1.2
			c-0.7,0.1-0.8-1-1.6-1.7s-0.2-1.1-0.4-2.2c-0.2-1.1-2-2.7-2.8-2.9c-0.7-0.2-1.1-1.1-1.9-2.1c-0.8-1-0.4-2.4-0.3-2.7
			c0.1-0.3-0.5-2.5-0.5-2.7s0.9-0.4-1-1.6c-1.2-0.8-1.3-2.5-1.3-3.6c-0.1,0-0.1,0-0.2-0.1c-1-0.7-4.5-3.5-5-4
			c-0.4-0.5-0.8,0.3-1.1-0.1c-0.3-0.4-1.1-0.7-2.4-0.1c-1.3,0.6-0.6-0.8-1.5,0.2c-0.8,1-2.6,4.7-3.2,4.7c-0.6,0-0.2-1.1-0.8-0.9
			c-0.6,0.2-0.5-0.8-1.5-0.3c-1,0.4-1.3,0.3-1.8,1c-0.6,0.7-1.6,0-1.8-0.4c-0.2-0.3-2.4,0.6-3.6-1.1c-1.2-1.7-1.9-0.7-1.6,0.3
			c0.3,1-2.8-0.1-2.4-0.9c0.4-0.8-0.2-0.8-0.5-0.1c0,0-1.4,0.3-1.9,1.3c-0.5,1-0.2,0.7-1,0.8c-0.8,0.1-0.6,0.3-0.6,0.5
			c0,0.1-1.3,0.5-2,0.1c-0.7-0.5-1.6-1-2-0.7s-0.1-0.4-1.1-0.5c-1-0.1-0.4-0.8-0.1-1.3c0.4-0.5-0.5-0.6,0.2-0.8c0,0,0.8,0.8,1-0.3
			c0.2-1,0.1-0.8-0.2-0.8c-0.3-0.1,0.4-0.4,0-1.2c-0.4-0.8-0.3-1.8-1-0.9c-0.7,0.9-0.9-0.4-0.9-0.4s-1.7-1.4-0.4-1.5
			c1.3-0.1,0.9,0.3,1.1-0.9c0.1-1.2,0.9-1,0.2-1.6c-0.7-0.6-0.9,0.5-0.9-1.3c0-1.9-0.3-1.8-0.9-1.4c-0.6,0.4-1.1,0.4-1.3,0.1
			c-0.1-0.3-0.1,1-0.4,1.3c-0.3,0.2-1.1,2-1.6,1.6c-0.5-0.4-0.3,1.4,0.1,2.1c0.4,0.7-4,1.2-3,0.1c0.9-1.1-1.2,0.8-1-0.5
			c0.3-1.3-0.3-0.3-1-1.2c-0.6-0.8,0.6-0.3-0.2-0.9c-0.8-0.6,1.1-0.3-1.1-1.7c-2.3-1.4-0.9-1.4-2.7-1.4c0,0-0.7,0.4-0.6-0.2
			c0.2-0.6,0.4-0.7-0.5-1.2c-0.9-0.5-1-0.5-1,0.5c-0.1,1,0.3,0.5-2,0.6c-2.2,0.1-1.3,0.2-2.1,0.9c-0.8,0.7-1.1,0.4-1,0.8
			c0.1,0.4,1.1,1.4,0.9,1.8s0.3,1.2-1.2,2c-1.5,0.8-0.2,0.2-0.4,1.8c-0.2,1.6-1.1,1.7-1.6,1.5c-0.5-0.3-0.4,0.9-0.4,1
			c0,0.1-0.6,0-1,0.4s-1-0.6-1.4,0c-0.4,0.6-0.6,2-1.3,1.8c0,0-0.8,1-1.9-0.1c-1.1-1-1.1-0.7-1.5-0.3c-0.4,0.4-0.9-0.5-1.1,0.3
			c-0.3,0.8,1.2,1.6,0.6,2s-0.6-0.4-1.1-0.6c-0.5-0.1-0.5-0.6-1.5-0.3c-1,0.3-1.5,0.9-1.9-0.3c-0.4-1.3-0.9-1-0.3-1.8
			c0.6-0.8-0.2-1.5-0.4-1.9s-0.7,0-1.1,0.7c0,0-0.5-0.1-0.1-1.2c0.4-1.1-0.8-0.7-1-1.5c-0.1-0.8,0.4-0.1,0.8-1.1
			c0.3-1-0.4-2.7-1.6-2.6c-0.9,0-2.1-0.6-2.8-1.6c-1.3,1.5-1.8,1.3-1.4,3.7c0.6,3.5,0.9,2.4,2.9,3.3c2,0.9-4.8-0.9-4.6,0
			c0.1,0.9,0.3,2.7-0.4,4c-0.6,1.3-1.3,2.1-0.1,2.3s0.1,1.9-0.6,1.9l-2.2-1.7c0,0-2,3.9-2,5.1s3.2,2.3,3.2,2.3l2-1
			c0,0-1.7,3.8-0.7,4.7c1,0.8,2.5,4.6,3.5,4.6c1,0,5.3,0,5.3,0s-4,0.1-3.8,2.3c0.2,2.1-2.8,2-2.8,2l-1.2-2.7c0,0-3.3,1.3-2.7-0.2
			s-1-4.7-1-4.7s-3.5,1.8-3.8,0c-0.3-1.8-2.4,1.1-1.8,2.1S153,708,153,708l-0.4-2.2c0,0-2,2.2-3.3,2s-0.4,3.9,1,3.8s3.8-0.1,3.9,0.8
			s-0.5,2.1-0.5,2.1s4,1.8,3.6,0s-0.1-4.4,0.9-2.9s2-0.4,1.8-1.4s1.8,0.8,1.8,2.1s1.8,0.9,2.1,0.6s1.9,1.7,1.4,2.3s-3.9,0.7-3.6,1.8
			s-0.1,3.4-0.8,2.1s-2.4-0.9-2.3,0.4c0.1,1.3,1.6,3.9,1.6,3.9l3-0.8c0,0,1.4-4.1,0.5-5.4c-0.9-1.3,1.5-1,1,3.8s1.4,3.4,1.4,3.4
			s1.8,2.5-0.8,3.3s0.9,2.4,0.9,2.4l-2.8,2.4c0,0,3.3,2.2,3.7,1s4,0,4.3,1.3c0.3,1.3,2.8-1.8,2.8-1.8s1.2-1.3,0.2-2.7s1-3.5,1-3.5
			l-1-2.5l-0.3-3.8c0,0,1.3,7.2,2.3,4.7s1.5-1.8,1.5-1.8l-1.8,5.2c0,0,0.7,4.3,3.5,3.8s1.7,1.7,1.7,1.7s-2.2-1.3-1.8,0.2
			c0.3,1.5-0.8,4-1,1.7c-0.2-2.3-1.2-3.5-2-3c-0.8,0.5-3.8,2-2.8,3s-1.8,2.9-2,1c-0.2-2-5.7-3.1-6.7-1s-3,0.8-3,0.8s1.5,2,6,2
			s3.5,3.5,3.5,3.5s3.2,1.2,3.8,1.3c0.7,0.2-0.8,0.7-0.8,0.7s4.7,7.8,0.2,2.5c0,0-2-2.8-4-2c-2,0.8,0.2-0.7-2.2-3.5
			c-2.3-2.8-4.3-0.2-3.8,0.7s-1,2.5-1,2.5c2.6,5.8,5.5,4.2,5.5,4.2s1,1.8-1.3,1.7c-2.3-0.2-4.5-3.8-4.8-4.8c-0.3-1-1.5-1.7,0.2-2
			c1.7-0.3-0.7-1-0.7-2.2c0-1.2-2.3-3.8-3.2-5c-0.8-1.2-2.7,6.3-2.7,6.3c-1.8,3.3,0.8,4.5,2,4.2c1.2-0.3,0.8,1.2-0.5,1.3
			s2.3,4.3,3,4.5s0-1.5,0-1.5s3,0.3,3.2,1.8s2,3.2,2,3.2v-2.8c0,0,2.3-0.3,3.4,0.2s0,4.8,0,4.8s1.8,1.8,0.4,2.3s0.7,3.2,1.3,3.2
			s3.3,0,1.7,1.2c-1.7,1.2-2,6-1.3,4.8c0.7-1.2,2.8,0.7,2.8,0.7c-2.3,3.7-0.3,3.8,2.3,3c2.7-0.8,3.7-1.5,3.5-2.2
			c-0.2-0.7,3.3-7.3,3.3-7.3c4.2,0.8,3.3-3.7,5.2-2.5c1.8,1.2,0-2,0-2s1.7-0.2,1-1.7c-0.7-1.5,0.2-1.5,0.8-2.5s0-4.2,0-4.2l0.8-4.2
			c0,0,2.5,4.8,1.2,6.5c-1.3,1.7-0.2,4.8-0.2,4.8l-1,2c0,0,3.3,0.5,4.2,2s2.5,0.5,2.2-0.5c-0.3-1,3.5,1.2,3.5,1.2
			c0.8,1.2,0.8-2.2,1.2-3.4c0.3-1.2,1.5,3.2,1.8,2c0.3-1.2,2.5-1.8,0.9-2.5c-1.7-0.7,0.5-1,0.7-3.3c0.2-2.3,2.2-3.5,0.3-3.5
			s-0.3-1,0-2.3c0.3-1.3-2.2-1.5-1.8-2.3c0.3-0.8,6-0.5,6-0.5v-3c0,0,2.7,1.5,4.2-1.5s3,0.2,3,0.2s3.7-2.5,3.7-4s1.7-5.2,1.7-2.3
			c0,2.8,1.8,2.3,3,1.3c1.2-1,2.7-0.3,1.7,0.7c-0.9,1-1.7,1.3,0,2.7c1.7,1.3,0.4,2.7-1.1,3c-1.5,0.3,1-2.4-1.2-3.5
			c-2.2-1.2-4,4.3-3.5,5.8s-1.8,2.3-2.1,0c-0.2-2.3-1.6-5.7-1.9,0.5c-0.3,6.2-1.7,4.3-1.7,4.3c-6,3.3,0.3,4.3,0.8,4.3
			s5.8,2.8,3.8-0.2s-1.1-3.3-1.1-3.3c1.9,4.2,6.9,3.8,5.7,5.5s0,2.2,1,4c1,1.8,2.3,1.5,2.3,0.8s-2-3.5,0-2.7c2,0.8,3.8-0.5,3.8-2
			s2.3-0.5,4-1.8c1.7-1.3-1.5-3.2-3-3c-1.5,0.2-1.8-1.3-1.8-1.3s0-0.5,0-1.8c0-1.3,1.5-2.3,1.5,0.2s6.8,1.7,7.5,0.8
			c0.6-0.8-1.3-6.5-3.8-6.7c-2.5-0.2-2.2-5.8-3.7-5.7c-1.5,0.2-0.3-2.2-0.7-3.3c-0.3-1.2,2.2-2.5,2.7-2.5s-2.7-0.5-1.8-1.3
			c0.8-0.8,6,0,6.2-1.8c0.2-1.8,1.8-4.2,1.8-4.2s-0.7,3.3,0.5,3.8s0.3,1.3,0.3,2.5c0,1.2,2.5,1.8,3.2,3.5c0.7,1.7,1.2,4.5-0.7,4.2
			c-1.8-0.3-1.5,2.2-0.8,3c0.7,0.8,0.3,3.8,1.3,3.8s2.2-0.2,3.2,2c1,2.2,2.3,3.2,1.3-0.8s-1.2-6.8-0.3-6.8s1.3-4.5,2.7-2.3
			c1.3,2.2,4.3,1.2,5,1.2s-0.8-2-0.2-3.5s1.8-2.5,1.2-7c0,0-3.3,0.3-4.3-0.3c-1-0.7-3.8,4-5.7,1.8c-1.8-2.2-2.8-3.3-1.3-3.2
			c1.5,0.2-0.5-4.7,0.2-5.8c0.7-1.2,1.3,4.7,2.8,4.3c1.5-0.3,3.5-2.2,3.7-2.7s-0.2,2,1,2s5.2-0.8,4.3-2.5c-0.2-0.4-0.1-0.6,0.2-0.7
			C257.7,719.7,259.6,718.7,260.3,717.2z M207.3,704.2c0.4,0.3-0.2,0.9,0,1.1c0.2,0.3,0.2,1.2,0.2,1.4c0,0.1-1,0.7-0.8,1.4
			c0.2,0.7-1.3,1.5-1.5,1.5c-0.1,0-1.2,0.2-1.1,0.6c0.1,0.4-0.1,1.1-1.1,1.1c-1,0.1-1.5-1.3-1.8-1.4c-0.3-0.1-0.8,0-1.1,0.5
			c-0.3,0.5-0.8-0.1-1.3,0.2s-0.9,0.4-1.3,0.3c-0.4-0.1-0.6-0.3-1.1,0.4c-0.4,0.7-1.9,1-2,1.2c-0.1,0.2-0.7,0.8-1.2,0.3
			c-0.4-0.5-0.4-0.5-1.2-0.1c-0.8,0.4-1.4,0.3-1.2-0.5c0.2-0.8-0.7,0.4-1-0.2c-0.3-0.5,0.2-0.7,0.5-0.6c0.3,0.1,1.1-0.2,0.4-0.7
			c-0.7-0.5-0.1-1.1-0.7-1.3s-0.2-0.9-0.7-0.8c-0.5,0.1-1.2-1.2-1.2-0.6s-1.7-0.7-1.7-0.1c0.1,0.6-0.6-0.5-1.7,0.2
			c-1.1,0.7-0.7-0.4-1.3-0.5c-0.7-0.1-0.8,0.1-0.6-0.7c0.2-0.8,0.2-1.6-0.1-1.9s0-0.5,0.2-1.4c0.2-0.9,1-0.4,0.9-0.9
			c-0.1-0.5-0.8-1.2-0.8-1.8s1.5-0.1,1.5-0.5c0.1-0.4,0.6-2,0.9-1.4c0.3,0.6,1.2,0.3,1.6,0.2c0.4-0.1,0.3,0.7,0.4-1
			c0.2-1.7,1.7-2.5,2.7-2.8c1-0.3-0.4,1.7-0.4,1.7c0.6-0.2,2.4,1.6,2.4,1.6s1.3,0.2,1.8-0.5s1.3-0.3,1.7-0.5
			c0.4-0.1,1.5-1.7,2.3-1.4c0.9,0.2,1.8-1.1,2.1-0.9c0.3,0.3,2,0.4,1.8,0.9c-0.2,0.5,0,0.7,0.4,1.3c0.4,0.6,0.6,1.3,0.7,1.7
			c0.1,0.4,1.2,0.8,1,1.1c-0.2,0.3-0.1,1,0.2,1.6c0.3,0.6,0.9-1.5,2.8-0.1C209.4,703.3,206.9,703.9,207.3,704.2z"/>
		<path fill="#62bfea" stroke="#cad7e0" stroke-width="0.25" d="M142.8,710.7c0.1,0.5,1.2-0.1,2.3,1.3c1.1,1.4,2.4,0.2,2.9-0.6c0.5-0.8-0.5-1.8-0.5-1.8s0.4,0.2,0.6-2
			c0.2-2.3,1.3-2.1,2.4-2.4c1.1-0.3,0.9-0.7-0.8-0.7c-1.7,0-2.6,1.2-2.6,1.2s-1.4,2.8-2.4,2.1c-1-0.8-2.5,0-2.5,0
			C141.7,707.9,142.6,710.2,142.8,710.7z"/>
		<path fill="#62bfea" stroke="#cad7e0" stroke-width="0.25" d="M150.2,715.1c-1.1-2.4-2.4-1.5-2.4-1.5c-0.7,0.9-1.6,1.9-0.2,1.7c1.4-0.2,1.7,3.8,1.1,4.2
			c-0.6,0.4-1.2,1.7-0.3,1.8c0.9,0.1,1.1-0.6,1.8-1.4s0.5,1,1.3-0.9C152.3,716.9,151.3,717.5,150.2,715.1z"/>
		<path fill="#62bfea" stroke="#cad7e0" stroke-width="0.25" d="M154.2,728.4c-0.8-0.1,0.1,2,1.6,1.8c1.6-0.2,1.3-1.3,2.1-1.1s3-0.2,3.2,0.8c0.2,1-1.2,1.8-0.5,2.1
			c0.7,0.3,1.4,0.6,1.9,0.6c0.5,0,0.9-1.3,1-1.8c0-0.6,0.6-2.7-0.4-2.5c-1,0.2-3.5,0.4-2.9-0.7c0.6-1.1,0.9-1.4,1.6-1.1
			c0.7,0.3,1.6-1.6-3-2.6c0,0-1.8-0.1-1.4,0.9c0.4,1,1.9,0.2,1.4,1.1c-0.5,0.9-0.9,1.1-0.7,1.6C158.3,728,155.1,728.5,154.2,728.4z"
			/>
		<path fill="#62bfea" stroke="#cad7e0" stroke-width="0.25" d="M153.6,768.6c0.5-1.4,2.3-1.8,2.7-1.7c0.4,0.1,3.4-1.7,3.4-1.9c0-0.2,3.3-0.6,3.4-2.6c0,0,1.5-1.5,0.6-3.4
			c0,0,1.1-1.1,1.1-2.2c0-1.1-2.1-3.8-2.7-3.8c-0.5-0.1-2.4,0.6-2.5,0c0-0.2-0.3-3.5-3-3.5c-2.7,0-1,0.9-1.3,1.8
			c-0.2,0.9,2,0.8,1.8,2.1s-0.9,1.4-1.2,1c-0.3-0.4-3.8,0.4-4.7,2.4c-0.9,2-1.2,1.5-1.6,1.8c-0.4,0.3-5.4,3.6-4.6,5.2
			c0.8,1.6,2.2,3.4,2.2,4.4C147.4,769,153.1,770,153.6,768.6z"/>
		<path fill="#62bfea" stroke="#cad7e0" stroke-width="0.25" d="M141.1,763.1c0,0,0.2-0.7,1-1.6c0.8-0.8-0.3-2-1.2-2.2c-0.9-0.1-0.7,1.8-0.7,1.8
			C140.1,762.6,141.1,763.1,141.1,763.1z"/>
		<path fill="#62bfea" stroke="#cad7e0" stroke-width="0.25" d="M128,747.8c-1,0.5-1.5,0.6-1.5,0.6s-1.4-0.7-1.6,0c-0.2,0.7,0,0.1,0.2,0.9c0.2,0.8,1,1.8,1.4,0.9
			c0.3-0.9,0.5,0.3,1.7-0.4c1.2-0.6,0.9-0.4,0.8-1.1C128.8,748,129,747.3,128,747.8z"/>
		<path fill="#62bfea" stroke="#cad7e0" stroke-width="0.25" d="M147,749.3c1.1,0.3,1-0.1,1.8-0.8c0.7-0.6,1.7,0.1,1.7,0.1s0.3-0.4,0.7-0.6c0.4-0.2,0.7-0.8-0.3-1.1
			c-1-0.3-0.6-0.4-0.9-0.8s-0.1-1.5-2.4-1.5c0,0-0.1,1.4-1.9,1.1c-1.7-0.4,0.9,1.9,1.2,1.7C147.3,747.2,145.9,749,147,749.3z"/>
		<path fill="#62bfea" stroke="#cad7e0" stroke-width="0.25" d="M139.3,742.1c0.1-0.1,0.4-0.3-0.3-0.5c-0.6-0.2-0.7-1.2-1.5-1.6c-0.9-0.3-1.1-1.1-1.1-1.1s-1.2,0.4-1.5,1.1
			c-0.3,0.7-0.7,0.5-0.8,0.4c-0.1-0.1-1.4,0.4-1.4,0.6c0,0.2-0.2,1.8,0.4,2.2c0.5,0.4,0.9-0.1,1,0.4c0.1,0.4,0.3,1,0.9,0.7
			c0.6-0.3-0.1,0.5,0.5,0.9c0.6,0.3,1.1,0.7,1.6-0.6c0.5-1.3,1.9-1.5,1.9-1.5S139.2,742.2,139.3,742.1z"/>
		<path fill="#62bfea" stroke="#cad7e0" stroke-width="0.25" d="M140.1,753c0.5-0.2,0.3-0.3,0.8,0.1c0.4,0.5,1.2-0.1,1.2-0.1c0-1.3-0.5-2.7-1.4-3.2c-0.9-0.5,0.3-1.9,0-2.3
			c-0.3-0.4-2,0.5-2,0.5c0.3,0.6,0,2.2,0.3,2.5c0.3,0.3,0.4,0.6,0.1,1.3C138.7,752.6,139.6,753.2,140.1,753z"/>
		<path fill="#62bfea" stroke="#cad7e0" stroke-width="0.25" d="M148.8,733c-0.1,0-0.5,0.3-0.3,0.6c0.2,0.3-3.6,0.4-4.3,1c-0.7,0.7-0.5,1.1,0.4,1.5c0.8,0.4-0.7,0.4-0.5,0.9
			c0.2,0.5,0.1,1.7,1.1,1.7c1,0,0.4,1.2,0.5,1.5c0.2,0.3,1,0.5,1.5,0c0.5-0.5,1.3-0.6,1.3-0.1c0.1,0.5,0.4,1.5,0.3,1.7
			c-0.1,0.3,2,0.8,2.2,0.6c0.2-0.3,0.2-2.6-0.2-3.5c-0.4-0.9-0.9-2.5-0.4-3.1C150.9,735.3,150.3,733,148.8,733z"/>
		<path fill="#62bfea" stroke="#cad7e0" stroke-width="0.25" d="M133.2,740.3c0.8-0.1,1.1-0.5,1.5-1c0.4-0.5,0.1-0.9-0.2-1.5c-0.3-0.6-0.7-0.5,0.4-1.2c1.1-0.7,1,0,0.8,0.4
			c-0.2,0.3,0.7,0.4,0.6,0.1c-0.1-0.3,0.4-0.7,0.6-0.4c0.1,0.2-0.1,0.2,0.2,0.5c0.3,0.3,0.6-0.6,1.1-0.5c0.5,0.1,0.4,0.3,0.6-0.4
			c0.1-0.7-0.4-0.4-0.7-0.6c-0.3-0.2,0.7-1.4,0.7-2.2c0-0.8-0.5-0.3-1.3-0.3c-0.8,0-0.5,0.4-0.7,0.4c-0.2,0-0.5,0.1-0.4,0.4
			c0.1,0.3,0.1,0.7-0.7,0.5c-0.8-0.2-0.5,0.1-1.3,0.7c-0.8,0.5-2.8-0.3-2.8-0.3c0.2,0.3,0.1,0.6-0.3,0.8c-0.3,0.2,0.7,0.8,0.1,1
			c-0.5,0.1,0.5-0.1-0.3,1.2C130.4,739.2,132.4,740.4,133.2,740.3z"/>
		<path fill="#62bfea" stroke="#cad7e0" stroke-width="0.25" d="M141.7,722.5c-0.1,0.6-0.8,0.8-1.3,0.8c-0.5,0-0.4,0.9-0.6,0.6c-0.2-0.2-0.5,0.5-1,1
			c-0.5,0.5-1.8,0.8-1.6,1.2c0.2,0.4,0.8,0.6,0.5,0.8c-0.3,0.2,0.5-0.5,0.9,0.1c0.4,0.6,1.3,0.3,1.6,0c0.3-0.3,0.8,0.8,1.1,0.9
			c0.3,0.1,0.3,0.5,0.6,0.7c0.2,0.2,0.3-0.5,0.6-0.3c0.4,0.2,1.5-1.4,2.1-1.4c0.6,0,0.1-1,0.6-0.8c0.5,0.2,0.2-0.9-0.1-1.6
			c-0.3-0.7,0.3-3.8-1.2-3.7c0,0-0.4,0.4-0.7,0c0,0-0.2,0.4,0,0.9c0.2,0.4,0.4,0.9-0.2,1.1C142.3,723.1,141.9,721.9,141.7,722.5z"/>
		<path fill="#62bfea" stroke="#cad7e0" stroke-width="0.25" d="M144.3,728.8c-0.6-0.3-1,0.9-1.3,0.6c-0.3-0.3-0.7,0-0.7,0c-0.2,0.6,0.8,2.9,1.1,3c0.3,0.2,0.6-0.7,0.8,0.5
			c0.2,1.2,1,0.8,1.5,0.9c0.5,0,0.7-1.5,0.7-2.4s1.1-0.4,1.5-0.4c0.4,0,0.5-0.9,0.1-1.3c-0.5-0.3-0.2-0.5-0.1-0.9
			c0-0.4,1.1-0.2,0.7-0.5c-0.3-0.4-1.5-1.7-1.5-2.1c0-0.4-0.8-1-0.7-0.5c0.1,0.5-1.1,1.4-0.6,1.8c0.4,0.4,0.2,1.3,0,1.9
			C145.7,729.9,144.9,729.1,144.3,728.8z"/>
		<path fill="#62bfea" stroke="#cad7e0" stroke-width="0.25" d="M144.2,754.5c0.1-0.8,1.4-2.6,1.4-2.6s-2.3-4.2-3.5-3.9c0,0-1.1,0.2-0.7,1c0.4,0.8,0.5,0.5,1,1
			c0.5,0.4,1.3,2.1,1.2,2.3c-0.1,0.2-0.4,0.9-0.4,1.1c0,0.1-0.5,0.3-0.7,0.8c-0.2,0.6-0.6-0.7-1.2-0.2c-0.6,0.5-2.1,1.4-1.4,2
			c0.7,0.6,1.9,0.7,2.4,0.3C142.8,755.9,144.1,755.4,144.2,754.5z"/>
		<path fill="#62bfea" stroke="#cad7e0" stroke-width="0.25" d="M187.3,766.2c-0.4-0.1-2.4,0.7-3,0.4c-0.6-0.3-1,4.5,0,5.3c1,0.7,1.6,2.7,2.6,2.8c1,0.1,4.5,0.2,4.7,1
			c0.2,0.8,0.8,1,0.7-0.2c-0.1-1.2,0.3-1.3-0.6-2.3c-0.9-1-1-1.4-1.5-2.4C189.7,769.6,190,767.2,187.3,766.2z"/>
		<path fill="#62bfea" stroke="#cad7e0" stroke-width="0.25" d="M200.5,780.7c-0.1,0.1-0.4-0.1-1.2-0.5c-0.9-0.4-1.9,2.4-1.9,2.4c-1,1.8,0.9,2.7,0.8,2.2
			c0-0.5,0.4-0.5,0.9-0.1c0.5,0.4,1-0.2,1.5-0.1c0.5,0.1,0.8-2.1,0.2-2.4C200.1,781.9,200.6,780.7,200.5,780.7z"/>
		<path fill="#62bfea" stroke="#cad7e0" stroke-width="0.25" d="M221,758.4c-0.1,0.1-2.3,0.2-3,0.8c-0.7,0.5-2.5,0.4-2.8-0.1c-0.3-0.4-0.8-0.2-0.8-0.2c0.1,0.5-0.1,1.1-1,1.2
			s-0.1,0.8,0.1,1.7c0.2,0.9,1.4,1.2,1.6,1.6c0.2,0.3,0.8,1.2,1.5,0.7c0.7-0.5,3.6-0.2,4.3-0.2c0.7-0.1,1.4-2.9,1.9-3.3
			s0.5-0.4-0.4-1.5C221.6,757.9,221.1,758.3,221,758.4z"/>
		<path fill="#62bfea" stroke="#cad7e0" stroke-width="0.25" d="M256.6,748.6c2.1,0.6,4.5,1.8,4.5,1.8v-2.8c0,0,1.4-4.7,0-5.1c-1.4-0.4-0.4-4.4-2.1-3.9c0,0-1.6,5.7-2.4,6
			C255.9,744.9,254.5,748,256.6,748.6z"/>
		<path fill="#62bfea" stroke="#cad7e0" stroke-width="0.25" d="M258.6,753c0,0-4,1-3.1,1.9c0.9,0.9,4.8,4,5,4c0.2,0,2.1-0.6,2.1-0.6S258.1,754.4,258.6,753z"/>
		<path fill="#62bfea" stroke="#cad7e0" stroke-width="0.25" d="M142.7,770.7c0.1-0.7-2.2,0.1-2.4-0.4c-0.3-0.5-1.5,1-1.5,1c-0.3,1.3,1,1.4,1.5,0.5S142.6,771.4,142.7,770.7z
			"/>
		<path fill="#62bfea" stroke="#cad7e0" stroke-width="0.25" d="M142.1,772.3c-0.8-1.1-1.1,1.4-1.1,1.4c-0.4,1.5,0.8,2.2,2.3,1.1c1.5-1.1,2.8,0.7,2.3-0.8
			C145.2,772.7,142.9,773.3,142.1,772.3z"/>
		<path fill="#62bfea" stroke="#cad7e0" stroke-width="0.25" d="M141.7,778.2c0,0,0.7,0.8-0.3,0.7c-1.1-0.2,0,1.3,0.8,1.1C142.9,779.8,143.8,775.7,141.7,778.2z"/>
		<path fill="#62bfea" stroke="#cad7e0" stroke-width="0.25" d="M175.7,783.7c-1.1,0.3-1.5,1.1-2,2.7c-0.5,1.6,3.3,1.3,3.3,1.3s1-0.7,1.3-1.8c0.3-1.1,2.6-0.8,2.4-1.1
			c-0.2-0.4-2.1-0.7-2.6-0.8c-0.6-0.1,0.8-0.4,0.9-1c0.1-0.6,1.7-0.8,1.9-1c0.2-0.2,0-2.1-0.9-2c-0.9,0.1-1.2-0.6-2.1-1.3
			c-0.9-0.7-0.8,1.8-0.8,1.8c-0.5,0.6-0.5,1.4,0,2.6S176.8,783.4,175.7,783.7z"/>
		<path fill="#62bfea" stroke="#cad7e0" stroke-width="0.25" d="M182.3,787.7c1.1,0,0.9,0.3,1.4,0.9c0.5,0.6,0.8-0.3,1-1.4s1.4-0.6,0.9-1.4c-0.6-0.8-2.2-1.8-1.2-2.1
			c1-0.4,1.7-0.9-0.7-1.6l-1.6,1c0,0,0.7,0.5,0.8,0.9C182.9,784.5,181.2,787.7,182.3,787.7z"/>
		<path fill="#62bfea" stroke="#cad7e0" stroke-width="0.25" d="M199.4,770.1c-0.6-0.1-3-1.8-3.6-1.3c-0.6,0.5-0.3,1.5-0.6,1.5c0,0-2,0.1-2.3,0.8c-0.3,0.7,0.9,0.1,2,0.3
			s0.8,1.1,0.9,2.1c0.1,1.1,2.2-0.6,1.9-1.4s1.4,1,1.3-0.3c-0.1-1.3,1.2-0.8,2-0.8C201.9,771.2,200,770.2,199.4,770.1z"/>
		<path fill="#62bfea" stroke="#cad7e0" stroke-width="0.25" d="M194.3,764.2c-0.6-0.5-2,0.6-2.5,0.8c-0.5,0.2-1.3,1.8-1.3,1.8c-0.6,1.1,2.9-0.2,1.9,1.2s-0.1,2.4,0.5,1.4
			c0.5-1.1,2.5-1.1,2.5-1.7c0.1-0.7,1.1-1.7,1-0.8c-0.1,0.9,1.9,0.5,1.9,0.5s2.6-0.9,2-1.1c-0.6-0.2-0.8-1.3-1.6-0.7
			s-1.9,0.2-1.7-0.4C197.3,764.3,194.9,764.6,194.3,764.2z"/>
		<path fill="#62bfea" stroke="#cad7e0" stroke-width="0.25" d="M206,770.4c-1-0.2-1.9,1.6-1.9,1.6c-0.5,2,1.8,0.6,3.1,0C208.4,771.4,207,770.6,206,770.4z"/>
		<path fill="#62bfea" stroke="#cad7e0" stroke-width="0.25" d="M210.4,768.9c-0.9,0.3-0.1-0.6-0.8-1.5c-0.8-0.9-1.5,0.2-1.6,0.7c-0.6,2,1.4,1.4,1.3,1.5
			c-0.1,0.1,1.5,1.7,1.4,0.9c-0.1-0.8,2.9-0.7,2.7-1.5C213.1,768.1,211.3,768.6,210.4,768.9z"/>
		<path fill="#62bfea" stroke="#cad7e0" stroke-width="0.25" d="M236.7,761.5c0,0-0.4,2.8,0,3.4s2.9,0.1,3.1-0.4s0.3,0.1,0-0.9s1.2-1.8,0.2-2.6S239.6,764.9,236.7,761.5z"/>
	</g>
	<path id="Sejong" fill="#62bfea" stroke="#cad7e0" stroke-width="0.25" d="M227,596.6c0.3,0.2,0.6,0.3,0.9,0.1c0,0-0.1,0.5,1.3,0.1c0.6-0.2,0.9-0.9,0.8-1.2
		c0-0.3,0.7-0.8,0.8-1c0.2-0.2,0.7-1.6,0.6-1.7c0-0.1,0.2-0.7-0.1-1.1c-0.2-0.2-0.2-0.6-0.1-0.7c-0.4-0.4-0.3-1.1-0.2-1.1
		c0.1,0.1,1.4-0.9,0.8-1.5c-0.6-0.5-0.3-2-0.4-2.4c-0.1-0.3-1.8-2.8-3-2.6c-1.1,0.2-0.5-2.1-1-2.5c-0.5-0.4-0.1-2-0.4-1.9
		c-0.3,0-1.7-0.5-1.7-0.5c-1.4,0.3,0.4-1.6,0.4-1.6c2.6-1.5,0.4-3.2,0.4-3.2s-0.8-0.3-2-0.2c-1.2,0.1-2.3-2.3-3.1-2.1
		c-0.8,0.1,0.1-0.9-2-0.7c0,0-1.3-0.7-1.9-0.1c-0.6,0.6,0.1,0.9-0.8,1.2c-1,0.3-0.8,0.6,0,1.2c0.7,0.6,0.1,1.1,0.7,0.9
		c0.6-0.2,0.5-0.6,0.7,0c0.2,0.6,0.5,1-0.1,1.7c-0.6,0.6,0.2,0.8,0,1.3c-0.2,0.5-0.5,0.9-0.1,1.4c0.4,0.5,0.3,1.7-0.4,1.5
		c0,0,0.2,1.4,0.9,1.5c0.7,0.1,0.3,0.8,0.8,0.7c0.5-0.1,0.7,0.5,1.1,0.2c0.4-0.3-0.7,1.3,0.5,1c0,0,0.9,0,1.1,1.4
		c0.1,1.4,0.3,1.4,0,1.7c0,0-0.3,1.5,0.4,1.3c0.7-0.1,0.9,0.5,0.6,0.9c-0.3,0.4-0.3,1.2,0.6,0.7c0.9-0.5,1.7,2.4,0.8,2.2
		c0,0-0.4,1.2-0.8,1.2s0.4,0.7,0.3,1c0,0.3,0.4-0.3,0.7,0.4c0.3,0.7,0.1,1.1,1.7,0.7c0,0-0.6,0.7,0.1,1.2
		C226.1,595.9,226.5,596.3,227,596.6"/>
	<path id="Chungbuk" fill="#62bfea" stroke="#cad7e0" stroke-width="0.25" d="M317.3,541.8c-0.2-0.1-0.3-0.2-0.5-0.3c0,0,0,0,0,0c-0.2-0.1-0.4-0.2-0.6-0.3l-0.7-1l-1.3,0.5
		c0,0-1.4-0.5-1.9-0.3c0,0-0.9-1-1.4-0.4c0,0-2.1-1.8-2.6-1.2l-1.5-2l-1.4,1.2l-2.5-0.1c0,0-0.3,1-0.7,0.6c-0.4-0.4,0.9-1.4-1.8-2.2
		l0.4-1c0,0-0.8-2-1.7-1c0,0-1-0.6-0.9,0.1c0,0-1.7-1.6-4.1,1.4c0,0-2.3-1-2.3-1.9c0-0.9,0.7-1.6,2-1.2c0,0-0.4-1.3,0.8-1.4
		c0,0-0.3-0.8,1.3-1.1c0,0-0.3-1,0.2-1.4l-1.1-0.5l-3.2,1.2c0,0-0.8-0.6-1.1-1.6c0,0-0.9,0.8-2.9-1.7l-2.2,1.4c0,0,0.4,2-1.5,1.3
		c0,0-0.9-1.3-1.9-1.4c0,0,0.8,2.3-2.2,2.8c0,0-1.4,1.3-3.6,0.9c0,0-0.9-0.9,0-2.1c0,0-0.9-2.7-2.4-3.1c0,0-0.6,0.3-0.9-0.3
		s-0.1,0-0.1,0s-4.7,1.3-4,3.2c0,0,1.4,2.5,0,4.6l-1-0.2l-0.7,1.4c0,0-0.7-1.3-2.4-0.8l-0.5,0.5c0,0-0.1-0.4-0.3-0.3
		c-0.2,0.1-0.4,0.9-1.8,0.6l-0.5,0.3l-1.8,0.3l-0.6-0.5c0,0-2.3-0.6-2.2-3.4c0,0-0.5-0.1-0.1-0.4c0,0-0.6-1.1-0.4-1.4
		c0.1-0.3-0.8,0.6-1,2.3c0,0-0.6,0.3-0.7,0.3c-0.1,0-0.9,1.2-0.9,1.8c0,0.6-0.1,0.6-0.4,0.7c-0.3,0.1-0.1,1.1-0.1,1.1
		s-0.6,0.6-1.2,0.3c0,0-0.9,0-1.1-0.3c-0.2-0.3-1.3-1.7-2-1.1c0,0,0.1,1.1,0.4,1.4c0,0,0,3.3-0.5,3.4c-0.6,0.1-0.9,0.9-1.4,0.7
		c-0.5-0.3-0.5,0.6-0.2,1.1s-0.3,0.5-1.3,0c-1-0.5-1.5,1.8-1.2,2.1c0.3,0.4-0.5,1-1.3,0.2c-0.8-0.8-1.8-1.2-2.7-0.3
		c-0.9,0.9-2.8-1.6-3.3,0.9c-0.5,2.6,1.9,0.7-1.8,3.1c0,0-3.1,0.3-2.8,1.6c0.3,1.3,1.8,1.2,0.3,1.8c-1.5,0.6-0.8,1.5-1.3,1.3
		c-0.5-0.2-1.6-0.8-2.4,0.5c-0.8,1.3-3.3,0.3-2.6,1.6c0.7,1.2-0.6,2.5-0.8,2.3c0,0,1.8,1,1.6,1.5c-0.2,0.6-0.8,1.8,0.7,1.8
		c1.5,0,1.1,0.5,1,1.2c-0.1,0.7-0.3,0.9,0.4,1.2c0.7,0.2,0.7-0.3,1.2,0.7c0.4,1,2.8,0.8,2.7,2.2c-0.1,1.4-0.4,1.1,0.3,1.8
		c0.7,0.8,1,0.9,0.6,1.3c-0.4,0.5-1.2,1.5-1.3,0.9s-0.3-0.9-1.7-1.1c-1.4-0.1-0.6,0.4-1.7,0.6c-1.1,0.1-0.5,0.9-0.2,1.7
		c0.4,0.8-0.6,0.1-0.9,0c-0.3-0.1-1.3,0.9-1.4,1.3c0,0.4,0.2,1.3-0.4,1.5c-0.6,0.2-1,0.8-1,0.8s2.2,1.7-0.4,3.2c0,0-1.8,1.9-0.4,1.6
		c0,0,1.4,0.5,1.7,0.5c0.3,0-0.1,1.6,0.4,1.9c0.5,0.4-0.1,2.6,1,2.5c1.1-0.2,2.8,2.3,3,2.6c0.1,0.3-0.2,1.8,0.4,2.4
		c0.6,0.5-0.7,1.5-0.8,1.5c-0.1-0.1-0.2,0.7,0.2,1.1c0,0,0.1-0.1,0.2,0c0.4,0,0.7,0.1,1.1-0.6c0.4-0.7,1.4,0.7,1.6,1.1
		c0.3,0.5-0.5,1.4,0.1,2.4c0,0,2-0.3,2.6,0.3s1.5,0.1,1.5-1.1c0-1.2,1.5-1.6,1.4-1.1c-0.1,0.4-0.6,1.4-0.2,1.8
		c0.4,0.4,1.1-0.2,1.3,0.1c0.2,0.4-1.1,1.3-0.9,1.8c0.2,0.5,1,3,1.4,2.1c0.4-0.9,0.1-1.5,1.5-0.9c1.4,0.6,0.3,0.6,0.8,0.9
		c0.4,0.2,1,0.8,0,1.2c-1,0.4-1.4,0.3-1.3,1.8s-0.3,2.6-1,2.3c-0.7-0.2-0.8,1.4-0.6,1.8c0.2,0.3-0.8,1.2-0.5,1.6
		c0.3,0.5-0.4,1,0,1.7c0.4,0.7-0.4,1.4-0.5,1.7c-0.1,0.3,0,2.1,0.2,2.2c0,0,0.5,0.9,2.7-0.6c0,0,1.1,1.3,1.4,1.7
		c0.3,0.3,1.2-0.8,1.8-0.3c0.6,0.5,1.6,1.3,1.2,2.7c-0.5,1.4-0.2,1.1-0.1,1.3c0.1,0.2-0.1,0.8,0.2,1c0.3,0.1,0.1,1.3-0.5,2.3
		c-0.5,1,0.8,2.9,1.1,2.5c0.3-0.4,0.8,0.9,0.8,1.5c0,0.6-0.3,0.7,0.3,1c0.5,0.3,1.1,0.6,1,1.6c0.4,0.1,0.6,0.5,1.1,1.3c0,0,0,0,0,0
		c0.1,0.1,0.2,0.3,0.3,0.5c1,1.4,0.8,0.6,0.9-0.3c0.1-0.9,1.7-1.2,1.6-0.6c-0.1,0.6-0.2,2.1,0.9,1.9c1.1-0.2,1,1.2,1.3,0.5
		c0.3-0.7,0.8,0.2,0.8,0.2c1-0.7,1.5,0.6,1.5,0.6c-0.7,1,2.1,0.1,2.1,0.1c0.9-1,4.1-1.8,4.1-1.8c1,1.7,1.6,1.4,1.6,1.4
		c0.1-0.1,0.3-0.3,0.4-0.5c0,0,0,0,0.1-0.1c0.1-0.1,0.2-0.2,0.3-0.3c0,0,0.1-0.1,0.1-0.1c0.1-0.1,0.2-0.2,0.3-0.3
		c0.1-0.1,0.1-0.1,0.2-0.2c0.1-0.1,0.2-0.1,0.3-0.2c0.1-0.1,0.2-0.1,0.3-0.2c0.1-0.1,0.1-0.1,0.2-0.1c0.1-0.1,0.2-0.1,0.3-0.2
		c0.1,0,0.1-0.1,0.2-0.1c0.1,0,0.2-0.1,0.3-0.1c0,0,0.1,0,0.1,0c0.1,0,0.3,0,0.4,0c1.1,0.2,0.5-0.3,1.3-0.8c0.8-0.5,0.9-1.2,0.7-1.9
		c-0.3-0.8,0.2-0.9,0.5-2.6c0.3-1.6,2-0.6,1.5-1.7c-0.5-1.1,0.5-2.1,0.5-2.1c-1.1-1-0.5-1.4-1.1-2.2c-0.7-0.8-0.3-0.4,0.2-1.3
		c0.5-0.8,2.5-1.2,3.3-0.4c0.8,0.8,1.2,0.3,1.6,0.2c0.4-0.1-0.1-1.2-0.6-1.4c-0.5-0.2-0.1-0.8-0.7-1.2c-0.6-0.3-0.2-1.2,0.5-1.9
		c0.6-0.7-1.9-1.4-2.3-1.5c-0.4-0.1-2.3,1-2.5,1.4c-0.2,0.3-1.1,0.4-1.1-0.2c0-0.5-3-2.4-3-2.4s-0.1,0-0.1-0.9c0-0.9-1,0.8-1.2,1.5
		c-0.2,0.7-1.5,0.5-2.1,0.6c-0.5,0.1-0.5-2.1-1-3s1.4-3,1.9-3.1c0.5-0.1,0.5,0,1-0.9c0.5-0.9-0.5-1.2-0.4-1.6c0.1-0.4,0.4-1-0.8-1.7
		c-1.1-0.7,1.4-2.5,0.7-2.8c-0.7-0.3-0.5-1-0.1-2.1c0.4-1.1,0-2.1-0.3-3.4c-0.3-1.4,0.1-0.6,1.1-0.7c1-0.1,0.8-0.1,0.7-1.3
		c-0.1-1.3-0.3-1.2-1.1-1.4c-0.8-0.2-0.9-0.5-0.9-1.4c0-1,0-0.4-0.7-1.3c-0.7-0.9-2.5-0.7-2.5-0.7c-1.9-0.7-1.3-1.3-1.7-2
		c-0.4-0.7,1.2-0.8,1.6-1.3c0.5-0.5,1,0.4,1.7,0c0.7-0.4,0.4-0.3,0.2-0.7c-0.3-0.4-0.2-1.3,0.2-1.1c0.4,0.1,0.6-0.4,1.3-1.6
		c0.7-1.2,0.6,2,1.6,2.1c0.9,0,1.5,1.7,1.5,1.7s0,0,0.7-0.9c0.7-0.9,0.1-1.2,0.3-2.2c0.2-1,0-0.6-0.3-1.5c-0.3-1-0.9-0.2-1-0.8
		c-0.1-0.6-1.3-1-1.7-0.8c-0.4,0.2-1.2,0.7-0.7-0.1s2.5-0.9,3-0.6c0.4,0.3,0.4-1.5,0.8-1.5c0.4,0,0.4,0.9,1.1-1.5
		c0.7-2.3,1,0.1,2.3,0.5c1.3,0.4,1.9-1,1.9-1c2.2,2.3,3.8,1.6,3.9,1.6c1.2-0.2-1.1-1.5-1.1-1.5c0.1-0.7-1.6-1.7-1.6-1.7l1.9-5.7
		c0,0,1.1-0.3,1.3,0.4c0.2,0.6,0.5,1.9,1,0.8c0.5-1.1,1.2,0.2,1.1-0.4c-0.1-0.6-0.1-1.2,0.7-1.4c0.8-0.2,0.5-1.6,1.7-0.7
		c1.2,0.9,4.7,1.4,4.7,1.4l0.1-2.9c2,0,1.3-0.3,1.2-0.9c-0.2-0.6,0.6-1,0.6-1l2.6,1.3c0.2,1.7,1.6,2.1,3.7,3.4
		c2.1,1.3,1.4,0.9,2.6,0.2c1.2-0.7,2.9,0.1,2.9-0.2c0-0.3,1.8-2.7,1.8-2.7c0.2-3-1.5-2.6-1.5-2.6c0-1.6,0.1-1,1-2.1
		c0.8-1.1-0.5-1.9,0.8-2.7c1.2-0.8,0.2-0.6,1.1-1.6c0.8-1,1.9-0.2,2.7-2.1c0.8-1.9,0.9-0.2,2.9-2.1c2-1.9,0.7-2.5,0.7-2.5
		s0.5-1.2,2.1-0.9s-0.2-2.4,1.2-0.5C315.9,544.6,316.9,542.8,317.3,541.8L317.3,541.8L317.3,541.8L317.3,541.8L317.3,541.8z"/>
	<path id="Daejeon" fill="#62bfea" stroke="#cad7e0" stroke-width="0.25" d="M226.1,600.9c0,0.8-0.5,0.8-0.5,0.8c-0.8,0.4,0,1.5,0,1.5c-0.8,0.7-0.8,0.6-1.1,2.9
		c-0.3,2.3-0.9,1.2-0.7,2.2c0.2,1,2.7,1.9,2.7,1.9c-0.7,0.7-0.3,0.6-0.7,1.3c-0.4,0.8,0.4,0.5,0.8,1.6c0.4,1.1,0.7,0.1,0.7,0.1
		c1.1,0.2,0.8,1.9,1.6,2.1c0.8,0.3-0.1,1.5,0.1,1.6s1-1.4,1.1-2c0.1-0.6,1.2-0.6,0.9-0.9c-0.3-0.3,0.1-2.1,0.3-2.3
		c0.1-0.2-1-2.5,0.8-2.2c1.8,0.3,0.1,2.1,1,2.8c0.9,0.7,0.6,0.8,0.8,1.1c0.3,0.3,0.5,1.1,0.5,1.1s1.4,0.2,1.6,1c0,0,1.1,0.7,1.4,0
		c0.4-0.8,0.3-1.2,0.7-1.1c0.3,0.1,0.6-0.3,0.4-0.6c-0.1-0.3,1.1-0.6,1.5-1.6c-0.1-0.1-0.2-0.2-0.2-0.2c-0.2-0.2-0.3-1.9-0.2-2.2
		c0.1-0.3,0.9-1,0.5-1.7c-0.4-0.7,0.3-1.2,0-1.7c-0.3-0.5,0.7-1.3,0.5-1.6c-0.2-0.3-0.1-2,0.6-1.8c0.7,0.2,1.1-0.8,1-2.3
		s0.3-1.3,1.3-1.8c1-0.4,0.4-0.9,0-1.2c-0.4-0.2,0.6-0.3-0.8-0.9c-1.4-0.6-1.1,0-1.5,0.9c-0.4,0.9-1.2-1.6-1.4-2.1
		c-0.2-0.5,1.1-1.4,0.9-1.8c-0.2-0.4-0.9,0.3-1.3-0.1c-0.4-0.4,0.1-1.4,0.2-1.8c0.1-0.4-1.4-0.1-1.4,1.1s-0.9,1.7-1.5,1.1
		s-2.6-0.3-2.6-0.3c-0.6-1.1,0.2-1.9-0.1-2.4c-0.3-0.5-1.3-1.9-1.6-1.1c-0.4,0.7-0.7,0.7-1.1,0.6c-0.4,0-0.4,0.4-0.1,0.7
		c0.3,0.3,0,0.9,0.1,1.1c0,0.1-0.5,1.5-0.6,1.7c-0.2,0.2-0.9,0.8-0.8,1c0,0.3-0.2,1-0.8,1.2c-1.4,0.5-1.3-0.1-1.3-0.1
		c-0.3,0.2-0.6,0.1-0.9-0.1C225,598.5,226,600.1,226.1,600.9z"/>
	<g id="Chungnam">
		<path fill="#62bfea" stroke="#cad7e0" stroke-width="0.25" d="M163.6,585.4c0-0.3,1-2.9-1.3-2.5c0,0-2.1,1.5-2.5,2.3c-0.4,0.7,0,1.2,0.4,1.6s0,4.1,1,5.2
			c1,1.1-1.1,3.8-0.1,5.1c1,1.4,1.8,3,2.8,3c0.9,0,3.6,1,3.6,0.3c0-0.7,1.1-2.4,0-3.7c-1.1-1.3-0.8-1.5-0.8-2.3
			c0-0.8-0.7-1.1-0.8-1.3c-0.1-0.2,0.3-1-0.8-1.8c-1.1-0.8-0.3-1.9-0.8-2.3c-0.4-0.4-0.1-1,0.2-1.1s-0.8-0.6-0.8-0.6s0.8-0.4-0.2-1
			C162.6,585.9,163.6,585.7,163.6,585.4z"/>
		<path fill="#62bfea" stroke="#cad7e0" stroke-width="0.25" d="M248.8,629.2c-0.4-2.5,0.1-2.2,0.8-2.4c0.1,0,0.2,0,0.3,0c0.1-0.9-0.5-1.3-1-1.6c-0.6-0.4-0.3-0.4-0.3-1
			c0-0.6-0.5-2-0.8-1.5c-0.3,0.4-1.6-1.5-1.1-2.5c0.5-1,0.8-2.2,0.5-2.3c-0.3-0.1-0.1-0.8-0.2-1c-0.1-0.2-0.3,0.1,0.1-1.3
			c0.5-1.4-0.6-2.2-1.2-2.7c-0.6-0.5-1.5,0.6-1.8,0.3c-0.3-0.3-1.4-1.7-1.4-1.7c-1.5,1-2.3,0.9-2.6,0.8c-0.5,1-1.7,1.3-1.5,1.6
			c0.2,0.3-0.1,0.7-0.4,0.6s-0.3,0.4-0.7,1.1c-0.4,0.8-1.4,0-1.4,0c-0.2-0.8-1.6-1-1.6-1s-0.2-0.7-0.5-1.1c-0.3-0.3,0.1-0.5-0.8-1.1
			c-0.9-0.7,0.8-2.4-1-2.8c-1.8-0.3-0.6,1.9-0.8,2.2c-0.1,0.2-0.6,2-0.3,2.3c0.3,0.3-0.9,0.3-0.9,0.9c0,0.6-0.9,2-1.1,2
			c-0.2-0.1,0.7-1.3-0.1-1.6c-0.8-0.3-0.5-1.9-1.6-2.1c0,0-0.3,1-0.7-0.1c-0.4-1.1-1.2-0.8-0.8-1.6c0.4-0.8-0.1-0.6,0.7-1.3
			c0,0-2.5-0.9-2.7-1.9c-0.2-1,0.4,0.1,0.7-2.2c0.3-2.3,0.3-2.2,1.1-2.9c0,0-0.9-1.1,0-1.5c0,0,0.5,0,0.5-0.8c0-0.8-1.1-2.4,0.9-4.3
			c0,0,0,0,0,0c-0.5-0.3-0.8-0.7-0.8-0.7c-0.7-0.5-0.1-1.2-0.1-1.2c-1.6,0.4-1.5,0-1.7-0.7c-0.3-0.7-0.7,0-0.7-0.4
			c0-0.3-0.8-1-0.3-1s0.8-1.1,0.8-1.1c0.9,0.2,0.1-2.7-0.8-2.2c-0.9,0.5-0.9-0.3-0.6-0.7c0.3-0.4,0.1-1.1-0.6-0.9s-0.4-1.3-0.4-1.3
			c0.3-0.3,0.1-0.3,0-1.7c-0.1-1.4-1.1-1.4-1.1-1.4c-1.2,0.4,0-1.3-0.5-1c-0.4,0.3-0.6-0.3-1.1-0.2c-0.5,0.1-0.1-0.6-0.8-0.7
			c-0.7-0.1-0.9-1.5-0.9-1.5c0.7,0.2,0.8-1,0.4-1.5c-0.4-0.5-0.2-0.9,0.1-1.4c0.2-0.5-0.6-0.7,0-1.3c0.6-0.6,0.3-1.1,0.1-1.7
			c-0.2-0.6-0.1-0.2-0.7,0c-0.6,0.2,0-0.3-0.7-0.9c-0.7-0.6-0.9-0.9,0-1.2c1-0.3,0.2-0.6,0.8-1.2c0.6-0.6,1.9,0.1,1.9,0.1
			c2.1-0.1,1.2,0.8,2,0.7c0.8-0.1,1.9,2.2,3.1,2.1c1.2-0.1,2,0.2,2,0.2s0.3-0.6,1-0.8c0.6-0.2,0.4-1.1,0.4-1.5
			c0-0.4,1.1-1.4,1.4-1.3c0.3,0.1,1.3,0.8,0.9,0c-0.4-0.8-1-1.5,0.2-1.7s0.4-0.7,1.7-0.6c1.4,0.1,1.5,0.5,1.7,1.1s0.9-0.4,1.3-0.9
			c0.4-0.5,0.1-0.6-0.6-1.3c-0.7-0.8-0.4-0.4-0.3-1.9c0.1-1.4-2.3-1.2-2.7-2.2c-0.4-1-0.4-0.4-1.2-0.7c-0.7-0.2-0.5-0.5-0.4-1.2
			c0.1-0.7,0.5-1.2-1-1.2c-1.5,0-0.9-1.3-0.7-1.8c0.2-0.6-1.6-1.5-1.6-1.5s-0.7-1.6-0.9-1.7c-0.2-0.1-1,0.1-0.9-0.4
			c0-0.6-0.9-0.1-0.9,0.2c0,0.3-1.3-1.3-2-1c-0.7,0.2-0.1-1.9-1.4-1.8c-1.2,0.1-0.1,0-0.1,0s-2.6-2.5-4-1.2c0,0-1.7-1-2.4,0.8
			c0,0,1,0.4,0.1,1.2c0,0-0.7-0.7-1.1-0.2c-0.4,0.5-0.7,0.4-1,0.2c-0.3-0.2-2.4,0.9-2.4,0.9s-2.7-1.1-3.8,0.1c0.2,3.2,0.6,3.6-1,3.5
			c-1.8-0.1-2.8-0.3-3,0.6s-1-0.1-3,1.4s-4.1,1.5-2.5,3s0.8,2.6-2.4,0.5c-3.1-2.1,0.8-0.9,0.5-2.3c-0.3-1.4-1.1-5.1-1.6-6.6
			s-2.6-4.4-3.9-3.3c-1.3,1.1-1.8,0.8-1.8,2.8s-1.3-0.1-0.1-2.6s-1.5-3.1-3.1-1.4c-1.6,1.7-0.9,2.1-3.3-0.3c0,0-3.9-4.5-5.5-3.6
			c-1.6,0.9-1.4-3.8-3.5-1.5s-0.5,6.6,1.4,6.5c1.9-0.1-2.3,0.9-1.5,3.5c0,0-1.7-1.1-0.8-2.6c1-1.5-8.8-6.5-9.6-1c0,0,3.4,0.7,2.9,1
			c-0.5,0.2-3.9,0.2-2.6,1.4c1.3,1.1,2.3,2.8,4.1,2.1c0.4-0.1,0.6-0.2,0.7-0.3c0,0,0,0,0.1,0c0,0,0,0-0.1,0
			c-0.2,0.1-0.7,0.6-0.1,1.5c1,1.6,0.1,1.5-0.9,2.9c-1,1.4-1.9-0.5-2.3,1.5s-1.3,2.3-1.1,0.8s-2.3-0.4-1.6,1.3
			c0.6,1.6,0.5,2.4-0.8,2.4s-1.5,0.4-0.9-2.6s3.6-2.9,2-5.3c-1.6-2.4-2.2-11.7-2.4-2.1c0,1.3-1.8,3.1-2.3,3.9c-4.2,5.3-1-2.1-1-2.1
			s-4.4-0.2-4.1,3.6c0,0,1.8,1.7,0.8,2.5c0,0-0.5,0.4-0.5,1.3c0,0.9-1.1-1.2-0.7-2.5c0.4-1.3-2.6-0.1-2.3,1c0.3,1.1-0.3,3.3-0.8,4.2
			c-0.6,0.8-1.7,1.1-1,2.4c0.7,1.3,1.4,1.3,0.4,2.3c-1,1.1,1.1,2.8,1.3-0.2s1.3-3.4,2.3-1.8c1,1.6,3.9,3.2,2.8,4.3
			c-1.1,1.1-2.8-1.6-3.8-0.5c-1,1.1-0.7,3.1,0.4,3.3c1.1,0.2,5.1-2.7,5.8-3.3c0.7-0.7,1.1,0.8,1.2,2.3s1.3,2.7,1.5,2.8
			c0.3,0.1,0.2,2.7-0.7,3.7c-0.8,1,0.4,3.3,1.5,1.3c1.1-2,2.3-2.9,2.8-2.7s-0.6-3.9,0.2-2.9s1.1,4.3,1.8,4.3c0.7,0,4.3,0.3,4.3,0
			c-0.1-0.3-0.1-9.3,0.9-6.9c1,2.3,2,4.4,3.2,4.7s-1.8,0.6-2.2,0.2c-0.3-0.4,0,7,0.6,8.3s-0.5,2.3,0.8,6.6c1.3,4.3,1.5,0.9,2.8,0
			s-1.5,4.1-2.8,4.1s0.3,2.1,2.1,3.6s0.1,3.9-0.6,3.3s1,4.8,2.1,4.6s-0.8,3.6-0.5,5.6s1.9-0.1,3.3,0s-6.4,3.9-5.9,5.4
			s1.1-1.9,2.8-0.4s2.6,1.4,3.8,1.4s0.4,0.9,1.3,2s2.5,1,3.4,1.8s2,2.9,0.8,3.4s-3.5,0.5-3.9,0.9s-0.3,1.9,1,1.9s6-1.1,7.1,0
			c0.2,0.2,0.4,0.5,0.5,0.7c1-0.1,1.9-0.5,1.6-0.8c-0.4-0.4,0-1.2,0.6-1.9c0.6-0.7,2.9-0.5,3.1-0.6c0.2-0.1,0.8-1.1,2.5-1.7
			s1.9-2.1,1.9-2.1c0-3.3,1.4-5.4,1.9-5.3c0.5,0.1,0.6,0.3,2.7-0.7c2.2-1,1.4-0.3,2.1,0.3c0.7,0.6,1.2,0,2.3-0.2
			c1.1-0.1,0.8,1,1.6,0.9s0.8-0.6,0.8-0.6c1.5,1.4,1.4,4.6,1.4,4.6s1.4,1.2,1.8,1.5c0.4,0.4,0.8-0.5,1.3,0.2
			c0.5,0.6,1.4,0.4,1.4,0.4c-0.4-1.2,1.7-2.7,2.2-1.6c0.4,1.1,0.9-1.5,1.8-0.5s0.6-0.3,1.4-0.6c0.8-0.3,1.6,0.3,1.6,0.3
			c0.7,1.8,1.6,0.8,1,0.1c-0.6-0.7,0.5-2.1,0.5-1.6c0,0.5,0.6,0.6,2.1,0.2c1.5-0.3,0-1.8,1.1-1c1.1,0.7,0.1,0.3,1.3-0.6
			c1.1-0.8,2,1.7,2,1.7c-0.6,0.7,0.6,2.6,0.6,3.4s-0.2,2.4,1.4,4c1.6,1.6,0.6,1.1,2.3,0.2c1.8-0.9,0.6-1.6,1.7,1.1
			c1.1,2.7,1.8,1.5,1.8,1.5c2,1.5,1.9-0.1,1.9-0.1c0.6,0.4,1.9,1.2,2.4-1.1c0.5-2.4-0.2-3.1-0.2-3.1s2.4,0.6,2.6,1s0.3,0.4,0.9,0.1
			c0.7-0.3,2.2,2.3,2.2,2.3s0.2-1-0.1-1.8c-0.3-0.8,0.5-0.4,0.9-0.6c0.4-0.2,0.7-0.3,0.7-0.3C249.7,629.3,248.8,629.2,248.8,629.2z"
			/>
	</g>
	<g id="Incheon">
		<path fill="#62bfea" stroke="#cad7e0" stroke-width="0.25" d="M155.2,489.4c-0.1-0.1-0.2-0.3-0.3-0.4c-0.4-0.7-0.7-1-0.7-1.1c-0.4-0.4-0.9-0.1-1.5,0.5
			c-0.4,0.5-0.7,0.9-0.7,1.1s0.1,0.3,0.2,0.5c0.1,0.1,0.4,0.4,0.4,0.4l2.2,0.1l0.3,0.1l0.1-0.5L155.2,489.4z"/>
		<path fill="#62bfea" stroke="#cad7e0" stroke-width="0.25" d="M192.7,509.5c0.7-2-1.3-1.7-2.1-2.9c-0.7-1.2-0.4-2,0.1-2.3c0.5-0.2,0.4-2.4,0.6-2.8c0,0,0.1-0.2,0.1-0.2
			c0,0,2.3-3,2.3-3s-2.6,0.2-3.2-0.8s-1.5,0.7-1.6,0s-2.6-2.6-3.3-3.6c-0.8-1-1.1,1-1.5,0.5c-0.4-0.4-1.7,0.9-2.2,1.9
			c-0.5,1-1.2,0.8-2.3,0.8c-0.9,0-2.9,2-3.5,2.5c0.1,0.1,0.1,0.3,0.2,0.3c0.3,0.3,2.4,1.6,2.4,1.6s0.3,5.1,1,6.6s2-0.1,2.3,2.1
			c0.3,2.3-1.4,1.5-1.3,3.2s6.1,1.8,6.3,3.2C187.5,516.9,192,511.5,192.7,509.5z"/>
		<path fill="#62bfea" stroke="#cad7e0" stroke-width="0.25" d="M169.5,502.2c-2.3,1.8-0.9,2.9-0.9,2.9c3.7,0.8,3.7-2.9,2.9-3.1c-0.8-0.2-0.6-1.3-0.7-1.6
			c-0.1-0.3-1.4,0.7-1.4,0.7C170.5,501.5,169.5,502.2,169.5,502.2z"/>
		<path fill="#62bfea" stroke="#cad7e0" stroke-width="0.25" d="M164.2,503.2c-1.1-0.1-0.9-1.4-1.1-2.2c-0.2-0.8-0.6,0.1-1,0.5c-0.4,0.4-0.9-0.2-1.6-0.2s0.6,2.3,0.6,2.3
			c-1.2,1.3-0.4,1.2,0.7,1.2c1,0,1.9-0.5,1.9-0.5c2.5,0.3,2.6,0,2.6-0.8C166.2,502.7,165.2,503.4,164.2,503.2z"/>
		<path fill="#62bfea" stroke="#cad7e0" stroke-width="0.25" d="M166.1,500.3c-1.6,1.4,0.9,4.1,1.5,3.2c0,0,0.3-0.7,0.5-0.7c0.1,0-0.1-0.5-0.1-0.5c0-0.1,0.6-1.9,0.6-1.9
			S167.7,498.9,166.1,500.3z"/>
		<path fill="#62bfea" stroke="#cad7e0" stroke-width="0.25" d="M176.8,504.4c-0.7-0.7-2.2,0-3.2-0.6c-0.9-0.6-1.2,2-1.3,2.7c-0.1,0.7-5.1,0.8-6.4,0
			c-1.2-0.8-1.3,0.5-1.6,1.4c-0.3,0.9-1.7,1.5-2.5,0.9c-0.8-0.5-2.1-0.3-2.1-0.3s-0.3,1.1,0.3,2.1c0.6,1,0.2,3.1,0.6,2.8
			c0.4-0.3,1.6-0.5,1.7-0.1c0.1,0.4,0.8,2.2,1.3,0.9s1.7,2.1,1.8,3c0.1,0.9,1.4,2.3,1.9,0.7c0.5-1.6,1.2-1.9,2.8-2.3
			c1.6-0.4,2.7-5.7,4.3-6.4c1.6-0.7,1.3,0.9,3.1-0.6C179.2,507.2,177.4,505.1,176.8,504.4z"/>
		<path fill="#62bfea" stroke="#cad7e0" stroke-width="0.25" d="M171.1,527.2c1,0.3,1.1-2.3-0.5-3c-1.6-0.7-2.6-0.2-2.6-0.2s-0.9-1.4-1.2-0.4c-0.3,0.9-1.6,4.5,0.3,5.7
			c1.9,1.1,3.2,1.1,3.4,0.2S170.2,526.9,171.1,527.2z"/>
		<path fill="#62bfea" stroke="#cad7e0" stroke-width="0.25" d="M143.7,507.4c-0.4-0.6-0.2-0.8,0.4-0.8c0.1,0,1.3,0.2,1.7-0.1c0.7-0.4,1.7-0.1,2.2,0.4
			c0.1,0.1,0.4,0.5,0.4,0.5c0,0.4-0.1,0.5-0.5,0.6c-0.3,0-0.6,0.1-0.9,0.1c-0.1,0-0.6,0.3-0.4,0.5c0.2,0.2,0.1,0.7-0.2,0.7
			c-0.4,0-0.7,0.3-1.1,0.1C145,509.1,144.1,508.1,143.7,507.4z"/>
		<path fill="#62bfea" stroke="#cad7e0" stroke-width="0.25" d="M158.5,494.9c0.1,0.3,0.1,0.6-0.2,0.8c-0.4,0.3-0.5,1.4-0.2,1.7c0.3,0.4,0.2,0.6-0.1,0.8
			c-0.1,0-0.3,0-0.3-0.1c-0.3-0.5-0.9-0.6-1.3-0.9c-0.6-0.4-1.1-0.9-1.6-1.5c-0.1-0.2-0.1-0.3-0.2-0.5c0-0.8,0.3-1.1,1.1-0.9
			c0.7,0.1,1.5,0.1,2.3,0.1C158.2,494.5,158.4,494.6,158.5,494.9z"/>
		<path fill="#62bfea" stroke="#cad7e0" stroke-width="0.25" d="M147.1,512.7c0-0.3-0.2-0.4-0.4-0.6c-0.1-0.6,0.5-0.5,0.5-0.5c0-0.4,0.3-0.5,0.5-0.7c0.4-0.6,0.9-0.6,1.3,0
			c0,0.5-0.4,0.9-0.5,1.4c0,0.2-0.3,0.2-0.4,0.2c-0.2,0-0.4,0.1-0.6,0.3C147.4,512.9,147.1,512.9,147.1,512.7z"/>
		<path fill="#62bfea" stroke="#cad7e0" stroke-width="0.25" d="M158.9,524.1c0.4,0,0.8-0.1,1.3-0.1c0.6,0,1,0.3,1,1c0,0.4,0,0.9-0.1,1.3c-0.1,1.4-0.6,2.1-1.7,2.4
			c-0.1,0-0.1,0-0.2,0c-0.4-0.4-0.8-1-1.5-0.7c-1.3-0.4-1.6-1.2-0.7-2.2c0.1-0.1,0.3-0.3,0.4-0.4
			C157.6,524.5,158.2,524.2,158.9,524.1z"/>
		<path fill="#62bfea" stroke="#cad7e0" stroke-width="0.25" d="M149.2,514.8c-0.2-0.1-0.4,0-0.5-0.3c0-0.2,0.1-0.5,0.3-0.6c0.1-0.1,0.3-0.2,0.5-0.3c0.5-0.3,0.5-0.3,0.9,0.1
			c0,0.2-0.1,0.4-0.1,0.6c0,0.1-0.1,0.2-0.2,0.2c-0.4-0.1-0.6-0.1-0.7,0.3C149.3,514.7,149.3,514.7,149.2,514.8z"/>
		<path fill="#62bfea" stroke="#cad7e0" stroke-width="0.25" d="M149.9,492.6c0.5-0.2,1.1,0.1,1.6-0.4c0.1-0.2,0.3-0.3,0.4-0.5c0.5-0.7,1-0.7,1.4,0.1
			c-0.1,0.2-0.5,0.4-0.4,0.7c0.1,0.2,0.6,0.3,0.6,0.3c0,0,0.1,0.2,0.1,0.2c0,0.5,0,0.9,0.1,1.4c0.1,0.6,0,0.6-0.6,0.6
			c-0.4,0-0.7,0-1.1-0.2l-0.5,0c-0.1-0.6-1-0.7-1.2-1c0,0-0.5-0.5-0.5-0.9C149.8,492.7,149.9,492.6,149.9,492.6L149.9,492.6
			L149.9,492.6z"/>
		<path fill="#62bfea" stroke="#cad7e0" stroke-width="0.25" d="M147.1,491.5c0.1,0,0.5-0.6,0.5-0.7l0,0c0.2-0.1,0.3-0.1,0.5-0.1h0c0.3,0.1,1.2,0.8,1.4,1.1
			c-0.7,0.9-1.3,0.3-1.8,0.9c-0.5-0.1-0.8-0.4-0.8-0.9C147,491.8,147.1,491.6,147.1,491.5z"/>
		<g>
			<path fill="#62bfea" stroke="#cad7e0" stroke-width="0.25" d="M161.6,489.3c0.3,0.1,0.4,0.4,0.7,0.5c0.3,0,1.2,0,1.2,0.4c0.8,0.8,1,1.7,0.8,2.8c-0.1,0.6,0.1,1,0.5,1.1
				c-0.4,0.1-0.6,0.3-0.7,0.6c-0.1,0.2-0.3,0.1-0.4,0c-0.4-0.1-0.8-0.2-1.2,0.1c0,0.1,0.1,2.1,0,2.4c-0.1,0.4,0.7,0.5,0.8,0.6
				c0.5,0.7,1.3,1,2,1.4c0.2,0,1.4,0.3,1.9,0c0.1-0.1,1.8-0.4,2-0.3c0.7,0.3,3.1,0.5,3.5,0.4c0.3,0,0.6,0,0.3-0.4
				c-0.1-0.2,0.9-0.5,1.3-0.4c0.3,0.1,0.4,0,0.4-0.3c-0.1-0.8-0.5-2.5-0.5-2.5c-0.6-0.3,0-2-0.3-2.6c-0.1-0.1-1.1-0.7-0.7-1.5
				c0.2-0.5,0.2-1,0.4-1.5c0,0,0,0,0,0c-0.4-0.3-0.8-0.7-0.9-1.3c0-0.3,1.1-1.9,0.4-2.8c0,0-1.3-1.8-1-2.9c0.1-0.4-0.4-0.6-0.8-0.5
				c-0.7,0.1-1.1-0.3-1.5-0.7c-0.2-0.3-1.4-1.7-1.4-1.7c-0.5-0.2-0.5-0.6-0.5-1c-0.1-0.3-0.3-0.4-0.6-0.4c-0.2,0-1.4,0.1-1.4,0.6
				c0,0.2-1.5,0.4-1.9,0.7c-0.5,0.5-2.3,2.1-2.4,2.1v0c-0.6,0.5-0.3,1.6-0.3,1.7c0.4,0,0.5,0.2,0.4,0.6c-0.1,0.4,0,0.7-0.1,1.1
				c0,0,0,0,0,0c-0.5,0.3-0.4,0.7-0.4,1.2c0,0.2-0.6,0.9-0.6,1.1C160.8,487.9,161.3,489.3,161.6,489.3z"/>
			<path fill="#62bfea" stroke="#cad7e0" stroke-width="0.25" d="M160.6,488.9c0.2,0.2,0.2,0.5,0.6,0.5c0.2,0.1,0.3,0.3,0.3,0.4c0.1,0.3,0.3,0.4,0.6,0.4c0.6,0,1,0.3,1.3,0.8
				c0,0,0.1,0.5,0.1,0.6c0.1,0.9-0.2,1.6-1.1,2c-0.3,0.1-0.4,0.4-0.5,0.7c0,0.4-0.2,0.4-0.5,0.4c-0.5-0.1-0.9-0.1-1.4-0.1
				c-0.3,0-0.5-0.1-0.6-0.4c-0.1-0.4,0-0.8,0.2-1.2c0.1-0.2,0.3-0.6,0.2-0.6c-0.4-0.1-0.6-0.5-0.8-0.7c-0.4-0.3-0.8-0.5-1.3-0.4
				c-0.2,0-1.8-1-1.9-2.3c0-0.3-0.2-0.5-0.5-0.7c0-0.1-0.2-0.9-0.1-1.2c0.4-0.8,3.6-2.8,4-2.8c1.1,0,0.1,2.8,1.3,2.8
				c0.1,0-0.4,0.2-0.4,0.4c0,0.1-0.5,0.6-0.4,0.8C159.7,488.2,160.5,488.8,160.6,488.9z"/>
		</g>
		<path fill="#62bfea" stroke="#cad7e0" stroke-width="0.25" d="M154.7,478.5c0,0-1.7,0.9-1.9,2.3s-2.2,2-2.2,2s0.6,1.8,1.4,2.1s2.2,1.1,2.2,1.1s4-2.6,5.5-2.6s2-2.6,2-2.6
			S156.1,477.2,154.7,478.5z"/>
	</g>
	<g id="Gyeongnam">
		<path fill="#62bfea" stroke="#cad7e0" stroke-width="0.25" d="M277.9,725.4c-2.2-0.7-2.7-2.3-2.7-2.3s-3,2.5-3.3,4.3c-0.3,1.8,0.7,3.5,0.7,3.5s-6.9-4.8-5-4.5
			c1.9,0.3,2.8-2,2.9-3.3c0-1.3-3.9-1.5-4.6-1.2c-0.6,0.3-1,3.3-1.5,3.4c-0.4,0.1-1.6-0.3-2,0.1c-0.4,0.4-0.7,4.9-0.7,4.9
			c0.7,1.7,3.5,1.3,3.5,1.3s-2.8,0.7-2,2.5c0.8,1.8-1.4,3,2,4.8c3.4,1.8,2.4,0.2,2.7-1.8c0.3-2,1.2-2.3,2-1.8c0.8,0.5-0.7,6.2,2,5.8
			c2.7-0.3,1.5-1.3,1.5-1.3l3.2,1.2c0,0,2.2-0.7,1.3-2c-0.8-1.3,0-2.3,0.3-4.7c0.3-2.3-2.5-3.2-2.3-4s1.7-0.8,2.5,0.2
			s0.3-0.8,0.3-1.3S280.1,726.1,277.9,725.4z"/>
		<path fill="#62bfea" stroke="#cad7e0" stroke-width="0.25" d="M357.7,681.5c-0.4-0.6-1.3-1.1-1.2-1.6c0.1-0.5,0.2-1.1-1.4-0.3c-1.6,0.8-4.1-2.2-4.7-3.3
			c-0.5-1.1,0-1.6-1.9-2.3c-1.9-0.6-0.9-1.1-1.9-1.1c-1.1,0-4.4-0.8-4-1.4c0.5-0.7-0.5-1.1-1-1.1c-0.5,0.1-0.7-1.4-0.7-1.4
			c5.5-2.8,3-4.3,1.8-4.8c0,0,0,0-0.1,0.1c-0.7,0.7-1.7,1.1-3.1-0.3c-1.4-1.5-1.4-0.6-1.8-1c-0.4-0.4-1.3-0.1-2.1,0.2
			c-0.7,0.4-1.7-0.9-1.6-0.2c0.1,0.6-1,2.4-1.5,2.8c-0.5,0.5-0.6,1.5-1,0.8c-0.4-0.7-1-0.3-1.8,0.2c-0.9,0.5-0.6,0.4-1.3,1.7
			c-0.7,1.3-4.3-1-5.2-0.6c-0.9,0.4-1.5,0-1.9-1.1c-0.4-1-1,0.3-1.7-0.2c-0.7-0.4-0.5-0.1-2.6,0.8c-2.1,1-4.5-1.3-4.7-2.1
			c-0.2-0.8-0.3-0.9-1-0.8c-0.7,0.1-0.4-3.8-0.7-3.5c0,0-0.1,0-0.1,0c0,0,0,0,0,0c0,0-0.1,0-0.1-0.1c0,0,0,0,0,0
			c0,0-0.1-0.1-0.1-0.1c0,0,0,0,0-0.1c0-0.1-0.1-0.1-0.1-0.2c0-0.1,0-0.1-0.1-0.2c0,0,0,0,0-0.1c0-0.1,0-0.1,0-0.2c0,0,0,0,0-0.1
			c0-0.1,0-0.1,0-0.2c-2.2,1-0.6,2.1-1,2.6c-0.3,0.6-1.5,1.1-1.8,0.7c-0.3-0.4-0.8-0.2-1.7-0.2c-0.9-0.1-1.3,0.7-1.8,1.4
			c-0.6,0.7-0.4-0.4-2.4,0.8c-1.1,0.7-1.6,0.4-1.8-0.1c-0.2,0-0.3,0-0.4,0c0,0,0,0,0,0c0,0,0,0-0.1,0c0,0,0,0,0-0.1
			c0.4-0.5-0.2-2.3-0.7-2.2c-0.5,0-0.8-0.4-1-0.3c-0.1,0.1-0.7,0.5-1.1,0.1c-0.4-0.5-1.2-0.8-1.5-0.5c-0.3,0.3-1.2-0.2-1.3,0
			c-0.1,0.2-0.4,1.2-1.7,0.2c-1.3-1-1.3-0.3-1.2,0.1c0.2,0.4-0.1,1-0.3,0.8c-0.2-0.2-2.4-0.4-2.7-1.1c-0.3-0.7-1.1-0.4-1.7-0.1
			c-0.7,0.3-0.5-0.6-0.4-1.2c0.1-0.6,0.9-0.3,1.1-0.5c0.3-0.3,1.1-1.2,1.5-0.9c0.4,0.3-0.1-3.1-0.4-4.5c-0.3-1.3-0.9-1.6-1.6-1.8
			c-0.7-0.2-0.6-0.8-0.8-1.4c-0.2-0.6-0.2-1-1.3-0.8c-1,0.3-1.5-1.4-1.3-2.8c0.2-1.4-0.9,0-1-0.5c-0.2-0.6-1.3-0.6-1.3-0.6
			c-0.2-0.6-1.4-0.9-1.8-0.5c-0.4,0.4-1,1.1-1.6,0.4c-0.6-0.7-0.9,0-1.6,0.2c-0.7,0.3-1.5-1.4-1.7-1.9c-0.2-0.5-0.5-0.5-0.7-0.3
			c-0.2,0.3-1.2,0.7-1.3-0.1c-0.1-0.8-0.2-0.2-0.8-0.1c-0.6,0.1-1.7,1.1-1.2-0.4c0.5-1.5-0.7-1.4-0.6-2.1c0.1-0.7-0.1-0.5-1.3-0.1
			c-1.2,0.4-1-0.7-1-0.7c0-0.8-0.2-1.1-0.5-1.3c-0.1,0.9-1.2,0.4-1.2,0.5c-0.1,0.1-1.2,2.4-1,3.1c0.2,0.7-1.3-0.5-1.7,0.6
			c-0.4,1.1-0.9,0.7-1.5,0.7c-0.6,0-1.5,1.8-2.3,1.4c-0.8-0.4-1.8-0.5-2.1,0.8c-0.3,1.3-0.6,2.7-1.8,3.1c-1.1,0.3-1.6,1.1-1.7,1.8
			c0,0-1.6-0.2-1.2,1.5c0.4,1.7-0.7,2.7-0.2,3.4c0.4,0.7-1,0.4-1.1,1.6c-0.1,1.2-0.2,2.2-0.6,2.3c-0.4,0.1-1.3,1.4-0.8,2.1
			c0.4,0.7,1.2,1.7,0.4,2.2c-0.8,0.5-1.4,0.9-1.2,1.7c0.2,0.9-0.3,1.6-1,1.9c-0.8,0.4-0.9,1.4,0.4,2.5s0.8,0.7,1.5,0.8
			c0.7,0.1-0.1,0.2,0.2,0.6c0.4,0.4,0.9,1.9,1.4,2.5c0.5,0.6,0.5,0.9-0.3,1.4c-0.8,0.5-0.6,2.3,0.1,2.4c0.7,0.2,2.3,0.4,1.7,1
			c-0.6,0.6-0.2,2.6-1.6,2.8c-1.3,0.2-1,2.2-1.6,2.6c-0.7,0.4-1.2,1.6-0.6,2c0.6,0.5,0.8,1.7-0.1,2.2c-0.1,0.1-0.2,0.1-0.3,0.2
			c0,0,0,0,0,0c-0.7,0.6-1.1,1.5-1.8,1.1c0,1.1,0.1,2.8,1.3,3.6c1.8,1.3,1,1.5,1,1.6c0,0.2,0.6,2.4,0.5,2.7
			c-0.1,0.3-0.5,1.7,0.3,2.7c0.8,1,1.1,1.9,1.9,2.1c0.7,0.2,2.6,1.7,2.8,2.9c0.2,1.1-0.3,1.6,0.4,2.2s0.9,1.8,1.6,1.7
			c0.7-0.1,1.1,0.4,1.1,1.1c0,0.7,1,0.9,1.7,0.8c0.7-0.2,0.5,1.4,0.5,1.8c0,0.4,1.8,1.4,1.1,2.8c-0.7,1.4-2.6,2.5-1.2,4.3
			c0.9-0.3,3.2,0.4,4-0.4c0,0,1-0.7,1.9-0.3s1.4,0.3,2-0.9c0.7-1.2,1.1-2.1,1.1-2.1c1.7-1.5,1.3-2.5,1.3-2.5s1.8,4.8,2.3,5
			s3-2.8,3-2.8l-0.3-2.2c0,0,2.7-5,2.7-4.5s0.2,5.3,0.7,6s-2.8,4-0.7,5.2c2.2,1.2,5.3,1.2,5.5,3c0.2,1.8,2-1.2,3-0.5
			c1,0.7,2.3,0.2,2.3-1.8s2.5-1.2,3.7-0.7c1.2,0.5,0.2,2.2,1.7,2.8l2.3-3.5c0,0.1,3,3.8,0.3,4.2c-2.7,0.3-0.2,1.7,1.8,2.8
			c2,1.2-3.9,2.8-0.2,5.3c1.3,0.8,3,4.3,3.1,4.3c0.1,0,3.7-6.1,3.7-6.1s-2.7-1.7-1.3-1.5c1.3,0.2,4.1-0.1,4.1-0.1s1.9-0.1,2.1-0.1
			c0.1,0-0.5-0.9,0.3-1.5c0.8-0.6-1.4-3.5-1.5-4.4c-0.1-0.9-2.8-1.2-1.9-0.2c0.9,0.9-1-0.5-1.8,0.9c-0.8,1.4-1.6-0.8-1.6-0.8
			c0-5.2,1.8-4.6,1.8-4.6s-0.3-0.6-1.4-1.2l-0.4,0.1c-0.3-0.4-0.5-0.7-0.4-0.8c0.2-0.1,0.4-0.1,0.8,0.1c1.1-0.2,2.8-0.7,3.4-1.3
			c1-1,0-1.3-0.5-2.8s0.3-3.3,0.3-3.3s-1.7,2.3-2.2,2.3s-3.8,1.2-4.2,3.3c-0.3,2.2-1.2-4.7,1.5-4c1.1,0.3,2-0.1,2.7-0.7
			c1.1-0.9,1.8-2.1,1.8-2.1s1.5-0.8,2.5-0.3s2.3-2,3.8,1c0,0-1.3,2-0.7,2c0.7,0,3.3-0.3,3.8-0.5c0.5-0.2-4-9.8-2-11.3
			c0.6-0.4,1.1-0.8,1.7-1.2c1.4-0.9,2.5-1.6,2.5-1.6s-2.8,4.5-1.8,5.8c1,1.3,3,2.7,2.8,3.3c-0.2,0.7,2.3-2,3.3-1.2s1.3,4.5,0.5,4.8
			c-0.8,0.3,6.8,0.7,6.8,0.7s2.5-0.7,1.6-1.7c-0.8-1,0.1-0.3,0.8-0.6c0.7-0.3,0.5-1.3,0-2c-0.5-0.7-3.3-1.5-2.7-2.7
			c0.6-1.2,2.3,1,3.4-0.6c0,0,1.3-0.3,1.4,0.8c0.1,1.1,1.4,0,1-0.6c-0.4-0.6-0.6-0.8,0-1s-1.2-2.2-0.3-2.8c0.9-0.6,1.7-0.4,2-1.1
			c0.3-0.7,0.7,0.6,2-0.3c1.3-0.9,2.6,0.1,3.2-0.5c0.7-0.5,1.9-4,2.7-4.2c0.8-0.1,2.5-0.4,2.1-1.3c-0.4-0.9,1.2,0.2,1.7-0.4
			c0.6-0.6,1.6-0.8,2-0.7c0.4,0.1,1.1-2.4,1.3-3.3c0.2-0.8-0.4-2.3,0.9-1.9c1.3,0.4,3.2,1.8,3.7-0.9c0.1-0.5,0.2-0.9,0.4-1.2
			c0-0.1-0.1-0.1-0.1-0.2c0,0,0,0,0,0c0-0.1,0.1-0.3,0.3-0.5c0,0,0,0,0,0c0.1-0.1,0.2-0.2,0.3-0.3c0-0.1,0.1-0.1,0.1-0.1
			c0,0,0.1-0.1,0.1-0.1c0.1-0.1,0.1-0.1,0.2-0.2c0,0,0,0,0,0c0-0.1,0.1-0.1,0.1-0.2c0,0,0,0,0,0
			C357.7,681.7,357.7,681.6,357.7,681.5z"/>
		<g>
			<path fill="#62bfea" stroke="#cad7e0" stroke-width="0.25" d="M322.4,727.5c-1-3.1-2.2-2.6-0.1-2.8c2.1-0.2,0.3-5.2,0-7.2s1.6-3.5,1.6-3.5s-2.7-0.2-3.2,0l-0.3,3.3
				c0,0-1.8-0.8-2,0.5c-0.2,1.3-1.2,3-2.8,1.2c-1.7-1.8-0.7,3.3,0.7,5.3s-0.3,2-1.7,0.7c-1.3-1.3-3.1,5.8-3.1,5.8
				c1.2,0.8,1.4,2.5,1.4,2.5c-3.2,1,0,2,0,2h1.9c0,0-3.2,1.3-1.2,1.8c2,0.5,0.7,1.8,0.7,1.8c-2.7,2.7,3,1.8,3,1.8l1-2
				c3.8,1.2-0.3-1,0-3s2.2,0.3,1.5-1.6c-0.7-1.9,2.7,2.7,2.7,0.2S323.1,729.9,322.4,727.5z"/>
			<path fill="#62bfea" stroke="#cad7e0" stroke-width="0.25" d="M310.4,737.2c0.7-0.6,0.4-1.6,0.1-1.4c-0.3,0.2-1.1-0.4-0.5-1.1s-1-0.1-0.3-1.2c0.7-1.1-0.3-1.3-0.5-1
				c-0.2,0.3,0.4-0.5-1.1-1.7c0,0-0.8,1-0.3,2.5c0.5,1.5-0.6,1.8,0.3,3.3c0.9,1.4,0.9,1.2,0.9,1.6c0,0.4-2.1,2-2.1,3.4
				c0.1,1.4,1.4,1.2,1.5,0.5c0.1-0.8-0.8-1.8,0.1-2.1c0.9-0.3,1.3,0.3,1.7-0.2c0.4-0.4,1.1-0.7,1.2-0.4c0.1,0.3,0.3-0.3,0.3-0.3
				S309.7,737.8,310.4,737.2z"/>
		</g>
	</g>
</g>
<g id="Northkorea">
	<path id="Yanggang" fill="#769fb6" stroke="#cad7e0" stroke-width="0.25" d="M210.2,146.3c-1.5-0.2-1.5,2.2-2.8,2.8c-1.3,0.7-3.1,1.8-4.9,0c-1.8-1.8-0.4,8.8,1.5,9.2
		c1.9,0.3,4.4,2.9,3.3,5.1c-1.2,2.2,5.7,6.4,5.6,8.9c-0.1,2.5,4.9,0.4,3.9,2.4c-1,2-1.5,10.1,1.4,10.6c2.9,0.5,2.4,0.7,3.4,2.8
		c1,2.2,2.3,0.2,3.9,0.5c1.6,0.3,5.6,1.6,6.3-1.5c0.7-3.1,4.8-4.4,5.9-1.7c1.2,2.8,2.2,4.7,2.4,7.3s2,4.4,3.6,3.1
		c1.6-1.3,7.8-7.1,8.8-8.8c0.9-1.7,7.4-0.6,7.4,1.5c0,2.1-1.3,5.5-1.3,7c-0.1,1.5-1.1,2.5-2.8,3.7c-1.7,1.2-1.6,3.6-1.1,4.6
		s-2.4,3.9-5.1,6.3c-2.7,2.4,1.3,3.9,0.5,5.7s0.1,5.6,1.6,5.2s1.7,5.3,3.7,6.1c2,0.8,2.4,1.4,2.4,3.9s-0.5,4.6,2.1,4.4
		c2.6-0.2,1.7,1.6,1.4,3.4c-0.3,1.8,0.1,3.8-1.5,5.4c-1.6,1.7-3.4,8.8,0.3,8.3s8.8-7.9,8.8-10s2.1-1.8,2.7-2.4
		c0.6-0.7,1.3-4.3,3.4-4.6c2.2-0.3,3.8-1,4.3-1.6c0.6-0.6,3.9,0.4,3.8,2s3.9,3.8,5.2,1.3s2.6-4.3,4.2-4.3c1.6,0,2.4-3.8,5.3-5
		c2.8-1.2,2.4-5.8,2.3-6.8c-0.2-1,0.6-1.5,1.4-2.2c0.8-0.7-0.2-2.9,1.4-3.5c1.6-0.6-0.3-3.6,0.7-4.9c1-1.3,2.8-4.9,1.6-6.3
		c-1.3-1.4,0.8-3.6,3-3.6s1-1.6,3.8-1.3s6.1-2,7-4.4c0.9-2.4,6.2-3.7,4.7-4.8c-1.5-1.1-1.8-5.4,1.5-6.1c3.3-0.7,2.5,2.1,4.7,1.2
		c2.2-0.9,6.4-2.8,6.8-1.3c0.3,1.4-1,4.9,5.2,4.4c0-0.2,0.2-0.4,0.5-0.7c1.7-1.4,0.2-5.5,1.1-8.3s3.4-4,0.9-6s-0.1-4.9-2-5.8
		s0.1-2.4-0.7-6.8s3.1-1.6,2.6-4.6s0.5-3,3-6.1s-2.5-2.4-2.5-4.1c0-1.8-0.6-2.3-4.1-3.1s-1.2-2.8-1.2-5.5s-3.8-1.9-2.3-4.9
		s-0.4-4.9,0.4-6.1s0.1-1.8-0.9-3.2s3.8-5,3.2-6.8c-0.7-1.8,3.8-7.3,4.7-8.2c0.5-0.5-0.4-4-1.2-6.6c-1,0.8-2.6,0.3-3.3-0.3
		c-0.9-0.8-1.7,1.2-1.6,2.8s-0.3,3.8-0.3,3.8s-6.8,1-7.8-0.8c-1.1-1.8-3.6,0.2-3.6,0.2s-1.2-3.6-3.3-1.1c-2.1,2.5-4.4,2.9-4.9,0.8
		c-0.5-2.1-5,2.4-6.4,2.5c-1.4,0.1-7.3,0.5-7.3-1.9l-23.3-0.3c0,0-5.3,2.6-4.3,4.1c1.1,1.5,3.6,3.3,3.7,5.3c0.1,2,0.5,12.2,0.5,12.2
		s3.1-0.1,2.9,2.9s2.8,8.6,6.8,8.4c0,0,1.4,2,1.7,3s2,0.6,1.8,2.1s1.3,0.7,0.9,2.2c-0.4,1.5-1.4,1.9-2,3.9c-0.6,2-4.3,5.3-4.6,7.4
		c-0.3,2.1-4.9,8.3-6.6,8.4s-0.5-1.8-3.1-1.8s-2.3-2.6-2.3-2.6s-1.3-0.4-1.8-0.2s-1.3-0.6-1.9-0.9c-0.6-0.3-3.4-1.3-3.4-2.5
		s-1.1,3.4-3.1,1.6s-2.1,3.3-3.7,2.3s-9.3-1.8-11.8,0.1c-2.5,1.9-1.2-2-4.9-1.8s-1.2-4.4-3.6-3.9s-4.3,0.3-4.3-0.4
		c0-0.7-1.2,0.1-1.2,1.2s-3.2,1.6-3.5-0.6c-0.3-2.1-3.2-0.6-3.1,0.6c0.1,1.2-5.6-1.4-5.2-2.8s-1.4,0-1.4,0s-4-3.3-6.2-2.9
		s0.6-1-2.9-0.8s2.6-4.1,3.3-4.1s0-1.4-2.1-1.4c-2.1-0.1,0-2.5-2.4-2.1c-0.4,0.1-0.6,0.1-0.8,0C211.9,145.3,210.9,146.4,210.2,146.3
		z"/>
	<path id="Hamnam" fill="#769fb6" stroke="#cad7e0" stroke-width="0.25" d="M346.8,230.9c0.8-2.9-4.8-6.1-4.8-8c-0.1-1.9,0.7-4.9-1.8-7.9s1.3-3.8,1.1-5.9s-0.6-5.9,1.5-6.4
		s-0.5-3.6,0.4-6.4s2.5-4,1.1-5.6c-1.1-1.3-3.1-1.7-2.9-2.6c-6.1,0.5-4.8-3.1-5.2-4.4c-0.4-1.5-4.6,0.3-6.8,1.3
		c-2.2,0.9-1.3-1.8-4.7-1.2c-3.3,0.7-3,5-1.5,6.1c1.5,1.1-3.8,2.4-4.7,4.8c-0.9,2.4-4.3,4.7-7,4.4s-1.5,1.3-3.8,1.3s-4.3,2.2-3,3.6
		c1.3,1.4-0.6,5-1.6,6.3c-1,1.3,0.9,4.3-0.7,4.9c-1.6,0.6-0.6,2.8-1.4,3.5c-0.8,0.7-1.6,1.2-1.4,2.2c0.2,1,0.6,5.7-2.3,6.8
		c-2.8,1.2-3.7,5-5.3,5c-1.6,0-2.9,1.8-4.2,4.3s-5.3,0.3-5.2-1.3c0.2-1.6-3.2-2.6-3.8-2c-0.6,0.6-2.2,1.3-4.3,1.6
		c-2.2,0.3-2.8,3.9-3.4,4.6c-0.6,0.7-2.7,0.3-2.7,2.4s-5.1,9.5-8.8,10s-1.9-6.7-0.3-8.3c1.6-1.7,1.3-3.6,1.5-5.4
		c0.3-1.8,1.2-3.6-1.4-3.4c-2.6,0.2-2.1-1.9-2.1-4.4s-0.4-3.2-2.4-3.9s-2.2-6.5-3.7-6.1s-2.3-3.4-1.6-5.2s-3.2-3.3-0.5-5.7
		c2.7-2.4,5.6-5.3,5.1-6.3s-0.6-3.4,1.1-4.6c1.7-1.2,2.7-2.2,2.8-3.7c0.1-1.5,1.3-4.9,1.3-7c0-2.1-6.5-3.2-7.4-1.5
		c-0.9,1.7-7.2,7.4-8.8,8.8c-0.7,0.6-1.5,0.6-2.1,0.1c-2.1,2.7-6.3,7.9-6.9,8.2c-0.8,0.5-3,8.7,0,9.5c3,0.8,1.5,8.5-2.8,8
		s-5.7-3.2-6.8-1.3c-1.2,1.8-1.5,2-1.2,3s-1.1,5-0.1,6.7c1,1.7-3.4,5.8-4.5,4.5c-1.2-1.3-4.7-1.3-5.3,1.8c-0.5,3.2-1.9,3.3-3.7,1.8
		c-1.8-1.5-3.2,1.5-2.7,4.5s0.3,4.2-1.7,5c-2,0.8-2.3,3-2.3,4.8c0,1.2-0.9,1.5-1.7,2.1c2.1,1.4,6.3,4,8.3,3.9
		c2.7-0.2,6.2,3.7,4.5,7.2c-1.7,3.5,2.2,5.7,3.3,6.7c1.2,1,1.7,5.2-1.7,5.2c-3.3,0-5.8,6.8-5.3,9.2c0.5,2.4,0.8,10.1,2.2,10.9
		c1.3,0.8-6.2,1.2-7,2.5c-0.8,1.3-5.7-4-9-4c-3.3,0-6.7,2.8-7.6,5.8c-0.9,3-3.1,7.7-1.4,8.3c1.7,0.7,0.4,3.8-0.6,5.2
		c-1.1,1.3,0.1,3.8-1.6,5.3c-1.7,1.5-2.7,3-1.8,5s4.8,4.3,4.3,6.7c-0.5,2.3-1.7,4.6-0.3,5s-5.2,5.5-3.3,6.5c1.8,1,5-0.2,6.7,2
		c1.7,2.2,7.2,0,7.5,2c0.3,2,1,6.2,3.8,5.3c2.8-0.8,1.8-5.3,5.3-5.8s6.3-6.3,4.8-8.7s2.5-1.5,3.7,0.3c1.2,1.8,6-0.3,6.3-1.6
		c0.3-1.4,4.2-6,5.2-4.7c1,1.3,3.7,3.3,6,3c1.2-0.2,4-0.9,6.7-1.1c-0.3-1.8-0.2-3.6,0.8-4.5c2.9-2.8,2.8-4.6,2.4-7
		c-0.4-2.4-2.9-2-2.9-2c-5.3-4.9,2-9,2.5-10.4c0.5-1.4,1.6-3.5,3.8-4.4c2.1-0.9,5.9-4.6,7.5-3.9c1.6,0.8,3.8-0.6,3.8-0.6
		s0.4-4.9,2-2c1.6,2.9,4.9-2.5,5.3-3.3s-0.3-5.4,1.3-4.4s4.8-3.9,5.3-5.4c0.5-1.6,3-2.9,3.4-1.4s6,0.6,7.5,1.3
		c1.5,0.6,6.3-0.6,6.3-0.6s1.6-3.9,2.3-2.4c0.7,1.5,3.3,2.7,4.8,2.3c1.5-0.3,1.8-5.5,1.8-5.5s5.7,1,6.7-1.3s5.2-7,7.8-5.3
		c2.7,1.7,4.8-2,5.8-3.7s-2-3.7-2.3-6.2c-0.3-2.5,4.5-7.2,9.3-5c4.8,2.2,14.2-10.2,14.2-10.2l4.7-1.8c2.5,3.2,5-4.5,5-4.5
		c2.2,0,2.9-2.6,3.1-4.7C348.4,236.3,346.2,233.5,346.8,230.9z"/>
	<path id="Jagang" fill="#769fb6" stroke="#cad7e0" stroke-width="0.25" d="M201.8,254.6c0.8-0.6,1.7-1,1.7-2.1c0-1.8,0.3-4,2.3-4.8c2-0.8,2.2-2,1.7-5s0.8-6,2.7-4.5
		c1.8,1.5,3.2,1.3,3.7-1.8c0.5-3.2,4.1-3.2,5.3-1.8c1.2,1.3,5.5-2.8,4.5-4.5c-1-1.7,0.5-5.7,0.1-6.7s0-1.2,1.2-3
		c1.2-1.8,2.5,0.8,6.8,1.3s5.8-7.2,2.8-8c-3-0.8-0.8-9,0-9.5c0.6-0.4,4.8-5.6,6.9-8.2c-0.8-0.6-1.4-1.8-1.5-3.2
		c-0.3-2.6-1.3-4.5-2.4-7.3c-1.2-2.8-5.3-1.4-5.9,1.7c-0.7,3.1-4.7,1.8-6.3,1.5c-1.6-0.3-2.9,1.7-3.9-0.5c-1-2.2-0.5-2.3-3.4-2.8
		c-2.9-0.5-2.4-8.6-1.4-10.6c1-2-4,0.1-3.9-2.4c0.1-2.5-6.8-6.8-5.6-8.9c1.2-2.2-1.3-4.8-3.3-5.1c-1.9-0.3-3.3-11-1.5-9.2
		c1.8,1.8,3.6,0.7,4.9,0c1.3-0.7,1.3-3,2.8-2.8c0.7,0.1,1.7-1,2.6-2.2c-0.7-0.3,1.2-1.8-1.9-2.7c-3.8-1.1-1.9-3,0-3.3
		s-0.1-1.6-0.5-1.9s-0.2-3.1-0.2-3.1l-2.9-0.3c0,0-0.6-2.9-4.1-2.9s0-0.4,0-1.1s-0.2-2.1-1.6-1.6s-4.8,2.3-5.4,5.1
		c-0.6,2.8-1.3,3.3-2.1,1.4c-0.8-1.9-1.5-1.8-1.5,1.8s-4.1-2.4-4.1-2.4s-4.6-1.1-3.5,1c1.1,2.1,2.4,2.6,1.6,3.5
		c-0.9,0.9-3.6,2.8-3.7,3.2s-3.4-2.8-3.9,0.8c-0.6,3.6-1.8,3.4-2.3,3c-0.4-0.4,0.4,2,1.1,3.7c0.7,1.7-2,3.6-2.1,5.2
		c-0.1,1.6-0.3,3.9-1.4,4.8c-1.2,0.9-2.1,2.9-1.1,5.7c0.9,2.8,1.8,4.3,1.1,4.4c-0.8,0.1-1.6,0-1-1.3c0.6-1.3-4.5,0.1-4.9,1.4
		s-1.1,2.2-1.4,2.1c-0.3-0.1-4.2,2.1-4.3,6.8s-13.3,14-13.3,14s-4.5,1.1-3.2,2.8c1.3,1.8,0.7,3.3,0.3,3c-0.3-0.3-2.3-0.1-1.4,1.8
		c0.8,1.9-1.9,1.5-1.9,1.5s0.5,1.8,0.3,2.2c-0.2,0.4-2.3,1.3-2.3,3c0.1,1.7-3.3-0.3-3.1,0.8s3.3,4.4-1.6,3.7c0,0-3,2.3-4.3-1.7H129
		c0,0-2.9,6.8-5.8,1.8c0,0-1.4,0-1.8,1.8h-3.1l-4.7,6.3c0,0,5.4,2.7,3,3.3c-2.4,0.7-6.2,0.7-6.5-1.1c-0.3-1.8-2.6,1.7-2.6,3.4
		c0,1.2-1.9,1.6-3.3,1.7c0.6,3.7,2.3,5.1,6.1,7.3c4.8,2.8,0.3,3,1.3,5.7c1,2.7-1.5,1.8-1,3.2s-0.5,3.7-1.2,5.2
		c-0.7,1.5,1.2,3.5,1.2,5.5s-1.3,2.2,1.3,3.7c2.7,1.5,3.5,3.7,5.5,5.2s4.8,0.7,6.8,3.2s0.2,3.2,6.7-1c6.5-4.2,7.8,5.8,10.3,7.3
		s5.2,6.7,5.7,8.5s12.2,4.2,14.7,5.8c2.5,1.7,4.5,2.5,7,0s6.8-0.2,6.8-2.8s1.7-4.5,3.7-4.5s2.5-2.7,3.5-4.3c1-1.7,2.2,3.5,3.7,0
		s6.5-2.8,6.5-2.8s1.2-7,4.8-7.5c3.7-0.5,2.2-5,2.8-7C200.9,255.4,201.3,255,201.8,254.6"/>
	<path id="Pyongbuk" fill="#769fb6" stroke="#cad7e0" stroke-width="0.25" d="M116.1,317.3c2.8,0.2,9.2-5.7,9.2-7.5c0-1.8,1.3,0.5,3-2c1.7-2.5,3.2-1.8,4-2.5
		c0.8-0.7,5-7,9.2-4.5c4.2,2.5,8.5,3,12-0.6s6.3-1.6,8-2.9c1.7-1.3,2.7-2,2.3-4.3c-0.2-1.1,0-4,0.3-6.6c-0.7-0.3-1.5-0.7-2.3-1.3
		c-2.5-1.7-14.2-4-14.7-5.8s-3.2-7-5.7-8.5s-3.8-11.5-10.3-7.3c-6.5,4.2-4.7,3.5-6.7,1s-4.8-1.7-6.8-3.2s-2.8-3.7-5.5-5.2
		c-2.7-1.5-1.3-1.7-1.3-3.7s-1.8-4-1.2-5.5c0.7-1.5,1.7-3.8,1.2-5.2s2-0.5,1-3.2c-1-2.7,3.5-2.8-1.3-5.7c-3.7-2.2-5.5-3.6-6.1-7.3
		c-0.6,0-1.2-0.1-1.4-0.2c-0.7-0.3-1.4,4.3-1.4,4.3s-3.3-0.1-3.1,2.5c0.2,2.6-1.5,0.1-2.2-0.6s-2.4,0.3-3,0.8
		c-0.6,0.4-2.8-2.5-4.2-0.5c-1.4,2-0.3,3.8-3.2,3.6c-2.9-0.2-15.4,8.2-15.1,9c0.3,0.8,3.8,3.3,1.5,3.3s-3.8-0.7-6.2,1.3
		c-2.4,1.9-1.7-5-3.2-1.8s-2.9,6.4-8.3,7.8c-5.3,1.4,0.3,5.1-5.6,6.7c-5.8,1.6-7.2,6.7-7.2,7.5c0,0.9-5.1,2.3-5.1,2.3
		s0.7,8.6-2.4,7.6s-5.9,2.3-5.6,4.9c0.3,2.6-2,11.4-2.6,11.5c-0.6,0.1,2.1,5.1,2.6,5.9s-0.1,3.3,2.1,3.1c2.3-0.1,8.8,0.9,8.9,1.8
		c0.1,0.9,3.4-2.8,2.6-0.9c-0.8,1.9-2,3.8-0.5,4.1c1.5,0.4,1.5,1.5,1,2.5s-0.1,1.9,2.4,4c2.5,2.1-0.9,7.9-0.3,7.8
		c0.6-0.1,3.4,0.4,5.3-2.8c0,0,1.3-0.6,1.8,0c0.5,0.6,0.9-2.4,0.9-2.4s0.1-0.3,0.6-0.3s-0.9-2.5,0.5-3s-0.5-3.8-1-4.4
		c-0.5-0.6-0.1-2.3,0.8-1s2,4,3,4.3s4.9-0.5,5.8,1.3s1.5,5.4,3.1,5.1s1.3-2.8,1.9-1.3s0.8,2.3,1.9,1.5s3.8,1.1,4.3,2.9
		s2.4,4.8,3.5,4.1c1.1-0.6,5-1.3,5.6-1.8s2.8-1.9,3-2.3c0.3-0.4-0.8,2.8,1.6,3.9c2.4,1.1,0.9,4.3,0.9,4.3s2.3,1.4,12.3-6.9
		c0,0,8.1-2.4,9.6-4C111.8,319.6,113.3,317.1,116.1,317.3z"/>
	<path id="Bukgangwon" fill="#769fb6" stroke="#cad7e0" stroke-width="0.25" d="M298.1,404.2c0-3.4-6.1-4.5-8.1-3s-2.3-0.6-6-6.6s-8.8-2-12.1-7.6c-3.4-5.6-8.4-8.6-8.4-8.6
		c-4-13.6-6.8-11.5-6.8-11.5c-4,4.1-9.4-2.6-9.4-2.6s-5.4,1.5-6.3,0s-2.8-5.1-2.8-1.8c0,3.4-2.8-1.6-2.8-1.6
		c-11.1-7.6,2.8-13.1,2.4-14.8c-0.4-1.6-2.4-1-2.6-0.1c-0.3,0.9-3,0.5-2.9-1.4c0.1-1.9,3.1,0.5,3.8-0.9c0.6-1.4,3.1-0.8,3.1-0.8
		s0.1-1.6,2.4,0c1.8,1.3,0.7,5.8,0.2,7c0.5-0.7,2.5,0.2,2.5,0.2c0.5-1.6-1.3-8.4-1.3-8.4s-1.8-3.7-2.3-7.1c-2.7,0.2-5.5,0.9-6.7,1.1
		c-2.3,0.3-5-1.7-6-3c-1-1.3-4.8,3.3-5.2,4.7c-0.3,1.4-5.2,3.5-6.3,1.6c-1.2-1.8-5.2-2.7-3.7-0.3c1.5,2.3-1.3,8.2-4.8,8.7
		c-3.2,0.5-2.7,4.2-4.7,5.5c0.7,2,1.8,2.3,3.5,2.6c2.7,0.5,5.3,3.8,5.9,5.7c0.5,1.8-7.4-0.3-6.4,2c1,2.3-1.2,4.7,0.9,6.7
		s3.1,7,1.4,10.5s-2,2-4.5,3.2s-3.7,5.7-3,8.8c0.7,3.2-0.7,2.5-3.3,3.3c-2.7,0.8-4,1.7-4.3,6c-0.3,4.3-5.2,1.7-7.1,3.2
		s2.1,5.2,1.1,9.3c-1,4.2,3,8.7,2.5,15.3s4.5,4.2,5.7,3.5c1.2-0.7,5.2,2.7,3.5,4.6s-1.3,5.9-1.3,5.9s3.3,0.8,2.8,2.4
		c-0.3,1-1.1,4.9,0.4,7.6c3.2-1.5,3.1-0.9,3.5-3.9c0-0.2,0-0.4,0.1-0.6c0-0.2,0-0.4,0.1-0.6l0,0c0-0.2,0-0.4,0.1-0.6c0,0,0,0,0,0
		c0-0.2,0.1-0.4,0.1-0.6c0,0,0,0,0,0c0-0.2,0.1-0.4,0.1-0.6c0,0,0,0,0,0c0.1-0.2,0.1-0.4,0.2-0.6c0,0,0,0,0,0
		c0.5-1.2,1.4-2.6,3.3-4.2c0,0,0,0,0,0c0.3-0.3,0.6-0.6,1-0.9c0,0,0,0,0,0c0.4-0.3,0.8-0.6,1.2-0.9c0,0,0,0,0,0
		c0.4-0.3,0.9-0.6,1.4-1c0,0,0,0,0,0c0.7-0.5,1.5-1,2.4-1.6c0.3-0.2,0.6-0.4,0.9-0.5c0,0,2,1.2,3,0.6c1-0.6,3.7-2.8,6-1.6
		c2.3,1.2,7.7-0.4,8.8-0.8c1.1-0.4,7.3,4.1,10.1,1.8s2.9-1.8,2.9-1.8s13.9-1.9,14.6-0.1c0.7,1.8,2.4,2.7,5.3,0.5
		c2.9-2.2,12.1,2.8,13.9,1.3s14-7.7,14.9-13.8v-9.9l3.4-2.6C298,409.2,298.1,406.9,298.1,404.2z"/>
	<path id="Hwangnam" fill="#769fb6" stroke="#cad7e0" stroke-width="0.25" d="M166.1,447.4c1.5-1.2,1.1-2.5-0.9-3.1s-4.8-1.9-5.9-3.8s-0.9-0.5-5.2-1.6c-4.3-1.1-6,2-7.6,3.3
		s-1.8,0.6-5.6-0.3s-7.4,3.8-9.3,3.6c-1.8-0.1-3.1-1.2-1.7-3.6c1.4-2.4-0.1-3-1.6-2.9s-0.5-1.3-1.5-1c-1.1,0.3-3.5,0.1-1.5-2.5
		s-1.3-1.7-2.6-1.7s-4.3-4.2-4.4-5.6c-0.1-1.4,1.8-1.9,1.6-2.6c-0.2-0.7-3.3-3.8-3.1-5.3s1.2-0.1,1.7-0.8s-0.3-3.6-1.3-4.9
		c-1.1-1.3,0.8-6.8,0.4-7.8s-7.6-3.5-7.6-3.5s-2.9,0.6-4,2.8c0,0-4.4-4-5.6-3.3s3.1,2.5-3.1,1.8c0,0-2.4,0.4-2.4,1.3
		c0,0.9-2.6-1-2.6,0.1c0,1.1-0.4,5.5-0.4,5.5s-1.8-3.8-2.2-4c-0.4-0.3-0.5-2.5-1.8-1.5s-1.9,3.6-4.4,0.6s-0.6,2-0.4,2.9
		c0.3,0.9-0.3,2.9-3.5-3c0,0-2,0.1-0.5,4.1l0.1,3c0,0,1.4,0.8,1.3,1.4c-0.1,0.6-4.3-1.4-4.8,1.5l-2.4-0.3l0.3-1.9c0,0-3.1-0.3-4-1
		s-0.1,1.3,0.5,2.5s0.5,3.4,0.5,3.4l1.4,1.1c0,0-1.1,3.8-1.9,3.9c-0.8,0.1-0.9,0.6-0.6,1.6s-0.3,1-0.9-0.9c-0.6-1.9-4.1,7.8-5.9,8.1
		c-1.8,0.4-2,2.8-0.1,4.1l-0.5,5.3c0,0,1.6,1.5,1.6,2.3s1.9,1.8,3.5-0.4c0,0,2.6-0.4,2.5,0.5c-0.1,0.9-2.6,1.5-2.6,1.5l-1.4,1.3
		c0,0-1-1.1-1.6-1.4s-2.3-0.5-2.1-2.1c0.1-1.6-3.1,2.4-3.4,3.3c-0.3,0.9-0.3,2.6-2.3,1.9s-1.1,0.4-3.1,1.8c-2,1.4,0,1.4-4.3,0.9
		s-0.9,2.3,0.4,2.8s5.9,1.6,6.8,1.8c0.9,0.1,2.9-1.1,4.1-1.3c1.3-0.1,2.9-1.9,2.9-1.9s7.1,4.4,7.8,4.9s1.9-0.8,2.5-0.3
		s2.8,0.6,4.1-0.3c1.4-0.9,1.3-1.3,2.6-1s2-0.9,3.3-0.1s3.1,0.5,3.9,0.8s3.3,0.8,0.6,1.8s-0.8,3-0.8,3s-1.3,2.4-1.8-0.4
		s-1.4-2-4.1-1.5s-4,1.1-3.6,2.4s1.5,2.5,2.3,2.3s-0.5,1.4,0.3,1.6s2.6-0.4,1.8,1c-0.9,1.4-1.6,0.1-2.8,0.1s-2.8-0.4-2.8-1
		c0-0.6-2.9-0.5-3.4,0.6c-0.5,1.1-2.5-0.1-2.9,0.8c-0.4,0.9-1.5,3.4,0.9,2.1c0,0-1.5,3.5,2.8,2.5s1.8,1.1,1.8,1.1s2.8,3,4.9,2.1
		c2.1-0.9,0.8,0.5,3.3,0.3s2.8-2.6,2.8-4.5c0-1.9,1-2.3,1.3-1.5s0,2.6-0.1,3c-0.1,0.4-1.6,4.4-2.6,4.1s-1.4,1.9-1.4,1.9l-3.6,2.4
		l1.4,1.1c0,0,2.5-1.3,2.6-2s3.1,0.6,3.1,0.6l3.2-1.5c0,0-0.8-1.8-0.6-2.1c0.3-0.4,1,1.3,2,0.9c2.5-1,0,2.5,1.6,2.5s1.4-4.1,1.4-4.1
		V474c0,0,0.7,0.3,2.5,0.1c1.8-0.1-0.5,2.5,1.3,2c1.8-0.5,2-2.9,2-4c0.1-1.1-0.1-2.1,1.2-1.1s-1,3.1,0.3,2.8c1.3-0.4,1.4,1,0.8,1.4
		c-0.5,0.4-1.5,0.5,0,1c1.5,0.5,0,1.6,0,1.6s2.4-1.3,2.1,0.8s-3.2,1.6-3.6,1c-0.4-0.6-2.4,0.8-2.8,1.8c-0.5,1-0.8,0-1.3,1
		c-0.5,1,0.2,1-1.1,0.5s-0.1,0.5,0.4,1.7c0.4,1.2,3.1-2.5,3.9-0.9c0.8,1.6-1.9,1.4-1.9,1.4s-1.2,1.1-2.4,0.3c-1.2-0.9-1.3,1-2.1,1.1
		c-0.8,0.1-2,2.6-1.3,3.5c0.7,0.9,1.8,2.4,2,2c0.2-0.4,0.4-4.3,1.4-3.6c0.9,0.6,3.1-1.5,4.1-0.5s3.3,0.3,3.3-0.6
		c0-1,1.4-2.6,1.4-2.6s0.6-5.7,0.9-2.2c0.3,3.5,1.9,2.2,1.9,2.2c0.3-3,2.1-0.8,2.1-0.8c-1.9,1.9,2.4,1.4,2.4,1.4s1.8-3.5,1-3.5
		s-2.4-1.5-0.9-1.4s1.8-1.3,1.4-1.1s-1.9-3.5-0.5-2.3s0.3-1.5,0.8-2.6c0.5-1.1-0.8-1.8-0.8-1.8c-0.4-0.8,1.4-1.8,1.4-1.8
		c0.5,3.6,2.4,2.8,4.3,2.3s3.5-4.6,1.7-3c-1.8,1.6-3,0-2.8-0.8s1-0.9,2-0.9s1.3-1.9,0-1.3c-1.3,0.6-4.1,0.5-2.9,0s1.1-1.8,1.1-1.8
		l-3.9,1.8c0,0-5.8-5.1-6.2-6.1c-0.5-1,1.9,0,1.9,0s7.6,0.9,7.8,2.5c0.2,1.6,2.3,3.2,2.2,0.2s2.1-0.2,3.9,1.1
		c1.8,1.3,1.4,0.8,0.8,3.1s2.1-0.3,4.8,4.9c2.6,5.1,1.8,6.1,4.2,5.6s3.4,0.4,3.4,0.4s-1.4-5.7,0.7-4.6s1.8,2.3,2.4,2.8
		c0.6,0.4,1.4,1.4,1.7,0.1s1.4-3.6,1.4-0.2c0,3.4,0.4,4.8,2,5.4c1.6,0.7-0.2,3.9,2.4,4.1s3.7,0.3,2.8-2.6s-1.4-5.6,0.4-5.9
		c1.8-0.3,3.4,0.1,2.1-2s2.1,0.9,2.1,0.9s2.9,2.4,5.3-0.3s5.6-1.6,5.8-2.9s0.6-0.8,0.6-1.2c0-0.2,0.3-0.4,0.5-0.4
		c0-1.8-2.1-3.6-1.6-4.1c0.6-0.6,0.5-1.9-0.8-3.5c-1.3-1.6,1.2-2.6,0.6-3.8s2.1-2.1,0.1-3.1s0.9-3.8,0.9-3.8
		C162.7,451.9,164.6,448.6,166.1,447.4z"/>
	<path id="Pyeongyang" fill="#769fb6" stroke="#cad7e0" stroke-width="0.25" d="M111.1,381.7c0.8-0.8,3.2-0.6,3.8-0.9s2.7-3.5,7.5-2.8c0,0,2.4,4.8,3.9,3.3
		c1.6-1.5,4.8-1.3,6.4,0.7c1.6,2,3.3-1.2,3.3-1.5s2.2,0.8,2.5,0.4s2.6-2.3,1.7-4.1s-2.4-4.6-2.4-6c-0.1-1.4-2.4-2.2-2.4-2.2
		s4.9-6,9.8-2.8c4.1,2.8,3.2,3.8,3,5.4c0.9-0.6,4.1-2.6,4.8-1.6c0.8,1.1,2.6,3,2.8,3.5c0.1,0.5,1.9-0.8,3.2,1s3.9-0.3,5,0.8
		c0.9,0.9,3.1,3.3,4.6,2.9l0,0c-0.3-0.2-0.5-0.5-0.6-0.7c0,0,0,0,0,0c0-0.1-0.1-0.1-0.1-0.2c0,0,0,0,0,0c0-0.1,0-0.1,0-0.2
		c0,0,0,0,0-0.1c0,0,0-0.1,0-0.1c0-0.1,0.1-0.1,0.1-0.2c0,0,0,0,0,0c0.1-0.1,0.2-0.1,0.3-0.1c0.2-0.1,0.3-0.2,0.3-0.4
		c0-1.4-4.7-5.4-5.2-6.9c-0.5-1.7-1.3-3.7-4.8-4.2c-1.5-0.2-1.7-1.6-1.7-3.2c0-0.7,0.1-1.3,0.1-2c0-1.2-0.2-2.2-1.3-2.2
		c-3,0-4-5.5-7.3-4.1c-2.5,1.1-3.1,0.4-3.1-0.7c0-0.4,0.1-0.8,0.1-1.2c0.3-1.7-8.5-1.8-10.5,0c-2,1.8-7.7-3-8.3-4.8
		c-0.7-1.8-9,1-10.8,3.4c-0.3,0.4-0.5,1-0.4,1.7c0.1,2.8,3.1,7.2,3.3,9c0,0,0,0,0,0l0,0c0.2,2.2-1.3,2.7-4.5,3.8
		c-1,0.4-1.3,1.4-1.2,2.6c0.1,2.2,1.3,5.3,1.4,7c0,0.4,0,0.7-0.2,0.9c-1,1.8-4.6,4-4.6,4s-0.2,1.4-1,3
		C109.5,382.1,110.7,382.1,111.1,381.7z"/>
	<path id="Nampo" fill="#769fb6" stroke="#cad7e0" stroke-width="0.25" d="M107.3,374.5c-0.1-1.4-1.2-0.8-1.7-2.6s-1.8-3.4-3.1-1.7c-1.3,1.7-5.8,1-6.7,1.7
		c-0.9,0.7,0.5,2.5,0,3.8c-0.3,0.8-4.9-0.5-8.3-1.6c-0.8,3-3.8,4-3.8,4s-0.9,1.4,0.4,1.9s-3,2.4-2.6,5.8c0.4,3.4-3.5,2.8-2.1,3.5
		s1.8,1.4,1,3.1s0.3,3.9,1.8,4.6s3.1,3.4,3.1,3.4s1.4-4.1,2.4-3.1c0.9,0.9-0.8,3.2-1.3,3.9c-0.1,0.1-0.2,0.2-0.2,0.2
		s3.1,1.1,3.4,1.6c0.3,0.5,3.8-0.4,5.2-0.9s6.6,0,4.5-3s2.9,0.6,2.9,1.4s7.4,1.5,7.8,2.9c0,0,3.4-1.4,2.8-4s-1-6.2-1-6.2
		s-1.4-1.9-1.5-3c-0.1-1.2-1.6-2.1-1.9-2.3c-0.3-0.3,0-2.2,0-2.2s-2.2,0.2-0.7-1.9c0.4-0.6,0.7-1.1,1-1.7c0,0,0,0-0.1,0
		c0,0,0,0,0.1,0c0.8-1.6,1-3,1-3s1-0.6,2.1-1.5C110,376.7,107.4,375.4,107.3,374.5z"/>
	<path id="Pyongnam" fill="#769fb6" stroke="#cad7e0" stroke-width="0.25" d="M218,272.3c-1.2-1-5-3.2-3.3-6.7c1.7-3.5-1.8-7.3-4.5-7.2c-2,0.1-6.3-2.5-8.3-3.9
		c-0.5,0.4-0.9,0.8-1.2,1.5c-0.7,2,0.8,6.5-2.8,7c-3.7,0.5-4.8,7.5-4.8,7.5s-5-0.7-6.5,2.8s-2.7-1.7-3.7,0c-1,1.7-1.5,4.3-3.5,4.3
		s-3.7,1.8-3.7,4.5s-4.3,0.3-6.8,2.8c-1.7,1.7-3.2,1.9-4.7,1.3c-0.2,2.6-0.4,5.4-0.3,6.6c0.3,2.3-0.7,3-2.3,4.3
		c-1.7,1.3-4.5-0.7-8,2.9s-7.8,3.1-12,0.6c-4.2-2.5-8.3,3.8-9.2,4.5c-0.8,0.7-2.3,0-4,2.5s-3,0.2-3,2c0,1.8-6.3,7.7-9.2,7.5
		c-2.8-0.2-4.3,2.3-5.8,4c-1.5,1.7-9.6,4-9.6,4l0.9,1.8l1.9,0.1c0,0-2.9,0.4-4.6,1.4s-1.4,2.1-1.4,3.8c0,1.6-4.9,5.9-3.8,6.5
		c1.1,0.6,2.1,0,0.9,1.8s1.1,4.4,1.8,4.3c0.6-0.1,1.8,0.1,1.8,1.3c0,1.1,0.4,3.6,2.3,4c1.9,0.4-3.1,1.3-1.6,2.8s-1.8,1.9-1.8,1.9
		s0.5,3.6-1,2.9s-6.8,5.6-5.8,10.4c0,0-2,2.4-2.6,5.8c0,0.1-0.1,0.3-0.1,0.4c3.4,1.1,8,2.4,8.3,1.6c0.5-1.3-0.9-3.1,0-3.8
		c0.9-0.7,5.4,0,6.7-1.7c1.3-1.7,2.6-0.1,3.1,1.7s1.6,1.1,1.7,2.6c0.1,0.9,2.6,2.3,4.3,3c1-0.8,2-1.7,2.5-2.5c1-1.7-3.2-9.3,0-10.5
		c3.2-1.2,4.7-1.7,4.5-3.8c-0.2-2.2-4.7-8.3-2.8-10.6s10.2-5.2,10.8-3.4c0.7,1.8,6.3,6.7,8.3,4.8s10.8-1.7,10.5,0
		c-0.3,1.7-0.3,3.4,3,1.9c3.3-1.4,4.3,4.1,7.3,4.1c3,0-0.5,6.8,3,7.3s4.3,2.5,4.8,4.2c0.5,1.7,6.6,6.7,4.9,7.3
		c-0.8,0.3-0.6,1,0.2,1.6c0.1,0,0.1,0,0.2-0.1c-0.1,0-0.1,0-0.2,0.1c0,0,0,0,0.1,0.1c0,0,4,1.7,4.5,0.3s-1.6-5.3,0.3-5.7
		s13.9,4.8,13.7,2.8s-1.8-4.4-2.1-4.9s-0.9-8.1-4.9-7.4s1.9-5.6,3.7-4s6.5,1.6,7.5,1.4s10.8,10.2,12.9,9.8c0.7-0.1,1.8-0.3,2.9-0.4
		c-1.8-2,0.3-4.2-0.7-6.5c-1-2.3,6.9-0.2,6.4-2c-0.5-1.8-3.1-5.2-5.9-5.7c-1.7-0.3-2.8-0.7-3.5-2.6c-0.2,0.1-0.4,0.2-0.7,0.3
		c-2.8,0.8-3.5-3.3-3.8-5.3c-0.3-2-5.8,0.2-7.5-2c-1.7-2.2-4.8-1-6.7-2c-1.8-1,4.7-6,3.3-6.5c-1.3-0.5-0.2-2.7,0.3-5
		s-3.5-4.7-4.3-6.7s0.2-3.5,1.8-5c1.7-1.5,0.5-4,1.6-5.3s2.3-4.5,0.6-5.2c-1.7-0.7,0.5-5.3,1.4-8.3s4.3-5.8,7.6-5.8
		c3.3,0,8.2,5.3,9,4c0.8-1.3,8.3-1.7,7-2.5c-1.3-0.8-1.7-8.5-2.2-10.9c-0.5-2.4,2-9.2,5.3-9.2C219.6,277.5,219.1,273.3,218,272.3z"
		/>
	<path id="Hambuk" fill="#769fb6" stroke="#cad7e0" stroke-width="0.25" d="M420.7,91.3c-1.7-1.9-0.1-1.5,0-4.4c0.1-2.9,1.2-2.8,2.8-2.1s1.2,0.2,4-3.2
		c2.8-3.3,3.5-4.8,1.3-6.7c-2.3-1.8,4.2-2.4,6.6-3.2s2.1-4.8,3.5-6.4c0.9-1,0.4-4.5-0.1-6.9c-0.3-0.3-0.7-0.6-1-1
		c-1.6-2.2-5.1-6.8-6.2-7.2c-1.1-0.4-1.6-4-1.6-4s-2.9-1.9-3.6-2.4s-0.8-4.2,0.1-4.9c0.9-0.8,0.2-3-0.7-4s1.3-4.9,2-5.2l-0.3-3.1
		c0,0-6.1-2.1-8.2,0c-2.1,2.1-3.8-2.2-1.8-2.4s1.2-1.3,0.7-2s0.3-1.8,1.2-2c0.9-0.2-1.3-3.2-4.8,0c0,0-9.9,1.4-7.3-3.3
		c0,0-5.4-0.4-5.4,1.8s1.9,0.8,1.8,1.3c-0.1,0.5-4.1-0.1-3.8,1.3c0.3,1.4,1.5,3.4,0.8,3.4s-2.4,0.8-2.1,2.7c0.3,1.8-0.8,5.7-2.1,6.3
		s0.5,4-0.2,4.8c-0.7,0.8-4.3,4.9-1.7,7.5s0.7,2,0.1,1.7c-0.6-0.3-1,1.3-0.5,1.9s-0.7,0.9-0.8,1.9s2.2,2.3,0.4,3s-2.1,3.1-1.9,5.1
		s0.3,15.1-6.9,9.8c0,0-2.7-2.3-3.5-0.7c0,0,2-0.2,0.6,2.3c-1.4,2.4-3.2,1.6-2.8,3.7c0.3,2.1-1.3,0.4-2.3-1.7
		c-1-2.1-4.4-3.8-4.4-3.8s-2.3,0.8-2.7-0.5s-1.8-0.8-1.7,0.6c0.1,1.3-0.8,1.9-1.1,0.2s-2.3-1.3-2.1,0.4c0.2,1.8,0.1,3.2-0.7,1.5
		s-2.4,1.1-2.1,2.5s-2.1,0.3-2.1,0.3s-0.3,0.5-0.4,1s-3.6-0.4-1.9,2.6s-0.3,3.3-1.2,2.8c-0.8-0.5-1.3,0.2-0.4,1.7
		c0.8,1.4,0,1.4-0.6,1.3c-0.6-0.1,1.7,1.4,1.1,1.8c-0.7,0.4-3.4,0.3-2.7,1.8s2.8,3.8,2,3.9c-0.8,0.1-1.9-0.3-1.6,1.2
		s-2.3-0.8-2.2,1.3c0.1,2.2-1.9,1.5-2.3,1.3s-0.4,1.8-0.4,1.8s-2.5,0.6-3.1-0.8s-0.9,1.7-0.9,1.7s-1.8-0.6-2,2.3
		c0,0.8-0.3,1.3-0.7,1.7c0.8,2.6,1.7,6.1,1.2,6.6c-0.8,0.8-5.3,6.3-4.7,8.2c0.7,1.8-4.2,5.5-3.2,6.8s1.6,1.9,0.9,3.2
		s1.1,3.1-0.4,6.1s2.3,2.1,2.3,4.9s-2.3,4.6,1.2,5.5c3.5,0.9,4,1.4,4.1,3.1s5,1,2.5,4.1s-3.5,3.1-3,6.1s-3.4,0.3-2.6,4.6
		s-1.2,5.9,0.7,6.8c1.8,0.9-0.5,3.8,2,5.8s0,3.3-0.9,6s0.6,6.9-1.1,8.3c-1.7,1.4,1,1.6,2.3,3.3s-0.3,2.9-1.1,5.6s1.8,5.9-0.4,6.4
		s-1.6,4.3-1.5,6.4s-3.6,2.9-1.1,5.9s1.7,6,1.8,7.9c0.1,1.9,5.6,5.1,4.8,8c-0.7,2.6,1.5,5.3,6,6.9c0.2-1.7,0.2-3.1,0.7-2.8
		c1,0.7,2.5-5,2.5-5c4-8.5,5.7,2.4,6.9-1.8c1.3-4.1,6.9-7,9.8-8.8s4.9-0.8,5.6-1.4c0.8-0.6,0.9-4.4,4.1-3.5c3.3,0.9,4.1-0.5,4.1-0.5
		s3.4,2.4,5.3-3c1.9-5.4,2.9-5.6,0.1-6.9s0.3-15.1-0.9-18.8c-1.1-3.6,1-5.1,0.6-7c-0.4-1.9,1.5-5.6,1.5-5.6c4.1-1.9,2.5-7.1,2.5-7.1
		s-1,1.6-1.8-0.6s-3.5-3-3.5-3c-5.8-2.9-5.4-12.6-3.9-12.6s1.5-9.6,4.3-10c2.8-0.4,1.9-7.6,2.6-7.4s2.9-2.3,2.9-2.3l3.1,2.3v-3.8
		c2.3-0.9,2.6-6,2.6-9.5s4.3,0,4.3,0s1.1-6.4,2-7.1s1.1-0.1,1.4-2.1s2.3,0.1,2.4-1.9s1.3-3.3,1.3-3.3c1.1,2,1.5,0.9,1.5-1.3
		c0-2.2,1.9-2.9,2.9-1.2s3.5,1.4,2.8,0c-0.8-1.4,0-2.3,0-2.3c1.9-0.1,2.8-1.5,3.3-3.5C419.9,93.6,422.2,93.1,420.7,91.3z"/>
	<path id="Rason" fill="#769fb6" stroke="#cad7e0" stroke-width="0.25" d="M455.1,82.4c-1.9-1.2-0.9-3.3-0.1-6.7c0.8-3.3-6.5-5.5-6.5-5.5s-1.8-3.1,0.3-3.8c0,0-3-6.1-3.5-6.3
		s-0.3-6.7-0.3-6.7s-6.3-0.6-4.4,3.3c1.6,3.2-0.3,3.1-1.9,1.8c0.5,2.4,1,5.9,0.1,6.9c-1.4,1.6-1.1,5.7-3.5,6.4s-8.8,1.3-6.6,3.2
		c2.3,1.8,1.6,3.3-1.3,6.7c-2.8,3.3-2.3,3.8-4,3.2s-2.7-0.8-2.8,2.1c-0.1,2.9-1.7,2.5,0,4.4c1.5,1.8-0.8,2.3,3.1,5
		c0.1-0.4,0.2-0.9,0.3-1.4c0.5-2.6,5-5.4,5.9-6.9s1.4,4,1.4,4l1.8-2.5c1.5,0,0.5-4,1.9-3s1.4-1.8,1.4-1.8c-1.3-3.2,1.7-4.3,1.7-4.3
		s3.7,3.8,3.3,0c-0.3-3.8,3.7,0.3,3.3-0.5s0.5-3.8,2.3-4.2c1.8-0.3-2.3,4.2,0,4.8c2.3,0.7,3.5,4.2,3.5,4.2S457,83.6,455.1,82.4z"/>
	<path id="Hwangbuk" fill="#769fb6" stroke="#cad7e0" stroke-width="0.25" d="M207.6,370.2c-0.1-0.1-0.1-0.1-0.2-0.2c-0.1-0.1-0.1-0.1-0.2-0.2c-1.1,0.1-2.2,0.3-2.9,0.4
		c-2.1,0.4-11.9-10-12.9-9.8c-1,0.2-5.7,0.3-7.5-1.4c-1.8-1.6-7.6,4.6-3.7,4s4.6,7,4.9,7.4s1.9,2.9,2.1,4.9s-11.8-3.2-13.7-2.8
		s0.2,4.3-0.3,5.7c-0.4,1.4-4.5-0.3-4.5-0.3c0,0,0,0-0.1-0.1c-1.5,0.4-3.7-2-4.6-2.9c-1.1-1.2-3.7,0.9-5-0.8s-3.1-0.5-3.2-1
		c-0.1-0.5-2-2.4-2.8-3.5c-0.6-1-3.9,1-4.8,1.6c0.3-1.5,1.1-2.6-3-5.4c-4.9-3.3-9.8,2.8-9.8,2.8s2.3,0.8,2.4,2.2
		c0.1,1.4,1.6,4.3,2.4,6s-1.4,3.8-1.7,4.1c-0.3,0.3-2.5-0.8-2.5-0.4s-1.7,3.6-3.3,1.5c-1.6-2-4.8-2.2-6.4-0.7
		c-1.6,1.5-3.9-3.3-3.9-3.3c-4.8-0.8-6.8,2.5-7.5,2.8s-3.1,0.1-3.8,0.9c-0.5,0.4-1.7,0.4-2.6,0.2c-0.3,0.6-0.6,1.1-1,1.7
		c-1.6,2.1,0.7,1.9,0.7,1.9s-0.3,1.9,0,2.2c0.3,0.3,1.8,1.2,1.9,2.3c0.1,1.2,1.5,3,1.5,3s0.3,3.6,1,6.2s-2.8,4-2.8,4
		s7.3,2.5,7.6,3.5s-1.4,6.4-0.4,7.8c1.1,1.3,1.8,4.3,1.3,4.9s-1.4-0.8-1.7,0.8s2.9,4.6,3.1,5.3c0.2,0.7-1.8,1.2-1.6,2.6
		c0.1,1.4,3.2,5.6,4.4,5.6s4.6-0.9,2.6,1.7s0.4,2.8,1.5,2.5c1.1-0.3,0,1.1,1.5,1s3.1,0.4,1.6,2.9c-1.4,2.4-0.1,3.5,1.7,3.6
		c1.8,0.1,5.4-4.4,9.3-3.6s4,1.5,5.6,0.3s3.3-4.3,7.6-3.3c4.3,1.1,4-0.3,5.2,1.6s3.9,3.1,5.9,3.8s2.4,1.9,0.9,3.1s-3.4,4.5-0.5,6.2
		c0,0-2.9,2.8-0.9,3.8s-0.8,2-0.1,3.1c0.1,0.2,0.1,0.4,0.1,0.5v0c-0.2,0.9-1.8,1.8-0.7,3.2c1.3,1.6,1.5,2.9,0.8,3.5
		c-0.5,0.5,1.6,2.3,1.6,4.1c0.3,0,0.6,0.3,0.2,1.2c0,0,0.2,3.3,1.6,4.7c1.4,1.4,9.1,5.9,9.1,5.9s3.7-1.3,4.4-2.1
		c0.7-0.8,1.1-3.8,2.3-4.5c0.1-0.1,0.2-0.1,0.3-0.2c0.1-1.9,0.5-7.3-0.1-8.5c0,0,8.3-2.1,12.1-7.3c3.8-5.1-1.3-4.4,3.3-6.9
		c0.5-0.3,1-0.5,1.4-0.7c-1.5-2.6-0.7-6.6-0.4-7.5c0.3-1-0.8-1.6-1.7-2l0,0c-0.6-0.3-1.1-0.4-1.1-0.4s0-0.4,0-1
		c0-1.3,0.2-3.6,1.4-4.9c1.7-1.9-2.3-5.2-3.5-4.6c-1.2,0.7-6.2,3.2-5.7-3.5s-3.5-11.2-2.5-15.3c1-4.2-3.1-7.8-1.1-9.3
		s6.8,1.2,7.1-3.2c0.3-4.3,1.7-5.2,4.3-6c2.7-0.8,4-0.2,3.3-3.3c-0.7-3.2,0.5-7.7,3-8.8c2.5-1.2,2.8,0.3,4.5-3.2
		C210.4,377.1,209.5,372.3,207.6,370.2z"/>
</g>
</svg>
