<?xml version="1.0" encoding="utf-8"?>
<!-- Generator: Adobe Illustrator 16.0.0, SVG Export Plug-In . SVG Version: 6.00 Build 0)  -->
<!DOCTYPE svg PUBLIC "-//W3C//DTD SVG 1.1//EN" "http://www.w3.org/Graphics/SVG/1.1/DTD/svg11.dtd">
<svg version="1.1" id="레이어_1" xmlns="http://www.w3.org/2000/svg" xmlns:xlink="http://www.w3.org/1999/xlink" x="0px"
	 y="0px" width="796px" height="590px" viewBox="0 0 796 590" enable-background="new 0 0 796 590" xml:space="preserve">
<path id="LaCoruña" fill="#eeeeee" stroke="#000000" stroke-width="0.25" stroke-miterlimit="10" d="M35.166,83.17
	c4,0,3.75-2.667,8.938-2.854c5.188-0.188,5-2,7.688-2.25s1.063-3.75,5.563-3.313c4.5,0.438,1.938-3.063,7.063-1.938
	s3.938,0.813,7.188,0.5c3.25-0.313,5.09-3.562,5.063-4.813c-0.063-2.875,1.875-3.063,1.438-5.563s-2.375-7.75-2.188-12.875
	s1.688-5.938,1.688-8.375c0-2.438-2.25-1,0.188-3.5s0.063-6.563,3.125-6.688s5.688-7.375,6.063-10.313
	c0.375-2.938,2.438-2.938,2.125-6.313c-0.3-3.235,2.038-3.558,2.176-9.42c-0.642,0.075-0.961-0.09-0.176-1.205
	c1.938-2.75,0.5-2.75-1.063-1.313c-1.563,1.437-5.938,4.313-7.5,5.5c-1.562,1.187-2.563-0.75-1.75-2.625s-0.853-3.657-2.875-1.063
	c-3.313,4.25-7.313,2.25-8.438,4.375s1.313,3.063,0.5,3.75c-0.813,0.688-1.38-1.815-3.188,0.25
	c-2.333,2.667-3.875,1.125-4.083,2.333s-3.167,5.042-4.75,4.125s-3.978-0.901-1.667,1.542c1.458,1.542-1.197,0.792-0.932,2.875
	c0.265,2.083-2.152,2.708-0.318,3.083s2.438-2.146,4.938-1.833c2.5,0.313,6.512-3.873,4,0.063c-1.875,2.938-6.145,0.167-6.75,2.688
	c-0.375,1.563,1,1.313,3.5,2.063s0.938-0.188,0.688,2.375c-0.25,2.563-1.438,5.375-2.125,2.313
	c-0.687-3.062-2.563-0.375-2.938-3.063c-0.375-2.688-2.5,0.563-2.375,2.625c0.125,2.062-1.625,2.313-3.063,0.063
	s-4.063-0.188-5.875,2.188s-3.125,0.75-6.5,1.75s-7.75,2.25-9.5,0.25s-2.333-1.188-4.542-0.604s-1.125,2.083-3.125,2.167
	s-2.875,0.959-0.875,3.167s-0.167,2.083-1.583,1.833s-3.811,3.5-6.083,2.917c-3.25-0.833-7.804,2.055-5.792,4
	c1.25,1.208,2.875-1.167,1.938,1.396c-0.937,2.563-1.804,2.25-2.433,1.313c-0.629-0.937-2.067,0.688-2.254,1.5
	c-0.187,0.813-1.063,3.375-1.938,2.188c-0.875-1.188-1.5-0.313-0.375,1.625c1.125,1.938,1.559,1.562,1.434,3.437
	s-3.173,4.442-1.688,4.938c1.313,0.438,0.168,2.469,1.063,2.438c1.167-0.042,0.167-2.917,1.708-3.292s1.667,1,2.75,0.917
	s-0.417-1.666,0.292-2.083s1.25,2.667,2.708,2.417s-0.667,2.333-0.583,3.75s3.731,1.943,1.458,4.125
	c-1.042,1-0.75,1.292,0.792,3.417s2.667,0.667,3.083-0.25s-0.792-0.875,0.375-2s2.333,1.542,3.583,0.792s1.167,0.667,2.292-0.583
	s1.667-0.458,1.792-2s1.332,0.723-0.083,2.542c-0.875,1.125-1.642,0.384-2.083,1.708c-0.708,2.125-1.667,1.125-2.917,2.375
	s-1.292,3.789-2.542,7.164s-3.25,4.125-0.312,4.875s-0.738,5.025,2.563,3.375c2-1-1.188-4.313,3.625-4.313
	c1.188,0-0.063-3.063,1.938-3.75c2.001-0.688,0.5,1.625,2.125,1.75s-0.75-2.938,0.75-2.75c1.5,0.188,0.125-3.688,1.875-0.875
	c1.501,2.412,2.13,0.462,3.146,0.211C31.348,86.654,32.168,83.17,35.166,83.17z"/>
<path id="Pontevedra" fill="#eeeeee" stroke="#000000" stroke-width="0.25" stroke-miterlimit="10" d="M61.291,119.066
	c-1.688-2.125-4.188,0.5-4.438-4.625s-2.563-0.938-2.938-7.813s-0.938-6.938,1.438-7.563s4.09-5.696,12.313-3.313
	c4.313,1.25,4.25-1.438,7.375-2c3.125-0.562,3.915-3.725,4.063-7.063c0.292-6.612-4.893-2.653-5.453-14.021
	c-0.602,0.333-1.284,0.573-2.047,0.646c-3.25,0.313-2.063,0.625-7.188-0.5s-2.563,2.375-7.063,1.938
	c-4.5-0.437-2.875,3.063-5.563,3.313s-2.5,2.063-7.688,2.25c-5.188,0.187-4.936,2.854-8.936,2.854c-2.997,0-3.818,3.484-4.042,5.232
	c0.168-0.042,0.346-0.042,0.542,0.039c1.375,0.563-1.063,1.375-1.125,2.625s-3.438,3.188-3.25,5.438s1.313,4.063,0.5,5.438
	s-3.188,1.438-1.75-0.375c1.438-1.813-1.375-2.25-1.938-0.625s-4.5,0.063-1.25,2.688s0.5,3.125,3.375,3.938
	c2.875,0.813,4.063-0.25,7.063-1.5s4.375-1.375,1.438,1.5s-3.375,4.938-5.813,4.875c-2.438-0.063-1,2.563-2.125,3.063
	s-1.438,2.25,0.813,2.563c2.251,0.313,3.063-1.625,5.438-1.813c2.375-0.188,3.313-1.438,4.375-3
	c1.062-1.562,2.125-2.375,1.688,1.125s-2,1.188-4.75,3.938s-6.625,4.563-6.75,7.625c-0.125,3.062-3.625,0.688-3.625,6.438
	c0,0-0.479,15.875,2.271,14.292s10.43-9.006,10.583-11c0.25-3.25,7.5-1.334,7.583-3.917s10.917,1,13.667-3.5
	c1.62-2.649,2.776-1.802,3.505-0.215C61.98,125.399,62.496,120.582,61.291,119.066z"/>
<path id="Orense" fill="#eeeeee" stroke="#000000" stroke-width="0.25" stroke-miterlimit="10" d="M129.291,133.316
	c-3.875-1.625-2.813-1-0.813-3.25s2.797-2.463,3.5-5.875c0.438-2.125,2.875,0.938,3.688-2.438s4.563,0.688,5-2.438
	s5.063-5.188,2.188-8.5c-2.875-3.313-5.438-2.938-3.75-6.375c1.688-3.438-4.188-3.375-5.938-5.563
	c-1.75-2.188-2.813,2.063-5.25,0.625c-2.437-1.438-2.938-0.688-5.813,3.313s-3.625,9.188-5.125,9.188s-0.764-2.426-4.938-5.833
	c-2.042-1.667-2.208-0.625-3.583-0.083s-1.458-1.583-4.208-0.125s-6.542,3.5-7.75,1.5s-2.167,0.708-4.25-0.583
	s-15.417-7.292-14.625-9.083c0.676-1.53-0.297-3.297-2.048-4.171c-0.171,0.052-0.349,0.097-0.536,0.13
	c-3.125,0.563-3.063,3.25-7.375,2c-8.222-2.383-9.938,2.688-12.313,3.313s-1.813,0.688-1.438,7.563s2.688,2.688,2.938,7.813
	s2.75,2.5,4.438,4.625c1.205,1.517,0.69,6.333,0.297,8.973c0.508,1.107,0.809,2.574,0.912,3.465c0.25,2.167,0.766-0.572,3.917,0.167
	c1.752,0.412,2.5,4.083,0.917,4.25s-7.571,8.969-5,9.75c3.833,1.162,1.083,5.912,4.833,5.329s6.159-5.161,8.417-5
	c3.5,0.25,4.833-6.833,4.917-1.667s5.75-1,9.167-0.667s1.667,1.583,4.083,1.583s3.333,1.25,2.417,2.417s1.917,2.5,3.167,0.333
	s4.083-1.833,5.75,0.583s2-0.75,4.25-0.333s8.333-2.75,8.583-4.667s-1.333-5.917,3-5.833s1.917,2.333,5.833,2.333
	c1.322,0,2.086-0.771,3.011-0.923C130.792,137.172,131.709,134.33,129.291,133.316z"/>
<path id="Lugo" fill="#eeeeee" stroke="#000000" stroke-width="0.25" stroke-miterlimit="10" d="M125.791,95.086
	c1.708-1.875,0.36-1.417,0.333-3.292c-0.042-2.917,2.666-2.208,1.708-3.833s-1.958-3.042,1.125-5.167s3.375-0.25,5.125-2.417
	s3.79-4.639,2.833-6.583c-1.292-2.625,1.333-1.875,1.167-4.375s-1.833-7.125-4.958-7.208s-3.958-0.208-3.291-2.083
	s2.75-4.916,5.958-5.083s2.432-4.078,1.75-4.917c-2.167-2.667-4.667,2.292-6.292,1.333s0.333-4-3.417-5.708s-0.5-4.458-4-6.5
	s-1.375-5.833-3.167-6.083s-1.833-3.5,0-3.542c1.684-0.038,7.075-4.191,6.947-9.968c-4.028,0.597-9.857,0.716-12.322-1.032
	c-3.438-2.438-5.313-4.188-5.75-5.938s-3.75-2.063-6.375-4.5c-2.625-2.438-4.688-2.375-6.125,0.688
	c-1.437,3.063-2.063,1.875-2,0.188c0.063-1.688-1.374-1.563-1.249-3.313c0.074-1.041-1.569-0.405-2.512-0.295
	c-0.138,5.862-2.476,6.185-2.176,9.42c0.313,3.375-1.75,3.375-2.125,6.313c-0.375,2.938-3,10.188-6.063,10.313
	s-0.688,4.188-3.125,6.688s-0.188,1.063-0.188,3.5c0,2.437-1.5,3.25-1.688,8.375s1.75,10.375,2.188,12.875s-1.5,2.688-1.438,5.563
	c0.021,0.958-1.055,3.08-3.015,4.167c0.56,11.368,5.745,7.409,5.453,14.021c-0.139,3.138-0.846,6.12-3.527,6.933
	c1.751,0.874,2.724,2.642,2.048,4.171c-0.792,1.792,12.542,7.792,14.625,9.083s3.042-1.417,4.25,0.583s5-0.042,7.75-1.5
	s2.833,0.667,4.208,0.125s1.542-1.583,3.583,0.083c4.174,3.407,3.438,5.833,4.938,5.833s2.25-5.188,5.125-9.188
	c1.385-1.927,2.218-3.093,2.982-3.63C124.857,97.982,124.732,96.248,125.791,95.086z"/>
<path id="ComunidadAutónomadelPrincipadodeAsturias" fill="#eeeeee" stroke="#000000" stroke-width="0.25" stroke-miterlimit="10" d="
	M141.666,70.378c1.625,2.292,0.5-0.708,3.458-1.75s10.125,1.333,12.708-0.917s1.292-2.625,1.25-3.917s0.958,0,2.292-1.083
	s0.203-6.444,7.917-1.917c1.917,1.125,1.77-2.574,4.708-1.458c5.375,2.042,4.292-3,6.917-1.958s4.083-1,5.375,1.917
	s10,8.166,10.792,3.583s4.174-5.435,8.833-3.333c6.375,2.875,5.75-2.042,9.083-1.292s2.647-4.27,7.333-1.958
	c1.908,0.941,2.125-1.218,3.5-0.797s3.81-2.078,6.958-0.662c1.667,0.75,1.709-1.042,1.667-2.75s1.176-3.906,3.333-3.667
	c3.75,0.417,4.917-4.75,7.333-3.917s2.369,4.725,6.458,3.583c4.333-1.208,2.542-6.209,5.5-5.917s3.208-3.958,6.125-2
	s3.208,1.917,2.75-1c-0.419-2.672-1.318-5.03,1.385-7.714c-7.053-0.424-16.105-0.962-19.509-2.786c-4.667-2.5-12.5-0.166-14.25-2.75
	s-6.25,1.417-8-2.083s-6.417-1.021-7.854-3.083c-1.437-2.062-6.375,0.188-11.125-0.438s-6.313,0-5.5-1s0.688-1.75-0.563-1.313
	c-1.251,0.438-4,0.313-4.313-2.75c-0.313-3.063-2.563-0.938-2.813-2.438s-1.125-2.063-1.563,0c-0.438,2.063-0.875,0.625-3.125,2.938
	c-2.25,2.313-3.487,2.73-4.5,2.188c-2.063-1.104-4.146,3.146-8.729,1.229s-4.024-1.706-7.917,0
	c-2.592,1.137-5.167,1.667-7.167,0.417s-1.25,0.167-3.917,0.5s-5.583,0.333-6.25-0.583s-1.25-0.166-3.833-0.083
	s-4.5-0.167-7.438,0.083s-5.25-1.75-7.75-0.688c-0.708,0.301-2.025,0.607-3.615,0.844c0.128,5.776-5.264,9.93-6.947,9.968
	c-1.833,0.042-1.792,3.292,0,3.542s-0.333,4.042,3.167,6.083s0.25,4.792,4,6.5s1.792,4.75,3.417,5.708s4.125-4,6.292-1.333
	c0.682,0.839,1.458,4.75-1.75,4.917s-5.292,3.208-5.958,5.083s0.167,2,3.292,2.083c3.085,0.083,4.747,4.588,4.948,7.109
	C139.269,69.094,140.781,69.13,141.666,70.378z"/>
<path id="León" fill="#eeeeee" stroke="#000000" stroke-width="0.25" stroke-miterlimit="10" d="M142.833,120.336
	c0.917,1.75,1.417-0.167,6,1.083s5.416,1.25,7.833,1.75s5.167-2.333,10.75,0.917s6.083,0.75,10.25,1.75s7.117,1.083,11.667,1.083
	c1.991,0,3.474,2.934,6.417,1.167c1.667-1,4.333,2.469,5.75,0.525s2.167-2.108,2.417,1.308s1.791,1.457,2.5,2.417
	c1.417,1.917,2.222-1.232,3.75-1.167c1.917,0.083,3.444,14.688,4.75,6.667c0.583-3.583,2.25-0.833,2.25-4s1-4.25,1.167-8.167
	s-0.381-5.17,2.5-3.667c1.917,1,0.673-2.371,3.417-0.833c1.635,0.917,1.25-1.25,1.333-1.833s0.667-2.167,3.333-2.25s1.667-3.167,5-1
	s3.52,3.657,5.167,1.25c1.083-1.583,3.493,0.974,2.833-4.083c-0.25-1.917-1.833-1.917,0.75-4.083s2.417-8.417,2-11.333
	s0.649-2.833,0.241-7.083c-0.408-4.25,1.592-6.667-1.158-8.75s0.417-1.333,1-3.917s-0.167-3.815,2.5-6.865
	c2.667-3.051,2.916-6.886,5.833-9.719s0.084-4.833-2.583-7c-2.042-1.659-3.196-4.488-1.869-6.661
	c-1.375-0.877-1.896-2.783-3.506-3.339c-2.417-0.833-3.583,4.333-7.333,3.917c-2.157-0.239-3.375,1.958-3.333,3.667
	s0,3.5-1.667,2.75c-3.148-1.417-5.583,1.083-6.958,0.662s-1.592,1.738-3.5,0.797c-4.686-2.312-4,2.708-7.333,1.958
	s-2.708,4.167-9.083,1.292c-4.66-2.102-8.042-1.25-8.833,3.333s-9.5-0.667-10.792-3.583s-2.75-0.875-5.375-1.917
	s-1.542,4-6.917,1.958c-2.938-1.115-2.792,2.583-4.708,1.458c-7.714-4.527-6.583,0.833-7.917,1.917s-2.333-0.208-2.292,1.083
	s1.333,1.667-1.25,3.917s-9.75-0.125-12.708,0.917s-1.833,4.042-3.458,1.75c-0.885-1.248-2.397-1.282-3.593-1.058
	c0.002,0.032,0.008,0.067,0.01,0.099c0.167,2.5-2.458,1.75-1.167,4.375c0.957,1.944-1.083,4.417-2.833,6.583
	s-2.042,0.292-5.125,2.417s-2.083,3.542-1.125,5.167s-1.75,0.917-1.708,3.833c0.027,1.875,1.375,1.417-0.333,3.292
	c-1.058,1.161-0.933,2.896-0.705,4.1c0.823-0.578,1.567-0.428,2.83,0.317c2.438,1.438,3.5-2.813,5.25-0.625
	c1.75,2.188,7.625,2.125,5.938,5.563c-1.687,3.438,0.875,3.063,3.75,6.375c2.728,3.143-1.289,5.162-2.082,8.028
	C141.632,119.16,142.463,119.632,142.833,120.336z"/>
<path id="Zamora" fill="#eeeeee" stroke="#000000" stroke-width="0.25" stroke-miterlimit="10" d="M162.499,191.753
	c4.167-0.417,7.917,2.583,11.25,4.833s3.333-0.75,6.417,0s-0.34,3.068,4.75,3.083c5.833,0.018,2.333-5.166,5.833-4.583
	s6.5,0.416,9.75-0.5s2.72,0.92,6,2.084c2.583,0.917,2.917-0.417,4.667,1.75s-0.083-0.25,3.75,0.25s0.083,2.25,4.25,3.167
	s3.167,0.333,3-1.333s-2.917-2.583-1.25-5s1.25-5.25,0.25-8.083s0.417-3.583,0.5-5.417s-0.9-1.155-0.833-4
	c0.083-3.5,3.333-0.75,4.417-3.833s-1.75-1.416-2-4.833s-3-1.917-2.833-6.083s-2.25-3.583-2.25-6.917s3.583-1.917,4.083-4.417
	s-2.417-0.417-0.917-4s-0.083-4.917,1.917-6.917c1.738-1.737-3.32-4.482-6.152-6.266c-0.317,1.694-1.668-0.055-2.182,3.1
	c-1.306,8.021-2.833-6.583-4.75-6.667c-1.528-0.065-2.333,3.083-3.75,1.167c-0.709-0.959-2.25,1-2.5-2.417s-1-3.25-2.417-1.308
	s-4.083-1.525-5.75-0.525c-2.943,1.767-4.426-1.167-6.417-1.167c-4.549,0-7.5-0.083-11.667-1.083s-4.667,1.5-10.25-1.75
	s-8.333-0.417-10.75-0.917s-3.25-0.5-7.833-1.75s-5.083,0.667-6-1.083c-0.369-0.705-1.2-1.177-2.062-1.492
	c-0.043,0.154-0.083,0.311-0.105,0.472c-0.438,3.125-4.188-0.938-5,2.438s-3.25,0.313-3.688,2.438c-0.703,3.412-1.5,3.625-3.5,5.875
	s-3.063,1.625,0.813,3.25c2.419,1.015,1.501,3.855,0.469,5.848c0.591-0.096,1.246,0.061,2.156,0.839
	c2.333,2,6.417,1.833,6.917-0.417s0.212-3.399,3.917-0.083c1.583,1.417-0.501,1.945,4.333,2.083c5.833,0.167,2.583-2.083,5.333-1.75
	s3.667,2,2,3.75s-1.583,2.667,0.5,2.667s1.167,3.5-0.583,7.5s0.417,8.667,2.917,8.417s0.833-2,6-0.833s13.75,5.666,10.167,9.583
	s-4.917,7.834-5.5,10.417s-2.083,3.083-3,2.917s-3.167,3.917-5.583,4.917c-0.913,0.379-1.266,1.064-1.475,1.761
	C159.006,191.483,160.583,191.944,162.499,191.753z"/>
<path id="Salamanca" fill="#eeeeee" stroke="#000000" stroke-width="0.25" stroke-miterlimit="10" d="M140.799,267.132
	c3.366,0,1.545-1.796,3.741-1.691c1.313,0.063-0.688,1.696,1.313,1.691c2.001-0.004-0.375-1.91,2.938-1.879
	c6.563,0.063,2.739-6.496,6.563-6.625c5.563-0.188,2.875-2.813,6.5-2.688s2.063-4.125,4.75-4s2.375-2.875,5-2.625
	s8.21,5.063,8.25,7.563c0.063,3.938,3.688,1.5,3.625,4.125s5.563,4.313,5.938,1.688s5.813-4.688,6.75-2.375
	c0.937,2.313-0.833,3.354,1,3.521s0.417-4.167,3-5.083s0.25-2.333,0.583-4s3.083-4.5,6.083-4.167s2.5,4.833,3.667,1.5
	s8.354-8.46,2.083-8.5c-4.833-0.03,5.014-2.383,5.333-6c0.5-5.667,9.333-5.917,9.833-12.583s3.167-2.833,3.417-7.417
	s1.583-1.833,1.667-5.583s-3.166-2.218-2.583-5.5c0.278-1.563,1.813-0.189,1.417-3.5c-0.182-1.514-1.5-2.25-4.333-2.833
	c-2.659-0.547-2.603-4.25-6.375-1.74c0.492,0.681,1.131,1.296,1.208,2.073c0.167,1.667,1.167,2.25-3,1.333s-0.417-2.667-4.25-3.167
	s-2,1.917-3.75-0.25s-2.083-0.833-4.667-1.75c-3.28-1.164-2.75-3-6-2.084s-6.25,1.083-9.75,0.5s0,4.601-5.833,4.583
	c-5.09-0.015-1.667-2.333-4.75-3.083s-3.083,2.25-6.417,0s-7.083-5.25-11.25-4.833c-1.917,0.191-3.493-0.27-4.642-0.823
	c-0.343,1.145-0.292,2.313-1.692,2.156c-2.25-0.25-7.5,0-8.917,2.083s0.083,2.583-2.583,4.917s-0.833,4.167-2.75,6.75
	s-3.833,2.667-6.417,2.75s-3,0.083-1.083,2.75s3.25,2.667,3.083,4.5s3.333,4.083,3.5,5.583s-1.167,2.5-1.417,5.75
	s1.417,4,1.25,7.667s-2.167,3.5-2.25,6.167s2.333,1.417,2.167,4.417s-2.75,4.5-2.833,6.583s3.667,3.25,3.667,5.25
	s-3.083,2.5-4.333,5.083c-0.504,1.042-1.009,1.566-1.59,1.973C136.374,266.277,137.825,267.132,140.799,267.132z"/>
<path id="Cantabria" fill="#eeeeee" stroke="#000000" stroke-width="0.25" stroke-miterlimit="10" d="M263.499,60.253
	c5-1.333,5.167-3.848,8.667-0.341s3.583,5.155,6.667,5.091c4-0.083,3.917,10.667,5.917,8.583s3.667-0.5,2.417,1.25
	s-1.499,3.191,0.432,3.25c2.735,0.083,1.901,2.083,3.568,1.917s3.75-6.333,4-3.167s2.5,4.167,4.333,2.167s5.417-0.167,5.5-3.167
	s-1.084-5.333-2.417-3.583s-3.5-0.167-1.917-1.75s3.75-1.833,3.083-3.833s-4.333,3.25-6.25,1.75s-1.917-5.313,2.75-8.333
	c4.25-2.75,1.667-4.333,6.583-4.167s5.667-8.75,9.917-6s11.084,4.583,10.334-0.167s-1.833-5.833,2.417-7.833s1-3.083,6.25-2.75
	c4.856,0.31,6.144-0.247,6.047-4.551c-0.999-0.164-1.895-0.542-2.567-1.24c-3.25-3.375-15.486-1.378-14.875-4.063
	c0.242-1.069,2.25-0.75,2.625-1.813c0.375-1.063-3.125-0.125-5.438-3.063c-2.313-2.938-7.312-0.124-10.375,1.563
	c-3.063,1.688-5.033,5.799-6.313,3.125c-0.688-1.438,0.563-2.125,1.75-2.188c1.188-0.063,0.875-2.313-1.188-2.25
	c-2.063,0.063-0.375,0.688-2.688,1.25c-2.313,0.562-5.02-0.504-5.875,2.188c-0.438,1.375-3.125-0.188-6.75,1.563
	s-9.938,2.938-16.125,2.25c-1.676-0.187-4.02-0.328-6.637-0.485c-2.703,2.685-1.804,5.042-1.385,7.714
	c0.458,2.917,0.167,2.958-2.75,1s-3.167,2.292-6.125,2s-1.167,4.708-5.5,5.917c-1.364,0.38-2.263,0.195-2.952-0.244
	c-1.327,2.172-0.174,5.001,1.869,6.661c2.09,1.698,4.269,3.295,3.716,5.271C256.426,60.385,260.209,61.13,263.499,60.253z"/>
<path id="Palencia" fill="#eeeeee" stroke="#000000" stroke-width="0.25" stroke-miterlimit="10" d="M238.541,123.753
	c-1,2.125-0.5,3.5,1.75,3.25s2.5,4.625,2,8s-5.875,8.75-0.375,8.75c7.25,0,5.875,7.125,9.375,6.75s2.125-4.375,5-4.375
	s3.75,5.25,6.875,5.25s3.25-2.127,3.25,2c0,2.25,0.25,2.125,2.625,2.125s1.563-1.188,2.813-1.125
	c1.25,0.063,1.375,1.625,3.125,1.563c1.75-0.063,3.625-4.313,9.313-2.438s6.813,2.313,6.75,0.625
	c-0.063-1.688-5.683-6.006,0.002-6.542c3.54-0.333,8.706-6.437,8.706-7.345c0.001-2.488-3.5,0.846-5.833,0.929
	S292,141.563,292,140.241s2.913-2.939,2-5.394c-0.5-1.346-6.158,2.435-5.5-1.512c0.417-2.5,2.417-0.083,1.667-2.5
	s-6.333,0.083-7.167-5.167s-2.833-6.75-3.75-12.25s-4-3.083-4-6.167s5.417-2.583,5.083-5.333s-3.083-2.583-2.167-6.667
	s1.27-4.081,1.167-7.5c-0.083-2.75,1.043-0.896,2.75-2.75c2.633-2.857,7.493-2.4,8.539-5.041c-0.962-0.292-0.652-1.803-3.024-1.875
	c-1.93-0.059-1.682-1.5-0.432-3.25s-0.417-3.333-2.417-1.25s-1.917-8.667-5.917-8.583c-3.083,0.064-3.167-1.583-6.667-5.091
	s-3.667-0.993-8.667,0.341c-3.289,0.877-7.073,0.132-9.284-0.479c-0.152,0.545-0.501,1.117-1.133,1.729
	c-2.917,2.833-3.167,6.667-5.833,9.718c-2.666,3.05-1.917,4.282-2.5,6.865s-3.75,1.833-1,3.917s0.75,4.5,1.158,8.75
	c0.408,4.25-0.658,4.167-0.241,7.083s0.583,9.167-2,11.333s-1,2.167-0.75,4.083c0.66,5.057-1.75,2.5-2.833,4.083
	c-0.248,0.361-0.459,0.625-0.657,0.822C238.794,120.33,239.036,122.7,238.541,123.753z"/>
<g id="IslasBaleares">
	<path fill="#eeeeee" stroke="#000000" stroke-width="0.25" stroke-miterlimit="10" d="M727.666,281.628c0,0,3.736-1.125,13.375-1.125
		c1.438,0,2.75-2.375,2.75-0.313c0,2.062,1.438-0.875,1.375,1.438c-0.064,2.313,0.938,0.938,0.875-0.438
		c-0.064-1.376,1.313-2.227,1.375-0.082c0.061,2.144,0.688,1.019,2.313,2.582c1.625,1.563,2.375-0.125,3,1.875s0.625,1.313,1,3.563
		s1.438,1.625,1.938,3.688c0.5,2.063-0.375,4.625-2.125,4.688s-9.027-3.419-12.125-6.813c-1.396-1.531-5.313-1.75-7.313-1.313
		c-2,0.438-5.25,1-5.188-1.438c0.061-2.438,0.5-2.938-0.75-3.375C726.916,284.128,726.877,281.815,727.666,281.628z"/>
	<path fill="#eeeeee" stroke="#000000" stroke-width="0.25" stroke-miterlimit="10" d="M648.582,312.42c0,0,3.918-2.5,6.168-4.668
		c2.25-2.166,4.666-1,7.666-5.416c3-4.418,13.916-10.083,19.334-11.333c5.416-1.25,9.166-2.5,12.082-2.917
		c2.918-0.417-1.998,1.583-4.666,2.833c-2.666,1.25-2,4.167,1.416,3c3.418-1.167,4.334,0.25,2.334,1.749
		c-2,1.5-5.916,1.334-0.75,5.75c5.166,4.418,6.584,2.834,8.084,0.584s7.082-0.168,8.082,2.082s0.166,5.168-1.25,6.168
		s-2.582,1.5-2.332,4.25s-5.418,4.75-5.75,9.5c-0.334,4.75-5.832,6.582-8.416,9.5c-2.584,2.916-4.988,5.029-6.168,2.082
		c-1.832-4.582-3.748-4.75-9.082-4.666c-5.334,0.082-5.834-1.668-6.5-5.084c-0.668-3.416,0.832-3.916-1.168-7.082
		s-2.68-2.33-6.332-1.418c-5.334,1.334-4.002,8.084-5.834,5.5c-1.834-2.582-0.834-4.082-3.834-4.75
		c-3-0.666-2.584,1.166-3.084-1.166C648.084,314.584,644.916,314.086,648.582,312.42z"/>
	<path fill="#eeeeee" stroke="#000000" stroke-width="0.25" stroke-miterlimit="10" d="M588.291,355.752c0,0,2-3.5,7.25-5.125
		s4.658-2.883,8.5-0.875c2.75,1.439-0.375,0.305,0,2.402s2.59,0.029,1.143,2.973c-0.768,1.564-3.768,1.875-3.832,3.25
		c-0.063,1.375-1.563,3.189-4,4.25c-2.436,1.063-2.688,2.25-2.688,3.5s-1.375,2.314-1.563,0.625
		c-0.188-1.688-2.188-1.625-4.813-1.313s-2.064,1.125-3-0.688c-0.938-1.813-1.439-1.375-0.625-3.188
		c0.813-1.814-1.5-3.314,2.188-2.939S588.541,357.377,588.291,355.752z"/>
</g>
<g id="ProvinciadeLasPalmas">
	<path fill="#eeeeee" stroke="#000000" stroke-width="0.25" stroke-miterlimit="10" d="M702.416,466.002c0,0,0.166-4.334,7.75-7.166
		c7.582-2.832,8.75-2.916,10-5.584c1.25-2.666,4.75-4.334,5.25-0.916s-3.334,3.451-2.168,5.873c0.584,1.209,0.084,2.125-0.75,4.209
		c-0.832,2.084-5.871,5.084-8.561,6.334s-5.939,1.5-7.105,3.334c-1.166,1.832-2.416,3.084-3.334,1.916
		c-0.916-1.166-3.084-0.082-3.166-1.5C700.248,471.086,702.666,470.42,702.416,466.002z"/>
	<path fill="#eeeeee" stroke="#000000" stroke-width="0.25" stroke-miterlimit="10" d="M691.998,485.836
		c0.08-0.252,0.414-5.742,6.834-5.75c3.084-0.004,3.668,4.002,3.584,10.166c-0.084,6.166-1.502,7.168-1.334,10
		c0.166,2.834-0.457,2.832-1.563,6.166c-1.105,3.336-0.604,4.75-2.854,6.918c-2.25,2.166-14.217,1.449-19.084,8.082
		c-0.916,1.25-2.24,6.873-7.666,3.75c-2.75-1.582-4.918-0.998-4.918-2.666c0-1.666,5.418,0.082,9.584-2.834
		c4.166-2.914,6.584-5.498,7.084-10.166c0.5-4.666,2.498-7.834,4.666-10.584C688.498,496.168,691.408,487.715,691.998,485.836z"/>
	<path fill="#eeeeee" stroke="#000000" stroke-width="0.25" stroke-miterlimit="10" d="M597.416,520.441c0,0,0.188-2.5,3.5-1.875
		c3.311,0.625,1.313,1.088,5.438,0.887c4.125-0.199,4.375,1.113,5.438-0.324s2.063,0.5,2.25,3.438s2.75,4.563,2.813,7.25
		c0.064,2.688-1.297,3.188-1.375,6.063c-0.125,4.625-3.625,3.5-5.625,5.814c-2,2.313-5.875,4.75-9.125,2.5s-5.875-2.5-7.813-5.939
		c-1.938-3.438-2.238-2.76-2.063-6.479C591.166,525.191,597.666,525.941,597.416,520.441z"/>
</g>
<g id="SantaCruzdeTenerife">
	<path fill="#eeeeee" stroke="#000000" stroke-width="0.25" stroke-miterlimit="10" d="M543.498,503.92c0,0,6.834,0.582,11.75-4.25
		c4.918-4.834,5.406-6.865,12.5-7c3.949-0.074,3.918-1.25,5.25-1.25c1.334,0,1,1.416,0.5,2.916s-6.016,5.395-8.5,7
		c-4.25,2.75-2.832,4.334-5.332,9.75c-2.5,5.418-0.834,8.5-4.084,11s-12.666,9.668-14.582,4.668s-7-8-6.834-12.584
		c0.168-4.584-2.832-2.75-3.5-5.666c-0.666-2.918,0.5-3.918,3.418-4.25C537,503.92,540.998,503.998,543.498,503.92z"/>
	<path fill="#eeeeee" stroke="#000000" stroke-width="0.25" stroke-miterlimit="10" d="M505.332,519.836
		c-0.045-0.35-0.332-4.582,5.084-4.25c5.416,0.334,7.916,1.75,8.75,4.25c0.832,2.5-1.5,5-3.75,6S506.498,528.92,505.332,519.836z"/>
	<path fill="#eeeeee" stroke="#000000" stroke-width="0.25" stroke-miterlimit="10" d="M460.582,545.17c0,0-0.217,1.938,2.668,2.332
		c4.25,0.584,4.25,4.418,6.5,4.25c2.25-0.166,0.5-3.25,2.582-5.666c2.084-2.416,4.168-5.168,3.5-6.5c-0.666-1.334-4-2.25-6.582,1.5
		c-2.584,3.75-5.418,4.75-6,2.916C462.666,542.17,460.916,542.67,460.582,545.17z"/>
	<path fill="#eeeeee" stroke="#000000" stroke-width="0.25" stroke-miterlimit="10" d="M469.082,480.92c0,0,1.584-6.25,5.084-6.168
		c3.5,0.084,2.721,1.367,5.582,0c1.918-0.916,3.168,3.334,3.75,4.834c0.584,1.5-1.416,3.766-1.082,5.416
		c1.193,5.918-1.25,7.836-2.75,11.168s-2.918,6.084-3.75,0c-0.834-6.084-1.25-5.418-3.25-7.918S468.686,482.154,469.082,480.92z"/>
</g>
<path id="Valladolid" fill="#eeeeee" stroke="#000000" stroke-width="0.25" stroke-miterlimit="10" d="M238.049,200.336
	c2.95-3.167,5.741,6.167,9.366,3.542s6.5-1.25,7-3s4.25,0.25,4-2.125s-1.25-2.875,1-4.75s1.5-5,4.5-4.875s2.351,2.41,3.5,1.438
	c1.625-1.375-1.688-2.938-1.563-6.125c0.125-3.188,4.688-4.563,9.188-5.438s15.908-1.387,18.25-5.875
	c2.818-5.401-3.19-11.87-3.201-17.954c-0.929-0.047-2.672-0.64-5.799-1.671c-5.688-1.875-7.563,2.375-9.313,2.438
	c-1.75,0.063-1.875-1.5-3.125-1.563c-1.25-0.063-0.437,1.125-2.812,1.125s-2.625,0.125-2.625-2.125c0-4.127-0.125-2-3.25-2
	s-4-5.25-6.875-5.25s-1.5,4-5,4.375s-2.125-6.75-9.375-6.75c-5.5,0-0.125-5.375,0.375-8.75s0.25-8.25-2-8s-2.75-1.125-1.75-3.25
	c0.495-1.053,0.254-3.423-0.115-5.595c-1.115,1.113-1.677-0.23-4.51-2.072c-3.333-2.167-2.333,0.917-5,1s-3.25,1.667-3.333,2.25
	s0.302,2.75-1.333,1.833c-2.743-1.538-1.5,1.833-3.417,0.833c-2.881-1.503-2.333-0.25-2.5,3.667s-1.167,5-1.167,8.167
	c0,0.379-0.025,0.669-0.068,0.9c2.832,1.783,7.89,4.528,6.152,6.266c-2,2-0.417,3.333-1.917,6.917s1.417,1.5,0.917,4
	s-4.084,1.084-4.084,4.417s2.417,2.75,2.25,6.917s2.583,2.667,2.833,6.083s3.083,1.75,2,4.833s-4.333,0.333-4.417,3.833
	c-0.067,2.845,0.917,2.167,0.833,4s-1.5,2.583-0.5,5.417s1.417,5.667-0.25,8.083c-0.889,1.288-0.52,2.149,0.042,2.927
	c3.772-2.51,3.716,1.192,6.375,1.74c2.095,0.432,3.358,0.949,3.949,1.8C233.889,202.085,236.683,201.804,238.049,200.336z"/>
<path id="Segovia" fill="#eeeeee" stroke="#000000" stroke-width="0.25" stroke-miterlimit="10" d="M260.541,215.003
	c4.375,7.375,3.719,9.7,4.5,9.75c2.631,0.169,1.25,2.625,4.125,6.25s0,7.375,3.625,7.25s6.158-5.673,12.75-2.75
	c2.062,0.914,1.375-6.25,5.375-7.5s5.125,1,6.25-3.375s0.625-11.125,5.75-11.625s12-13.625,16.25-13.75s8.205-3.195,9-4.875
	c1.125-2.375,6.125-0.5,6.875-3.375s-6.02-3.879-5.375-7.25c0.875-4.577-4-6-4.5-7.875s-6.162-2.271-6.5-4.875
	c-0.125-0.961-8.625,0.625-9.5,3.75s-0.75,7.125-4.25,2.813c-3.033-3.737-7.754-7.188-10.892-7.921
	c0.042,1.197-0.149,2.363-0.733,3.482c-2.342,4.488-13.75,5-18.25,5.875s-9.063,2.25-9.188,5.438
	c-0.125,3.188,3.188,4.75,1.563,6.125c-1.149,0.972-0.5-1.313-3.5-1.438s-2.25,3-4.5,4.875s-1.25,2.375-1,4.75s-3.5,0.375-4,2.125
	c-0.2,0.699-0.782,0.898-1.635,1.055c0.866,1.095,1.649,2.619,1.76,4.57C254.791,210.878,256.166,207.628,260.541,215.003z"/>
<path id="ProvinciadeÁvila" fill="#eeeeee" stroke="#000000" stroke-width="0.25" stroke-miterlimit="10" d="M204.041,267.132
	c1.625,5.754,9.25,2.371,11.375,0s6-2.004,4.875,0.996s0.125,3.375,0.75,6.375s6.375,3.875,9.25,3.625s6.875-4.25,9.375-4.375
	s6.25-0.375,8.75-3.938c2.5-3.563,1.625-3.188,5.5-4.438s2.75,5.125,7.25,4.375c2.575-0.429,4.25-2.625,4.125-6.375
	s0.125-4.5,1.75-2.375s2.625,1,4-3.625s6.625,0,6.375-5.75c-0.364-8.371,2.125-5,1.875-9.875s1.875,0,5.75-1.75
	c1.583-0.715,1.529-2.719,1.11-4.494c-0.177,0.088-0.373,0.1-0.61-0.006c-6.592-2.923-9.125,2.625-12.75,2.75
	s-0.75-3.625-3.625-7.25s-1.494-6.081-4.125-6.25c-0.781-0.05-0.125-2.375-4.5-9.75s-5.75-4.125-6-8.5
	c-0.111-1.951-0.895-3.476-1.76-4.57c-1.284,0.234-3.188,0.368-5.365,1.945c-3.625,2.625-6.417-6.708-9.366-3.542
	c-1.367,1.467-4.161,1.749-6.768,1.633c0.208,0.301,0.337,0.64,0.384,1.033c0.397,3.311-1.139,1.937-1.417,3.5
	c-0.583,3.282,2.667,1.75,2.583,5.5s-1.417,1-1.667,5.583s-2.917,0.75-3.417,7.417s-9.333,6.917-9.833,12.583
	c-0.319,3.617-10.167,5.97-5.333,6c6.27,0.04-0.917,5.167-2.083,8.5s-0.667-1.167-3.667-1.5s-5.75,2.5-6.083,4.167s2,3.083-0.583,4
	c-1.894,0.672-1.641,3.175-2.092,4.4C200.877,263.032,202.541,261.82,204.041,267.132z"/>
<path id="Cáceres" fill="#eeeeee" stroke="#000000" stroke-width="0.25" stroke-miterlimit="10" d="M120.916,331.627
	c0-3.125,3.75-4.375,4.5,0s3.875-2.625,2.375-3.875c-3.824-3.186,0.25-3.5,2.25-0.875s10.5,0,11.255,4.125
	c0.503,2.75,2.495,2.625,0.745,6.5s-0.25,3.375,2.75,5.625s3.75-1.875,7.75,1.125c2.052,1.539,4-1,8.75-0.125
	c3.477,0.643,5.625-2,5.75,1.25s3,2.625,5.5,5.777s5.875,2.473,7.75-0.902s3.25-3.625,3.125-0.25
	c-0.069,1.875,1.625,1.125,5.375,0.125s5-0.625,5.625-2.75s3.375-0.625,4.875,1.5s3.125,2.5,4.5,0.625s2-1.625,3-3.25
	s-2.5-1.625,0-4.25s5.125,3.125,8.5,3s3.875-5.625,4-8.75s2.125-5.75,3-3.5s3.125,1.125,5.625,0.875s4.25,0.408,4.25-2.75
	c0-5.125,5,0.25,6.625-1.375s3.5-0.875,0-5.25s-5.5-3.5-6.974-6.75s-4.401-2.5-1.651-5.625s1.375-6.5,0.75-8.625s0.93-1.25,0-2.75
	c-2.016-3.252-3.375,1.385-6.982,1.375c-2.37-0.006-1.518-4.625-0.518-6.375c1-1.749,0.845-2.999-3.125-3.124
	c-5.394-0.17-1.25-2.875-1.375-9.785c-0.075-4.136,1.549-5.941,2.868-6.731c-0.369-0.396-0.635-0.843-0.743-1.357
	c-0.625-3-1.875-3.375-0.75-6.375s-2.75-3.365-4.875-0.996c-2.125,2.37-9.75,5.755-11.375,0c-1.5-5.313-3.163-4.101-5.967-3.979
	c-0.164,0.446-0.419,0.728-0.908,0.683c-1.833-0.167-0.063-1.208-1-3.521c-0.937-2.313-6.375-0.25-6.75,2.375s-6,0.938-5.938-1.688
	s-3.563-0.188-3.625-4.125c-0.04-2.5-5.625-7.313-8.25-7.563s-2.313,2.75-5,2.625s-1.125,4.125-4.75,4s-0.938,2.5-6.5,2.688
	c-3.823,0.129,0,6.688-6.563,6.625c-3.313-0.031-0.938,1.875-2.938,1.879c-2,0.005,0-1.629-1.313-1.691
	c-2.196-0.104-0.375,1.691-3.741,1.691c-2.975,0-4.426-0.854-5.141-1.823c-0.859,0.6-1.885,0.936-3.327,2.277
	c-2.417,2.25-3.417,1.661-3.417,4c0,4.167,8.75,8.75,8.5,11.5s-0.833,8.083-2.083,11c-1.25,2.916-4,1.666-4.5,6.582
	c-0.5,4.918-0.354,9.902-13.583,9c-3.667-0.25-5.167,2.5-10,1.334c-4.833-1.168-8-1.5-5.25,1.916c2.75,3.418,6.583,3.668,7,6.084
	s4.917,2.082,4.5,6.75c-0.417,4.666-1.5,6.582,2.083,8c1.22,0.482,1.552,1.623,1.619,2.926
	C121.101,336.494,120.916,334.345,120.916,331.627z"/>
<path id="ProvinciadeBadajoz" fill="#eeeeee" stroke="#000000" stroke-width="0.25" stroke-miterlimit="10" d="M140.749,415.502
	c-3.161,4.041,0.75,5.75,6.333,5.168c5.583-0.584,2.167,3.75,7.583,4.916s9.167-4.916,9.5-0.5s10.833,6.084,13.333,4.166
	c2.5-1.916,8.75,0,10.832-4.582c1.59-3.5,0.084-2.834,0.001-4.334s3.167-5.5,10.083-6.416c6.916-0.918,1.333,2.75,1.25,6
	c-0.062,2.416,1.583,2.832,2.833-0.5c1.25-3.334,5,0.416,7.083-4.584s-2.083-13.084-1.75-16.166c0.333-3.084,7.333-5.5,10.083-9.418
	c2.75-3.916,5.167-5.166,9-7.332s3-5.584,6.833-5.334s7.917-2.582,8.667-8.332s6.417-2.584,6.15-5.75
	c-0.267-3.168-5.316-4.25-6.316-8.25s4.417,1.082,5.833-1.064c1.416-2.148-2.583-3.186-0.25-6.52c1.472-2.104,0.833-5.75,6.667-3.75
	s5.583,1.584,2.417-1.666s-3.417-7.584-1.5-8.5c1.917-0.918,3.833-6,2.083-6.918c-1.75-0.916-6.583,1.689-8.417,2.75
	c-3.002,1.74-6.146,0.506-8.315-0.896c-0.078,0.738-1.066,0.902-1.977,1.814c-1.622,1.623-6.622-3.752-6.622,1.373
	c0,3.158-1.75,2.5-4.25,2.75s-4.75,1.375-5.625-0.875s-2.875,0.375-3,3.5s-0.625,8.625-4,8.75s-6-5.625-8.5-3s1,2.625,0,4.25
	s-1.625,1.375-3,3.25s-3,1.5-4.5-0.625s-4.25-3.625-4.875-1.5s-1.875,1.75-5.625,2.75s-5.444,1.75-5.375-0.125
	c0.125-3.375-1.25-3.125-3.125,0.25s-5.25,4.057-7.75,0.902c-2.5-3.152-5.375-2.527-5.5-5.777s-2.273-0.607-5.75-1.25
	c-4.75-0.875-6.698,1.664-8.75,0.125c-4-3-4.75,1.125-7.75-1.125s-4.5-1.75-2.75-5.625s-0.242-3.75-0.745-6.5
	c-0.755-4.125-9.255-1.5-11.255-4.125s-6.074-2.311-2.25,0.875c1.5,1.25-1.625,8.25-2.375,3.875s-4.5-3.125-4.5,0
	c0,2.719,0.185,4.867-3.714,5.051c0.131,2.525-0.746,5.674,1.798,5.908c5.417,0.5,2.083,5.916,3.917,5.25
	c1.834-0.668,8.955-1.16,9.333,5.666c0.167,3-3.75,7.25-3.917,10.25s-7.833,9.418-10.917,12.334s-0.916,3.832-0.833,6.25
	c0.083,2.416-4,5.75-3.5,10.832c0.5,5.084,7.75,11.25,9.333,16.334c1.583,5.082,3.583,4.918,5.75,3.252
	c2.045-1.574,5.497-2.92,4.755,0.861C135.97,413.445,142.028,413.867,140.749,415.502z"/>
<path id="ProvinciadeHuelva" fill="#eeeeee" stroke="#000000" stroke-width="0.25" stroke-miterlimit="10" d="M161.666,503.627
	c-0.875-4.5,0.625-2.375,0.75-6s-2.425-4.111,0.75-8.875c1.75-2.625-0.5-7.75,0-10.5s-0.75-2.75-1.125-4.5s1.875-4.5,2.625-5.5
	s-2.25-6.5-2.813-10.875s-8.438-3-7.938-5s4.819-9.639,13.75-8.5c2.94,0.375,3.875,2.25,4.5-1.125s3.875,0.5,4.25-2.375
	s-1-2-0.75-4.75c0.222-2.438-2.205-2.621-2.061-5.596c-3.969-0.104-9.206-1.848-9.439-4.945c-0.333-4.416-4.083,1.666-9.5,0.5
	s-2-5.498-7.583-4.916c-5.583,0.584-9.494-1.127-6.333-5.166c1.28-1.637-4.779-2.059-7.828-1.889
	c-0.044,0.225-0.097,0.461-0.172,0.723c-1.333,4.666-1.583,12.582-5.583,12.582s-5.122-3.486-4.75,0.418
	c0.167,1.75-6.5-1.584-7.083,4.082c-0.583,5.668-2.083,6-4.5,9s-5.333,4.834-5.667,7.668s-3.583,8.168-3.75,9.834
	s2.75,3.998,3.25,9.998s1.333,17.918,4.083,17.084s4.149-1.439,4.917-1.625c0,0,19.995-6.209,46.167,19.957
	c1.902,1.9,0.899,2.908,1.252,4.531C161.647,506.855,162.022,505.463,161.666,503.627z"/>
<path id="ProvinciadeCádiz" fill="#eeeeee" stroke="#000000" stroke-width="0.25" stroke-miterlimit="10" d="M212.291,530.127
	c-5.75-0.125,2.25-5.25,6.125-8s3-9.625,1.75-10.25s2-8.125,4.875-4.125c3.886,5.406,7.75,0.75,8-4.85
	c0.25-5.602-1.625-5.775-5.125-2.525s-5.375-7.125-11.125-0.793c-2.75,3.027-4-3.082-6.75,1.293c-2.979,4.74-2.625,1.875-5.5,0
	s-2.875-1.75-5,0.625s-9.75,0-11.75,5.625c-0.964,2.713-11.875,0.25-16.75-2.25c-3.808-1.951-7.833-1.693-9.417-1.486
	c0.015,0.082,0.026,0.15,0.042,0.236c0.357,1.836-0.018,3.229-0.582,4.24c0.08,0.369,0.229,0.77,0.499,1.219
	c1.75,2.916,3.528,0.393,4.167,1.166c1.167,1.416-6.417,4-5.583,6.334c0.834,2.332,2.667,6.666,5,6.5
	c2.333-0.168,3.75,0.416,3.833,2c0.083,1.582,2.667-0.084,2.75,2.332c0.083,2.418-1.827,2.393-1.083,3.209
	c1.25,1.375,3.063-1.063,4.188-0.375c1.125,0.689-3.5,4.375-3.938,3.5s-1.688-3.438-2.063-4.25c-0.375-0.811-1.688-0.688-1,0.75
	c0.688,1.439,3.875,5.564,4.25,8.064s1.977,1.813,2.926,4.5c0.949,2.686,0.887,2.5,2.824,3c0,0,2.063,1.281,2.75,4.781
	s3.063,3.529,5.406,3.219c2.343-0.313,5.057-0.951,7.594,4.344c0.719,1.5,1.142,2.834,3.104,1.969c1.042-0.459,0.75,1.584,3.333,1.5
	s4.029,0.52,5.292,2.834c1,1.832,1.917,0.416,3.625-0.418c1.708-0.832,7.459-1.916,6.875-4.166s0.958-2.041-0.167-3.375
	c-1.125-1.332,1.584-3.832,3.417-2.375c1.833,1.459-0.369,3.926,1.625,4.084c1.057,0.084,0.5-3.418,0.75-5.625
	c0.25-2.209,1.333-4.396,2.833-5.584c0.727-0.574,1.245-1.008,1.632-1.607C216.511,543.494,217.628,530.244,212.291,530.127z"/>
<path id="Sevilla" fill="#eeeeee" stroke="#000000" stroke-width="0.25" stroke-miterlimit="10" d="M238.333,494.17
	c7.5-2.834,4-5.334,4-7.5s2.919,1.412,4.167,0c2.5-2.834,3.917,1.213,6.167-0.727c2.25-1.941,0.833-5.105,3.25-5.439
	s1.949-8.971-1.167-7.666c-4.583,1.916-7.167-2.252-11.25-10.418s-1.61-17.926-8.5-13.332c-5.25,3.5-6.5,0.666-10.167,4
	c-3.667,3.332-5.917,3.582-6.75,1c-0.833-2.584-2.116-3.113,1.667-5.418c1.25-0.762,3.833-0.082,1-6.582s-3.667-3.086-4.417-8.5
	c-0.75-5.416-3.833-2.75-4-7c-0.147-3.754-4.77-5.494-6.082-8.889c-1.547,0.213-3.046-0.158-3.751,1.721
	c-1.25,3.334-2.896,2.916-2.833,0.5c0.083-3.25,5.667-6.916-1.25-6c-6.917,0.918-10.166,4.916-10.083,6.416s1.588,0.834-0.001,4.334
	c-2.082,4.584-8.332,2.666-10.832,4.584c-0.746,0.57-2.206,0.82-3.894,0.777c-0.145,2.975,2.282,3.158,2.061,5.598
	c-0.25,2.75,1.125,1.875,0.75,4.75s-3.625-1-4.25,2.375s-1.56,1.5-4.5,1.125c-8.931-1.141-13.25,6.5-13.75,8.5s7.375,0.625,7.938,5
	s3.563,9.875,2.813,10.875s-3,3.75-2.625,5.5s1.625,1.75,1.125,4.5s1.75,7.875,0,10.5c-3.175,4.762-0.625,5.25-0.75,8.875
	c-0.123,3.555-1.562,1.596-0.792,5.762c1.585-0.207,5.61-0.465,9.417,1.488c4.875,2.5,15.786,4.961,16.75,2.25
	c2-5.625,9.625-3.25,11.75-5.625s2.125-2.5,5-0.625s2.521,4.738,5.5,0c2.75-4.375,4,1.732,6.75-1.295
	c5.75-6.33,7.625,4.045,11.125,0.795c1.681-1.563,2.983-2.322,3.859-2.08C232.776,497.082,234.683,495.549,238.333,494.17z"/>
<path id="Málaga" fill="#eeeeee" stroke="#000000" stroke-width="0.25" stroke-miterlimit="10" d="M307.916,511.877
	c-1-3-4.125-3.875-9.625-5.375s-10.75-4.375-15-7.625s-3.375-2.375-4.75-9.5s-4-3.875-4.5-8.5s-2.375-2.625-6.375,0.324
	c-4,2.947-4.625,3.676-6,0.926c-0.736-1.471-3.151-1.828-5.241-1.848c-0.153,0.117-0.321,0.197-0.509,0.225
	c-2.417,0.334-1,3.5-3.25,5.439s-3.667-2.105-6.167,0.727c-1.248,1.412-4.167-2.166-4.167,0s3.5,4.666-4,7.5
	c-3.65,1.379-5.555,2.912-6.558,4.129c0.947,0.26,1.396,1.693,1.266,4.604c-0.25,5.6-4.114,10.256-8,4.85
	c-2.875-4-6.125,3.5-4.875,4.125s2.125,7.5-1.75,10.25s-11.875,7.875-6.125,8c5.338,0.117,4.22,13.367,13.632,15.268
	c0.412-0.641,0.675-1.473,0.868-2.893c0.375-2.75,3.688-5.25,10.125-7.75c2.869-1.113,3.394,0.453,7.125-3
	c1.252-1.158,1.563-1.688,7.125,0.439c5.562,2.125,8.62-1.068,9-2.064c1.938-5.063,5.313-2.938,6.125-5.25
	c0.812-2.311,2.75-2,3.875-5.5s3.813-3.563,6.688-2.625c2.875,0.939,12.625-0.25,13.188-1.125c0.563-0.875,3.869-1.047,7,0.375
	c2.063,0.939,3.813-2.313,7.5-1.75c1.479,0.227,2.581,0.713,3.619,1.111C308.349,514.306,308.368,513.232,307.916,511.877z"/>
<path id="ProvinciadeCórdoba" fill="#eeeeee" stroke="#000000" stroke-width="0.25" stroke-miterlimit="10" d="M280.667,479.67
	c0.166-6.668,0.484-6.111,2.499-6.168c4.5-0.125,4.75-3.125,9.125-3.75s1.75-0.5,0-3.25s-6.75-6.875-7.25-10.25
	s-2.75-1.25-2.5-2.875s3.375-2.625,0.5-5s-1.875-1.125-0.75-3.5s-4.125-1.125-3.75-4.375s-0.838-8.945,0.125-13.625
	c0.438-2.125,0.25,0.375,1.5-3.25s4.25-4.375,4.167-6.791s-2.11-11.879-6.917-15.084c-6.25-4.166-16.667-9-16.833-10.5
	s-12.833-6.582-13-9.5c-0.148-2.59-6.726-2.17-8.665-6.828c-1.535,1.215-3.376,1.779-5.168,1.662c-3.833-0.25-3,3.166-6.833,5.332
	c-3.833,2.168-6.25,3.418-9,7.334s-9.75,6.334-10.083,9.416c-0.333,3.084,3.833,11.168,1.75,16.168
	c-0.909,2.182-2.135,2.697-3.332,2.861c1.312,3.396,5.935,5.137,6.082,8.889c0.167,4.25,3.25,1.584,4,7s1.583,2,4.417,8.5
	s0.25,5.82-1,6.582c-3.782,2.307-2.5,2.836-1.667,5.418s3.083,2.332,6.75-1c3.667-3.334,4.917-0.5,10.167-4
	c6.89-4.594,4.417,5.166,8.5,13.332s6.667,12.334,11.25,10.418c2.874-1.201,3.492,6.047,1.675,7.441
	c2.09,0.02,4.505,0.377,5.241,1.85c1.375,2.75,2,2.021,6-0.928c4-2.947,5.875-4.947,6.375-0.322c0.271,2.512,1.169,2.701,2.153,3.49
	C278.297,484.219,280.578,483.234,280.667,479.67z"/>
<path id="Granada" fill="#eeeeee" stroke="#000000" stroke-width="0.25" stroke-miterlimit="10" d="M348.604,504.877
	c0.125-2.25,4.25-2.188,4.375-4.938s-2.5-3-2.375-5.813s3.313-1.688,6.438-9.438c2.74-6.797,3.313-5.625,6.188-4.314
	c6.854,3.131,6.875,2.625,6.938-3.375s9.063-15.438,14.25-15.375c5.187,0.064-3.125-8.188,2.688-7.813
	c3.809,0.246,1.313-2,1.313-4.688s2.688-3.75,0.875-7.813c-1.172-2.629-1.25-3.814,2.375-5.689s0.5-4-2.313-8.063
	c-2.813-4.063-6.313-1.188-10.813-4.625s-6.5-0.063-6.5,1.813c0,1.877,0.313,4.375-5.125,4.689c-5.438,0.313-5.5,7.188-8.75,11.563
	s-3.652,4.43-2.75,6.916c1.795,4.949-1.167,2.584-2.583,5.051c-1.416,2.465-2.083,2.449-6.583,2.449s-1.25-1.916-6.417-2.416
	s-6.25,4.582-11.333,4.75c-5.083,0.166-4.667-4.75-9.167,0s-13,5.082-14.667,10.832c-1.504,5.189-8.694,2.889-12.579,1.205
	c-4.172,0.689-4.496,3.59-8.921,3.713c-2.015,0.057-2.333-0.5-2.499,6.166c-0.089,3.566-2.369,4.549-4.473,4.699
	c0.829,0.664,1.718,1.752,2.347,5.01c1.375,7.125,0.5,6.25,4.75,9.5s9.5,6.125,15,7.625s8.625,2.375,9.625,5.375
	c0.452,1.354,0.434,2.428,0.244,3.486c1.552,0.598,2.959,1.004,5.256,0.057c3.833-1.584,3.75-1.082,4.917,0.084
	c1.167,1.164,3.583,0.082,5.25,2.082s5.333-0.75,7-2c1.25-0.938,9.573-1.404,14.714-1.23c1.262-1.475,2.742-3.07,4.308-4.979
	C351.604,506.941,348.479,507.127,348.604,504.877z"/>
<path id="Almería" fill="#eeeeee" stroke="#000000" stroke-width="0.25" stroke-miterlimit="10" d="M418.166,465.836
	c-3.834,0.332-7.75-6.834-11-12.668s-1.25-10.666-0.75-13.916s1.082-3.25-4.334-3.416c-3.252-0.102-6.618-1.311-8.793-2.264
	c0.044,0.756-0.397,1.422-1.623,2.055c-3.625,1.875-3.547,3.061-2.375,5.689c1.813,4.063-0.875,5.125-0.875,7.813
	s2.497,4.934-1.313,4.688c-5.813-0.375,2.5,7.875-2.688,7.813c-5.188-0.061-14.186,9.373-14.249,15.373s-0.084,6.506-6.938,3.375
	c-2.875-1.313-3.446-2.482-6.188,4.314c-3.125,7.75-6.313,6.625-6.438,9.438s2.5,3.063,2.375,5.813s-4.25,2.688-4.375,4.938
	s3,2.064,1,4.5c-1.565,1.908-3.046,3.506-4.308,4.98c1.716,0.059,3.078,0.189,3.703,0.396c2.5,0.832,3.173-0.537,4.833-0.584
	c2.917-0.084,2.584,3.334,5.5,3.584s3.208,1.041,5.458,1.166s7.167-1.168,7.542-4.668s6.983-7.459,8.833-5.313
	c1.563,1.813,1.563,1.063,3.5-0.375s5.563,0,8.688,4.938c3.125,4.939,4.875,2,6.5,0.375s3.188,0,3-2.25s3-1.75,2.938-5.625
	s6.063-3.813,5.938-6.625c-0.125-2.811,2-5.563,2.75-8.563s2.25-11.313,5.939-13.063c2.855-1.355,3.344-4.83,6.787-7.57
	C424.793,467.613,421.287,465.564,418.166,465.836z"/>
<path id="Murcia" fill="#eeeeee" stroke="#000000" stroke-width="0.25" stroke-miterlimit="10" d="M459.416,418.838
	c0-4.086,2.666-3.086,3.25-9.836c0.582-6.75-5.918-6.75-6.168-9.416c-0.584-6.23,4.334-3.834,3.75-7.166
	c-0.738-4.215,1.084-1.418,1.084-6.25c0-4.834-4.418-5.668-5.918-9.584s-5.582-1.832-7.75-0.832c-2.166,1-3.916,4.582-6,2.5
	c-2.082-2.084-4.832,2.082-4.832,5.416s-3,2.668-1.834,12c0.447,3.564-2.332,9.334-6.332,9.5c-4,0.168-2.584,0.75-5.334-3.584
	s-9.666,2.834-12.25,4.502c-2.582,1.666-3,1.75-5.916,0.166c-2.918-1.584-2.25-0.5-4.5,2.832c-2.25,3.334-6.583,2-7.75,6.918
	c-0.772,3.258-1.417,3.582-4.25,5.457c-1.34,0.887-1.855,2.508-2.031,3.975c0.974,0.328,1.877,0.916,2.72,2.131
	c1.861,2.689,3.848,4.527,3.935,6.008c2.176,0.953,5.542,2.162,8.793,2.264c5.418,0.166,4.834,0.166,4.334,3.416
	s-2.5,8.082,0.75,13.916s7.166,13,11,12.668c3.121-0.271,6.627,1.777,9.037,4.348c1.002-0.797,2.242-1.537,3.879-2.139
	c2.834-1.043,3.709-0.334,3.75-2.043c0.043-1.707,6.77-7.684,10.771-7.688c2.125-0.002,2.457-2.369,5.375-0.813
	c0.938,0.5,0.432,1.834,2.375,1.938c2.771,0.146,1.896-3.271,5.479-2.646c3.584,0.625,3.334-1.5,4.959,0.75s3.861,0.609,4.5-0.125
	c1.125-1.291,2.529,0.51,3.541-0.666c1.543-1.793,5.793-2.377,5.918-3.418s-0.793-1.082-1.418-0.457s-6.375-3.168-6.541-5.5
	c-0.168-2.334,2.438-2.875,2.813-5.188c0.375-2.314,1.063-2.625,1.938-1.5s1.125,1.178,0.563-0.631
	c-0.209-0.672-0.365-1.521-0.377-2.412C468.221,436.029,459.416,423.402,459.416,418.838z"/>
<path id="Jaén" fill="#eeeeee" stroke="#000000" stroke-width="0.25" stroke-miterlimit="10" d="M380.479,407.127
	c-2.125-0.063,0.75-8.324-3.875-8.313c-3.764,0.01-0.625-4.688-2.875-6.875s-3.625,1.75-7.125-0.625s-5.25,0.875-7.625,2.75
	s-2.688,0.688-4.646,0.271c-3.632-0.771-1.958,3.666-3.667,3.707c-0.962,0.023-0.513-1.865-1.125-2.916c-2.375-4.076-4,1-9.75,0.625
	c-4.249-0.277-4.125-2.125-7.625-2.125s-2.125,2.75-4.75,4.125s-5.25,1.25-6.125-1.055c-0.875-2.303-2.625-2.57-2.75,0.805
	s-5.625-0.125-9.5-0.75s-3.875,4.41-12.125,4.25c-4.749-0.092-6.75,0.5-13.125-0.875c-3.874-0.836-4.604,1.373-4.584,3.236
	c3.523,4.021,5.054,11.381,5.126,13.471c0.083,2.416-2.917,3.168-4.167,6.793s-1.063,1.125-1.5,3.25
	c-0.963,4.678,0.25,10.375-0.125,13.625s4.875,2,3.75,4.375s-2.125,1.125,0.75,3.5s-0.25,3.375-0.5,5s2-0.5,2.5,2.875
	s5.5,7.5,7.25,10.25s4.375,2.625,0,3.25c-0.072,0.01-0.134,0.025-0.204,0.037c3.885,1.684,11.074,3.984,12.579-1.205
	c1.667-5.75,10.167-6.082,14.667-10.832s4.083,0.166,9.167,0c5.084-0.168,6.167-5.25,11.333-4.75s1.917,2.416,6.417,2.416
	s5.167,0.016,6.583-2.449c1.416-2.467,4.378-0.102,2.583-5.051c-0.902-2.486-0.5-2.541,2.75-6.916s3.313-11.25,8.75-11.563
	c5.437-0.314,5.125-2.814,5.125-4.689c0-1.277,0.933-3.25,2.952-3.287C381.002,413.242,382.538,407.189,380.479,407.127z"/>
<path id="ProvinciadeAlicante" fill="#eeeeee" stroke="#000000" stroke-width="0.25" stroke-miterlimit="10" d="M502.332,364.502
	c-3.166-1.25-7.666,2.168-10.416,4.25c-2.75,2.084-7.584,0.668-7.418,2.418s-0.166,1.75,2.918,1.332
	c3.084-0.416,0.582,1.918-2.584,3.787c-3.166,1.871-2.5-0.871-5.666-1.621c-3.168-0.75-1.834-2.666-5.5-0.75
	c-3.668,1.918-3.814-0.291-6.875-1.416c-5.645-2.074,1.875,3-0.875,6.25c-1.49,1.76-4.771,1.939-7.531,1.738
	c1.514,1.469,2.947,2.924,2.947,5.678c0,4.834-1.82,2.035-1.082,6.25c0.582,3.334-4.334,0.938-3.75,7.168
	c0.25,2.666,6.75,2.666,6.166,9.416c-0.582,6.75-3.25,5.75-3.25,9.834c0,4.564,8.807,17.193,15.311,18.813
	c-0.02-1.504,0.373-3.133,1.627-4.271c2-1.813,1.875-4.438,3.564-4.813c1.688-0.375,1.125-2.375,1-4.064
	c-0.125-1.688,0.572-6.184,1.063-7.563c0.844-2.375-1.188-1.188-1-2.188s3.25-3.766,3.25-1.656c0,1.188,0.438,0.813,1.906,0.719
	c1.467-0.094,3.281-1.344,2.844-3s-2.605-7.18,2.771-8.604c2.041-0.541,0.619,0.25,2.166,0.25c1.168-0.002,0.668-1.584,0.625-3.459
	c-0.041-1.875,3.313-5.313,8.625-7.25s5.938-3.188,7.563-2.25s3.375-1.375,3.25-2.563c-0.125-1.189,0.873-4.125,4.064-4.125
	c2,0,1.531-1.031,2.563-0.781s-0.563-0.406,1.188-1.531c1.752-1.125,4.25-1.313,4.5-3.063s3.438-1.564,3.25-3
	c-0.188-1.438-2.563-1.814-2.438-3.125c0.125-1.313,0.875-2.064-3.25-3.75c-3.266-1.336-6.762-1.391-9.506-3.736
	C511.525,364.812,504.934,365.529,502.332,364.502z"/>
<path id="CiudadReal" fill="#eeeeee" stroke="#000000" stroke-width="0.25" stroke-miterlimit="10" d="M368.166,377.002
	c0.127-5.295-5.833-3.082-6.417-9.5c-0.584-6.416-6.75-3.25-6.667-6.582c0.083-3.334,2.833-2.584,2.833-7.084s-1.083-3.832-1.333-6
	c-0.25-2.166,2.167-2.666,3.75-5.332s3.833-2.75,1.667-8.75s-3.417-5.834-4.75-3.584s-4,2.084-3.333-0.75
	c0.667-2.832-2.417-6.582-3.583-5.5c-1.166,1.084-3.083,2.5-6.25-0.166c-3.167-2.668-4.25-1.168-8.667-1.334s-5.083,4.5-8.917,5.25
	s-4.666,2.416-8.333,5.832c-3.667,3.418-3.286,0.289-6.333,2.75c-4.333,3.5-4.25-2.25-6.833-0.332c-4.876,3.617-2.583,0.75-7.417,0
	s-0.75-2.668-5.75-4.25c-3.025-0.959-4.75,0-6.5-1.334c-1.75-1.332,0-6.082,2.333-6.416s1.083-3,2.667-4.75
	s-0.417-3.418-3.917-3.334s-3.25,4.084-6,5.668s-8.083-0.75-10.667-1.334c-2.584-0.582-2.958,2.459-3.708,0.584s-2.25-3.75-4,0
	c-0.946,2.027-2.95,3.832-4.593,5.064c0.016,0.008,0.036,0.01,0.051,0.02c1.75,0.916-0.167,6-2.083,6.916
	c-1.916,0.918-1.667,5.25,1.5,8.5s3.417,3.668-2.417,1.668s-5.195,1.646-6.667,3.75c-2.333,3.332,1.667,4.369,0.25,6.518
	s-6.833-2.936-5.833,1.064s6.049,5.084,6.316,8.25c0.267,3.168-5.4,0-6.15,5.75c-0.399,3.064-1.749,5.291-3.499,6.672
	c1.939,4.658,8.517,4.238,8.665,6.828c0.167,2.918,12.833,8,13,9.5s10.583,6.334,16.833,10.5c0.648,0.434,1.241,0.984,1.791,1.611
	c-0.021-1.863,0.711-4.072,4.584-3.236c6.375,1.375,8.376,0.783,13.125,0.875c8.25,0.16,8.25-4.875,12.125-4.25
	s9.375,4.125,9.5,0.75s1.875-3.105,2.75-0.803s3.5,2.428,6.125,1.053s1.25-4.125,4.75-4.125s3.376,1.85,7.625,2.125
	c5.75,0.375,7.375-4.699,9.75-0.625c0.612,1.053,0.163,2.941,1.125,2.918c1.708-0.043,0.035-4.479,3.667-3.709
	c1.958,0.416,2.271,1.605,4.646-0.27c1.527-1.207,2.799-2.975,4.44-3.455C359.459,380.834,367.923,387.101,368.166,377.002z"/>
<path id="Toledo" fill="#eeeeee" stroke="#000000" stroke-width="0.25" stroke-miterlimit="10" d="M342.416,296.002
	c-2.5-3.124,1.5-9.249-2.25-9.624c-2.252-0.225,0.125-7.25-3-5.875s-3-1.25-5-1s-4.125,2-8.5,2.25s-6.625,3.75-9.5,5.5
	s-6,5.011-7.75,5c-8.378-0.047-1.625-4.375,1.625-5.25s6-5.375,7-6.5s2.374-6.125-1.625-5.875c-7.236,0.452-3-2.375-6.625-2.125
	s-4.875-1.5-9.75-3.375s-4.75-4-8.375-2.771c-3.625,1.228-3.125-3.979-6-1.104s-5,3.875-6,1c-2.625-7.545-4.5-1.25-9.375,2.5
	c-2.344,1.804-3.7,1.375-4.495,0.408c-0.49,0.288-1.032,0.492-1.63,0.592c-4.5,0.75-3.375-5.625-7.25-4.375s-3,0.873-5.5,4.438
	c-2.5,3.563-6.25,3.813-8.75,3.938s-6.5,4.125-9.375,4.375c-2.381,0.207-6.728-0.361-8.507-2.268
	c-1.318,0.791-2.942,2.597-2.868,6.731c0.125,6.91-4.019,9.615,1.375,9.785c3.97,0.125,4.125,1.375,3.125,3.125
	s-1.852,6.369,0.518,6.375c3.607,0.008,4.966-4.627,6.982-1.375c0.93,1.5-0.625,0.625,0,2.75s2,5.5-0.75,8.625
	s0.177,2.375,1.651,5.625s3.474,2.375,6.974,6.75c1.539,1.922,2.037,2.855,1.977,3.436c2.169,1.402,5.313,2.637,8.315,0.896
	c1.817-1.053,6.577-3.615,8.365-2.768c1.643-1.234,3.646-3.037,4.593-5.066c1.75-3.75,3.25-1.875,4,0s1.125-1.166,3.708-0.582
	c2.583,0.582,7.917,2.916,10.667,1.332c2.75-1.582,2.5-5.582,6-5.666s5.5,1.582,3.917,3.332s-0.334,4.418-2.667,4.75
	c-2.333,0.334-4.083,5.084-2.333,6.418s3.475,0.375,6.5,1.332c5,1.584,0.917,3.5,5.75,4.25s2.541,3.619,7.417,0
	c2.583-1.916,2.5,3.834,6.833,0.334c3.047-2.463,2.667,0.666,6.333-2.75c3.666-3.418,4.5-5.084,8.333-5.834s4.5-5.416,8.917-5.25
	c4.417,0.168,5.5-1.332,8.667,1.334s5.083,1.25,6.25,0.166c0.387-0.357,0.986-0.178,1.588,0.316
	C356.112,309.695,344.775,298.951,342.416,296.002z"/>
<path id="Albacete" fill="#eeeeee" stroke="#000000" stroke-width="0.25" stroke-miterlimit="10" d="M458.516,361.316
	c-2.711,1.125-3.162,0.688-5.412-1.375c-2.25-2.064-6.438-6.689-5.438-9.939s3.563-8.125,3.938-13.313s-13.354-4.938-15.188-7.521
	c-1.834-2.582-2.084-5.582-5.5-2.082c-3.418,3.5-10.418,5.916-13.084,8.166s-4.666,0.834-7.416,0.693
	c-2.75-0.143-4.236,0.895-6.418-1.027c-6.236-5.492-6.166-2.5-3.5,1.506c2.668,4.004-6.167-2.088-9.583,1.996s-4.25-0.5-5.583-1.668
	c-1.333-1.166-1.083,4.418-4,1.584s-4.25-6.25-7.215-4.752s-2.952-2.164-5.202-0.248c-2.182,1.859-4.918,1.387-6.833,0.666
	c2.008,5.742-0.19,5.873-1.75,8.5c-1.583,2.668-4,3.168-3.75,5.334s1.333,1.5,1.333,6s-2.75,3.75-2.833,7.082
	c-0.083,3.334,6.083,0.166,6.667,6.584c0.584,6.416,6.543,4.205,6.417,9.5c-0.242,10.098-8.706,3.83-4.746,13.607
	c0.911-0.268,1.936-0.145,3.185,0.705c3.5,2.375,4.875-1.564,7.125,0.625c2.25,2.188-0.889,6.885,2.875,6.875
	c4.625-0.014,1.75,8.25,3.875,8.313c2.059,0.061,0.523,6.113-5.486,14.336c0.94-0.018,2.117,0.385,3.548,1.477
	c3.154,2.41,5.814,1.725,8.094,2.494c0.176-1.467,0.691-3.088,2.031-3.975c2.833-1.875,3.479-2.199,4.25-5.457
	c1.167-4.918,5.5-3.584,7.75-6.918c2.25-3.332,1.584-4.416,4.5-2.832c2.918,1.584,3.334,1.502,5.918-0.166
	c2.582-1.668,9.5-8.836,12.25-4.502s1.332,3.752,5.332,3.584c4-0.166,6.779-5.936,6.334-9.5c-1.168-9.334,1.832-8.666,1.832-12
	c0-3.332,2.75-7.5,4.834-5.416c2.082,2.082,3.832-1.5,6-2.5c2.166-1,6.25-3.084,7.75,0.832c0.645,1.686,1.828,2.799,2.969,3.906
	c2.76,0.201,6.041,0.021,7.531-1.74c2.525-2.982-3.6-7.5-0.252-6.615C465.635,358.873,461.182,360.209,458.516,361.316z"/>
<path id="Gerona" fill="#eeeeee" stroke="#000000" stroke-width="0.25" stroke-miterlimit="10" d="M697.666,112.628
	c-2.25-0.375-6.064-0.875-5.689-4.75s0.189-4.25-2.688-3.5c-2.875,0.75-1.375-1.75-5.5-2.5s-3.375-0.625-4.75,0.75
	s-2.25-0.625-5.5,2.125s-5.625,0.875-7.125,2.375s1.125,6.625-2.875,5.375s-4-1.375-5.75,0.063c-1.75,1.438-3.813,1.063-5.875-1.438
	s-7.938-6.063-11.125-4.875c-3.188,1.188-4.625-0.563-6.938,3.688s-8.5,1.5-9.313-1.625c-0.6-2.304-5.152-7.545-11.928-7.272
	c0.432,2.03,1.416,4.083,3.553,4.959c4.875,2,1,8,6,8.375s8.875-0.875,8.125,2.5s1.402,3.753,0.092,6.375
	c-0.842,1.688-1.404,0.375-2.404,0s-4.479-1.062,1,2.875c1.904,1.369,2.938-0.938,4.938,0.813s1.5-0.438,5.563,0
	c4.064,0.438,2.375,0.5,6.564,1.438c4.188,0.938,4.563,5.125,7.438,3.813c2.875-1.313,3.838,3.554,1.188,5.625
	c-4,3.125,0.436,2.355,0.563,4.563c0.189,3.25-8.375,1.438-7.938,4c0.438,2.563,1.375,4.188,5.375,4.938s4.875,6.75,11.5,4.313
	c5.875-2.162,8.307-0.726,9.043,4.726c2.463-1.066,6.625-0.476,7.707-3.184c1.334-3.333,4-1,6-5.833s3.834-0.917,6.084-5
	s2.791-2.458,3.041-5.333s-2.627-0.758-2-5.625c0.25-1.938,1.438-3.625-0.813-5.25c-2.252-1.625-3.938-2.063-3.563-7.75
	c0.375-5.687,3.625-5.313,4.5-2.875c0.875,2.438,4.625-1.438,5.063-3C699.666,114.945,699.916,113.003,697.666,112.628z"/>
<path id="ComunidaddeMadrid" fill="#eeeeee" stroke="#000000" stroke-width="0.25" stroke-miterlimit="10" d="M342.791,279.878
	c1.125,1.75,5.875-1.5,4.5-3c-3.115-3.397-0.75-2.25-0.875-6.625s-1.849-8.253-3.85-5.875c-5.661,6.729-1.4-1.665-0.525-5.125
	c1.949-7.708-2.125-4.375-2.5-9.375s-5.125-3.75-5.125-5.75s-1.625-4.375-2.75-5.872s-2-4.878-3.71-3.378s-4.04,0.375-2.415-1.125
	s0.5-5.375-1.98-5.875c-2.479-0.5,2.23-6.5,3.355-11s1.625-5.375,0-7.625s1.5-3.25-2.375-4.125c-1.747-0.395-3.48-3.676-4.488-5.945
	c-0.293,0.035-0.589,0.063-0.887,0.07c-4.25,0.125-11.125,13.25-16.25,13.75s-4.625,7.25-5.75,11.625s-2.25,2.125-6.25,3.375
	c-3.541,1.106-3.413,6.835-4.765,7.506c0.419,1.775,0.473,3.779-1.11,4.494c-3.875,1.75-6-3.125-5.75,1.75s-2.239,1.504-1.875,9.875
	c0.25,5.75-5,1.125-6.375,5.75s-2.375,5.75-4,3.625s-1.875-1.375-1.75,2.375c0.096,2.88-0.876,4.833-2.495,5.783
	c0.795,0.966,2.151,1.396,4.495-0.408c4.875-3.75,6.75-10.045,9.375-2.5c1,2.875,3.125,1.875,6-1s2.375,2.331,6,1.104
	c3.625-1.229,3.5,0.896,8.375,2.771s6.125,3.625,9.75,3.375s-0.611,2.577,6.625,2.125c3.999-0.25,2.625,4.75,1.625,5.875
	s-3.75,5.625-7,6.5s-10.003,5.203-1.625,5.25c1.75,0.011,4.875-3.25,7.75-5s5.125-5.25,9.5-5.5s6.5-2,8.5-2.25s1.875,2.375,5,1
	c0.45-0.197,0.776-0.207,1.028-0.102C339.638,278.162,341.891,278.48,342.791,279.878z"/>
<path id="Cuenca" fill="#eeeeee" stroke="#000000" stroke-width="0.25" stroke-miterlimit="10" d="M444.166,283.753
	c-4.5-1-3.875-1-4.875-4.875s-2.5-3.875-2.5-5.75s0.75-2.875-3.25-2.875s-7-5.625-9-6.875s-3.125,1.375-3.125-1.125
	s-2.875-8-5.5-6.375s-4.875-2.75-6.375-6.5s-1.75-6.75-4.625-5.875s-5-1.5-8.375-3.705c-3.375-2.205-3.75,1.08-5.75,0.705
	s-3.125-1.875-3.125,1.375s-2.875,2.125-4.25,0.5s-3.375-1.5-2.625,1.25s2,3.75-1.625,3.625c-2.127-0.072-1.375,4.25-3.375,1.625
	s-3.75,0.125-1.673,4s-3.327,1-7.077,1.25s-1.875,4.875-5.875,1.625s-2.5,5.75-2.875,9.625s-0.625,4.125-3.209,6.528
	s-2.916,3.222-5.416,0.847c-1.002-0.952-2.243-0.974-3.372-0.667c-0.414,2.271-1.574,1.987,0.997,4.792c1.375,1.5-3.375,4.75-4.5,3
	c-0.899-1.397-3.152-1.716-4.597,0.523c1.498,0.624,0.043,5.784,1.972,5.977c3.75,0.375-0.25,6.5,2.25,9.624
	c2.359,2.949,13.696,13.693,9.505,28.234c1.212,0.996,2.44,3.291,1.995,5.184c-0.667,2.832,2,3,3.333,0.75s2.583-2.418,4.75,3.582
	c0.032,0.088,0.054,0.164,0.083,0.25c1.915,0.721,4.651,1.193,6.833-0.666c2.25-1.918,2.237,1.744,5.202,0.248
	c2.965-1.498,4.298,1.918,7.215,4.752c2.917,2.832,2.667-2.75,4-1.584c1.333,1.168,2.166,5.75,5.583,1.668
	c3.417-4.084,12.25,2.008,9.583-1.996c-2.668-4.006-2.736-6.998,3.5-1.506c2.182,1.922,3.666,0.885,6.416,1.027
	c2.75,0.141,4.75,1.557,7.418-0.693c2.666-2.25,9.666-4.666,13.082-8.166c0.514-0.525,0.947-0.889,1.334-1.145
	c-0.135-1.156-0.057-2.521,0.666-3.689c1.625-2.625-1.283-7.432,3-7.75c3.375-0.25,1.307-8.277,7.625-6.375
	c3.121,0.941,3.805-1.256,3.625-2.625c-0.625-4.75,2.75-6,3-10.499c0.244-4.374-3.053-6.738,3.648-7.328
	C452.666,282.958,448.314,284.675,444.166,283.753z"/>
<g id="Valencia">
	<path fill="#eeeeee" stroke="#000000" stroke-width="0.25" stroke-miterlimit="10" d="M494.041,301.127c-0.801,1.602-2.875,5.5-6,1.25
		c-4.934-6.707-2.75,1.875-7,1c-3.123-0.643-0.875-5.125-3.375-7c-2.5-1.874-2.125,3.75-6.375-1.249
		c-2.111-2.482-3.125,4.249-4.875-3.375c-1.75-7.625-4.5-4.625-12-4.125s-4,2.875-4.25,7.375c-0.25,4.499-3.625,5.749-3,10.499
		c0.18,1.369-0.504,3.566-3.625,2.625c-6.32-1.902-4.25,6.125-7.625,6.375c-4.285,0.318-1.375,5.125-3,7.75
		c-0.723,1.168-0.801,2.533-0.668,3.689c2.188-1.449,2.609,1.033,4.168,3.229c1.832,2.582,15.563,2.332,15.188,7.521
		c-0.375,5.188-2.938,10.061-3.938,13.311s3.188,7.875,5.438,9.939c2.25,2.063,2.701,2.5,5.412,1.375
		c2.668-1.107,7.119-2.443,7.148,10.82c0.299,0.08,0.664,0.197,1.127,0.367c3.063,1.125,3.207,3.332,6.875,1.416
		c3.666-1.916,2.332,0,5.5,0.75c3.166,0.75,2.5,3.492,5.666,1.621c3.168-1.869,5.666-4.203,2.584-3.787
		c-3.084,0.418-2.75,0.418-2.918-1.332c-0.166-1.75,4.668-0.334,7.418-2.418s7.25-5.5,10.416-4.25
		c2.604,1.027,9.193,0.311,12.016-0.672c-0.723-0.617-1.395-1.387-1.994-2.389c-2.875-4.814-8.25-9.75-8.25-16.064
		c0-2.25,1.875-1.813,0.875-3.5c-1-1.686-7.557-12.123-5.729-16.875c0.832-2.166-0.25-0.75,0.082-4
		c0.334-3.25,2.084-4.166,3.084-7.25c1-3.082,3.582-2.416,3.75-4.416c0.1-1.207-0.037-2.836,0.473-4.523
		C501.32,302.873,496.143,296.922,494.041,301.127z"/>
	<path fill="#eeeeee" stroke="#000000" stroke-width="0.25" stroke-miterlimit="10" d="M450.166,276.378
		c-4.125-0.125-2.875-7.125-5-6.625s-0.625,0.25-1.625,3.375c-0.646,2.018-4.201,1.431-6.645,0.761
		c0.354,1.207,1.551,1.72,2.395,4.989c1,3.875,0.375,3.875,4.875,4.875c2.824,0.628,5.742,0.036,7.678,1.081
		C463.791,278.915,454.117,276.498,450.166,276.378z"/>
</g>
<path id="ProvinciadeGuadalajara" fill="#eeeeee" stroke="#000000" stroke-width="0.25" stroke-miterlimit="10" d="M423.041,244.378
	c-0.125-6.375,4.625,0.75,6.75-1.5s0.25-2.25,0.25-3.848s1.5-1.902,1.5-3.652s-0.875-1-1.375-3s1.125-2,0.75-4.75
	s-3.875-6.375-3.75-9.5s-4.625-8.625-8.75-11.349s-4.875-4.151-7.75-5.526s-2.25-2.25-4.625-1.875s-3.75,2-3.625,4.25
	s0.25,3.625-2.125,0.5s-2.875,1.875-5.375,0.625c-2.5-1.25-4.5,3.375-7.25,1.625s-5,1-7.25-0.75s-1.75-2.125-1.875-4.145
	c-0.125-2.021-1.75-3.355-3.5-0.98s-1.75,0-1.875-2.5s-0.75-3.875-3.625-3.875s-2.125-3.5-5.25-1.832
	c-1.842,0.983-6.125,1.957-6.5-1.806s-2.5-2.237-4.949-0.737s-4.801,2.25-8.176,0.75s-4.75-3.375-6.75,0.375
	c-0.982,1.841-2.234,1.601-3.256,0.88c-1.396,1.761-5.488,0.497-6.494,2.62c-0.74,1.563-4.212,4.323-8.113,4.805
	c1.008,2.271,2.741,5.552,4.488,5.945c3.875,0.875,0.75,1.875,2.375,4.125s1.125,3.125,0,7.625s-5.835,10.5-3.355,11
	c2.48,0.5,3.605,4.375,1.98,5.875s0.704,2.625,2.415,1.125s2.585,1.881,3.71,3.378s2.75,3.872,2.75,5.872s4.75,0.75,5.125,5.75
	s4.449,1.667,2.5,9.375c-0.875,3.46-5.136,11.854,0.525,5.125c2.001-2.378,3.725,1.5,3.85,5.875
	c0.022,0.765-0.035,1.354-0.122,1.833c1.129-0.308,2.37-0.285,3.372,0.667c2.5,2.375,2.831,1.558,5.416-0.847
	s2.834-2.653,3.209-6.528s-1.125-12.875,2.875-9.625s2.125-1.375,5.875-1.625s9.154,2.625,7.077-1.25s-0.327-6.625,1.673-4
	s1.248-1.697,3.375-1.625c3.625,0.125,2.375-0.875,1.625-3.625s1.25-2.875,2.625-1.25s4.25,2.75,4.25-0.5s1.125-1.75,3.125-1.375
	s2.375-2.91,5.75-0.705c3.375,2.205,5.5,4.58,8.375,3.705s3.125,2.125,4.625,5.875c1.375,3.439,3.383,7.39,5.73,6.771
	C419.178,251.177,423.158,250.378,423.041,244.378z"/>
<path id="Castellón" fill="#eeeeee" stroke="#000000" stroke-width="0.25" stroke-miterlimit="10" d="M535.166,239.753
	c-4.916-0.947-2.875-2.25-2.314-4.5c0.385-1.533-3.844-3.297-6.578-4.266c-0.725,1.732-2.156,0.95-4.025,1.183
	c-2,0.25-4,4.083-4.5,0.75s-7.416,0-9.082-4.583s-4.418,0.25-5.168,3.583s-1.166,3.5-5.75,3.5c-4.582,0-2.75,4.667,0.834,5.167
	c3.582,0.5,1.5,1.5,1.75,4.667s3.25,3.667-0.918,5.5c-4.166,1.833-1.082,2.834,0.668,5.167s-0.5,2.166-2.168,4.333
	c-1.666,2.167-2.916,1.86-2.5,3.765c0.418,1.903-2.666,4.152-4.916,3.902s-4.168-2.5-4.75,2.333
	c-0.584,4.833-3.799,5.519-3.918,7.426c-0.25,3.991-7.666,2.671-7.832,4.914c-0.166,2.244-4,2.827-3.668,5.994
	c0.309,2.934,2.967,2.087,0.578,6.182c0.123,0.088,0.25,0.207,0.381,0.359c4.25,5,3.875-0.625,6.375,1.25s0.252,6.357,3.375,7
	c4.25,0.875,2.066-7.709,7-1c3.125,4.25,5.199,0.352,6-1.25c2.102-4.205,7.279,1.744,12.598,3.686
	c0.336-1.113,0.951-2.25,2.111-3.311c2.916-2.668,1.092-6.52,4.916-8c2.584-1,4.75-5.583,5.084-8.333c0.332-2.75,2.5-5,5.25-6.25
	s1-4.583,3.25-6.75s4.332-1.75,4.832-3.333s2.918-5.833,5.5-7.083c2.584-1.25,0.834-3.583,2.5-6.417
	c1.439-2.446,3.254-5.396,5.225-9.105C540.734,244.19,541.045,240.888,535.166,239.753z"/>
<path id="Teruel" fill="#eeeeee" stroke="#000000" stroke-width="0.25" stroke-miterlimit="10" d="M470.332,288.586
	c-0.332-3.167,3.5-3.75,3.668-5.994c0.166-2.243,7.582-0.923,7.832-4.915c0.119-1.906,3.334-2.591,3.918-7.425s2.5-2.583,4.75-2.333
	s5.332-2,4.916-3.902c-0.416-1.903,0.834-1.598,2.5-3.765c1.668-2.167,3.918-2,2.168-4.333s-4.834-3.333-0.668-5.167
	s1.168-2.333,0.918-5.5s1.832-4.167-1.75-4.667c-3.584-0.5-5.418-5.167-0.834-5.167s5-0.167,5.75-3.5s3.5-8.167,5.168-3.583
	c1.666,4.584,8.582,1.25,9.082,4.583s2.5-0.5,4.5-0.75s3.5,0.667,4.168-1.583c0.666-2.25,6.5-3.25,4.832-7.583
	c-1.666-4.333,0.25-4,1.084-8.667c0.832-4.667-0.668-1.708-2.668-5.958s-3.125,0.125-6.5-0.75s-3-0.25-5.875,0.75
	s-0.75-4.75-5.25-6.14s-3.75-2.485-7.875-2.985s-4.5-3.5-7.375-4.375s-3.998-1.004-4.625-2.5c-1.254-2.993-2.375-1.125-3-3.625
	s-5.875-2.375-5.75,0s-3,0.125-3.162,3.625s-2.088,2.185-1.338,4.126c1.652,4.281,1.25,2.125,0,4.5
	c-2.867,5.447-3.375,0.5-5.375,0.569s0,4.181-3.5,3.806s-4.25-2.875-7.125,0.75c-1.771,2.233-3.125,1.25-2.5-1.375
	s-2.25-0.875-4.25-2.75s-2.125,3-9,2.625c-4.494-0.245-0.875,5-4.625,4.875s-4.875-2.625-5.625,0s-3.5,0.75-3.75,5.375
	c-0.111,2.056-3.533,2.56-6.031,2.653c0.027,0.207,0.039,0.406,0.031,0.597c-0.125,3.125,3.375,6.75,3.75,9.5s-1.25,2.75-0.75,4.75
	s1.375,1.25,1.375,3s-1.5,2.056-1.5,3.652s1.875,1.598-0.25,3.848s-6.875-4.875-6.75,1.5c0.117,6-3.863,6.799-7.77,11.771
	c0.211-0.057,0.426-0.136,0.645-0.271c2.625-1.625,5.5,3.875,5.5,6.375s1.125-0.125,3.125,1.125s5,6.875,9,6.875s3.25,1,3.25,2.875
	c0,0.293,0.039,0.537,0.105,0.761c2.443,0.669,5.998,1.257,6.645-0.761c1-3.125-0.5-2.875,1.625-3.375s0.875,6.5,5,6.625
	c3.951,0.12,13.625,2.537,1.678,8.456c0.908,0.49,1.604,1.336,1.969,2.841c0.193-0.017,0.393-0.032,0.604-0.047
	c7.5-0.5,10.25-3.5,12,4.125c1.641,7.153,2.635,1.671,4.494,3.016C473.299,290.674,470.641,291.519,470.332,288.586z"/>
<path id="Barcelona" fill="#eeeeee" stroke="#000000" stroke-width="0.25" stroke-miterlimit="10" d="M664.166,155.628
	c-6.625,2.438-7.5-3.563-11.5-4.313s-4.939-2.375-5.375-4.938c-0.438-2.563,8.125-0.75,7.938-4
	c-0.127-2.206-4.563-1.438-0.563-4.563c2.65-2.071,1.688-6.938-1.189-5.625c-2.875,1.313-3.25-2.875-7.438-3.813
	c-4.188-0.938-2.5-1-6.563-1.438c-4.063-0.438-3.563,1.75-5.563,0s-3.033,0.557-4.939-0.813c-5.479-3.937-2-3.25-1-2.875
	s1.564,1.688,2.406,0c1.311-2.622-0.844-3-0.094-6.375s-3.125-2.125-8.125-2.5c-1.406-0.104-2.098-0.664-2.492-1.444
	c-1.43,1.439-3.518,2.985-5.924,2.985c-4.5,0-3.332,2-3.166,5.167s3.332,1.167,3.082,4.167s-2.49,1.928-1.832,4
	c1.082,3.417-1.35,2.667-1.508,4.583c-0.16,1.916,2.365,2.5,1.979,4.5s-2.721,0.917-3.221,3.667s-2.918,1.917-2.75,3.667
	c0.166,1.75,1.65,0.583-0.008,5.583s-3.16,4.834-4.742,3.667c-1.584-1.167-6.75-3.688-6.75,2.75c0,1.417,0.166,1.583,2,5.583
	c1.832,4,0.082,1.583-2.584,2s0.084,1.5,2.25,3.917c2.168,2.417-2.916,3.25,1.084,6.167s1,6,4.416,6.917
	c3.418,0.917,3.334,7.417,5.75,8.667c2.418,1.25-4.166,1-1.416,2.833c1.357,0.905,2.734,1.707,4.002,2.318
	c5.004-1.244,10.713-2.925,14.33-3.735c5.584-1.25,10.084-1.333,11.168-4.167c1.082-2.834,5.482-8.12,6.666-9.833
	c2.416-3.5,7.918-2.917,10-6c2.084-3.083,16.301-6.438,19.332-10.917c0.33-0.484,0.809-0.819,1.377-1.066
	C672.471,154.902,670.041,153.466,664.166,155.628z"/>
<g id="Tarragona">
	<path fill="#eeeeee" stroke="#000000" stroke-width="0.25" stroke-miterlimit="10" d="M551.082,242.42c0,0-3,0.917,0,1.75
		s4.334-0.916,4.334-2.333s-1.834-0.667-2.084,0S551.666,243.503,551.082,242.42z"/>
	<path fill="#eeeeee" stroke="#000000" stroke-width="0.25" stroke-miterlimit="10" d="M589.791,170.003
		c-3.875-0.375-7.75,0.625-8,4.875s-6,0.625-5.75,3.125s-4,5.25-6.25,7s-4.625,2-8.625,1.921c-4-0.078-9.125,4.329-11.418,2.829
		c-2.291-1.5-3.832,1-7.207-0.25s-3.125,2-4.5,3.375s-4.125,2.625-4.125,4.375s1,2.125-3.375,3.375
		c-2.414,0.689-3.303,3.621-3.617,6.113c0.957-0.457,1.738-0.494,2.742,1.637c2,4.25,3.5,1.292,2.666,5.958
		c-0.832,4.666-2.75,4.333-1.082,8.667c1.666,4.334-4.168,5.333-4.834,7.583c-0.043,0.147-0.09,0.279-0.141,0.4
		c2.734,0.969,6.961,2.732,6.578,4.266c-0.563,2.25-2.602,3.553,2.313,4.5c5.881,1.136,5.568,4.438,10.141,6.478
		c0.313-0.585,0.625-1.187,0.943-1.812c2.334-4.583,6.418-6.083,9.918-6.083s7.582-2.75,8.75-5.167
		c1.166-2.417-3.084-1.25-3.418-3.417s-1.416-1.667-2-2.583c-0.582-0.916-1.666,0.167-0.666,1.083s-0.584,1.667-1.584-0.083
		s-2.25-2.166,0.834-4.583c3.082-2.417,4.832-6.167,7.5-9.667c2.666-3.5,2.064-1.535,6.25-5.75c2.438-2.457,6.332-2.5,8.5-1.667
		c2.166,0.833,2-1.417,4.5-2.25s3.734-2.195,6.75-2.333c5.5-0.25,6.416-3.833,11.666-4.417c1.85-0.206,4.365-0.755,7.086-1.432
		c-1.268-0.612-2.646-1.414-4.002-2.318c-2.75-1.833,3.832-1.583,1.416-2.833s-2.332-7.75-5.75-8.667
		c-3.416-0.917-0.416-4-4.416-6.917s1.082-3.75-1.084-6.167c-0.037-0.042-0.076-0.08-0.113-0.12
		C594.73,169.904,592.316,170.247,589.791,170.003z"/>
</g>
<path id="Lérida" fill="#eeeeee" stroke="#000000" stroke-width="0.25" stroke-miterlimit="10" d="M613.75,115.92
	c2.404,0,4.492-1.546,5.922-2.985c-1.008-1.997-0.002-5.493-3.506-6.931c-2.137-0.876-3.121-2.93-3.553-4.959
	c-2.414,0.098-5.109,0.89-8.012,2.772c-3.563,2.313-4.74,3.295-8.25,0c-5.125-4.813,0-2.875,0.439-5.25
	c0.438-2.375-2.875,0.125-2.75-2.813c0.125-2.938,3.625-1.375,0.25-5.875s-2.887-5.986-10.314-5.5c-3.813,0.25-4.125,0.75-5.688-2.5
	s-3.875-2.688-7.75-3.063s-5.688-1.188-9.875-3.375c-4.188-2.188-6.625-2.438-6.063,3.313c0.559,5.703,1.174,7.775-1.439,7.199
	c1.844,4.401,5.752,5.078,5.752,7.801c0,3-1.375,3.375-1.75,5.625s-1.75,1.5-0.75,4.75s1.125,1.875,1.5,5.5s0.375,7.875-1.5,13
	s-2.625,11.5-3.75,14.75s-4.375,2.75-4.75,4.75s3.75,4.875,1.875,5.25c-3.227,0.646-5.625,6.875-8.594,7.5s-6.281,5.375-5.695,8
	c0.588,2.625,1.289,4,2.914,4.375s4.25,5.25,1.75,6.5s-4.25,3.25-4.271,6s-1.354,3,1.021,5s-2.375,2.375-0.625,3.25
	c0.846,0.423,1.691,2.194,2.383,3.951c0.775-1.507,1.121-3.468,3.867-2.451c3.375,1.25,4.916-1.25,7.207,0.25
	c2.293,1.5,7.42-2.907,11.42-2.83c4,0.078,6.375-0.171,8.625-1.921s6.5-4.5,6.25-7s5.5,1.125,5.75-3.125s4.125-5.25,8-4.875
	c2.525,0.244,4.939-0.099,6.594-0.953c-2.146-2.33-4.756-3.387-2.137-3.797c2.668-0.417,4.418,2,2.584-2s-2-4.167-2-5.583
	c0-6.438,5.166-3.917,6.75-2.75c1.582,1.167,3.082,1.333,4.742-3.667c1.658-5,0.174-3.833,0.008-5.583
	c-0.168-1.75,2.25-0.917,2.75-3.667s2.832-1.667,3.221-3.667s-2.139-2.583-1.979-4.5c0.158-1.917,2.59-1.167,1.508-4.583
	c-0.658-2.071,1.582-1,1.832-4s-2.916-1-3.082-4.167S609.248,115.92,613.75,115.92z"/>
<path id="Huesca" fill="#eeeeee" stroke="#000000" stroke-width="0.25" stroke-miterlimit="10" d="M556.416,104.128
	c-1-3.25,0.375-2.5,0.75-4.75s1.75-2.625,1.75-5.625c0-2.724-3.908-3.399-5.752-7.801c-0.021-0.005-0.039-0.006-0.061-0.011
	c-2.688-0.625-12.063,1.313-14.438-0.688s-2.744-0.776-4.188,1.125c-2.564,3.375-3.064-3.125-8.625-2.375
	c-5.563,0.75-10.371,6.148-17.25-3.188c-1.75-2.375-1.875-1.125-5.375-3.5s-4-2.063-5.939-0.375c-1.938,1.688-5.375,2.063-7.25,0.5
	c-1.875-1.563-3.59,6.385-6.625,0.75c-3.5-6.5-8-6-7.625-8.938c0.045-0.356,0.086-0.705,0.119-1.038
	c-1.877-0.08-4.117,0.4-4.494,3.038c-0.666,4.667-2.166,2.333-2.166,6.5s-3.168,2.834-3,6.167c0.166,3.333,2.82,1.75-0.006,5
	c-2.828,3.25,1.088,4-0.828,5.583s0.084,1.417,0.25,3.167c0.168,1.75-1.15,1.083-1.074,2.333c0.074,1.25,2.658,2.417,2.658,3.667
	s-3.936,0.695,1.084,4.25c2,1.417-0.168,6-2,8.5c-1.834,2.5-0.711,3.229,0.832,2.25c2.5-1.583,3.256,0.583,4.42-0.917
	s2.498-4.166,2.164-6.583s1-2.583,1.5,3.167s-1.918,5.417-1.584,11.917s-1.283,12.578-2.08,6.083c-0.42-3.417-2.67-0.333-2.92,3.417
	s-4.678,2.995,4.084,6.75c4.082,1.75,3-2.833,8.25,3.333s6.166,5.25,6.332,9.417s0,4.417,4.75,6.667s2.834,3.75,6.584,6.083
	s2.916,1.51,5.916,1.047s1.834,1.204,2,3.37c0.168,2.166,4,5.916,4.668,10.75c0.666,4.834,2.146,4.601,3.582,3.755
	c2.418-1.421,6.25,1.245,6.834-0.505c0.582-1.75,0.416-2.5,2.75-2.25c2.332,0.25,3.832-3.583,6.332-2.333
	c1.705,0.853,3.475,0.771,4.779,0.502c0.082-0.612,0.355-1.344,0.367-2.586c0.02-2.75,1.77-4.75,4.27-6s-0.125-6.125-1.75-6.5
	s-2.326-1.75-2.912-4.375c-0.588-2.625,2.727-7.375,5.695-8c2.967-0.625,5.369-6.854,8.592-7.5c1.875-0.375-2.25-3.25-1.875-5.25
	s3.625-1.5,4.75-4.75s1.875-9.625,3.75-14.75s1.875-9.375,1.5-13S557.416,107.378,556.416,104.128z"/>
<path id="Zaragoza" fill="#eeeeee" stroke="#000000" stroke-width="0.25" stroke-miterlimit="10" d="M536.291,188.003
	c-1.75-0.875,3-1.25,0.625-3.25c-1.303-1.097-1.488-1.668-1.389-2.414c-1.305,0.269-3.074,0.351-4.777-0.502
	c-2.5-1.25-4,2.583-6.334,2.333c-2.332-0.25-2.166,0.5-2.75,2.25c-0.582,1.75-4.416-0.917-6.832,0.505
	c-1.438,0.846-2.918,1.079-3.584-3.755s-4.5-8.583-4.666-10.75c-0.168-2.167,1-3.833-2-3.37c-3,0.464-2.168,1.287-5.918-1.047
	s-1.832-3.833-6.582-6.083s-4.584-2.5-4.75-6.667c-0.168-4.167-1.084-3.25-6.334-9.417s-4.166-1.583-8.25-3.333
	c-8.762-3.755-4.332-3-4.082-6.75s2.5-6.833,2.918-3.417c0.797,6.495,2.414,0.417,2.082-6.083c-0.334-6.5,2.082-6.167,1.582-11.917
	s-1.832-5.583-1.5-3.167c0.334,2.416-1,5.083-2.164,6.583s-1.918-0.667-4.418,0.917c-1.545,0.979-2.668,0.25-0.834-2.25
	s4-7.083,2-8.5c-5.02-3.555-1.082-3-1.082-4.25s-2.584-2.417-2.66-3.667s1.242-0.583,1.076-2.333
	c-0.168-1.75-2.168-1.583-0.25-3.167c1.916-1.584-2-2.333,0.826-5.583c2.828-3.25,0.174-1.667,0.006-5
	c-0.023-0.485,0.029-0.864,0.127-1.184c-3.469,0.608-6.959,2.329-6.959,4.392c0,2.5-5.5,0-6,4c-0.313,2.493-2.125,1.375-2.625,3.125
	s-0.5,3.5-2.75,2.375s-2,2.125-2.125,4.875s-5.125,5.375-3.5,8.5c0.568,1.092-0.125,2.75-2,5.75s-1,4.875-0.875,6.92
	s-1.5,4.205,2.375,7.705s1.625,3.75,0,6.375s-3,8-5.5,6.875s-5.25,0.625-7.5-0.5s-3.625-3.25-6-2.5s-0.875-1.75-5.125-2.5
	s-3.5,1.375-3.5,4.75s1.875,6.5,0.98,8.25c-0.896,1.75-1.23,1,1.811,4.5c3.043,3.5-0.291,3-0.666,5.25s-3.5,2.875-4.875,4.75
	s-5,0.375-5.125,2.625s1.5,2.25,1,5s1.375,3.875,1.625,6.625s-4.25,4.875-5.375,1.375s-2.75-3.5-3.25-1s-1.25,4-3.006,7.148
	c-1.756,3.147,0.256,3.727,0.006,7.227c-0.17,2.38,3.529,4.815,5.916,6.132c0.625-0.711,1.545-1.197,2.709-1.382
	c2.375-0.375,1.75,0.5,4.625,1.875s3.625,2.803,7.75,5.526c3.873,2.558,8.297,7.563,8.719,10.752c2.5-0.094,5.92-0.599,6.031-2.653
	c0.25-4.625,3-2.75,3.75-5.375s1.875-0.125,5.625,0s0.131-5.12,4.625-4.875c6.875,0.375,7-4.5,9-2.625s4.875,0.125,4.25,2.75
	s0.729,3.608,2.5,1.375c2.875-3.625,3.625-1.125,7.125-0.75s1.5-3.735,3.5-3.806s2.508,4.878,5.375-0.569
	c1.25-2.375,1.652-0.219,0-4.5c-0.75-1.941,1.176-0.625,1.338-4.125c0.16-3.5,3.287-1.25,3.162-3.625s5.125-2.5,5.75,0
	s1.746,0.632,3,3.625c0.625,1.496,1.75,1.625,4.625,2.5s3.25,3.875,7.375,4.375s3.375,1.596,7.875,2.985s2.375,7.14,5.25,6.14
	s2.5-1.625,5.875-0.75c1.684,0.438,2.807-0.433,3.758-0.887c0.314-2.492,1.203-5.424,3.617-6.113
	c4.375-1.25,3.375-1.625,3.375-3.375s2.75-3,4.125-4.375c0.256-0.256,0.455-0.578,0.633-0.924
	C537.982,190.197,537.137,188.426,536.291,188.003z"/>
<path id="Soria" fill="#eeeeee" stroke="#000000" stroke-width="0.25" stroke-miterlimit="10" d="M402.416,140.378
	c-4.25-1.125-1.75-3-4.125-5.875c-2.375-2.875,0.875-5.375-3.75-4.375c-4.625,1-3-2-5.25-3.5s-6.875,1.875-9.25,1.625
	s-5,5.75-5.923,7.625s-1.952,2-5.452,1.875s-4.875-0.625-4.75-3.25s3-6.25,1.25-6.25s-4.625,5.5-5.875,6.875
	c-0.916,1.008-2.707,0.484-6.75,3.75c-3.25,2.625,0,5.75-2.5,5.5s-1,3.875-4,3.875s-4.75,2.5-4.875,3.875s-0.75,3-2.875-0.125
	c-3.584-5.271-4.125-2.125-4.125,0s1.375,4.75-1.75,5.5s-5.625,5.625-7.125,8.25s-1.5,3.5-4.375,2.125
	c-1.729-0.827-2.73,1.146-3.257,2.853c0.592-0.008,0.981,0.076,1.007,0.272c0.338,2.604,6,3,6.5,4.875s5.375,3.298,4.5,7.875
	c-0.645,3.371,6.125,4.375,5.375,7.25c-0.08,0.306-0.215,0.546-0.381,0.755c1.021,0.721,2.273,0.961,3.256-0.88
	c2-3.75,3.375-1.875,6.75-0.375s5.727,0.75,8.176-0.75s4.574-3.025,4.949,0.737s4.658,2.789,6.5,1.806
	c3.125-1.668,2.375,1.832,5.25,1.832s3.5,1.375,3.625,3.875s0.125,4.875,1.875,2.5s3.375-1.039,3.5,0.98
	c0.125,2.019-0.375,2.395,1.875,4.145s4.5-1,7.25,0.75s4.75-2.875,7.25-1.625c2.5,1.25,3-3.75,5.375-0.625s2.25,1.75,2.125-0.5
	c-0.064-1.146,0.266-2.129,0.916-2.868c-2.387-1.315-6.086-3.752-5.916-6.132c0.25-3.5-1.762-4.078-0.006-7.227
	c1.756-3.149,2.506-4.648,3.006-7.148s2.125-2.5,3.25,1s5.625,1.375,5.375-1.375s-2.125-3.875-1.625-6.625s-1.125-2.75-1-5
	s3.75-0.75,5.125-2.625s4.5-2.5,4.875-4.75s3.709-1.75,0.666-5.25c-3.041-3.5-2.705-2.75-1.813-4.5
	c0.895-1.75-0.979-4.875-0.979-8.25c0-1.055-0.074-1.986-0.045-2.749c-0.84,0.153-2.074,0.746-4.08,1.999
	C406.029,144.711,406.666,141.503,402.416,140.378z"/>
<path id="LaRioja" fill="#eeeeee" stroke="#000000" stroke-width="0.25" stroke-miterlimit="10" d="M422.979,123.128
	c-1.188-1.625-8.5-4.063-10.625-7.313s-6.625-6.063-8.688-4.938c-2.064,1.125-2.34-5.375-6.983-4.313
	c-4.642,1.062-5.841-5.549-10.579-3.938c-1.615,0.549-2.574-0.654-2.966-1.956c-3.146-0.335-7.368-0.559-9.021,0.248
	c-2.048,1-2.286,0.833-4.702-1.417s0.75-5.25-3.583-7.417c-3.226-1.612-2,1.833-4.833,3.5s0.333-1.333-1.25-4.167
	c-1.25-2.236-1.311-1.255-2.55-0.742c0.329,1.159,0.592,1.999,0.592,3.2c0-1.201-0.263-2.041-0.592-3.2
	c-0.33,0.138-0.74,0.242-1.283,0.242c-2.583,0-2.875-2.667-7.375-2.296s-1.942,1.26-1.625,3.004c0.626,3.443-4.25,4.75-3.375,6
	s3-0.75,2.625,1.375s-2.125,1.75,0.625,2.75s0.875,2.25,0.75,5.282s-2.5,4.718-2.375,7.718s1,3.125-0.375,5.875s0.5,5,2.875,8.75
	s6.875,0.75,7,3.375c0.061,1.255,0.348,2.879,0.633,4.235c2.168-1.201,3.318-1.119,3.992-1.86c1.25-1.375,4.125-6.875,5.875-6.875
	s-1.125,3.625-1.25,6.25s1.25,3.125,4.75,3.25s4.529,0,5.452-1.875s3.548-7.875,5.923-7.625s7-3.125,9.25-1.625s0.625,4.5,5.25,3.5
	c4.625-1,1.375,1.5,3.75,4.375c2.375,2.875-0.125,4.75,4.125,5.875s3.615,4.333,7.75,1.75c2.008-1.253,3.24-1.845,4.082-1.999
	c0.037-0.968,0.256-1.646,0.986-1.956c-1.738-0.989-4.029-2.77-3.754-5.17c0.438-3.813,3.375-8.459,8.375-6.761
	S424.166,124.753,422.979,123.128z"/>
<path id="Burgos" fill="#eeeeee" stroke="#000000" stroke-width="0.25" stroke-miterlimit="10" d="M347.666,129.378
	c-2.375-3.75-4.25-6-2.875-8.75s0.5-2.875,0.375-5.875s2.25-4.687,2.375-7.718s2-4.282-0.75-5.282s-1-0.625-0.625-2.75
	s-1.75-0.125-2.625-1.375s4.001-2.557,3.375-6c-0.317-1.745-2.875-2.634,1.625-3.004s4.792,2.296,7.375,2.296
	c0.543,0,0.953-0.104,1.283-0.242c-0.252-0.891-0.543-1.971-0.783-3.55c-0.552-3.633-3.625-2.875-6.249-4.625
	s-1.626-1.375-5.126-1.625s0-1.625-1.605-2.75c-2.818-1.976,1.605-6.375,0-7.125c-1.604-0.75-3.27,4.216-4.895,3.875
	c-5.341-1.122-3.875-4.958-1.208-7.208s5.75,1.083,8.25,1.833s6.083-3.25,3.917-4.167s-2.167-3.417-6.064-3.5
	c-3.896-0.083-0.77-2.583-1.02-5.667s-3,0.083-1.75-3.542s0.875-2.5-2-3.75s-2.75-1-8.625,1.25c-1.244,0.478-2.206,0.743-2.975,0.88
	c-0.639,3.091-6.508,1.377-10.316-1.088c-4.25-2.75-5,6.167-9.917,6s-2.333,1.417-6.583,4.167c-4.667,3.021-4.667,6.833-2.75,8.333
	s5.583-3.75,6.25-1.75s-1.5,2.25-3.083,3.833s0.583,3.5,1.917,1.75s2.5,0.583,2.417,3.583s-3.667,1.167-5.5,3.167
	s-4.083,1-4.333-2.167s-2.333,3-4,3.167c-0.222,0.022-0.397,0.004-0.544-0.041c-1.046,2.641-5.906,2.184-8.539,5.041
	c-1.707,1.854-2.833,0-2.75,2.75c0.103,3.419-0.25,3.417-1.167,7.5s1.833,3.917,2.167,6.667s-5.083,2.25-5.083,5.333
	s3.083,0.667,4,6.167s2.917,7,3.75,12.25s6.417,2.75,7.167,5.167s-1.25,0-1.667,2.5c-0.658,3.946,5,0.167,5.5,1.512
	c0.913,2.454-2,4.071-2,5.394s-0.417,1.012,1.917,0.929s5.834-3.417,5.833-0.929c0,0.909-5.167,7.012-8.706,7.345
	c-5.686,0.536-0.064,4.854-0.002,6.542c0.028,0.761-0.189,1.085-0.951,1.046c0.008,4.823,3.773,9.887,3.935,14.471
	c3.138,0.733,7.858,4.184,10.892,7.921c3.5,4.313,3.375,0.313,4.25-2.813c0.695-2.483,6.198-3.989,8.493-4.022
	c0.526-1.706,1.529-3.679,3.257-2.853c2.875,1.375,2.875,0.5,4.375-2.125s4-7.5,7.125-8.25s1.75-3.375,1.75-5.5s0.541-5.271,4.125,0
	c2.125,3.125,2.75,1.5,2.875,0.125s1.875-3.875,4.875-3.875s1.5-4.125,4-3.875s-0.75-2.875,2.5-5.5
	c1.07-0.863,1.978-1.458,2.758-1.89c-0.285-1.356-0.573-2.979-0.633-4.235C354.541,130.128,350.041,133.128,347.666,129.378z"/>
<path id="Navarra" fill="#eeeeee" stroke="#000000" stroke-width="0.25" stroke-miterlimit="10" d="M473.332,65.336
	c-2.916,1.334-9.166,2.728-11.666-0.386s-4.834-0.78-8.918-3.947s-8.916,0.083-8.5-4.833c0.418-4.916-0.834-1.667-1.166,1
	c-0.334,2.667-3.25,4.75-6.834,0.667c-3.582-4.083-1.666-3.834,0-5.667c1.668-1.833,2.75-3.917,3-6.917s-3-2.833-5.582-3.75
	c-2.584-0.917-1.168-0.583-3.084,1.083s-5.92,0.228-5.332-1.583c0.916-2.819-3.232-0.469-5.844-2.499
	c-0.578,0.385-0.988,1.155-1.115,2.562c-0.307,3.393-4.189,4.438-6.75,4.875c-2.563,0.437,0.75,3.938-0.875,6.563
	s-4.314,3.5-5.814,6.438c-1.5,2.938,1.375,5.188-1.938,4.813s-2.688,5.063-6.232,3.313c-3.544-1.75-3.954,0.125-4.454,2.813
	c-0.5,2.688,3.313,3.5-0.188,5.938c-3.501,2.438-0.688,2.438-0.75,4.75c-0.062,2.312-3.188,1.875-3.25,4
	c-0.062,2.125,3.938,2.625,1.375,3.813c-2.563,1.188-3.063,1.813-4.938-0.063s-4.313,1.5-5.625,3c-1.313,1.5,1.25,3.188,3.438,1.438
	c2.188-1.75,2.375,5.313,1.188,5.375c-1.188,0.063-0.5,5.563,2.625,4.5c4.738-1.61,5.938,5,10.579,3.938
	c4.642-1.063,4.921,5.438,6.982,4.313c2.063-1.125,6.563,1.688,8.688,4.938s9.439,5.688,10.625,7.313
	c1.188,1.625,1.875,4.813-3.125,3.114s-7.938,2.948-8.375,6.761c-0.273,2.401,2.018,4.182,3.756,5.171
	c0.531-0.227,1.326-0.264,2.559-0.046c4.25,0.75,2.75,3.25,5.125,2.5s3.75,1.375,6,2.5s5-0.625,7.5,0.5s3.875-4.25,5.5-6.875
	s3.875-2.875,0-6.375s-2.25-5.658-2.375-7.704c-0.125-2.047-1-3.921,0.875-6.921s2.568-4.657,2-5.75
	c-1.625-3.125,3.375-5.75,3.5-8.5s-0.125-6,2.125-4.875s2.25-0.625,2.75-2.375s2.313-0.632,2.625-3.125c0.5-4,6-1.5,6-4
	c0-2.063,3.49-3.782,6.959-4.392c0.57-1.869,2.873-1.424,2.873-4.983c0-4.167,1.5-1.833,2.168-6.5
	c0.377-2.638,2.617-3.117,4.494-3.037C476.141,65.808,475.895,64.166,473.332,65.336z"/>
<path id="Álava" fill="#eeeeee" stroke="#000000" stroke-width="0.25" stroke-miterlimit="10" d="M374.118,63.628
	c-2.423-3,4.548-3,3.048-6.125s-7.5-2.375-7.5-0.625s1.875,1.875,0,2.625s-6.625,2-8.5,0s-4-0.5-6.875-3.125s1.625-3.5,0-6.813
	c-1.625-3.314-2.5-3.312-4.5-1.436c-1.309,1.229-6.042,1.438-9.159,1.436c0.984,0.32,0.899,0.553,0.034,3.063
	c-1.25,3.625,1.5,0.459,1.75,3.542s-2.877,5.583,1.02,5.667c3.897,0.084,3.897,2.583,6.064,3.5s-1.417,4.917-3.917,4.167
	s-5.583-4.083-8.25-1.833s-4.132,6.087,1.208,7.208c1.625,0.341,3.289-4.625,4.895-3.875c1.606,0.75-2.818,5.149,0,7.125
	c1.605,1.125-1.895,2.5,1.605,2.75s2.503-0.125,5.126,1.625s5.697,0.992,6.249,4.625c0.24,1.579,0.531,2.659,0.783,3.551
	c1.24-0.514,1.3-1.495,2.55,0.741c1.583,2.833-1.583,5.833,1.25,4.167s1.607-5.112,4.833-3.5c4.333,2.167,1.167,5.167,3.583,7.417
	s2.654,2.417,4.702,1.417c1.651-0.807,5.875-0.583,9.021-0.248c-0.364-1.215-0.233-2.514,0.34-2.544
	c1.188-0.063,1-7.125-1.188-5.375c-2.188,1.75-4.75,0.063-3.438-1.438c1.313-1.501,3.75-4.875,5.625-3s2.375,1.25,4.938,0.063
	c2.563-1.187-1.438-1.688-1.375-3.813c0.063-2.125,3.188-1.688,3.25-4c0.062-2.313-2.75-2.313,0.75-4.75
	c3.5-2.438-0.313-3.25,0.188-5.938c0.075-0.399,0.148-0.779,0.229-1.135C387.764,65.105,376.193,66.198,374.118,63.628z"/>
<path id="Vizcaya" fill="#eeeeee" stroke="#000000" stroke-width="0.25" stroke-miterlimit="10" d="M379.416,52.253c1-2-0.875-2,0-4.5
	s4.313-4.313,4-7.375c-0.102-0.994-0.216-2.053-0.346-3.068c-2.97-0.56-3.72-1-4.341-2.618c-0.625-1.625-6.25-1.813-7.625-3.063
	s-5.875-0.75-5.938-2.75s-1.688-0.688-3.063,0c-1.375,0.688-6.972-2.23-10.063,2.25c-0.991,1.438-6.417,4.119-10.245,3.49
	c0.097,4.305-1.19,4.86-6.047,4.551c-5.25-0.333-2,0.75-6.25,2.75s-3.167,3.083-2.417,7.833c0.078,0.492,0.057,0.897-0.017,1.255
	c0.769-0.137,1.73-0.402,2.975-0.88c5.875-2.25,5.75-2.5,8.625-1.25c0.884,0.384,1.529,0.544,1.966,0.687
	c3.116,0.002,7.851-0.207,9.159-1.436c2-1.876,2.875-1.879,4.5,1.436c1.625,3.313-2.875,4.188,0,6.813s5.002,1.126,6.877,3.126
	s6.625,0.75,8.5,0s0-0.875,0-2.625c0-1.439,4.058-2.196,6.333-0.682C377.179,55.104,378.806,53.471,379.416,52.253z"/>
<path id="Guipúzcoa" fill="#eeeeee" stroke="#000000" stroke-width="0.25" stroke-miterlimit="10" d="M418.166,36.92
	c-2.168-4.667,0.369-6.649-4.584-3c-1.582,1.167-1.166,2.667-4.582,2.667s-4.584,0.417-7.25,2c-2.668,1.583-6.417,2-7.25,0.583
	s-3.372,0.221-8.25-0.417c-1.917-0.25-0.146-0.875-3.146-1.438c-0.013-0.002-0.021-0.004-0.034-0.007
	c0.13,1.017,0.245,2.074,0.346,3.068c0.313,3.063-3.125,4.875-4,7.375s1,2.5,0,4.5c-0.609,1.218-2.236,2.852-3.417,3.943
	c0.49,0.327,0.901,0.753,1.167,1.307c1.5,3.125-5.471,3.125-3.048,6.125c2.075,2.57,13.646,1.478,18.34,5.115
	c0.463-2.028,1.209-3.167,4.226-1.678c3.545,1.75,2.92-3.688,6.233-3.313c3.311,0.375,0.438-1.875,1.938-4.813
	c1.5-2.938,4.188-3.813,5.813-6.438s-1.688-6.125,0.875-6.563c2.563-0.438,6.443-1.482,6.75-4.875
	c0.127-1.406,0.539-2.178,1.115-2.562C418.93,38.135,418.498,37.638,418.166,36.92z"/>
</svg>
