<?xml version="1.0" encoding="utf-8"?>
<!-- Generator: Adobe Illustrator 16.0.0, SVG Export Plug-In . SVG Version: 6.00 Build 0)  -->
<!DOCTYPE svg PUBLIC "-//W3C//DTD SVG 1.1//EN" "http://www.w3.org/Graphics/SVG/1.1/DTD/svg11.dtd">
<svg version="1.1" id="Layer_1" xmlns="http://www.w3.org/2000/svg" xmlns:xlink="http://www.w3.org/1999/xlink" x="0px" y="0px"
	 width="595.279px" height="841.89px" viewBox="0 0 595.279 841.89" enable-background="new 0 0 595.279 841.89"
	 xml:space="preserve">
<path id="Keelung" fill="#eeeeee" stroke="#000000" stroke-miterlimit="10" d="M500.479,48.752c4.977,2.048,4.915,10.086,4.915,10.086
	c5.414,8.049,13.523,7.037,13.523,7.037c4.831,5.269,3.951,2.488,8.196,2.341c0.201-0.006,0.396-0.02,0.583-0.04
	c3.756-0.392,4.686-3.179,4.686-3.179c-1.755-1.024-4.392-5.415-4.392-5.415c-7.902-5.561,3.224-4.098,3.224-4.098
	c8.487,0.438,5.853-3.074,5.853-3.074c2.097-0.37,3.511-1.078,4.452-1.772l-0.21-0.716c-3.221-0.292-3.073-2.634-3.073-2.634
	c-2.929,0.292-7.319-3.366-7.319-3.366c-3.805-2.488-1.313,0.731-1.313,0.731c1.463,2.488-5.416,4.391-5.416,4.391
	c4.829-2.634-4.977-6-4.977-6c-1.154,0.104-1.634-0.791-1.826-1.757c-5.401,2.688-12.515,5.563-12.515,5.563
	C500.917,46.996,500.479,48.752,500.479,48.752z"/>
<g id="NewTaipei">
	<path fill="#eeeeee" stroke="#000000" stroke-miterlimit="10" d="M450.575,41.874c0,0-8.438,1.317-4.686,2.781
		C445.891,44.655,452.476,44.069,450.575,41.874z"/>
	<path fill="#eeeeee" stroke="#000000" stroke-miterlimit="10" d="M578.482,77.582c-0.438-4.975-9.366-1.902-9.366-1.902
		c-4.977-1.171-3.513-9.952-3.513-9.952c-4.829-1.317-3.658-5.708-3.658-5.708c3.219-3.072,1.025-6.293,1.025-6.293
		c3.511-2.78,0.438-2.634,0.438-2.634c-5.997,2.342-19.61-0.438-19.61-0.438c-0.438,1.757-1.754,1.757-1.754,1.757l-0.524-1.772
		c-0.941,0.694-2.356,1.404-4.451,1.772c0,0,2.635,3.512-5.853,3.073c0,0-11.124-1.463-3.222,4.098c0,0,2.635,4.391,4.392,5.415
		c0,0-0.93,2.788-4.688,3.179c-0.188,0.02-0.382,0.034-0.583,0.04c-4.245,0.147-3.366,2.928-8.196-2.341
		c0,0-8.107,1.013-13.524-7.037c0,0,0.063-8.038-4.914-10.086c0,0,0.438-1.757,4.39-1.902c0,0,7.113-2.875,12.515-5.563
		c-0.211-1.057-0.075-2.194-0.075-2.194c-2.635-1.463-3.221-2.926-3.221-2.926c2.635-1.757,0.44-3.074,0.44-3.074
		c-9.074,1.61-8.927-5.708-8.927-5.708c-5.414-0.292-2.489-7.024-2.489-7.024c-12.878-13.61-13.61-8.488-17.121-7.61
		c-9.763-1.159-20.994,9.513-20.994,9.513c-3.578,0.292-4.327,8.049-4.327,8.049c-5.12,3.219-5.12,6.878-5.12,6.878l-1.903,1.171
		c3.182,1.268,4.538,2.487,6.44,3.219c4.342,1.669,3.743,10.244,3.743,10.244c-1.237-9.513-9.743-9.805-9.743-9.805
		c0,2.341-2.779,1.902-2.779,1.902c0,2.781-12.588,8.05-12.588,8.05c-9.806-0.879-11.561,1.463-11.561,1.463
		c-0.108-0.032-0.218-0.053-0.33-0.081c0.23,6.021,4.427,5.643,4.427,5.643c5.854,0.878,9.66,3.512,9.66,3.512
		c-2.926,3.512,9.365,6.146,10.006,6.57c0.638,0.424,0,2.796,0,2.796c6.198,1.756,0,9.951,0,9.951
		c-1.411,8.782-5.991,7.025-5.991,7.025c-14.135-0.585-8.989,12.584-8.989,12.584c1.473,1.476-0.426,4.233,0.88,4.684
		c7.608,2.635,3.511,6.147,3.511,6.147c1.754,2.341,0,4.244,0,4.244c5.268,7.171,10.391,1.317,10.391,1.317
		c3.073,0,5.415,4.684,5.415,4.684c4.83,1.609,4.098,7.171,4.098,7.171c5.122,1.903-2.78,6.439-2.78,6.439
		c-0.879,10.098,9.074,16.537,9.074,16.537l1.466,5.122c11.853,0.292,12.877-6.732,12.877-6.732
		c2.194,0.146,3.075-2.196,3.075-2.196c4.974,0.586,4.829-2.196,4.829-2.196c6.73,1.464,4.516-6.585,4.516-6.585
		c-0.605-2.488,0.606-4.536,0.606-4.536c-2.925-6.733,5.708-5.562,5.708-5.562l0.878-3.805c2.196,1.464,12.732-1.463,12.732-1.463
		c0.146-5.562,8.634-9.074,8.634-9.074c8.05,0.438,11.123-3.659,11.123-3.659c-1.025-4.536,3.219-6.878,3.219-6.878
		c14.342-1.463,11.855-6.878,11.855-6.878c-3.514-3.219-2.196-5.708-2.196-5.708c0.438-3.512,5.415-1.024,9.807-2.634
		c9.855-5.163,15.67-5.628,18.579-5.299c5.362-1.839,6.885-4.654,6.885-4.654C583.311,76.851,578.482,77.582,578.482,77.582z
		 M500.479,75.29c0,0-10.001-0.195-5.903,5.074c0,0-2.928,4.293,3.316,7.805c0,0,0.193,4.293-10.34,0.976
		c0,0-4.296,0.37-5.662,1.258c0,0-2.533-12.575-10.145-11.015c0,0-5.467-5.854-0.195-8.976c0,0,11.122-5.072,1.364-9.561
		c0,0-10.174-5.009-7.92-8.781c0,0,6.751-13.368,12.8-10.196c0,0,5.463-5.806,8.001-8.927c0,0,1.561,2.537,5.658,2.731
		c0,0-3.707,2.098,0,7.586c0,0,8,5.195,2.343,11.628c0,0,9.072,4.787,6.683,9.081c0,0-4.732,8.976,7.95,12.293
		C508.429,76.265,505.213,78.997,500.479,75.29z"/>
</g>
<path id="Taipei" fill="#eeeeee" stroke="#000000" stroke-miterlimit="10" d="M500.479,63.973c2.39-4.293-6.683-9.081-6.683-9.081
	c5.657-6.433-2.343-11.628-2.343-11.628c-3.707-5.488,0-7.586,0-7.586c-4.098-0.195-5.658-2.731-5.658-2.731
	c-2.538,3.122-8.001,8.927-8.001,8.927c-6.049-3.172-12.8,10.196-12.8,10.196c-2.254,3.772,7.92,8.781,7.92,8.781
	c9.758,4.488-1.364,9.561-1.364,9.561c-5.271,3.121,0.195,8.976,0.195,8.976c7.611-1.561,10.145,11.014,10.145,11.014
	c1.366-0.888,5.662-1.257,5.662-1.257c10.533,3.317,10.34-0.976,10.34-0.976c-6.246-3.512-3.316-7.805-3.316-7.805
	c-4.1-5.268,5.903-5.074,5.903-5.074c4.731,3.708,7.95,0.976,7.95,0.976C495.747,72.947,500.479,63.973,500.479,63.973z"/>
<path id="Yilan" fill="#eeeeee" stroke="#000000" stroke-miterlimit="10" d="M555.654,89.876c-4.392,1.609-9.368-0.879-9.806,2.634
	c0,0-1.318,2.488,2.195,5.708c0,0,2.488,5.415-11.857,6.878c0,0-4.242,2.342-3.219,6.878c0,0-3.073,4.099-11.121,3.659
	c0,0-8.489,3.512-8.634,9.074c0,0-10.536,2.926-12.731,1.462l-0.879,3.805c0,0-8.635-1.171-5.708,5.562c0,0-1.209,2.048-0.605,4.536
	c0,0,2.216,8.049-4.517,6.585c0,0,0.145,2.782-4.831,2.195c0,0-0.879,2.342-3.073,2.196c0,0-1.024,7.024-12.877,6.732
	c0,0-7.839-0.147-5.415,8.342c0,0-4.1,1.755-4.392,8.194c0,0-3.512-1.755-5.27,2.927c0,0,2.635,4.976-1.754,8.195v6.731
	c0,0-7.025,11.27-11.71,10.245c0,0-3.807,9.074-5.854,10.684c0,0,4.683-1.171,3.22,9.074c0,0,2.927,2.926,7.902,2.341
	c0,0-0.583,7.024,3.367,5.121c0,0,11.709-9.219,15.806,1.611c0,0,8.488,6.879,13.465,4.39c0,0,8.635,1.171,10.388,6.294
	c0,0,4.392-1.171,6.88,0.878c0,0-1.902-4.245,2.636-5.27c0,0,3.657-0.878,2.487-3.073c0,0,1.78,0-0.354-3.219
	c0,0,2.111-2.342,7.965,2.634c0,0,11.415,7.464,17.271,6c0,0,2.865,1.645,6,2.537c4.331-13.044,6-28.001,6-28.001
	c4.098-1.611,1.17-3.367,1.17-3.367c1.608,0.732,3.212,0,3.212,0c0.433-4.39,9.521-7.609,9.521-7.609
	c-12.88-10.684,2.342-11.561,2.342-11.561c-2.196-12.441,0.144-10.538,0.144-10.538c2.194-1.316-1.902-6.292-1.902-6.292h3.365
	c-11.122-7.902-9.366-24.586-9.366-24.586c-3.072-1.024-0.877-3.219-0.877-3.219c-11.417-33.221,11.12-44.782,11.12-44.782
	c-1.316-4.683,7.023-9.074,7.023-9.074c0.073-2.393,4.121-6.986,8.926-8.007c1.083-0.23,2.053-0.505,2.923-0.803
	C571.325,84.248,565.509,84.712,555.654,89.876z"/>
<path id="Taoyuan" fill="#eeeeee" stroke="#000000" stroke-miterlimit="10" d="M377.109,95.583c4.244-0.147,2.048,8.049,2.048,8.049
	c3.512,0.147,9.807,3.366,9.807,3.366c4.097,5.268,9.949,2.194,9.949,2.194c3.951,0.586,0,8.49,0,8.49
	c5.563,4.389,16.392,10.39,16.392,10.39c0.881-1.317,3.221-2.341,3.221-2.341c-0.292,3.805,1.902,3.073,1.902,3.073
	c4.977,6.44,8.928,7.611,8.928,7.611c4.976-1.024,1.561,8.049,1.561,8.049l0.78,2.781c-1.755,5.414,0,5.853,0,5.853
	c4.391-2.196,10.391,8.049,10.391,8.049c-1.902,8.05,2.05,6.146,2.05,6.146c-1.902,7.024,4.83,11.563,4.83,11.563l3.952-1.611
	c1.754-4.682,5.268-2.927,5.268-2.927c0.293-6.438,4.392-8.194,4.392-8.194c-2.425-8.489,5.415-8.342,5.415-8.342l-1.465-5.122
	c0,0-9.952-6.439-9.075-16.537c0,0,7.904-4.537,2.781-6.438c0,0,0.731-5.563-4.098-7.172c0,0-2.343-4.684-5.417-4.684
	c0,0-5.122,5.854-10.39-1.316c0,0,1.755-1.903,0-4.244c0,0,4.098-3.513-3.512-6.148c-1.304-0.451,0.597-3.207-0.879-4.683
	c0,0-5.146-13.17,8.989-12.584c0,0,4.58,1.755,5.991-7.025c0,0,6.198-8.195,0-9.951c0,0,0.638-2.372,0-2.796
	c-0.64-0.424-12.932-3.059-10.006-6.57c0,0-3.807-2.635-9.66-3.512c0,0-4.197,0.378-4.426-5.642
	c-10.917-2.887-24.258,9.154-24.258,9.154c-9.075,1.024-15.658,4.83-15.658,4.83l-4.537,3.512
	c-9.22-0.732-14.343,19.903-14.343,19.903l-2.823,3.277c3.447,0.376,6.132,1.55,6.132,1.55
	C376.26,92.651,377.109,95.583,377.109,95.583z"/>
<path id="Hsinchu" fill="#eeeeee" stroke="#000000" stroke-miterlimit="10" d="M359.84,122.364c9.12,1.702,11.503,6.732,11.503,6.732
	c2.574,3.366,1.521,5.269,1.521,5.269l-3.805,0.585c-4.828-3.805-5.853,0.731-5.853,0.731c-2.05-0.292-2.636,2.782-2.636,2.782
	c-2.195,4.537-5.854,3.512-5.854,3.512c0.587,1.171-1.608,4.391-1.608,4.391c-2.196,4.976,2.634,2.634,2.634,2.634l0.729,1.756
	l4.65-1.756c1.433,0.878,1.058,2.05,0.325,4.537c-0.73,2.489,0,4.254,0,4.254c5.122-3.65,4.685,4.674,4.685,4.674l2.34-0.878
	c2.49,7.024,8.052,6.587,8.052,6.587c-1.61,5.121,4.097,1.316,4.097,1.316s2.027,2.55,2.085,2.652
	c3.357,5.891-0.036,7.446-0.036,7.446c0,5.708-3.806,5.269-3.806,5.269c6.147,3.219,4.686,6.878,4.686,6.878
	c-3.806,1.024-2.048,8.05-2.048,8.05l5.853-0.793c4.391-3.135,9.511-2.72,9.511-2.72c7.465,3.366,16.099-1.317,16.099-1.317
	l0.732,4.037c3.658,1.109,5.561,6.794,5.561,6.794c3.805,3.805,2.195,9.219,2.195,9.219c8.049,1.611,12.146-1.902,12.146-1.902
	c2.048-1.61,5.854-10.684,5.854-10.684c4.684,1.024,11.709-10.245,11.709-10.245v-6.731c4.39-3.22,1.757-8.196,1.757-8.196
	l-3.952,1.611c0,0-6.731-4.538-4.83-11.563c0,0-3.95,1.903-2.05-6.146c0,0-6-10.245-10.391-8.049c0,0-1.754-0.439,0-5.854
	l-0.78-2.781c0,0,3.414-9.074-1.561-8.049c0,0-3.951-1.171-8.927-7.611c0,0-2.196,0.732-1.903-3.073c0,0-2.34,1.023-3.221,2.341
	c0,0-10.829-6.001-16.392-10.39c0,0,3.952-7.904,0-8.49c0,0-5.854,3.073-9.949-2.194c0,0-6.294-3.219-9.806-3.367
	c0,0,2.194-8.195-2.049-8.048c0,0-0.85-2.932-5.766-0.002c0,0-2.687-1.174-6.133-1.55l-5.374,6.236
	c-0.065,2.644-3.495,9.807-7.153,16.737C355.6,120.313,359.84,122.364,359.84,122.364z"/>
<path id="HsinchuCity" fill="#eeeeee" stroke="#000000" stroke-miterlimit="10" d="M347.399,143.146c0,0,0.106,1.317,1.1,2.634h4.982
	c0.598-0.982,1.668-2.944,1.237-3.805c0,0,3.658,1.024,5.854-3.512c0,0,0.586-3.074,2.636-2.782c0,0,1.024-4.536,5.853-0.731
	l3.805-0.585c0,0,1.054-1.902-1.521-5.269c0,0-2.382-5.031-11.503-6.732c0,0-4.238-2.052-7.155-5.36
	c-4.242,8.032-8.796,15.751-8.796,15.751c-2.636,7.903,2.925,4.976,2.925,4.976c-1.464,1.024-3.22,4.83-3.22,4.83
	c-0.23,0.625-0.649,1.15-1.155,1.594C344.021,144.721,346.142,144.991,347.399,143.146z"/>
<g id="Kaohsiung">
	<path fill="#eeeeee" stroke="#000000" stroke-miterlimit="10" d="M210.273,637.359c0,0,1.903,1.463,8.927,11.561
		c0,0,3.073,2.193,0,1.464C219.2,650.383,207.492,637.651,210.273,637.359z"/>
	<path fill="#eeeeee" stroke="#000000" stroke-miterlimit="10" d="M372.817,470.037c-2.148-3.316-7.416-4.295-7.416-4.295
		c-4.487-2.73,2.342-6.244,2.342-6.244l-1.951-2.729c1.951,0.194,6.721-2.928,6.721-2.928c3.037-5.275-1.167-4.041-2.572-9.002
		c-2.049-7.236-15.267-6.531-23.303-5.392c-0.319,0.796-1.21,1.858-2.895,3.271c0,0-6.164,5.397-8.781,7.755
		c-2.927,4.245-3.658,14.93-10.83,11.71c0,0-2.049,6.729-8.78,6.729c-6.147,10.977-11.27,3.66-12.878,14.049
		c0,0-13.466-9.073-12.733,1.028c0,0-1.023,3.072,1.903,6.143l-0.112,5.236c2.472,0.686,1.428,2.522,1.428,2.522
		c-2.488,1.61-3.22,5.415-3.22,5.415c2.49,4.978-6,4.39-17.497,28.245c-15.87,12.879-25.821,23.561-25.821,23.561
		c-0.879,6.147-5.123,12.879-5.123,12.879c-6.73-6.438-13.024,5.416-13.024,5.416c-3.22-1.902-14.195-3.366-14.195-3.366
		c-5.268,6.586-11.708-2.958-11.708-2.958c-2.585,2.464-8.476,0.244-11.99-1.433c1.342,10.801,4.527,13.172,4.527,13.172
		c3.951-2.927,2.78,2.635,2.78,2.635c-7.754-4.83,0.147,8.779,0.147,8.779l-1.902,0.587c0.292,1.169,2.34,2.05,2.34,2.05
		l9.658,20.777c0.44,3.807,2.927,1.611,2.927,1.611c-0.292,1.171,1.609,6.586,1.609,6.586c-3.951-4.099-3.657,1.756-3.657,1.756
		c-8.196,12.438,4.456,10.977,4.456,10.977c2.262,0.73,4.178,6.731,4.178,6.731c-0.438,0.438-3.073-3.66-3.073-3.66
		s-0.245-0.339-0.88,0c-1.755-0.44,7.318,11.413,7.318,11.413c0.73,1.316,3.365,0.733,3.365,0.733
		c-2.489,1.17,1.61,3.071,1.61,3.071c2.34,1.318-1.171,1.318-1.171,1.318c-1.171-2.633-3.805-1.903-3.805-1.903
		c5.415,12.442,11.56,10.536,11.56,10.536c3.498,4.789,7.859,6.653,11.245,7.343c-1.154-5.303,0.315-12.172,0.315-12.172
		c4.83-5.414,4.245-14.047,4.245-14.047c-3.659-8.779-1.024-22.395-1.024-22.395c4.976-5.707,3.366-17.268,3.366-17.268
		c0.585-6.441,2.048-15.514,2.048-15.514c0-5.854,7.61-0.438,9.22-1.023c4.685-1.61,5.562,1.754,9.513-0.147
		c3.366-4.243,11.708-10.684,11.708-10.684c3.221,0.292,6.146-2.341,6.146-2.341l1.609,1.902c3.953-1.902,2.927,0.44,2.927,0.44
		c-2.048,5.415,2.195,3.658,2.195,3.658c3.219,2.048,7.316-4.244,7.316-4.244c7.466-3.365,13.025,6.146,13.025,6.146
		c3.951,6.292,6.001,1.313,6.001,1.313c4.244-4.389,8.78-4.681,8.78-4.681c2.196,4.533,4.244,1.754,4.244,1.754
		c0.972-1.543,1.697-1.877,2.219-1.716c0.108-1.031-0.05-2.125-0.756-3.112c0,0-7.024,1.023-6.294-9.661
		c0,0-4.393-5.852,0.585-13.316c0,0,5.414-5.707,3.659-7.171c0,0,3.365,0.439,1.902-5.27c0,0,9.367,0.962,1.465-6.324
		c0,0,0-1.725,1.608-3.48c0,0,6.339-8.048,1.561-18.73c0,0,2.392,0.73,3.416-4.391c0,0-0.146-0.732,2.048-1.318
		c0,0,2.637-2.779,0-4.974c0,0,1.466-3.808,1.171-6.588c2.781-4.533,8.781-6.728,10.537-10.533c0,0,11.121-4.49,14.789-5.928
		c0.173,0.097,0.33,0.191,0.493,0.287c1.895-2.578,2.67-6.068,2.67-6.068L372.817,470.037z"/>
</g>
<path id="Hualien" fill="#eeeeee" stroke="#000000" stroke-miterlimit="10" d="M524.628,239.88c-5.855,1.464-17.271-6-17.271-6
	c-5.854-4.976-7.965-2.634-7.965-2.634c2.135,3.22,0.354,3.22,0.354,3.22c1.17,2.194-2.487,3.073-2.487,3.073
	c-4.537,1.024-2.636,5.269-2.636,5.269c-2.488-2.05-6.88-0.878-6.88-0.878c-1.753-5.122-10.387-6.294-10.387-6.294
	c-4.978,2.489-13.466-4.39-13.466-4.39c-0.121-0.32-0.25-0.619-0.382-0.903c-2.316,0.792-4.876,3.288-5.034,10.416
	c0,0-1.172,2.489-6.001,3.512c0,0,1.758,4.684-5.268,4.537c0,0,1.61,5.416,0.879,6.732c0,0-11.855,4.244-7.464,12.146
	c0,0-5.124,0.878-5.562,3.805c0,0-16.392,6.293-5.415,12.732c0,0,9.657,5.122,4.829,8.781c0,0,2.968,4.537-8.029,9.074
	c0,0,2.177,7.578-5.043,15.472l2.146,3.991c0,0,3.317,1.952,0.195,7.416c0,0,4.489,7.609-1.172,9.952c0,0-1.56,9.95-5.465,13.073
	c0.197,9.366-3.314,11.512-2.729,13.951c0,0-9.171,4.197-1.756,6.146c0,0,3.707,0.977,2.342,4.88c0,0,6.633,7.804-3.123,31.804
	c0,0-6.438,0.197-7.806,4.099c0,0-2.341-1.172-4.878-0.977c0,0-1.366,2.341,1.365,5.469c0,0-1.56,1.951-3.315,1.951
	c0,0,4.291,7.997-2.733,8.972c0,0-4.293-2.339-10.925,0.587c0,0-10.538,6.098-4.295,8.704c0,0,2.051,5.073-8.967,8.257
	c1.629,3.826,5.04,3.122,2.224,8.017c0,0-4.769,3.122-6.72,2.93l1.95,2.728c0,0-6.829,3.512-2.342,6.244
	c0,0,5.268,0.977,7.416,4.297l3.511,2.535c0,0-0.774,3.486-2.67,6.064c8.723,5.08,3.941,5.805,9.304,14.616
	c4.489,0.195,6.635,3.707,10.536,3.707c0,0,4.491,8.39,8.392,2.732c0,0,6.441,0.39,5.854,5.854c0,0,1.755,4.296,4.487,5.467
	c0,0-2.927,4.292,3.903,4.488l0.976,2.73c0,0,5.073-2.216,6.634,6.049c0,0,11.122,1.171,11.318-8.194c0,0-2.343-9.563,2.632-10.147
	c0,0,3.661-9.074,8.052-19.903c1.902-6.49-0.44-9.95,10.829-20.492c0,0-7.609-3.656-2.78-10.973c0,0,6.339-15.319,18.266-5.557
	c0.717-1.817,1.197-2.931,1.197-2.931c0.731-4.537-1.757-5.706-1.757-5.706c0.421-0.037,0.808-0.138,1.161-0.279
	c2.481-1.008,3.376-4.259,3.376-4.259c-5.268-13.317,3.073-14.928,4.684-35.855c3.805-7.903,3.365-18.293,3.365-18.293
	c4.683-7.171,4.245-18.731,4.245-18.731c6.438-9.074,8.195-29.563,8.195-29.563c-5.12-0.439-2.636-1.903-2.636-1.903
	c4.244-4.683,9.366-18.293,9.366-18.293c-13.171-14.634,1.902-30.147,1.902-30.147c-0.729-16.098,17.271-25.024,17.271-25.024
	c3.42-3.515,6.111-9.343,8.194-15.611C527.491,241.525,524.628,239.88,524.628,239.88z"/>
<path id="Changhua" fill="#eeeeee" stroke="#000000" stroke-miterlimit="10" d="M298.179,360.177c0,0-1.592-2.243-6.357-1.072
	c0,0-9.449-4.195-5.448-9.074l-0.487-4.489c0,0,3.024-4.977,2.342-15.707c0,0-2.637-2.635,2.534-4.976c0,0,3.219-5.659-1.854-10.147
	c0,0,2.53-0.705,6.53-0.119c0,0,2.922-3.639,1.764-4.174c-1.902-0.878-4.1-2.76-7.316-0.585c0,0-3.951,1.757-3.513-11.317
	c0,0-4.39-1.414-4.535-8c0,0-6.031-0.836-10.246-4.392c-9.249-8.42-10.234-15.396-13.548-16.728
	c-0.167,3.143-6.502,8.093-6.502,8.093c-8.731,2.664-8.925,8.195-8.925,8.195c-4.83,0-8.342,7.757-8.342,7.757
	c8.782,2.634,8.488-6.439,8.488-6.439l5.708,0.293c-3.805,11.561-10.683,8.634-10.683,8.634c-5.562,0.585-6.733,6.878-6.733,6.878
	c6-0.878,8.781,0.439,8.781,0.439c-9.951,1.756-12.732,15.074-12.732,15.074c-2.488-0.439-4.098,0.732-4.098,0.732
	c0.731,5.122-5.415,11.269-5.415,11.269c8.634-0.439-5.269,16.098-5.269,16.098c-5.121-1.317-4.83,4.207-4.83,4.207
	c1.624,1.156,3.689,2.983,4.232,4.118c3.589,1.889,11.396,4.781,20.988,1.042c0,0,10.733,1.719,13.953-0.261
	c0,0,5.089,9.482,25.577,6.993c0,0,8.521,2.48,15.652,3.086C292.196,364.981,299.964,363.39,298.179,360.177z"/>
<g id="Taichung">
	<path fill="#eeeeee" stroke="#000000" stroke-miterlimit="10" d="M261.056,248.662c0,0,0.218,4.391-3.001,4.903
		c0,0-0.146,2.561-0.586,3.439c0,0,2.137,0.784,4.173-4.17C261.641,252.833,262.227,248.515,261.056,248.662z"/>
	<path fill="#eeeeee" stroke="#000000" stroke-miterlimit="10" d="M448.088,229.636c-3.951,1.904-3.365-5.121-3.365-5.121
		c-4.976,0.585-7.904-2.341-7.904-2.341c1.362-9.535-2.597-9.181-3.155-9.087l-0.065,0.014c0,0-4.099,3.512-12.146,1.902
		l-2.587,2.146c-1.298,10.292-5.268,9.367-5.268,9.367c-3.707-8.325-7.024,1.755-10.926,3.492
		c-7.024,2.946-14.83,11.142-14.83,11.142c-8.196,0.391-10.147,5.659-10.147,5.659c-5.074,0.586-6.353-3.831-6.353-3.831
		c-2.644-6.822-11.501-5.145-11.501-5.145c-4.978-2.732-10.83-0.977-10.83-0.977c2,14.83,1.024,10.538-9.367,11.803
		c-12.99,1.582-14.829-7.704-14.829-7.704c-8.587,2.147-13.11-6.87-16.196-7.609c-7.807-0.392-16.001-13.27-16.001-13.27
		c-1.376-1.263-3.899-4.817-5.746-7.533c-3.981,4.156-5.694,8.752-5.694,8.752c-5.415,1.755-2.341,6.072-3.66,8.047
		c-5.276,4.977-4.83,5.634-5.276,7.61c3.271-0.646,8.072,4.899,7.965,4.771c-1.379-1.387-9.061-3.938-9.2-1.99
		c-0.18,2.549-1.463,5.414-1.463,5.414c-2.927-4.65-5.268-1.17-5.268-1.17c-3.22,4.097,0.585,4.244,0.585,4.244
		c3.511-0.147,2.925,1.578,2.925,1.578h-2.195l-0.73,4.569c0.292-2.195-1.171-2.634-1.171-2.634
		c-2.634,2.781-2.781,10.83-2.781,10.83l-2.195-1.902c-2.195,1.024-3.658,2.926-3.658,2.926c1.316-4.537-0.731-3.074-0.731-3.074
		c-4.538,5.708,1.903,6.732,1.903,6.732c1.377,0.437,1.867,1.214,1.819,2.151c3.312,1.332,4.298,8.308,13.548,16.728
		c4.214,3.554,10.246,4.391,10.246,4.391c0.146,6.586,4.535,8,4.535,8c-0.438,13.074,3.513,11.317,3.513,11.317
		c3.215-2.175,5.414-0.292,7.314,0.585c0,0,0.184,0.147,0.224,0.255c1.25,1.37,7.823,7.684,19.095,2.963c0,0,1.61-3.658,5.854-4.975
		c0,0-2.343-1.024,1.464-3.513c0,0-0.73-4.829,6.731-6.292c0,0-2.634-14.635,6.293-11.708c0,0,6.146,1.463,3.075,8.488
		c0,0,3.658-3.074,2.78-7.904c0,0,4.683,6.586,13.316-1.558c0,0,10.391,6.68,13.464-7.955c0,0,9.22,4.244,18.294-8.049
		c0,0,2.049-0.991,7.758-0.422c0,0,1.169-5.286,5.268-4.261c1.705,0.427,0.146-4.244,6.439-0.293c0,0,1.171-3.708,10.684-1.268
		c0,0,3.511-1.074,4.975-4.878c0,0,1.467,4.536,9.951,1.462c0,0,4.088,0.282,7.009,2.171c1.327-4.676,8.214-7.147,8.214-7.147
		c0.731-1.316-0.879-6.732-0.879-6.732c7.025,0.147,5.268-4.537,5.268-4.537c4.829-1.024,6.001-3.512,6.001-3.512
		c0.157-7.128,2.717-9.624,5.034-10.417C459.115,220.956,448.088,229.636,448.088,229.636z"/>
</g>
<path id="Nantou" fill="#eeeeee" stroke="#000000" stroke-miterlimit="10" d="M422.915,259.053c-1.464,3.805-4.975,4.878-4.975,4.878
	c-9.513-2.44-10.686,1.268-10.686,1.268c-6.292-3.951-4.733,0.72-6.438,0.293c-4.097-1.024-5.269,4.261-5.269,4.261
	c-5.708-0.569-7.756,0.422-7.756,0.422c-9.074,12.293-18.293,8.048-18.293,8.048c-3.075,14.636-13.466,7.956-13.466,7.956
	c-8.635,8.143-13.316,1.558-13.316,1.558c0.878,4.829-2.78,7.902-2.78,7.902c3.073-7.024-3.075-8.488-3.075-8.488
	c-8.926-2.926-6.293,11.709-6.293,11.709c-7.463,1.463-6.732,6.292-6.732,6.292c-3.805,2.488-1.464,3.513-1.464,3.513
	c-4.242,1.316-5.853,4.975-5.853,4.975c-11.273,4.72-17.847-1.594-19.095-2.963c0.368,0.98-1.986,3.918-1.986,3.918
	c-4-0.584-6.529,0.12-6.529,0.12c5.073,4.487,1.853,10.147,1.853,10.147c-5.171,2.341-2.535,4.976-2.535,4.976
	c0.684,10.73-2.341,15.707-2.341,15.707l0.488,4.49c-4.001,4.879,5.447,9.074,5.447,9.074c4.767-1.171,6.357,1.072,6.357,1.072
	c1.785,3.213-5.983,4.805-10.284,5.429c0.991,0.085,1.958,0.133,2.868,0.133c0,0,5.271,10.635-0.586,12.708
	c0,0-0.438,9.245,1.756,11.585c0,0-0.438,2.781-3.658,7.172c0,0-2.634,11.125,8.341,10.099c0,0,2.194-3.767,6.731-2.102
	c0,0,1.816-3.305,3.922-2.244c1.271,0.333,2.195,2.12,1.603,6.215c0.195-0.908,0.725-1.614,1.795-1.87c0,0,2.486-2.196,9.219,0.583
	c0,0,4.098,1.756,8.049,1.903c0,0,3.073,5.999-2.048,11.854c0,0-2.409,1.902,2.162,4.977c2.276,3.499,0.178,9.365,7.935,11.561
	c0,0,12.218-2.625,10.65,1.267c8.036-1.142,21.254-1.846,23.303,5.394c0.101,0.36,0.22,0.687,0.349,0.985
	c11.018-3.183,8.967-8.257,8.967-8.257c-6.243-2.609,4.295-8.704,4.295-8.704c6.634-2.926,10.925-0.587,10.925-0.587
	c7.024-0.977,2.733-8.972,2.733-8.972c1.756,0,3.316-1.953,3.316-1.953c-2.732-3.125-1.366-5.467-1.366-5.467
	c2.535-0.197,4.878,0.977,4.878,0.977c1.366-3.902,7.806-4.099,7.806-4.099c9.756-24.001,3.123-31.805,3.123-31.805
	c1.367-3.903-2.342-4.88-2.342-4.88c-7.415-1.95,1.756-6.146,1.756-6.146c-0.586-2.439,2.926-4.585,2.729-13.952
	c3.903-3.122,5.464-13.072,5.464-13.072c5.66-2.342,1.172-9.952,1.172-9.952c3.122-5.465-0.195-7.416-0.195-7.416l-2.146-3.992
	c7.22-7.895,5.043-15.472,5.043-15.472c10.999-4.537,8.029-9.074,8.029-9.074c4.829-3.658-4.829-8.781-4.829-8.781
	c-10.977-6.439,5.415-12.732,5.415-12.732c0.438-2.926,5.562-3.805,5.562-3.805c-1.044-1.876-1.162-3.543-0.75-5
	c-2.922-1.89-7.008-2.171-7.008-2.171C424.38,263.589,422.915,259.053,422.915,259.053z"/>
<g id="Yunlin">
	<path fill="#eeeeee" stroke="#000000" stroke-miterlimit="10" d="M188.614,377.155c0,0-6.439,4.342-1.268,4.928
		C187.346,382.082,189.949,379.315,188.614,377.155z"/>
	<path fill="#eeeeee" stroke="#000000" stroke-miterlimit="10" d="M307.271,402.957c-2.104-1.061-3.922,2.244-3.922,2.244
		c-4.537-1.665-6.731,2.102-6.731,2.102c-10.975,1.025-8.341-10.099-8.341-10.099c3.22-4.391,3.658-7.172,3.658-7.172
		c-2.195-2.34-1.756-11.585-1.756-11.585c5.856-2.073,0.586-12.708,0.586-12.708c-7.463,0-18.521-3.219-18.521-3.219
		c-20.489,2.488-25.577-6.994-25.577-6.994c-3.219,1.98-13.952,0.261-13.952,0.261c-9.592,3.739-17.399,0.848-20.989-1.042
		c0.436,0.915-0.117,1.377-2.695,0.676c-3.256-2.525-8.317-2.659-8.317-2.659c2.537,0.779,3.122,3.316,3.122,3.316
		c-2.084-1.886-4.877-2.146-4.877-2.146c5.463,4.683-0.585,3.511-0.585,3.511c-10.342,1.561-8.001,5.854-8.001,5.854
		c4.878-1.562-2.146,6.244-2.146,6.244c0.586,3.318,5.269,3.122,5.269,3.122c-2.536,1.17-2.73,3.902-2.73,3.902
		c0.781,11.513-0.585,2.537-0.585,2.537c-1.756,1.17-0.195,8.586-0.195,8.586c-12.49,16.976-5.269,22.439-5.269,22.439
		c-2.341,2.342-1.17,11.708-1.17,11.708c3.418,3.771,1.354,5.051-0.815,5.474l0,0c0,0,5.043-0.306,11.451,2.675
		c4.196,1.953-0.633-4.243,5.854,1.314c0,0,7.024-1.61,4.881-8.636c0,0,2.73-3.22,5.217,1.61c0,0,5.561-1.9,4.976-7.313
		c0,0,0-2.053,4.245,0c0,0-0.88-2.053,4.097-1.756c0,0,1.171-4.246,0-4.683c0,0,7.024,2.817,9.513-5.323
		c0,0,3.365,1.371,5.269-4.044c0,0,2.488-0.441,3.659,2.486c0,0,9.805,0.146,16.83-3.511c0,0,3.366-0.545,3.951,5.069
		c0,0,4.829,6.785,10.83,4.737c0,0,0.732,6.438,15.659,0.586c0,0,5.561-2.929,1.171,3.363c0,0,2.049,0.295,7.904,1.902
		c0,0,1.024-3.511,12.439,0.584c0,0-2.375-4.502-1.795-7.2C309.465,405.076,308.542,403.29,307.271,402.957z"/>
</g>
<path id="Tainan" fill="#eeeeee" stroke="#000000" stroke-miterlimit="10" d="M202.37,567.08c0,0,6.44,9.546,11.708,2.958
	c0,0,10.976,1.467,14.195,3.366c0,0,6.294-11.854,13.024-5.414c0,0,4.244-6.729,5.123-12.879c0,0,9.95-10.684,25.821-23.561
	c11.497-23.855,19.986-23.27,17.497-28.245c0,0,0.732-3.806,3.22-5.417c0,0,2.342-4.097-8.195-2.339c0,0-3.66,1.466-4.684-2.34
	c0,0-4.976,11.415-14.927,0c0,0,3.366-5.856-0.293-8.342c0,0-1.465-8.779,3.366-11.854c0,0,0.73-2.781-4.976-4.244
	c0,0-3.66-2.636-0.732-4.101c0,0-0.438-2.779-6-3.512c0,0,8.49-4.976-1.024-4.388l-2.927-2.343c0,0-4.535,1.9-11.269-2.049
	c0,0-14.049,1.754-19.025,6.729c0,0-3.22-2.486-3.366,1.61c0,0-5.121,3.076-5.121,5.857c-6.146,1.608-2.634,4.974-9.952,6.143
	c0,0-2.342,5.856-5.122,7.61c0,0-4.683-2.195-7.463-0.292c0,0-0.147-3.22-4.391-4.244c-2.922-0.706-5.566-4.462-8.268-6.353
	c-0.647,3.907-2.269,9.425-2.269,9.425c-6,3.88,0.487,8.734,0.487,8.734c-0.097,2.535-2.633,4.585-2.633,4.585
	c-2.628,3.123,1.543,3.556,3.994,3.675c0.496-0.055,1.002,0.149,1.567,0.227c0,0-0.683,0.029-1.597-0.017
	c-2.001,0.221-3.379,1.281-3.379,1.281c-4.49-2.925-4.685,4.78-4.685,4.78c-3.22,0.881-1.073,5.952-1.073,5.952
	c4.195-0.487,2.049,1.171,2.049,1.171c-4.782,0.39,0,2.83,0,2.83c-2.34,0.193-1.757,1.855-1.757,1.855
	c2.245,1.948,2.341,5.56,2.341,5.56c-4-1.951-10.641,4.195-10.641,4.195c1.457,1.365,0,6.244,0,6.244l1.372,0.49
	c-2.536,1.072-0.78,4.486-0.78,4.486c2.243-0.976,5.171,1.367,5.171,1.367c7.707-8.881,1.756,2.535,1.756,2.535
	c12.583,5.66,21.365,20.685,21.365,20.685c0.098,2.306,0.272,4.337,0.497,6.145C193.894,567.324,199.785,569.545,202.37,567.08z"/>
<g id="Miaoli">
	<path fill="#eeeeee" stroke="#000000" stroke-miterlimit="10" d="M292.617,201.441c0,0-2.145,0.098-1.463,1.073
		C291.155,202.514,292.131,203.489,292.617,201.441z"/>
	<path fill="#eeeeee" stroke="#000000" stroke-miterlimit="10" d="M292.617,220.076c0,0,8.195,12.878,16.001,13.27
		c3.085,0.74,7.609,9.756,16.196,7.609c0,0,1.838,9.286,14.829,7.705c10.392-1.265,11.367,3.027,9.367-11.803
		c0,0,5.854-1.755,10.829,0.977c0,0,8.859-1.677,11.504,5.146c0,0,1.276,4.416,6.35,3.83c0,0,1.952-5.268,10.147-5.659
		c0,0,7.807-8.196,14.831-11.142c3.902-1.737,7.218-11.817,10.925-3.492c0,0,3.97,0.925,5.269-9.367l2.586-2.146
		c0,0,1.61-5.414-2.194-9.219c0,0-1.901-5.685-5.561-6.794l-0.732-4.037c0,0-8.633,4.683-16.099,1.317c0,0-5.121-0.415-9.511,2.72
		l-5.854,0.793c0,0-1.757-7.024,2.049-8.05c0,0,1.463-3.658-4.686-6.878c0,0,3.805,0.438,3.805-5.269c0,0,3.394-1.555,0.036-7.445
		c-0.058-0.103-2.085-2.652-2.085-2.652s-5.706,3.805-4.096-1.316c0,0-5.562,0.438-8.052-6.587l-2.34,0.879
		c0,0,0.438-8.324-4.685-4.674c0,0-0.73-1.766,0-4.254c0.733-2.487,1.104-3.659-0.325-4.537l-4.65,1.756l-0.73-1.756
		c0,0-4.828,2.342-2.633-2.633c0,0,0.155-0.232,0.372-0.586h-4.982c-0.993-1.316-1.1-2.634-1.1-2.634
		c-1.256,1.844-3.378,1.575-4.96,1.008c-1.745,1.533-4.551,2.063-4.551,2.063c0.292,5.562-6.732,9.807-6.732,9.807
		c-1.758,2.878,4.587,4.635,4.587,4.635l-4.001,0.486c-12.296-3.805-14.488,3.513-14.488,3.513c-4.318,5.048,0,7.903,0,7.903
		c-1.977-0.805-6.1,0.389-6.1,0.389c-5.829,0.635-10.001,17.684-10.001,17.684c-1.463,7.902-11.267,19.245-11.267,19.245
		c-1.123,0.829-2.124,1.734-3.014,2.663C288.717,215.259,291.241,218.813,292.617,220.076z"/>
</g>
<path id="Chiayi" fill="#eeeeee" stroke="#000000" stroke-miterlimit="10" d="M335.985,438.182c-7.757-2.197-5.658-8.062-7.935-11.563
	c-4.57-3.072-2.162-4.977-2.162-4.977c5.119-5.853,2.048-11.852,2.048-11.852c-3.951-0.147-8.049-1.905-8.049-1.905
	c-6.732-2.778-9.219-0.582-9.219-0.582c-4.246,1.025,0,9.074,0,9.074c-11.415-4.1-12.44-0.586-12.44-0.586
	c-5.855-1.609-7.904-1.902-7.904-1.902c4.391-6.294-1.171-3.365-1.171-3.365c-14.926,5.854-15.659-0.586-15.659-0.586
	c-6,2.05-10.829-4.735-10.829-4.735c-0.586-5.614-3.951-5.068-3.951-5.068c-7.024,3.657-16.83,3.512-16.83,3.512
	c-1.171-2.928-3.659-2.487-3.659-2.487c-1.903,5.414-5.27,4.044-5.27,4.044c-2.488,8.142-9.511,5.321-9.511,5.321
	c1.171,0.439,0,4.683,0,4.683c-4.976-0.293-4.099,1.756-4.099,1.756c-4.244-2.049-4.244,0-4.244,0
	c0.585,5.417-4.977,7.315-4.977,7.315c-2.487-4.828-5.217-1.608-5.217-1.608c2.145,7.025-4.881,8.636-4.881,8.636
	c-6.488-5.561-1.658,0.635-5.853-1.316c-6.407-2.98-11.451-2.675-11.451-2.675l0,0c-1.425,0.275-2.893,0.184-2.893,0.184
	c-2.733,7.027,1.561,7.415,1.561,7.415c1.952-1.559,5.854-0.975,5.854-0.975c-3.511,0-2.733,7.025-2.733,7.025
	c-4.293,1.171-0.975,2.732-0.975,2.732c16.976,0,5.66,1.56,5.66,1.56c-8.001-1.17-3.318,9.563-3.318,9.563
	c4.49-0.392,1.561,4.486,1.561,4.486c-5.853-2.731-6.634,0.976-6.634,0.976c4.878-0.976,3.707,1.757,3.707,1.757
	c0.977,4.295-0.779,2.539-0.779,2.539c-1.171-3.709-2.927-2.148-2.927-2.148c0.782,3.317-1.952,4.486-1.952,4.486
	c0,0.668-0.102,1.549-0.267,2.528c2.701,1.891,5.347,5.646,8.267,6.353c4.244,1.024,4.391,4.244,4.391,4.244
	c2.781-1.903,7.463,0.291,7.463,0.291c2.781-1.753,5.123-7.609,5.123-7.609c7.315-1.167,3.805-4.534,9.951-6.143
	c0-2.781,5.121-5.858,5.121-5.858c0.147-4.096,3.366-1.61,3.366-1.61c4.977-4.972,19.025-6.728,19.025-6.728
	c6.732,3.951,11.268,2.049,11.268,2.049l2.927,2.342c9.513-0.587,1.024,4.389,1.024,4.389c5.561,0.732,6,3.512,6,3.512
	c-2.927,1.463,0.731,4.101,0.731,4.101c5.708,1.463,4.976,4.243,4.976,4.243c-4.831,3.074-3.366,11.854-3.366,11.854
	c3.659,2.489,0.293,8.342,0.293,8.342c9.952,11.416,14.927,0,14.927,0c1.024,3.807,4.683,2.341,4.683,2.341
	c3.479-0.58,5.548-0.52,6.768-0.18l0.112-5.236c-2.927-3.072-1.903-6.143-1.903-6.143c-0.733-10.102,12.732-1.024,12.732-1.024
	c1.609-10.393,6.73-3.076,12.878-14.053c6.732,0,8.781-6.729,8.781-6.729c7.171,3.219,7.902-7.465,10.829-11.71
	c2.617-2.357,8.781-7.754,8.781-7.754C353.693,434.375,335.985,438.182,335.985,438.182z M259.326,443.888
	c-1.096-1.366-4.76-3.512-4.76-3.512c-7.219,10.927-10.535,0.978-10.535,0.978c-9.171,1.171-5.075-4.881-5.075-4.881
	c-4.292-2.147,0-4.878,0-4.878c5.075,1.756,8.782-3.515,8.782-3.515h3.318c2.146,5.076,4.097,2.343,4.097,2.343
	c2.536,1.953,7.531,7.806,7.531,7.806C259.679,439.4,259.326,443.888,259.326,443.888z"/>
<path id="ChiayiCity" fill="#eeeeee" stroke="#000000" stroke-miterlimit="10" d="M255.153,430.423c0,0-1.95,2.733-4.097-2.343h-3.318
	c0,0-3.707,5.271-8.782,3.515c0,0-4.292,2.729,0,4.878c0,0-4.097,6.052,5.075,4.881c0,0,3.316,9.949,10.535-0.978
	c0,0,3.664,2.146,4.76,3.512c0,0,0.353-4.488,3.356-5.659C262.683,438.229,257.689,432.376,255.153,430.423z"/>
<g id="Lienchiang">
	<path fill="#eeeeee" stroke="#000000" stroke-miterlimit="10" d="M15.505,58.097C-0.734,69.394,2.561,53.391,2.561,53.391
		s4.472,0.313,5.256,3.138C14.249,53.233,15.505,58.097,15.505,58.097z"/>
	<path fill="#eeeeee" stroke="#000000" stroke-miterlimit="10" d="M16.328,47.272c0,0-2.942-6.354,4.354-6.943
		c0,0,7.413-4.118,6.708,3.472c0,0-2.236-4.295-4.472,0.294C22.918,44.094,17.976,42.683,16.328,47.272z"/>
	<path fill="#eeeeee" stroke="#000000" stroke-miterlimit="10" d="M25.036,34.916c0,0-4.589,1.53-2.589,2.118
		C22.447,37.034,27.507,37.623,25.036,34.916z"/>
	<path fill="#eeeeee" stroke="#000000" stroke-miterlimit="10" d="M20.212,26.208c0,0-3.766,5.178,0,5.295
		C20.212,31.503,24.094,29.15,20.212,26.208z"/>
	<path fill="#eeeeee" stroke="#000000" stroke-miterlimit="10" d="M11.386,100.341c0,0-3.647-0.588-5.648,2.354
		C5.738,102.695,10.915,105.401,11.386,100.341z"/>
	<path fill="#eeeeee" stroke="#000000" stroke-miterlimit="10" d="M17.387,101.856l-2.471,7.782l7.884-4.589
		C22.801,105.048,18.447,104.899,17.387,101.856z"/>
	<path fill="#eeeeee" stroke="#000000" stroke-miterlimit="10" d="M146.003,3.851c0,0-4.236,1.412-3.177,4.413
		C142.825,8.263,152.769,7.263,146.003,3.851z"/>
	<path fill="#eeeeee" stroke="#000000" stroke-miterlimit="10" d="M140.119,2.145c0,0-2.707,0.529,0.294,3
		C140.413,5.145,143.414,3.792,140.119,2.145z"/>
</g>
<g id="Kinmen">
	<path fill="#eeeeee" stroke="#000000" stroke-miterlimit="10" d="M128.705,145.645c0,0-7.061-0.47,0,3.766
		C128.705,149.411,131.058,147.292,128.705,145.645z"/>
	<path fill="#eeeeee" stroke="#000000" stroke-miterlimit="10" d="M134.118,149.411c0,0-3.295-2.354-2.824,2.118
		C131.294,151.529,134.353,153.411,134.118,149.411z"/>
	<path fill="#eeeeee" stroke="#000000" stroke-miterlimit="10" d="M29.155,212.718c0,0-6.825-11.061-12.708,7.296
		C16.446,220.014,23.271,223.309,29.155,212.718z"/>
	<path fill="#eeeeee" stroke="#000000" stroke-miterlimit="10" d="M5.738,224.25c0,0-1.765-4.472-3.413,3.53
		C2.325,227.78,7.503,226.838,5.738,224.25z"/>
	<path fill="#eeeeee" stroke="#000000" stroke-miterlimit="10" d="M53.159,207.776c0,0-7.06,0.353-14.002-6.59
		c0,0-14.003,7.531-2.471,4.707c0,0,4.471-1.294,0,2.471c0,0,0,6.119,2.353,7.414c0,0-3.53,3.059-7.648,2.235
		c0,0-0.823,4.167,10.884,7.379c0,0,8.296-19.264,22.535-8.32l0.823,4.589c0,0,3.766-2.824,5.766-2.589c0,0,0-7.295,4.707-7.178
		c0,0-4.119-1.883-2.707-8.002c0,0-2.354-8.002-7.531-7.531c0,0-2.588-2-0.471-2.588c0,0-3.53-5.178-5.648,2.824
		c0,0-4-0.941-2.589,5.178c0,0-3.295,0.588-2.942,5.648L53.159,207.776z"/>
</g>
<g id="Penghu">
	<path fill="#eeeeee" stroke="#000000" stroke-miterlimit="10" d="M82.107,418.997c0,0-2.471-9.179-14.121,3.53
		c0,0,2.471,11.885-8.943,4.472l1.177-1.883c0,0-12.708-1.412-5.766-8.354c0,0-1.059,8.119,10.12,6.472c0,0,3.648-5.531-5.884-5.061
		c0,0,5.413-6.824-0.706-2.941c0,0-2-3.109,3.766-6.32c0,0,2.706,10.321,4.707-1.917l5.295-2.001v3.918
		c0,0,7.414-9.684,12.002,5.497C83.754,414.408,87.049,417.232,82.107,418.997z"/>
	<path fill="#eeeeee" stroke="#000000" stroke-miterlimit="10" d="M78.93,392.167c0,0-5.648-1.412,0,2V392.167z"/>
	<path fill="#eeeeee" stroke="#000000" stroke-miterlimit="10" d="M71.399,397.934c0,0-2.354-3.53,2.471-3.177
		C73.87,394.756,73.047,398.169,71.399,397.934z"/>
	<path fill="#eeeeee" stroke="#000000" stroke-miterlimit="10" d="M65.751,376.164c0,0,6.735-2.354,5.074-4.589
		C70.824,371.575,63.75,368.75,65.751,376.164z"/>
	<path fill="#eeeeee" stroke="#000000" stroke-miterlimit="10" d="M36.803,415.584c0,0,4.118,1.766,5.648-1.059
		c0,0,2.824-1.499,3.53,1.604c0,0,3.53-1.604,0-3.251c0,0,2.471-1.883,2.236-5.295c0,0,2.588-3.412-0.824-6.354
		c0,0-0.941-2.707,2.825-1.53c0,0,0.941-1.036,2.941-1.753c0,0-3.765-0.767-4.236-3.213c0,0-4.942-1.387-4.942,8.615
		c0,0,0.706,2.354-1.412,3.178c0,0-1.177,2.656,1.294,2.387c0,0,1.765,3.26-4,3.614C39.863,412.525,33.979,413.819,36.803,415.584z"
		/>
	<path fill="#eeeeee" stroke="#000000" stroke-miterlimit="10" d="M57.337,389.461c0,0-6.708,0.706-0.588,4.707
		c0,0,1.353,0,2.236-1.706c0,0,3.765-0.941,2.589,2.707c0,0,3.824,2.824,2.118,5.589c0,0,0.649,4.413,4.914,3.059
		c0,0-5.227-6.589-0.363-8.354c0,0-1.432-8.119-8.139-6.001C60.102,389.461,59.455,391.638,57.337,389.461z"/>
	<path fill="#eeeeee" stroke="#000000" stroke-miterlimit="10" d="M59.2,402.051c0,0-1.804-0.666-1.059,1.373
		C58.141,403.424,60.417,403.778,59.2,402.051z"/>
	<path fill="#eeeeee" stroke="#000000" stroke-miterlimit="10" d="M4.287,450.062c0,0-0.863,1.49-1.726,2.511
		c0,0,4.079,1.804,3.883-0.863C6.444,451.709,6.679,449.121,4.287,450.062z"/>
	<path fill="#eeeeee" stroke="#000000" stroke-miterlimit="10" d="M41.392,454.417c0,0-0.412,8.236-1.294,9.767
		c0,0,4.707,1.588,5.766-2.061c0,0,3.589,2.707,6.119-1.117c0,0,0.647-3.706-2.883-0.588c0,0-4.766,1.471-4.295-5.53
		c0,0-1.883,0.059-3.177-1.354L41.392,454.417z"/>
	<path fill="#eeeeee" stroke="#000000" stroke-miterlimit="10" d="M25.566,495.248c0,0-1.294,5.296,2.647,7.119
		c0,0,6.354-5.236,1.824-7.119H25.566z"/>
	<path fill="#eeeeee" stroke="#000000" stroke-miterlimit="10" d="M48.453,482.716c0,0-1.589,3.765,2.824,4.942
		C51.277,487.659,52.395,484.128,48.453,482.716z"/>
	<path fill="#eeeeee" stroke="#000000" stroke-miterlimit="10" d="M82.401,487.01c0,0-4.413-4.471-3.589,1.707l1.743,1.471
		C80.555,490.188,79.871,488.188,82.401,487.01z"/>
</g>
<g id="Taitung">
	<path fill="#eeeeee" stroke="#000000" stroke-miterlimit="10" d="M453.794,454.572c-4.829,7.318,2.78,10.975,2.78,10.975
		c-11.27,10.538-8.925,14.002-10.829,20.49c-4.391,10.829-8.051,19.903-8.051,19.903c-4.976,0.585-2.633,10.147-2.633,10.147
		c-0.196,9.365-11.316,8.194-11.316,8.194c-1.562-8.261-6.636-6.049-6.636-6.049l-0.974-2.73c-6.832-0.196-3.904-4.488-3.904-4.488
		c-2.731-1.171-4.487-5.465-4.487-5.465c0.587-5.464-5.854-5.854-5.854-5.854c-3.901,5.657-8.392-2.732-8.392-2.732
		c-3.903,0-6.049-3.512-10.536-3.707c-5.462-8.976-0.39-9.563-9.797-14.903c-3.666,1.439-14.789,5.928-14.789,5.928
		c-1.756,3.806-7.757,6-10.536,10.535c0.294,2.781-1.17,6.588-1.17,6.588c2.634,2.195,0,4.972,0,4.972
		c-2.195,0.586-2.05,1.317-2.05,1.317c-1.024,5.123-3.416,4.392-3.416,4.392c4.779,10.683-1.561,18.73-1.561,18.73
		c-1.609,1.755-1.609,3.48-1.609,3.48c7.904,7.284-1.464,6.324-1.464,6.324c1.464,5.709-1.901,5.27-1.901,5.27
		c1.754,1.463-3.661,7.171-3.661,7.171c-4.976,7.465-0.585,13.316-0.585,13.316c-0.73,10.685,6.295,9.661,6.295,9.661
		c0.707,0.987,0.863,2.081,0.757,3.112c0.818,0.25,1.145,1.716,1.145,1.716c-2.194,6.585-0.878,9.513-0.878,9.513
		c6.001-0.294,8.343,4.536,8.343,4.536c0.292,5.854-2.051,6.44-2.051,6.44c3.076,16.977-10.097,11.999-10.097,11.999
		c-1.903,7.753-12.147,6.438-12.147,6.438c0.585,7.465-6.293,10.1-8.195,17.563c0.146,8.634-3.366,13.174-3.366,13.174
		c3.66,2.784,3.66,10.971,3.66,10.971c3.806,4.685-0.732,6.587-0.732,6.587c0.058,2.579-0.509,4.297,0.438,5.121
		c1.581,1.378,4.977,0.73,4.977,0.73c-0.729,2.78,2.195,6,2.195,6c1.757,6.732-4.175,4.401-4.266,4.587
		c-0.63,1.302-2.759,1.414-2.759,1.414c0.585,1.171-0.439,5.562-0.439,5.562c-4.1,5.415,2.634,4.536,2.634,4.536
		c-0.293,3.511,1.758,2.635,1.758,2.635c6.877,2.048,4.097,7.754,4.097,7.754c-3.951,0.881-2.488,3.951-2.488,3.951
		c3.074,0.44,6.146,4.245,6.146,4.245c-4.098,0.294-2.05,4.976-2.05,4.976c6.88-2.926,6.439,1.902,6.439,1.902
		c4.831-0.145,5.56,1.829,5.56,1.829c2.491,4.317,4.686,1.828,4.686,1.828c0.43-0.86,2.017-1.752,3.523-2.444
		c0.255-10.983,0.867-21.702,0.867-21.702c7.756-13.317,14.341-39.808,14.341-39.808c0.73-11.122,10.05-18.001,10.05-18.001
		c-4.437-1.169,0.194-2.05,0.194-2.05c-1.901-12.438,10.829-19.17,10.829-19.17c-4.097-5.707,0.587-1.903,0.587-1.903
		c10.537-4.39,22.39-15.512,22.39-15.512c-1.462-0.439,0.881-3.804,0.881-3.804c6.879-5.563,5.708-7.61,5.708-7.61
		c-5.416-6.001,0-12.442,0-12.442c14.487-5.707,18.001-21.658,18.001-21.658c10.242-10.683,15.95-32.637,15.95-32.637
		c2.781,0,10.245-6.291,10.245-6.291c-2.488-2.05-2.246-6.44-2.246-6.44c2.583-1.464,2.246-5.268,2.246-5.268
		c-2.78-3.077-2.196-8.343-2.196-8.343c3.366-0.146,4.1-3.804,4.1-3.804c-1.025-13.756,10.392-22.393,10.392-22.393
		c-0.443-7.167,3.936-19.317,6.12-24.874C460.136,439.252,453.794,454.572,453.794,454.572z"/>
	<path fill="#eeeeee" stroke="#000000" stroke-miterlimit="10" d="M467.953,624.452c0,0-2.235,8.708,7.648,10.473
		c0,0-0.354-4.589,2.001-6.001C477.602,628.923,479.602,622.569,467.953,624.452z"/>
	<path fill="#eeeeee" stroke="#000000" stroke-miterlimit="10" d="M475.131,761.54c0,0,0,12.943,12.12,14.238c0,0,0,5.766,8.473,3.766
		c0,0,4.119-1.933-6.59-8.792c0,0-0.823-1.799,1.294-3.211c0,0-0.234-2.235-1.059-3.06c0,0,3.412-3.529-1.766-3.648h-4.941
		C482.662,760.833,480.073,763.069,475.131,761.54z"/>
</g>
<g id="Pingtung">
	<path fill="#eeeeee" stroke="#000000" stroke-miterlimit="10" d="M340.083,725.167c0,0-2.196,2.488-4.686-1.828
		c0,0-0.729-1.978-5.56-1.832c0,0,0.439-4.828-6.439-1.9c0,0-2.05-4.685,2.052-4.978c0,0-3.076-3.804-6.148-4.242
		c0,0-1.465-3.076,2.488-3.952c0,0,2.78-5.707-4.097-7.756c0,0-2.05,0.879-1.758-2.634c0,0-6.732,0.879-2.634-4.536
		c0,0,1.024-4.392,0.439-5.559c0,0,2.129-0.112,2.759-1.415c0.092-0.186,6.021,2.144,4.266-4.587c0,0-2.925-3.218-2.195-5.999
		c0,0-3.395,0.646-4.977-0.731c-0.947-0.829-0.382-2.543-0.438-5.122c0,0,4.538-1.903,0.732-6.584c0,0,0-8.191-3.661-10.974
		c0,0,3.513-4.541,3.367-13.175c1.902-7.463,8.78-10.098,8.195-17.563c0,0,10.244,1.318,12.147-6.439
		c0,0,13.171,4.977,10.097-11.999c0,0,2.341-0.586,2.051-6.44c0,0-2.342-4.828-8.343-4.536c0,0-1.316-2.925,0.878-9.511
		c0,0-0.878-3.953-3.364,0c0,0-2.05,2.78-4.246-1.756c0,0-4.535,0.294-8.78,4.684c0,0-2.05,4.975-6.001-1.315
		c0,0-5.559-9.513-13.024-6.146c0,0-4.098,6.294-7.316,4.244c0,0-4.243,1.756-2.195-3.66c0,0,1.024-2.34-2.927-0.438l-1.61-1.903
		c0,0-2.925,2.635-6.145,2.34c0,0-8.341,6.441-11.708,10.686c-3.952,1.902-4.83-1.464-9.512,0.147
		c-1.608,0.584-9.22-4.831-9.22,1.023c0,0-1.465,9.074-2.049,15.512c0,0,1.61,11.564-3.367,17.269c0,0-2.634,13.615,1.026,22.395
		c0,0,0.583,8.632-4.246,14.048c0,0-1.47,6.869-0.315,12.174c3.137,0.637,5.438,0.267,5.438,0.267
		c-3.22,1.17-1.903,1.902-1.903,1.902c4.099,6.586,22.83,13.024,29.125,19.758c6.292,6.729,13.903,18.585,13.903,18.585
		c1.024,10.244,2.194,10.534,2.194,10.534c6.881,5.123,9.952,25.318,9.952,25.318c6.586,8.929,2.633,12.295,2.633,12.295
		c-3.364-0.585-1.755,1.463-1.755,1.463c2.342,3.513-0.584,8.195-0.584,8.195c-3.074,3.953-2.342,7.025-2.342,7.025
		c7.463,5.415,5.706,11.711,5.706,11.711c-1.023,11.998,4.391,9.946,4.391,9.946c2.342-10.682,10.538-3.999,10.538-3.999
		c3.901-1.17,8.392,2.146,8.392,2.146c6.828,6.245,7.024,3.318,7.024,3.318c-3.708-4.487-3.123-16.78-3.123-16.78
		c9.173-4.878,10.929-11.514,10.929-11.514c-1.563-4.294,0.585-15.411,0.585-15.411c-6.828-4.101-0.243-9.562-0.243-9.562
		c-1.037-2.767-1.095-12.809-0.866-22.642C342.099,723.414,340.512,724.305,340.083,725.167z"/>
	<path fill="#eeeeee" stroke="#000000" stroke-miterlimit="10" d="M235.316,696.82c0,0-7.649-2.354-7.649,7.531
		c0,0,2.471,1.294,7.649-5.061C235.316,699.291,236.375,697.878,235.316,696.82z"/>
</g>
</svg>
