<?xml version="1.0" encoding="utf-8"?>
<!-- Generator: Adobe Illustrator 16.0.3, SVG Export Plug-In . SVG Version: 6.00 Build 0)  -->
<!DOCTYPE svg PUBLIC "-//W3C//DTD SVG 1.1//EN" "http://www.w3.org/Graphics/SVG/1.1/DTD/svg11.dtd">
<svg version="1.1" id="Layer_1" xmlns="http://www.w3.org/2000/svg" xmlns:xlink="http://www.w3.org/1999/xlink" x="0px" y="0px"
	 width="1300px" height="1000px" viewBox="0 0 1300 1000" enable-background="new 0 0 1300 1000" xml:space="preserve">
<path id="Oregon" fill="#80CFFF" stroke="#FFFFFF" stroke-miterlimit="10" d="M192.013,159.737c0,0-3.867-8.052-7.73-10.303
	c-1.801-1.048-2.336-3.279-2.402-5.369h-43.447l-4.939,2.365c0,0-3.042-0.435-5.804-0.546c-1.99-0.081-3.839,0.005-4.29,0.546
	c-1.071,1.283-5.583,5.149-5.583,5.149s-1.293,0.159-2.998,0.384c-3.164,0.412-7.749,1.053-8.168,1.333
	c-0.396,0.261-1.866-0.101-4.04-0.596c-0.984-0.253-1.759-0.475-1.759-0.475l-6.872,3.541c0,0-4.727-1.397-6.442-2.04
	c-0.669-0.253-2.036-0.551-3.958-0.606v0.005c-2.699-0.081-6.502,0.319-11.098,2.014c-0.519,0.191-1.048,0.402-1.585,0.627
	c-8.697,3.647-12.885,3.327-12.885,3.327l-2.577-3.327c0,0,0.144-0.927,0.208-2.211c0.104-2.029,0.01-4.957-1.175-6.536
	c-1.931-2.575-1.288-7.461-1.288-7.461l-2.736-3.327l-14.923,0.456c0.446,1.586-1.25,3.98-2.957,2.445
	c-2.146-1.934-6.44-1.076-6.44-1.076l1.072,6.439c0,0-1.596-1.056-0.49,4.987c0.296,1.632,0.791,3.777,1.567,6.604
	c0,0,0.428,7.943-1.077,7.729c-0.393-0.056-0.771,3.936-1.228,9.919c-0.478,6.264-1.794,23.019-1.794,23.019
	c-0.391,4.305-0.832,8.576-1.341,12.471l-1.226,7.833c-0.942,4.904-2.068,8.374-3.431,9.217c0,0-0.937,7.001-2.542,11.602l0,0
	c-0.278,0.799-0.577,1.531-0.892,2.135c-2.148,4.078,2.362,7.299,2.362,7.299s-2.311,8.813,2.796,18.241H178.48v-52.694
	c0,0,0.645-2.894,1.933-7.726c1.29-4.828,5.479-2.575-2.573-6.117c-1.379-0.606-2.106-1.577-2.378-2.762
	c-1.328-5.725,8.176-16.556,8.176-16.556c-0.446-1.332,0.417-4.125,1.733-7.21C187.409,167.542,192.013,159.737,192.013,159.737z"/>
<path id="Nevada" fill="#65A0FF" stroke="#FFFFFF" stroke-miterlimit="10" d="M244.13,410.835v-0.002l-0.148-1.471v-143.81
	H114.923v89.343l116.099,108.124c1.623-1.419,3.398-3.497,2.651-5.36c-1.287-3.218-4.94-8.15-4.94-8.15l1.504-15.458
	c0,0,5.582,0,9.017,1.071c3.439,1.073,5.157-6.688,5.157-6.688V413.66L244.13,410.835z"/>
<path id="California" fill="#5A85FB" stroke="#FFFFFF" stroke-miterlimit="10" d="M235.05,488.918h0.004
	c2.531-2.299,6.847-3.792,6.996-5.288c0.214-2.149-5.37-4.938-5.37-4.938s-0.217-6.007-2.792-8.801
	c-2.577-2.79-1.719-5.796-1.719-5.796l-1.148-1.077l-115.936-107.97l0,0l-0.163-0.154v-89.343H19.155
	c0.385,0.716,0.805,1.431,1.279,2.148c1.327,2.001,0.214,7.299,1.288,7.299c0.935,0,3.653,7.512,3.653,7.512
	s-0.512,3.34-1.232,6.175c-0.519,2.042-1.148,3.826-1.774,3.914c-1.502,0.215,0.644,9.872-1.288,11.377
	c-1.935,1.5-6.873,11.804-1.504,15.453c1.613,1.102,3.466,2.86,5.188,4.952h-0.003c3.992,4.861,7.287,11.521,5.338,15.867
	c-2.793,6.225,1.5,9.444,1.5,10.733c0,1.286-1.288,3.646,3.865,8.373c0.045,0.041,0.095,0.091,0.141,0.136c-0.141-0.136,0,0-0.001,0
	c2.669,2.537,8.482,9.265,11.711,14.785l0,0c3.063,5.229,3.611,9.331,3.611,9.331s9.876,3.649,8.806-0.214
	c-0.431-1.537-0.236-2.893,0.265-3.856l0,0c0.351-0.677,0.845-1.167,1.397-1.377c0.002,0.003,0,0,0.002,0.003
	c0.646-0.243,1.358-0.12,1.985,0.51c1.033,1.031,2.187,0.713,3.038,0.192l0,0c0.743-0.449,1.257-1.051,1.257-1.051
	s1.608,0.619,3.002,1.258l0,0c1.2,0.551,2.235,1.117,1.937,1.314c-0.646,0.435-7.947-1.93-9.663,1.503
	c-0.126,0.255-0.223,0.516-0.298,0.773c-0.971,3.257,1.746,6.883,3.732,8.672c0.77,0.689,1.165,1.515,1.367,2.327v0.002
	c0.362,1.468,0.089,2.903,0.135,3.469l0,0c0.021,0.217-1.006-0.646-2.341-1.852v-0.002c-2.479-2.234-6.033-5.659-6.033-5.659
	s-0.215,6.438,1.502,9.227c1.72,2.792-0.644,2.792-0.644,3.436c0,0.056,0.049,0.188,0.113,0.352c0.398,0.962,1.883,3.6,3.494,5.682
	h0.002c1.317,1.698,2.721,3.035,3.69,2.769c1.909-0.52,4.517-1.319,5.562,1.223l0,0c0.249,0.606,0.411,1.395,0.451,2.425
	c0.216,5.367-1.286,6.226-2.791,5.367c-1.501-0.859,2.146,9.874,4.081,11.591c1.402,1.249,6.534,5.887,9.244,9.322h0.001
	c1.02,1.294,1.707,2.42,1.707,3.125c0,2.575,5.798,7.729,6.87,7.512c1.073-0.216,2.147,1.936,1.505,3.437
	c-0.647,1.5,3.861,4.078,4.723,3.861c0.296-0.071,0.589,3.361,0.589,3.361c0.197,3.79,0.049,9.527-0.376,10.375
	c-0.643,1.289,3.009,5.581,3.653,6.223c0.644,0.647,15.888-0.217,17.179,0.217c0.602,0.198,2.651,0.969,4.797,2.047
	c0,0,5.041,2.891,5.727,4.605c0.564,1.417,3.667,2.337,6.98,2.81c4.221,0.604,8.79,0.488,8.908-0.229
	c0.217-1.289,3.009,9.438,3.009,9.438s4.141-2.749,6.564-1.463l0.002,0.004c0.103,0.055,5.386,4.839,9.203,8.918
	c0,0,8.292,9.334,8.064,10.573l0.214,2.146l3.439,11.165l52.395-5.581l-1.237,3.214c1.248-1.092,2.762-1.995,4.671-2.145
	c3.969-0.31,4.295-6.866,0-7.299c-4.292-0.43-1.716-4.722-3.218-8.583c-0.451-1.161-0.571-1.828-0.522-2.209
	c0.116-0.888,1.166-0.152,1.166-0.152c3.866-1.286,3.22-9.446,3.007-13.955C233.18,491.063,233.947,489.917,235.05,488.918z"/>
<path id="Utah" fill="#73B9FF" stroke="#FFFFFF" stroke-miterlimit="10" d="M311.091,294.961v-29.41h-67.108V409.36
	l109.519,0.005V294.961H311.091z"/>
<path id="Arizona" fill="#5065EB" stroke="#FFFFFF" stroke-miterlimit="10" d="M353.501,409.365l-109.519-0.003l0.431,4.292
	v14.776c0,0-1.719,7.764-5.154,6.686c-3.436-1.072-9.02-1.066-9.02-1.066l-1.503,15.453c0,0,3.651,4.938,4.94,8.153
	c0.747,1.867-1.031,3.94-2.651,5.362l1.147,1.071c0,0-0.859,3.012,1.718,5.802c2.577,2.789,2.795,8.798,2.795,8.798
	s5.84,2.915,5.312,5.094c-0.594,2.097-8.96,4.245-8.75,8.644c0.215,4.509,0.859,12.665-3.007,13.955c0,0-2.148-1.501-0.644,2.359
	c1.502,3.866-1.076,8.155,3.218,8.583c0.62,0.064,1.566,0.549,1.566,0.549c2.551,1.658,1.832,6.491-1.562,6.758
	c-1.913,0.146-3.425,1.053-4.674,2.141l-0.91,2.367l83.322,32.001h42.948L353.501,409.365L353.501,409.365z"/>
<path id="Colorado" fill="#69A7FF" stroke="#FFFFFF" stroke-miterlimit="10" d="M508.58,294.961H353.5v114.4h155.078v-114.4
	H508.58z"/>
<path id="Newmexico" fill="#4A57D8" stroke="#FFFFFF" stroke-miterlimit="10" d="M488.352,409.362H353.5l0.002,151.777H373.8
	v-12.812l0,0h33.699v-5.134h80.851V409.362H488.352z"/>
<path id="Kansas" fill="#73B9FF" stroke="#FFFFFF" stroke-miterlimit="10" d="M671.996,409.43l0.555-18.411l0.197-11.832
	l0.269-11.375c0,0,0.113-13.058,0.005-14.415c-0.013-0.177-0.027-0.326-0.047-0.436c-0.3-1.943-2.024-4.574-4.138-7.06
	c-0.6-0.705-1.229-1.4-1.876-2.079h-0.002c-1.974-2.07-4.205-4.023-5.765-5.189c-1.444-1.236-1.18-2.534-0.244-3.851h0.003
	c1.382-1.804,4.067-3.236,4.814-3.05c0.547,0.136-1.635-2.456-4.667-5.798l-152.523-0.065v83.561H671.996L671.996,409.43z"/>
<path id="Oklahoma" fill="#65A0FF" stroke="#FFFFFF" stroke-miterlimit="10" d="M553.955,474.187c0,0,7.894,6.307,8.591,6.872
	c1.966,1.568,6.095-3.698,8.094-0.962l0,0c0.188,0.25,0.353,0.563,0.496,0.958c1.717,4.721,6.872,3.648,6.872,3.648
	s3.995,1.026,8.192,1.735c4.15,0.694,7.576,1.003,8.987,0.199c0.313-0.187,0.572-0.271,0.801-0.317
	c1.954-0.374,1.049,3.657,2.206,2.893c1.288-0.862,0,7.512,7.085,1.715l6.442,5.149c0,0,8.577-6.856,12.018-4.3
	c0,0.002,0,0.002,0,0.002c0.002,0.003,0.005,0.003,0.008,0.008c1.128,0.845,1.979,1.824,2.778,2.688l0,0
	c1.641,1.771,3.067,3.045,6.238,1.604c4.728-2.145,10.501-1.508,12.231-0.645c0.365,0.181,0.839,0.094,1.36-0.126h0.004
	c1.951-0.833,4.628-3.684,5.308-2.666c0.856,1.286,7.301,1.717,8.373-0.855c0.159-0.384,0.677-0.379,1.431-0.123l0,0
	c2.549,0.861,7.936,4.721,12.459,7.345c0.359-4.701,1.228-12.322,1.896-22.561h0.003c0.032-0.533,0.07-1.068,0.104-1.619
	c0.349-5.709,0.146-13.205-0.287-20.693c-0.166-2.895-0.365-5.785-0.583-8.574c-0.422-5.433-0.898-10.471-1.3-14.355
	c-0.479-4.671-0.84-7.677-0.84-7.677h-0.857V409.36H488.352v13.309h65.604V474.187L553.955,474.187z"/>
<path id="Arkansas" fill="#5A85FB" stroke="#FFFFFF" stroke-miterlimit="10" d="M748.151,516.686
	c0.196-0.329,0.4-0.666,0.635-1.018c6.439-9.824-5.153-12.399-3.383-12.719h0.002c1.499-0.272,3.809-8.05,5.752-10.913
	c0.354-0.519,0.689-0.876,1.013-1c1.693-0.7,2.189-3.994,2.189-3.994c0.178-0.925,0.227-1.643,0.227-1.643s7.408-5.797,7.408-7.246
	c0-0.597-0.246-2.817-0.346-5.039c-0.139-3.145,0.027-6.286,1.635-4.775c1.568,1.477,3.188-0.222,4.287-1.938h-0.003l0,0
	c0,0,0,0,0.001,0l0,0c0.815-1.281,1.351-2.57,1.351-2.57s3.061-2.094,1.936-5.634c-0.799-2.511-0.464-4.852,0.427-6.233
	c-0.016-0.008-0.021-0.015-0.032-0.021c0.013,0.008,0.021,0.015,0.035,0.021c0.368-0.573,0.825-0.984,1.343-1.175
	c1.773-0.646,2.898-7.887,3.383-7.728c0.482,0.157,2.898-0.484,5.155-4.024c1.943-3.117-11.69-2.943-11.69-2.943
	c-1.815-0.005-3.109,0.046-3.129,0.046c2.211-1.819,3.844-3.596,4.691-4.806c3.913-5.511-0.182-7.808-0.182-7.808h-97.928
	c0,0,1.61,15.59,1.896,19.011c0.003,0,0.003,0,0.003,0c0.104,1.248,1.139,16.306,1.253,22.17c0.001,0,0.001,0,0.002,0
	c0.112,3.833-0.05,8.576-0.146,10.122c-0.23,3.804-0.497,7.264-0.763,10.371c-0.153,1.842-1.065,11.568-1.235,13.803
	c2.796,1.621,5.255,2.76,6.512,2.422l0,0c0.159-0.046,0.308-0.103,0.427-0.194c3.006-2.361,4.507,11.592,4.079,13.093
	c-0.068,0.242-0.115,1.104-0.146,2.36h63.343V516.686z"/>
<path id="Missouri" fill="#69A7FF" stroke="#FFFFFF" stroke-miterlimit="10" d="M770.854,423.528c0,0,6.44,3.599-4.514,12.613
	c0,0,5.785-0.215,10.175,0.304l0,0c0.721,0.081,1.399,0.187,2.014,0.313c3.23-2.724,6.677-6.12,5.209-7.22
	c-1.384-1.032-1.368-3.174-0.767-4.646c0.521-1.271,1.479-2.04,2.374-1.146c1.935,1.935,1.935-3.648,1.935-3.648
	s3.545,3.006,3.977,1.343c0.109-0.425,0.473-1.47,0.928-2.774c0,0,3.646-9.835,2.507-9.305c-1.035,0.624-5.99-0.804-5.99-0.804
	c-1.353-0.368-2.386-0.697-2.386-0.697s-1.372-3.707-1.523-6.218c-0.045-0.823,0.114-1.324,0.665-1.079
	c1.094,0.486,0.949-2.596,0.62-5.368c-0.256-2.13-0.62-4.075-0.62-4.075l-9.13-5.94l0.001-0.005c0,0-6.727-4.978-9.132-7.181
	l-0.008-0.005c-0.153-0.137-0.296-0.273-0.416-0.392c-1.366-1.367,0.063-5.95,1.014-8.826l0,0c0.393-1.183,0.71-1.86,0.771-2.703
	c0.268-1.147,2.728-8.004,2.728-8.004s-0.867-1.155-1.844-2.239l0,0c-1.244-1.379-2.664-2.64-2.664-1.195
	c0,2.575-6.441,2.575-6.441,2.575s-0.109-0.981-0.271-2.328c-0.277-2.373-0.7-5.884-0.921-7.229l0,0
	c-0.041-0.266-0.076-0.46-0.098-0.531c-0.143-0.419-5.465-5.657-9.938-10.093c-0.813-0.806-1.604-1.589-2.32-2.312h-0.002
	c-1.401-1.397-2.563-2.572-3.202-3.265c0,0-1.059-1.687-1.979-3.714h0.003c-1.064-2.353-1.945-5.164-0.769-6.374
	c0.226-0.23,0.439-0.569,0.643-0.978l0,0c0.55-1.102,1.024-2.775,1.416-4.563c-2.586-2.903-5.864-8.308-5.864-8.308l-90.755,0.005
	c0.285,2.172,0.992,4.076,2.496,5.473c1.683,1.442,14.982,15.362,16.801,18.136c0.236,0.369,0.316,0.581,0.198,0.606
	c-1.271-0.318-8.111,4-4.573,6.901c0.046,0.037,0.088,0.078,0.137,0.113c3.865,2.9,10.951,9.982,11.597,14.164
	c0.146,0.815,0.164,5.291,0.164,5.291c0.102,5.318-0.877,45.938-0.932,47.975c-0.057,2.001-0.091,3.186-0.091,3.186v14.167H770.854z
	"/>
<path id="Kentucky" fill="#65A0FF" stroke="#FFFFFF" stroke-miterlimit="10" d="M913.174,421.058l12.29-5.75
	c0,0,0.645-4.224,4.08-3.153c2.398,0.753,1.976-1.329,2.743-3.524v-0.003c0.329-0.95,0.882-1.922,1.979-2.698
	c0,0,2.114-1.165,4.828-2.724c0,0,0,0,0.004,0c4.865-2.794,11.65-6.862,11.65-7.792c0-1.191-1.096,1.947-7.47-5.639
	c-1.338-1.597-2.904-3.653-4.752-6.337c-1.115-1.231-1.472-5.41-1.472-5.41l1.257-8.975c-1.218-0.791-1.684-2.62-1.684-2.62v0.005
	c-0.006-0.005-5.153-2.147-5.585-4.078c-0.283-1.271-2.036-0.962-4,0.238v-0.002c-1.037,0.637-2.131,1.513-3.099,2.554
	c-2.806,3.004-6.432-3.224-6.432-3.224s-4.691-2.137-9.153-2.481c-1.087-0.091-2.202-0.101-3.303,0.021
	c-0.981,0.103-1.809-0.092-2.507-0.481l0,0c-0.519-0.287-0.963-0.692-1.347-1.162v-0.005c-2.262-2.797-2.372-8.126-2.372-8.126
	h-10.521l-0.001,10.005c0,0-2.772-0.976-4.771,0.407l0,0c-0.962,0.588-1.149,2.15-4.875,2.434c-1.882,0.113-3.615-0.238-3.615-0.238
	s-0.172,2.368-1.023,4.915c0,0-0.902,3.088-2.828,4.747l-0.004-0.002c-0.792,0.707-1.747,1.215-2.896,1.376
	c0,0-3.178-1.102-3.178,5.607c0.029,2.218-1.26,2.582-1.26,2.582c-2.568,0.948-8.188-3.714-8.188-3.714s-2.985,0.119-4.506,1.695
	c0,0-0.896,0.951-0.864,2.168c0,2.552-1.261,3.625-2.75,2.949c-0.645-0.295-1.327-0.904-1.974-1.873
	c-2.219-3.262-6.229,0.86-6.229,0.86s4.297,6.867-3.004,1.93c-0.078-0.05-0.229-0.149-0.229-0.149
	c-7.104-4.653-8.81,1.21-10.293,0.149c-2.504-1.238-11.383,4.504-11.383,4.504s5.725,2.62,3.755,4.569l0.001,0.002
	c-0.289,0.283-0.736,0.551-1.395,0.799c-2.272,0.854-4.589,1.288-6.281,2.061c0,0,0,0-0.003,0c-2.143,0.981-3.291,2.5-2.092,6.095
	c0.375,1.124,0.452,1.909,0.328,2.445l0,0c-0.201,0.895-0.954,1.102-1.854,0.99l0,0c-1.675-0.208-3.843-1.505-3.843-1.505
	s-2.215-2.375-5.372-1.862c-1.95,0.311-4.267,1.726-6.643,5.493c1.598,0.34,3.108,0.543,3.64,0.232
	c0.312-0.18,0.297,0.329,0.096,1.226h-0.002c-0.18,0.78-0.502,1.859-0.884,3.042c-0.229,0.713-0.48,1.468-0.735,2.213l0,0
	c-0.851,2.484-1.727,4.892-1.906,5.593c-0.432,1.667-3.977-1.338-3.977-1.338s-0.004,1.25-0.206,2.359h30.085v-2.359
	L913.174,421.058z"/>
<path id="Tennessee" fill="#5489F9" stroke="#FFFFFF" stroke-miterlimit="10" d="M898.628,464.096l1.712-6.438
	c0,0,5.153-1.716,7.089-6.224c0.414-0.968,0.847-1.403,1.328-1.554c1.04-0.524,3.255,1.552,6.488,0.071
	c0.84-0.384,1.771-1,2.813-1.956c1.666-1.523,3.27-2.672,4.73-3.57l0,0c4.194-2.575,7.271-3.064,7.509-4.263
	c0.104-0.52,0.447-1.347,0.992-2.145l-0.001-0.003c2.435-3.563,5.247-2.019,5.771-1.713c2.658,1.546,7.637-1.885,9.88-2.877
	c1.343-0.645,2.412-0.948,2.938-0.347c1.176,1.354,3.734-2.814,5.168-5.438c-0.001,0-0.001,0-0.001,0
	c0.611-1.125,1.019-1.965,1.019-1.965v-4.196l-138.904-1.385v2.362h-30.087c-0.23,1.236-0.708,2.305-1.729,1.286
	c-1.93-1.934-4.186,3.863-1.605,5.799c0.224,0.167,0.32,0.395,0.335,0.662c0.063,1.473-2.812,4.25-5.547,6.554
	c1.323,0.273,2.317,0.667,2.684,1.208c0.205,0.309,0.213,0.656-0.048,1.071c-2.256,3.54-4.672,4.187-5.154,4.021
	c-0.433-0.077-1.729,7.249-3.383,7.731c-0.518,0.187-0.977,0.602-1.346,1.173c-0.892,1.384-1.226,3.725-0.427,6.229
	c1.126,3.542-1.935,5.637-1.935,5.637s-0.045,0.102-0.117,0.266L898.628,464.096z"/>
<path id="Idaho" fill="#A7EEFF" stroke="#FFFFFF" stroke-miterlimit="10" d="M311.091,192.201
	c-1.454-0.869-3.356-2.118-3.438-3.487c-0.162-2.738-6.768-5.154-6.122-2.577c0.52,2.082,1.458,4.896-2.457,4.623
	c-0.925-0.063-2.119-0.298-3.662-0.757c-8.053-2.416-13.854,5.472-14.656,3.701c-0.805-1.774-6.605-1.774-6.605-1.774
	c-0.458,0.538-0.876,0.962-1.271,1.324v-0.002c-6.961,6.326-4.545-13.426-7.748-11.14c-3.38,2.415-7.406-3.383-7.406-3.383
	s3.544-2.573-1.933-8.369c-5.477-5.795-1.933-10.624-4.188-11.591c-2.257-0.966-3.866-5.152-3.866-5.152s-4.509,3.543-5.479,6.12
	c-0.966,2.575-8.693-1.933-8.693-1.933l0.14-1.05l0.503-3.78c5.156,0,0.647-12.552,0.647-12.552s5.798-16.42,3.862-16.745
	c-1.285-0.214-5.56-0.563-8.323-1.644c-1.321-0.538-2.197-1.251-1.983-2.221c0.473-2.125-2.342-5.11-4.64-7.697h0.002
	c-0.839-0.94-1.611-1.83-2.126-2.603c-1.935-2.898-5.8-5.151-11.275-9.015c-5.474-3.863,0-8.748,0-8.748s-8.031-8.521-9.446-13.928
	l0,0c-0.139-0.522-0.216-1.017-0.216-1.471c0-1.838,0-25.783,0-30.587h-20.83l-0.003,84.997l2.472,8.694
	c0,0-1.161,4.676,0.146,7.814c0.026-0.036,0.062-0.071,0.09-0.106c-0.03,0.036-0.06,0.071-0.089,0.106
	c0.373,0.895,0.933,1.667,1.788,2.168c3.862,2.251,7.73,10.303,7.73,10.303s-1.415,2.354-3.089,5.482l0,0
	c-2.547,4.75-5.691,11.274-5.38,14.013l0,0c0.018,0.167,0.046,0.323,0.093,0.462c0,0-13.853,15.778-5.797,19.318
	c5.295,2.332,5.295,2.152,4.31,3.135l0,0c-0.513,0.507-1.293,1.334-1.734,2.983c-0.717,2.686-1.233,4.768-1.552,6.097
	c-0.251,1.057-0.379,1.627-0.379,1.627v52.694l132.605,0.006v-73.357h-0.002V192.201z"/>
<path id="Wyoming" fill="#8BDDFF" stroke="#FFFFFF" stroke-miterlimit="10" d="M311.091,174.975v119.986h155.687V174.975H311.091
	z"/>
<path id="Montana" fill="#99E8FF" stroke="#FFFFFF" stroke-miterlimit="10" d="M466.777,45.761H200.709
	c0,7.543,0,29.799,0,30.588c0,5.15,9.663,15.398,9.663,15.398s-1.421,1.271-2.091,3.029l0,0c-0.643,1.688-0.59,3.825,2.094,5.718
	c5.475,3.866,9.34,6.117,11.274,9.015c1.934,2.898,7.406,7.404,6.764,10.303c-0.204,0.917,0.589,1.627,1.766,2.136
	c2.595,1.136,7.221,1.507,8.539,1.729c0.15,0.027,0.315,0.358,0.315,0.358c0.751,2.416-4.18,16.386-4.18,16.386
	s4.514,12.557-0.645,12.557l-0.645,4.825c0,0,7.73,4.508,8.696,1.937c0.966-2.578,5.476-6.12,5.476-6.12h0.003
	c0.002,0.01,1.611,4.184,3.866,5.149c2.251,0.967-1.292,5.796,4.186,11.591c5.477,5.796,1.934,8.369,1.934,8.369
	s4.023,5.798,7.407,3.383c3.382-2.416,0.484,19.798,9.021,9.818c0,0,5.799,0,6.604,1.774c0.807,1.771,6.605-6.117,14.656-3.701
	c7.357,2.208,6.915-0.698,6.292-3.182c-0.061-0.232-0.117-0.462-0.175-0.687c-0.063-0.258-0.054-0.462,0.018-0.629
	c0.212-0.498,1-0.561,1.942-0.324l0,0c1.763,0.442,4.064,1.926,4.162,3.532c0.081,1.372,1.983,2.623,3.438,3.49v-17.229h155.683
	L466.777,45.761z"/>
<path id="Northdakota" fill="#A7EEFF" stroke="#FFFFFF" stroke-miterlimit="10" d="M629.335,133.119
	c-5.151-4.507-4.402-8.8-4.402-8.8c0.264-0.682,0.391-1.464,0.43-2.286h-0.002c0.206-4.221-2.039-9.624-2.039-9.624
	s0-13.005,0-13.846c0-1.775-1.208-6.13-2.52-10.323c-1.54-4.934-3.216-9.639-3.216-9.639l-0.431-6.855h0.002l-0.603-9.565
	c0,0,0.813-1.14,1.418-2.602c0.6-1.442,0.992-3.201,0.19-4.48c-0.78-1.255-1.185-5.406-1.392-9.337h-150V146.43h163.26
	C630.922,139.88,629.335,133.119,629.335,133.119z"/>
<path id="Southdakota" fill="#91E4FF" stroke="#FFFFFF" stroke-miterlimit="10" d="M628.818,163.701
	c-2.771-0.7-7.306-4.867-3.99-7.186c3.229-2.264,4.669-6.139,5.205-10.091l-163.255,0.005v90.9h119.827c0,0,9.14,7.737,11.987,6.304
	c0.092-0.053,0.177-0.114,0.251-0.189c1.244-1.241,6.209-1.503,10.413-1.491c3.417,0.01,6.336,0.204,6.336,0.204
	s1.532,0.766,3.813,1.837l9.077,3.989l3.999-15.056l-2.501-5.579c0,0,0.004-1.729,0.268-3.497c0.231-1.529,0.653-3.093,1.449-3.588
	c0.383-0.237,0.612-3.153,0.718-7.534h-0.001c0.078-3.267,0.085-7.342,0.025-11.751c-0.045-3.621-0.141-7.463-0.271-11.251h0.003
	c-0.164-4.77-0.39-9.449-0.667-13.497c-0.499-7.227-1.165-12.418-1.954-12.418L628.818,163.701z"/>
<path id="Minnesota" fill="#99E8FF" stroke="#FFFFFF" stroke-miterlimit="10" d="M747.052,222.52
	c-0.309-2.012-0.203-3.927-0.252-5.149c-0.035-0.902-0.462-2.434-1.009-4.065c-1.08-3.237-2.645-6.886-2.645-6.886s0,0-0.967,0
	c-0.959,0-7.954-3.81-7.413-5.436c0.005-0.013,0-0.021,0.005-0.036c0.646-1.61-5.476-9.015-6.764-6.438
	c-0.609,1.61-1.664-1.374-2.019-2.188c-0.723-1.632-1.606-3.254-2.886-2.319c-1.18,0.859-4.171-0.965-6.879-3.224l0,0
	c-3.375-2.81-6.319-6.236-4.783-6.114c2.758,0.321,2.396-10.304,2.396-10.304s1.541-2.612,2.409-5.29h0.003
	c0.714-2.208,0.974-4.462-0.483-5.331c-1.051-0.635-1.929-1.506-2.613-2.451c-1.392-1.912-1.979-4.114-1.587-5.217
	c0.007-0.018,0.01-0.042,0.017-0.06c0.645-1.612,9.021-8.374,11.597-8.694c1.597-0.199,1.955-7.552,1.999-13.128h-0.003
	c0.025-3.43-0.063-6.187-0.063-6.187l4.007-2.271c-2.994-0.575-2.264-2.668-1.216-2.562c0.263,0.024,0.778-0.224,1.48-0.678
	c1.687-1.096,4.458-3.409,7.494-6.147v0.002c6.107-5.517,13.264-12.766,14.646-15.284c0.418-0.76,1.439-1.642,2.857-2.589v-0.002
	c6.601-4.412,21.892-10.28,26.129-12.222c5.153-2.359,0-3.434,0-3.434c-8.155,1.504-8.804-3.005-8.804-3.005
	c-16.75,3.218-16.537-4.507-16.537-4.507c-0.271,0.196-0.524,0.37-0.788,0.555v0.001c-14.942,10.489-16.817,1.59-16.817,1.59
	s-0.271,0.008-0.688-0.004v-0.001c-1.603-0.046-5.505-0.405-6.187-2.785c-0.856-3.003-6.655-5.367-6.438-1.933
	c0.214,3.436-1.72,3.006-1.72,3.006c-3.008-7.729-7.944-7.729-7.944-7.729c4.775-3.726-0.184-4.67-5.723-4.756v0.001
	c-4.666-0.073-9.74,0.464-9.74,0.464c-9.877,6.011-9.021-0.86-9.021-0.86c-4.782-0.197-8.33-0.588-10.998-1.2v-0.001
	c-8.951-2.047-7.864-6.58-9.188-14.684c-1.718-10.519-8.593-10.089-8.593-10.089v12.88l-44.554,0.001
	c0.207,3.933,0.609,8.084,1.393,9.339c0.814,1.298,0.397,3.091-0.218,4.545c-0.604,1.429-1.394,2.536-1.394,2.536l1.033,16.421
	c0,0,3.462,9.723,5.006,15.87h-0.002c0.44,1.76,0.729,3.232,0.729,4.092c0,1.669,0,13.846,0,13.846s2.384,5.729,2.019,9.994
	l0.006,0.004h-0.003l-0.006-0.004c-0.062,0.688-0.184,1.337-0.403,1.916c0,0-0.75,4.292,4.401,8.8c0,0,1.031,4.409,0.964,9.553
	l0.001,0.003c-0.066,5.068-1.209,10.859-5.473,13.84c-0.343,0.243-0.575,0.502-0.761,0.773h0.003
	c-1.783,2.62,3.148,6.523,5.48,6.523c0.077,0,0.156,0.051,0.231,0.154c0.926,1.499,1.611,8.987,2.083,18.435l0,0
	c0.087,1.773,0.168,3.602,0.237,5.457c0.169,4.459,0.285,9.063,0.34,13.348c0.06,4.578,0.046,8.803-0.044,12.1
	c-0.106,4.065-0.337,6.733-0.701,6.958c-0.562,0.351-0.94,1.23-1.193,2.256L747.052,222.52L747.052,222.52z"/>
<path id="Wisconsin" fill="#9AF1FF" stroke="#FFFFFF" stroke-miterlimit="10" d="M759.113,250.843
	c-0.371-1.44-1.362-3.106-1.362-3.106c-6.286-0.189-8.259-7.893-9.002-11.498h-0.001c-0.091-0.46-0.169-0.862-0.229-1.165
	c-0.537-2.686,2.358-6.011,2.358-6.011c-2.488-1.622-3.441-4.113-3.814-6.486h0.003c-0.32-2.029-0.215-3.975-0.265-5.209
	c-0.035-0.899-0.461-2.434-1.007-4.063c-1.083-3.237-2.647-6.886-2.647-6.886c-0.014,0-0.117,0-0.965,0
	c-0.396,0-1.816-0.651-3.313-1.523c-1.76-0.95-4.479-2.999-4.099-3.949c0.52-1.299-3.359-6.368-5.56-6.926l0,0
	c-0.523-0.133-0.952-0.01-1.201,0.488c-0.956,2.107-2.083-3.704-3.585-4.592c-0.515-0.266-0.825-0.276-1.319,0.085
	c-2.647,1.93-14.424-9.662-11.664-9.338c0.768,0.091,1.289-0.667,1.648-1.804l0.014-0.003h-0.014
	c0.936-2.959,0.746-8.497,0.746-8.497s0.516-0.874,1.12-2.127l0,0c1.303-2.703,3.013-7.18,0.811-8.497
	c-1.794-1.079-3.09-2.857-3.77-4.5h-0.001c-0.543-1.304-0.698-2.517-0.414-3.229c0.644-1.609,9.02-8.371,11.597-8.691
	c0.664-0.086,1.115-1.42,1.418-3.348h-0.001c0.867-5.532,0.514-15.971,0.514-15.971l4.008-2.269
	c1.906,0.362,5.338,0.101,11.156-1.733v0.002c3.749-1.183,8.483-3.014,14.473-5.766c0,0,4.295-1.934,0.214,5.15
	c-3.227,5.602-2.952,7.566-0.575,6.662l0,0c0.63-0.238,1.398-0.666,2.295-1.295c4.294-3.003,6.012,1.518,6.014,1.52v-0.002
	c0,0,1.89-0.591,4.386-1.523c0.485,2.059,1.523,3.883,3.567,4.728l1.494,4.827c0,0,1.73,0.377,4.377,1.013
	c6.546,1.568,18.721,4.732,24.327,7.772c1.048,0.566,1.867,1.132,2.379,1.68h0.002c0,0,4.351-3.11,9.824,1.019
	c4.159,3.139,3.215,4.359,4.704,5.187l0,0c0.473,0.261,1.182,0.484,2.382,0.715c4.991,0.968,1.771,6.602,1.771,7.888
	c0,1.289-3.385,5.958,2.897,4.668c0,0-2.593,7.899,1.735,8.675c-0.05,0.391-0.07,0.768-0.08,1.113l0,0
	c-0.028,1.168,0.112,2.017,0.112,2.017l-3.647,1.395c0,0-1.737,3.327-3.161,6.543h0.001c-1.535,3.467-2.703,6.81-0.92,5.695
	c1.29-0.809,2.61-2.042,3.832-3.351v-0.005c0.723-0.778,1.405-1.58,2.03-2.344h0.003c1.128-1.379,2.055-2.628,2.617-3.315
	c1.396-1.718,2.793-0.43,5.903-6.655c3.113-6.225,3.65-3.973,3.65-3.973s3.225-5.151,3.113-2.144
	c-0.108,3.004-2.9,6.329-3.006,8.476c-0.106,2.148-1.609,2.04-2.79,3.866c-0.347,0.531-1.163,1.936-2.095,3.75
	c-1.696,3.313-3.757,8.009-3.968,11.372c-0.069,1.114,0.06,2.079,0.476,2.797c2.362,4.083-2.255,4.404-2.897,5.261
	c-0.17,0.222-2.838,11.289-3.491,14.876c-0.67,3.709-1.239,7.562-1.479,10.885h0.002c-0.248,3.438-0.146,6.303,0.565,7.834
	c0.436,0.935,0.731,2.085,0.946,3.343c0.31,1.829,0.417,3.922,0.416,6.048c0.001,0.006,0.001,0.006,0.001,0.006
	c-0.001,1.479-0.054,2.986-0.135,4.437L759.113,250.843L759.113,250.843z"/>
<path id="Nebraska" fill="#80CFFF" stroke="#FFFFFF" stroke-miterlimit="10" d="M508.58,325.869h152.592
	c-1.771-1.954-10.47-11.203-12.402-12.878c-0.152-0.131-0.27-0.293-0.401-0.439h-0.002c-1.759-1.936-2.245-4.69-2.252-7.749
	c-0.005-2.675,0.818-10.119,0.721-11.771c-0.018-0.314-0.021-0.612-0.046-0.904c-0.194-2.686-1.106-4.442-2.339-6.359
	c-1.557-2.264-3.271-3.72-3.09-4.976c0.091-0.637-0.005-1.884-0.267-3.4h0.002c-0.522-3.078-1.725-7.302-3.488-10.084l0,0
	c-0.438-0.684-0.902-1.283-1.402-1.756c-1.536-1.439-2.042-4.093-2.296-6.66c-0.333-3.355-0.233-6.568-1.435-6.751
	c-2.105-0.321-4.197-3.294-4.217-3.325v-0.002l0.226-0.826l-7.843-3.411c-2.953-1.37-5.055-2.416-5.055-2.416
	s-2.236-0.147-5.092-0.192c-4.409-0.07-10.288,0.112-11.655,1.479c-1.058,1.055-3.802-0.215-6.422-1.865
	c-2.986-1.878-5.817-4.253-5.817-4.253H466.774v57.634l0,0h41.806V325.869z"/>
<path id="Iowa" fill="#8BDDFF" stroke="#FFFFFF" stroke-miterlimit="10" d="M737.032,307.516c0,0,4.027,6.43,5.861,8.308
	c0.87-3.984,1.331-8.522,1.331-8.522c2.172-0.556,3.3-1.804,4.006-2.921c0,0,0-0.002-0.003-0.002h0.003c0,0,0,0,0,0.002v-0.002
	c0.653-1.039,0.947-1.968,1.357-2.119c0.77-0.289,3.831-3.646,3.343-6.888c-0.059-0.389-0.162-0.781-0.333-1.163
	c-1.065-2.344-1.896-5.341-2.114-7.445c-0.112-1.074-0.071-1.923,0.183-2.317c0.445-0.702,5.177-2.087,9.28-3.138
	c2.802-0.72,5.313-1.284,5.965-1.37c1.438-0.194,0.545-5.376,1.283-6.382c0.085-0.146,0.188-0.253,0.328-0.272
	c1.203-0.203,2.692-4.166,3.057-7.933l0,0c0.021-0.256,0.041-0.511,0.058-0.763c0.219-3.973-5.477-4.399-5.797-6.544
	c-0.123-0.813-0.968-1.67-1.962-2.504c-1.64-1.372-3.69-2.681-3.622-3.616c0.108-1.5-1.505-4.187-1.505-4.187
	c-1.676-0.047-3.035-0.644-4.155-1.546h-0.002c-3.619-2.9-4.663-9.068-5.072-11.115c-0.068-0.358-0.08-0.725-0.046-1.091
	c0.229-2.416,2.405-4.919,2.405-4.919c-2.511-1.635-3.461-4.156-3.826-6.546H630.504c-0.519,2.107-0.521,4.831-0.521,4.831
	l1.484,3.322l0,0l1.014,2.257l-4.22,15.885c0,0,0.969,1.382,2.25,2.369h-0.003c0.608,0.473,1.288,0.854,1.97,0.958
	c1.504,0.23,0.974,5.221,1.804,9.286c0.342,1.655,0.897,3.163,1.926,4.125c1.312,1.233,2.399,3.331,3.234,5.6h0.002
	c1.429,3.866,2.122,8.221,1.921,9.641c-0.062,0.405,0.084,0.829,0.35,1.29h-0.001c1.151,2.021,4.7,4.817,5.079,10.045
	c0.11,0.919-0.028,3.36-0.13,4.628c-0.293,3.699-0.813,7.529-0.388,10.761h90.757V307.516z"/>
<g id="Michigan">
	<g>
		<path fill="#B9F4FF" stroke="#FFFFFF" stroke-miterlimit="10" d="M845.474,148.789c0.966,0.645,3.864-0.752,4.726-0.965
			c0.151-0.038,0.322-0.003,0.48,0.091c0.002,0,0.002,0,0.002,0c0.735,0.438,1.178,2.188-2.096,4.31
			c-3.975,2.575-0.429,4.505-0.429,4.505s-0.322-2.468,1.609-2.468c1.933,0,8.693-8.049,8.693-8.049s3.45,0.611,6.877,0.119h0.002
			c2.679-0.381,5.342-1.438,6.329-3.979c2.258-5.797,18.845,6.923,18.845,6.923s-0.158-1.771-0.158-4.671
			c0-2.898,4.831,0.485,5.956,0.644c0.606,0.089,3.738,0.081,6.496,0.055l0,0c2.365-0.02,4.456-0.055,4.456-0.055l-6.118-7.245
			c0,0,1.447-0.963,1.607-2.896c0.162-1.934-2.094-2.093-1.771-2.577c0.321-0.48,1.771-4.185,1.771-4.185s-3.061-0.484-5.798,0.645
			c-2.738,1.125-3.22-2.417-4.671-0.483c-1.447,1.93-2.897,2.253-6.944,0.321c-4.047-1.933-1.59-4.991-0.302-7.567
			c1.231-2.465-1.428-3.104-6.36-1.084c-0.225,0.09-0.438,0.18-0.67,0.28c-5.143,2.259-4.188,2.943-12.205,1.867l0,0
			c-0.355-0.047-0.72-0.097-1.107-0.152c-9.232-1.287-15.247,10.73-17.609,8.8c-2.362-1.931-4.942-1.073-4.942-1.073
			c-1.177-1.36-2.929-1.791-4.561-1.845l0,0c-0.141-0.004-0.274-0.009-0.413-0.009c-2.062,0.005-3.83,0.569-3.83,0.569
			c-6.337-12.39-12.952-14.16-16.754-13.912c0,0,0,0-0.003,0c-1.994,0.131-3.212,0.818-3.212,0.818
			c1.072-3.222-4.298,3.219-4.298,3.219c-1.324-2.119-1.005-4.742-0.076-7.053c1.31-3.262,3.841-5.905,4.757-5.614
			c0.015,0.004,0.031-0.001,0.042,0.002c1.506,0.647,4.513-6.653,6.66-6.438c2.146,0.215,2.359-1.716,2.359-1.716
			c-3.871-2.258-8.466-0.729-12.695,2.058c-5.887,3.875-11.063,10.18-12.604,12.142l0,0c-0.3,0.382-0.468,0.608-0.468,0.608
			s-4.725-1.502-9.448,3.435c-4.727,4.936-6.439-1.503-8.806,2.146c-0.43,0.664-1.245,1.352-2.28,2.028v0.002
			c-2.537,1.667-6.43,3.283-9.438,4.406c0.486,2.059,1.524,3.88,3.566,4.727l1.494,4.828c0,0,14.634,3.175,24.009,6.716h0.002
			c3.295,1.243,5.942,2.531,7.074,3.747c0,0,4.349-3.11,9.823,1.019c0.654,0.495,1.179,0.94,1.606,1.347h0.001
			c3.174,2.979,1.086,3.712,5.48,4.558c1.372,0.268,2.107,0.891,2.479,1.672c0,0,0,0-0.001,0c0.974,2.069-0.706,5.284-0.706,6.216
			c0,1.289-3.383,5.956,2.897,4.666c0,0-2.593,7.899,1.73,8.675c0.203-1.685,0.852-3.631,2.612-4.702
			c1.647-0.996,3.018-3.944,4.011-6.812h0.002c1.146-3.3,1.789-6.494,1.789-6.494l3.864-1.612c-0.645-3.754,2.896-8.262,2.472-4.077
			c-0.432,4.184,0.105,5.796,1.821,5.042C844.828,153.512,844.508,148.142,845.474,148.789z"/>
		<path fill="#B9F4FF" stroke="#FFFFFF" stroke-miterlimit="10" d="M938.317,229.523c-0.573-1.663-0.954-4.376-0.937-8.696
			c0.014-2.411-0.157-4.455-0.452-6.196c-1.731-10.295-7.936-9.843-8.481-9.5c-0.646,0.402-1.049,2.011-3.866,1.774
			c-2.816-0.243-5.556,7.074-6.687,7.726l0,0c-1.125,0.642-2.256,1.85-2.256,1.85c-0.691,1.475-1.584,1.966-2.447,1.995
			c-1.638,0.048-3.189-1.591-3.189-1.591c-3.386-1.521-2.916-6.079-1.818-8.288c0.418-0.833,0.918-1.343,1.339-1.212
			c1.528,0.482,5.479,0.884,5.56-3.461c0.021-1.087,0.197-2.012,0.449-2.782c0.759-2.304,2.206-3.255,2.206-3.255
			c3.267,0.115,4.187-3.868,4.237-8.15c0.063-4.905-1.019-10.2-1.019-10.2c-0.019-0.021-0.027-0.036-0.045-0.057
			c-5.481-6.619-0.113-5.82,0.444-6.387c0.277-0.272-0.488-2.248-1.348-4.194h0.002c-0.891-2.021-1.874-4.015-1.874-4.015
			s-2.979,2.256-6.603-1.528c-3.625-3.783-7.409-3.3-7.409-3.3c-0.533-1.753-2.081-2.86-3.775-3.563l0,0
			c-2.646-1.102-5.647-1.203-5.647-1.203c-1.42-1.758-3.477-2.784-5.356-3.281v0.002c-2.608-0.69-4.893-0.363-4.707,0.479
			c0.321,1.448-0.968,3.139-0.968,3.139c-3.061,2.172-2.334,3.623-1.285,4.99c1.046,1.369,6.688,3.14,2.174,3.464
			c-0.938,0.065-1.75,0.196-2.499,0.363c0,0,0,0,0-0.002c-2.848,0.629-4.475,1.852-5.877,2.936
			c-0.271,0.209-0.469,0.603-0.616,1.104h-0.003c-0.829,2.754-0.024,9.04-0.024,9.04l1.29,0.079c0,0,0.398-6.117,1.45-1.289
			c0.368,1.715-0.074,2.653-0.798,3.166c-0.146,0.107-0.31,0.188-0.471,0.256l0,0c-1.314,0.563-3.082,0.174-3.082,0.174
			s-0.431,2.36-3.224,2.575c-0.289,0.023-0.496-0.073-0.656-0.227c-1.396-1.329,1.54-8.512,1.731-9.861
			c0.211-1.5-2.363-4.078-2.792-0.427c-0.433,3.646-3.649,5.364-3.649,5.364l-4.726,1.074c0,0,0.386,2.102,0.034,3.868
			c-0.227,1.165-0.771,2.186-1.969,2.354c-1.403,0.202-1.871,2.603-1.972,5.107h0.003c-0.114,2.852,0.249,5.844,0.249,5.844
			s-2.896,2.893-4.979,5.558l0.003,0.003c-1.593,2.039-2.701,3.939-1.681,4.313c1.673,0.606,2.053,4.209,2.134,6.272h-0.001
			c0.031,0.855,0.016,1.453,0.016,1.453c-2.174,0.582-2.03,4.07-1.052,8.105c1.086,4.478,3.199,9.621,4.349,12.249l-0.002,0.005
			c0.476,1.084,0.784,1.749,0.784,1.749c0.478,2.969,0.671,5.746,0.649,8.354h0.004c-0.025,3.61-0.478,6.88-1.238,9.833h-0.001
			c-0.521,2.031-1.193,3.905-1.963,5.644l0,0c-3.064,6.928-7.753,11.627-11.511,14.589h45.843v1.45h32.5
			c-1.961-1.804-1.452-3.664,2.072-6.603c1.361-1.134,2.6-2.897,3.722-4.906c2.052-3.681,4.66-10.901,4.954-11.215
			c0.653-1.586,1.197-2.761,1.635-3.196c0.242-0.243,0.619-0.735,1.083-1.385c2.813-3.954,8.899-14.07,8.899-14.07v-3.38
			c0,0-3.108,3.739-4.772-0.632L938.317,229.523z"/>
		<path fill="#B9F4FF" stroke="#FFFFFF" stroke-miterlimit="10" d="M867.174,153.359c-1.125-0.002-3.377,2.127,0,5.253
			c3.377,3.123,3.501-6.601,3.501-6.601C868.675,154.659,868.299,153.359,867.174,153.359z"/>
	</g>
</g>
<path id="Maine" fill="#9AF1FF" stroke="#FFFFFF" stroke-miterlimit="10" d="M1277.695,177.605
	c0.479-1.933,0.807-1.933,0.807-1.933s-3.063-7.564-3.542-6.438c-0.484,1.126-2.738,2.254-4.191,0.485
	c-1.45-1.774-1.606-3.545-0.317-4.346c1.288-0.808-1.771-4.509-0.969-4.509c0.807,0,0.969-2.898,0.969-2.898
	c-3.974-1.395-6.481-2.633-6.481-2.633c-1.184-0.591-1.948-1.126-1.573-1.392c1.128-0.806,0.646-3.059,0.157-4.349
	c-0.479-1.288-0.157-0.964,1.095-2.092c1.256-1.126-0.93-2.577-0.283-4.188c0.644-1.607,0-11.428,0-11.428l-0.97-21.249
	c0,0,0,0-6.116-7.243c-6.12-7.246-7.249-0.484-7.249-0.484s-2.899-1.126-7.087,1.932c-4.188,3.056-6.767,0.321-7.246-3.704
	c-0.48-4.024-3.544-3.541-3.544-3.541s-12.4,19.481-16.107,23.503c-2.335,2.538-2.364,6.031-2.313,8.39h0.004
	c0.028,1.383,0.093,2.378-0.267,2.557c-2.889,1.439-5.479,6.437-4.511,6.437c0.966,0,0,3.06,0,3.06c-3.063,2.416,0,6.278,0,6.278
	c-5.154,2.416-3.063,4.99-4.024,5.475c-0.557,0.275-2.063,2.118-3.243,3.639l0,0c-0.884,1.137-1.591,2.092-1.591,2.092
	s4.188,4.571,0,3.285c-4.185-1.286-3.385,5.781-3.382,5.794c-0.001,0-0.244-0.567-2.097-2.737c-1.849-2.168-3.313,3.118-4.854,3.265
	l2.979,56.995l3.648,2.041v6.223l2.146,1.96c0.391-1.104,0.831-1.852,1.288-1.852c1.721,0,2.364-7.513,4.513-7.296
	c2.147,0.212,1.073-5.154,1.937-5.154c0.146,0,0.354-0.026,0.604-0.076v-0.003c1.188-0.248,3.226-1.108,3.044-2.711
	c-0.216-1.93,0.646-6.008,2.574-7.296c1.935-1.29,3.648-1.29,4.294,0.859c0.649,2.142,3.225,2.789,3.651,1.288
	c0.334-1.172,1.236-3.294,1.654-3.193c0.133,0.013,0.23,0.188,0.279,0.617c0.214,1.93,3.008-0.218,4.081-2.148
	c1.07-1.933,3.221-4.508,2.575-1.933c-0.296,1.183,0.898,0.779,2.281,0.003l3.52-2.362c0,0,0.448-3.564,1.221-4.763
	c-0.001,0-0.001,0-0.004,0c0.152-0.237,0.319-0.389,0.496-0.389c1.073,0,1.076-4.937,1.076-4.937s3.469-2.771,3.852-2.546
	l0.002,0.005c0.041,0.022,0.06,0.075,0.017,0.182c-0.429,1.071-0.433,3.436,1.719,4.078c2.146,0.646,1.501,4.077,1.501,4.077
	s1.938-2.792,1.938-4.077c0-1.29,5.582-4.078,3.437-2.148c-2.147,1.931,0.857,5.796,0.646,4.725
	c-0.215-1.074,1.288-1.288,2.146-0.646c0.855,0.646,1.717-3.002,1.717-3.002s-2.146-3.006-0.854-4.506
	c1.288-1.507,1.721,4.289,3.436,5.361c1.688,1.06,0.067-3.265,1.847-2.805c0,0,0,0,0,0.002c0.027,0.008,0.054,0.008,0.082,0.018
	c1.936,0.642,3.65-2.576,4.512-5.151c0.855-2.578,2.146,3.216,2.146,3.216l2.577-3.216c0,0,3.864,0,4.291-3.437
	c0.433-3.437,2.578,2.577,2.578,2.577l4.294-5.263C1278.017,180.502,1277.215,179.538,1277.695,177.605z"/>
<path id="Vermont" fill="#A7EEFF" stroke="#FFFFFF" stroke-miterlimit="10" d="M1178.323,181.63c0,0,2.749-1.625,1.563-6.64
	l-40.384,0.253c0.51,3.952,1.104,9.176,0.703,9.176c-0.313,0-0.614,2.001-0.684,4.271h-0.002c-0.068,2.375,0.111,5.043,0.813,6.031
	c0.732,1.079,0.193,3.682,0.193,3.682c-0.459,2.792-1.607,5.977-1.607,5.977l-0.861,10.618c-0.001,0-0.001,0-0.001,0l-0.431,5.268
	c0,0,4.082-2.575,4.942-1.074c0.279,0.491,0.379,3.477,0.382,7.257h-0.001c0.009,7.771-0.381,18.933-0.381,18.933
	s-0.021,0.117-0.064,0.319h17.666c-1.184-2.36-2.469-5.473-2.469-5.473s0.646-5.26,1.771-6.334c0.465-0.438,0.843-3.176,1.131-6.258
	c0.002,0,0.003,0,0.004,0c0.418-4.454,0.646-9.621,0.646-9.621s2.916-2.581,5.258-6.115c0,0-0.002,0-0.004,0
	c1.718-2.594,3.13-5.7,2.838-8.696c-0.086-0.882-0.135-1.715-0.149-2.5c-0.113-5.53,1.438-8.532,3.975-6.839
	c0.223,0.147,0.446,0.228,0.686,0.273c2.873,0.616,6.727-5.423,6.727-5.423L1178.323,181.63z"/>
<path id="Newhampshire" fill="#99E8FF" stroke="#FFFFFF" stroke-miterlimit="10" d="M1195.396,233.895L1195.396,233.895v-6.223
	l-3.649-2.039l-2.979-57c-0.15,0.015-0.304-0.006-0.457-0.097c-1.717-1.073-7.302-0.861-6.657,0.212c0.647,1.074,0,6.226,0,6.226
	s-0.635,0.005-1.769,0.015c1.189,5.015-1.563,6.64-1.563,6.64l2.256,7.084c0,0-4.521,7.077-7.409,5.149
	c-2.896-1.933-4.509,2.253-3.821,9.338c0.688,7.082-8.097,14.811-8.097,14.811s-0.029,0.723-0.091,1.854l0,0
	c-0.188,3.406-0.637,10.525-1.305,13.108c0.002,0,0.002,0,0.002,0c-0.121,0.46-0.244,0.793-0.375,0.917
	c-1.132,1.074-1.771,6.334-1.771,6.334s1.283,3.112,2.466,5.473h26.522l6.119-3.861h3.515c0.198-1.996,0.645-4.373,1.208-5.982
	L1195.396,233.895z"/>
<g id="Massachusetts">
	<path fill="#83D0FF" stroke="#FFFFFF" stroke-miterlimit="10" d="M1182.941,265.984l1.501,2.574l0.646,6.6
		c0,0,3.229,1.533,5.25,5.028c1.691-1.122,7.473-5,7.85-5.295c0.869-0.685,1.484-0.359,1.704,0.217h0.005l-0.003,0.005
		c0.162,0.424,0.115,0.98-0.2,1.39c-0.748,0.964-4.615,8.584,0.754,4.077c5.365-4.507,15.029-3.436,14.604-3.863
		c-0.433-0.426-0.537-3.221,0.32-4.828c0.855-1.612-1.184-4.831-2.149-6.12c-0.967-1.288-1.61,0.539-1.61,0.539
		s-0.967-0.324,2.256,3.109c3.222,3.434-4.513,3.649-6.657,4.078c-1.774,0.354-3.988-0.609-4.701-0.953v0.003l-0.001-0.005
		c-0.146-0.071-0.234-0.119-0.234-0.119s0.215-3.221-1.507-4.08c-1.719-0.859-2.577-1.716-1.071-3.434
		c0.984-1.125-1.162-3.813-3.303-6.198l0,0c-0.38-0.419-1.109-1.213-1.109-1.213c-0.715-0.778-1.369-1.491-1.812-2.032
		c-0.104-0.124-0.23-0.376-0.231-0.376c-1.079-2.312,4.352-5.226,5.163-5.632c0.864-0.431-1.068-3.006-1.931-4.078
		c-0.293-0.368-0.309-1.808-0.138-3.542h-3.515l-6.119,3.866l-44.189-0.005c-0.434,2.238-3.105,15.776-4.879,18.138
		c-0.313,0.425-0.602,1.181-0.85,2.146L1182.941,265.984z"/>
	<path fill="#83D0FF" stroke="#FFFFFF" stroke-miterlimit="10" d="M1199.293,284.102c-0.425,0.586-3.684,4.746-2.902,4.746
		c0.779,0,6.527-2.087,8.028-1.731C1204.419,287.114,1200.234,282.801,1199.293,284.102z"/>
	<path fill="#83D0FF" stroke="#FFFFFF" stroke-miterlimit="10" d="M1212.797,285.75c0,0-1,2.097-2.001,3.095
		c-1.001,1-1.126,4.002,3.378,2.501C1218.674,289.845,1213.799,286.902,1212.797,285.75z"/>
</g>
<path id="Rhodeisland" fill="#B9F4FF" stroke="#FFFFFF" stroke-miterlimit="10" d="M1189.052,278.367L1189.052,278.367
	c-1.087-1.284-2.241-2.155-3.023-2.663l0,0c-0.565-0.364-0.938-0.543-0.938-0.543l-0.135-1.362c0,0,0-0.005,0.001-0.005
	l-0.513-5.235l-1.502-2.574h-9.492c0.609,3.143,0.918,7.704,0.91,10.439c0.009,1.089-0.01,2.207-0.063,3.354
	c-0.098,1.995-0.287,4.062-0.621,6.2c0,0,5.796,1.435,8.018-1.971c0.814-1.25,1.114-2.532,1.246-3.583
	c0.229-1.812-0.041-2.944,0.981-2.074c0.088,0.073,0.161,0.177,0.23,0.303c0.219,0.399,0.354,1.043,0.466,1.766
	c0,0-0.001,0-0.001,0.002c0.503,3.27,0.527,8.161,5.725-0.235C1189.942,279.504,1189.505,278.903,1189.052,278.367z"/>
<path id="Connecticut" fill="#73B9FF" stroke="#FFFFFF" stroke-miterlimit="10" d="M1136.78,265.984
	c-0.882,3.388-1.37,9.363-1.585,12.739l0.002,0.003c-0.102,1.51-0.145,2.497-0.145,2.497s2.792,6.225,1.288,8.155
	c-0.448,0.576-1.967,2.769-3.871,5.559c1.533,0.268,3.084,0.48,4.668,0.571c2.979-2.693,9.127-7.183,9.127-7.183
	c1.587-0.948,2.938-1.482,3.818-1.306c1.079,0.217,3.692,0.206,6.981,0.07l0,0c1.729-0.07,13.225-0.836,16.608-1.114
	c0.507-3.247,0.693-6.35,0.689-9.245c-0.007-4.111-0.411-7.787-0.917-10.746H1136.78L1136.78,265.984z"/>
<path id="Texas" fill="#5065EB" stroke="#FFFFFF" stroke-miterlimit="10" d="M694.824,575.715
	c-0.43-0.646,1.721-10.521,1.721-10.521s-4.023-2.979-3.846-4.185c0.021-0.132,0.068-0.244,0.192-0.325
	c1.288-0.856-2.36-6.438-2.36-6.438s0.379-2.448-1.146-5.25l-0.004,0.002c-0.438-0.813-1.035-1.656-1.856-2.479
	c-2.24-2.24-2.698-4.074-2.723-5.156c-0.016-0.683,0.146-1.068,0.146-1.068s-0.188-21.447-0.165-22.652
	c0.023-1.775,0.076-3.021,0.165-3.317c0.188-0.668,0-3.785-0.535-6.842h0.002c-0.669-3.83-1.876-7.564-3.544-6.251
	c-1.546,1.212-6.733-2.007-11.552-5.064c-4.542-2.885-8.76-5.631-9.28-4.381c-0.42,1.009-1.662,1.552-3.068,1.769h-0.003
	c-2.188,0.334-4.778-0.126-5.306-0.909c-0.859-1.288-4.938,3.648-6.668,2.79c-1.631-0.813-6.858-1.427-11.41,0.308
	c-0.273,0.104-0.552,0.217-0.815,0.339c-4.727,2.146-5.583-1.72-9.022-4.296c-0.632-0.475-1.438-0.622-2.331-0.561h-0.003
	c-3.97,0.281-9.691,4.855-9.691,4.855l-2.894-2.316v-0.002l-3.55-2.837c-6.405,5.24-5.969-1.102-6.774-1.729v0.005
	c-0.085-0.068-0.186-0.075-0.311,0.008c-1.289,0.856,0-4.292-3.007-2.572c-1.099,0.624-3.688,0.535-6.532,0.175
	c-4.938-0.64-10.646-2.107-10.646-2.107s-0.296,0.061-0.757,0.091v-0.005c-1.494,0.101-4.805-0.131-6.115-3.73
	c-1.15-3.172-3.651-1.317-5.826-0.275h-0.001c-1.066,0.52-2.056,0.841-2.763,0.271c-2.147-1.721-8.591-6.869-8.591-6.869v-51.514
	h-65.604v120.521l-66.926,0.002v-0.002H407.5v5.136h5.153c0,0,5.677,10.8,8.771,11.316c0.202,0.035,0.396,0.027,0.572-0.033
	c2.895-0.964,14.493,14.17,14.493,14.17s4.713,0.727,7.606,2.984c0,0,1.273,1.176,1.671,1.896c0.157,0.29,0.295,0.593,0.387,0.912
	c1.289,4.51,2.255,8.69,4.188,10.305c1.935,1.608,1.289,11.589,7.085,14.164c5.8,2.576,5.8,7.086,5.8,7.086s3.07,0.813,6.381,1.897
	v0.002c3.296,1.084,6.827,2.445,7.791,3.572c1.937,2.254,6.764,7.082,11.274-2.255c4.509-9.336,6.766-12.879,6.441-13.844
	c-0.324-0.966,6.765,1.607,8.053-2.896v-0.002c1.288-4.511,2.575,3.222,9.02,0.967c0.732-0.256,1.438-0.418,2.114-0.516
	c0.002-0.062,0.006-0.115,0.007-0.178c0,0.063-0.005,0.122-0.007,0.18c5.289-0.765,8.839,2.769,8.839,2.769s5.151,7.084,7.406,6.763
	c2.255-0.324-0.32,3.863,5.155,4.506c0.288,0.035,0.557,0.118,0.813,0.232v-0.004c1.306,0.563,2.233,2.074,2.958,3.983l0,0
	c1.857,4.888,2.409,12.396,4.604,13.493c3.22,1.611,4.189,8.05,4.189,8.05s1.309,1.134,2.912,2.659v0.004
	c2.76,2.628,6.396,6.417,5.782,7.64c-0.851,1.701,7.52,3.403,9.765,14.528c0.31,1.521,0.504,3.213,0.544,5.11
	c0,0,2.896,8.688,2.896,9.66c0,0.33,0.728,1.308,2.121,2.581h0.003c2.332,2.122,6.538,5.063,12.37,7.187
	c0.83,0.302,1.682,0.594,2.578,0.856c10.954,3.221,7.674,6.753,13.018,4.82c0.44-0.154,0.843-0.267,1.228-0.349l0,0
	c4.283-0.954,5.239,2.286,5.239,2.286s0.695,2.949,3.707,1.935c0,0,3.704-4.667,5.153-3.224c0.966,0.967-1.632-3.811-3.48-7.12
	h0.004c-0.934-1.668-1.677-2.966-1.677-2.966c0.313-0.628,0.134-1.964-0.23-3.546c-0.888-3.84-2.873-9.123-1.548-9.123
	c1.876,0,1.994-5.729,1.994-5.729s-7.107-5.688-6.569-5.385c1.75,1.001,6.355,1.246,6.355,1.246l3.221-5.582
	c0,0-1.288-4.091-1.122-6.097h-0.002c0.068-0.817,0.375-1.3,1.124-0.985c2.577,1.072,2.792-1.07,4.941-2.357
	c1.518-1.234-3.441-4.524-2.166-5.574c0.141-0.146,0.354-0.264,0.659-0.359c0.771-0.23,1.582-0.216,2.371-0.06
	c0.003,0.002,0.003,0.004,0.005,0.004c2.521,0.5,4.816,2.445,4.816,2.445s0.807-7.786,1.055-8.7c0.018-0.098,0.04-0.185,0.076-0.246
	c0.003-0.007,0.373-0.855,0.482,0.574c0.647,4.186,4.831,1.935,6.44,0.646c1.611-1.289-5.152-10.628-2.253-7.729l0.989,0.693
	c1.813,0.867,3.861-0.252,5.062-1.127v0.004c0.636-0.464,1.035-0.855,1.035-0.855c0.646,4.507,7.731,1.287,7.731,1.287
	c4.057,0,7.024-1.419,9.263-3.211c0,0,0-0.003-0.002-0.003c4.333-3.477,5.892-8.364,7.163-7.096
	c1.138,1.138,2.711-0.499,3.817-2.049c0.256-0.355,1.339-2.135,1.339-2.135s-0.32-3.221-2.256-6.438
	c-0.323-0.545-0.313-1.096-0.09-1.621c0.002,0,0.002,0,0.002,0c0.449-1.046,1.773-1.973,3.105-2.474
	c1.946-0.73,3.896-0.549,3.103,1.519c-1.608,4.189,3.544,4.825,6.443,3.221c0.396-0.224,1.258-0.601,2.437-1.063
	c2.124-0.84,5.303-1.979,8.812-3.061c-0.414-2.104-0.575-4.407,0.348-5.536c0.646-0.782,1.312-2.096,1.896-3.613h-0.003
	c0.945-2.448,1.688-5.436,1.796-7.71c0.028-0.568,0.021-1.094-0.035-1.554C691.604,580.649,695.256,576.357,694.824,575.715z"/>
<path id="Louisiana" fill="#5649D9" stroke="#FFFFFF" stroke-miterlimit="10" d="M788.564,616.976
	c1.289,2.896,7.406,0.645,7.088-0.32c-0.323-0.964-3.864-1.287-3.864-1.287l-1.611-3.542c0,0-9.663-5.524-9.018-7.779
	c0.117-0.413,0.554-0.943,1.186-1.534c2.815-2.638,9.555-6.491,9.555-6.491s1.604-10.86-3.883-4.187
	c-4.33,5.271-12.29,3.088-10.097,1.961c-0.002,0,0,0-0.002,0c0.033-0.016,0.061-0.029,0.098-0.052
	c0.394-0.168,1.556-1.463,2.957-2.937c0.686-0.717,1.426-1.475,2.159-2.172c0.664-3.998-4.517-9.934-5.678-11.312l2.255-7.893
	h-41.394c0.916-0.316,1.337-1.052,1.469-1.941c0.001,0,0.001,0,0.001,0c0.078-0.527,0.061-1.104-0.02-1.686
	c-0.258-1.892-1.125-3.773-1.125-3.773s4.189-0.966,1.936-3.54c-2.257-2.575,1.607-5.151,1.771-5.638
	c0.05-0.145,8.248-11.828,10.12-14.544c0.575-0.832,0.991-1.448,1.151-1.718c0.849-1.411-1.657-5.065-2.278-7.459
	c-0.085-0.33-0.138-0.642-0.138-0.908c0-2.174-8.229-2.706-3.049-11.54h-63.348c-0.116,5.002,0.034,16.386,0.108,21.289
	c0.02,1.437,0.036,2.316,0.036,2.316s-1.07,2.578,2.578,6.229v0.002c3.649,3.647,3.007,7.728,3.007,7.728s3.649,5.579,2.361,6.438
	c-1.17,1.031,3.654,4.507,3.654,4.507s-0.771,3.523-1.295,6.506l0,0c-0.354,2.006-0.601,3.76-0.428,4.018
	c0.428,0.64-3.146,4.854-2.797,8.271h0.002c0.004,0.033,0.003,0.063,0.006,0.103c0.275,2.209-0.52,5.936-1.636,8.935v0.006
	c-0.614,1.655-1.328,3.099-2.019,3.938c-0.924,1.13-0.764,3.435-0.353,5.53c8.69-2.684,19.385-5.033,20.967-1.667
	c0.848,1.799,3.435,2.859,6.522,3.483v0.002c6.314,1.276,14.733,0.703,14.733,0.703s-3.22-2.259-1.933-5.8
	c0.406-1.113,1.193-1.875,2.021-2.299c1.612-0.955,3.817-0.229,2.494,1.978c-0.854,1.422-0.326,1.963,0.694,2.241
	c0.001,0,0.002-0.007,0.004-0.007c1.293,0.344,3.376,0.264,4.451,0.981c1.935,1.285,6.767,4.507,6.767,4.507
	s2.799-3.411,4.424-3.224c0.035-0.057,0.079-0.113,0.118-0.168c-0.041,0.059-0.083,0.113-0.12,0.17
	c0.027,0.004,0.061-0.002,0.088,0.004c1.608,0.321-0.646,5.148-1.935,5.477c-1.289,0.322,0.359,5.34,3.543,6.762
	c3.185,1.419,0.646-5.8,2.574-3.86c1.937,1.929,3.544,5.146,3.544,5.146s5.155-5.793,8.053-4.826
	c0.405,0.136,1.178,0.515,1.178,0.515c2.344,1.254,2.819,4.832,4.206,3.441c1.609-1.606,1.199-4.245,3.456-4.245
	c1.151,0,0.303-1.654-0.291-2.98c0,0-0.001,0-0.004,0c-0.544-1.219-0.85-2.133,0.787-1.238
	C774.382,607.59,787.796,614.028,788.564,616.976z"/>
<path id="Florida" fill="#5649D9" stroke="#FFFFFF" stroke-miterlimit="10" d="M993.11,675.2
	c-0.156-0.974-0.415-2.226-0.739-3.646h-0.003c-0.438-1.902-0.997-4.111-1.591-6.35h0.003c-0.772-2.926-1.6-5.897-2.286-8.308
	c-0.868-3.054-1.507-5.199-1.507-5.199c0.04-0.385-0.005-1.137-0.005-1.137c-0.291-2.774-2.595-5.293-5.148-6.993
	c-1.79-1.189-3.107-6.701-3.477-10.741c-0.23-2.51-0.096-4.448,0.52-4.448c0.659,0,1.101-0.709,1.216-1.692l0.002-0.002
	c0.17-1.419-0.337-3.414-1.856-4.745c-1.104-0.969-6.469-13.607-6.469-13.607c-0.668-1.633-7.854-19.822-7.972-20.06
	c-0.317-0.639-0.604-3.188-0.837-6.328c-0.191-2.533-0.354-5.439-0.479-8.039l-13.664,2.132c0,0,1.602,2.896,1.499,5.645l0,0
	c-0.049,1.248-0.442,2.467-1.499,3.37c-3.382,2.896-2.576-5.556-2.576-5.556l-58.462-3.139l-3.222-7.404h-57.339
	c-2.093,4.669,3.705,6.603,4.672,7.726c0.648,0.756-1.024,6.521-2.197,10.227c2.433-1.457,7.065-5.491,7.189-5.65
	c1.935-2.508,2.898,2.188,2.898,2.188s2.228-0.479,5.133-0.991l0.003-0.004v0.004c2.596-0.452,5.729-0.932,8.315-1.112
	c2.396-0.171,4.321-0.097,4.907,0.49c1.936,1.937-11.917,0.972-6.439,3.224c2.798,1.153,18.888,7.408,18.888,7.408l10.104,9.975
	c0,0,1.423-0.938,3.298-2c2.778-1.57,6.565-3.396,8.298-2.822c1.936,0.646,3.439,0.275,5.094-1.376c0,0,1.686-1.959,2.649-3.457
	c1.204-1.864,3.563-1.903,5.91-1.228c0.629,0.183,1.259,0.413,1.858,0.681c2.602,1.133,4.778,2.837,4.778,3.444
	c0,1.289,6.701,6.229,6.444,8.05c0,1.292,1.284,3.863,3.861,4.829c1.381,0.52,2.485,2.421,3.561,4.074h0.002
	c0.931,1.433,1.837,2.687,2.885,2.687c1.103,0,4.572,4.721,4.572,4.721c1.652,2.647,3.001,5.72,2.837,7.194
	c-0.021,0.149-0.043,0.305-0.071,0.453c-0.517,2.807-2.827,5.98-2.827,5.98s-0.039,0.222-0.104,0.604h-0.003
	c-0.196,1.089-0.64,3.51-1.15,6.125c0.006,0,0.014,0,0.017,0c-0.003,0-0.015,0.007-0.019,0.007
	c-0.217,1.102-0.445,2.233-0.674,3.317c-0.967,4.585,3.056,9.592,3.056,9.592l1.455-5.148c0,0-0.324-1.609-1.353-3.865
	c-0.146-0.313-0.12-0.471,0-0.531l0.004-0.004v0.002c0.757-0.384,5.856,3.435,5.856,3.435s-0.793,3.674-3.314,6.989h-0.003
	c-0.271,0.354-0.56,0.712-0.869,1.06c-3.223,3.538-0.969,1.283,0,4.506c0.125,0.417,0.361,0.974,0.684,1.625l0,0
	c2.151,4.394,8.017,13.183,8.017,13.183s0.321-6.76,2.253-4.826c0.129,0.126,0.237,0.281,0.333,0.453h-0.001
	c1.353,2.432-0.333,8.882-0.333,8.882s4.513,2.575,5.155,6.438c0.154,0.945,0.525,2.191,1.008,3.554h-0.003
	c1.484,4.199,4.042,9.493,4.772,10.458c0,0,2.605,0.565,5.151,2.415c1.023,0.738,2.03,1.672,2.855,2.871
	c2.897,4.187,2.278,7.813,1.956,8.926c-0.318,1.119-0.086,6.422,2.49,5.451c0.709-0.265,4.408-0.479,4.408-0.479
	c5.379-0.316,13.437-0.835,13.898-5.269c0,0-1.07-2.413-1.07-5.308c0-2.902,1.196-4.602,2.485-4.278
	c3.289-0.328,2.824-15.013,2.824-15.013C993.698,684.267,993.671,678.767,993.11,675.2z"/>
<path id="Mississippi" fill="#5065EB" stroke="#FFFFFF" stroke-miterlimit="10" d="M768.802,464.096
	c-0.246,0.559-0.888,1.909-1.734,3.042h-0.003c-1.063,1.405-2.439,2.467-3.784,1.202c-2.467-2.322-1.531,6.342-1.325,9.134
	c0.021,0.307,0.036,0.544,0.036,0.686c0,1.45-7.406,7.246-7.406,7.246s-0.103,1.557-0.577,3.047l0,0
	c-0.357,1.136-0.933,2.236-1.838,2.584c-2.092,0.806-4.99,11.579-6.762,11.913h-0.004c-1.771,0.318,9.822,2.895,3.383,12.719
	c-0.466,0.707-0.84,1.359-1.151,1.975h-0.002c-4.05,7.921,3.569,8.49,3.569,10.583c0,0.949,0.604,2.309,1.229,3.673h0.001
	c0.854,1.874,1.742,3.771,1.188,4.694c-0.262,0.438-11.233,16.135-11.274,16.262c-0.162,0.485-4.026,3.063-1.772,5.638
	c0.279,0.314,0.458,0.612,0.562,0.886c0,0,0.003,0,0.003-0.002c0.717,1.918-2.495,2.656-2.495,2.656s2.898,6.275-0.319,7.4h41.388
	h0.003l-2.254,7.895c0,0,3.12,3.72,4.021,5.519c1.122,1.965,1.97,4.104,1.654,5.791c1.814-1.708,3.607-3.017,4.47-2.296
	c0.112,0.093,0.256,0.163,0.42,0.219c2.646,0.879,11.49-3.108,11.503-3.114c0.01,0.006,5.473,3.271,7.726,2.257
	c0.438-0.2,1.049-0.334,1.743-0.423c-0.135-3.625-0.238-6.931-0.325-9.957h0.002c-0.061-2.093-0.108-4.057-0.147-5.889
	c-0.106-4.997-0.144-9.055-0.141-12.36c0,0,0.047-9.211,0.352-11.678c0,0,0,0-0.002,0l0.808-10.155
	c0.158-1.944,6.41-66.74,6.41-66.74s-0.909-2.043-1.983-4.401h-45.164v-0.003H768.802z"/>
<path id="Alabama" fill="#494FE7" stroke="#FFFFFF" stroke-miterlimit="10" d="M882.229,568.951
	c-0.381-3.706-0.521-7.472,0.288-8.478c0.116-0.146,0.206-0.333,0.276-0.551c0.688-2.047-0.535-7.005-1.352-10.265
	c0.001,0,0.001,0,0.003,0c-0.363-1.439-0.648-2.558-0.648-2.929c0-0.599,1.024-2.686,2.118-4.741l0,0
	c1.256-2.367,2.604-4.697,2.604-4.697s0.729-4.974-0.483-7.546c-0.362-0.922-0.889-1.748-1.661-2.33
	c-0.409-0.309-0.909-1.513-1.476-3.386l0,0c-0.729-2.415-1.561-5.945-2.438-10.138c-0.641-3.041-1.969-9.984-1.969-9.984
	c-0.726-3.879-6.472-38.29-6.706-39.813H813.96c0.942,2.066,1.763,3.896,1.942,4.311h0.006c0.024,0.06,0.039,0.091,0.039,0.091
	s-6.854,69.599-7.217,76.888c-0.102,0.819-0.188,2.811-0.258,4.997c-0.203,4.433-0.031,14.958-0.031,14.958
	c0.084,5.302,0.254,11.837,0.55,19.937c2.885-0.359,7.273,0.095,7.273,0.095s-0.319-1.182,0-4.855
	c0.263-2.979,1.287-3.684,2.402-2.979c1.604,1.005,3.396,4.899,3.396,9.125c0,0-5.996,4.595,4.191,1.931
	c0.751-0.192,2.02-0.835,3.438-1.686c1.172-3.706,2.847-9.471,2.196-10.227c-0.967-1.125-6.765-3.059-4.67-7.726h55.008v-0.001
	H882.229z"/>
<path id="Georgia" fill="#5065EB" stroke="#FFFFFF" stroke-miterlimit="10" d="M946.24,579.494
	c-0.003,0.044-0.796,8.444,2.578,5.556c3.383-2.897,0.006-9.048,0.006-9.048l13.659-2.097c-0.193-3.971-0.381-7.402-0.381-7.402
	l2.313-5.394l0,0l2.039-4.751c0,0-2.738-2.096-1.128-2.255c1.608-0.16-0.479-3.861-0.481-3.863c0.034,0.002,3.865,0.319,4.827,0
	c0.079-0.019,0.137-0.081,0.18-0.148c0.316-1.45-0.969-4.014-0.979-4.032c0.011-0.005,2.739-0.162,4.349-1.29
	c1.608-1.13-0.162-3.219-0.968-3.865c-0.314-0.253,0.713-0.879,2.074-1.546c-1.202-1.744-2.507-3.623-3.786-5.412
	c-2.695-3.771-5.275-7.138-6.502-8.012c-0.061-0.045-0.112-0.094-0.173-0.146v0.002c-1.862-1.519-3.086-5.521-5.077-9.187
	c-0.012,0.014-0.023,0.028-0.035,0.043c0.012-0.013,0.023-0.029,0.033-0.039c-1.088-2.021-2.323-3.735-4.114-5.074
	c-0.271-0.201-2.549-1.716-6.318-8.475c-0.805-1.35-1.611-2.729-2.44-4.059h-0.001c-2.089-3.357-4.287-6.415-6.78-7.842
	c-0.104-0.062-0.201-0.124-0.307-0.19c-2.771-1.726-5.021-5.06-6.616-8.09h-0.001c-1.769-3.348-2.688-6.159-2.688-6.159
	s-3.016-0.742-5.067-1.933c0,0-2.06-1.062-3.132-2.333c-0.692-0.82-3.256-4.025,4.988-8.362H870.77l6.979,41.385
	c0.534,2.81,1.063,5.496,1.578,7.961c0.49,2.342,0.965,4.47,1.414,6.334h0.004c0.634,2.606,1.729,6.896,2.633,7.645
	c1.688,1.264,2.361,4.166,2.364,5.76c0.074,1.295-0.218,4.114-0.218,4.114s-1.88,3.222-3.275,5.98c0,0-1.463,2.857-1.448,3.461
	c0,0.302,0.11,0.908,0.374,1.969h-0.003c0.46,1.83,1.143,4.468,1.502,6.802c0.002,0,0.002,0,0.002,0
	c0.328,2.116,0.475,4.185-0.153,4.969c-0.682,0.849-0.688,4.294-0.456,6.622c0.045,0.594,0.11,1.261,0.175,1.858h2.328l3.215,7.402
	L946.24,579.494z"/>
<path id="Southcarolina" fill="#494FE7" stroke="#FFFFFF" stroke-miterlimit="10" d="M1026.3,494.414
	c-3.142-3.144-25.677-26.236-25.677-26.236h-24.48l-0.856-4.082l-11.167-4.718l-21.043-1.721l-7.329,6.438h-9.42
	c-14.276,7.539,1.459,12.181,3.076,12.627l0.001-0.002c0.084,0.023,0.145,0.041,0.145,0.041s2.55,7.842,7.017,12.36
	c0,0,1.654,1.518,2.564,2.039c3.957,2.034,8.697,11.066,9.443,12.314h-0.002c2.007,3.354,3.98,6.471,6.102,8.061
	c0.474,0.354,0.903,0.754,1.314,1.179l0,0c2.912,2.636,5.535,10.419,6.938,12.052c0,0,0.746,0.943,1.273,1.287
	c3.161,2.922,9.181,12.017,10.128,13.388c1.717-0.834,4.042-1.623,4.815-1.927c-0.435,0.071-1.302-0.174-2.104-2.825
	c-1.129-3.697,1.127-1.769,2.426-1.769c1.304,0,2.209,3.194,2.694,3.194c0.479,0,3.059-2.258,0.158-4.189
	c-2.865-1.909-1.01-2.719,0.432-2.891c0.018-0.004,0.188,0,0.255-0.004c1.019-0.011,2.214,1.284,2.214,1.284
	s3.932-3.343,8.057-3.865c3.382-0.319,2.255-2.092,1.607-2.896c-0.354-0.438,0.488-0.685,1.457-0.926l0,0
	c0.569-0.145,1.188-0.274,1.625-0.446c0.189-0.072,0.352-0.15,0.459-0.237c0,0,5.741-7.165,8.83-6.014
	c3.088,1.157,1.152-1.392,1.152-1.392c0.863-0.701,1.522-1.31,2.049-1.849c1.673-1.78,1.498-3.466,1.498-3.466
	c0.891-2.606,2.006-4.771,3.261-6.591h-0.001C1018.357,498.078,1022.422,495.745,1026.3,494.414z"/>
<path id="Westvirginia" fill="#73B9FF" stroke="#FFFFFF" stroke-miterlimit="10" d="M981.3,332.739l-0.002-14.753
	c-1.538,0.914-2.622,2.261-3.401,3.808c-0.479,0.945-0.844,1.961-1.121,3.006l0,0c-0.249,0.925-0.438,1.865-0.579,2.79h0.002h-0.004
	c-0.325,2.102-0.446,4.108-0.621,5.604c-0.146,1.228-0.328,2.117-0.698,2.428c-0.07,0.058-0.145,0.104-0.23,0.119
	c-1.72,0.207-4.174,4.366-4.174,4.366c-0.939,1.496-1.651,2.87-1.844,3.145c-0.341,0.514,0.673,1.16-3.118,1.514
	c-0.974,0.091-2.258,0.159-3.968,0.204c-5.915,0.152-4.764,2.446-5.084,5.749l0,0c-0.137,1.372-0.521,2.915-1.784,4.558
	c-1.083,1.526-1.678,1.905-1.678,1.905c-0.286,0.172-0.31-0.126-0.303-0.631c0.021-1.228,0.219-3.659-2.816-3.421
	c-5.434,0.43-2.515,12.206-4.648,10.95l-0.005-0.005c-2.146-1.289-1.07,3.218-4.293,4.937c-0.349,0.187-0.666,0.293-0.965,0.349
	c-0.63,0.191-1.206-0.018-1.649-0.306l-1.255,8.975c0,0,0.313,3.722,1.289,5.149c0.888,1.291,1.7,2.433,2.469,3.461
	c8.521,11.567,9.937,7.443,9.937,8.775c0,0,0.011-0.002,0.018-0.002c-0.005,0-0.018,0.002-0.018,0.002
	c0,0.315-0.79,0.998-2.024,1.872c13.384,10.905,15.168,2.686,15.179,2.636c0.031,0.05,4.095,6.206,8.157,1.288
	c1.581-1.915,3.139-3.799,3.139-3.799c0.939-1.133,0.939-1.138,0.939-1.138s5.155,2.143,7.305-0.434
	c2.146-2.572,5.366-2.787,5.366-3.432c0-0.298-0.494-1.015-0.444-2.35c0,0,0,0-0.002,0c0.059-1.554,0.864-3.947,4.097-7.521
	c4.744-5.132,7.315-15.435,9.834-16.299v0.002c0.495-0.182,1.003-0.048,1.549,0.483c3.438,3.36,8.161,4.437,8.587-1.572
	c0.18-2.958,0.913-6.253,2.816-6.528c0.686-0.102,1.471,0.203,2.347,0.945c2.789,2.359,6.228-4.725,6.228-4.725
	s4.525-2.486,5.746-4.801c0.001,0,0.001,0,0.001,0c0.002-0.005,0.002-0.005,0.002-0.005l0,0c0.257-0.49,0.372-0.967,0.264-1.415
	c-0.646-2.578,1.487-3.33,2.075-5.538c-0.003-0.003-3.059-3.503-1.514-2.979c0.072,0.022,0.147,0.048,0.238,0.094
	c0.553,0.253,1.566,0.985,2.768,1.925c0,0,0,0,0-0.002c1.5,1.073,8.187,6.927,8.187,6.927l2.997-5.179
	c-1.804-1.353-2.355-2.929-2.355-2.929l-0.038-0.045h0.002l-4.63-4.886c-0.045-0.038-0.088-0.065-0.131-0.101l0,0
	c-2.846-2.395-5.348-0.217-5.348-0.217s-2.736-1.453-2.417,0.318c0.121,1.966-3.771,2.592-5.65,2.031
	c-0.712-0.173-1.421-0.465-2.079-0.902c-3.381-2.256-4.134,3.802-4.134,3.802c-2.479-2.46-5.305-0.872-7.567,1.436h-0.003
	c-1.325,1.354-2.46,2.949-3.223,4.128l-1.016,1.688v-15.452H981.3V332.739z"/>
<path id="Indiana" fill="#8BDDFF" stroke="#FFFFFF" stroke-miterlimit="10" d="M829.688,338.747c0,0-3.271,3.469-4.449,6.928
	c-0.527,1.549-0.641,3.097,0.158,4.33c1.173,1.81,2.164,4.042,2.9,5.938c0.878,2.264,1.391,4.053,1.391,4.053
	s-2.852,2.406-2.64,6.442h0.002c0.024,0.475,0.084,0.975,0.205,1.501c0.747,3.205-2.429,5.047-4.748,5.947
	c0.013,0.016,0.026,0.025,0.041,0.036c-0.014-0.01-0.028-0.02-0.041-0.03c-1.254,0.485-2.268,0.702-2.268,0.702l-4.294,8.155
	l3.012,4.7c2.011-1.001,5.778-2.686,6.866-1.91c0.203,0.144,0.411,0.157,0.637,0.086v0.003c0.876-0.271,2.02-1.834,4.217-2.04l0,0
	c1.048-0.099,2.333,0.118,3.948,0.935c0,0,1.107,0.6,1.725,1.016c7.3,4.937,3.005-1.93,3.005-1.93s4.081-4.078,6.229-0.86
	c0.191,0.289,0.394,0.541,0.594,0.769c0,0,0,0,0,0.005c2.001,2.294,4.127,1.47,4.127-1.85c0-1.985,1.593-2.951,3.045-3.421
	c1.212-0.394,2.325-0.439,2.325-0.439s0.424,0.349,1.084,0.836c2.326,1.795,8.363,5.593,8.363,0.295
	c0-0.669,0.091-1.779,0.091-1.779c0.422-3.86,2.236-4.017,2.855-3.875c0.143,0.021,0.229,0.051,0.229,0.051
	c4.022-0.575,5.688-5.319,6.344-8.399h-0.001c0.325-1.521,0.406-2.643,0.406-2.643s3.39,0.687,5.822-0.162h0.003
	c0.724-0.253,1.363-0.631,1.806-1.21c1.936-2.528,5.638-1.227,5.638-1.227v-85.99H842.47c-1.886,1.486-3.532,2.542-4.623,3.217
	c-0.852,0.535-1.747,0.77-2.648,0.778c-1.922,0.02-3.88-0.99-5.511-2.423V338.747L829.688,338.747z"/>
<path id="Ohio" fill="#86D5FF" stroke="#FFFFFF" stroke-miterlimit="10" d="M981.298,268.912
	c-1.657,0.669-3.188,1.213-4.51,1.577c-1.369,0.379-2.688,0.829-3.958,1.322v-0.003c-6.516,2.532-11.638,6.292-14.954,8.508
	c0,0-3.146,2.392-3.851,1.766c-2.276-1.021-8.307,0.823-11.327,1.64v0.002c-1.491,0.405-2.813,0.813-3.704,1.147
	c-3.438,1.289-1.285-1.933-3.65-1.288c-0.925,0.252-2.215,0.308-3.169,0.025c-0.415-0.081-1.151-0.333-1.151-0.333
	c-1.021-0.415-1.649-1.056-1.263-1.837c0.845-1.685,1.258-0.894-4.436-3.59c-0.102-0.045-0.188-0.086-0.29-0.136
	c-1.897-0.904-3.318-1.721-4.226-2.552h-32.494l-0.001,74.534h10.522l0.168,1.943c0.393,2.954,1.69,8.192,5.944,7.831l0,0
	c0.039-0.006,0.073,0,0.109-0.006c3.717-0.5,8.444,0.983,8.444,0.983c2.384,0.7,4.014,1.483,4.014,1.483s3.066,5.253,5.742,3.755
	c0,0,0.464-0.293,0.688-0.531c2.808-3.007,6.67-4.725,7.102-2.79c0.228,1.006,1.737,2.072,3.13,2.861l0,0
	c1.276,0.723,2.452,1.217,2.452,1.217s1.074,4.29,4.294,2.572c3.224-1.719,2.146-6.226,4.295-4.937l0,0
	c2.021,1.208-0.445-9.151,3.77-10.75l0,0c0.269-0.104,0.563-0.169,0.887-0.194c5.441-0.429,0.503,7.726,4.796,2.145
	c2.53-3.292,1.559-6.208,2.047-8.091h-0.003c0.471-1.831,2.565-2.155,4.825-2.213c8.375-0.214,6.657-1.073,7.086-1.718
	c0.349-0.517,2.5-4.783,4.562-6.657l0,0c0.498-0.454,0.992-0.77,1.455-0.854c1.058-0.191,0.783-3.093,1.509-7.863
	c0.427-2.892,1.241-5.987,3.146-8.186l0,0c0.564-0.657,1.222-1.243,2-1.705V268.912L981.298,268.912z"/>
<path id="Illinois" fill="#80CFFF" stroke="#FFFFFF" stroke-miterlimit="10" d="M829.691,275.282
	c-2.247-1.973-3.865-4.748-3.865-6.723c0-3.107-3.223-6.458-3.223-6.458c-0.346-0.581-0.593-1.197-0.644-1.912
	c-0.102-1.379,0.341-5.126,0.582-9.346h-63.43c0.103,0.389,0.162,0.763,0.143,1.081c-0.105,1.501,5.26,3.971,5.584,6.117
	c0.195,1.312,2.395,1.983,4.023,3.211c1.04,0.784,1.854,1.789,1.771,3.336c-0.06,1.104-0.229,2.243-0.47,3.322c0,0,0,0,0.001,0
	c-0.425,1.931-1.072,3.667-1.739,4.611c0.015,0.022,0.027,0.043,0.043,0.06c-0.016-0.017-0.028-0.038-0.043-0.055
	c-0.306,0.429-0.61,0.708-0.903,0.758c-1.287,0.212,0,6.438-1.61,6.654c-1.607,0.212-14.493,3.325-15.243,4.503
	c-0.188,0.298-0.264,0.834-0.241,1.531h-0.001c0.058,1.916,0.825,5.028,1.891,7.58l0,0c0.09,0.225,0.186,0.445,0.281,0.654
	c1.607,3.545-2.146,7.729-3.007,8.049c-0.471,0.177-0.783,1.347-1.646,2.547c-0.722,0.995-1.819,2.014-3.72,2.499
	c0,0-0.675,6.645-1.938,10.915c0,0-0.757,2.572-1.452,3.146c-1.979,2.1,1.957,8.742,1.957,8.742
	c0.451,0.813,0.788,1.346,0.788,1.346c1.482,1.6,15.355,15.367,15.46,15.665c0.051,0.157,0.147,0.816,0.271,1.718l1.019,8.374
	c0,0,6.44,0,6.44-2.578c0-0.358,0.097-0.536,0.243-0.604l0.006-0.013h0.052c0.062-0.012,0.122-0.018,0.194,0l0,0
	c1.171,0.271,4.01,4.053,4.01,4.053s-0.762,2.046-1.485,4.123c-0.492,1.411-0.971,2.835-1.186,3.648
	c-0.073,0.284-0.118,0.491-0.118,0.602c0,0.854-3.647,9.227-1.718,11.16c0.523,0.523,1.47,1.321,2.558,2.2
	c2.91,2.354,6.893,5.314,6.893,5.314l2.545,1.655l6.689,4.351c0,0,0.08,0.424,0.188,1.084c0,0,0.737,4.813,0.661,6.753
	c-0.001,0-0.001,0-0.001,0c-0.049,1.142-0.277,1.862-0.853,1.607c-1.934-0.859,0.857,7.296,0.857,7.296s3.378,1.034,4.736,1.271
	c3.269-5.364,6.693-5.503,6.693-5.503c3.134-0.477,5.32,1.873,5.32,1.873s6.722,4.027,5.631-0.983l0,0
	c-0.062-0.285-0.146-0.598-0.263-0.947c-1.104-3.305-0.217-4.851,1.602-5.842l0,0c1.72-0.939,4.271-1.374,6.774-2.313
	c3.376-1.253,0.964-3.208,0.964-3.208c-1.215-1.193-3.325-2.158-3.325-2.158l3.225-1.933c0,0,0.521-0.286,1.291-0.665l-3.013-4.7
	l4.296-8.152c0-0.003,1.743-0.377,3.505-1.261h-0.002c2.054-1.023,4.129-2.744,3.511-5.396c-0.311-1.317-0.271-2.492-0.063-3.513
	h0.004c0.575-2.81,2.494-4.426,2.494-4.426s-0.51-1.773-1.38-4.022h-0.003c-0.736-1.903-1.73-4.149-2.91-5.971
	c-0.8-1.233-0.688-2.782-0.159-4.333c1.18-3.457,4.452-6.928,4.452-6.928L829.691,275.282z"/>
<path id="Northcarolina" fill="#5649D9" stroke="#FFFFFF" stroke-miterlimit="10" d="M976.141,468.176l-0.856-4.08h0.002
	l-11.167-4.72l-21.043-1.719l-7.329,6.438l-37.115-0.003l1.709-6.438c0,0,1.196-0.402,2.651-1.317c0.001,0,0.002,0,0.002,0
	c1.564-0.984,3.431-2.57,4.433-4.904c1.438-3.348,3.054-0.359,6.432-1.024l0,0c1.169-0.229,2.547-0.894,4.202-2.409
	c3.503-3.16,6.612-4.785,9.174-5.869c1.776-0.796,2.92-1.261,3.063-1.969c0.324-1.606,2.9-6.114,6.764-3.86
	c0.674,0.395,2.282,0.387,2.282,0.387c0.893-0.1,1.852-0.431,2.814-0.847c2.156-0.935,4.336-2.345,5.89-2.871
	c0.763-0.3,1.464-0.313,1.831,0.108c0.662,0.766,1.768-0.232,2.859-1.715c1.046-1.417,2.714-4.48,2.714-4.48
	c0.381-0.726,0.612-1.21,0.612-1.21v-4.194l126.735,1.249c-0.081,0.927-0.146,1.52-0.146,1.52s1.271,2.421,2.279,4.943
	c0,0,1.187,2.885,1.156,3.783c0,0-3.596-1.182-4.24-1.021c-0.643,0.157-4.508-5.476-3.863-3.704
	c0.348,0.956,0.876,2.355,1.096,3.391l0,0c0.188,0.886,0.145,1.507-0.449,1.329c-0.416-0.122-1.055-0.032-1.744,0.103
	c0,0,0-0.005-0.002-0.005c-1.444,0.276-3.133,0.752-3.569-0.066c-0.44-0.828,0.099,2.526-1.272,3.599
	c-1.178,0.508-1.669,0.498-3.397-0.622c0,0-1.854-0.146-1.804-5.521c0,0,0.011-0.695,0.031-1.079
	c0.117-2.393-0.097-1.581-0.41,0.379c0.003,0,0.003,0.002,0.003,0.002c-0.042,0.267-0.087,0.549-0.137,0.853h0.003
	c-0.528,3.472-1.228,9.052-1.229,9.066l1.546-0.535c-0.002,0.073-0.018,0.145-0.022,0.218c0.006-0.073,0.022-0.145,0.024-0.218
	l2.641-0.912c0,0,4.186,0.162,5.152,0.484c0.146,0.045,0.427,0.011,0.785-0.076c5.442-1.908,7.033-2.627,6.627-0.57
	c-0.342,1.692-1.05,5.301-0.733,6.66c0.08,0.594,0.296,0.792,0.729,0.266c0.063-0.081,0.114-0.177,0.165-0.272
	c0.001,0,0.001,0,0.002,0c1.114-2.063-0.505-7.881,2.573-6.649c3.271,1.263,2.175,8.957,2.18,8.962
	c-0.18,0.616-0.431,1.013-0.733,1.013c-1.449,0.008-6.604,6.766-6.604,6.766s-7.086-0.967-6.438-2.415
	c0.643-1.45-4.027,1.771-3.225-0.321c0.807-2.092,2.256-3.221,2.256-3.221s-0.486,0.153-1.12,0.389v-0.002
	c-1.426,0.526-3.59,1.47-2.581,2.031c1.445,0.804,1.126,4.024-5.963-0.164c-7.085-4.183,3.703,5.313,7.089,4.188
	c1.182-0.396,1.509,0.063,1.444,0.816c-0.014,0.005-0.025,0.01-0.037,0.015c0.013-0.005,0.027-0.01,0.04-0.015
	c-0.116,1.404-1.608,3.853-1.608,3.853s-2.771,6.993-5.668,3.13c-1.012-1.347-1.852-1.925-2.438-2.063c0,0,0,0,0-0.002
	c-0.569-0.126-0.9,0.15-0.921,0.563c-0.021,0.384,0.188,1.873,1.001,1.918c1.732,0.108,2.365,3.401,4.928,3.123l0,0
	c1.258-0.141,2.975-1.126,5.514-3.771c0,0,0.806,2.095,1.934,1.933c1.129-0.162-3.219,4.51-2.9,5.955
	c0.271,1.203-8.023,2.403-11.572,2.04l0,0c-0.723-0.071-1.25-0.212-1.47-0.428c-1.288-1.291-3.223,4.349-5.798,4.187
	c-0.863-0.055-2.415,1.105-4.162,2.811l0,0c-2.37,2.304-8.51,10.578-8.883,11.359c-0.936,1.948-6.515,1.622-12.551,3.699
	c-1.169-1.172-25.678-26.242-25.678-26.242L976.141,468.176z"/>
<g id="Newyork">
	<path fill="#9AF1FF" stroke="#FFFFFF" stroke-miterlimit="10" d="M1128.654,307.93c-6.065,4.914,0.927,3.874,2.132,2.729
		C1131.992,309.509,1128.654,307.93,1128.654,307.93z"/>
	<path fill="#9AF1FF" stroke="#FFFFFF" stroke-miterlimit="10" d="M1176.748,293.875c-18.605,6.682-6.041-2.719-6.041-2.719
		s-6.63,5.081-10.925,4.219c-4.297-0.859-8.159,1.288-8.159,1.288l-4.303,1.281c0,0.002,0,0.005,0,0.005s0-0.003,0-0.005
		l-6.44,1.917v0.006h-0.001l-4.298,1.277c0,0,0,0,0-0.002l-0.156,0.048c0,0-2.102,2.122-3.321,4.014
		c0.094,0.175,0.173,0.39,0.229,0.665c0.287,1.322,2.129,1.724,4.647,1.617l0,0c0.896-0.035,1.873-0.133,2.897-0.28l0.001-0.002
		v0.002c1.999-0.286,4.169-0.738,6.23-1.232c0-0.003,0.002-0.008,0.002-0.011c0,0.003,0,0.008,0,0.011
		c4.284-1.032,8.072-2.225,8.738-2.355C1157.463,303.296,1178.955,293.084,1176.748,293.875z"/>
	<path fill="#9AF1FF" stroke="#FFFFFF" stroke-miterlimit="10" d="M1097.256,265.982c0,0,1.259,3.35,3.208,5.548
		c0.652,0.662,0.981,0.99,1.522,1.324c2.789,1.716-1.722,6.867,1.07,8.15c0.104,0.053,1.022,0.612,1.04,0.625
		c1.505,0.987,4.154,2.902,7.628,4.999l0,0c2.995,1.814,6.621,3.75,10.657,5.366c2.518,1.223,7.304,2.371,7.288,2.378
		c0,0-0.599,6.293-1.042,8.092c-0.442,1.921-1.069,3.619-1.942,4.347c-1.202,1,9.09-7.121,9.043-7.135
		c-0.103-0.031-1.651-2.567-3.259-4.74c1.904-2.79,3.425-4.982,3.871-5.562c0.59-0.755,0.517-2.178,0.208-3.625
		c-0.472-2.236-1.496-4.527-1.496-4.527s0.002-0.051,0.006-0.132l0,0c0.056-1.089,0.454-9.055,1.443-13.901h-0.001
		c0.313-1.539,0.688-2.767,1.125-3.354c1.162-1.543,2.707-7.879,3.76-12.7c0.701-3.214,1.184-5.756,1.184-5.756
		s0.885-23.123,0-26.19c-0.86-1.5-4.942,1.074-4.942,1.074l1.293-15.885c-0.003,0,2.789-7.726,1.415-9.659
		c-0.51-0.719-0.747-2.332-0.812-4.075l0,0c-0.105-2.936,0.276-6.227,0.685-6.227c0.397,0-0.196-5.224-0.705-9.181
		c-4.772,0.015-22.572,0-25.671-0.043c0,0,0,0,0-0.002c-3.331-0.041-5.412-0.117-5.621-0.217c-1.289-0.645-9.662,1.288-17.61,12.663
		c-1.563,2.244-3.165,4.053-4.728,5.548l0.001,0.003c-6.354,6.091-12.064,6.849-12.236,9.26c-0.212,3.007,4.403,2.794,4.403,2.794
		c6.124,4.077-3.548,4.29-1.611,5.791c0.729,0.571,1.247,2.372,1.479,4.32l0,0c0.377,3.194-0.015,6.781-1.48,5.983
		c-1.186-0.647-4.042,0.864-6.598,2.536l0,0c-0.909,0.596-4.781,3.474-4.781,3.474s-1.935,3.005-5.584,1.499
		c-1.492-0.614-3.99-0.72-6.422-0.64v0.003c-3.519,0.116-6.896,0.642-6.896,0.642c-1.112-2.387-3.645-3.592-6.817-4.057
		c0,0,0,0,0-0.003c-3.148-0.462-6.926-0.194-10.599,0.377l0,0c-7.633,1.187-14.791,3.678-14.791,3.678l0.646,4.94
		c0,0,0.783,0.505,1.65,2.195l0,0c0.643,1.246,1.325,3.132,1.778,5.958c0.258,1.583-1.237,3.835-3.833,6.392h0.002
		c-3.359,3.313-8.568,7.143-14.214,10.702v6.946L1097.256,265.982z"/>
</g>
<path id="Delaware" fill="#80CFFF" stroke="#FFFFFF" stroke-miterlimit="10" d="M1097.516,354.502c0.002,0,0.004,0,0.004,0
	c-0.957-1.265-1.653-2.39-1.653-3.196c0-0.99-1.19-4.252-2.392-7.39l0,0c-1.398-3.628-2.819-7.087-2.467-6.655
	c-0.178-1.102,3.71-5.74,5.929-8.282c-2.552-0.161-7.568,2.064-10.971,3.76h0.339c0,0,0.328,8.949,1.267,12.963h-0.002
	c0.141,0.593,0.291,1.081,0.457,1.412c1.313,1.94,0,20.825,0,20.825h14.217c0.354-1.509,0.705-3.427,0.705-5.046
	C1102.949,360.686,1099.612,357.262,1097.516,354.502z"/>
<path id="Pennsylvania" fill="#80CFFF" stroke="#FFFFFF" stroke-miterlimit="10" d="M999.971,265.984v-6.948
	c-4.042,2.552-8.306,4.964-12.269,6.948c-2.268,1.129-4.436,2.127-6.404,2.928v63.822l104.668,0.005l0,0
	c3.942-1.966,10.072-4.66,11.989-3.492c2.015,1.215,6.692-3.795,9.191-6.771c0,0,0,0,0.003,0c1.146-1.372,1.922-2.401,1.922-2.401
	s-6.122-7.408-6.605-9.015c-0.421-1.405-1.209-3.05-2.255-4.3l-0.001-0.005c-0.153-0.184-0.315-0.358-0.48-0.525
	c-1.289-1.288-0.481-2.578,1.289-4.507c1.767-1.93,1.608-6.125,1.608-6.145h0.002c0,0,0.604-0.884,1.562-2.193c0,0,0,0-0.002,0
	c1.498-2.053,3.859-5.154,6.146-7.595c-2.795-1.764-6.65-4.426-6.805-4.522c0,0-1.216-0.47-1.316-1.204
	c-0.632-1.98,2.096-5.786-0.229-7.213c-2.791-1.716-4.728-6.867-4.728-6.867H999.971L999.971,265.984z"/>
<path id="Newjersey" fill="#99E8FF" stroke="#FFFFFF" stroke-miterlimit="10" d="M1123.768,312.327
	c-1.087,0.012-1.586-0.569-1.586-0.569c-0.606-0.582-0.633-1.511-0.353-2.393h-0.001c0.479-1.518,1.84-2.893,2.634-2.109
	c-0.198-0.541-0.626-2.024-0.19-3.375c0,0,0.002,0,0.004,0c0.76-2.971,0.988,1.68,1.938,1.246c0.402-0.185,0.636-3.997,0.981-4.455
	h-0.003c1.353-1.802,2.229-5.209,2.479-6.295c-2.56-0.617-5.018-1.436-7.332-2.363c-0.036-0.012-3.738-1.6-3.719-1.624
	c-3.143-1.496-5.942-3.123-8.286-4.599c-2.451,2.612-4.99,5.994-6.457,8.019l-1.25,1.769c0,0,0.16,4.209-1.608,6.145
	c-1.771,1.935-2.579,3.219-1.29,4.507c0.166,0.167,0.328,0.344,0.482,0.53c0.002,0,0.002,0,0.004,0
	c1.045,1.25,1.834,2.896,2.254,4.3c0.182,0.601,1.146,2.009,2.287,3.537c0.002,0,0.005,0,0.008-0.005
	c-0.003,0.005-0.006,0.005-0.01,0.005c1.909,2.569,4.313,5.476,4.314,5.478c-0.022,0.031-2.222,2.941-4.287,5.062
	c-1.231,1.298-2.57,2.557-3.787,3.375c-1.209,0.813-2.298,1.19-3.038,0.736c-0.263-0.16-0.614-0.243-1.021-0.269
	c-0.604,0.687-6.22,7.125-5.926,8.282c0.14,0.167,0.533,0.904,1.311,2.453c0.419,0.832,0.872,1.544,1.352,2.158
	c-0.001,0-0.001,0-0.003,0.002c4.199,5.417,10.374,3.265,11.629,7.146c0.01-0.025,0.021-0.056,0.033-0.086
	c-0.012,0.025-0.021,0.055-0.031,0.081c0.146,0.46,0.229,0.998,0.229,1.648c0,6.761,2.257,6.114,2.257,6.114
	s-2.096-5.689,5.563-11.584h-0.002c0.28-0.215,0.57-0.432,0.881-0.649c8.696-6.117,2.504-4.829,3.222-5.473
	c0.144-0.126,0.262-0.257,0.396-0.381c0.146-0.397,0.344-1.215,0.344-1.215c0.381-0.089,0.789-0.212,1.234-0.369
	c6.64-7.165,6.723-14.455,6.723-14.455s0.148-0.277,0.355-0.737C1127.54,319.613,1130.145,312.663,1123.768,312.327z"/>
<path id="Maryland" fill="#80CFFF" stroke="#FFFFFF" stroke-miterlimit="10" d="M1088.025,367.939c0,0,0.221-3.441,0.339-5.897
	h0.002c0.202-4.336,0.371-9.984,0.057-13.037c-0.019,0.015-0.032,0.025-0.051,0.041c0.019-0.016,0.032-0.025,0.048-0.041
	c-0.127-2.044-0.595-1.812-0.904-3.55c-0.281-1.304-0.509-3.049-0.686-4.833c0,0-0.002,0-0.004,0c0.002,0,0.003,0,0.004,0
	c-0.375-3.861-0.525-7.882-0.525-7.882h-64.268v-0.005l-16.042,0.005v15.452c0,0,4.858-9.02,9.491-8.459c0,0,0-0.003,0.002-0.005
	c-0.002,0.002-0.002,0.005-0.002,0.01c0.784,0.094,1.566,0.46,2.315,1.202c0,0,0.751-6.058,4.133-3.802
	c3.386,2.254,8.058,0.645,7.73-1.126c-0.134-0.73,0.261-0.909,0.766-0.872c0,0,0.002,0,0.002-0.002
	c0.714,0.058,1.649,0.553,1.649,0.553s2.577-2.254,5.478,0.321l4.67,4.929c0,0,1.344,3.631,6.176,4.569c0,0-0.122,1.122,0.063,2.476
	c-0.001,0-0.003,0-0.003,0c0.254,1.854,1.075,4.138,3.59,4.603c2.423,0.447,3.491,1.496,3.969,2.335
	c0.887-0.48,3.498-1.983,3.428-1.941l2.551,2.958l-3.022,4.056c0,0-1.977,2.557-2.903,3.926c-0.27,0.405-0.541,0.824-0.819,1.273
	c0.152,3.553,7.002,8.105,7.002,8.105l1.9,0.829l0,0l9.903,4.32l2.149-3.643c0,0-6.608-2.19-4.813-2.476l0,0
	c0.729-0.117,2.451-1.82,1.162-3.108c-1.289-1.289-0.645-10.516-2.146-8.803c-0.399,0.46-0.601,0.394-0.655,0.045h-0.002
	c-0.154-0.943,0.784-4.017,1.73-4.336c1.287-0.429-0.646-4.29,0.213-4.722h0.002c0.855-0.427-1.719-3.861-0.215-3.216
	c0.646,0.272,0.846-0.781,1.001-1.264c0.195-1.142,0.286-2.602,1.146-2.602c0.506,0,1.354-0.394,2.258-0.985h-0.002
	c1.772-1.163,3.757-3.103,3.757-4.381c0-0.516,0.219-0.794,0.527-0.899v-0.003l0,0c0.86-0.291,2.478,0.771,2.478,2.188
	c0,0.354-0.145,0.655-0.389,0.946c0.002,0,0.005,0,0.009,0c-0.004,0-0.006,0.002-0.009,0.002c-1.09,1.294-4.184,2.315-5.409,6.352
	c-1.505,4.938,2.361,2.36,2.361,2.36s1.721,3.866-1.501,3.437c-3.225-0.43-4.298,3.863-3.011,2.577
	c0.821-0.821,2.075-0.162,2.655,0.536c0,0,0.6,0.629,0.141,0.965c-0.858,0.427-2.147,1.501-2.147,1.501s5.156,4.725,5.156,5.366
	c0,0.366-1.316,0.665-2.456,1.102c-0.002,0-0.002,0-0.004,0c-0.86,0.336-1.621,0.748-1.621,1.334c0,1.354-0.435,3.79-0.435,3.79
	l3.652,2.147c0,0,0.646-3.006,3.006-4.077c2.362-1.072,0.859,1.071-0.855,2.789c-1.114,1.117-0.334,2.32,0.117,3.558l0,0
	c0.246,0.669,0.396,1.347,0.095,2.023c-0.126,0.286-0.161,0.611-0.14,0.958c0.004-0.008,0.011-0.015,0.017-0.021
	c-0.006,0.006-0.012,0.011-0.017,0.021c0.126,1.978,2.385,4.656,2.935,4.835c0.546,0.188,3.536,1.135,3.538,2.072
	c1.424-0.646,2.235-1.979,2.687-3.532c1.687-0.11,3.525,0.533,4.723,1.064c0.083-2.388,0.519-6.049,2.363-6.9
	c2.794-1.288,3.438-4.937,3.438-4.937s0.348-1.087,0.688-2.577L1088.025,367.939z"/>
<path id="WashingtonDC" fill="#80CFFF" stroke="#FFFFFF" stroke-miterlimit="10" d="M1059.451,352.981
	c-1.355,0.804-2.588,1.491-3.427,1.941c0.377,0.672,0.38,1.207,0.38,1.207l2.572,3.866l3.024-4.056L1059.451,352.981z"/>
<g id="Virginia">
	<path fill="#5A85FB" stroke="#FFFFFF" stroke-miterlimit="10" d="M1082.8,422.73c0.253-2.881,0.668-9.005-0.146-10.792
		c-0.567-1.249-3.729-0.394-6.51,0.438c-1.084,0.32-2.1,0.63-2.892,0.818c-1.017,0.237-1.667,0.271-1.55-0.185
		c0.063-0.256,0.021-0.508-0.09-0.755c-0.624-1.438-3.656-2.74-4.205-3.106c-0.171-0.113-0.293-0.376-0.387-0.7
		c-0.258-0.909-0.26-2.309-0.26-2.309s-3.082-1.647-4.773-2.956l-0.001,0.005c-0.277-0.22-0.517-0.424-0.697-0.612h-0.001
		c-0.41-0.421-0.047-0.859,0.681-1.076V401.5c0.387-0.115,0.871-0.175,1.407-0.125c0.286,0.026,0.535,0.05,0.758,0.076l0,0
		c3.101,0.331,0.345,0.561,2.983,3.572h-0.003c0.514,0.586,1.729,1.713,2.234,2.089c0.256,0.21,0.524,0.425,0.822,0.65
		c1.199,1.599,1.957,2.885,1.957,2.885s-0.909-2.443,1.504-1.69c0.593,0.185,0.276-1.673,1.504-0.667
		c1.342,1.097,0-3.373-1.72-4.585c-0.188-0.131-3.649-1.44-5.428-5.245c-0.019-0.046-0.033-0.076-0.051-0.117
		c-0.172-0.935,1.915-0.165,4.356,1.946l0,0c0.417,0.358,0.838,0.757,1.261,1.208c2.607,2.792,1.38-2.805,0.588-4.877
		c-0.12-0.313-0.229-0.553-0.317-0.661c-0.646-0.818-4.061-3.338-5.562-4.195c-0.673-0.384-1.901-2.354-2.824-4.204
		c-0.02,0-0.035-0.006-0.051-0.006c0.016,0,0.031,0.003,0.051,0.006c-0.714-1.43-1.245-2.785-1.202-3.29
		c0.028-0.305,0.27-0.298,0.807,0.192c0.647,0.596,1.654,1.397,2.797,2.264h0.002c3.38,2.557,7.938,5.677,7.938,5.677l-2.146-3.004
		c0,0,0.492-0.566,1.074-1.289c0.003,0,0.003,0,0.003,0c1.143-1.413,2.639-3.431,1.499-3.002c-1.093,0.41-3.224-2.213-4.633-4.184
		h0.001c-0.808-1.127-1.38-2.042-1.38-2.042l-7.518-1.288c0,0-1.615-2.09-3.256-3.187c0-0.002,0-0.002,0-0.002
		c-0.133-0.089-0.267-0.171-0.393-0.246c-1.438-0.811-3.15-2.499-3.15-2.499c-0.715-0.857-1.099-1.698-1.281-2.481
		c-0.619-1.724,0.648-3.987,0.648-3.987c0.652-1.314,3.728-5.199,3.728-5.199l-2.576-3.866c0,0-0.009-2.48-3.772-3.411l-0.574-0.128
		c-4.349-0.803-3.651-7.082-3.651-7.082c-1.666-0.326-2.901-0.956-3.817-1.64l-2.998,5.179c0,0-1.423-1.263-3.252-2.834
		c0,0,0,0,0-0.003c-2.754-2.363-6.441-5.435-7.698-6.013c-2.095-0.97,1.271,2.883,1.271,2.883c-0.591,2.205-2.722,2.963-2.072,5.538
		c0.109,0.452-0.011,0.939-0.273,1.432c-0.99,2.144-5.742,4.796-5.742,4.796s-1.663,3.416-3.613,4.712
		c-0.854,0.563-1.764,0.728-2.611,0.008c-2.793-2.362-4.728-0.429-5.155,5.583c-0.045,1.213-0.522,2.325-0.522,2.325
		c-0.6,1.405-1.758,2.063-2.871,1.966c-1.622-0.041-3.556-1.112-5.196-2.719c-3.536-3.265-5.271,8.97-11.381,15.811
		c-6.015,6.655-3.649,9.23-3.649,9.872c0,0.483-1.787,0.725-3.589,1.882c-0.781,0.546-1.231,0.894-1.781,1.552
		c-2.146,2.577-7.302,0.434-7.302,0.434s0,0-4.08,4.937c-0.1,0.117-0.191,0.222-0.291,0.326h-0.002
		c-2.021,2.189-4.02,1.739-5.495,0.761c-1.43-0.946-2.371-2.375-2.371-2.375s-1.046,5.002-7.805,2.123
		c-1.947-0.83-4.365-2.307-7.374-4.76c-1.45,1.061-8.984,5.654-11.62,7.059c-1.712,0.914-2.835,1.586-2.835,1.586
		c-3.275,2.314-1.722,6.337-3.852,6.368c0,0-0.521-0.031-0.873-0.144c-3.439-1.071-4.08,3.15-4.08,3.15l-12.293,5.753L1082.8,422.73
		z"/>
	<path fill="#5A85FB" stroke="#FFFFFF" stroke-miterlimit="10" d="M1091.026,381.289c0.003-0.002,0.003-0.007,0.003-0.01
		c-0.447,1.559-1.264,2.891-2.688,3.54l-1.525,7.064c-0.688,4.191-1.012,8.961,0.696,10.378c1.839,1.524,3.751-3.087,5.341-8.499
		c1.215-4.131,2.237-8.727,2.898-11.415C1094.559,381.82,1092.714,381.174,1091.026,381.289z"/>
</g>
<g id="Washington">
	<path fill="#91E4FF" stroke="#FFFFFF" stroke-miterlimit="10" d="M182.352,139.451l-2.474-8.692v-28.838v-0.001V76.244l0,0V45.761
		H52.324c0,0,3.651,11.805,5.582,9.659c0.815-0.905,1.479,0.405,1.891,2.221c0.565,2.49,0.664,5.937,0.042,5.937
		c-1.072,0-3.649,3.435-3.649,3.435l0.644,1.963c0.865,2.379,4.612,8.982,4.969,6.667c0.269-1.718,1.816,0.573,1.127-1.561
		l0.237-0.951l3.222,9.981c0,0-0.667,0.859-1.522,2.133h-0.002c-1.373,2.039-3.23,5.144-3.628,7.523
		c-0.474,2.836,1.13,6.875,1.511,8.832l0,0c0.138,0.709,0.118,1.15-0.223,1.15c-1.288,0-4.511,0.322-6.122,2.897
		c-0.587,0.939-1.289,1.493-1.941,1.814c0.008,0.022,0.018,0.042,0.025,0.063c-0.008-0.021-0.018-0.042-0.025-0.061
		c-1.139,0.563-2.136,0.436-2.136,0.436l-2.363,1.933l1.608-9.339l3.543,1.719c0,0,3.221,1.284,4.08-3.006
		c0.248-1.23,0.401-2.249,0.488-3.128l0,0c0.211-2.198-0.026-3.559-0.486-5.242c-0.141-0.515-0.288-0.958-0.418-1.346
		c-0.467-1.387-1.202-1.773,0.31-2.446c1.934-0.859,1.486-2.362,1.486-2.362s-1.353-2.923-3.074-5.283
		c-1.716-2.362-1.215,2.159-1.215,2.159s-0.521,0.258-1.144-0.476c-1.459,1.731-4.603,7.471-5.588,10.287l0,0
		c-0.388,1.111-0.441,1.771,0.081,1.544c1.917-0.833,2.749,0,2.749,0s-2.5,2.331-4.021,0.332c-0.417-0.548-0.099-1.836,0.576-3.417
		l0,0c1.425-3.333,4.456-7.962,5.633-9.71c-0.034-0.073-0.065-0.145-0.101-0.226c-0.857-2.149-1.287-4.508-1.287-4.508
		S51.4,79.917,49.24,78.43v0.002c-0.323-0.226-0.656-0.582-0.995-1.117c-2.576-4.077-5.583-2.361-5.583-2.361
		s-14.174,2.791-20.186-2.789c-6.014-5.581-11.382-7.942-10.952-2.79c0.349,4.171,1.075,13.304,1.075,13.304s5.799,5.797,6.44,7.516
		c0.18,0.477,0.124,1.464,0.013,2.718c-0.287,3.236-0.95,8.321,1.06,11.52c2.794,4.434,3.009,7.226,3.009,7.226
		s3.006-0.088,4.724,1.242c0.927,0.72,0.288,2.206-0.663,3.177H27.18c-0.812,0.832-1.85,1.292-2.342,0.573
		c-1.074-1.558-0.646,8.827,3.005,5.779c3.651-3.042-0.428,6.186-0.856,8.761c-0.431,2.576-1.074-6.866-1.935-4.722
		c-0.857,2.146-0.902,10.991,1.504,9.226c1.443-1.056,3.451-1.003,5.201-0.605c0.002,0,0.002,0,0.002,0
		c2.021,0.46,3.707,1.378,3.767,1.598l14.92-0.452l2.737,3.329c0,0-0.408,3.125,0.418,5.694c0.205,0.642,0.485,1.25,0.869,1.764
		c1.934,2.575,0.968,8.747,0.968,8.747l2.576,3.325c0,0,2.295,0.173,7.001-1.209l0,0c1.661-0.488,3.615-1.165,5.886-2.115
		c3.54-1.486,6.661-2.198,9.242-2.486c3.768-0.425,6.381,0.063,7.4,0.444c1.717,0.645,6.442,2.042,6.442,2.042l6.872-3.542
		c0,0,5.15,1.501,5.796,1.071c0.617-0.412,10.276-1.609,11.106-1.71c0,0,4.572-3.871,5.646-5.157c1.073-1.289,10.094,0,10.094,0
		l4.937-2.359h43.448C181.804,141.667,182.352,139.451,182.352,139.451z"/>
	<path fill="#91E4FF" stroke="#FFFFFF" stroke-miterlimit="10" d="M52.445,60.392c-0.234-1.746,0.734-0.673,1.735-0.09
		c0.999,0.583,2.166-1.832,0-3.083c-2.166-1.249-4.087,1.727-4.087,1.727C49.427,63.258,52.68,62.135,52.445,60.392z"/>
	<path fill="#91E4FF" stroke="#FFFFFF" stroke-miterlimit="10" d="M50.845,63.102c-1.5,0.052-2.751-3.674-2.751-3.674
		s-0.834-1.208-0.748,2.513C47.428,65.663,52.345,63.05,50.845,63.102z"/>
	<path fill="#91E4FF" stroke="#FFFFFF" stroke-miterlimit="10" d="M54.514,69.441c0.831,0.452,2.232,0,1.615,0
		c-0.62,0-1.615-3.151-1.615-3.151c0.14,2.401-4.821,3.379-3.994,3.656c0.825,0.278,1.716,0.127,2.865,3.402
		c1.145,3.275,8.302,6.867,8.376,5.895c0.129-1.665-6.704-6.279-8.315-7.707C51.831,70.109,53.681,68.991,54.514,69.441z"/>
</g>
<g id="Alaska">
	<path fill="#6A31BC" stroke="#FFFFFF" stroke-miterlimit="10" d="M385.962,954.137c0.249-1.498,1.253,0.498,1.585,0
		c0.337-0.501,0.752,0.334-0.832-2.002c-1.588-2.333-2.423-0.501-3.089-1.169c-0.665-0.663,0.667-2.004,0.667-2.004
		c-2.334-6.501-6.672-5.664-6.672-5.664c-0.752,1.169-1.751,3.165-0.085,4.419c1.671,1.245,1.17,1.921,0.085,1.245
		c-1.084-0.661,0,1.169,0,1.169s2.753,2.253,2.419,3.422c-0.333,1.165,1.921,5.337,2.669,5.341c0.75,0,2.17,0.746,2.837-0.338
		c0.667-1.08,2.338,2.758,2.338,2.758c2.583,0.245,1.583-3.838,0.583-5.338C387.461,954.471,385.713,955.64,385.962,954.137z"/>
	<path fill="#6A31BC" stroke="#FFFFFF" stroke-miterlimit="10" d="M373.367,948.631c0.333,0.922-1.03,2.25-0.057,2.422
		c0.973,0.174,2.762,0.496,0.974-3.173C374.283,947.88,373.033,947.717,373.367,948.631z"/>
	<path fill="#6A31BC" stroke="#FFFFFF" stroke-miterlimit="10" d="M377.621,952.927c-0.026,0.691,2.002,2.63,2.002,2.63
		s-0.25-2.421-1.17-3.668C377.536,950.635,377.621,952.927,377.621,952.927z"/>
	<path fill="#6A31BC" stroke="#FFFFFF" stroke-miterlimit="10" d="M376.285,954.629c0.252,1.589,1.666,1.51,1.336-0.572
		C377.621,954.057,376.035,953.035,376.285,954.629z"/>
	<path fill="#6A31BC" stroke="#FFFFFF" stroke-miterlimit="10" d="M383.545,960.147c1.166,2.328,1.835,0.324,1.417,0
		C384.545,959.81,383.545,960.147,383.545,960.147z"/>
	<path fill="#6A31BC" stroke="#FFFFFF" stroke-miterlimit="10" d="M115.834,929.882c-1.279-0.667-1.317,0.92-2.286,1.341
		c-0.658-1.034-0.951-2.083-2.397-2.356c-2.302-0.421-4.932-0.397-6.283-2.985c-0.256-0.482-0.788-0.856-1.262-1.189
		c-0.533-0.377-1.039-0.407-1.41,0.333c-1.078,2.162-0.353,3.869,1.994,4.613c0.926,0.304,2.063,0.221,2.614,1.238
		c1.706,3.137,4.975,2.278,7.615,2.867c1.173,0.266,1.668-1.169,2.086-2.162C116.817,930.85,116.449,930.201,115.834,929.882z"/>
	<path fill="#6A31BC" stroke="#FFFFFF" stroke-miterlimit="10" d="M131.566,938.782c-0.886-1.146-3.483-1.103-2.286-3.808
		c0.569-1.282-1.749-2.419-3.213-1.396c-1.103,0.77-1.972,1.026-3.15,0.327c-0.77-0.452-1.794-0.06-2.584-0.646
		c-0.269-0.199-0.65-0.124-0.875,0.199c-0.209,0.299-0.271,0.745,0.03,0.895c2.115,1.076,7.439,2.849,9.006,4.699
		c0.423,0.504,0.913,1.028,1.484,1.313c1.143,0.571,2.766,1.792,3.564,0.565C134.419,939.58,132.187,939.58,131.566,938.782z"/>
	<path fill="#6A31BC" stroke="#FFFFFF" stroke-miterlimit="10" d="M61.434,879.725c-0.673-0.143-1.387-0.267-1.437,0.645
		c-0.091,1.651,2.49,4.742,4.205,5.204c0.915,0.24,1.183-0.232,1.205-0.647C65.438,882.733,63.243,880.09,61.434,879.725z"/>
	<path fill="#6A31BC" stroke="#FFFFFF" stroke-miterlimit="10" d="M83.808,915.129c-0.241,0.135-0.557,0.628-0.488,0.736
		c1.064,1.675,1.037,3.837,2.421,5.354c0.349,0.369,0.791,0.671,1.294,0.309c0.23-0.164,0.334-0.515,0.543-0.854
		c-1.631-1.365-1.147-3.648-2.513-5.076C84.726,915.246,84.351,914.815,83.808,915.129z"/>
	<path fill="#6A31BC" stroke="#FFFFFF" stroke-miterlimit="10" d="M80.207,905.699c-1.145,0.396-2.576,1.6-2.786,2.668
		c-0.265,1.357,1.623,1.09,2.525,1.244c1.054,0.188,1.637-0.865,2.17-2.005C81.232,907.156,81.125,905.378,80.207,905.699z"/>
	<path fill="#6A31BC" stroke="#FFFFFF" stroke-miterlimit="10" d="M177.039,939.126c-1.252-1.254-2.878-0.626-3.127,0.748
		c-0.252,1.376-0.876,2.383-2.879,2.506c-2.003,0.124-1.626-1.87-1.626-1.87c-2.128-3.498-4.632,1.119-4.632,1.119
		s-2.252-0.75-2.628,0.569c-0.375,1.326-3.753,1.056-3.128,2.31c0.626,1.248,5.507-0.132,5.507-0.132s3.755-3.497,3.755-1.329
		c0,2.166,3.003,2.458,4.128,1.708c1.127-0.75,3.755,1.627,3.879,1.129c0.126-0.501,1.503-1.879,3.627-2.381
		C182.036,943.008,178.291,940.378,177.039,939.126z"/>
	<path fill="#6A31BC" stroke="#FFFFFF" stroke-miterlimit="10" d="M153.925,941.462c-0.998-0.672-2.251,1.249-2.251,1.249
		c-0.562,0.695,2.503,1.501,3.753,0.751c1.251-0.751,0.917-3.001,0.917-3.001S154.926,942.133,153.925,941.462z"/>
	<path fill="#6A31BC" stroke="#FFFFFF" stroke-miterlimit="10" d="M135.907,939.207c-1.172,0.92,1.166,2.671,2.001,0.756
		C137.906,939.963,137.073,938.293,135.907,939.207z"/>
	<path fill="#6A31BC" stroke="#FFFFFF" stroke-miterlimit="10" d="M149.087,940.824c0,0-3.255,0.282-2.336,1.38
		c0.916,1.098,3.923,0.657,3.671,0S149.087,940.824,149.087,940.824z"/>
	<path fill="#6A31BC" stroke="#FFFFFF" stroke-miterlimit="10" d="M143.666,942.198c1.251,0.766,1.5,0.433,1.334-0.736
		C145,941.462,142.413,941.438,143.666,942.198z"/>
	<path fill="#6A31BC" stroke="#FFFFFF" stroke-miterlimit="10" d="M97.607,922.948c-0.5,0.501,0.418,2.669,1.504,0.837
		C99.238,923.565,98.108,922.446,97.607,922.948z"/>
	<path fill="#6A31BC" stroke="#FFFFFF" stroke-miterlimit="10" d="M85.436,912.541c0.129-0.22-1.001-1.337-1.501-0.835
		C83.434,912.207,84.351,914.379,85.436,912.541z"/>
	<path fill="#6A31BC" stroke="#FFFFFF" stroke-miterlimit="10" d="M83.482,911.048c0.24-0.079,0.732-1.411-0.744-1.552
		C82.033,909.432,81.796,911.577,83.482,911.048z"/>
	<path fill="#6A31BC" stroke="#FFFFFF" stroke-miterlimit="10" d="M73.145,898.078c-0.705-0.06-1.043,1.72,0.642,1.187
		C74.025,899.188,74.619,898.217,73.145,898.078z"/>
	<path fill="#6A31BC" stroke="#FFFFFF" stroke-miterlimit="10" d="M81.963,911.986c-0.706-0.063-0.943,2.079,0.743,1.552
		C82.942,913.461,83.439,912.124,81.963,911.986z"/>
	<path fill="#6A31BC" stroke="#FFFFFF" stroke-miterlimit="10" d="M90.349,915.021c-2.671-0.089-0.667,2.09-0.667,2.09
		C91.35,917.694,93.019,915.104,90.349,915.021z"/>
	<path fill="#6A31BC" stroke="#FFFFFF" stroke-miterlimit="10" d="M93.686,926.45c-0.417-0.503-1.921,0.75-1.084,1.254
		c0.833,0.495,1.417,0,1.919,0c0.5,0,1.5,0,0.583-1.254C95.104,926.45,94.104,926.954,93.686,926.45z"/>
	<path fill="#6A31BC" stroke="#FFFFFF" stroke-miterlimit="10" d="M65.409,887.5c0.049,0.628,1.283,2.045,1.827,1.84
		c0.545-0.209,0.167-0.75-0.877-1.84C65.319,886.416,65.409,887.5,65.409,887.5z"/>
	<path fill="#6A31BC" stroke="#FFFFFF" stroke-miterlimit="10" d="M63.146,888.19c-0.624,0.479-1.378-0.228-1.96-0.69
		c-0.584-0.454-0.833,0.69-0.833,0.69s1.292,1.521,1.771,2.147c0.48,0.626,1.773-0.979,1.773-0.979S63.77,887.713,63.146,888.19z"/>
	<path fill="#6A31BC" stroke="#FFFFFF" stroke-miterlimit="10" d="M198.259,839.507c1.7,1.129,2.727,6.63,2.977,6.464
		c0.251-0.166,1.75-2.087,2.668-1.165c0.92,0.912,2.92,0.999,3.923,0c1.001-1.005-5.257-4.259-5.505-5.677
		c-0.252-1.417-0.252-3.084-2.587-2.503c-2.337,0.586-3.088-3.58-3.088-3.58c-0.369-1.322-1.167,0.33-2.585,2.915
		C192.642,838.551,196.563,838.381,198.259,839.507z"/>
	<path fill="#6A31BC" stroke="#FFFFFF" stroke-miterlimit="10" d="M177.287,863.729c-1.668-0.743-1.833-2.998-2.002-3.832
		c-0.165-0.834-1.834,1.42-1.834,1.42s1.083,1.499,2.42,3.082C177.207,865.989,178.958,864.484,177.287,863.729z"/>
	<path fill="#6A31BC" stroke="#FFFFFF" stroke-miterlimit="10" d="M171.469,906.727c0,0,0,2,1.25,1.749
		c1.253-0.249,0.752-1.438,0-2.188C171.969,905.538,171.469,906.727,171.469,906.727z"/>
	<path fill="#6A31BC" stroke="#FFFFFF" stroke-miterlimit="10" d="M172.476,900.594c1.371-0.688,1.309-0.995-0.632-1.374
		c0,0-1.439-0.688-1.313,0.315C170.657,900.532,171.107,901.283,172.476,900.594z"/>
	<path fill="#6A31BC" stroke="#FFFFFF" stroke-miterlimit="10" d="M186.174,939.874c-0.625-1.749-3.756,0.757-5.255-1.246
		c-1.5-2.004-0.877,1.246-0.877,1.246c0.129,1.254,7.385,3.505,8.896,3.134C190.449,942.631,186.8,941.629,186.174,939.874z"/>
	<path fill="#6A31BC" stroke="#FFFFFF" stroke-miterlimit="10" d="M201.485,943.047c0,0-0.333,2.251,1.585,1.996
		C204.991,944.796,202.236,942.133,201.485,943.047z"/>
	<path fill="#6A31BC" stroke="#FFFFFF" stroke-miterlimit="10" d="M225.099,937.375c-1.253-0.668-1.334,1.071-1.334,1.071
		s1.834,0.68,2.501,0.346C226.931,938.457,226.351,938.042,225.099,937.375z"/>
	<path fill="#6A31BC" stroke="#FFFFFF" stroke-miterlimit="10" d="M221.466,940.461c0,0-1.042,0.916-1.707,0.75
		c-0.667-0.172-1.043,1.322-1.126,1.646c-0.083,0.315-1.167,1.691,0,1.438c1.167-0.245,2.169-1.215,2.836-1.438
		C222.138,942.631,222.597,939.773,221.466,940.461z"/>
	<path fill="#6A31BC" stroke="#FFFFFF" stroke-miterlimit="10" d="M224.515,942.338c0,0-0.099-1.276-0.75-0.876
		c0,0-2.138,1.123-1.609,1.917c0.525,0.793,1.939,3.003,2.442,2.794c0.5-0.212-0.083-2.249-0.46-2.875
		C223.763,942.672,224.515,942.338,224.515,942.338z"/>
	<path fill="#6A31BC" stroke="#FFFFFF" stroke-miterlimit="10" d="M271.278,914.734c-0.124,0.37-8.385,8.123-12.515,9.631
		c-4.13,1.499-1.001,7.381-1.001,7.381c0.489,6.333,13.516-2.624,13.016-4.881c-0.498-2.251-0.748-3.377,1.751-4.504
		C275.035,921.24,271.404,914.357,271.278,914.734z"/>
	<path fill="#6A31BC" stroke="#FFFFFF" stroke-miterlimit="10" d="M256.629,934.624c-1.135-0.882-2.87,2.371-2.87,2.371
		c3.253-1.374,4.255,1.007,5.508,0.98C260.518,937.951,257.766,935.499,256.629,934.624z"/>
	<path fill="#6A31BC" stroke="#FFFFFF" stroke-miterlimit="10" d="M246.626,941.507c0.124,1.747,1.625,2.391,2.627-0.997
		C249.253,940.51,246.5,939.75,246.626,941.507z"/>
	<path fill="#6A31BC" stroke="#FFFFFF" stroke-miterlimit="10" d="M200.692,877.081c0,0-4.506-0.879-1.251,2.626
		c3.255,3.504,5.13,5.254,7.26,4.006c2.125-1.256,2.627-3.633,0.876-5.258C205.823,876.828,200.692,877.081,200.692,877.081z"/>
	<path fill="#6A31BC" stroke="#FFFFFF" stroke-miterlimit="10" d="M216.63,830.124c0.708,0.504,1.46-1.08,0.875-2
		c-0.583-0.92-1.75,0.583-1.75,0.583S215.92,829.625,216.63,830.124z"/>
	<path fill="#6A31BC" stroke="#FFFFFF" stroke-miterlimit="10" d="M392.807,952.967c0,0-1.418-0.328-1.5,0.841
		c-0.084,1.165-0.501,3.496,0.748,2.081C393.305,954.471,392.807,952.967,392.807,952.967z"/>
	<path fill="#6A31BC" stroke="#FFFFFF" stroke-miterlimit="10" d="M393.474,955.557c0,0-1.538,0.5-1.438,1.747
		c0.102,1.252,2.271,0.504,2.022-0.329C393.808,956.139,393.222,956.057,393.474,955.557z"/>
	<path fill="#6A31BC" stroke="#FFFFFF" stroke-miterlimit="10" d="M369.695,934.952c-0.284-0.523-0.547-1.978-0.792-3.516h-0.001
		c-0.262-1.62-0.495-3.341-0.709-4.153c-0.417-1.589-6.593-2.754-6.593-2.754s-2.085,5.005,0,6.837
		c0.082,0.07,0.219,0.234,0.219,0.234c1.729,1.907,0.187,5.573,1.868,6.774c1.753,1.251,1.417-3.09,2.336-2.34
		c0.92,0.756,0.168,3.591,0.168,3.591s2.92,2.83,3.088,4.166c0.166,1.337-2.669-0.75-0.168,1.837
		c2.503,2.584,3.385-1.418,3.385-1.418s-0.966-5.673-1.216-5.673C371.03,938.539,370.278,936.042,369.695,934.952z"/>
	<path fill="#6A31BC" stroke="#FFFFFF" stroke-miterlimit="10" d="M374.782,933.702c0.987-1.816-3.837-6.419-3.837-6.419
		c-2.338,1.082,0.75,8.759,0.75,8.759S373.798,935.528,374.782,933.702z"/>
	<path fill="#6A31BC" stroke="#FFFFFF" stroke-miterlimit="10" d="M378.243,935.487c0.109,0.495,0.091,0.78-0.123,0.723
		c-1.169-0.334-5.006-1.667-4.505,0c0.5,1.668-0.833,1.165-1.335,2c-0.5,0.837,2.337,7.173,2.67,8.178
		c0.333,0.995,2.836-5.005,2.836-5.005s3.307,0.594,4.25,1.474c0,0,0.283,0.342,0.257,0.526c-0.161,1.129,2.8,3.044,3.593,4.673l0,0
		c0.025,0.059,0.058,0.111,0.079,0.164c0.667,1.665,2.503-0.333,2.503-0.333s0,1-0.333,4.497c-0.336,3.505,2.501,0,3.503-0.495
		c1.001-0.504,0-6.84,0-6.84c5.005,2.17,1.668,14.011,5.175,13.841c3.503-0.164,3.503-9.337,3.336-12.842
		c-0.104-2.162-4.592-4.448-8.366-6.393c-2.341-1.209-4.411-2.28-4.986-3.112c-0.152-0.225-0.94-1.502-0.94-1.502l-2.077-3.461
		c0,0-4.192-7.074-5.936-9.837c0-0.006,0-0.006,0-0.006c-1.137-1.795-2.027-3.101-2.391-3.378c-0.577-0.436-1.996-1.486-3.635-2.825
		c-0.847-0.693-5.292-4.805-6.214-6.014c-2.213-2.9-1.446-1.905-3.308-1.104c0,0,0,0,0,0.002c-0.38,0.162-0.874,0.324-1.528,0.438
		c-2.645,0.46-2.676,3.221-2.766,4.668c0,0,0,0-0.001,0c-0.042,0.65-0.094,1.046-0.408,0.841c-1.001-0.676-4.67,4.164-4.003,2.997
		l0.093-0.276c0.23-1.408-2.053-4.808-3.761-5.896c-1.838-1.167-3.84-6.17-4.507-8.098c-0.667-1.932-2.501-2.413-4.671-0.74
		c-2.17,1.669-6.009,0-6.009,0l0,0v-98.742c0,0-4.675-1.665-7.51-4.67c-2.836-3.001-6.507,4.172-8.512,0.666
		c-2-3.503-5.337-0.999-10.179-4.168c-4.839-3.167-4.672-4.675-8.342-3.167c-3.673,1.5-4.839-2.507-4.839-2.507
		c1.5-4.671-7.677-0.664-7.509-3.5c0.166-2.842-4.004-4.338-5.842-6.51c-1.834-2.164-8.01,5.842-9.345,2.172
		c-1.333-3.675-7.343,5.836-9.345,3.496c-2.002-2.331-8.01,0.502-9.345,4.342c-1.335,3.837-5.005,7.508-10.681,5.003
		c-5.673-2.497-2.668,1.833-5.673,2.008c-2.573,0.142-1.96,0.772,1.203,5.672c0.531,0.814,1.131,1.753,1.801,2.835
		c4.672,7.501-0.667,8.672,2.169,10.005c2.835,1.334,4.171,7.668,4.672,10.512c0.5,2.831-4.339,0.163-6.507-0.5
		c-2.17-0.671,0.167-5.009-0.668-6.342c-0.209-0.34-1.556-0.493-3.465-0.493l0,0c-5.675-0.011-16.355,1.328-17.229,3.326
		c-1.167,2.674,2.667,4.009,4.338,5.507c1.669,1.503-2.169,1.672-2.004,2.674c0.17,0.994,1.502,1.33,0,3.166
		c-1.5,1.835,6.342,8.343,8.126,7.342c1.787-1.003,6.06,3.003,6.228,3.835c0.165,0.835,2.167-0.666,2.167-1.837
		c0-1.167,6.508-1.834,7.677,0c1.167,1.837-3.336,2.5-3.336,2.5s2.167,6.008-0.668,8.673c-2.837,2.67-5.173-1.328-6.676-2.833
		c-1.292-1.291-1.104,1.859-2.303,3.726c-0.19,0.305-0.42,0.567-0.699,0.78c-2,1.496-4.006-1.836-5.841-3.171
		c-1.835-1.337-11.847,11.005-12.682,11.005c-0.836,0-2.171,1.337-3.006,2.192c-0.657,0.669,2.211,7.311,2.556,9.852
		c1.109,0.145,2.178,0.385,2.744,0.758c0.094,0.063,0.192,0.101,0.296,0.115c-0.104-0.016-0.202-0.054-0.296-0.115
		c-0.566-0.373-1.635-0.608-2.744-0.758c0.091,0.686,0.004,1.072-0.386,0.966c-1.832-0.5-2.17,2.172-2.17,2.172
		s2.837,4.673,3.173,8.343c0.334,3.668,7.675,1.663,9.345,1.334c1.667-0.338,2.835,6.506,0.834,6.672
		c-2.005,0.164-1.502,2.499-1.669,4.667c-0.166,2.172-2.835,2.67-2.669,3.671c0.069,0.429,0.897,0.974,1.822,1.38h0.002
		c1.252,0.551,2.683,0.858,2.683,0.286c0-1.007,5.508-3.339,5.621-2c0.118,1.333,2.557,3.667,3.224,2.164
		c0.667-1.499,2.837,5.673,3.504,6.506c0.666,0.833,1.669-3.333,2.503-4.502c0.833-1.169,2.169,3.001,2.169,3.001
		s3.194-2.328,4.947-1.932c0.21,0.041,0.537,0.197,0.728,0.436c0.779,0.973-0.269,1.49-1.271,1.757
		c-0.713,0.184-1.398,0.241-1.398,0.241s-3.673,6.841-4.506,8.847c-0.834,1.996-9.901,7.503-9.901,7.503s-2.964,0.495-5.351,1.31
		l0,0c-1.266,0.431-2.369,0.945-2.774,1.525c-1.168,1.669-7.342,1.998-9.677,0.999c-2.337-0.999-8.346,6.506-10.013,5.507
		c-1.668-1.005-11.349,0-12.85,1.668c-1.504,1.672,1.171,3.329,2.004,2.332c0.833-0.999,3.669-1.171,6.172,0.336
		c2.503,1.5,3.67,0.169,4.839-1.507c1.168-1.664,3.838,2.341,3.838,2.341s4.006-2.507,4.172-1.506
		c0.166,1.003,0.333,0.672,1.001-1.165c0.667-1.831,5.005-1.334,4.338,0.33c-0.666,1.676,1.334,2.509,3.003,2.011
		c1.67-0.503,2.336-1.334,0.837-3.008c-0.938-1.039,2.877-1.633,6.565-1.678c0,0,0,0,0.001,0c2.216-0.03,4.384,0.134,5.452,0.514
		c2.834,1,1.166-4.009,3.834-4.337c2.672-0.337,3.673,1.837,5.843,2.337c2.166,0.5-1.171-3.505-1.337-4.003
		c-0.166-0.503,3.836-4.006,4.34-2.34c0.5,1.667,2.334,5.177,3.001,0.502c0.146-1.017,0.509-1.915,0.991-2.7c0.005,0,0,0,0.005,0
		c1.729-2.807,5.119-4.142,6.683-4.142c2.003,0,12.352-8.338,13.186-10.008c0.221-0.438,0.064-0.935-0.23-1.326
		c-0.877-1.215-3.198-2.303-3.443-2.676c-0.289-0.431,13.244-12.466,18.61-16.656h0.003c-0.003,0,1.579-1.192,1.914-1.357
		c0.717-0.354,1.513-0.104,2.223,0.38l-0.002,0.002c0.853,0.578,1.578,1.475,1.901,2.047c0.001,0,0.001,0,0.001,0
		c0.279,0.496,0.253,0.727-0.288,0.243c-1.667-1.503-5.506,1.161-6.841,1.161c-1.333,0-1.168,5.177-2.502,5.842
		c-1.336,0.667-3.507,4.174-2.003,6.008c1.501,1.836-2.002,0.833-3.004,3.001c-1,2.168,4.34,4.504,7.176,1.671
		c1.907-1.909,8.116-3.737,11.979-4.273c0-0.005,0-0.005,0-0.007c1.879-0.263,3.205-0.222,3.205,0.271
		c0,1.498,2.169,1.498,5.009-1.167c2.835-2.672,1.167-4.836-1.003-2.672c-2.171,2.172-1.668-0.667-2.002-3.668
		c-0.334-2.999,6.675-1.167,6.675-0.334c0,0.835-1.001,2.166-0.835,3.335c0.166,1.171,2.504,0.667,3.839-0.5
		c1.055-0.922,6.375,2.938,9.637,4.605v0.006c0.864,0.438,1.587,0.726,2.041,0.726c2.172,0,13.188,0.17,15.522,2.839
		c2.336,2.666,6.34-0.833,6.34-0.833c0.334,2.498-3.171,2.498-2.002,3.499c1.129,0.968,9.271,3.181,10.269,6.646l0.075,0.369
		c0.503,3.665,9.68,3.998,10.848,4.336c1.168,0.33-0.334-3.505-0.334-3.505l5.257,3.69c0.63,0.486,1.11,0.899,1.28,1.148
		c0.521,0.744,0.9-1.938,1.545-2.317c0.336-0.228,0.469,0.014,0.767,0.646c1.168,2.506,2.002,2.506,3.503,3.003
		c0.336,0.113,0.818,0.688,1.356,1.516l0,0c1.146,1.753,2.525,4.626,3.225,6.547L378.243,935.487z"/>
</g>
<g id="Hawaii">
	<path fill="#771F9B" stroke="#FFFFFF" stroke-miterlimit="10" d="M671.786,904.45c0,0-2.173,5.838-1.167,7.51
		c1.001,1.665,3.671,3.339-1.503,8.007c-5.172,4.667-6.007,6.174-1.999,11.509c4.001,5.336,3.335,17.849,3.335,17.849
		s0.167,5.337,4.172,7.671c4.006,2.34,5.84,4.671,5.84,4.671s5.009-3.334,5.343-6c0.333-2.675,9.846-9.513,11.68-9.341
		c1.838,0.16,12.352-2.004,14.352-7.844c2.004-5.842-0.832-5.34-1.834-7.506c-1.001-2.17-3.169-5.838-5.341-5.337
		c0,0-0.335-3.834-2.835-5.844c-2.504-1.998-10.182-9.667-15.021-10.004C681.967,909.451,675.294,902.454,671.786,904.45z"/>
	<path fill="#771F9B" stroke="#FFFFFF" stroke-miterlimit="10" d="M649.091,877.259c0,0-4.337-6.502-6.671-4.332
		c-2.337,2.172-5.011,9.675,4.672,11.507c0,0,1.833-3.333,1.999,2.177c0.167,5.505,0,8.334,5.343,5.834
		c5.342-2.505,6.345-2.172,6.511-1.005c0.166,1.171,8.674-4.501,8.008-7.006c-0.664-2.5-5.006-4.338-6.175-5.165
		C661.607,878.43,654.136,871.008,649.091,877.259z"/>
	<path fill="#771F9B" stroke="#FFFFFF" stroke-miterlimit="10" d="M626.563,878.6c0,0,6.01-2.67,7.512,0
		c1.501,2.665,3.837,5.834,1.336,7.169c-2.505,1.332-2.505,1.332-2.505,1.332S629.732,888.773,626.563,878.6z"/>
	<path fill="#771F9B" stroke="#FFFFFF" stroke-miterlimit="10" d="M645.922,890.604c0,0-2.838,2.005-4.004,1.669
		c-1.169-0.331-3.236,2.67-1.703,3.171c1.535,0.5,2.535,1.331,3.703,0C645.087,894.11,650.763,895.61,645.922,890.604z"/>
	<path fill="#771F9B" stroke="#FFFFFF" stroke-miterlimit="10" d="M619.639,863.752c0,0-1.083,0.582-1.083,1.919
		c0,1.331-3.256,4.67-1.669,5.505c1.582,0.831,7.175,0.831,8.759,0c1.587-0.835,4.673,2.002,6.675,1.751
		c2.002-0.253,4.438,0.415,7.35-2.17c2.916-2.584,0.664-4.085-0.505-4.085c-1.168,0-2.672-1.67-4.34-0.168
		c-1.668,1.499-2.669,0.168-2.752,2.338c-0.085,2.166-1.255-3.505-4.255-3.26C624.813,865.835,621.392,865.172,619.639,863.752z"/>
	<path fill="#771F9B" stroke="#FFFFFF" stroke-miterlimit="10" d="M629.716,865.11c0,0,2.251-1.006,2.503,0
		c0.248,0.994,0.813,1.749,0.813,1.749S632.155,868.986,629.716,865.11z"/>
	<path fill="#771F9B" stroke="#FFFFFF" stroke-miterlimit="10" d="M578.339,849.661l7.926,0.414c0,0,2.334-5.672,5.258-5.171
		c2.92,0.5,5.589,6.34,6.007,7.675c0.417,1.33,0.417,3.415,1.502,2.253c1.086-1.173,3.504-0.249,3.338,3.166
		c-0.168,3.42,3.838,3.841,2.753,4.674c-1.085,0.831-1.25,2.584-3.923,2.336c-2.668-0.251-6.006-0.168-6.507-2.502
		c-0.501-2.338-4.091,1.248-4.091,1.248s-2.669,1.42-4.67-0.665c-2.004-2.083-0.252-1.333-1.838-3.003
		c-1.585-1.669-3.753-7.341-3.753-7.924C580.341,851.578,577.671,852.579,578.339,849.661z"/>
	<path fill="#771F9B" stroke="#FFFFFF" stroke-miterlimit="10" d="M509.002,834.729c0,0,1.753-3.082,2.837-2.003
		c1.083,1.084-0.333,2.755,0,3.008c0.332,0.249,1.168,2.916-1.21,3.42c-2.377,0.497-2.043,3.581-2.043,3.581
		s-6.171,1.669-3.753-3.252C507.249,834.564,509.002,834.729,509.002,834.729z"/>
	<path fill="#771F9B" stroke="#FFFFFF" stroke-miterlimit="10" d="M521.518,834.229c-0.085-1.25-2.338-3.672,2.75-6.839
		c5.093-3.175,5.345-4.669,10.265-4.089c4.924,0.586,7.259,2.168,6.759,4.591c-0.5,2.416-1.835,3.788-0.918,4.603
		c0.918,0.814-1.167,2.315-1.167,2.315s-1.003,3.669-2.586,4.171c-1.588,0.5-5.507,1.541-8.681-1.229
		c-3.168-2.771-3.919-1.273-3.919-1.273L521.518,834.229z"/>
</g>
</svg>
