<?xml version="1.0" encoding="utf-8"?>
<!-- Generator: Adobe Illustrator 16.0.0, SVG Export Plug-In . SVG Version: 6.00 Build 0)  -->
<!DOCTYPE svg PUBLIC "-//W3C//DTD SVG 1.1//EN" "http://www.w3.org/Graphics/SVG/1.1/DTD/svg11.dtd">
<svg version="1.1" id="레이어_1" xmlns="http://www.w3.org/2000/svg" xmlns:xlink="http://www.w3.org/1999/xlink" x="0px"
	 y="0px" width="841.89px" height="595.28px" viewBox="0 0 841.89 595.28" enable-background="new 0 0 841.89 595.28"
	 xml:space="preserve">
<path id="Nowon" fill="#4EC2F5" d="M270.499,22.898c-0.729,2.415-1.474,4.239-2.231,5.476v-0.043
	c-0.28,0.505-0.42,1.18-0.42,2.021c0,0.646,0.083,1.377,0.252,2.191c0.14,0.926,0.21,1.559,0.21,1.895
	c0,1.293-0.141,2.768-0.421,4.424c0.056,0.254,0.295,0.801,0.715,1.643c0.815,1.489,1.49,3.074,2.023,4.762
	c0.336,1.15,0.674,2.569,1.011,4.252v0.045c0.365,1.908,0.645,3.258,0.842,4.043v0.043c0.225,0.898,0.885,3.02,1.979,6.359v0.043
	c0.928,3.314,1.405,5.883,1.433,7.709c0,0.254-0.098,0.492-0.294,0.717c-0.814,0.814-1.911,1.839-3.286,3.074
	c-0.058,0.084-0.112,0.17-0.169,0.255c-0.168,0.194-0.38,0.308-0.632,0.335s-0.478-0.027-0.673-0.168
	c-0.255-0.141-0.408-0.338-0.464-0.59c-0.28-1.152-0.604-2.162-0.969-3.033v-0.041c-0.085-0.197-0.169-0.379-0.254-0.549
	c-0.168,0.197-0.364,0.422-0.59,0.674c-0.646,0.619-0.995,0.941-1.053,0.969v0.043c-0.084,0.365-0.211,0.982-0.38,1.854
	c-0.252,1.01-0.422,1.656-0.504,1.938l0.042-0.211c-0.084,0.311-0.38,1.236-0.884,2.78v0.044c-0.703,1.936-1.308,3.341-1.813,4.211
	c-0.225,0.365-0.535,0.828-0.928,1.391c0.505,0.561,1.109,1.321,1.812,2.273c0.786,1.125,1.517,1.953,2.191,2.486
	c0.898,0.785,1.713,1.518,2.442,2.189l0.042,0.043c0.533,0.533,1.013,1.053,1.433,1.559c0.562,0.646,3.146,3.639,7.751,8.975
	c1.067,0.027,2.654,0,4.761-0.084c1.151-0.086,2.443,0.027,3.877,0.336c0.223-0.168,0.435-0.324,0.631-0.465
	c0.028-0.054,0.07-0.083,0.127-0.083c0.056-0.056,1.206-0.492,3.453-1.306c0.338-0.141,2.289-0.941,5.855-2.402
	c3.089-1.291,4.773-1.908,5.056-1.854c0.336-0.055,0.913,0.127,1.728,0.549v0.042c0.617,0.337,1.024,0.546,1.222,0.632
	c0.365,0.111,1.138,0.406,2.315,0.885c0.478,0.197,0.857,0.309,1.138,0.336c0.254,0,0.814-0.098,1.686-0.293
	c1.096-0.254,2.008-0.549,2.737-0.885c0.676-0.338,2.303-1.125,4.888-2.359c0.354-0.193,1.045-0.527,1.694-0.835l0.624-4.306
	l5.517-5.266l0.884-11.584l-4.253-5.013l-13.271-0.212c-0.196-0.617-0.379-1.18-0.548-1.686l-0.885-2.947
	c0-0.17,0.212-0.449,0.633-0.843c0.112-0.085,0.533-0.436,1.264-1.054c0.056-0.561,0.112-1.334,0.168-2.316l-1.601-2.359
	c-0.309-0.42-0.604-0.941-0.884-1.559V48.51c0.28-0.199,0.617-0.436,1.011-0.717c0.17-0.143,0.77-0.688,1.811-1.644v-6.192
	c0.422-0.506,0.773-0.928,1.054-1.264v-4.549l-3.623-5.056v-5.351c0.703-0.758,1.518-1.629,2.444-2.611
	c0.505-0.535,0.968-1.025,1.388-1.475h-0.04c0.28-1.714,0.084-2.838-0.59-3.371c-0.702-0.533-1.222-0.842-1.559-0.926
	c-0.899-0.168-1.882-0.352-2.949-0.547c-0.955-0.17-1.798-0.324-2.528-0.465c-1.123-1.797-2.034-3.342-2.737-4.633
	s-1.292-2.178-1.77-2.654c-0.449-0.506-0.703-0.801-0.759-0.885c-0.224-0.029-0.435-0.043-0.632-0.043
	c-1.235-0.027-2.4-0.014-3.496,0.043c-0.702,0.336-1.432,0.688-2.191,1.053c-1.065,0.588-1.979,1.081-2.736,1.475
	c-0.647-0.029-1.349-0.07-2.106-0.125c-2.697-0.225-4.605-0.338-5.729-0.338h-0.337l-8.683,6.748
	c-1.124,4.021-2.199,7.609-2.271,7.869V22.898z"/>
<path id="Yeongdeungpo" fill="#A294E0" d="M109.663,176.108c0.478,0.479,0.913,0.969,1.306,1.477
	c0.057,0.027,0.084,0.068,0.084,0.125c1.714,1.994,3.075,3.75,4.087,5.266c0.87,1.236,1.965,3.131,3.285,5.688
	c0.395,0.758,0.802,1.559,1.223,2.4c0.112,0.225,0.125,0.477,0.04,0.758c-0.28,0.814-0.728,2.094-1.348,3.836
	c-0.841,2.217-1.304,3.551-1.39,4v0.043c-0.253,1.32-0.633,2.078-1.137,2.275c-0.085,0.027-0.155,0.057-0.209,0.082
	c-0.761,0.227-1.672,0.578-2.74,1.053c-0.057,0.029-0.112,0.043-0.168,0.043c-1.067,0.281-1.756,0.504-2.064,0.674h-0.044
	c-0.083,0.143-0.097,0.451-0.04,0.928c0.141,1.096,0.04,2.57-0.295,4.424v0.041c-0.337,1.799-0.52,2.752-0.549,2.865
	c0,1.15-0.013,2.063-0.041,2.738c1.067,0.338,2.443,0.785,4.129,1.348c0.504,0.111,1.461,0.519,2.864,1.223
	c1.319,0.617,2.231,1.094,2.739,1.432c1.517,0.898,2.386,2.85,2.61,5.855c0.112,1.404,0.253,3.439,0.421,6.107
	c0.534,2.219,0.885,4.635,1.053,7.248c0.142,2.133,0.365,3.691,0.676,4.676c0.505,1.432,1.516,2.75,3.032,3.959
	c1.433,1.15,2.794,1.74,4.085,1.768c0.366,0,0.802-0.027,1.307-0.084c0.168-0.252,0.336-0.49,0.506-0.715
	c0.758-1.18,1.686-2.725,2.78-4.635c1.096-1.994,2.022-3.65,2.781-4.969c0.083-0.197,0.238-0.338,0.462-0.424
	c1.546-0.701,3.174-1.559,4.887-2.568c1.968-1.18,3.203-2.037,3.708-2.57c0.421-0.617,0.827-2.346,1.221-5.182v-0.041
	c0.506-3.398,0.843-5.227,1.011-5.478c0.309-0.562,0.941-1.319,1.896-2.274c0.478-0.506,0.771-0.885,0.884-1.137
	c0.056-1.152,0.183-1.896,0.38-2.232v0.041c0.197-0.729,1.208-1.293,3.032-1.686c0.143-0.027,1.363-0.363,3.665-1.01
	c2.36-0.674,3.962-1.109,4.803-1.307c0.973-0.225,3.57-1.109,5.904-1.99c-0.553-0.521-1.078-1.076-1.564-1.674
	c-7.723-9.578-18.353-14.59-31.892-15.039c-8.648-7.611-17.747-14.771-27.296-21.486l-0.043-0.041
	c-0.698-0.372-1.383-0.747-2.065-1.119l-0.377,2.51C107.402,173.526,108.202,174.452,109.663,176.108z"/>
<path id="Yangcheon" fill="#A294E0" d="M62.862,221.352c0.224,0,0.435,0.07,0.631,0.211c0.196,0.168,0.322,0.363,0.38,0.59
	c0.056,0.422,0.153,1.137,0.293,2.148v-0.043c0.142,0.619,0.324,1.068,0.548,1.349h0.043c0.561,0.532,1.685,1.151,3.37,1.853
	c0.198-0.225,1.235-0.996,3.117-2.316c2.696-1.911,4.858-2.906,6.487-2.99c1.094-0.057,1.77-0.084,2.021-0.084
	c0.337-0.17,0.688-0.492,1.054-0.969c0.281-0.479,0.912-0.871,1.895-1.18h0.043c0.73-0.227,1.334-0.338,1.813-0.338
	c0.701,0,1.193,0.07,1.474,0.211c0.225,0.057,0.407,0.182,0.547,0.379c0.058,0.084,0.101,0.182,0.128,0.295
	c0.083-0.028,0.182-0.043,0.294-0.043c0.955-0.168,1.558-0.252,1.812-0.252c0.479-0.168,1.474,0.928,2.99,3.285v0.043
	c0.927,1.432,1.715,2.557,2.36,3.369c0.447-0.111,0.968-0.223,1.559-0.336c2.331-0.506,4.114-0.758,5.349-0.758h0.338
	c0.197-0.646,0.45-1.49,0.759-2.527c0.59-2.191,1.558-3.764,2.906-4.719c1.292-0.982,2.106-1.967,2.442-2.949
	c0.029-0.084,0.043-0.17,0.043-0.254v-0.041c0.084-0.617,0.125-1.684,0.125-3.201c-0.026-0.143,0.155-1.221,0.55-3.242
	c0.281-1.631,0.364-2.922,0.253-3.877c-0.17-1.656,0.252-2.654,1.263-2.99h-0.043c0.394-0.197,1.208-0.449,2.444-0.76
	c1.012-0.449,1.881-0.801,2.611-1.053c0.028-0.139,0.084-0.42,0.169-0.842c0.083-0.507,0.575-1.967,1.476-4.383
	c0.531-1.432,0.926-2.541,1.179-3.326c-0.31-0.701-0.633-1.377-0.97-2.021c-1.291-2.472-2.345-4.297-3.158-5.477
	c-0.955-1.404-2.191-3.021-3.708-4.846c-2.694,0.252-4.311,0.38-4.844,0.38c-3.23,0-5.084-0.198-5.562-0.591
	c-0.365-0.195-0.73-0.659-1.095-1.389v-0.043c-0.31-0.563-0.577-1.025-0.8-1.391H96.14c-0.758,0.168-1.418,0.281-1.979,0.338
	c-0.226,1.629-0.478,4.197-0.759,7.709c0.056,0.055,0.336,0.533,0.843,1.432c0.309,0.561,0.618,1.039,0.927,1.432
	c0.141,0.197,0.196,0.436,0.168,0.717c-0.363,3.426-0.407,6.572-0.126,9.438v0.168c-0.058,1.402-0.59,2.287-1.601,2.654
	c-0.478,0.225-1.475,0.35-2.992,0.377c-0.926,0.141-2.345,0.338-4.253,0.59c-2.358,0.367-3.722,0.576-4.087,0.633
	c-2.191,0.395-3.876,0.688-5.056,0.885c-2.049,0.338-3.524,0.52-4.423,0.547c-1.517,0.168-2.47-0.615-2.865-2.357
	c-0.477-1.377-0.842-2.543-1.095-3.496c-0.337-1.406-0.646-2.346-0.926-2.824c0-0.027-0.016-0.041-0.044-0.041
	c-0.195-0.395-0.659-0.898-1.389-1.516c-0.899-0.816-1.405-1.756-1.518-2.824v-0.125c0-1.209-0.069-2.375-0.21-3.498
	c-0.112-0.448-0.449-0.828-1.012-1.136c-1.094-0.534-1.84-0.94-2.231-1.222c-0.141-0.141-0.24-0.281-0.295-0.423
	c-0.086-0.168-0.113-0.351-0.086-0.546c0.169-1.518,0.324-2.781,0.465-3.793c-0.112,0-0.239-0.014-0.379-0.043
	c0-0.027-0.015-0.027-0.043,0l-2.4,4.214c-0.028,0.028-0.057,0.071-0.086,0.126c-0.589,0.703-1.557,1.797-2.904,3.287h0.041
	c-0.026,0.025-0.144,0.094-0.303,0.178c0.143,1.291,0.219,2.393,0.219,3.275l-0.085,3.961c0,0.057,0.184,0.266,0.548,0.629
	c0.393,0.396,0.674,0.844,0.843,1.352c0.14,0.391,0.211,0.744,0.211,1.053c0.056,0.166,0.407,0.265,1.053,0.295
	c0.45,0.027,1.095,0.223,1.938,0.588c0.42,0.197,0.911,0.436,1.474,0.719c0.281,0.082,0.422,0.715,0.422,1.895
	c0,0.646-0.295,1.152-0.884,1.516c-0.676,0.449-1.251,0.855-1.729,1.223v5.813c0,0.926-0.015,1.46-0.043,1.601
	c-0.056,0.449-0.237,0.801-0.547,1.053c-0.254,0.197-0.478,0.449-0.674,0.758c-0.169,0.309-0.252,0.561-0.252,0.76
	c-0.028,0.391-0.016,1.234,0.041,2.527v1.769c-0.076,1.335-0.219,2.62-0.425,3.853c1.397-0.16,2.837-0.328,3.499-0.398H62.862z"/>
<path id="Gangseo" fill="#A294E0" d="M57.048,182.385l2.738-4.76c0.084-0.168,0.239-0.31,0.464-0.42
	c0.196-0.086,0.391-0.102,0.589-0.043c0.196,0.027,0.463,0.07,0.8,0.125c0.507,0.113,0.955,0.211,1.349,0.297
	c0.253,0.055,0.45,0.195,0.59,0.42c0.141,0.225,0.196,0.463,0.168,0.717c-0.139,0.927-0.308,2.273-0.505,4.043
	c0.337,0.197,0.813,0.436,1.434,0.717c0.026,0.027,0.055,0.042,0.083,0.042c1.265,0.729,1.938,1.614,2.021,2.653
	c0.169,1.209,0.253,2.445,0.253,3.707c0.057,0.563,0.338,1.068,0.842,1.517h-0.04c0.954,0.843,1.571,1.546,1.852,2.106
	c0.366,0.563,0.745,1.658,1.138,3.287c0.479,1.797,0.927,3.23,1.349,4.295l0.547,0.086c1.377,0,4.41-0.464,9.1-1.391
	c2.079-0.393,4.999-0.828,8.764-1.307c1.122-0.027,1.88-0.113,2.273-0.252c0.17-0.143,0.267-0.395,0.295-0.758
	c-0.281-2.893-0.237-6.039,0.128-9.438c-0.281-0.393-0.55-0.842-0.801-1.348v0.043c-0.844-1.432-1.224-2.248-1.139-2.443v-0.084
	c0.365-4.27,0.688-7.204,0.969-8.807c0.029-0.252,0.141-0.447,0.338-0.588c0.197-0.17,0.421-0.252,0.673-0.252
	c0.563,0,1.378-0.113,2.443-0.338h0.211h1.981c0.168,0,0.321,0.041,0.461,0.125c0.169,0.057,0.296,0.155,0.38,0.295
	c0.339,0.479,0.759,1.168,1.264,2.064c0.141,0.311,0.267,0.535,0.379,0.676c0.394,0.139,1.883,0.211,4.467,0.211
	c0.42,0,1.488-0.072,3.201-0.211c-2.022-2.248-2.977-3.611-2.864-4.088c0-0.055,0.014-0.098,0.042-0.125l0.462-3.371
	c0.302,0.164,0.615,0.329,0.923,0.492c-12.774-7.105-22.788-14.668-30.03-22.693c-0.057-0.084-0.113-0.152-0.168-0.209
	c-15.027-6.348-28.141-16.809-39.347-31.385l-2.739-0.293c-0.309,0.926-0.532,1.514-0.673,1.768
	c-0.281,0.479-0.814,1.054-1.601,1.727v0.295c-0.142,1.066-0.211,1.713-0.211,1.938c0,0.084,0.506,0.928,1.517,2.527
	c0.955,2.051,1.432,4.201,1.432,6.447c0,0.363-0.309,0.799-0.926,1.305c-0.703,0.59-1.152,1.701-1.348,3.328
	c-0.113,0.758-0.801,1.672-2.064,2.737c-1.294,1.097-1.967,1.784-2.021,2.065c-0.085,0.701-0.142,1.586-0.168,2.652
	c-0.227,0.845-1.069,1.629-2.528,2.361c-1.377,0.674-2.851,1.516-4.424,2.527c-1.713,1.096-2.569,1.824-2.569,2.189
	c0,0.227,0.084,0.829,0.253,1.811c0.168,0.956,0.253,1.572,0.253,1.855c0,0.814-0.31,1.402-0.929,1.77
	c-0.363,0.225-1.248,0.463-2.652,0.715c-1.404,0.225-2.063,0.844-1.981,1.854c0.086,1.013,0.17,2.064,0.254,3.159
	c0.056,1.067,0.084,2.22,0.084,3.454c0,0.76-0.309,1.109-0.928,1.055c-1.46-0.086-2.387-0.1-2.779-0.041
	c0.083,0.982-0.211,1.739-0.885,2.273c-0.533,0.449-1.265,0.716-2.19,0.8c-0.87,0.084-1.869,0.296-2.989,0.632
	C3.8,169.043,3.365,169.172,3,169.284c0.056,0.252,0.083,0.477,0.083,0.674c0,0.338-0.027,0.815-0.083,1.434
	c0,0.027,0.478,0.434,1.432,1.221c1.125,0.898,1.925,1.713,2.402,2.443c0.28,0.395,0.478,0.73,0.589,1.011
	c0.112,0.114,0.661,0.255,1.644,0.423c1.572,0.279,3.341,1.053,5.308,2.316c0.729,0.449,1.193,0.771,1.39,0.969
	c0.113,0.027,0.688,0.014,1.728-0.043c0.899,0,2.543,0.113,4.928,0.338c0.675,0.057,1.308,0.111,1.896,0.17
	c0.168,0.307,0.395,0.602,0.676,0.881c1.207,1.322,1.964,2.178,2.273,2.571c0.982,1.292,1.629,2.192,1.938,2.696
	c0.364,0.617,0.548,1.152,0.548,1.602l-0.169,1.053c0,0.113,0.254,0.252,0.759,0.42c0.45,0.17,0.744,0.254,0.884,0.254l4.719-4.002
	c2.416-2.049,4.199-3.074,5.351-3.074c0.449,0,0.786,0.322,1.012,0.967c0.111,0.338,0.195,0.676,0.252,1.013
	c0.083,0.226,0.281,0.335,0.59,0.335c0.701,0,1.333,0.043,1.896,0.129c0.206,0.023,3.165,0.313,8.86,0.861l0.364-0.314
	C55.53,184.168,56.457,183.088,57.048,182.385z"/>
<path id="Geumcheon" fill="#6D78C6" d="M148.629,282.645v0.041c-0.279-0.223-1.01-0.35-2.19-0.377h-0.041
	c-1.434-0.027-2.654-0.07-3.666-0.127c-0.281-0.027-0.504-0.141-0.673-0.338c-0.196-0.196-0.296-0.42-0.296-0.674
	c-0.027-3.537-0.94-7.203-2.737-10.996v0.086c-2.079-3.65-3.075-5.588-2.991-5.813c-0.169-0.365,0.604-1.139,2.317-2.316
	c0.843-0.59,1.319-0.914,1.433-0.971c-0.113-0.027-0.914-0.787-2.402-2.275c-1.18-1.152-2.204-2.133-3.074-2.947
	c-0.647,0.113-1.503,0.322-2.57,0.633c-1.517,0.391-2.906,0.688-4.17,0.883c-0.113,0.027-0.212,0.043-0.297,0.043
	c-1.039,0.141-1.994,0.211-2.863,0.211c-2.695,0-5.111-0.633-7.246-1.896h-0.042c-0.506-0.309-2.231-1.613-5.182-3.918
	c-0.393-0.309-0.94-0.926-1.643-1.854l-0.042-0.041c-0.169-0.226-0.378-0.338-0.633-0.338c-1.819-0.088-3.943-0.2-5.39-0.287
	c-0.153,0.322-0.349,0.631-0.591,0.918c0.057,0.338,0.097,0.731,0.126,1.18c0.111,1.463,0.323,2.416,0.631,2.867
	c0.142,0.25,0.913,1.346,2.316,3.285c0.227,0.337,0.465,0.912,0.718,1.727c0.252,0.757,0.379,1.235,0.379,1.432l-0.211,1.559
	c4.24,6.15,6.361,9.351,6.361,9.605c0,0.111-0.295,0.436-0.885,0.967l0.421,1.055c0.056,0.14,0.113,0.224,0.169,0.254
	c0.056,0.027,0.295,0.07,0.715,0.125c1.883,0.422,2.88,0.633,2.992,0.633c0.478,0.168,0.717,0.393,0.717,0.672
	c0,0.256-0.057,0.605-0.17,1.055c-0.139,0.533-0.294,0.855-0.463,0.969c-0.392,0.254-0.772,0.576-1.139,0.969
	c0.114,0.619,0.227,1.545,0.339,2.781c0,0.224,0.056,0.392,0.168,0.506c0.084,0.111,0.352,0.422,0.801,0.926
	c1.714,1.881,3.931,5.266,6.655,10.152c1.854,3.342,2.837,5.462,2.949,6.361c0.112,0.842,0.183,3.104,0.211,6.783h12.258
	c0.197-1.799,0.492-2.822,0.885-3.076c0.028-0.057,0.716-0.211,2.064-0.463c1.403-0.311,2.346-0.633,2.823-0.971l3.496-4
	c2.504-2.834,4.272-4.795,5.341-5.926c-0.231-0.842-0.857-2.08-1.888-3.723C151.326,286.17,150.063,284.387,148.629,282.645z"/>
<path id="Guro" fill="#A294E0" d="M109.704,247.596c0.844,0,1.574,0.395,2.192,1.18c0.56,0.758,0.996,1.264,1.306,1.516
	c2.863,2.248,4.521,3.496,4.97,3.75c1.827,1.068,3.903,1.6,6.235,1.6c0.73,0,1.531-0.041,2.4-0.125
	c0.507-0.563,1.419-1.656,2.739-3.285c0.505-0.646,0.982-1.236,1.433-1.77c-1.629-0.084-3.315-0.813-5.056-2.191h-0.043
	c-1.854-1.488-3.074-3.117-3.665-4.887c-0.393-1.123-0.66-2.865-0.8-5.223c-0.141-2.557-0.464-4.902-0.968-7.035
	c-0.028-0.055-0.044-0.113-0.044-0.168c-0.167-2.642-0.308-4.676-0.421-6.109c-0.14-2.162-0.688-3.596-1.644-4.295
	c-0.504-0.281-1.361-0.73-2.567-1.35c-1.236-0.617-2.08-0.984-2.529-1.094h-0.083c-1.603-0.535-2.907-0.955-3.918-1.266
	c-0.506,1.123-1.489,2.232-2.949,3.328c-1.011,0.758-1.728,1.967-2.148,3.623c-0.478,1.545-0.8,2.654-0.969,3.328
	c-0.084,0.225-0.226,0.408-0.421,0.547c-0.198,0.141-0.407,0.197-0.632,0.17h-1.055c-1.122,0-2.766,0.224-4.929,0.672v0.043
	c-0.813,0.17-1.516,0.324-2.105,0.465c-0.197,0.055-0.38,0.055-0.548,0c-0.196-0.084-0.351-0.199-0.462-0.338
	c-0.789-0.871-1.771-2.232-2.951-4.086c-0.896-1.434-1.318-2.219-1.263-2.359c-0.226,0-0.701,0.068-1.434,0.209h-0.041
	c-1.039,0.17-1.572,0.254-1.601,0.254c-0.28,0-0.519-0.096-0.716-0.295c-0.225-0.225-0.338-0.464-0.338-0.716v-0.042h-0.125
	c-0.337,0-0.744,0.07-1.224,0.21c-0.421,0.14-0.716,0.282-0.884,0.421h0.043c-0.702,0.928-1.419,1.504-2.147,1.729h-0.086
	c-0.197,0.057-0.997,0.127-2.401,0.211c-1.349,0.111-3.159,0.969-5.432,2.57c-2.783,1.965-4.229,2.891-4.341,2.778
	c-0.141,0-0.267-0.013-0.38-0.042c-2.191-0.898-3.651-1.713-4.382-2.443c-0.562-0.479-0.938-1.291-1.137-2.441
	c-0.028-0.029-0.028-0.043,0-0.043c-0.083-0.479-0.141-0.885-0.168-1.221h-0.675c-0.854,0.09-2.56,0.283-4.136,0.459
	c-0.69,2.883-1.765,5.455-3.236,7.711c-1.686,2.053-4.028,4.004-7.034,5.857l2.822,5.518l4.002,0.211
	c1.853,1.18,2.864,2.695,3.033,4.549l-3.075,2.865l-0.252,5.855l-3.286,3.581v3.286l1.853,0.125l1.601-2.527l7.119-0.295
	l1.392-1.305l9.141,0.377l2.274,2.023l3.75-0.211l0.336-7.246c5.141-1.207,10.391-4.871,15.756-10.994
	c4.156-1.854,7.582-1.488,10.278,1.096c0.774,0.88,1.116,1.912,1.035,3.087c1.376,0.06,3.338,0.136,4.904,0.198H109.704z"/>
<path id="Seongdong" fill="#41A5F1" d="M283.854,162.46c-7.864-1.573-11.992-3.188-12.384-4.845v-0.084
	c-0.142-0.451-0.255-0.773-0.34-0.969c-0.027-0.027-0.04-0.057-0.04-0.084c-0.058-0.113-0.14-0.197-0.253-0.254h-0.043
	c-0.589-0.197-1.573-0.828-2.947-1.895c-0.593-0.422-1.884-1.168-3.877-2.232c-2.275-1.209-3.735-1.828-4.381-1.854
	c-0.478,0.026-2.106,0.548-4.887,1.558c-3.175,1.15-4.788,1.715-4.845,1.686c-0.112,0.029-1.53-0.309-4.254-1.012
	c-0.31-0.084-0.605-0.168-0.886-0.252c0.028,0.449,0.069,0.927,0.126,1.432c0.056,0.339,0.365,0.871,0.927,1.602
	c0.844,1.15,1.236,2.051,1.18,2.695c0.112,0.227-0.28,0.828-1.18,1.813c-0.448,0.477-0.729,0.814-0.843,1.01
	c-0.028,0.17-0.168,0.787-0.421,1.854v0.043c-0.336,1.348-0.646,2.107-0.927,2.275c-0.141,0.168-0.926,0.42-2.358,0.758
	c-0.563,0.112-0.927,0.268-1.095,0.463h-0.043c-0.111,0.365-0.589,1.039-1.433,2.022c-0.673,0.757-1.108,1.403-1.306,1.938v-0.043
	c-0.083,0.254-0.211,0.885-0.38,1.895c-0.168,1.014-0.603,1.756-1.305,2.234c-0.421,0.28-0.913,0.701-1.475,1.264
	c-0.027,0-0.043,0.016-0.043,0.043c-0.561,0.533-0.955,0.982-1.179,1.348l-2.189,4.17c0.14,0.17,0.209,0.365,0.209,0.59
	c0,0.336-0.056,0.898-0.168,1.684c-0.14,0.592-0.209,1.012-0.209,1.266c0.11,1.209,1.375,2.443,3.79,3.705
	c0.386,0.201,1.369,0.7,2.354,1.193c1.399-1.777,2.98-3.293,4.765-4.521c3.65-2.525,10.757-1.359,21.315,3.498
	c0.617,0.279,1.25,0.576,1.896,0.885l11.619,5.648c6.69-16.559,11.621-27.676,13.233-31.178
	C287.279,163.189,285.37,162.741,283.854,162.46z"/>
<path id="Gwangjin" fill="#41A5F1" d="M309.974,153.36c-0.535,0.564-1.322,0.844-2.36,0.844c-1.151,0-1.994-0.295-2.527-0.885
	c-0.507-0.506-1.151-0.898-1.939-1.18h-0.041c-0.337-0.113-1.812-0.309-4.424-0.59c-1.123-0.113-2.119-0.225-2.99-0.338
	c-0.478,3.764-1.714,7.877-3.707,12.345l-0.042,0.042c0,0.027-0.014,0.055-0.042,0.084c-0.991,1.841-5.709,13.416-13.341,32.379
	l10.518,5.113l14.408,0.379c1.712-0.113,3.229-0.843,4.548-2.191c5.225-7.33,11.262-14.279,18.115-20.852l2.653-13.017l-1.812-0.845
	l-6.15,3.624l-4.17-5.771l0.928-10.574l-0.006-1.396c-3.169,0.395-4.633,0.721-5.091,0.977
	C311.488,152.042,310.646,152.659,309.974,153.36z"/>
<path id="Mapo" fill="#6AD9E2" d="M141.215,183.649c0.506,0.057,1.138,0.084,1.896,0.084c1.712,0,3.468-0.252,5.266-0.758
	c1.826-0.533,3.034-0.801,3.622-0.801c0.787,0,1.911,0.52,3.371,1.559c1.432,1.011,2.512,1.518,3.244,1.518l2.484-0.127
	c0.871,0,1.572,0.111,2.106,0.337c0.547,0.237,3.125,2.183,7.715,5.821c0.631-0.234,1.192-0.443,1.384-0.512h-0.042
	c0.702-0.254,2.4-0.998,5.098-2.232c0.842-0.396,1.529-1.098,2.064-2.109c0-0.027,0.014-0.041,0.042-0.041
	c0.617-1.461,1.096-2.471,1.433-3.033c0.195-0.365,0.548-1.193,1.054-2.484c0.364-1.041,0.954-1.855,1.769-2.443h-0.043
	c0.787-0.703,1.56-1.418,2.317-2.148c0.758-0.844,1.18-1.404,1.265-1.686c0-0.17-0.169-0.844-0.507-2.021
	c-0.084-0.423-0.167-0.803-0.252-1.139v-0.125c-0.196-0.844-0.294-1.559-0.294-2.148c0-0.309-0.128-0.912-0.381-1.813
	c-0.111-0.197-0.309-0.463-0.589-0.799h-0.379h-0.085c-2.5,0.252-5.939,0.688-10.32,1.303c-4.522,0.621-7.919,0.928-10.194,0.928
	c-2.584,0-4.916-0.49-6.994-1.475c-2.779-1.348-4.142-3.201-4.086-5.56c0-0.476,0.168-1.024,0.505-1.642
	c0.059-0.142,0.113-0.311,0.17-0.508c-2.162-0.475-3.47-0.785-3.919-0.926h0.043c-2.864-0.814-5.49-1.84-7.878-3.074
	c-1.909-0.982-3.861-2.359-5.855-4.129c-3.369-3.006-5.097-4.535-5.181-4.592c-0.675-0.563-1.278-1.055-1.812-1.475l-0.043-0.043
	c-1.291-1.096-2.289-1.965-2.991-2.609c-0.252-0.256-1.25-0.887-2.991-1.898h0.043c-1.741-1.01-3.131-2.176-4.17-3.494
	c-1.967-2.25-3.455-3.959-4.467-5.141c-0.959-1.104-2.132-2.59-2.962-3.74c-0.468,0.646-1.039,1.445-1.713,2.391
	c-0.843,1.152-1.56,2.15-2.148,2.992c0.027,0.422,0.043,0.928,0.043,1.516c0,0.422-0.016,0.971-0.043,1.645
	c-0.422,1.15-1.053,2.107-1.896,2.865c-0.253,0.195-0.52,0.406-0.801,0.631c-1.152,0.898-2.457,1.77-3.916,2.611
	c-1.488,0.815-2.852,1.504-4.088,2.064c-1.039,0.451-1.952,0.787-2.737,1.012c-0.395,0.561-0.395,1.094,0,1.6
	C113.048,159.147,128.663,171.094,141.215,183.649z"/>
<path id="Dongjak" fill="#6D78C6" d="M160.341,215.411c-2.358,0.676-3.622,1.027-3.792,1.055c-0.898,0.197-1.433,0.379-1.6,0.549
	c-0.113,0.223-0.169,0.742-0.169,1.557v0.168c-0.085,0.508-0.591,1.236-1.517,2.191c-0.786,0.787-1.292,1.393-1.518,1.813
	c-0.112,0.223-0.378,1.824-0.8,4.803c-0.477,3.426-1.024,5.488-1.644,6.191v0.043c-0.532,0.645-1.951,1.656-4.254,3.033
	c-1.657,0.982-3.258,1.824-4.803,2.527c-0.73,1.264-1.6,2.809-2.611,4.633c-0.871,1.518-1.63,2.809-2.275,3.877
	c0.927-0.225,1.995-0.493,3.203-0.801l-0.044,0.041c0.563-0.195,1.713-0.73,3.456-1.6c1.824-0.927,3.13-1.461,3.916-1.6
	c0.31-0.086,1.672-0.184,4.087-0.297c0.898-0.029,1.461-0.141,1.686-0.336l0.04-0.043c0.143-0.281,0.38-1.18,0.717-2.697
	c0.395-1.881,1.125-2.752,2.191-2.611c1.011,0,1.769,0.366,2.275,1.096c0,0.027,0.014,0.043,0.042,0.043
	c0.506,0.701,0.77,1.08,0.801,1.137c0.028,0.057,0.056,0.098,0.083,0.127c0.226,0.084,0.745,0.127,1.559,0.127
	c0.366,0,0.716,0.012,1.055,0.041c0.14,0,0.28,0.041,0.421,0.127c0.112,0.057,0.21,0.141,0.295,0.252
	c0.112,0.057,0.421,0.195,0.925,0.422h-0.041c0.618,0.281,1.123,0.449,1.517,0.504c0.336,0,2.009-0.475,5.014-1.432h-0.042
	c3.453-1.123,5.279-1.656,5.477-1.6c0.224-0.057,1.375,0.352,3.453,1.221c1.152,0.506,1.952,0.828,2.401,0.969
	c0.197-0.195,0.407-0.422,0.633-0.674c1.011-1.039,1.783-1.516,2.316-1.431c2.219,0,3.453,0.616,3.707,1.853
	c0.168,0.563,0.322,2.023,0.463,4.381c0.309,2.107,0.548,3.512,0.717,4.213h0.041c0.253,1.404,0.534,2.373,0.843,2.906
	c0.421,0.646,1.025,1.389,1.812,2.232c1.039,1.068,1.784,1.883,2.232,2.443c0.59,0.76,1.181,1.266,1.77,1.518
	c0.59,0.195,1.643,0.295,3.159,0.295c2.19-0.197,3.751-0.336,4.676-0.422c0.028-0.141,0.058-0.281,0.085-0.422
	c0.083-0.365,0.126-0.787,0.126-1.262l0.126-3.625c-0.169-0.674-0.237-1.121-0.209-1.348c0-1.039,0.505-4.689,1.516-10.951v-0.043
	c1.011-5.871,1.517-8.861,1.517-8.975c-0.14-0.055-0.8-0.645-1.979-1.77c-1.21-1.121-2.786-3.229-3.886-4.986
	c-0.913-0.223-1.821-0.492-2.729-0.824c-6.543-3.764-13.494-7.221-20.854-10.363c-1.314-0.555-2.519-1.24-3.626-2.033
	c-2.803,1.102-6.01,2.213-7.241,2.495C164.216,214.344,162.644,214.766,160.341,215.411z"/>
<path id="Jungnang" fill="#41A5F1" d="M314.186,96.237c-0.844,0.367-1.909,0.703-3.202,1.012
	c-1.068,0.225-1.77,0.337-2.107,0.337c-0.478,0.028-1.109-0.142-1.896-0.505v0.043c-1.095-0.479-1.825-0.76-2.19-0.844v-0.043
	c-0.28-0.056-0.814-0.309-1.6-0.758h0.041c-0.364-0.197-0.619-0.309-0.758-0.338c-0.224,0.029-1.643,0.605-4.256,1.729
	c-3.595,1.459-5.574,2.26-5.938,2.4c-2.021,0.76-3.104,1.166-3.245,1.223c-0.11,0.084-0.223,0.184-0.336,0.295
	c0.562,1.319,0.928,2.373,1.096,3.16c0.224,1.178,0.421,2.246,0.589,3.201c0.028,0.055,0.044,0.111,0.044,0.168
	c0.504,2.752,0.758,4.578,0.758,5.477c0.027,1.404-0.718,3.693-2.233,6.867c-1.377,2.752-2.064,4.744-2.064,5.982
	c0.056,0.561,0.591,1.613,1.6,3.158c0.731,1.123,2.108,3.02,4.13,5.688c1.545,1.938,2.598,5.574,3.159,10.91
	c0.141,1.207,0.183,2.471,0.128,3.791c0.869,0.086,1.88,0.182,3.031,0.295c2.838,0.338,4.466,0.59,4.888,0.759
	c1.095,0.364,1.993,0.913,2.695,1.642c0.252,0.17,0.618,0.254,1.096,0.254c0.393,0,0.702-0.07,0.927-0.211
	c0.785-0.814,1.77-1.545,2.948-2.189c0.5-0.297,2.873-0.727,6.094-1.193l-0.027-6.475l8.13-8.383l1.771-5.855l3.159-2.107
	l1.136-4.633l-1.978-1.602l0.167-2.4l4.213-3.287l0.504-3.664l-3.2-2.275l0.465-8.254l-4.804-5.941l-5.861-1
	c-0.873,0.523-1.48,0.848-2.184,1.211C316.516,95.086,314.887,95.874,314.186,96.237z"/>
<path id="Yongsan" fill="#66D3C6" d="M228.584,184.577c0-0.311,0.07-0.844,0.211-1.602v-0.336
	c-0.505-0.029-0.94-0.086-1.306-0.17h-0.042c-0.056-0.027-0.111-0.041-0.168-0.041c-0.027-0.028-0.058-0.043-0.086-0.043
	c-1.769-0.336-2.625-1.266-2.568-2.779v-0.168l0.464-2.824c-0.113,0.111-0.449,0.1-1.013-0.041
	c-1.149-0.365-2.358-0.549-3.623-0.549c0.085,0.111-0.085,0.379-0.504,0.801l-0.043,0.043c-1.095,0.955-2.078,1.404-2.948,1.348
	c-0.506,0.084-1.518-0.436-3.033-1.559h-0.042c-1.375-1.039-2.078-1.586-2.106-1.643c-0.056-0.029-0.112-0.057-0.168-0.086
	c-1.769-1.01-3.049-1.727-3.834-2.148c-1.152-0.617-1.952-0.939-2.401-0.967c-0.478,0-0.884,0.125-1.223,0.377h-0.04
	c-0.703,0.535-1.418,0.803-2.15,0.803c-0.701,0.084-1.46-0.422-2.273-1.518c-0.31-0.42-0.589-0.661-0.842-0.717
	c-0.647,0-1.194,0.211-1.644,0.633c-0.87,0.757-1.854,1.137-2.95,1.137c-1.432,0-2.091-0.533-1.979-1.6v-0.59
	c-0.759,0.281-1.967,0.744-3.623,1.389c0.028,0.086,0.069,0.197,0.126,0.338c0.366,1.461,0.548,2.303,0.548,2.527
	c0.057,0.646-0.562,1.672-1.854,3.076l-0.042,0.041c-0.759,0.787-1.572,1.545-2.442,2.275v0.041c-0.507,0.365-0.886,0.9-1.14,1.602
	c-0.589,1.461-0.982,2.373-1.179,2.738c-0.309,0.532-0.773,1.488-1.39,2.863v0.085c-0.787,1.489-1.798,2.515-3.033,3.075
	c-2.809,1.293-4.563,2.064-5.265,2.316c-0.015,0.006-0.086,0.035-0.177,0.072c0.266,0.211,0.53,0.424,0.808,0.645
	c2.78,2.555,4.704,5.996,5.771,10.32c0.646,1.32,1.56,2.303,2.738,2.951l19.927,9.014c7.133,0.928,11.851-1.166,14.154-6.276
	c1.403-0.505,2.471-0.915,3.2-1.222c1.854-0.787,3.034-1.516,3.539-2.191c0.337-0.449,1.053-1.656,2.149-3.623
	c0.336-0.617,0.758-1.137,1.264-1.559c0.841-0.701,2.793-1.686,5.855-2.947c0.908-2.533,2.026-4.766,3.33-6.732
	c-0.885-0.443-1.743-0.887-2.066-1.063C230.101,188.327,228.474,186.487,228.584,184.577z"/>
<path id="Eunpyeong" fill="#6AD9E2" d="M120.7,136.047l0.041,0.043c0.871,1.121,2.051,2.12,3.539,2.99
	c1.938,1.151,3.049,1.867,3.329,2.148c0.562,0.506,1.306,1.166,2.231,1.979c0.563-0.56,1.223-1.207,1.98-1.938
	c2.809-2.725,4.367-4.283,4.676-4.676c0.562-0.814,0.998-1.586,1.307-2.316c0.168-0.365,0.38-0.926,0.632-1.686
	c0.056-0.252,0.196-0.449,0.42-0.588c0.198-0.113,0.421-0.156,0.674-0.129c1.209,0.141,2.401,0.211,3.582,0.211
	c0.224,0,0.42,0.057,0.589,0.17c0.169,0.111,0.295,0.267,0.379,0.463c0.113,0.225,0.295,0.969,0.548,2.232
	c0.141,0.506,0.141,0.785,0,0.842h0.043c0.281,0.141,0.897,0.281,1.854,0.422c0.893,0.113,1.512,0.168,1.854,0.168
	c-0.253-0.006-0.379-0.398-0.379-1.178c0.028-2.248,0.505-3.398,1.432-3.455c1.572-0.395,3.146-0.563,4.719-0.506v-0.381
	c0-0.615-0.07-1.221-0.211-1.811c-0.195-0.813-0.295-1.375-0.295-1.685c-0.112-0.702,1.164-2.134,3.833-4.296
	c2.416-1.967,4.114-3.061,5.099-3.285l0.041-0.043c0.084-0.027,0.772-0.211,2.064-0.549h-0.042c0.394-0.084,0.646-0.111,0.758-0.084
	c0.506-0.645,0.827-1.137,0.97-1.475v-0.041v-0.676c0-0.447-0.056-0.869-0.17-1.262v0.043c-0.168-0.451-0.434-0.957-0.8-1.518
	c-0.169-0.253-0.225-0.506-0.169-0.76c0.057-0.252,0.196-0.463,0.423-0.631c1.348-0.984,4.241-2.711,8.677-5.182
	c-0.028-0.027-0.056-0.056-0.084-0.084c-0.197-0.195-0.295-0.436-0.295-0.717c0.027-0.279,0.155-0.52,0.379-0.715
	c0.395-0.365,0.716-0.689,0.968-0.971c0.311-0.365,0.492-0.631,0.549-0.801v0.084c0.311-2.302,0.464-3.552,0.464-3.748
	c0-0.926-0.28-2.57-0.845-4.928c-0.616-2.613-0.925-3.947-0.925-4.002c-0.028-0.227,0.125-0.717,0.464-1.475l0.041-0.043
	c0.168-0.42,0.282-0.701,0.337-0.842c0.028-1.041,0.604-1.727,1.728-2.064c0.392-0.17,0.996-0.268,1.812-0.295
	c1.432-0.057,2.304-0.141,2.612-0.252c0.561-0.338,1.053-1.111,1.475-2.318c0.197-0.926,1.433-1.586,3.706-1.98
	c0.955-0.168,2.431-0.42,4.424-0.758c0.141-0.084,0.352-0.238,0.631-0.463c0.62-0.619,1.067-1.012,1.349-1.18v0.043
	c0.174-0.14,0.571-0.748,0.963-1.32c-0.081-0.066-0.17-0.127-0.246-0.197c-1.153-1.037-1.868-2.709-2.148-5.014
	c-0.196-1.516-0.324-2.329-0.379-2.443c-0.143-0.252-0.829-0.715-2.063-1.389c-2.052-1.123-3.091-1.685-3.118-1.685
	c-0.112-0.142-0.169-0.999-0.169-2.569v-0.633c-0.562-0.59-1.319-1.432-2.275-2.527c-1.908-2.191-3.369-4.045-4.38-5.561
	c-0.394-0.563-0.829-1.012-1.308-1.348c-0.393-0.254-1.192-0.66-2.399-1.223c-0.647-0.281-1.503-0.955-2.57-2.021
	c-0.702-0.703-1.194-1.193-1.475-1.475c-1.853,1.6-4.155,3.777-6.908,6.529c-1.741,1.713-3.16,2.568-4.255,2.568
	c-0.562,0-1.152-0.111-1.769-0.336c-0.619-0.223-1.013-0.338-1.18-0.338c-1.32,1.096-2.808,2.178-4.467,3.246
	c-3.341,2.189-5.925,3.285-7.75,3.285c-0.563,0-0.955-0.072-1.18-0.211c-0.254-0.225-0.547-0.421-0.886-0.59
	c-0.645-0.365-1.713-0.717-3.201-1.055c-0.814,0.619-1.615,1.209-2.399,1.771c-0.113,0.084-0.212,0.182-0.297,0.295
	c0.226,0.532,0.549,1.191,0.969,1.979c0.198,0.395,0.352,1.629,0.464,3.707c0,2.105-0.716,4.045-2.148,5.814
	c-0.393,0.448-0.786,0.855-1.18,1.221c-0.14,1.066-0.393,1.77-0.759,2.107c0.394,0.393,0.927,0.688,1.602,0.883
	c0.421,0.113,0.633,0.422,0.633,0.928c0,1.125-0.352,4.719-1.054,10.785c0,0.168-0.87,1.066-2.611,2.695
	c-0.591,0.563-1.194,1.096-1.813,1.601c0.028,0.421,0.057,0.911,0.086,1.476c0.167,2.695,0.112,5.574-0.171,8.635
	c-0.308,3.061-0.519,6.432-0.631,10.111c-0.084,2.836-0.126,4.803-0.126,5.896c-0.252,0.197-0.548,0.422-0.884,0.674
	c-0.338,0.281-0.661,0.547-0.969,0.801l-0.17,2.441c-0.057,0.928-0.112,1.758-0.17,2.487h-12.426
	c-0.233-0.116-0.468-0.265-0.702-0.401c0.23,0.367,0.611,0.719,0.997,1.158C117.204,132.043,118.707,133.773,120.7,136.047z"/>
<path id="Seongbuk" fill="#4EC2F5" d="M199.012,83.137c1.039,0.672,2.247,1.938,3.623,3.791c1.771,2.416,2.612,4.311,2.528,5.688
	c0,0.842-0.058,1.628-0.17,2.357c-0.112,0.59-0.168,1.039-0.168,1.348c0.112,0,0.745,0.703,1.896,2.107l2.105,2.652
	c0.142,0.199,0.211,0.408,0.211,0.633c0.027,0.113-0.057,0.408-0.252,0.885c-0.058,0.227-0.085,0.576-0.085,1.055
	c0,0.363,0.056,1.318,0.168,2.865c0.112,1.6,0.169,2.779,0.169,3.539c0,2.049-0.31,3.199-0.928,3.451h-0.041
	c-0.337,0.197-1.587,0.801-3.749,1.813c-1.068,0.618-2.232,1.123-3.496,1.516c-0.197,0.17-0.267,0.492-0.211,0.971v0.125v0.632
	c0.758,0.394,4.605,2.851,11.541,7.372c1.742,0,3.624,0.043,5.646,0.128c3.004,0.112,4.563,0.167,4.676,0.167
	c0.196,0,0.38,0.057,0.548,0.169s0.295,0.253,0.379,0.421c0.898,1.883,2.135,4.592,3.706,8.131c0.928,2.049,1.391,3.16,1.391,3.328
	c1.91,0,4.55-0.027,7.92-0.084c0.225,0,0.437,0.068,0.633,0.209c0.505,0.311,0.729,0.859,0.674,1.643
	c0.026,0.256,0.141,0.676,0.337,1.266h1.685h0.211c0.7,0.141,1.293,0.21,1.769,0.21c0.506,0,0.969-0.013,1.39-0.042
	c0.058-0.027,0.127-0.043,0.211-0.043c0.76-0.111,1.362-0.322,1.812-0.631c0-0.029,0.016-0.043,0.043-0.043
	c0.982-1.094,1.965-2.135,2.949-3.116c0.392-0.421,2.008-1.854,4.844-4.296c0.449-0.449,0.673-1.082,0.673-1.896v-0.043
	c0.03-0.309,0.227-1.475,0.591-3.496c0.057-0.252,0.184-0.449,0.38-0.59c1.32-1.068,2.105-1.91,2.358-2.527
	c0.309-1.067,0.477-1.602,0.506-1.602c0-0.168,0.028-0.309,0.084-0.42c0.421-0.898,1.081-1.477,1.98-1.729
	c0.561-0.197,1.699-0.322,3.411-0.379c1.04-0.027,1.587,0.029,1.644,0.17c0.338-0.365,0.927-1.123,1.769-2.276
	c0.898-1.291,1.601-2.161,2.106-2.61h-0.042c0.337-0.563,2.865-0.9,7.583-1.013c0.252-0.084,0.477-0.337,0.674-0.757
	c0.309-1.066,0.52-1.727,0.632-1.98v-0.043c-0.028-0.281,1.938-1.248,5.897-2.906c1.769-0.758,3.454-1.559,5.056-2.402
	c-0.168-0.756-0.338-1.584-0.506-2.483c-0.168-0.759-0.561-1.825-1.18-3.202c-1.094-0.226-2.092-0.31-2.99-0.252h-0.043
	c-2.499,0.111-4.296,0.139-5.391,0.084c-0.281-0.029-0.507-0.154-0.676-0.379c-4.829-5.533-7.525-8.637-8.087-9.311
	c-0.169-0.224-0.366-0.449-0.59-0.674c-0.731,0.814-1.432,1.671-2.108,2.57c-1.431,1.936-2.667,3.678-3.706,5.223
	c-0.141,0.168-0.308,0.295-0.505,0.379c-0.589,0.197-1.081,0.49-1.475,0.885l-0.043,0.043c-0.14,0.111-0.842,0.954-2.106,2.527
	c-2.077,2.443-3.173,3.791-3.285,4.044c-0.027,0.253-0.126,0.478-0.295,0.675c-0.169,0.168-0.379,0.266-0.633,0.293
	c-2.301,0.17-3.705,0.254-4.212,0.254c-0.392,0-0.673-0.084-0.842-0.254c-0.057-0.027-0.099-0.07-0.125-0.125l-0.044-0.043
	c-0.225-0.197-0.337-0.436-0.337-0.717c0-0.504-0.211-1.037-0.632-1.6c-0.336-0.449-0.673-0.703-1.01-0.76
	c-0.113,0.057-0.311,0.211-0.591,0.465c-0.421,0.365-0.729,0.744-0.927,1.139c-0.113,0.224-0.253,0.393-0.421,0.504
	c-0.196,0.111-0.422,0.154-0.675,0.127c-1.067-0.168-1.643-0.254-1.728-0.254h-0.082c-0.956-0.084-1.644-0.125-2.066-0.125
	c-0.169,0-0.337-0.043-0.505-0.127c-0.141-0.084-0.266-0.209-0.379-0.379c-1.376-2.303-2.105-3.553-2.19-3.748
	c-0.027-0.059-0.056-0.115-0.085-0.17c-0.083-0.393-0.168-0.66-0.252-0.801l-0.042-0.041c-0.252-0.141-0.829-0.211-1.728-0.211
	c-0.225,0-0.828,0.057-1.812,0.168c-1.123,0.112-1.74,0.168-1.854,0.168c-0.394,0.17-1.46-0.855-3.2-3.076
	c-1.715-2.162-2.529-3.551-2.444-4.17c0-1.178-0.016-1.979-0.042-2.4c-1.77-0.197-3.412-0.898-4.931-2.104V88.95
	c-3.565-2.864-6.304-5.209-8.213-7.035h-0.042c-1.91-1.74-3.37-3.104-4.382-4.086v-0.043c-0.738-0.709-1.389-1.352-1.941-1.9
	c-0.504,0.602-1.167,1.248-2.018,1.943c-1.432,1.207-2.669,2.205-3.708,2.99c-0.532-0.016-1.033-0.057-1.519-0.104
	c-0.015,0.207-0.028,0.387-0.039,0.441C199.419,81.776,199.208,82.434,199.012,83.137z"/>
<path id="Dongdaemun" fill="#41A5F1" d="M244.508,150.075c0.478,0.113,1.024,0.252,1.643,0.422
	c2.389,0.617,3.624,0.939,3.708,0.969c0-0.057,1.376-0.59,4.129-1.602c3.173-1.15,5.039-1.713,5.603-1.684
	c0.842-0.029,2.625,0.674,5.351,2.105c2.162,1.15,3.551,1.953,4.169,2.4v0.043c1.097,0.871,1.896,1.391,2.401,1.559h-0.04
	c0.7,0.254,1.192,0.717,1.473,1.391v-0.043c0.112,0.254,0.268,0.689,0.464,1.305c0.505,0.984,4.114,2.148,10.826,3.498
	c1.629,0.309,3.693,0.814,6.193,1.518c1.88-4.355,2.99-8.344,3.326-11.965c0.141-1.545,0.127-3.006-0.042-4.381
	c-0.505-4.832-1.418-8.131-2.737-9.9c-2.05-2.725-3.454-4.646-4.213-5.771c-1.349-2.051-1.993-3.482-1.938-4.295
	c-0.028-1.434,0.73-3.723,2.275-6.867c1.349-2.781,2.036-4.775,2.064-5.982c0-0.674-0.168-1.951-0.505-3.832
	c-1.489,0.756-3.035,1.486-4.635,2.188c-3.089,1.291-4.691,1.882-4.803,1.771c-0.085,0.252-0.28,0.883-0.589,1.895
	c0,0.029-0.016,0.07-0.043,0.126c-0.617,1.376-1.461,2.052-2.529,2.022c-3.789,0.084-5.84,0.209-6.148,0.379v0.043
	c-0.448,0.422-1.082,1.221-1.895,2.402c-0.929,1.262-1.589,2.092-1.98,2.485c-0.057,0.224-1.054,0.364-2.992,0.419
	c-1.46,0.086-2.428,0.184-2.906,0.297c-0.337,0.084-0.562,0.295-0.673,0.631c-0.113,0.336-0.28,0.926-0.507,1.768
	c-0.224,0.871-1.151,1.969-2.779,3.287c-0.281,1.658-0.436,2.611-0.464,2.865c-0.028,1.432-0.493,2.541-1.391,3.329
	c-2.779,2.386-4.353,3.774-4.718,4.169v0.043c-1.012,0.982-2.036,2.049-3.074,3.201c-0.029,0.055-0.057,0.098-0.085,0.125
	c-0.562,0.422-1.278,0.732-2.149,0.929c-0.027,0.843-0.041,1.784-0.041,2.821c0,1.066,0.07,2.332,0.209,3.793
	C244.465,150.004,244.479,150.047,244.508,150.075z"/>
<path id="Gangnam" fill="#7C97CE" d="M336.469,268.028c-1.882-1.938-3.272-3.764-4.169-5.477
	c-0.927-1.656-1.532-2.822-1.813-3.498v-0.041c-0.253-0.59-0.463-1.023-0.632-1.305l0.042,0.041
	c-0.196-0.308-0.437-0.66-0.716-1.053c-0.365-0.449-1.153-1.391-2.359-2.822c-1.15-1.377-1.811-2.135-1.98-2.275l-0.041-0.043
	c-0.366-0.252-0.647-0.604-0.843-1.051c-0.113-0.311-0.421-1.18-0.926-2.613v0.043c-0.142-0.365-0.436-0.814-0.887-1.348v0.041
	c-0.168-0.195-0.632-0.688-1.389-1.475c-0.056-0.027-0.085-0.057-0.085-0.084c-1.46-1.77-2.599-2.949-3.412-3.539v0.043
	c-0.479-0.309-1.208-1.096-2.19-2.359c-0.365-0.111-0.941-0.225-1.728-0.336c-1.207-0.197-2.725-0.549-4.548-1.053
	c-1.799-0.535-3.385-1.012-4.761-1.434c-1.63-0.534-2.571-0.969-2.823-1.305h0.042c-0.226-0.227-0.604-0.564-1.138-1.012
	c-0.589-0.533-1.18-1.068-1.769-1.602c-0.421-0.365-1.151-0.617-2.19-0.758c-0.928-0.17-1.994-0.252-3.202-0.252
	c-4.015-0.027-6.263-0.914-6.74-2.654c-0.195-0.506-0.295-1.391-0.295-2.654c0-1.207-0.043-2.135-0.127-2.779
	c-0.421-2.473-0.785-5.295-1.094-8.469v-0.043c-0.14-1.594-0.291-3.334-0.438-4.961l-13.043-10.16
	c-6.374-1.574-12.735-3.512-19.082-5.814c-2.275-0.197-4.55,0.352-6.826,1.643l-8.972,8.701c0.552,0.762,1.25,1.736,1.684,2.336
	c0.028,0.029,0.058,0.07,0.086,0.127c0.336,0.645,0.828,1.446,1.475,2.4c0,0.057,0.014,0.1,0.04,0.127
	c0.535,1.039,0.801,2.261,0.801,3.664c0,0.646-0.153,2.893-0.462,6.742c0.056,0.363,0.364,1.051,0.926,2.063
	c0.479,0.873,1.518,2.626,3.119,5.268c1.432,2.328,2.905,5.531,4.422,9.604c0.646,1.826,1.405,4.113,2.274,6.865
	c0.338,1.097,0.633,2.051,0.885,2.865c0.675,1.797,2.036,2.727,4.086,2.779l4.172-0.125c1.011,0,1.615,0.422,1.811,1.264
	c0.141,0.449,0.379,0.856,0.717,1.221l0.041,0.043c0.142,0.141,0.394,0.52,0.76,1.139c0.279,0.449,0.575,0.842,0.885,1.178h0.041
	c0.563,0.646,1.222,1.531,1.979,2.654h0.043c0.676,1.096,1.629,2.373,2.865,3.834c1.011,1.18,1.487,2.094,1.433,2.738
	c0.027,0.365-0.155,1.053-0.548,2.063c-0.28,0.646-0.436,1.139-0.463,1.477c0.083,0.364,0.378,0.799,0.884,1.305
	c0.45,0.42,0.954,1.012,1.518,1.77v0.043c0.027,0.027,0.041,0.055,0.041,0.084c0.112-0.113,0.366-0.311,0.759-0.59
	c0.983-0.674,2.121-1.012,3.412-1.012c0.084,0,0.154,0.015,0.21,0.043l3.245,0.631l2.232-0.969l0.041-0.043
	c2.162-0.783,4.059-1.193,5.688-1.221c0.337-0.057,0.716-0.281,1.138-0.674c1.487-1.516,2.977-2.893,4.466-4.127
	c0.168-0.17,0.379-0.254,0.632-0.254h0.041c0.028-0.027,0.057-0.027,0.085,0c2.275-0.31,3.566-0.492,3.875-0.547
	c0.027-0.057,0.071-0.1,0.127-0.127c0-0.029,0.014-0.043,0.042-0.043c0.197-0.309,0.506-0.561,0.927-0.759l1.053-0.589
	c0.169-0.084,0.339-0.127,0.506-0.127c1.152-0.027,2.4,0.381,3.749,1.223c0.141,0.113,0.253,0.238,0.337,0.381
	c0.083,0.166,0.126,0.334,0.126,0.504c0.028,0.084-0.141,0.73-0.504,1.938c-0.254,0.871-0.394,1.459-0.423,1.77
	c0.113,0.533,1.587,2.682,4.423,6.445c0.913,1.206,2.972,3.633,4.903,5.736c0.898-0.527,1.742-1.002,2.513-1.398
	c0.784,0.029,2.021,0.113,3.706,0.254c2.893,0.168,5.743,0.336,8.552,0.504c0.17,0.254,0.38,0.578,0.632,0.971
	c0.618,0.869,1.096,1.615,1.434,2.232c0.252-0.027,0.545-0.057,0.884-0.084c0.477-0.027,0.899-0.072,1.265-0.127
	c0.279-1.375,0.546-2.527,0.8-3.455c0.646-0.619,1.656-1.656,3.033-3.117c0.782-0.861,1.692-1.912,2.718-3.133
	C337.771,269.348,336.938,268.516,336.469,268.028z"/>
<path id="Songpa" fill="#A2B6DD" d="M351.888,212.547c-0.843,0.029-1.868-0.406-3.075-1.307c-1.264-0.926-2.051-1.459-2.36-1.6
	c-1.065-0.506-2.527-1.291-4.379-2.359c-1.63-0.955-2.936-1.74-3.92-2.359c-0.896-0.59-2.33-1.291-4.297-2.105v-0.043
	c-1.012-0.365-1.516-1.335-1.516-2.906c0-1.713,0.212-3.088,0.632-4.129v-0.041c0.394-1.039,0.757-2.094,1.095-3.16
	c0.169-1.066,0.098-2.035-0.211-2.906c-0.476-0.309-1.052-0.688-1.726-1.137c-0.745-0.533-2.089-1.213-3.178-1.791
	c-1.827,3.518-3.674,6.854-5.543,9.963c-3.033,8.061-10.013,13.072-20.937,15.039c-6.428,1.031-11.745,0.877-15.979-0.433
	c0.084,1.038,0.158,2.425,0.225,3.421c0.309,3.146,0.673,5.913,1.096,8.301v0.043c0.112,0.758,0.153,1.797,0.125,3.117v0.043
	c0,0.896,0.058,1.529,0.17,1.893c0.448,0.846,2.063,1.281,4.844,1.308c1.32,0,2.513,0.099,3.581,0.294
	c1.544,0.254,2.611,0.676,3.202,1.266c0.589,0.533,1.164,1.053,1.726,1.557c0.59,0.506,1.012,0.914,1.264,1.223
	c0.197,0.113,0.844,0.352,1.939,0.717c1.348,0.42,2.92,0.885,4.717,1.389c1.714,0.479,3.146,0.814,4.296,1.012
	c1.237,0.197,2.011,0.35,2.318,0.465c0.197,0.084,0.352,0.209,0.464,0.379c0.898,1.15,1.544,1.866,1.938,2.148
	c0.956,0.617,2.246,1.922,3.876,3.918c0.759,0.785,1.222,1.277,1.389,1.473c0.702,0.786,1.139,1.461,1.308,2.021
	c0.448,1.35,0.729,2.15,0.842,2.402c0.029,0.112,0.098,0.211,0.21,0.295c0.226,0.141,1.012,1.012,2.359,2.611
	c1.237,1.488,2.023,2.443,2.359,2.865h0.041c0.34,0.449,0.618,0.855,0.844,1.221c0.197,0.309,0.449,0.844,0.758,1.602
	c0.253,0.619,0.813,1.728,1.685,3.328c0.872,1.543,2.164,3.215,3.876,5.014c0.423,0.455,1.198,1.24,1.865,1.886
	c0.664-0.108,1.474-0.22,2.432-0.329c0.506,0.252,1.222,0.576,2.148,0.971c0.592,0.252,1.108,0.463,1.56,0.631
	c0.252-0.309,0.645-0.729,1.179-1.264c0.253-0.28,0.505-0.547,0.759-0.8c-0.254-0.31-0.603-0.772-1.053-1.392
	c-0.873-1.262-1.561-2.217-2.064-2.863c0.308-0.449,0.688-0.955,1.137-1.518c0.422-0.59,0.801-1.096,1.138-1.516
	c1.011,0.168,2.332,0.477,3.96,0.926c1.657,0.422,2.906,0.703,3.749,0.844c0.477-0.422,1.124-1.082,1.938-1.98
	c0.898-1.066,2.486-2.443,4.761-4.129c0-0.477-0.056-1.178-0.169-2.105c0.928-0.955,1.967-2.107,3.117-3.453
	c2.275-2.613,4.479-4.902,6.614-6.869c0.141-0.783,0.224-1.432,0.254-1.936c0.11-1.545,0.196-2.627,0.251-3.244
	c0.03-0.365,0.057-0.703,0.085-1.012c0.055-0.057,0.238-0.352,0.547-0.883c0.31-0.535,0.688-1.139,1.139-1.813
	c-0.618-1.377-1.433-3.482-2.444-6.318c-0.364,1.01-0.589,1.572-0.674,1.684c-0.056,0.084-0.463,0.168-1.222,0.254
	c-0.814,0.084-1.319,0.182-1.517,0.295h-0.295v-0.338c0.113-0.252,0.099-0.619-0.041-1.096c-0.168-0.701-0.253-1.32-0.253-1.854
	l0.042-0.715c-0.87-0.084-1.615-0.154-2.232-0.211c-0.506,0.363-1.067,0.785-1.686,1.264l-1.686,1.389
	c-0.759-0.281-1.586-0.615-2.485-1.012c-1.571-0.672-2.78-1.162-3.623-1.473c-0.253-1.207-0.589-2.443-1.012-3.707
	c-0.196-0.617-0.363-1.152-0.504-1.602c0.336-1.037,0.687-2.176,1.053-3.411c0.575-1.698,1.327-3.056,2.25-4.087
	c-1.857-0.555-4.267-1.277-5.03-1.264H351.888z"/>
<path id="Gangdong" fill="#A2B6DD" d="M391.359,155.256l-5.265-13.186c-1.573-1.32-3.244-1.418-5.016-0.295
	c-2.862,2.443-6.163,4.887-9.897,7.331c-4.662,3.005-8.215,4.802-10.659,5.392c-1.517,0.337-3.061,0.533-4.633,0.588
	c-7.077,0.592-12.343,2.937-15.797,7.037c-3.293,8.254-6.659,15.771-10.098,22.568c1.166,0.739,2.538,1.598,3.314,2.16
	c0.758,0.504,1.391,0.926,1.896,1.264c0.168,0.111,0.296,0.264,0.38,0.463c0.59,1.264,0.758,2.736,0.505,4.424
	c-0.028,0.055-0.041,0.113-0.041,0.168c-0.365,1.096-0.76,2.189-1.181,3.285c-0.337,0.871-0.505,2.008-0.505,3.412
	c0,0.533,0.113,0.887,0.337,1.053c2.077,0.871,3.594,1.629,4.55,2.275c0.955,0.618,2.231,1.391,3.834,2.316
	c1.797,1.041,3.2,1.799,4.211,2.273v0.043c0.395,0.113,1.293,0.703,2.697,1.77c0.757,0.535,1.389,0.83,1.896,0.885
	c1.132-0.021,3.489,0.564,5.52,1.189c0.161-0.707,0.315-1.104,0.461-1.189c0.057-0.055,0.465-0.252,1.223-0.588
	c0.758-0.367,1.193-0.676,1.306-0.928c0.169-0.395,0.267-0.984,0.295-1.77v-1.475c0-0.982,0.407-2.021,1.22-3.117
	c0.79-1.066,1.8-1.953,3.035-2.654c0.701-0.393,1.18-1.32,1.433-2.779c0.057-0.422,0.153-0.703,0.295-0.842
	c0.28-0.508,0.576-0.871,0.886-1.096c0.336-0.281,0.659-0.787,0.969-1.518c0.363-0.871,0.785-1.629,1.263-2.273
	c0.252-0.311,0.379-0.773,0.379-1.393c0-1.432,0.015-2.33,0.041-2.695c0.142-1.291,0.506-2.121,1.097-2.484
	c0.505-0.338,0.828-0.563,0.968-0.674c0.338-0.311,0.688-0.76,1.053-1.35c0.03-0.055,0.086-0.139,0.17-0.252
	c0.702-0.814,1.586-1.264,2.653-1.348c0.085,0,0.183,0.014,0.296,0.041c0.281,0.029,1.094,0.014,2.443-0.041h0.252
	c0.084-0.057,0.17-0.099,0.253-0.129c0.536-0.222,1.392-0.336,2.57-0.336c0.309,0,1.628,0.098,3.958,0.295h0.802
	c0.057-0.252,0.17-0.52,0.338-0.801c0.252-0.391,0.574-0.659,0.968-0.799c0.76-0.281,1.376-0.422,1.854-0.422
	c0.28,0,0.449,0.043,0.505,0.129c0.365,0.025,0.813,0.152,1.349,0.377c0.168,0.056,0.363,0.113,0.59,0.168
	c0.167-0.365,0.378-0.771,0.632-1.221c0.589-1.152,1.054-2.021,1.39-2.612c0.028-0.028,0.041-0.071,0.041-0.125
	C392.876,169.454,391.864,162.614,391.359,155.256z"/>
<path id="Jongno" fill="#66D3C6" d="M194.251,81.79l-0.041,0.041c-0.224,0.113-0.562,0.393-1.012,0.842l-0.041,0.043
	c-0.591,0.533-1.054,0.855-1.392,0.969c-0.056,0-0.112,0.014-0.168,0.041c-2.05,0.311-3.566,0.563-4.548,0.76
	c-1.209,0.196-1.91,0.408-2.107,0.633c-0.703,1.908-1.558,3.074-2.568,3.496h-0.043c-0.394,0.195-1.503,0.35-3.329,0.463
	c-0.56,0.027-0.968,0.068-1.221,0.125l-0.043,0.043c-0.168,0.057-0.28,0.154-0.337,0.295c0,0.281-0.167,0.801-0.506,1.559
	c-0.168,0.338-0.267,0.549-0.294,0.633c0,0.055,0.28,1.234,0.842,3.539c0.591,2.582,0.886,4.38,0.886,5.391
	c0,0.196-0.155,1.53-0.464,4.002v0.043c-0.056,0.42-0.407,1.012-1.053,1.768c-0.114,0.141-0.238,0.268-0.38,0.379
	c0.086,0.113,0.183,0.212,0.295,0.297v0.041c0.449,0.479,0.939,0.984,1.474,1.518c0.029,0.027,0.058,0.055,0.085,0.084
	c0.646,0.869,0.969,1.865,0.969,2.99c0,0.059-0.057,0.492-0.169,1.307v0.041c-0.111,0.563-0.168,1.025-0.168,1.391v0.043
	c0,0.393-0.099,1.18-0.295,2.357c0,0.029,0.014,0.057,0.043,0.086c0.223,0.113,0.66,0.309,1.304,0.59
	c1.265,0.533,2.487,1.418,3.667,2.652c0.168,0.197,0.252,0.451,0.252,0.76l-0.043,2.738c0,3.426-0.069,6.164-0.209,8.215
	c-0.084,1.262-0.252,3.074-0.507,5.434c0,0.645-0.828,1.826-2.485,3.539v0.041c-1.095,1.125-1.713,1.729-1.853,1.813
	c0.057,0.084,0.155,0.168,0.294,0.252c0.31,0.168,0.914,0.436,1.813,0.801v0.041c0.476,0.17,1.039,0.619,1.685,1.35
	c0.338,0.363,1.024,1.164,2.063,2.4v-0.043c0.339,0.422,2.528,3.301,6.573,8.637c0.111-0.14,0.238-0.294,0.378-0.463v-0.043
	c2.36-2.92,4.423-4.34,6.191-4.254c0.564-0.029,1.335,0.125,2.318,0.463c0.702,0.197,1.25,0.311,1.644,0.336
	c0.195,0,0.857-0.055,1.979-0.166c1.207-0.113,2.247-0.17,3.118-0.17c1.459,0,3.032,0.127,4.718,0.379
	c1.572,0.197,2.514,0.297,2.821,0.297c0.872,0,1.994-0.213,3.371-0.633c1.629-0.535,2.653-0.787,3.073-0.76
	c0.169,0,1.139,0.086,2.907,0.254c1.658,0.141,3.216,0.211,4.677,0.211c1.012,0,2.766-0.352,5.266-1.055
	c2.725-0.758,5.196-1.137,7.414-1.137c0.281,0,0.717,0.057,1.307,0.17c-0.113-1.35-0.169-2.514-0.169-3.498
	c0-0.955,0.015-1.811,0.042-2.568h-0.548c-0.589,0-1.292-0.086-2.107-0.253h-2.273c-0.226,0-0.421-0.058-0.591-0.169
	c-0.168-0.141-0.294-0.31-0.378-0.506c-0.422-1.095-0.646-1.896-0.674-2.4c-3.033,0.055-5.436,0.068-7.204,0.043
	c-0.729,0.166-1.826-1.336-3.286-4.51c-1.404-3.201-2.527-5.701-3.369-7.498c-0.76-0.055-2.135-0.111-4.128-0.168
	c-2.051-0.084-3.96-0.141-5.73-0.17h-0.167c-0.197,0-0.379-0.041-0.548-0.125c-7.33-4.803-11.066-7.246-11.206-7.33
	c-0.028,0-0.058-0.014-0.084-0.042h-0.379c-0.281,0-0.505-0.101-0.674-0.294c-0.226-0.197-0.337-0.438-0.337-0.719v-1.516
	c-0.17-1.516,0.294-2.484,1.39-2.906c0.056-0.057,0.099-0.085,0.126-0.085c1.151-0.337,2.205-0.8,3.16-1.39
	c0.056-0.028,0.098-0.043,0.126-0.043c2.051-0.953,3.258-1.529,3.623-1.727c-0.028-0.168-0.043-0.744-0.043-1.725
	c0-0.732-0.057-1.855-0.169-3.373c-0.11-1.656-0.168-2.668-0.168-3.031c0-0.758,0.085-1.336,0.252-1.729l-1.768-2.189
	c-1.657-2.078-2.429-3.217-2.316-3.414c0-0.365,0.068-0.926,0.209-1.684c0.084-0.646,0.127-1.32,0.127-2.021
	c-0.057-1.068-0.787-2.57-2.191-4.51c-1.432-1.938-2.611-3.115-3.537-3.537c-0.253-0.084-0.45-0.254-0.591-0.506
	c-0.111-0.254-0.125-0.506-0.042-0.757c0.31-0.956,0.604-1.884,0.886-2.78l0.041-0.111c-0.597-0.133-1.145-0.301-1.646-0.494
	C195.347,80.729,194.562,81.569,194.251,81.79z"/>
<path id="Dobong" fill="#4EC2F5" d="M229.977,20.622c-0.282,0.617-0.437,1.25-0.465,1.896c0.113,0.561,1.444,2.176,4.001,4.844
	v0.043c3.118,3.537,4.647,5.952,4.593,7.244c0,1.826-0.31,3.75-0.927,5.771c-0.563,1.881-0.899,5.799-1.012,11.754
	c-0.055,2.416-0.041,4.83,0.042,7.244c0.563,0.057,1.195,0.141,1.896,0.254c2.977,0.393,4.718,0.787,5.223,1.178v-0.041
	c0.112,0.057,0.858,0.703,2.233,1.938c1.235,1.123,2.064,1.883,2.486,2.276c1.178,1.151,2.863,3.13,5.054,5.938
	c2.331,2.977,3.651,4.9,3.962,5.771v0.043c0.083-0.057,0.631,0.293,1.641,1.053c1.123,0.842,2.063,1.572,2.823,2.189
	c0.281-0.393,0.505-0.729,0.674-1.01c0.478-0.787,1.025-2.064,1.643-3.834c0.479-1.518,0.744-2.273,0.801-2.273
	c0-0.143,0.015-0.268,0.042-0.381c0.112-0.252,0.267-0.814,0.465-1.685c0.167-0.786,0.28-1.362,0.335-1.728
	c-0.027-0.254,0.492-0.955,1.56-2.105c1.01-1.041,1.657-1.602,1.938-1.686c0.168-0.084,0.364-0.111,0.591-0.084
	c0.225,0.057,0.405,0.154,0.547,0.295c0.338,0.311,0.729,0.969,1.18,1.98v0.041c0.196,0.504,0.393,1.053,0.59,1.645
	c0.758-0.703,1.417-1.307,1.979-1.813c-0.112-1.656-0.575-3.917-1.391-6.783v0.043c-1.094-3.397-1.755-5.575-1.98-6.531
	c-0.224-0.813-0.52-2.203-0.884-4.168c-0.308-1.629-0.632-2.992-0.968-4.088v0.044c-0.507-1.575-1.124-3.048-1.854-4.425
	c-0.703-1.348-1.026-2.232-0.971-2.652v-0.168c0.31-1.604,0.464-3.005,0.464-4.215c0-0.252-0.07-0.757-0.212-1.516
	c-0.168-0.926-0.252-1.783-0.252-2.57c0-1.263,0.24-2.288,0.717-3.074c0.675-1.125,1.349-2.781,2.021-4.972h-0.041
	c0.069-0.261,1.023-3.601,2.079-7.476c-0.134-0.186-0.259-0.389-0.395-0.57c-1.067-1.516-1.896-2.936-2.486-4.254
	c-0.055-0.084-0.098-0.168-0.124-0.252l-3.287,0.42c-0.225-0.589-0.394-1.123-0.506-1.6c-0.083-0.309-0.169-0.48-0.254-0.506
	c-0.646-0.367-1.108-0.604-1.389-0.717c-0.197-0.084-0.436-0.127-0.717-0.127c-0.083,0-0.309,0.154-0.673,0.465
	c-0.618,0.561-1.349,1.137-2.19,1.727c-0.872,0.617-2.219,1.25-4.045,1.895c-0.871,0.281-1.727,0.549-2.57,0.803
	c-0.813-3.961-2.681-7.178-5.603-9.648c-0.897,0.058-1.754,0.127-2.569,0.211c-2.472,0.252-4.943,0.59-7.414,1.01
	c-2.274,0.506-4.381,2.191-6.318,5.055c-0.591,0.816-1.11,1.574-1.56,2.277c0.196,1.207,0.423,2.863,0.676,4.969
	c0.021,0.234,0.046,0.445,0.068,0.67C229.865,18.942,230.208,20.293,229.977,20.622z"/>
<path id="Gwanak" fill="#6D78C6" d="M209.84,277.506c0.111-1.797,0.167-2.752,0.167-2.865c-0.056-0.73-1.306-2.836-3.75-6.32
	c-2.387-3.396-3.747-6.078-4.085-8.043c-0.955,0.139-2.444,0.293-4.467,0.461h-0.083c-1.909,0-3.229-0.153-3.961-0.461
	c-0.925-0.311-1.824-1.025-2.695-2.148c-0.393-0.563-1.067-1.336-2.021-2.318c-0.927-0.926-1.614-1.77-2.064-2.527h-0.042
	c-0.421-0.701-0.8-1.91-1.139-3.623v0.041c-0.168-0.729-0.405-2.203-0.714-4.422c-0.029-0.029-0.043-0.057-0.043-0.084
	c-0.141-2.133-0.268-3.441-0.381-3.918v0.041c-0.224-0.279-0.813-0.421-1.768-0.421c-0.14,0.085-0.42,0.353-0.842,0.802
	c-0.338,0.363-0.675,0.73-1.012,1.094c-0.085,0.086-0.197,0.156-0.339,0.211c-0.111,0.084-0.252,0.127-0.42,0.127
	c-0.28,0.029-1.461-0.395-3.539-1.266c-1.629-0.672-2.513-1.037-2.652-1.093c-0.17,0.056-1.784,0.575-4.844,1.558
	c-3.568,1.123-5.562,1.615-5.983,1.475c-0.477-0.084-1.125-0.309-1.938-0.674c-0.563-0.252-0.983-0.463-1.264-0.633
	c-0.196-0.027-0.395-0.041-0.591-0.041c-1.544,0-2.514-0.211-2.905-0.633l-0.043-0.043c-0.196-0.223-0.576-0.756-1.138-1.6v0.043
	c-0.169-0.168-0.393-0.254-0.674-0.254c-0.027,0.086-0.097,0.406-0.211,0.969c-0.422,1.854-0.729,2.951-0.927,3.285
	c-0.337,0.871-1.475,1.35-3.411,1.432c-2.247,0.115-3.512,0.199-3.792,0.256c-0.703,0.11-1.825,0.574-3.371,1.389
	c-1.88,0.955-3.145,1.531-3.791,1.729h-0.041c-2.164,0.561-3.948,0.969-5.351,1.221c-0.674,0.928-1.518,2.021-2.528,3.285h-0.041
	c-0.422,0.506-0.801,0.955-1.138,1.35c0.394-0.086,0.801-0.184,1.222-0.295c1.404-0.367,2.471-0.619,3.201-0.76
	c0.168-0.057,0.323-0.057,0.464,0c0.14,0.057,0.281,0.127,0.422,0.211c0.954,0.928,2.12,2.064,3.497,3.412
	c2.132,2.135,3.131,3.369,2.99,3.707c0.141,0.563-0.618,1.446-2.276,2.654c-0.842,0.563-1.318,0.773-1.431,0.633
	c0.056,0.111,0.969,1.699,2.737,4.76v0.084c1.771,3.762,2.752,7.399,2.948,10.91c0.787,0.027,1.671,0.057,2.654,0.084
	c2.08,0.028,3.342,0.379,3.792,1.055c1.488,1.854,2.808,3.707,3.959,5.561c1.395,2.285,2.136,3.975,2.229,5.07
	c0.322,0.447,0.566,0.865,0.72,1.248c0.252,0.563,0.408,1.193,0.463,1.895c0.141,0.057,0.295,0.127,0.464,0.213
	c1.04,0.477,1.881,0.982,2.529,1.514c1.516,1.263,2.541,2.347,3.073,3.246c0.395,0.674,0.787,1.813,1.181,3.412
	c0.14,0.533,0.28,1.123,0.422,1.768c1.936,0.59,2.935,0.887,2.99,0.887c0.898-0.563,1.798-1.125,2.695-1.688
	c1.826-1.121,3.034-1.684,3.624-1.684c0.393,0,0.842,0.225,1.346,0.674c0.507,0.449,0.816,0.674,0.929,0.674
	c0.084,0,0.421-0.113,1.011-0.336c0.844-0.311,1.671-0.592,2.484-0.844c0.421-0.139,0.984-0.295,1.686-0.463
	c0.367-0.084,0.591-0.184,0.675-0.295c0.364-0.59,0.785-0.955,1.264-1.096c0.532-0.197,1.741-0.336,3.623-0.42
	c0.197-0.029,0.336-0.17,0.421-0.422c0.112-0.563,0.268-1.109,0.464-1.643c0.251-0.787,0.575-1.46,0.968-2.023
	c0.477-0.756,1.391-1.318,2.739-1.686c0.617-0.141,1.319-0.266,2.105-0.377c0.337-0.311,0.703-0.646,1.096-1.012
	c1.966-1.657,3.216-2.754,3.749-3.287c0.308-0.279,0.927-0.826,1.854-1.643c0.954-0.842,1.713-1.557,2.275-2.146
	c1.011-0.928,1.585-1.461,1.726-1.602c0.03-0.057,0.043-0.424,0.043-1.096l-0.043-1.264c0.142,0,0.423-0.057,0.843-0.168
	l2.149,0.168c0.359,0,0.938-0.223,1.725-0.65c-0.025-0.135-0.04-0.268-0.04-0.402C209.67,280.665,209.726,279.36,209.84,277.506z"/>
<path id="Jung" fill="#66D3C6" d="M187.091,165.409v0.168c0.365,0.479,0.575,0.855,0.631,1.139c0,0.028,0.015,0.041,0.043,0.041
	c0.337,1.18,0.505,1.98,0.505,2.402v0.506c2.668-1.012,4.156-1.545,4.467-1.602c0.225-0.057,0.449-0.029,0.673,0.085
	c0.196,0.083,0.352,0.224,0.464,0.421c0.253,0.475,0.407,1.107,0.464,1.895c0.561-0.027,1.066-0.225,1.517-0.588
	c0.843-0.76,1.84-1.139,2.991-1.139c0.868-0.055,1.685,0.449,2.443,1.518h0.041c0.28,0.365,0.492,0.59,0.631,0.674
	c0.311,0,0.618-0.114,0.929-0.338v-0.043c0.701-0.504,1.529-0.758,2.484-0.758c0.646-0.057,1.771,0.338,3.37,1.18
	c0.786,0.422,2.079,1.166,3.876,2.232l-0.085-0.041c0.31,0.168,1.166,0.785,2.57,1.854c0.954,0.729,1.572,1.121,1.854,1.178
	c0.42-0.057,0.955-0.336,1.6-0.842c1.068-1.066,1.699-1.531,1.896-1.39c1.463,0,2.866,0.21,4.214,0.632h-0.042
	c1.824,0.561,2.654,1.222,2.484,1.98v0.168l-0.462,2.907c0.085,0.394,0.421,0.646,1.01,0.759h0.044
	c0.083,0.027,0.167,0.055,0.251,0.082c0.226,0.029,0.479,0.057,0.76,0.086c1.6-3.063,2.416-4.607,2.443-4.636l0.041-0.041
	c0.254-0.507,0.772-1.125,1.559-1.854c0.646-0.701,1.236-1.205,1.769-1.516c0.226-0.195,0.381-0.479,0.464-0.844
	c0.169-1.234,0.309-1.992,0.422-2.273h0.043c0.224-0.701,0.771-1.561,1.643-2.57c0.646-0.73,1.024-1.207,1.137-1.432v-0.043
	c0.253-0.785,1.097-1.348,2.528-1.684c0.869-0.197,1.361-0.309,1.474-0.338c0.029-0.141,0.126-0.533,0.295-1.18
	c0.252-1.066,0.394-1.686,0.422-1.852v-0.043c0.056-0.395,0.49-1.025,1.306-1.896h0.041c0.311-0.365,0.52-0.504,0.632-0.422
	c-0.056-0.336-0.321-0.826-0.8-1.473c-0.842-1.182-1.276-2.051-1.306-2.613c-0.084-0.785-0.154-1.486-0.212-2.105
	c-0.728-0.17-1.234-0.252-1.516-0.252c-2.049,0-4.34,0.365-6.866,1.096c-2.753,0.756-4.689,1.137-5.813,1.137
	c-1.488,0-3.104-0.086-4.845-0.254c-1.655-0.141-2.57-0.211-2.739-0.211c-0.336,0-1.164,0.211-2.483,0.633
	c-1.629,0.506-2.948,0.758-3.961,0.758c-0.364,0-1.404-0.125-3.116-0.379c-1.573-0.225-3.047-0.338-4.423-0.338
	c-0.844,0-1.813,0.057-2.907,0.17c-1.236,0.111-1.966,0.168-2.19,0.168c-0.562,0.027-1.322-0.113-2.276-0.422
	c-0.729-0.225-1.29-0.35-1.686-0.379c-1.263,0.084-2.792,1.264-4.591,3.539c-0.421,0.506-0.828,1.01-1.221,1.516l-0.043,0.044
	c-0.506,0.618-0.982,1.221-1.432,1.812h-0.041c-1.32,1.6-2.543,3.047-3.665,4.338C186.991,164.931,187.091,165.155,187.091,165.409z
	"/>
<path id="Gangbuk" fill="#4EC2F5" d="M210.301,76.311c0.983,1.012,2.444,2.375,4.383,4.087v0.042
	c1.882,1.797,4.577,4.113,8.088,6.951c1.235,0.982,2.584,1.529,4.044,1.643c0.813,0.086,1.334,0.533,1.559,1.348
	c0,0.029,0.014,0.057,0.042,0.084c0.058,0.365,0.084,1.377,0.084,3.033c0.084,0.365,0.759,1.336,2.022,2.906
	c1.095,1.404,1.63,2.164,1.601,2.276c0.113,0,0.646-0.056,1.601-0.169c1.097-0.112,1.783-0.168,2.064-0.168
	c1.741,0,2.823,0.309,3.244,0.926c0.309,0.254,0.562,0.787,0.757,1.602c0.143,0.281,0.731,1.277,1.771,2.992
	c0.422,0,0.941,0.027,1.558,0.084h0.085c0.141,0.027,0.562,0.082,1.263,0.168c0.254-0.395,0.591-0.771,1.013-1.137h0.042
	c0.758-0.73,1.404-1.068,1.938-1.012c0.926-0.057,1.811,0.477,2.653,1.602c0.477,0.645,0.8,1.277,0.969,1.895
	c0.591-0.027,1.544-0.084,2.864-0.168c0.533-0.898,1.643-2.346,3.327-4.34c1.462-1.77,2.247-2.695,2.36-2.779l-0.042,0.084
	c0.505-0.535,1.149-0.941,1.938-1.223c1.012-1.516,2.191-3.201,3.538-5.055c0.729-0.955,1.488-1.881,2.274-2.781
	c-0.505-0.449-1.053-0.926-1.642-1.432c-0.758-0.617-1.602-1.559-2.527-2.822c-0.844-1.207-1.545-2.092-2.107-2.654l-0.085-0.041
	c-0.813-0.73-1.979-1.658-3.495-2.781c-1.629-1.234-2.416-1.924-2.36-2.064c-0.336-0.785-1.544-2.514-3.621-5.182
	c-2.107-2.695-3.722-4.592-4.845-5.688v-0.041c-0.449-0.395-1.277-1.137-2.485-2.232c-1.208-1.066-1.84-1.643-1.896-1.729
	c-0.448-0.223-1.938-0.504-4.466-0.842c-1.066-0.168-1.979-0.295-2.737-0.379c-0.252-0.057-0.449-0.168-0.59-0.336
	c-0.17-0.197-0.253-0.408-0.253-0.633c-0.141-2.725-0.184-5.463-0.126-8.215c0.14-6.233,0.52-10.334,1.138-12.301
	c0.533-1.826,0.8-3.553,0.8-5.182c-0.085-0.982-1.432-2.947-4.044-5.896h0.042c-3.23-3.344-4.746-5.463-4.55-6.363
	c0.027-0.869,0.239-1.74,0.632-2.609c0-0.023-0.112-0.221-0.27-0.482c-0.442,0.063-0.895,0.123-1.331,0.188
	c-1.012,0.168-1.995,0.351-2.949,0.547c-1.151,0.674-2.78,1.602-4.887,2.781c-1.741,1.01-3.271,1.852-4.591,2.527
	c0.083,0.393,0.183,0.87,0.294,1.433c0.226,1.571,0.337,3.271,0.337,5.097c0,3.566-0.224,6.15-0.673,7.752
	c-0.535,1.908-1.56,3.48-3.076,4.718c-0.421,0.813-1.179,1.823-2.274,3.032c-1.769,1.938-3.708,3.439-5.813,4.508
	c0.394,1.039,0.996,2.57,1.812,4.592c0.73,1.91,1.292,3.467,1.686,4.676c-0.029,0.057-0.057,0.126-0.085,0.21
	c-0.309,1.544-0.87,2.81-1.686,3.792v2.822c1.518,0,2.584,0.492,3.202,1.475c0.393,0.59,0.59,1.348,0.59,2.275
	c0,0.867-0.146,1.652-0.41,2.367c0.747,0.747,1.674,1.652,2.264,2.223H210.301z"/>
<path id="Seocho" fill="#7C97CE" d="M311.657,278.854c-2.332-2.416-4.088-4.408-5.267-5.982
	c-3.314-4.354-4.913-6.908-4.801-7.666c-0.029-0.422,0.141-1.207,0.504-2.359c0.112-0.365,0.197-0.646,0.253-0.842
	c-0.645-0.309-1.249-0.492-1.811-0.549l-0.758,0.463h-0.084c-0.085,0.057-0.156,0.113-0.213,0.17
	c-0.251,0.336-0.532,0.59-0.84,0.758h-0.044c-0.224,0.141-1.727,0.393-4.507,0.758c-1.349,1.152-2.71,2.416-4.085,3.791
	c-0.872,0.871-1.7,1.293-2.486,1.266c-1.433,0.055-3.118,0.436-5.056,1.137l0.042-0.043l-2.571,1.096
	c-0.167,0.084-0.362,0.111-0.588,0.084l-3.455-0.674c-0.813,0-1.53,0.225-2.148,0.674c-1.151,0.757-1.813,1.098-1.98,1.012
	c-0.561,0.086-1.122-0.281-1.684-1.096l0.042,0.043c-0.45-0.62-0.87-1.111-1.264-1.475c-1.039-1.014-1.531-1.953-1.474-2.822
	c-0.029-0.533,0.167-1.277,0.588-2.234c0.254-0.645,0.379-1.08,0.379-1.305c-0.056-0.281-0.363-0.76-0.926-1.432
	c-1.292-1.519-2.302-2.852-3.033-4.002c-0.646-1.012-1.235-1.797-1.77-2.359c-0.028,0-0.043-0.016-0.043-0.043
	c-0.42-0.422-0.8-0.928-1.137-1.516c-0.252-0.422-0.421-0.688-0.506-0.801h-0.041c-0.507-0.561-0.885-1.182-1.139-1.854
	l-4.001,0.127h-0.085c-3.032-0.113-5.027-1.504-5.98-4.17c-0.282-0.816-0.605-1.799-0.97-2.951
	c-0.814-2.725-1.558-4.971-2.233-6.738c-1.46-3.904-2.863-6.994-4.212-9.27c-1.628-2.668-2.682-4.451-3.159-5.35
	c-0.842-1.516-1.249-2.541-1.222-3.074v-0.086c0.337-3.762,0.505-5.967,0.505-6.613c0-1.01-0.183-1.895-0.547-2.653
	c-0.646-1.011-1.166-1.854-1.559-2.528c-0.36-0.498-0.962-1.348-1.443-2.033l-7.657,7.426c-0.196,0.197-0.35,0.393-0.461,0.59
	c-2.473,3.146-4.017,4.719-4.636,4.719l-1.643-0.168c-0.532,0-1.011,0.139-1.432,0.42c-0.506,0.309-1.334,1.025-2.485,2.148
	c-1.208,1.178-2.443,2.416-3.707,3.709c-0.338,0.363-0.633,0.672-0.886,0.926l-5.266,0.042h-0.632
	c-1.241,0.056-2.477,0.007-3.708-0.138c0.805,1.109,1.796,2.391,2.444,3.002c1.882,1.74,2.753,2.823,2.614,3.242
	c0,0.113-0.509,3.217-1.519,9.311c-1.012,6.096-1.517,9.648-1.517,10.658c0.028,0.168,0.099,0.506,0.211,1.012
	c0.027,0.057,0.041,0.141,0.041,0.252l-0.125,3.709c0,0.672-0.071,1.277-0.211,1.811c-0.085,0.281-0.128,0.561-0.128,0.842v0.084
	c0.03,1.713,1.294,4.324,3.793,7.836c2.836,4.072,4.211,6.572,4.13,7.498c0,0.113-0.058,1.109-0.171,2.992
	c-0.083,1.232-0.139,2.211-0.168,2.941c0.179-0.121,0.357-0.24,0.548-0.373c2.442-1.77,4.577-3.285,6.402-4.551
	c0.14-1.348,0.254-2.457,0.338-3.328c0.083-0.953,0.195-1.822,0.338-2.609c1.15,0.055,2.596,0.141,4.338,0.252
	c0.87,0.055,1.727,0.113,2.57,0.168c-0.058,0.395-0.1,0.816-0.128,1.266s-0.083,1.486-0.168,3.115
	c2.836,3.371,4.858,6.559,6.066,9.564l2.865,0.295c0.701-0.787,1.474-1.42,2.315-1.896c0.619-0.365,1.055-0.547,1.307-0.547
	c0.393,0,0.674,0.281,0.842,0.843c0.169,0.532,0.38,0.8,0.632,0.8l2.106-0.043c0.617-1.629,1.04-2.611,1.266-2.947
	c0.476-0.619,1.726-1.842,3.748-3.666c0.14-0.141,0.365-0.269,0.674-0.381c0.254-0.082,0.45-0.266,0.59-0.547
	c0.505-0.928,0.956-1.882,1.348-2.863c0.112-0.338,0.324-0.506,0.633-0.506c0.111,0,0.533,0.069,1.263,0.209
	c0.786,0.143,1.278,0.268,1.475,0.382c0.112,0.054,0.465,0.433,1.055,1.136c0.589,0.674,0.884,1.039,0.884,1.096l-0.421,1.475
	c-0.196,0.645-0.38,1.207-0.549,1.686c0.646,0.617,1.209,1.205,1.686,1.77c0.112,0.168,0.547,0.66,1.308,1.473
	c0.28,0.311,0.42,0.549,0.42,0.717c0,0.281-0.309,1.137-0.928,2.57c-0.056,0.168-0.168,0.393-0.336,0.674
	c-0.112,0.252-0.169,0.463-0.169,0.633c0,0.193,0.281,0.939,0.843,2.232c0.422,1.094,0.772,1.824,1.053,2.189l-0.758,1.854
	c0,0.141,0.281,0.605,0.843,1.389c0.56,0.787,0.843,1.377,0.843,1.771c0,0.982-0.436,1.938-1.307,2.863
	c-0.899,0.928-1.348,1.461-1.348,1.602c0,0.197,0.056,0.52,0.168,0.969c0.112,0.477,0.168,0.813,0.168,1.012
	c0.534-0.029,1.11,0.084,1.728,0.336c0.591,0.227,1.013,0.492,1.265,0.801c0.337,0.449,0.842,1.053,1.516,1.811
	c0.337,0.451,0.589,0.955,0.759,1.518c0.505,0.027,1.08,0.057,1.726,0.084c4.72,0.141,7.752,0.268,9.101,0.379
	c2.415,0.197,6.389,0.395,11.922,0.592c0.702,0.025,1.376,0.055,2.021,0.082c1.18-1.178,2.542-2.639,4.087-4.381
	c-0.057-0.506-0.127-1.42-0.212-2.738l2.611-1.6c1.433,0,3.47,0.055,6.11,0.168c0.59,0,0.926-0.057,1.01-0.168
	c0.112-0.281,0.296-0.563,0.549-0.844c0.843-1.009,1.419-1.517,1.727-1.517c1.544-0.055,2.387-0.139,2.527-0.252
	c0.057-0.055,0.126-0.49,0.211-1.305c0.169-1.068,0.406-2.893,0.716-5.477c0.59-0.758,1.194-1.545,1.813-2.357
	c0.59-0.818,1.445-2.039,2.569-3.666c0.336-0.506,0.66-0.971,0.968-1.391c0.142-0.871,0.351-1.756,0.632-2.654
	c0.032-0.123,0.073-0.27,0.121-0.434c-0.184-0.213-0.331-0.377-0.373-0.408V278.854z"/>
<path id="Seodaemun" fill="#6AD9E2" d="M132.326,145.231c0.058,0.055,1.825,1.629,5.309,4.719
	c1.853,1.656,3.651,2.934,5.393,3.834c2.274,1.178,4.773,2.147,7.497,2.904h0.043c0.477,0.141,2.008,0.506,4.591,1.096
	c0.226,0.057,0.421,0.168,0.592,0.338c0.111,0.195,0.169,0.406,0.169,0.631c0,1.066-0.156,1.869-0.464,2.4v-0.041
	c-0.113,0.252-0.185,0.463-0.212,0.632c0.056,1.544,1.026,2.782,2.908,3.708c1.823,0.842,3.86,1.264,6.107,1.264
	c2.191,0,5.49-0.295,9.899-0.885c4.24-0.59,7.596-1.012,10.067-1.266c1.376-1.543,2.936-3.369,4.676-5.477v0.045
	c0.31-0.422,0.646-0.844,1.012-1.264c-4.185-5.534-6.459-8.51-6.824-8.934c-1.012-1.207-1.686-1.979-2.022-2.314
	c-0.394-0.449-0.717-0.746-0.969-0.887c-0.928-0.393-1.571-0.672-1.938-0.842c-0.953-0.506-1.417-1.207-1.39-2.105
	c-0.111-0.393,0.688-1.475,2.4-3.244c1.18-1.207,1.813-1.98,1.896-2.316v-0.043c0.253-2.305,0.422-4.088,0.505-5.35
	c0.142-2.051,0.212-4.762,0.212-8.131l0.04-2.316c-0.841-0.898-1.726-1.545-2.653-1.939v0.043c-0.813-0.363-1.348-0.617-1.6-0.758
	l-0.042-0.042c-0.674-0.423-1.01-1.038-1.01-1.854c0-0.084,0.012-0.152,0.04-0.209c0.198-1.012,0.309-1.687,0.337-2.023v-0.041
	c-0.028-0.449,0.043-1.055,0.211-1.811c0.084-0.619,0.128-0.943,0.128-0.971c0-0.617-0.17-1.178-0.507-1.686
	c-0.337-0.336-0.646-0.658-0.926-0.969c-0.057,0.029-0.114,0.07-0.168,0.127h-0.043c-3.765,2.078-6.417,3.639-7.963,4.677
	c0.197,0.364,0.352,0.702,0.464,1.01v0.044c0.224,0.588,0.338,1.236,0.338,1.936c0,0.619-0.043,1.055-0.128,1.307
	c-0.14,0.533-0.604,1.277-1.39,2.233c-0.028,0.028-0.057,0.058-0.084,0.085c-0.057,0.166-0.618,0.377-1.686,0.631
	c-1.292,0.336-1.966,0.52-2.021,0.547h0.042c-0.843,0.254-2.303,1.237-4.382,2.949v0.043c-1.91,1.516-2.935,2.4-3.074,2.653
	c0,0.226,0.07,0.632,0.212,1.222c0.168,0.758,0.252,1.516,0.252,2.273c0,0.817-0.029,1.322-0.084,1.518
	c-0.057,0.59-0.563,0.885-1.518,0.885h-0.043c-1.515-0.084-3.047,0.07-4.592,0.463h-0.041c0.112,0.085,0.169,0.577,0.169,1.477
	v0.041c0,2.305-0.563,3.369-1.686,3.201c-0.393,0-1.096-0.068-2.106-0.211c-1.292-0.168-2.136-0.365-2.527-0.589
	c-0.365-0.028-0.731-0.772-1.096-2.231c-0.112-0.563-0.21-0.998-0.295-1.31c-0.758,0-1.501-0.04-2.233-0.124
	c-0.168,0.449-0.309,0.828-0.421,1.137v-0.043c-0.363,0.871-0.883,1.771-1.558,2.696c-0.309,0.423-1.938,2.079-4.887,4.974
	c-0.702,0.645-1.307,1.234-1.811,1.768c0.252,0.225,0.546,0.477,0.883,0.758V145.231z"/>
</svg>
