<?xml version="1.0" encoding="utf-8"?>
<!-- Generator: Adobe Illustrator 16.0.0, SVG Export Plug-In . SVG Version: 6.00 Build 0)  -->
<!DOCTYPE svg PUBLIC "-//W3C//DTD SVG 1.1//EN" "http://www.w3.org/Graphics/SVG/1.1/DTD/svg11.dtd">
<svg version="1.1" id="레이어_1" xmlns="http://www.w3.org/2000/svg" xmlns:xlink="http://www.w3.org/1999/xlink" x="0px"
	 y="0px" width="841.89px" height="595.281px" viewBox="0 0 841.89 595.281" enable-background="new 0 0 841.89 595.281"
	 xml:space="preserve">
<g id="SeoulShadow">
	<polygon fill="#AA8B75" points="335.452,144.599 328.027,155.736 327.746,164.644 327.369,164.687 327.289,167.26 327.755,167.08 
		328.027,158.436 335.452,147.298 339.502,135.824 339.502,133.124 	"/>
	<polygon fill="#AA8B75" points="318.529,42.126 322.027,37.697 322.027,34.998 318.354,39.648 	"/>
	<polygon fill="#AA8B75" points="318.354,39.648 322.027,34.998 322.027,22.847 317.564,28.499 	"/>
	<polygon fill="#AA8B75" points="331.402,91.949 331.064,97.349 337.814,97.547 337.814,85.874 	"/>
	<polygon fill="#AA8B75" points="328.027,155.736 335.452,144.599 339.502,133.124 339.502,120.974 335.452,132.449 
		328.027,143.586 327.746,152.494 327.369,164.687 327.746,164.644 	"/>
	<polygon fill="#AA8B75" points="45.876,251.923 45.876,254.623 52.206,258.467 52.899,256.187 	"/>
	<polygon fill="#AA8B75" points="3.014,187.461 1.414,179.783 1.326,182.061 3.014,190.16 19.889,192.457 19.889,189.757 	"/>
	<polygon fill="#AA8B75" points="48.914,199.273 48.914,201.973 57.113,202.539 57.467,199.863 	"/>
	<polygon fill="#AA8B75" points="34.063,195.223 29.676,206.36 29.676,209.061 34.063,197.923 46.551,198.598 46.551,195.898 	"/>
	<polygon fill="#AA8B75" points="354.353,285.673 358.064,282.635 358.064,279.936 354.353,282.973 	"/>
	<polygon fill="#AA8B75" points="367.297,230.204 367.524,230.172 368.189,222.223 368.189,219.523 	"/>
	<polygon fill="#AA8B75" points="360.428,279.26 383.377,246.523 383.377,243.822 360.428,276.561 	"/>
	<polygon fill="#AA8B75" points="371.564,218.848 371.564,221.548 387.766,196.653 387.766,193.953 	"/>
	<polygon fill="#AA8B75" points="404.642,196.653 407.342,192.186 407.342,189.485 404.642,193.953 	"/>
	<polygon fill="#AA8B75" points="101.901,255.298 103.926,257.947 103.926,257.784 	"/>
	<polygon fill="#AA8B75" points="103.926,261.791 103.926,264.49 131.602,321.111 141.051,324.535 141.051,321.835 131.602,318.41 	
		"/>
	<polygon fill="#AA8B75" points="166.026,316.722 166.026,319.423 215.114,295.168 223.402,291.072 223.402,288.373 
		215.114,292.468 	"/>
	<polygon fill="#AA8B75" points="262.33,315.373 262.215,286.348 256.814,283.648 256.814,286.348 262.215,289.048 262.33,318.072 
		277.402,330.222 277.402,327.523 	"/>
	<polygon fill="#AA8B75" points="308.79,316.048 315.202,308.623 315.202,305.923 308.79,313.347 	"/>
	<polygon fill="#AA8B75" points="295.965,325.16 295.965,327.861 300.689,315.373 300.689,312.673 	"/>
	<polygon fill="#AA8B75" points="149.151,315.035 149.151,317.736 158.602,305.248 158.602,302.548 	"/>
	<polygon fill="#AA8B75" points="348.688,284.168 341.865,292.086 341.865,294.785 348.688,286.867 350.303,284.998 
		350.303,282.298 	"/>
	<polygon fill="#AA8B75" points="230.49,282.298 230.49,284.998 241.29,298.498 241.29,295.798 	"/>
	<polygon fill="#AA8B75" points="79.964,266.773 79.289,274.58 50.602,273.186 50.602,275.885 79.289,277.28 79.964,269.473 
		101.901,255.298 101.901,252.598 	"/>
	<polygon fill="#AA8B75" points="321.405,295.984 315.202,301.873 315.202,304.572 321.405,298.685 328.365,292.086 
		328.365,289.385 	"/>
	<polygon fill="#AA8B75" points="405.316,176.66 407.342,180.035 407.41,172.947 	"/>
	<polygon fill="#AA8B75" points="34.063,195.223 46.551,195.898 46.551,186.447 34.063,185.773 29.676,196.91 29.676,206.36 	"/>
	<polygon fill="#AA8B75" points="300.689,312.673 300.689,303.222 295.965,315.71 295.965,325.16 	"/>
	<polygon fill="#AA8B75" points="223.402,278.923 215.114,283.018 166.026,307.273 166.026,316.722 215.114,292.468 
		223.402,288.373 223.402,285.336 223.402,282.635 	"/>
	<polygon fill="#AA8B75" points="158.602,302.548 158.602,293.098 149.151,305.585 149.151,315.035 	"/>
	<polygon fill="#AA8B75" points="55.326,248.211 45.876,242.473 45.876,245.848 45.876,248.548 45.876,251.923 52.899,256.187 	"/>
	<polygon fill="#AA8B75" points="241.29,295.798 241.29,286.348 230.49,272.848 230.49,282.298 	"/>
	<polygon fill="#AA8B75" points="262.215,286.348 262.33,315.373 277.402,327.523 277.402,318.072 262.33,305.923 262.215,276.898 
		256.814,274.197 256.814,279.936 256.814,283.648 	"/>
	<polygon fill="#AA8B75" points="19.889,189.757 19.889,180.307 3.014,178.01 1.326,169.91 1.326,179.36 1.414,179.783 
		3.014,187.461 	"/>
	<polygon fill="#AA8B75" points="358.064,270.485 354.353,273.523 354.353,282.973 358.064,279.936 358.064,278.851 358.064,276.15 
			"/>
	<polygon fill="#AA8B75" points="57.467,199.863 58.701,190.498 48.914,189.822 48.914,199.273 	"/>
	<polygon fill="#AA8B75" points="141.051,312.384 131.602,308.96 103.926,252.341 103.926,255.248 103.926,257.784 103.926,257.947 
		103.926,260.851 103.926,261.791 131.602,318.41 141.051,321.835 141.051,317.398 141.051,314.697 	"/>
	<polygon fill="#AA8B75" points="348.688,284.168 350.303,282.298 350.303,272.848 348.688,274.717 341.865,282.635 
		341.865,292.086 	"/>
	<polygon fill="#AA8B75" points="321.405,295.984 328.365,289.385 328.365,279.936 321.405,286.535 315.202,292.423 
		315.202,296.473 308.79,303.898 308.79,313.347 315.202,305.923 315.202,304.572 315.202,301.873 	"/>
	<polygon fill="#AA8B75" points="79.964,266.773 101.901,252.598 101.901,243.148 79.964,257.322 79.289,265.131 50.602,263.735 
		50.602,270.413 50.602,273.186 79.289,274.58 	"/>
	<polygon fill="#AA8B75" points="404.642,184.504 404.642,193.953 407.342,189.485 407.342,180.035 	"/>
	<polygon fill="#AA8B75" points="368.189,210.072 366.502,230.322 367.297,230.204 368.189,219.523 	"/>
	<polygon fill="#AA8B75" points="387.766,193.953 387.766,184.504 371.564,209.398 371.564,218.848 	"/>
	<polygon fill="#AA8B75" points="360.428,267.11 360.428,276.561 383.377,243.822 383.377,234.373 	"/>
	<polygon fill="#69DBF9" points="347.414,159.457 347.549,159.402 347.606,159.243 338.135,162.917 328.063,190.74 327.924,190.803 
		327.871,190.951 296.049,205.163 283.202,200.183 283.309,199.938 252.016,187.811 213.357,222.06 185.296,214.166 
		181.188,190.201 145.833,184.845 113.771,164.681 92.696,152.543 90.988,146.75 90.959,146.558 87.244,147.584 82.824,143.98 
		83.461,148.158 86.221,157.648 109.758,171.198 143.108,192.171 174.578,196.941 178.57,220.227 215.307,230.558 253.602,196.633 
		296.449,213.242 334.014,196.465 336.747,188.918 	"/>
	<polygon fill="#726658" points="19.889,189.757 19.889,192.457 29.676,209.061 29.676,206.36 	"/>
	<polygon fill="#AA8B75" points="19.889,189.757 19.889,192.457 29.676,209.061 29.676,206.36 	"/>
	<polygon fill="#AA8B75" points="29.676,206.36 29.676,196.91 19.889,180.307 19.889,189.757 	"/>
	<polygon opacity="0.3" fill="#726658" enable-background="new    " points="29.676,208.807 29.676,196.91 19.889,180.307 
		19.889,192.203 	"/>
	<polygon fill="#726658" points="46.551,195.898 46.551,198.598 48.914,201.973 48.914,199.273 	"/>
	<polygon fill="#AA8B75" points="46.551,195.898 46.551,198.598 48.914,201.973 48.914,199.273 	"/>
	<polygon fill="#AA8B75" points="48.914,199.273 48.914,189.822 46.551,186.447 46.551,195.898 	"/>
	<polygon opacity="0.3" fill="#726658" enable-background="new    " points="48.914,201.807 48.914,189.822 46.551,186.447 
		46.551,198.432 	"/>
	<polygon fill="#AA8B75" points="103.926,255.248 101.901,252.598 101.901,255.298 103.926,257.784 	"/>
	<polygon fill="#AA8B75" points="103.926,255.248 101.901,252.598 101.901,255.298 103.926,257.784 	"/>
	<polygon fill="#AA8B75" points="103.926,255.248 103.926,252.341 106.289,248.885 101.901,243.148 101.901,252.598 	"/>
	<polygon opacity="0.3" fill="#726658" enable-background="new    " points="103.926,255.248 103.926,252.341 106.289,248.885 
		101.901,243.148 101.901,252.598 	"/>
	<polygon fill="#AA8B75" points="141.051,314.697 141.051,317.398 149.151,317.736 149.151,315.035 	"/>
	<polygon fill="#AA8B75" points="141.051,314.697 141.051,317.398 149.151,317.736 149.151,315.035 	"/>
	<polygon fill="#AA8B75" points="149.151,315.035 149.151,305.585 141.051,305.248 141.051,312.384 141.051,314.697 	"/>
	<polygon opacity="0.3" fill="#726658" enable-background="new    " points="149.151,315.035 149.151,305.585 141.051,305.248 
		141.051,312.384 141.051,314.697 	"/>
	<polygon fill="#AA8B75" points="158.602,302.548 158.602,305.248 166.026,319.423 166.026,316.722 	"/>
	<polygon fill="#AA8B75" points="158.602,302.548 158.602,305.248 166.026,319.423 166.026,316.722 	"/>
	<polygon fill="#AA8B75" points="166.026,316.722 166.026,307.273 158.602,293.098 158.602,302.548 	"/>
	<polygon opacity="0.3" fill="#726658" enable-background="new    " points="166.026,316.722 166.026,307.273 158.602,293.098 
		158.602,302.548 	"/>
	<polygon fill="#726658" points="223.402,282.635 223.402,285.336 230.49,284.998 230.49,282.298 	"/>
	<polygon fill="#AA8B75" points="223.402,282.635 223.402,285.336 230.49,284.998 230.49,282.298 	"/>
	<polygon fill="#AA8B75" points="230.49,282.298 230.49,272.848 223.402,273.186 223.402,278.923 223.402,282.635 	"/>
	<polygon opacity="0.3" fill="#726658" enable-background="new    " points="230.49,282.298 230.49,272.848 223.402,273.186 
		223.402,278.923 223.402,282.635 	"/>
	<polygon fill="#726658" points="241.29,298.498 256.814,292.086 256.814,289.385 241.29,295.798 	"/>
	<polygon fill="#AA8B75" points="241.29,298.498 256.814,292.086 256.814,289.385 241.29,295.798 	"/>
	<polygon fill="#AA8B75" points="256.814,279.936 241.29,286.348 241.29,295.798 256.814,289.385 256.814,286.348 256.814,283.648 	
		"/>
	<polygon opacity="0.3" fill="#726658" enable-background="new    " points="256.814,279.936 241.29,286.348 241.29,295.798 
		256.814,289.385 256.814,286.348 256.814,283.648 	"/>
	<polygon fill="#726658" points="277.402,327.523 277.402,330.222 295.965,327.861 295.965,325.16 	"/>
	<polygon fill="#AA8B75" points="277.402,327.523 277.402,330.222 295.965,327.861 295.965,325.16 	"/>
	<polygon fill="#AA8B75" points="295.965,325.16 295.965,315.71 277.402,318.072 277.402,327.523 	"/>
	<polygon opacity="0.3" fill="#726658" enable-background="new    " points="295.965,325.16 295.965,315.71 277.402,318.072 
		277.402,327.523 	"/>
	<polygon fill="#726658" points="300.689,312.673 300.689,315.373 308.79,316.048 308.79,313.347 	"/>
	<polygon fill="#AA8B75" points="300.689,312.673 300.689,315.373 308.79,316.048 308.79,313.347 	"/>
	<polygon fill="#AA8B75" points="308.79,313.347 308.79,303.898 300.689,303.222 300.689,312.673 	"/>
	<polygon opacity="0.3" fill="#726658" enable-background="new    " points="308.79,313.347 308.79,303.898 300.689,303.222 
		300.689,312.673 	"/>
	<polygon fill="#726658" points="328.365,289.385 328.365,292.086 341.865,294.785 341.865,292.086 	"/>
	<polygon fill="#AA8B75" points="328.365,289.385 328.365,292.086 341.865,294.785 341.865,292.086 	"/>
	<polygon fill="#AA8B75" points="341.865,292.086 341.865,282.635 328.365,279.936 328.365,289.385 	"/>
	<polygon opacity="0.3" fill="#726658" enable-background="new    " points="341.865,292.086 341.865,282.635 328.365,279.936 
		328.365,289.385 	"/>
	<polygon fill="#726658" points="350.303,282.298 350.303,284.998 354.353,285.673 354.353,282.973 	"/>
	<polygon fill="#AA8B75" points="350.303,282.298 350.303,284.998 354.353,285.673 354.353,282.973 	"/>
	<polygon fill="#AA8B75" points="354.353,282.973 354.353,273.523 350.303,272.848 350.303,282.298 	"/>
	<polygon opacity="0.3" fill="#726658" enable-background="new    " points="354.353,282.973 354.353,273.523 350.303,272.848 
		350.303,282.298 	"/>
	<polygon fill="#726658" points="358.064,276.15 358.064,278.851 360.428,279.26 360.428,276.561 	"/>
	<polygon fill="#AA8B75" points="358.064,276.15 358.064,278.851 360.428,279.26 360.428,276.561 	"/>
	<polygon fill="#AA8B75" points="360.428,276.561 360.428,267.11 355.027,264.41 355.027,267.447 358.064,270.485 358.064,276.15 	
		"/>
	<polygon opacity="0.3" fill="#726658" enable-background="new    " points="360.428,276.561 360.428,267.11 355.027,264.41 
		355.027,267.447 358.064,270.485 358.064,276.15 	"/>
	<polygon fill="#726658" points="368.189,219.523 368.189,222.223 371.564,221.548 371.564,218.848 	"/>
	<polygon fill="#AA8B75" points="368.189,219.523 368.189,222.223 371.564,221.548 371.564,218.848 	"/>
	<polygon fill="#AA8B75" points="371.564,218.848 371.564,209.398 368.189,210.072 368.189,219.523 	"/>
	<polygon opacity="0.3" fill="#726658" enable-background="new    " points="371.564,218.848 371.564,209.398 368.189,210.072 
		368.189,219.523 	"/>
	<rect x="387.766" y="193.953" fill="#726658" width="16.876" height="2.7"/>
	<rect x="387.766" y="193.953" fill="#AA8B75" width="16.876" height="2.7"/>
	<rect x="387.766" y="184.504" fill="#AA8B75" width="16.876" height="9.449"/>
	<rect x="387.766" y="184.504" opacity="0.3" fill="#726658" enable-background="new    " width="16.876" height="9.449"/>
	<polygon fill="#726658" points="339.502,135.824 344.564,130.761 344.564,128.061 339.502,133.124 	"/>
	<polygon fill="#AA8B75" points="339.502,135.824 344.564,130.761 344.564,128.061 339.502,133.124 	"/>
	<polygon fill="#AA8B75" points="339.502,120.974 339.502,133.124 344.564,128.061 344.564,126.159 344.564,115.911 	"/>
	<polygon opacity="0.3" fill="#726658" enable-background="new    " points="339.502,120.974 339.502,133.124 344.564,128.061 
		344.564,126.159 344.564,115.911 	"/>
</g>
<polygon id="Gwanak" fill="#8DC13F" stroke="#7FA840" stroke-miterlimit="10" points="197.604,262.635 189.166,244.284 
	134.553,253.248 131.115,258.247 140.396,258.247 158.602,293.098 166.026,307.273 215.114,283.018 215.114,262.635 "/>
<polygon id="Geumcheon" fill="#A2CE54" stroke="#7FA840" stroke-miterlimit="10" points="131.115,258.247 106.289,248.885 
	103.926,252.341 131.602,308.96 141.051,312.384 141.051,305.248 149.151,305.585 158.602,293.098 140.396,258.247 "/>
<polygon id="Guro" fill="#8DC13F" stroke="#7FA840" stroke-miterlimit="10" points="123.016,224.16 111.878,217.41 104.791,230.769 
	93.653,225.848 69.353,232.598 53.804,227.661 52.964,234.035 45.539,236.398 45.876,242.473 55.326,248.211 50.602,263.735 
	79.289,265.131 79.964,257.322 101.901,243.148 106.289,248.885 131.115,258.247 134.553,253.248 "/>
<polygon id="Yangcheon" fill="#A2CE54" stroke="#7FA840" stroke-miterlimit="10" points="93.653,225.848 104.791,230.769 
	111.878,217.41 111.878,199.859 120.99,199.859 111.878,179.947 98.041,179.947 96.69,198.215 76.44,202.56 61.59,179.947 
	58.701,190.498 53.804,227.661 69.353,232.598 "/>
<polygon id="Gangdong" fill="#8DC13F" stroke="#7FA840" stroke-miterlimit="10" points="407.41,172.947 391.814,142.236 
	347.414,159.457 336.747,188.918 368.189,210.072 371.564,209.398 387.766,184.504 404.642,184.504 407.342,180.035 405.316,176.66 
	"/>
<polygon id="Songpa" fill="#A2CE54" stroke="#7FA840" stroke-miterlimit="10" points="333.959,196.615 296.256,213.453 
	299.863,234.622 332.938,250.146 348.688,274.717 350.303,272.848 354.353,273.523 358.064,270.485 355.027,267.447 355.027,264.41 
	360.428,267.11 383.377,234.373 375.615,228.973 366.502,230.322 368.189,210.072 336.747,188.918 "/>
<polygon id="Gangnam" fill="#8DC13F" stroke="#7FA840" stroke-miterlimit="10" points="299.863,234.622 296.256,213.453 
	253.407,196.844 242.373,206.62 278.938,272.76 311.338,265.672 321.405,286.535 328.365,279.936 341.865,282.635 348.688,274.717 
	332.938,250.146 "/>
<polygon id="Seocho" fill="#A2CE54" stroke="#7FA840" stroke-miterlimit="10" points="278.938,272.76 242.373,206.62 
	215.114,230.769 215.114,283.018 223.402,278.923 223.402,273.186 230.49,272.848 241.29,286.348 256.814,279.936 256.814,274.197 
	262.215,276.898 262.33,305.923 277.402,318.072 295.965,315.71 300.689,303.222 308.79,303.898 315.202,296.473 315.202,292.423 
	321.405,286.535 311.338,265.672 "/>
<polygon id="Dongjak" fill="#A2CE54" stroke="#7FA840" stroke-miterlimit="10" points="134.553,253.248 134.553,253.248 
	189.166,244.284 197.604,262.635 215.114,262.635 215.114,230.769 178.377,220.438 157.104,220.438 "/>
<polygon id="Yeongdeungpo" fill="#A2CE54" stroke="#7FA840" stroke-miterlimit="10" points="111.878,199.859 111.878,217.41 
	123.016,224.16 134.553,253.248 157.104,220.438 178.377,220.438 174.385,197.152 142.917,192.385 111.878,172.867 111.878,179.947 
	120.99,199.859 "/>
<polygon id="Gangseo" fill="#8DC13F" stroke="#7FA840" stroke-miterlimit="10" points="76.44,202.56 96.69,198.215 98.041,179.947 
	111.878,179.947 111.878,172.867 109.566,171.412 86.028,157.86 83.269,148.372 82.633,144.191 41.826,110.909 30.688,123.673 
	34.739,127.724 17.864,151.349 11.451,151.349 1.326,169.91 3.014,178.01 19.889,180.307 29.676,196.91 34.063,185.773 
	46.551,186.447 48.914,189.822 58.701,190.498 61.59,179.947 "/>
<polygon id="Yongsan" fill="#A2CE54" stroke="#7FA840" stroke-miterlimit="10" points="192.541,173.548 192.541,179.947 
	180.996,190.415 185.104,214.38 213.166,222.271 243.818,195.115 232.025,181.678 "/>
<polygon id="Mapo" fill="#A2CE54" stroke="#7FA840" stroke-miterlimit="10" points="192.541,169.483 167.902,172.521 
	127.402,146.196 115.401,126.374 109.664,131.773 109.664,141.561 90.767,146.771 90.794,146.964 92.502,152.756 113.577,164.893 
	145.64,185.056 180.996,190.415 192.541,179.947 "/>
<polygon id="Gwangjin" fill="#A2CE54" stroke="#7FA840" stroke-miterlimit="10" points="327.289,167.26 327.746,152.494 
	304.926,154.971 297.164,167.796 283.202,200.183 296.049,205.163 327.871,190.951 337.943,163.129 "/>
<polygon id="Seongdong" fill="#8DC13F" stroke="#7FA840" stroke-miterlimit="10" points="267.801,152.946 252.032,153.665 
	253.289,164.265 232.025,181.678 243.818,195.115 251.822,188.021 283.202,200.183 297.164,167.796 "/>
<polygon id="Jung" fill="#A2CE54" stroke="#7FA840" stroke-miterlimit="10" points="253.289,164.265 252.032,153.665 
	201.315,155.983 192.541,169.483 192.541,173.548 232.025,181.678 "/>
<polygon id="Seodaemun" fill="#8DC13F" stroke="#7FA840" stroke-miterlimit="10" points="127.402,146.196 167.902,172.521 
	192.541,169.483 201.315,155.983 179.378,112.108 "/>
<polygon id="Jungnang" fill="#A2CE54" stroke="#7FA840" stroke-miterlimit="10" points="344.564,115.911 342.54,97.686 
	331.064,97.349 295.477,105.358 304.926,154.971 327.746,152.494 328.027,143.586 335.452,132.449 339.502,120.974 "/>
<polygon id="Dongdaemun" fill="#A2CE54" stroke="#7FA840" stroke-miterlimit="10" points="296.275,109.542 251.625,150.246 
	252.032,153.665 267.801,152.946 297.164,167.796 304.926,154.971 "/>
<polygon id="Seongbuk" fill="#8DC13F" stroke="#7FA840" stroke-miterlimit="10" points="207.391,123.246 251.625,150.246 
	296.275,109.542 295.477,105.358 279.732,91.486 260.713,108.733 210.915,78.449 204.32,80.966 215.114,116.158 "/>
<polygon id="Jongno" fill="#A2CE54" stroke="#7FA840" stroke-miterlimit="10" points="207.391,123.246 215.114,116.158 
	204.32,80.966 192.352,85.536 179.378,112.108 201.315,155.983 252.032,153.665 251.625,150.246 "/>
<polygon id="Eunpyeong" fill="#A2CE54" stroke="#7FA840" stroke-miterlimit="10" points="192.352,85.536 192.352,67.986 
	178.176,50.773 145.102,70.349 126.201,131.773 115.401,126.374 127.402,146.196 179.378,112.108 "/>
<polygon id="Gangbuk" fill="#A2CE54" stroke="#7FA840" stroke-miterlimit="10" points="279.732,91.486 247.213,62.833 
	233.865,23.773 227.115,23.436 210.915,78.449 260.713,108.733 "/>
<polygon id="Nowon" fill="#A2CE54" stroke="#7FA840" stroke-miterlimit="10" points="336.465,69.673 320.266,66.636 317.564,28.499 
	322.027,22.847 320,17.063 314.865,17.699 309.803,9.261 278.066,18.75 281.741,74.308 269.905,82.825 295.477,105.358 
	331.064,97.349 331.402,91.949 337.814,85.874 "/>
<polygon id="Dobong" fill="#8DC13F" stroke="#7FA840" stroke-miterlimit="10" points="278.066,18.75 275.713,13.986 260.527,14.324 
	259.178,4.874 243.652,1.499 233.865,23.773 247.213,62.833 269.905,82.825 281.741,74.308 "/>
</svg>
