<?xml version="1.0" encoding="utf-8"?>
<!-- Generator: Adobe Illustrator 16.0.0, SVG Export Plug-In . SVG Version: 6.00 Build 0)  -->
<!DOCTYPE svg PUBLIC "-//W3C//DTD SVG 1.1//EN" "http://www.w3.org/Graphics/SVG/1.1/DTD/svg11.dtd">
<svg version="1.1" id="레이어_1" xmlns="http://www.w3.org/2000/svg" xmlns:xlink="http://www.w3.org/1999/xlink" x="0px"
	 y="0px" width="841.89px" height="595.281px" viewBox="0 0 841.89 595.281" enable-background="new 0 0 841.89 595.281"
	 xml:space="preserve">
<polygon id="river" fill="#576870" points="348.737,162.213 338.25,165.83 328.545,192.639 296.204,206.649 252.496,189.709 
	213.84,223.958 186.359,216.745 182.318,193.172 146.964,187.815 114.901,167.652 93.827,155.514 92.119,149.721 92.09,149.529 
	88.375,150.555 83.956,146.951 84.592,151.129 86.702,161.548 143.591,196.072 175.059,200.84 179.051,224.125 215.41,234.35 
	254.276,200.005 296.93,216.813 334.633,200.303 "/>
<polygon id="Gwanak" fill="#b8c9f1" stroke="#576870" stroke-width="2" stroke-linecap="round" stroke-linejoin="round" stroke-miterlimit="10" points="
	198.277,266.322 189.84,247.972 135.227,256.936 131.789,261.935 141.07,261.935 159.275,296.785 166.7,310.96 215.788,286.705 
	215.788,266.322 "/>
<polygon id="Geumcheon" fill="#b8c9f1" stroke="#576870" stroke-width="2" stroke-linecap="round" stroke-linejoin="round" stroke-miterlimit="10" points="
	131.789,261.935 106.963,252.572 104.6,256.028 132.275,312.648 141.725,316.072 141.725,308.935 149.825,309.273 159.275,296.785 
	141.07,261.935 "/>
<polygon id="Guro" fill="#b8c9f1" stroke="#576870" stroke-width="2" stroke-linecap="round" stroke-linejoin="round" stroke-miterlimit="10" points="
	123.689,227.848 112.552,221.098 105.464,234.456 94.327,229.535 70.027,236.285 54.478,231.349 53.638,237.723 46.213,240.086 
	46.55,246.16 56,251.898 51.275,267.423 79.963,268.818 80.638,261.01 102.575,246.836 106.963,252.572 131.789,261.935 
	135.227,256.936 "/>
<polygon id="Yangcheon" fill="#b8c9f1" stroke="#576870" stroke-width="2" stroke-linecap="round" stroke-linejoin="round" stroke-miterlimit="10" points="
	94.327,229.535 105.464,234.456 112.552,221.098 112.552,203.547 121.664,203.547 112.552,183.635 98.714,183.635 97.364,201.902 
	77.114,206.247 62.264,183.635 59.375,194.186 54.478,231.349 70.027,236.285 "/>
<polygon id="Gangdong" fill="#b8c9f1" stroke="#576870" stroke-width="2" stroke-linecap="round" stroke-linejoin="round" stroke-miterlimit="10" points="
	408.084,176.635 392.488,145.924 348.088,163.145 337.421,192.605 368.863,213.76 372.238,213.086 388.438,188.191 405.315,188.191 
	408.016,183.723 405.99,180.348 "/>
<polygon id="Songpa" fill="#b8c9f1" stroke="#576870" stroke-width="2" stroke-linecap="round" stroke-linejoin="round" stroke-miterlimit="10" points="
	334.633,200.303 296.93,217.141 300.537,238.31 333.612,253.834 349.361,278.404 350.977,276.535 355.026,277.211 358.738,274.173 
	355.701,271.135 355.701,268.098 361.102,270.798 384.051,238.061 376.289,232.66 367.176,234.01 368.863,213.76 337.421,192.605 
	"/>
<polygon id="Gangnam" fill="#b8c9f1" stroke="#576870" stroke-width="2" stroke-linecap="round" stroke-linejoin="round" stroke-miterlimit="10" points="
	300.537,238.31 296.93,217.141 254.081,200.531 243.047,210.308 279.612,276.447 312.012,269.359 322.079,290.223 329.039,283.623 
	342.539,286.322 349.361,278.404 333.612,253.834 "/>
<polygon id="Seocho" fill="#b8c9f1" stroke="#576870" stroke-width="2" stroke-linecap="round" stroke-linejoin="round" stroke-miterlimit="10" points="
	279.612,276.447 243.047,210.308 215.788,234.456 215.788,286.705 224.076,282.61 224.076,276.873 231.164,276.535 241.964,290.035 
	257.488,283.623 257.488,277.885 262.889,280.586 263.004,309.611 278.076,321.759 296.639,319.398 301.363,306.91 309.464,307.585 
	315.877,300.16 315.877,296.11 322.079,290.223 312.012,269.359 "/>
<polygon id="Dongjak" fill="#b8c9f1" stroke="#576870" stroke-width="2" stroke-linecap="round" stroke-linejoin="round" stroke-miterlimit="10" points="
	135.227,256.936 135.227,256.936 189.84,247.972 198.277,266.322 215.788,266.322 215.788,234.456 179.051,224.125 157.777,224.125 
	"/>
<polygon id="Yeongdeungpo" fill="#b8c9f1" stroke="#576870" stroke-width="2" stroke-linecap="round" stroke-linejoin="round" stroke-miterlimit="10" points="
	112.552,203.547 112.552,221.098 123.689,227.848 135.227,256.936 157.777,224.125 179.051,224.125 175.059,200.84 143.591,196.072 
	112.552,176.555 112.552,183.635 121.664,203.547 "/>
<polygon id="Gangseo" fill="#b8c9f1" stroke="#576870" stroke-width="2" stroke-linecap="round" stroke-linejoin="round" stroke-miterlimit="10" points="
	77.114,206.247 97.364,201.902 98.714,183.635 112.552,183.635 112.552,176.555 110.24,175.1 86.702,161.548 83.942,152.059 
	83.307,147.879 42.5,114.597 31.362,127.361 35.413,131.411 18.538,155.036 12.125,155.036 2,173.598 3.688,181.697 20.563,183.994 
	30.35,200.598 34.737,189.461 47.225,190.135 49.588,193.51 59.375,194.186 62.264,183.635 "/>
<polygon id="Yongsan" fill="#b8c9f1" stroke="#576870" stroke-width="2" stroke-linecap="round" stroke-linejoin="round" stroke-miterlimit="10" points="
	193.215,175.235 193.215,181.635 181.67,192.103 185.778,216.067 213.84,223.958 244.492,196.803 232.699,183.365 "/>
<polygon id="Mapo" fill="#b8c9f1" stroke="#576870" stroke-width="2" stroke-linecap="round" stroke-linejoin="round" stroke-miterlimit="10" points="
	193.215,171.171 168.576,174.209 128.076,147.883 116.075,128.061 110.338,133.461 110.338,143.248 91.44,148.458 91.469,148.651 
	93.177,154.443 114.251,166.58 146.313,186.743 181.67,192.103 193.215,181.635 "/>
<polygon id="Gwangjin" fill="#b8c9f1" stroke="#576870" stroke-width="2" stroke-linecap="round" stroke-linejoin="round" stroke-miterlimit="10" points="
	327.963,168.947 328.42,154.182 305.6,156.658 297.838,169.483 283.876,201.87 296.723,206.851 328.545,192.639 338.617,164.816 "/>
<polygon id="Seongdong" fill="#b8c9f1" stroke="#576870" stroke-width="2" stroke-linecap="round" stroke-linejoin="round" stroke-miterlimit="10" points="
	268.475,154.633 252.706,155.353 253.963,165.953 232.699,183.365 244.492,196.803 252.496,189.709 283.876,201.87 297.838,169.483 
	"/>
<polygon id="Jung" fill="#b8c9f1" stroke="#576870" stroke-width="2" stroke-linecap="round" stroke-linejoin="round" stroke-miterlimit="10" points="
	253.963,165.953 252.706,155.353 201.989,157.671 193.215,171.171 193.215,175.235 232.699,183.365 "/>
<polygon id="Seodaemun" fill="#b8c9f1" stroke="#576870" stroke-width="2" stroke-linecap="round" stroke-linejoin="round" stroke-miterlimit="10" points="
	128.076,147.883 168.576,174.209 193.215,171.171 201.989,157.671 180.052,113.796 "/>
<polygon id="Jungnang" fill="#b8c9f1" stroke="#576870" stroke-width="2" stroke-linecap="round" stroke-linejoin="round" stroke-miterlimit="10" points="
	345.238,117.599 343.214,99.373 331.738,99.036 296.15,107.046 305.6,156.658 328.42,154.182 328.701,145.273 336.127,134.137 
	340.176,122.661 "/>
<polygon id="Dongdaemun" fill="#b8c9f1" stroke="#576870" stroke-width="2" stroke-linecap="round" stroke-linejoin="round" stroke-miterlimit="10" points="
	296.949,111.23 252.299,151.934 252.706,155.353 268.475,154.633 297.838,169.483 305.6,156.658 "/>
<polygon id="Seongbuk" fill="#b8c9f1" stroke="#576870" stroke-width="2" stroke-linecap="round" stroke-linejoin="round" stroke-miterlimit="10" points="
	208.064,124.934 252.299,151.934 296.949,111.23 296.15,107.046 280.406,93.174 261.387,110.421 211.589,80.137 204.994,82.653 
	215.788,117.846 "/>
<polygon id="Jongno" fill="#b8c9f1" stroke="#576870" stroke-width="2" stroke-linecap="round" stroke-linejoin="round" stroke-miterlimit="10" points="
	208.064,124.934 215.788,117.846 204.994,82.653 193.025,87.224 180.052,113.796 201.989,157.671 252.706,155.353 252.299,151.934 
	"/>
<polygon id="Eunpyeong" fill="#b8c9f1" stroke="#576870" stroke-width="2" stroke-linecap="round" stroke-linejoin="round" stroke-miterlimit="10" points="
	193.025,87.224 193.025,69.674 178.85,52.461 145.775,72.036 126.875,133.461 116.075,128.061 128.076,147.883 180.052,113.796 "/>
<polygon id="Gangbuk" fill="#b8c9f1" stroke="#576870" stroke-width="2" stroke-linecap="round" stroke-linejoin="round" stroke-miterlimit="10" points="
	280.406,93.174 247.887,64.52 234.539,25.461 227.789,25.123 211.589,80.137 261.387,110.421 "/>
<polygon id="Nowon" fill="#b8c9f1" stroke="#576870" stroke-width="2" stroke-linecap="round" stroke-linejoin="round" stroke-miterlimit="10" points="
	337.139,71.361 320.938,68.324 318.238,30.186 322.701,24.535 320.674,18.75 315.539,19.387 310.477,10.949 278.74,20.438 
	282.415,75.995 270.579,84.512 296.15,107.046 331.738,99.036 332.076,93.637 338.488,87.561 "/>
<polygon id="Nowon" fill="#b8c9f1" stroke="#576870" stroke-width="2" stroke-linecap="round" stroke-linejoin="round" stroke-miterlimit="10" points="
	336.859,71.615 320.659,68.578 317.959,30.44 322.422,24.789 320.395,19.004 315.26,19.641 310.197,11.203 278.461,20.691 
	282.135,76.25 270.299,84.767 295.87,107.301 331.459,99.291 331.797,93.891 338.209,87.815 "/>
<polygon id="Dobong" fill="#b8c9f1" stroke="#576870" stroke-width="2" stroke-linecap="round" stroke-linejoin="round" stroke-miterlimit="10" points="
	278.74,20.438 276.387,15.674 261.201,16.012 259.852,6.561 244.326,3.186 234.539,25.461 247.887,64.52 270.579,84.512 
	282.415,75.995 "/>
</svg>
