<?xml version="1.0" encoding="utf-8"?>
<!-- Generator: Adobe Illustrator 16.0.0, SVG Export Plug-In . SVG Version: 6.00 Build 0)  -->
<!DOCTYPE svg PUBLIC "-//W3C//DTD SVG 1.1//EN" "http://www.w3.org/Graphics/SVG/1.1/DTD/svg11.dtd">
<svg version="1.1" id="레이어_1" xmlns="http://www.w3.org/2000/svg" xmlns:xlink="http://www.w3.org/1999/xlink" x="0px"
	 y="0px" width="841.89px" height="595.28px" viewBox="0 0 841.89 595.28" enable-background="new 0 0 841.89 595.28"
	 xml:space="preserve">
<path id="Jeju" fill="#F2C379" stroke="#FFFFFF" stroke-width="2.5" stroke-dasharray="4" d="M27.379,426.571
	c-0.562-0.945-0.21-2.113,0.78-2.592l18.198-8.813c0.991-0.479,2.694-0.97,3.788-1.09l23.561-2.604
	c1.093-0.121,2.691,0.34,3.555,1.021l6.329,5.021c0.862,0.682,0.916,1.858,0.12,2.619L68.533,434.61
	c-0.796,0.76-2.347,1.381-3.447,1.381l-19.519,0.01c-1.101,0-2.665,0.607-3.478,1.349l-3.928,3.586
	c-0.813,0.74-1.937,0.572-2.497-0.369L27.379,426.571z"/>
<path id="Gwangju" fill="#F2C379" stroke="#FFFFFF" stroke-width="2.5" stroke-dasharray="4" d="M65.669,281.997
	c-1.101,0-2.319,0.842-2.712,1.869l-2.787,7.322c-0.393,1.023,0.021,2.393,0.916,3.026l8.85,6.313
	c0.896,0.64,2.408,0.709,3.359,0.156l8.645-5.013c0.951-0.551,1.496-1.868,1.209-2.934l-2.379-8.818
	c-0.286-1.063-1.42-1.932-2.521-1.932L65.669,281.997L65.669,281.997z"/>
<path id="Jeonnam" fill="#F2C379" stroke="#FFFFFF" stroke-width="2.5" stroke-dasharray="4" d="M125.222,279.098
	c-0.275-1.066-1.398-1.938-2.5-1.938H93.565c-1.101,0-2.756-0.488-3.68-1.089l-16.642-10.77c-0.924-0.599-2.354-0.492-3.182,0.231
	l-11.731,10.305c-0.826,0.729-2.187,0.732-3.021,0.021l-8.717-7.481c-0.835-0.72-1.922-0.498-2.416,0.481l-8.732,17.383
	c-0.494,0.98-1.782,1.962-2.862,2.171l-14.669,2.836c-1.08,0.209-1.641,1.261-1.401,2.332l0.759,4.01
	c0.238,1.072,1.333,1.951,2.434,1.951h0.21c1.101,0,1.903,0.896,1.784,1.985l-0.27,2.498c-0.119,1.097-1.116,1.986-2.216,1.986
	h-1.264c-1.101,0-2.201,0.877-2.448,1.948l-1.648,7.174c-0.247,1.072-1.219,2.412-2.16,2.979l-1.77,1.063
	c-0.943,0.564-1.333,1.907-1.086,2.979l3.858,17.515c0.247,1.071,1.349,1.949,2.449,1.949h0.909c1.1,0,1.56,0.784,1.021,1.743
	L4.296,366.14c-0.538,0.959-0.323,2.358,0.477,3.114l5.861,5.527c0.8,0.756,2.234,0.922,3.187,0.369l10.222-5.91
	c0.952-0.553,2.521-0.598,3.485-0.104c0.965,0.492,1.755,0,1.755-1.104v-2.478c0-1.103-0.395-2.402-0.878-2.897
	c-0.482-0.494-0.877-1.627-0.877-2.521s0.896-1.539,1.992-1.438l4.086,0.362c1.096,0.101,2.621-0.467,3.389-1.254l3.173-3.252
	c0.768-0.787,2.087-0.854,2.93-0.146l8.457,7.082c0.842,0.707,2.413,1.094,3.487,0.855l2.464-0.535
	c1.075-0.23,2.698,0.082,3.605,0.701l0.271,0.188c0.91,0.615,2.552,1.068,3.65,1.008l25.061-1.477
	c1.1-0.063,1.997-1.019,1.997-2.113v-3.189c0-1.104,0.899-2,2-2h0.562c1.101,0,2.314,0.4,2.701,0.896
	c0.387,0.491,1.51,0.504,2.498,0.021l11.846-5.8c0.988-0.479,1.797-0.065,1.797,0.922c0,0.988,0.71,1.8,1.578,1.8
	c0.867,0,2.337-0.481,3.263-1.078l2.247-1.438c0.926-0.594,1.383-1.928,1.016-2.965l-2.873-8.104
	c-0.369-1.035,0.026-2.455,0.877-3.15l0.416-0.342c0.852-0.695,2.446-1.271,3.547-1.271h3.369c1.1,0,2.352,0.729,2.78,1.617
	c0.429,0.894,1.681,1.618,2.779,1.618h3.21c1.102,0,2-0.897,2-2v-6.071c0-1.101-0.226-2.873-0.498-3.938L125.222,279.098z
	 M73.294,300.689c-0.951,0.553-2.463,0.479-3.359-0.156l-8.85-6.313c-0.896-0.641-1.309-2.002-0.916-3.029l2.787-7.32
	c0.393-1.026,1.611-1.869,2.712-1.869h12.58c1.101,0,2.233,0.869,2.521,1.937l2.379,8.813c0.287,1.063-0.258,2.384-1.209,2.938
	L73.294,300.689z"/>
<path id="Busan" fill="#F2C379" stroke="#FFFFFF" stroke-width="2.5" stroke-dasharray="4" d="M200.188,294.975
	c-0.836,0.715-1.746,2.172-2.023,3.233l-3.465,13.3c-0.276,1.063,0,2.682,0.617,3.592l3.847,5.67
	c0.618,0.908,1.569,0.875,2.116-0.08l0.523-0.918c0.547-0.955,0.827-2.621,0.625-3.703l-0.482-2.58
	c-0.202-1.079-0.006-2.786,0.438-3.797l2.313-5.246c0.443-1.006,1.646-2.151,2.674-2.551l25.66-9.91
	c1.025-0.396,1.865-1.621,1.865-2.721v-7.513c0-1.102,0.633-2.401,1.403-2.897c0.771-0.494,1.402-1.627,1.402-2.521
	c0-0.893-0.776-2.069-1.729-2.625l-4.789-2.793c-0.951-0.557-2.412-0.422-3.248,0.293L200.188,294.975z"/>
<path id="Ulsan" fill="#F2C379" stroke="#FFFFFF" stroke-width="2.5" stroke-dasharray="4" d="M233.448,242.473
	c-1.036-0.369-2.555-0.072-3.373,0.662l-5.442,4.885c-0.818,0.733-2.072,2.021-2.787,2.854l-0.316,0.371
	c-0.713,0.838-0.762,2.246-0.105,3.129l7.093,9.574c0.655,0.883,1.141,2.506,1.077,3.604l-0.021,0.358
	c-0.063,1.099,0.664,2.447,1.615,3.004l4.789,2.793c0.95,0.556,2.559,0.658,3.572,0.23l4.03-1.689
	c1.015-0.426,1.845-1.674,1.845-2.771v-2.113c0-1.1,0.629-2.646,1.396-3.432l0.363-0.375c0.77-0.787,1.568-2.313,1.781-3.396
	l1.839-9.391c0.212-1.08-0.463-2.268-1.499-2.635L233.448,242.473z"/>
<path id="Gyeongnam" fill="#F2C379" stroke="#FFFFFF" stroke-width="2.5" stroke-dasharray="4" d="M227.938,271.208
	c0.836-0.715,1.569-2.198,1.633-3.297l0.021-0.358c0.063-1.099-0.423-2.722-1.076-3.604l-7.094-9.574
	c-0.654-0.883-0.605-2.291,0.106-3.129l0.315-0.371c0.714-0.836,0.397-1.521-0.702-1.521h-54.421c-1.101,0-2-0.899-2-2v-6.483
	c0-1.101-0.838-2.328-1.862-2.729l-18.379-7.205c-1.024-0.399-2.184,0.111-2.574,1.142l-16.471,43.213
	c-0.393,1.028-0.488,2.739-0.214,3.809l11.983,46.563c0.272,1.063,1.383,2.104,2.462,2.313l14.671,2.84
	c1.079,0.209,1.964-0.521,1.964-1.621v-7.147c0-1.104,0.899-2,2-2h14.552c1.102,0,2.743,0.508,3.653,1.127l10.422,7.104
	c0.908,0.619,2.554,1.127,3.651,1.127h3.721c1.102,0,2.446-0.78,2.993-1.734l2-3.496c0.546-0.955,0.486-2.481-0.131-3.395
	l-3.846-5.67c-0.619-0.91-0.896-2.523-0.619-3.592l3.466-13.301c0.276-1.063,1.188-2.521,2.022-3.232L227.938,271.208z"/>
<path id="Daegu" fill="#F2C379" stroke="#FFFFFF" stroke-width="2.5" stroke-dasharray="4" d="M201.278,221.921
	c-0.422-1.016-1.623-2.127-2.668-2.471l-7.252-2.387c-1.045-0.344-2.633-0.104-3.53,0.533l-10.423,7.396
	c-0.896,0.637-1.631,2.059-1.631,3.155v19.201c0,1.101,0.899,2,2,2h10.574c1.102,0,2.541-0.72,3.2-1.601l11.972-15.946
	c0.66-0.882,0.854-2.433,0.434-3.447L201.278,221.921z"/>
<path id="Jeonbuk" fill="#F2C379" stroke="#FFFFFF" stroke-width="2.5" stroke-dasharray="4" d="M70.063,265.532
	c0.826-0.729,2.258-0.83,3.182-0.231l16.643,10.771c0.923,0.602,2.579,1.09,3.679,1.09h29.158c1.1,0,2.319-0.844,2.711-1.869
	l16.471-43.213c0.394-1.028,0.713-2.77,0.713-3.869v-7.25c0-1.1-0.898-2-2-2H63.917c-1.102,0-2.898,0-4,0h-4.771
	c-1.101,0-1.809,0.881-1.575,1.955l0.557,2.566c0.232,1.074,1.137,2.256,2.008,2.625c0.87,0.369,1.648,1.566,1.729,2.666
	l0.681,9.209c0.081,1.098-0.257,2.799-0.751,3.781L45.978,265.28c-0.494,0.98-0.216,2.371,0.619,3.092l8.717,7.48
	c0.834,0.719,2.193,0.709,3.021-0.02L70.063,265.532z"/>
<path id="Gyeongbuk" fill="#F2C379" stroke="#FFFFFF" stroke-width="2.5" stroke-dasharray="4" d="M255.794,207.93
	c-0.879-0.662-1.6-0.304-1.6,0.797v1.756c0,1.101-0.813,2.381-1.813,2.847l-4.096,1.907c-0.997,0.466-2.207,0.035-2.688-0.952
	v-0.003c-0.482-0.989-0.246-1.961,0.525-2.157c0.771-0.195,1.403-1.261,1.403-2.358v-2.835c0-1.101-0.531-2.728-1.182-3.614
	l-1.851-2.527c-0.647-0.887-1.112-2.512-1.03-3.606l2.508-33.422c0.082-1.098,0.701-2.48,1.377-3.072
	c0.676-0.594,1.334-1.975,1.463-3.066l0.926-7.897c0.13-1.093-0.281-2.717-0.924-3.609l-2.578-3.588
	c-0.642-0.893-1-2.508-0.795-3.588l1.363-7.222c0.203-1.081-0.062-2.756-0.588-3.722l-3.482-6.382
	c-0.526-0.965-1.85-1.633-2.938-1.482l-50.464,6.918c-1.09,0.148-2.271,1.124-2.623,2.166l-6.609,19.507
	c-0.354,1.041-1.5,1.623-2.55,1.291l-9.87-3.113c-1.049-0.33-2.617-0.049-3.488,0.625l-19.469,15.082
	c-0.869,0.674-1.58,2.125-1.58,3.225v23.01c0,1.101,0.805,2.398,1.789,2.894l7.734,3.854c0.983,0.492,1.371,1.689,0.856,2.662
	l-9.977,18.943c-0.515,0.975-0.935,2.67-0.935,3.77v7.25c0,1.101,0.839,2.328,1.863,2.729l18.379,7.205
	c1.024,0.4,1.862,1.629,1.862,2.729v6.483c0,1.101,0.899,2,2,2h7.054c1.1,0,2-0.899,2-2v-19.201c0-1.1,0.733-2.52,1.631-3.155
	l10.423-7.396c0.897-0.638,2.485-0.877,3.53-0.533l7.252,2.387c1.045,0.345,2.246,1.455,2.668,2.472l2.676,6.438
	c0.422,1.018,0.229,2.566-0.434,3.447l-11.972,15.947c-0.66,0.881-0.302,1.6,0.8,1.6h28.793c1.102,0,2.67-0.6,3.489-1.334
	l5.441-4.885c0.82-0.733,2.338-1.031,3.373-0.662l15.856,5.664c1.035,0.369,2.058-0.211,2.269-1.291l6.8-34.727
	c0.212-1.08-0.335-2.505-1.216-3.164L255.794,207.93z"/>
<path id="Chungbuk" fill="#F2C379" stroke="#FFFFFF" stroke-width="2.5" stroke-dasharray="4" d="M144.933,191.729
	c-0.984-0.492-1.789-1.793-1.789-2.894v-23.009c0-1.101,0.711-2.552,1.58-3.226l19.469-15.082c0.871-0.674,2.439-0.955,3.488-0.623
	l9.87,3.112c1.05,0.331,2.195-0.251,2.55-1.292l6.609-19.506c0.354-1.043-0.25-2.019-1.34-2.17l-49.721-6.91
	c-1.09-0.149-2.674,0.3-3.521,1l-24.288,20.111c-0.847,0.701-1.05,2.029-0.45,2.951l5.978,9.195c0.6,0.922,0.397,2.252-0.448,2.955
	l-3.896,3.239c-0.847,0.703-1.356,2.16-1.137,3.236l2.748,13.369c0.221,1.078,1.141,2.474,2.043,3.104l4.615,3.222
	c0.9,0.631,1.382,2.008,1.066,3.061l-3.33,11.144c-0.313,1.055-0.09,2.676,0.5,3.604l10.753,16.947
	c0.589,0.928,1.972,1.688,3.071,1.688h11.263c1.102,0,2.419-0.795,2.934-1.77l9.977-18.943c0.515-0.973,0.127-2.17-0.855-2.662
	L144.933,191.729z"/>
<path id="Daejeon" fill="#F2C379" stroke="#FFFFFF" stroke-width="2.5" stroke-dasharray="4" d="M108.167,200.501
	c1.001,0.457,2.591,0.365,3.532-0.203l1.049-0.633c0.941-0.567,1.97-1.895,2.283-2.948l3.33-11.144
	c0.314-1.053-0.166-2.43-1.066-3.061l-4.615-3.222c-0.902-0.63-1.727-0.249-1.83,0.848l-0.146,1.526
	c-0.105,1.098-1.09,1.989-2.19,1.989h-0.999c-1.1,0-2.314,0.845-2.701,1.873l-3.598,9.611c-0.386,1.028,0.118,2.246,1.119,2.7
	L108.167,200.501z"/>
<path id="Sejong" fill="#F2C379" stroke="#FFFFFF" stroke-width="2.5" stroke-dasharray="4" d="M105.121,181.696
	c0.216,1.078,1.293,1.961,2.393,1.961h0.999c1.101,0,2.085-0.895,2.19-1.99l0.146-1.526c0.104-1.097,0.008-2.873-0.213-3.949
	l-2.748-13.369c-0.221-1.077-1.262-2.225-2.313-2.549l-3.152-0.978c-1.051-0.323-1.732,0.291-1.518,1.37L105.121,181.696z"/>
<path id="Chungnam" fill="#F2C379" stroke="#FFFFFF" stroke-width="2.5" stroke-dasharray="4" d="M115.53,200.321
	c-0.59-0.93-1.842-1.225-2.783-0.656l-1.049,0.633c-0.941,0.568-2.531,0.66-3.532,0.203l-5.833-2.657
	c-1.001-0.455-1.505-1.673-1.119-2.701l3.598-9.611c0.387-1.028,0.524-2.756,0.31-3.834l-4.216-21.03
	c-0.215-1.079,0.468-1.693,1.519-1.37l3.152,0.978c1.051,0.324,2.603,0.016,3.448-0.688l3.896-3.239
	c0.846-0.703,1.048-2.033,0.448-2.955l-5.978-9.195c-0.6-0.922-1.976-1.834-3.06-2.025l-37.642-6.676
	c-1.084-0.19-2.868-0.35-3.97-0.35h-1.264c-1.102,0-2.645-0.627-3.434-1.396l-4.15-4.043c-0.788-0.769-2.333-1.396-3.433-1.396
	h-3.369c-1.1,0-2.604,0.666-3.343,1.48l-17.309,19.11c-0.739,0.815-1.209,2.373-1.045,3.461l0.47,3.123
	c0.164,1.086-0.13,2.769-0.653,3.736l-0.228,0.422c-0.523,0.967-0.095,2.035,0.952,2.373l7.358,2.379
	c1.047,0.338,2.214,1.459,2.594,2.492l6.408,17.446c0.379,1.031,1.44,2.373,2.357,2.98l6.59,4.357
	c0.917,0.606,1.354,1.947,0.968,2.979l-1.938,5.193c-0.385,1.029-0.175,2.604,0.466,3.497l10.032,13.988
	c0.641,0.896,2.064,1.625,3.165,1.625h61.438c1.101,0,1.519-0.761,0.93-1.688L115.53,200.321z"/>
<path id="Gangwon" fill="#F2C379" stroke="#FFFFFF" stroke-width="2.5" stroke-dasharray="4" d="M239.797,120.126
	c1.09-0.147,1.552-1.063,1.021-2.026L180.417,7.4c-0.526-0.965-1.798-2.078-2.823-2.473l-4.688-1.804
	c-1.025-0.395-1.866,0.183-1.866,1.281v10.029c0,1.101-0.396,2.646-0.878,3.438c-0.481,0.792-1.51,1.439-2.28,1.439
	c-0.771,0-1.642-0.567-1.931-1.26c-0.289-0.691-1.426-1.259-2.525-1.259h-5.474c-1.101,0-2.089,0.896-2.193,1.99l-0.666,6.812
	c-0.105,1.094-1.095,1.989-2.193,1.989h-54.57c-1.102,0-1.404,0.677-0.678,1.5l22.593,25.603c0.728,0.824,1.026,2.349,0.663,3.388
	l-3.942,11.288c-0.362,1.039-0.172,2.645,0.427,3.568l6.25,9.672c0.596,0.924,1.954,1.909,3.018,2.188l8.766,2.314
	c1.063,0.281,1.832,1.405,1.707,2.498l-3.23,28.263c-0.125,1.094,0.664,2.11,1.754,2.263l49.723,6.91
	c1.09,0.15,2.872,0.152,3.963,0.005L239.797,120.126z"/>
<path id="Gyeonggi" fill="#F2C379" stroke="#FFFFFF" stroke-width="2.5" stroke-dasharray="4" d="M126.655,84.793
	c-1.063-0.279-2.422-1.267-3.019-2.189l-6.25-9.672c-0.598-0.924-0.788-2.529-0.426-3.568l3.942-11.287
	c0.363-1.039,0.063-2.563-0.664-3.389l-22.59-25.601c-0.729-0.825-2.224-1.5-3.323-1.5h-9.357c-1.101,0-2.429,0.791-2.953,1.759
	L62.87,64.68c-0.524,0.967-1.804,1.46-2.842,1.098l-11.664-4.076c-1.038-0.362-1.695,0.22-1.46,1.294l4.233,19.335
	c0.235,1.074,1.284,1.677,2.33,1.337l6.723-2.179c1.045-0.338,2.576-0.021,3.399,0.709l2.794,2.471
	c0.824,0.729,2.224,0.792,3.109,0.142l7.828-5.75c0.887-0.652,1.995-2,2.465-2.994l0.926-1.969c0.469-0.994,1.729-1.611,2.803-1.367
	l7.003,1.584c1.072,0.243,1.95,1.342,1.95,2.44v3.324c0,1.101,0.558,2.708,1.236,3.572l1.887,2.396
	c0.681,0.864,0.804,2.36,0.272,3.324l-3.334,6.057c-0.53,0.963-1.854,1.615-2.94,1.45l-10.256-1.563
	c-1.088-0.166-2.326-1.131-2.752-2.146l-0.031-0.07c-0.426-1.016-1.587-2.231-2.58-2.705l-0.599-0.285
	c-0.993-0.473-2.335-0.131-2.979,0.759l-5.896,8.125c-0.646,0.89-1.405,2.489-1.688,3.552l-4.59,17.355
	c-0.281,1.063,0.307,2.312,1.305,2.771l3.385,1.563c0.998,0.461,1.816,1.738,1.816,2.838v6.072c0,1.1,0.885,2.156,1.969,2.349
	l37.642,6.676c1.084,0.192,2.663-0.226,3.51-0.926l24.287-20.111c0.849-0.7,1.644-2.169,1.769-3.262l3.229-28.263
	c0.125-1.093-0.645-2.217-1.707-2.498L126.655,84.793z"/>
<path id="Seoul" fill="#F2C379" stroke="#FFFFFF" stroke-width="2.5" stroke-dasharray="4" d="M76.582,93.169
	c0.426,1.015,1.664,1.979,2.752,2.146l10.256,1.563c1.087,0.166,2.41-0.486,2.941-1.449l3.332-6.058
	c0.531-0.963,0.408-2.459-0.271-3.324l-1.887-2.397c-0.68-0.863-1.236-2.471-1.236-3.571v-3.324c0-1.101-0.878-2.197-1.951-2.439
	l-7.001-1.586c-1.073-0.242-2.334,0.373-2.804,1.369l-0.926,1.967c-0.47,0.996-1.578,2.342-2.466,2.994l-7.827,5.752
	c-0.887,0.65-0.938,1.779-0.113,2.508l0.688,0.607c0.824,0.729,2.311,1.713,3.304,2.186l0.599,0.285
	c0.993,0.474,2.154,1.688,2.58,2.705L76.582,93.169z"/>
<path id="Incheon" fill="#F2C379" stroke="#FFFFFF" stroke-width="2.5" stroke-dasharray="4" d="M63.588,82.196
	c-0.823-0.729-2.354-1.047-3.399-0.709l-6.723,2.179c-1.046,0.339-2.095-0.263-2.33-1.337l-4.233-19.335
	c-0.235-1.073-1.171-1.445-2.079-0.825l-14.593,9.976c-0.907,0.62-1.65,2.026-1.65,3.127v2.476c0,1.102,0.84,2.323,1.866,2.719
	l4.688,1.803c1.027,0.395,2.242,1.535,2.699,2.535l6.406,13.988c0.457,1,1.732,1.817,2.832,1.817h14.246
	c1.101,0,2.529-0.729,3.176-1.619l5.896-8.125c0.646-0.889,0.5-2.215-0.324-2.942L63.588,82.196z"/>
</svg>
