<?xml version="1.0" encoding="utf-8"?>
<!-- Generator: Adobe Illustrator 16.0.0, SVG Export Plug-In . SVG Version: 6.00 Build 0)  -->
<!DOCTYPE svg PUBLIC "-//W3C//DTD SVG 1.1//EN" "http://www.w3.org/Graphics/SVG/1.1/DTD/svg11.dtd">
<svg version="1.1" id="레이어_1" xmlns="http://www.w3.org/2000/svg" xmlns:xlink="http://www.w3.org/1999/xlink" x="0px"
	 y="0px" width="841.89px" height="595.28px" viewBox="0 0 841.89 595.28" enable-background="new 0 0 841.89 595.28"
	 xml:space="preserve">
<path id="Jeju" fill="#fefefe" stroke="#576870" stroke-width="3" stroke-linecap="round" stroke-linejoin="round" stroke-miterlimit="10" d="
	M26.971,425.573c-0.561-0.945-0.21-2.113,0.78-2.592l18.199-8.814c0.99-0.479,2.694-0.969,3.787-1.09l23.561-2.604
	c1.093-0.121,2.692,0.34,3.555,1.021l6.329,5.02c0.862,0.684,0.916,1.859,0.12,2.619l-15.177,14.479
	c-0.796,0.76-2.347,1.381-3.447,1.381l-19.518,0.01c-1.101,0-2.665,0.607-3.478,1.348l-3.928,3.586
	c-0.813,0.74-1.937,0.572-2.497-0.369L26.971,425.573z"/>
<path id="Gwangju" fill="#fefefe" stroke="#576870" stroke-width="3" stroke-linecap="round" stroke-linejoin="round" stroke-miterlimit="10" d="
	M65.26,280.998c-1.101,0-2.32,0.842-2.712,1.869l-2.787,7.322c-0.392,1.023,0.021,2.393,0.916,3.025l8.85,6.314
	c0.896,0.639,2.408,0.709,3.359,0.156l8.645-5.014c0.951-0.55,1.496-1.869,1.209-2.933l-2.379-8.818
	c-0.286-1.063-1.42-1.932-2.521-1.932L65.26,280.998L65.26,280.998z"/>
<path id="Jeonnam" fill="#fefefe" stroke="#576870" stroke-width="3" stroke-linecap="round" stroke-linejoin="round" stroke-miterlimit="10" d="
	M124.813,278.097c-0.275-1.065-1.398-1.938-2.5-1.938H93.157c-1.101,0-2.756-0.488-3.68-1.089L72.835,264.3
	c-0.923-0.598-2.354-0.491-3.182,0.232l-11.731,10.305c-0.826,0.729-2.186,0.732-3.021,0.021l-8.716-7.481
	c-0.835-0.72-1.922-0.498-2.416,0.481l-8.732,17.383c-0.494,0.98-1.782,1.962-2.862,2.171l-14.668,2.836
	c-1.08,0.209-1.64,1.261-1.401,2.332l0.759,4.011c0.238,1.07,1.334,1.949,2.434,1.949h0.21c1.101,0,1.903,0.896,1.784,1.986
	l-0.27,2.498c-0.119,1.096-1.115,1.986-2.216,1.986h-1.264c-1.101,0-2.201,0.877-2.448,1.947l-1.648,7.176
	c-0.246,1.07-1.219,2.41-2.16,2.979l-1.77,1.063c-0.943,0.564-1.333,1.908-1.086,2.979l3.858,17.516
	c0.247,1.07,1.349,1.949,2.449,1.949h0.909c1.1,0,1.56,0.783,1.021,1.742L3.89,365.14c-0.538,0.959-0.323,2.359,0.477,3.115
	l5.861,5.527c0.8,0.756,2.234,0.922,3.187,0.369l10.222-5.91c0.952-0.553,2.521-0.598,3.485-0.104c0.965,0.492,1.755,0,1.755-1.104
	v-2.479c0-1.102-0.395-2.402-0.878-2.896c-0.482-0.494-0.877-1.627-0.877-2.521c0-0.893,0.896-1.539,1.992-1.438l4.086,0.361
	c1.096,0.102,2.621-0.467,3.389-1.254l3.173-3.252c0.768-0.787,2.087-0.854,2.93-0.146l8.457,7.082
	c0.843,0.707,2.413,1.096,3.487,0.855l2.464-0.535c1.075-0.23,2.698,0.082,3.606,0.701l0.27,0.188c0.91,0.615,2.552,1.068,3.65,1.01
	l25.061-1.479c1.1-0.063,1.997-1.018,1.997-2.113v-3.188c0-1.105,0.899-2,2-2h0.562c1.101,0,2.314,0.398,2.701,0.895
	c0.387,0.492,1.51,0.504,2.498,0.021l11.846-5.799c0.988-0.48,1.797-0.066,1.797,0.922s0.71,1.799,1.578,1.799
	c0.867,0,2.337-0.48,3.263-1.078l2.247-1.438c0.926-0.594,1.383-1.928,1.016-2.965l-2.873-8.104
	c-0.369-1.035,0.026-2.455,0.877-3.15l0.416-0.342c0.852-0.695,2.446-1.271,3.547-1.271h3.369c1.1,0,2.352,0.729,2.78,1.617
	c0.429,0.895,1.681,1.617,2.779,1.617h3.21c1.102,0,2-0.896,2-2v-6.07c0-1.102-0.226-2.873-0.498-3.938L124.813,278.097z
	 M72.886,299.69c-0.951,0.553-2.463,0.479-3.359-0.156l-8.85-6.314c-0.895-0.64-1.308-2.002-0.916-3.028l2.787-7.32
	c0.392-1.026,1.611-1.869,2.712-1.869h12.58c1.101,0,2.234,0.869,2.521,1.937l2.379,8.813c0.287,1.063-0.258,2.384-1.209,2.938
	L72.886,299.69z"/>
<path id="Busan" fill="#fefefe" stroke="#576870" stroke-width="3" stroke-linecap="round" stroke-linejoin="round" stroke-miterlimit="10" d="
	M199.78,293.975c-0.836,0.715-1.746,2.172-2.023,3.233l-3.465,13.299c-0.276,1.064,0,2.684,0.617,3.594l3.847,5.67
	c0.618,0.906,1.569,0.875,2.116-0.08l0.523-0.918c0.547-0.955,0.827-2.621,0.625-3.703l-0.482-2.58
	c-0.202-1.08-0.006-2.787,0.438-3.797l2.313-5.246c0.443-1.006,1.646-2.152,2.674-2.551l25.66-9.911
	c1.025-0.396,1.865-1.621,1.865-2.721v-7.513c0-1.102,0.633-2.401,1.403-2.897c0.771-0.494,1.402-1.627,1.402-2.521
	c0-0.893-0.776-2.069-1.729-2.625l-4.789-2.793c-0.951-0.557-2.412-0.422-3.248,0.293L199.78,293.975z"/>
<path id="Ulsan" fill="#fefefe" stroke="#576870" stroke-width="3" stroke-linecap="round" stroke-linejoin="round" stroke-miterlimit="10" d="
	M233.04,241.472c-1.036-0.368-2.555-0.071-3.373,0.662l-5.442,4.886c-0.818,0.733-2.072,2.021-2.787,2.854l-0.316,0.371
	c-0.713,0.838-0.762,2.246-0.105,3.129l7.093,9.574c0.655,0.883,1.141,2.506,1.077,3.604l-0.021,0.359
	c-0.063,1.098,0.664,2.447,1.615,3.004l4.789,2.793c0.95,0.555,2.559,0.658,3.572,0.23l4.03-1.689
	c1.015-0.426,1.845-1.674,1.845-2.771v-2.113c0-1.101,0.629-2.646,1.396-3.433l0.363-0.375c0.77-0.786,1.569-2.313,1.781-3.396
	l1.839-9.391c0.212-1.08-0.463-2.268-1.499-2.636L233.04,241.472z"/>
<path id="Gyeongnam" fill="#fefefe" stroke="#576870" stroke-width="3" stroke-linecap="round" stroke-linejoin="round" stroke-miterlimit="10" d="
	M227.53,270.208c0.836-0.715,1.569-2.199,1.633-3.297l0.021-0.359c0.063-1.098-0.422-2.721-1.076-3.604l-7.094-9.574
	c-0.654-0.883-0.605-2.291,0.106-3.129l0.315-0.371c0.714-0.836,0.397-1.521-0.702-1.521h-54.421c-1.101,0-2-0.899-2-2v-6.483
	c0-1.101-0.838-2.328-1.862-2.729l-18.379-7.205c-1.024-0.399-2.184,0.11-2.574,1.142l-16.471,43.213
	c-0.393,1.028-0.488,2.739-0.214,3.809l11.983,46.563c0.272,1.063,1.383,2.104,2.463,2.313l14.67,2.84
	c1.08,0.209,1.964-0.521,1.964-1.621v-7.148c0-1.104,0.899-2,2-2h14.552c1.102,0,2.743,0.51,3.653,1.127l10.422,7.105
	c0.908,0.619,2.554,1.127,3.651,1.127h3.721c1.102,0,2.446-0.781,2.993-1.736l2-3.496c0.546-0.955,0.486-2.48-0.131-3.393
	l-3.846-5.67c-0.619-0.91-0.896-2.525-0.619-3.594l3.466-13.301c0.276-1.063,1.188-2.52,2.022-3.231L227.53,270.208z"/>
<path id="Daegu" fill="#fefefe" stroke="#576870" stroke-width="3" stroke-linecap="round" stroke-linejoin="round" stroke-miterlimit="10" d="
	M200.87,220.921c-0.422-1.016-1.623-2.127-2.668-2.471l-7.252-2.388c-1.045-0.343-2.633-0.104-3.53,0.534l-10.423,7.396
	c-0.896,0.637-1.631,2.059-1.631,3.155v19.201c0,1.101,0.899,2,2,2h10.574c1.102,0,2.541-0.72,3.2-1.601l11.972-15.945
	c0.66-0.881,0.854-2.432,0.434-3.446L200.87,220.921z"/>
<path id="Jeonbuk" fill="#fefefe" stroke="#576870" stroke-width="3" stroke-linecap="round" stroke-linejoin="round" stroke-miterlimit="10" d="
	M69.654,264.534c0.827-0.729,2.259-0.83,3.182-0.232l16.643,10.771c0.923,0.602,2.579,1.09,3.679,1.09h29.158
	c1.1,0,2.319-0.844,2.711-1.869l16.471-43.213c0.394-1.029,0.713-2.771,0.713-3.869v-7.25c0-1.1-0.898-2-2-2H63.509
	c-1.101,0-2.899,0-4,0h-4.771c-1.101,0-1.809,0.881-1.575,1.955l0.557,2.566c0.233,1.073,1.137,2.256,2.008,2.625
	c0.87,0.368,1.648,1.566,1.729,2.666l0.68,9.209c0.081,1.098-0.257,2.799-0.751,3.78l-11.818,23.519
	c-0.494,0.979-0.216,2.371,0.619,3.092l8.716,7.479c0.835,0.72,2.194,0.709,3.021-0.019L69.654,264.534z"/>
<path id="Gyeongbuk" fill="#fefefe" stroke="#576870" stroke-width="3" stroke-linecap="round" stroke-linejoin="round" stroke-miterlimit="10" d="
	M255.385,206.929c-0.88-0.661-1.601-0.303-1.601,0.798v1.756c0,1.101-0.813,2.381-1.813,2.847l-4.096,1.907
	c-0.997,0.466-2.207,0.035-2.688-0.952v-0.003c-0.482-0.989-0.246-1.961,0.525-2.157s1.403-1.261,1.403-2.357v-2.834
	c0-1.102-0.531-2.729-1.182-3.615l-1.851-2.527c-0.647-0.887-1.112-2.512-1.03-3.607l2.508-33.422
	c0.082-1.097,0.701-2.479,1.377-3.071c0.676-0.595,1.334-1.975,1.463-3.066l0.926-7.897c0.13-1.094-0.281-2.718-0.924-3.609
	l-2.578-3.588c-0.642-0.894-1-2.508-0.795-3.588l1.363-7.223c0.203-1.081-0.062-2.755-0.588-3.721l-3.482-6.382
	c-0.526-0.965-1.85-1.633-2.938-1.483l-50.464,6.918c-1.09,0.149-2.271,1.124-2.622,2.166l-6.61,19.507
	c-0.354,1.041-1.5,1.623-2.55,1.291l-9.87-3.112c-1.049-0.33-2.617-0.049-3.488,0.625l-19.469,15.081
	c-0.869,0.675-1.58,2.125-1.58,3.226v23.009c0,1.101,0.805,2.399,1.789,2.895l7.735,3.854c0.982,0.492,1.37,1.689,0.855,2.662
	l-9.977,18.943c-0.515,0.975-0.935,2.67-0.935,3.77v7.25c0,1.101,0.839,2.328,1.863,2.729l18.379,7.205
	c1.024,0.399,1.862,1.629,1.862,2.729v6.483c0,1.101,0.899,2,2,2h7.054c1.1,0,2-0.899,2-2v-19.201c0-1.101,0.733-2.521,1.631-3.155
	l10.423-7.396c0.897-0.639,2.485-0.877,3.53-0.533l7.252,2.387c1.045,0.344,2.246,1.455,2.668,2.471l2.676,6.438
	c0.422,1.017,0.229,2.565-0.434,3.447l-11.972,15.946c-0.66,0.881-0.302,1.601,0.8,1.601h28.793c1.102,0,2.67-0.601,3.489-1.334
	l5.441-4.886c0.82-0.732,2.338-1.03,3.373-0.661l15.856,5.663c1.036,0.369,2.058-0.211,2.269-1.291l6.8-34.727
	c0.212-1.08-0.335-2.504-1.216-3.164L255.385,206.929z"/>
<path id="Chungbuk" fill="#fefefe" stroke="#576870" stroke-width="3" stroke-linecap="round" stroke-linejoin="round" stroke-miterlimit="10" d="
	M144.524,190.729c-0.984-0.492-1.789-1.793-1.789-2.894v-23.009c0-1.101,0.711-2.552,1.58-3.226l19.469-15.082
	c0.871-0.674,2.439-0.955,3.488-0.623l9.87,3.111c1.05,0.331,2.195-0.251,2.55-1.292l6.609-19.506
	c0.354-1.042-0.25-2.018-1.34-2.169l-49.722-6.911c-1.09-0.15-2.674,0.3-3.521,1l-24.288,20.111c-0.847,0.701-1.05,2.029-0.45,2.951
	l5.978,9.194c0.6,0.923,0.397,2.252-0.448,2.955l-3.896,3.24c-0.847,0.703-1.356,2.16-1.137,3.236l2.748,13.368
	c0.221,1.079,1.141,2.475,2.043,3.104l4.615,3.221c0.9,0.632,1.382,2.009,1.066,3.062l-3.33,11.143
	c-0.313,1.056-0.09,2.676,0.5,3.605l10.753,16.947c0.589,0.928,1.972,1.688,3.071,1.688h11.263c1.102,0,2.419-0.795,2.934-1.77
	l9.977-18.943c0.515-0.973,0.127-2.17-0.855-2.662L144.524,190.729z"/>
<path id="Daejeon" fill="#fefefe" stroke="#576870" stroke-width="3" stroke-linecap="round" stroke-linejoin="round" stroke-miterlimit="10" d="
	M107.758,199.501c1.001,0.457,2.591,0.365,3.532-0.203l1.049-0.633c0.941-0.568,1.97-1.895,2.283-2.949l3.33-11.143
	c0.314-1.053-0.166-2.43-1.066-3.061l-4.615-3.222c-0.902-0.63-1.727-0.249-1.83,0.849l-0.146,1.525
	c-0.105,1.098-1.09,1.989-2.19,1.989h-0.999c-1.1,0-2.314,0.845-2.701,1.873l-3.598,9.611c-0.386,1.028,0.118,2.245,1.119,2.7
	L107.758,199.501z"/>
<path id="Sejong" fill="#fefefe" stroke="#576870" stroke-width="3" stroke-linecap="round" stroke-linejoin="round" stroke-miterlimit="10" d="
	M104.712,180.698c0.216,1.078,1.293,1.961,2.393,1.961h0.999c1.101,0,2.085-0.896,2.19-1.99l0.146-1.526
	c0.104-1.097,0.008-2.873-0.213-3.949l-2.748-13.369c-0.221-1.077-1.262-2.225-2.313-2.549l-3.152-0.978
	c-1.051-0.323-1.732,0.291-1.518,1.37L104.712,180.698z"/>
<path id="Chungnam" fill="#fefefe" stroke="#576870" stroke-width="3" stroke-linecap="round" stroke-linejoin="round" stroke-miterlimit="10" d="
	M115.122,199.323c-0.59-0.931-1.842-1.226-2.783-0.656l-1.049,0.633c-0.941,0.568-2.531,0.66-3.532,0.203l-5.833-2.657
	c-1.001-0.455-1.505-1.673-1.119-2.701l3.598-9.611c0.387-1.028,0.524-2.756,0.31-3.834l-4.216-21.03
	c-0.215-1.079,0.468-1.693,1.519-1.37l3.152,0.978c1.051,0.324,2.603,0.016,3.448-0.688l3.896-3.239
	c0.846-0.703,1.048-2.033,0.448-2.955l-5.978-9.195c-0.6-0.922-1.976-1.834-3.06-2.024l-37.641-6.677
	c-1.084-0.19-2.869-0.35-3.97-0.35h-1.264c-1.101,0-2.645-0.627-3.433-1.396l-4.151-4.043c-0.788-0.769-2.333-1.396-3.433-1.396
	h-3.369c-1.1,0-2.604,0.666-3.343,1.48l-17.309,19.11c-0.739,0.816-1.209,2.373-1.045,3.461l0.47,3.123
	c0.164,1.086-0.13,2.77-0.653,3.736l-0.228,0.422c-0.523,0.967-0.095,2.035,0.952,2.373l7.359,2.379
	c1.047,0.338,2.214,1.459,2.593,2.492l6.409,17.446c0.379,1.031,1.44,2.373,2.357,2.98l6.59,4.358
	c0.917,0.605,1.354,1.946,0.969,2.979l-1.938,5.193c-0.385,1.03-0.175,2.604,0.466,3.498l10.028,13.984
	c0.641,0.896,2.064,1.625,3.165,1.625h61.438c1.101,0,1.519-0.761,0.93-1.688L115.122,199.323z"/>
<path id="Gangwon" fill="#fefefe" stroke="#576870" stroke-width="3" stroke-linecap="round" stroke-linejoin="round" stroke-miterlimit="10" d="
	M239.388,119.126c1.09-0.147,1.552-1.063,1.021-2.026L180.007,6.401c-0.526-0.965-1.798-2.078-2.823-2.474l-4.688-1.803
	c-1.025-0.396-1.866,0.183-1.866,1.281v10.029c0,1.101-0.396,2.646-0.878,3.438c-0.481,0.792-1.51,1.438-2.28,1.438
	c-0.771,0-1.642-0.566-1.931-1.26c-0.289-0.69-1.426-1.259-2.525-1.259h-5.474c-1.101,0-2.089,0.896-2.193,1.991l-0.666,6.811
	c-0.105,1.095-1.095,1.99-2.193,1.99h-54.57c-1.102,0-1.404,0.676-0.678,1.5l22.593,25.602c0.728,0.824,1.026,2.35,0.663,3.389
	l-3.942,11.288c-0.362,1.039-0.172,2.644,0.427,3.567l6.25,9.672c0.596,0.925,1.954,1.91,3.018,2.189l8.766,2.314
	c1.063,0.28,1.832,1.405,1.707,2.498l-3.23,28.263c-0.125,1.093,0.664,2.11,1.754,2.262l49.723,6.911
	c1.09,0.15,2.873,0.152,3.963,0.004L239.388,119.126z"/>
<path id="Gyeonggi" fill="#fefefe" stroke="#576870" stroke-width="3" stroke-linecap="round" stroke-linejoin="round" stroke-miterlimit="10" d="
	M126.247,83.793c-1.063-0.28-2.422-1.267-3.019-2.189l-6.25-9.672c-0.598-0.925-0.788-2.529-0.426-3.568l3.942-11.287
	c0.363-1.039,0.063-2.563-0.664-3.389L97.24,28.086c-0.729-0.824-2.224-1.5-3.323-1.5H84.56c-1.101,0-2.429,0.792-2.953,1.76
	L62.46,63.68c-0.524,0.967-1.803,1.461-2.841,1.098l-11.664-4.076c-1.038-0.363-1.695,0.22-1.46,1.294l4.233,19.335
	c0.235,1.074,1.284,1.676,2.33,1.337l6.722-2.179c1.046-0.338,2.577-0.021,3.4,0.709l2.794,2.471
	c0.824,0.729,2.224,0.792,3.109,0.142l7.828-5.75c0.887-0.652,1.996-2,2.465-2.995l0.926-1.968c0.469-0.994,1.73-1.611,2.803-1.367
	l7.002,1.584c1.072,0.244,1.95,1.342,1.95,2.44v3.324c0,1.101,0.558,2.708,1.236,3.572l1.887,2.396
	c0.681,0.864,0.804,2.36,0.272,3.324l-3.334,6.056c-0.53,0.964-1.854,1.616-2.94,1.451l-10.256-1.563
	c-1.088-0.166-2.326-1.131-2.752-2.146l-0.031-0.07c-0.426-1.016-1.587-2.231-2.58-2.705l-0.599-0.285
	c-0.993-0.473-2.335-0.131-2.98,0.759l-5.896,8.125c-0.646,0.89-1.405,2.489-1.687,3.552l-4.59,17.355
	c-0.281,1.063,0.306,2.312,1.305,2.771l3.385,1.563c0.998,0.461,1.815,1.738,1.815,2.838v6.072c0,1.1,0.886,2.156,1.97,2.349
	l37.641,6.676c1.084,0.192,2.663-0.226,3.51-0.926l24.287-20.11c0.849-0.7,1.644-2.17,1.769-3.263l3.229-28.263
	c0.125-1.092-0.645-2.217-1.707-2.498L126.247,83.793z"/>
<path id="Seoul" fill="#fefefe" stroke="#576870" stroke-width="3" stroke-linecap="round" stroke-linejoin="round" stroke-miterlimit="10" d="
	M76.173,92.169c0.426,1.015,1.664,1.979,2.752,2.146l10.256,1.563c1.087,0.166,2.41-0.487,2.941-1.45l3.332-6.057
	c0.531-0.963,0.408-2.459-0.271-3.324l-1.887-2.397c-0.68-0.863-1.236-2.471-1.236-3.571v-3.324c0-1.101-0.878-2.197-1.951-2.439
	l-7.001-1.586c-1.072-0.242-2.334,0.373-2.803,1.369l-0.926,1.967c-0.469,0.996-1.578,2.342-2.465,2.994l-7.828,5.752
	c-0.886,0.649-0.938,1.779-0.113,2.508l0.688,0.607c0.824,0.729,2.311,1.713,3.304,2.186l0.599,0.285
	c0.993,0.474,2.154,1.689,2.58,2.705L76.173,92.169z"/>
<path id="Incheon" fill="#fefefe" stroke="#576870" stroke-width="3" stroke-linecap="round" stroke-linejoin="round" stroke-miterlimit="10" d="
	M63.18,81.198c-0.823-0.729-2.354-1.047-3.4-0.709l-6.722,2.179c-1.046,0.339-2.095-0.263-2.33-1.337l-4.233-19.335
	c-0.235-1.074-1.171-1.446-2.079-0.825l-14.592,9.976c-0.908,0.621-1.651,2.026-1.651,3.127v2.476c0,1.101,0.84,2.323,1.866,2.718
	l4.688,1.803c1.027,0.396,2.242,1.535,2.699,2.535l6.406,13.989c0.457,1,1.732,1.817,2.832,1.817H60.91
	c1.1,0,2.529-0.729,3.175-1.619l5.896-8.125c0.646-0.889,0.501-2.215-0.323-2.942L63.18,81.198z"/>
<path id="Gangwon" fill="#fefefe" stroke="#576870" stroke-width="3" stroke-linecap="round" stroke-linejoin="round" stroke-miterlimit="10" d="
	M239.397,119.407c1.09-0.147,1.552-1.062,1.021-2.026L180.017,6.682c-0.527-0.966-1.798-2.079-2.824-2.475l-4.688-1.803
	c-1.025-0.396-1.865,0.183-1.865,1.282v10.029c0,1.101-0.396,2.646-0.878,3.438c-0.482,0.793-1.511,1.439-2.281,1.439
	c-0.771,0-1.642-0.566-1.931-1.26c-0.288-0.692-1.426-1.259-2.525-1.259h-5.473c-1.102,0-2.09,0.896-2.194,1.99l-0.666,6.811
	c-0.105,1.095-1.094,1.99-2.193,1.99h-54.57c-1.102,0-1.404,0.676-0.678,1.5l22.593,25.603c0.728,0.824,1.026,2.35,0.663,3.389
	l-3.942,11.287c-0.362,1.039-0.172,2.645,0.427,3.567l6.25,9.673c0.596,0.924,1.954,1.909,3.018,2.188l8.766,2.315
	c1.063,0.28,1.832,1.404,1.707,2.498l-3.23,28.263c-0.125,1.092,0.664,2.109,1.754,2.262l49.723,6.91
	c1.09,0.151,2.873,0.153,3.963,0.004L239.397,119.407z"/>
</svg>
