<?xml version="1.0" encoding="utf-8"?>
<!-- Generator: Adobe Illustrator 16.0.0, SVG Export Plug-In . SVG Version: 6.00 Build 0)  -->
<!DOCTYPE svg PUBLIC "-//W3C//DTD SVG 1.1//EN" "http://www.w3.org/Graphics/SVG/1.1/DTD/svg11.dtd">
<svg version="1.1" id="레이어_1" xmlns="http://www.w3.org/2000/svg" xmlns:xlink="http://www.w3.org/1999/xlink" x="0px"
	 y="0px" width="841.89px" height="595.28px" viewBox="0 0 841.89 595.28" enable-background="new 0 0 841.89 595.28"
	 xml:space="preserve">
<path id="Jeju" fill="#6168C0" stroke="#FFFFFF" stroke-miterlimit="10" d="M26.143,421.676
	c-0.555-0.938-0.208-2.094,0.772-2.566l18.018-8.721c0.98-0.475,2.667-0.959,3.749-1.078l23.325-2.58
	c1.083-0.118,2.667,0.336,3.519,1.015l6.267,4.969c0.854,0.676,0.906,1.846,0.119,2.595l-15.025,14.328
	c-0.788,0.752-2.324,1.367-3.413,1.367l-19.322,0.01c-1.09,0-2.639,0.602-3.443,1.335l-3.889,3.549
	c-0.804,0.733-1.917,0.566-2.472-0.368L26.143,421.676z"/>
<path id="Gwangju" fill="#7C85D0" stroke="#FFFFFF" d="M64.049,278.547c-1.089,0-2.297,0.834-2.685,1.852l-2.759,7.25
	c-0.388,1.018,0.021,2.367,0.907,2.998l8.761,6.25c0.888,0.634,2.384,0.701,3.326,0.156l8.559-4.959
	c0.941-0.546,1.48-1.853,1.196-2.904L79,280.46c-0.283-1.053-1.406-1.912-2.496-1.912L64.049,278.547L64.049,278.547z"/>
<path id="Jeonnam" fill="#7C85D0" stroke="#FFFFFF" d="M123.005,275.674c-0.271-1.057-1.385-1.918-2.474-1.918H91.665
	c-1.088,0-2.728-0.484-3.642-1.075l-16.476-10.664c-0.914-0.593-2.331-0.489-3.15,0.229l-11.614,10.201
	c-0.818,0.721-2.163,0.729-2.99,0.018l-8.629-7.408c-0.827-0.71-1.903-0.494-2.392,0.479l-8.646,17.209
	c-0.489,0.973-1.765,1.938-2.833,2.146l-14.522,2.809c-1.069,0.206-1.623,1.247-1.387,2.31l0.751,3.97
	c0.236,1.062,1.321,1.932,2.41,1.932h0.208c1.09,0,1.885,0.886,1.767,1.969l-0.267,2.473c-0.118,1.084-1.104,1.969-2.194,1.969
	h-1.251c-1.089,0-2.179,0.868-2.423,1.931l-1.632,7.102c-0.244,1.063-1.206,2.39-2.138,2.951l-1.752,1.056
	c-0.934,0.563-1.319,1.891-1.075,2.95l3.82,17.339c0.245,1.063,1.335,1.93,2.425,1.93h0.9c1.088,0,1.544,0.777,1.011,1.729
	L3.294,361.85c-0.533,0.949-0.32,2.338,0.472,3.086l5.803,5.473c0.792,0.748,2.212,0.912,3.155,0.367l10.119-5.854
	c0.943-0.545,2.496-0.591,3.451-0.101c0.956,0.49,1.738,0,1.738-1.09v-2.449c0-1.089-0.391-2.38-0.869-2.871
	c-0.478-0.49-0.869-1.611-0.869-2.492c0-0.882,0.888-1.523,1.972-1.428l4.045,0.361c1.084,0.098,2.594-0.461,3.354-1.241l3.142-3.22
	c0.76-0.778,2.066-0.845,2.9-0.146l8.372,7.013c0.834,0.698,2.389,1.082,3.453,0.85l2.439-0.529c1.064-0.23,2.671,0.082,3.57,0.694
	l0.267,0.182c0.901,0.614,2.526,1.063,3.614,0.997l24.81-1.457c1.088-0.063,1.977-1.008,1.977-2.096v-3.162
	c0-1.088,0.891-1.979,1.98-1.979h0.555c1.09,0,2.293,0.398,2.676,0.89c0.381,0.489,1.494,0.499,2.473,0.02l11.728-5.739
	c0.978-0.478,1.778-0.067,1.778,0.912s0.702,1.779,1.563,1.779c0.859,0,2.313-0.479,3.229-1.066l2.224-1.426
	c0.918-0.589,1.369-1.907,1.006-2.936l-2.845-8.021c-0.364-1.023,0.026-2.431,0.868-3.121l0.413-0.336
	c0.842-0.689,2.421-1.256,3.511-1.256h3.335c1.089,0,2.327,0.723,2.753,1.603c0.425,0.882,1.663,1.604,2.753,1.604h3.178
	c1.089,0,1.979-0.891,1.979-1.979v-6.012c0-1.088-0.223-2.845-0.492-3.898L123.005,275.674z M71.599,297.053
	c-0.942,0.545-2.438,0.478-3.326-0.156l-8.761-6.25c-0.886-0.631-1.294-1.98-0.907-2.998l2.759-7.25
	c0.388-1.018,1.595-1.852,2.685-1.852h12.454c1.09,0,2.213,0.859,2.496,1.912l2.354,8.73c0.284,1.052-0.255,2.357-1.196,2.903
	L71.599,297.053z"/>
<path id="Busan" fill="#9BA8DC" stroke="#FFFFFF" d="M197.223,291.392c-0.827,0.708-1.729,2.149-2.003,3.204l-3.431,13.166
	c-0.274,1.053,0,2.652,0.611,3.555l3.808,5.611c0.61,0.902,1.554,0.867,2.096-0.078l0.521-0.908
	c0.539-0.946,0.817-2.596,0.617-3.666l-0.479-2.555c-0.2-1.071-0.005-2.762,0.434-3.76l2.29-5.193
	c0.438-0.996,1.629-2.133,2.646-2.524l25.402-9.812c1.018-0.393,1.849-1.604,1.849-2.693v-7.436c0-1.088,0.625-2.38,1.39-2.871
	c0.765-0.488,1.39-1.609,1.39-2.492s-0.77-2.052-1.711-2.599l-4.741-2.765c-0.94-0.551-2.388-0.419-3.216,0.289L197.223,291.392z"/>
<path id="Ulsan" fill="#9BA8DC" stroke="#FFFFFF" d="M230.149,239.417c-1.024-0.365-2.527-0.07-3.34,0.656l-5.389,4.836
	c-0.812,0.727-2.053,1.999-2.759,2.825l-0.313,0.367c-0.707,0.83-0.754,2.226-0.105,3.1l7.021,9.478
	c0.648,0.875,1.128,2.481,1.066,3.568l-0.021,0.354c-0.063,1.086,0.657,2.426,1.599,2.976l4.741,2.765
	c0.941,0.547,2.532,0.651,3.537,0.229l3.99-1.675c1.004-0.422,1.826-1.656,1.826-2.746v-2.092c0-1.09,0.622-2.619,1.383-3.397
	l0.359-0.371c0.762-0.779,1.555-2.291,1.764-3.36l1.82-9.296c0.21-1.07-0.458-2.243-1.483-2.608L230.149,239.417z"/>
<path id="Gyeongnam" fill="#9BA8DC" stroke="#FFFFFF" d="M224.694,267.866c0.828-0.708,1.556-2.179,1.617-3.265l0.021-0.354
	c0.062-1.087-0.418-2.693-1.066-3.568l-7.021-9.478c-0.647-0.874-0.602-2.27,0.105-3.1l0.313-0.367
	c0.706-0.826,0.394-1.506-0.695-1.506h-53.876c-1.09,0-1.98-0.892-1.98-1.979v-6.419c0-1.09-0.83-2.307-1.844-2.702l-18.196-7.132
	c-1.014-0.396-2.16,0.109-2.548,1.128l-16.307,42.78c-0.388,1.021-0.482,2.713-0.211,3.771l11.865,46.094
	c0.271,1.056,1.366,2.088,2.438,2.294l14.522,2.813c1.068,0.207,1.943-0.517,1.943-1.605v-7.08c0-1.089,0.893-1.979,1.98-1.979
	h14.406c1.09,0,2.715,0.503,3.615,1.114l10.317,7.029c0.898,0.613,2.527,1.116,3.616,1.116h3.683c1.09,0,2.423-0.772,2.963-1.72
	l1.98-3.461c0.54-0.945,0.481-2.457-0.129-3.359l-3.808-5.611c-0.611-0.901-0.887-2.502-0.611-3.555l3.431-13.166
	c0.273-1.055,1.176-2.496,2.003-3.204L224.694,267.866z"/>
<path id="Daegu" fill="#9BA8DC" stroke="#FFFFFF" d="M198.302,219.073c-0.418-1.007-1.607-2.106-2.643-2.447l-7.18-2.363
	c-1.035-0.34-2.605-0.102-3.495,0.529l-10.317,7.323c-0.888,0.632-1.614,2.035-1.614,3.126v19.008c0,1.089,0.892,1.979,1.979,1.979
	h10.47c1.089,0,2.515-0.711,3.168-1.584l11.851-15.787c0.654-0.871,0.849-2.406,0.431-3.412L198.302,219.073z"/>
<path id="Jeonbuk" fill="#7C85D0" stroke="#FFFFFF" d="M68.398,262.247c0.819-0.72,2.236-0.822,3.15-0.229l16.476,10.664
	c0.914,0.592,2.554,1.075,3.642,1.075h28.866c1.089,0,2.297-0.832,2.685-1.853l16.307-42.78c0.388-1.019,0.704-2.74,0.704-3.83
	v-7.177c0-1.09-0.89-1.979-1.979-1.979H62.314c-1.089,0-2.871,0-3.96,0H53.63c-1.09,0-1.791,0.871-1.56,1.935l0.551,2.541
	c0.231,1.063,1.125,2.233,1.987,2.6c0.861,0.365,1.632,1.553,1.712,2.64l0.673,9.116c0.08,1.087-0.255,2.771-0.744,3.744L44.551,262
	c-0.489,0.971-0.214,2.349,0.613,3.059l8.629,7.408c0.827,0.711,2.172,0.703,2.99-0.018L68.398,262.247z"/>
<path id="Gyeongbuk" fill="#9BA8DC" stroke="#FFFFFF" d="M236.746,118.273c-0.105,0-0.209,0.009-0.312,0.021l-49.958,6.85
	c-1.079,0.148-2.248,1.113-2.597,2.145l-6.546,19.311c-0.282,0.836-1.08,1.373-1.926,1.373c-0.199,0-0.4-0.03-0.599-0.093
	l-9.771-3.082c-0.295-0.093-0.634-0.138-0.986-0.138c-0.881,0-1.851,0.278-2.467,0.754l-19.273,14.932
	c-0.86,0.668-1.564,2.104-1.564,3.193v22.779c0,1.088,0.798,2.376,1.771,2.863l7.658,3.813c0.974,0.488,1.356,1.673,0.848,2.637
	l-9.877,18.754c-0.508,0.966-0.923,2.644-0.923,3.731v7.177c0,1.09,0.83,2.306,1.844,2.702l18.196,7.132
	c1.014,0.396,1.844,1.613,1.844,2.702v6.419c0,1.089,0.892,1.979,1.98,1.979h6.98c1.09,0,1.98-0.892,1.98-1.979V225.24
	c0-1.09,0.727-2.493,1.614-3.125l10.317-7.323c0.613-0.437,1.554-0.685,2.416-0.685c0.388,0,0.761,0.049,1.079,0.154l7.179,2.363
	c1.035,0.341,2.226,1.44,2.644,2.447l2.647,6.371c0.419,1.007,0.226,2.541-0.43,3.414l-11.851,15.787
	c-0.653,0.873-0.298,1.584,0.792,1.584h28.505c1.089,0,2.644-0.595,3.454-1.32l5.389-4.836c0.574-0.514,1.496-0.813,2.351-0.813
	c0.352,0,0.689,0.052,0.989,0.156l15.698,5.606c0.21,0.075,0.419,0.11,0.62,0.11c0.784,0,1.459-0.537,1.625-1.388l6.73-34.379
	c0.21-1.07-0.33-2.48-1.201-3.133l-1.351-1.017c-0.297-0.223-0.574-0.327-0.813-0.327c-0.461,0-0.771,0.397-0.771,1.116v1.738
	c0,1.089-0.807,2.356-1.794,2.818l-4.054,1.889c-0.271,0.125-0.558,0.187-0.839,0.187c-0.751,0-1.478-0.42-1.823-1.131v-0.002
	c-0.479-0.979-0.243-1.94,0.521-2.137c0.765-0.193,1.391-1.247,1.391-2.335v-2.807c0-1.088-0.526-2.699-1.169-3.578l-1.832-2.503
	c-0.644-0.877-1.103-2.486-1.021-3.57l2.481-33.088c0.081-1.086,0.694-2.455,1.364-3.043c0.668-0.588,1.319-1.953,1.446-3.035
	l0.916-7.818c0.129-1.082-0.277-2.689-0.913-3.574l-2.553-3.551c-0.636-0.885-0.989-2.484-0.788-3.555l1.351-7.148
	c0.203-1.068-0.06-2.728-0.58-3.684l-3.448-6.316C238.873,118.898,237.754,118.273,236.746,118.273L236.746,118.273z"/>
<path id="Chungbuk" fill="#41A5F1" stroke="#FFFFFF" d="M132.655,118.271L132.655,118.271c0.11,0,0.218,0.005,0.317,0.02
	l50.194,6.977c0.229,0.032,0.407,0.136,0.503,0.29c0.094,0.152,0.305,0.454,0.081,1.079l-6.417,19.963
	c-0.144,0.42-0.375,0.67-0.844,1.057s-1.582,0.253-1.681,0.224l-9.972-3.134c-0.396-0.125-1.223-0.122-1.681,0.006
	c-0.711,0.199-1.365,0.502-2.146,1.108l-18.322,14.194c-1.134,0.876-1.94,2.053-1.94,3.484v22.139c0,1.48,0.444,2.842,1.771,3.504
	l7.658,3.813c0.236,0.117,0.884,0.854,0.965,1.102c0.08,0.249,0.155,0.934,0.032,1.165l-10.271,19.666
	c-0.344,0.653-2.041,1.121-2.78,1.121h-11.371c-0.766,0-1.837-0.59-2.247-1.235l-10.856-17.108c-0.437-0.691-0.622-2.03-0.389-2.811
	l3.116-11.175c0.441-1.477-0.342-3.322-1.605-4.208l-4.773-3.313c-0.695-0.485-1.759-1.526-1.929-2.354l-2.658-13.703
	c0.026-1.07-0.098-1.588,1.302-2.648l3.934-3.272c1.257-1.045,1.227-2.388,0.335-3.76l-5.608-8.627
	c-0.685-1.113-0.685-1.67,0.307-2.455l24.519-20.302C130.747,118.627,131.824,118.271,132.655,118.271"/>
<path id="Sejong" fill="#41A5F1" stroke="#FFFFFF" d="M99.98,157.068l3.654,1.111c0.768,0.238,1.617,1.174,1.777,1.962
	l2.793,14.621c0.149,0.733-0.084,1.871-0.135,2.707s-0.159,2.604-0.159,2.604c-0.059,0.634-1.227,0.688-1.859,0.688h-1.092
	c-0.674,0-1.77-1.088-1.9-1.749l-3.71-18.689C98.23,156.804,99.539,157.043,99.98,157.068z"/>
<path id="Chungnam" fill="#41A5F1" stroke="#FFFFFF" d="M113.411,197.688c-0.584-0.92-1.824-1.213-2.756-0.648l-1.038,0.626
	c-0.933,0.563-2.507,0.654-3.497,0.201l-5.774-2.632c-0.991-0.45-1.489-1.654-1.108-2.675l3.562-9.516
	c0.382-1.02,0.52-2.729,0.306-3.795l-4.173-20.821c-0.214-1.066,0.462-1.678,1.503-1.355l3.121,0.966
	c1.039,0.323,2.576,0.017,3.413-0.681l3.858-3.207c0.838-0.696,1.037-2.012,0.443-2.926l-5.916-9.104
	c-0.594-0.914-1.956-1.816-3.029-2.006l-37.264-6.609c-1.073-0.189-2.841-0.346-3.93-0.346h-1.251c-1.09,0-2.619-0.621-3.398-1.381
	l-4.11-4.004c-0.78-0.76-2.31-1.382-3.398-1.382H45.64c-1.089,0-2.578,0.66-3.309,1.468l-17.136,18.92
	c-0.732,0.809-1.197,2.35-1.035,3.427l0.465,3.092c0.163,1.076-0.128,2.741-0.646,3.699l-0.226,0.418
	c-0.518,0.957-0.094,2.015,0.942,2.349l7.286,2.355c1.037,0.334,2.192,1.445,2.567,2.467l6.345,17.273
	c0.375,1.021,1.426,2.349,2.334,2.95l6.524,4.314c0.908,0.603,1.34,1.929,0.959,2.948l-1.919,5.143
	c-0.381,1.021-0.173,2.579,0.461,3.463l9.928,13.847c0.634,0.886,2.044,1.609,3.133,1.609h60.824c1.089,0,1.502-0.753,0.919-1.673
	L113.411,197.688z"/>
<path id="Gangwon" fill="#4EC2F5" stroke="#FFFFFF" d="M236.436,118.295c1.079-0.146,1.535-1.051,1.014-2.007L177.648,6.695
	c-0.521-0.955-1.779-2.059-2.796-2.448l-4.641-1.783c-1.017-0.392-1.848,0.18-1.848,1.271v9.928c0,1.09-0.392,2.621-0.869,3.404
	c-0.479,0.783-1.494,1.426-2.259,1.426c-0.764,0-1.624-0.563-1.909-1.247c-0.287-0.687-1.412-1.247-2.502-1.247h-5.418
	c-1.091,0-2.066,0.887-2.173,1.971l-0.659,6.742c-0.105,1.084-1.082,1.971-2.173,1.971H96.378c-1.089,0-1.389,0.668-0.669,1.484
	l22.365,25.346c0.72,0.815,1.017,2.324,0.657,3.354l-3.903,11.176c-0.36,1.027-0.17,2.617,0.421,3.531l6.188,9.576
	c0.591,0.914,1.936,1.891,2.988,2.168l8.678,2.292c1.054,0.278,1.813,1.392,1.689,2.474l-3.197,27.979
	c-0.124,1.082,0.656,2.09,1.736,2.239l49.223,6.841c1.079,0.151,2.845,0.153,3.924,0.004L236.436,118.295z"/>
<path id="Gyeonggi" fill="#4CCEE6" stroke="#FFFFFF" d="M92.419,26.68h-9.265c-1.089,0-2.403,0.783-2.923,1.74L61.276,63.4
	c-0.403,0.743-1.258,1.205-2.101,1.205c-0.242,0-0.482-0.037-0.711-0.117l-11.547-4.036c-0.207-0.072-0.399-0.106-0.571-0.106
	c-0.684,0-1.061,0.539-0.874,1.389l4.191,19.142c0.189,0.862,0.907,1.418,1.725,1.418c0.19,0,0.387-0.03,0.582-0.095l6.655-2.155
	c0.281-0.092,0.598-0.135,0.927-0.135c0.879,0,1.845,0.312,2.439,0.835l2.766,2.446c0.438,0.387,1.041,0.584,1.64,0.584
	c0.517,0,1.032-0.146,1.438-0.445l7.749-5.693c0.879-0.645,1.977-1.979,2.441-2.963l0.916-1.948
	c0.396-0.841,1.362-1.406,2.296-1.406c0.161,0,0.322,0.018,0.479,0.053l6.932,1.569c1.063,0.239,1.932,1.327,1.932,2.417v3.291
	c0,1.089,0.551,2.68,1.224,3.535l1.868,2.375c0.674,0.854,0.795,2.336,0.27,3.291l-3.3,5.993c-0.471,0.854-1.57,1.462-2.567,1.462
	c-0.116,0-0.232-0.009-0.344-0.024l-10.154-1.548c-1.076-0.164-2.303-1.119-2.725-2.123l-0.031-0.072
	c-0.421-1.004-1.57-2.209-2.554-2.678l-0.593-0.281c-0.3-0.145-0.633-0.211-0.968-0.211c-0.763,0-1.539,0.35-1.982,0.962
	l-5.838,8.044c-0.639,0.881-1.391,2.463-1.669,3.516l-4.544,17.185c-0.279,1.053,0.303,2.287,1.292,2.743l3.351,1.548
	c0.989,0.455,1.797,1.719,1.797,2.809v6.011c0,1.091,0.877,2.137,1.951,2.325l37.264,6.609c0.178,0.03,0.367,0.046,0.564,0.046
	c1.004,0,2.211-0.383,2.91-0.963l24.045-19.91c0.838-0.694,1.626-2.146,1.75-3.229l3.197-27.979
	c0.124-1.082-0.637-2.195-1.689-2.474l-8.678-2.293c-1.053-0.276-2.397-1.254-2.988-2.168l-6.188-9.575
	c-0.591-0.914-0.781-2.504-0.421-3.532l3.903-11.175c0.359-1.028,0.063-2.537-0.657-3.354L95.711,28.166
	C94.989,27.348,93.508,26.68,92.419,26.68L92.419,26.68z"/>
<path id="Seoul" fill="#7CE1ED" stroke="#FFFFFF" d="M81.237,71.316c-0.935,0-1.9,0.566-2.296,1.406l-0.916,1.949
	c-0.465,0.984-1.563,2.318-2.441,2.963l-7.749,5.693c-0.877,0.645-0.928,1.764-0.112,2.483l0.681,0.602
	c0.816,0.722,2.288,1.694,3.271,2.163l0.593,0.281c0.983,0.469,2.133,1.674,2.554,2.678l0.031,0.072
	c0.422,1.004,1.648,1.959,2.725,2.123l10.154,1.548c0.111,0.017,0.228,0.024,0.344,0.024c0.997,0,2.097-0.606,2.567-1.462l3.3-5.993
	c0.525-0.955,0.404-2.437-0.27-3.291l-1.868-2.375c-0.673-0.855-1.224-2.446-1.224-3.535v-3.291c0-1.09-0.869-2.178-1.932-2.417
	l-6.932-1.569C81.559,71.335,81.398,71.316,81.237,71.316L81.237,71.316z"/>
<path id="Incheon" fill="#5EDDD1" stroke="#FFFFFF" d="M61.99,80.744c-0.815-0.723-2.331-1.036-3.366-0.7l-6.655,2.155
	c-1.035,0.336-2.074-0.262-2.307-1.323l-4.191-19.142c-0.233-1.063-1.16-1.432-2.059-0.817l-14.446,9.875
	c-0.899,0.613-1.635,2.008-1.635,3.097v2.45c0,1.09,0.832,2.3,1.848,2.69l4.641,1.783c1.017,0.392,2.22,1.521,2.672,2.512
	l6.342,13.849c0.453,0.99,1.715,1.801,2.804,1.801h14.104c1.088,0,2.504-0.721,3.143-1.602l5.838-8.044
	c0.639-0.883,0.496-2.192-0.32-2.914L61.99,80.744z"/>
<path id="Daejeon" fill="#41A5F1" stroke="#FFFFFF" d="M106.12,197.866c0.979,0.444,2.579,0.352,3.497-0.201l1.217-0.717
	c0.92-0.555,2.051-2.343,2.358-3.372l3.091-10.408c0.306-1.028-0.162-2.372-1.042-2.989l-5.243-3.979
	c-0.88-0.614-1.686-0.241-1.788,0.828l-0.141,1.49c-0.104,1.069,0.019,2.359-1.055,2.359l-1.57,0.062
	c-1.073,0-2.122,0.635-2.498,1.639l-3.708,9.982c-0.376,1.005,0.132,2.229,1.108,2.675L106.12,197.866z"/>
</svg>
