<?xml version="1.0" encoding="utf-8"?>
<!-- Generator: Adobe Illustrator 21.1.0, SVG Export Plug-In . SVG Version: 6.00 Build 0)  -->
<svg version="1.1" id="Layer_1" xmlns="http://www.w3.org/2000/svg" xmlns:xlink="http://www.w3.org/1999/xlink" x="0px" y="0px"
	 width="800px" height="539px" viewBox="0 0 800 539" enable-background="new 0 0 800 539" xml:space="preserve">
<g id="africa">
	
		<polygon fill="#887697" stroke="#887697" stroke-width="5" stroke-linecap="round" stroke-linejoin="round" points="
		73.6,95.8 6.8,95.8 6.8,129.2 40.2,162.6 40.2,229.3 90,181.4 140.3,129.2 107,129.2 	"/>
</g>
<g id="oceania">
	
		<polygon fill="#95DCF2" stroke="#95DCF2" stroke-width="5" stroke-linecap="round" stroke-linejoin="round" points="
		241.9,182.2 241.9,215.5 262.5,218.4 287.3,241.8 308.7,215.5 291.6,182.2 	"/>
</g>
<g id="europe">
	
		<polygon fill="#59B5C4" stroke="#59B5C4" stroke-width="5" stroke-linecap="round" stroke-linejoin="round" points="
		49.3,53.3 47.4,3.6 37.4,3.6 4,46 4,79.4 50.9,79.3 58.3,65.4 	"/>
</g>
<g id="asia">
	<polygon fill="#88D8D5" stroke="#88D8D5" stroke-width="5" stroke-linecap="round" stroke-linejoin="round" points="206.1,3.6 
		62.8,3.6 64.7,53.3 73.8,65.4 66.4,79.3 86.2,79.3 119.6,112.7 205.3,112.7 205.3,146.1 262.6,79.3 286.5,79.3 319.9,46 319.9,3.6 
			"/>
	<polygon fill="#88D8D5" stroke="#88D8D5" stroke-width="5" stroke-linecap="round" stroke-linejoin="round" points="217.2,150.7 
		242.8,169.2 225.7,169.8 215.5,158.6 	"/>
	<polygon fill="#88D8D5" stroke="#88D8D5" stroke-width="5" stroke-linecap="round" stroke-linejoin="round" points="299.9,82 
		312.3,70 316.9,69.6 304.7,82 	"/>
</g>
<g id="north-america">
	<polygon fill="#EDB758" stroke="#EDB758" stroke-width="5" stroke-linecap="round" stroke-linejoin="round" points="572.9,22.5 
		544.9,37.9 544.9,4.2 572.8,4.2 	"/>
	<polyline fill="#EDB758" stroke="#EDB758" stroke-width="5" stroke-linecap="round" stroke-linejoin="round" points="450.9,131.5 
		446.2,108.9 527.7,46.2 527.7,3.3 349.6,3.3 381.8,44.5 381.8,76.7 450.9,131.5 450.9,131.5 	"/>
</g>
<g id="south-america">
	
		<polyline fill="#DD8E47" stroke="#DD8E47" stroke-width="5" stroke-linecap="round" stroke-linejoin="round" points="
		461.5,140.3 461.5,140.3 461.5,172.4 484.1,214.1 484.1,278.5 548.5,214.1 548.5,181.9 516.3,149.8 461.5,140.3 	"/>
</g>
</svg>
