<?xml version="1.0" encoding="utf-8"?>
<!-- Generator: Adobe Illustrator 16.0.0, SVG Export Plug-In . SVG Version: 6.00 Build 0)  -->
<!DOCTYPE svg PUBLIC "-//W3C//DTD SVG 1.1//EN" "http://www.w3.org/Graphics/SVG/1.1/DTD/svg11.dtd">
<svg version="1.1" id="main" xmlns="http://www.w3.org/2000/svg" xmlns:xlink="http://www.w3.org/1999/xlink" x="0px" y="0px"
	 width="612px" height="792px" viewBox="0 0 612 792" enable-background="new 0 0 612 792" xml:space="preserve">
<path id="Salta" fill="#6298f2" stroke="#231F20" stroke-miterlimit="10" d="M130.552,70.124l-1.065,1.37c0,0,1.522,0.609,1.218,2.435
	c-0.305,1.826-0.152,3.804-1.826,3.5c-1.674-0.304-2.892-0.761-3.043,0.913c-0.152,1.674,2.435,5.782,3.347,8.369
	c0.914,2.587,2.892,6.39,4.565,3.652c1.674-2.739,3.043-3.957,3.805-3.348c0.76,0.609,7.304,3.956,7.304,3.956
	s-0.153-4.108,1.521-4.565c1.674-0.456,6.239-1.826,6.543,0.305c0.304,2.13,2.586,1.979,5.173,2.282
	c2.587,0.305,1.521,0.609,2.891-0.608c1.369-1.217,0.457,0.305,2.739,0.152c2.282-0.152,3.347,0.913,3.652-1.217
	c0.304-2.131,2.739-8.978,3.652-8.978c0.913,0,2.435,1.978,4.413,0.152c1.978-1.826,7.608-0.152,8.978-0.152
	c1.37,0,20.999-26.933,20.999-26.933l-0.26-36.387c-2.579-2.287-6.834-5.221-7.729-5.953c0,0-0.571-1.825-0.685-2.967l-19.401-0.571
	c0,0-1.825,3.424-3.766,7.988c-1.94,4.565-1.94,9.929-3.195,9.13c-1.255-0.799-2.625-5.021-2.625-5.021
	c-0.343-1.712-0.913-2.967-2.054-4.223c-1.142-1.255,1.711-1.483-0.228-2.853c-1.586-1.121-6.376-2.392-11.814-2.819
	c-0.041,4.521-1.966,8.577-1.044,9.895c1.065,1.521,0.152,2.739,0.913,5.326c0.76,2.586,1.521,1.369,3.348,1.673
	c1.826,0.304,0.761,5.326,0.761,5.326s1.978,5.63,3.195,5.021c1.218-0.609,3.044-0.913,5.326,0.609
	c2.282,1.522,1.37,1.674,2.891,0.152s3.348-0.609,3.348-0.609s-0.152,9.13,0.608,12.325c0.761,3.196-3.043,5.174-4.869,6.087
	s-2.891,2.891-4.565,2.13c-1.674-0.761-2.13-2.283-3.348,0c-1.217,2.282-5.021-2.283-6.391-1.522
	c-1.369,0.761-2.13-0.304-6.086-1.521c-3.956-1.217-0.608-5.935-4.716-7.304c-4.109-1.37-3.348-2.739-3.044-5.326
	c0.304-2.586,1.37-4.565-2.13-5.934c-3.5-1.369-4.261-4.108-4.108,2.283c0.152,6.391,0,11.412-2.13,12.325s-9.586-4.564-9.586-5.934
	c0-0.836-1.984-3.145-3.529-4.818c-0.016,0.047-0.031,0.091-0.047,0.139l-2.396,6.961c0,0-15.292,5.82-17.119,7.989
	c-1.826,2.168-5.934,5.478-3.994,8.103c1.94,2.625,5.364,5.364,3.195,5.706c-0.534,0.084-0.991,0.222-1.389,0.441
	c5.013,0.997,11.563,2.108,15.844,2.108C120.356,69.364,130.552,70.124,130.552,70.124z"/>
<path id="Misiones" fill="#6298f2" stroke="#231F20" stroke-miterlimit="10" d="M358.796,85.074c-1.256-1.027-0.457-7.19-2.511-8.217
	c-2.054-1.026-3.768-2.396-5.022-1.711s-3.309,3.424-4.564,2.511c-1.255-0.913-2.281-2.282-2.739,3.652
	c-0.21,2.743-0.152,3.437-0.12,3.583c0.023,0.019,0.015,0.067,0,0c-0.038-0.03-0.153,0.009-0.449,0.64
	c-0.913,1.94,0.799,1.255,0,4.223c-0.799,2.967-2.396,5.706-2.396,5.706s-0.8,1.712-2.283,2.625
	c-1.484,0.913-3.768,4.108-4.224,5.25c-0.456,1.141-3.651-1.028-4.679,1.141c-1.026,2.168-2.054,1.141-2.853,2.739
	c-0.799,1.597-0.229,5.021-2.512,5.706c-1.788,0.537-4.556-2.43-6.275-2.696c-0.127,1.214-0.175,2.379-0.001,2.962
	c0.456,1.521,3.044,4.261,3.651,7.304c0.388,1.931,1.877,4.777,3.768,7.068c0.499-0.246,1.1-0.52,1.825-0.829
	c0,0,2.738-1.598,3.311-3.767c0.57-2.168,2.054-0.57,4.336-1.711s3.88-2.625,4.107-4.793c0.23-2.168,2.511-0.685,3.653-1.027
	c1.14-0.343,1.026-2.397,2.281-2.054c1.256,0.342,1.142-0.799,3.424-1.027c2.283-0.228,2.626-1.141,3.311-2.282
	c0.683-1.141,5.021-2.054,6.276-3.652c1.255-1.598,3.195-2.739,2.51-5.364c-0.685-2.624-0.112-8.673,0.229-10.841
	S360.051,86.101,358.796,85.074z"/>
<path id="Formosa" fill="#6298f2" stroke="#231F20" stroke-miterlimit="10" d="M221.85,56.734c2.282,0.457,3.499,0.761,5.782,3.347
	c2.283,2.587,2.892,4.87,5.021,5.631c2.13,0.76,5.782,2.586,8.064,5.629c2.282,3.043,2.739,5.478,3.957,6.086
	c1.217,0.609,6.695,3.957,7.608,5.783c0.913,1.826,0.152,2.891,3.347,3.5c3.196,0.609,2.283,3.348,3.043,3.804
	c0.761,0.457,2.283-1.065,4.869,0.609c2.586,1.674,9.13,7.456,10.956,8.673c0.855,0.57,1.814,1.038,2.979,1.25
	c1.147-1.489,1.775-3.554,1.775-8.098c0-0.456,0.571-3.651,2.283-5.592c1.712-1.94,3.766-2.625,4.222-5.364s3.311-4.793,4.565-6.277
	c1.255-1.483,0.228-2.396-1.598-5.021c-1.827-2.625,0.227-2.396-3.31-4.223c-3.538-1.826-5.935-3.995-7.19-2.853
	c-1.255,1.141-1.141-0.57-3.88-1.712c-2.739-1.142-12.896-4.793-16.206-8.445c-3.31-3.652-8.445-7.875-13.581-8.217
	c-5.135-0.342-6.162,0.343-8.217-1.369c-2.054-1.712-2.738,0-6.162-3.081c-3.424-3.082-3.538-4.337-7.646-7.076
	c-4.109-2.739-10.385-6.619-11.298-9.129c-0.913-2.511-3.538-5.479-4.108-7.304c-0.164-0.525-0.932-1.342-1.972-2.264l0.223,31.347
	l11.905,5.952C217.284,52.321,219.566,56.277,221.85,56.734z"/>
<path id="EntreRíos" fill="#6298f2" stroke="#231F20" stroke-miterlimit="10" d="M286.442,180.708
	c-0.023-0.194-0.056-0.379-0.094-0.558c-1.042-0.443-2.075-1.041-2.874-1.839c-2.435-2.434-1.217-5.021-2.891-5.173
	c-1.304-0.119-0.913-3.044-2.739-2.739c-3.332,0.556-6.086-3.195-7.151-1.674c-1.065,1.521-3.652,0.761-5.478,1.065
	c-1.827,0.304-1.37,2.586-4.717,2.586c-3.348,0-4.109,0.152-5.63,1.522c-0.585,0.527-0.943,0.555-1.157,0.247
	c-0.159,0.531-0.252,1.036-0.212,1.427c0.153,1.522,0.153,3.043-0.304,3.5c-0.457,0.457,1.217-0.305-1.065,3.804
	s-4.869,6.391-6.542,10.956c-1.674,4.564-3.348,2.892-3.957,4.108c-0.608,1.217-1.978,2.891-4.564,3.5
	c-2.587,0.609-0.153,1.978-1.37,4.108s0,3.195-0.304,5.022c-0.305,1.826,0,2.13-1.37,6.086c-1.369,3.956-0.457,4.869,1.217,9.282
	c1.674,4.413,3.652,5.935,5.174,6.543c1.221,0.488,2.638,0.883,3.543,3.22c0.335,0.23,0.766,0.56,1.326,1.04
	c2.13,1.826,3.652,3.652,6.087,4.869c2.434,1.217,5.478,1.217,7.304,2.434c1.826,1.218,4.565,2.74,7,3.349
	c1.855,0.463,5.479,4.279,10.06,3.513c-0.291-1.701-0.589-3.811-0.702-6.405c-0.229-5.25-0.229-12.781,2.282-13.809
	c2.511-1.027,4.108-0.457,2.968-7.988c-1.142-7.533,0.913-8.217,1.026-9.358c0.114-1.142-2.054-2.739-1.255-3.88
	c0.799-1.142-0.913-4.108-0.228-5.136c0.684-1.027,2.853-0.913,2.853-4.564s-1.483-3.88,0.457-5.592
	c1.94-1.712,1.711-5.592,1.94-7.646C285.301,184.475,286.785,183.561,286.442,180.708z"/>
<path id="Chaco" fill="#6298f2" stroke="#231F20" stroke-miterlimit="10" d="M216.98,124.294h51.232
	c0.383-2.41,0.183-6.193-0.258-8.065c-0.608-2.587-1.37-1.979,0.304-3.043c0.867-0.552,3.081-1.634,5.015-2.549
	c-0.191-0.086-0.367-0.196-0.526-0.342c-1.37-1.255-2.967-1.94,0.685-5.478c1.688-1.636,3.059-2.491,4.045-3.771
	c-1.166-0.213-2.125-0.68-2.979-1.25c-1.826-1.218-8.37-7-10.956-8.673c-2.586-1.674-4.108-0.152-4.869-0.609
	c-0.761-0.456,0.152-3.195-3.043-3.804c-3.195-0.609-2.435-1.674-3.347-3.5c-0.913-1.826-6.391-5.174-7.608-5.783
	c-1.217-0.608-1.674-3.043-3.957-6.086c-2.282-3.043-5.935-4.869-8.064-5.629c-2.13-0.761-2.739-3.044-5.021-5.631
	c-2.283-2.586-3.5-2.891-5.782-3.347c-2.283-0.457-4.565-4.413-4.565-4.413l-11.905-5.952l0.037,5.04
	c0,0-14.916,20.465-19.649,25.715h31.214V124.294z"/>
<path id="Tucumán" fill="#6298f2" stroke="#231F20" stroke-miterlimit="10" d="M156.115,121.859c1.674,0.457,1.978-1.065,2.13-2.739
	c0.152-1.673-0.152-2.739-0.457-4.413c-0.304-1.673-1.521-2.282,1.218-3.499c2.739-1.218,2.586-3.957,3.042-7
	c0.457-3.043,0.152-3.043,1.827-3.805c1.673-0.761,0.76-2.586,0.76-2.586l2.435,0.152c0,0-0.609-6.239,0-7.608l-0.056-2.001
	c-0.529,0.644-1.559,0.061-3.292,0.176c-2.283,0.152-1.37-1.369-2.739-0.152c-1.37,1.217-0.304,0.913-2.891,0.608
	c-2.587-0.304-4.87-0.152-5.173-2.282c-0.304-2.131-4.87-0.761-6.543-0.305c-1.674,0.457-1.521,4.565-1.521,4.565
	s-4.534-2.319-6.491-3.447c-0.323,2.558-0.692,5.817-0.509,6.643c0.305,1.37,3.347,3.804,4.109,4.413
	c0.761,0.608-0.457,2.587-0.457,2.587s1.522,1.217-1.065,4.564c-2.586,3.348-3.499,3.652-1.521,4.565
	c1.979,0.914,1.674,4.565,2.283,6.087c0.609,1.521,1.218,2.434,1.522,3.956c0.304,1.522,1.673,0.761,2.435,0
	c0.761-0.76,0.152,5.174,2.891,4.109c2.739-1.065,2.131-3.957,3.804-3.5c0.917,0.25,1.74,1.137,2.298,1.891
	C154.582,122.106,155.183,121.605,156.115,121.859z"/>
<path id="SanLuis" fill="#6298f2" stroke="#231F20" stroke-miterlimit="10" d="M156.725,230.744c1.177-1.914,1.913-7.505,2.207-8.976
	c0.294-1.472,1.178-3.09,0.588-4.267c-0.588-1.177-0.882-2.649-0.882-2.649l-4.268-0.735c0,0-0.146-2.354-0.588-3.826
	c-0.441-1.471-4.267-3.973-5.886-4.562c-0.763-0.277-2.346-0.719-3.805-1.107l0.008,0.666c0,0,0,0-1.768-0.221
	c-1.768-0.221-3.756,1.546-5.966,1.546c-2.209,0-4.198,0.663-6.628,0c-1.001-0.273-2.262-1.034-3.402-1.833
	c-1.163,0.344-5.917,0.448-7.806,0.313c-2.13-0.152-3.042-1.218-3.042,0.608c0,1.826-0.152,5.478,0.608,7
	c0.453,0.906,0.636,2.298,0.035,2.343c0.43,1.125,0.735,2.075,0.789,2.616c0.221,2.209,1.326,3.535,1.326,5.744
	s0.884,13.699,1.547,15.246c0.663,1.547,3.314,5.745,5.081,8.175c1.768,2.431,2.431,2.431,1.768,6.85
	c-0.664,4.418-0.221,7.292,1.546,11.489s3.093,8.175,2.652,12.152c-0.348,3.127-1.242,10.898-2.252,16.547h27.052v-22.842h0.229
	c-0.2-10.469-0.615-32.421-0.615-34.098C155.253,234.716,155.548,232.656,156.725,230.744z"/>
<path id="SantaFe" fill="#6298f2" stroke="#231F20" stroke-miterlimit="10" d="M267.499,126.272c0.336-0.336,0.567-1.058,0.714-1.978
	h-51.055l-7.401,51.821c0.199,0.539,0.465,0.975,0.824,1.214c1.766,1.177,1.324,1.912,1.324,1.912l2.795,0.441
	c0,0-4.414,18.394-5.15,19.276c-0.735,0.883-2.354,0.883-2.06,3.09c0.294,2.207,0.147,2.795,0.294,3.384
	c0.147,0.588,1.178,1.03,0.883,4.268c-0.294,3.236,0.148,0.588,1.472,2.648s1.618,3.237,2.796,4.709
	c1.177,1.471,0.588,3.531-0.147,4.12c-0.735,0.588,2.06,0.148,2.501,3.237c0.441,3.09,0.736,2.795-1.324,5.738
	c-1.602,2.289-13.168,20.235-18.233,28.105l20.945-0.214l15.521-17.651l6.391,1.522l4.261-6.696c0,0,0.168-0.163,1.108,0.482
	c-0.905-2.337-2.322-2.732-3.543-3.22c-1.521-0.608-3.5-2.131-5.174-6.543c-1.674-4.413-2.586-5.326-1.217-9.282
	c1.37-3.957,1.065-4.261,1.37-6.086c0.304-1.827-0.913-2.892,0.304-5.022s-1.217-3.499,1.37-4.108
	c2.586-0.609,3.956-2.282,4.564-3.5c0.609-1.217,2.283,0.456,3.957-4.108c1.673-4.565,4.26-6.848,6.542-10.956
	s0.609-3.347,1.065-3.804c0.457-0.457,0.457-1.978,0.304-3.5c-0.04-0.392,0.054-0.896,0.212-1.427
	c-0.341-0.493-0.306-1.85-0.212-3.442c0.152-2.586,1.065-4.564,0.457-6.695c-0.609-2.13-0.761-3.195,0.304-4.26
	c1.065-1.065,0.152-5.478,1.521-8.369c1.369-2.891,1.979-1.37,2.587-2.891c0.609-1.521,1.521-1.065,2.891-2.435
	c1.37-1.369,1.826-6.086,2.435-8.825c0.608-2.739,0.456-5.63,0-8.065C263.237,126.729,266.281,127.489,267.499,126.272z"/>
<path id="SantaCruz" fill="#6298f2" stroke="#231F20" stroke-miterlimit="10" d="M142.497,561.229c-3.5-2.968-3.424,0.609-12.174-2.206
	c0,0-2.586,0.913-4.793-1.294c-2.207-2.206-5.401-7.532-7.607-8.597c-2.207-1.065-3.12-1.37-4.337-4.186
	c-1.089-2.517-4.12-7.347-2.083-12.856H38.66c-0.397,1.239-1.41,2.592-3.172,3.31c-3.082,1.256,1.141,1.368,1.483,2.396
	c0.157,0.471,0.052,1.212-0.011,2.046l0.988,0.063c2.346-0.902,2.706,0.181,1.714,0.451s-1.534,1.263-0.632,1.533
	s2.255,0.271,3.879,0.902s3.067-0.541,2.616,0.271s-0.902,0.992,1.443,1.895s-0.541,2.525-1.443,2.796s-3.428-0.271-4.42-0.812
	c-0.449-0.244-1.504-0.691-2.527-1.108c0.486,1.975,0.439,4.311-1.493,5.886c-3.081,2.511-4.108,0.913-3.88,5.592
	c0,0,1.255-0.229,1.027,1.483s1.255,1.939,0.685,3.537s-0.342,3.082-1.483,2.283c-0.709-0.496-1.065-0.683-1.289-0.343
	c0.816,0.787,1.768,1.831,2.105,2.697c0.631,1.624,2.345,4.148,1.714,4.961s-1.263,0.723-1.443-0.901s-0.541-2.165-1.353-3.157
	c-0.355-0.434-0.948-1.104-1.507-1.728c-0.516,1.177-1.879,1.438-1.879,1.438s0.343,1.827-2.51,2.283c0,0,0.228,3.309-2.054,6.049
	c-2.283,2.738-0.799,4.336-1.256,5.362c-0.457,1.028,0.799,2.511,1.141,3.653c0.343,1.141,1.827,3.763,1.827,5.82
	c0,0.113,1.94,0.913,1.255,2.396c-0.685,1.483-1.827,1.598-2.168,2.283c-0.342,0.686-0.457,5.82-3.88,2.854
	c0,0,1.255,7.53,0.228,8.787c-0.173,0.212-0.386,0.419-0.611,0.625c1.474,1.475,2.939,1.472,4.108,1.764
	c1.443,0.36-0.451,3.247-0.631,4.511s2.796,0.18,3.067,1.533s-0.361,1.804-3.428,0.992s-0.181-3.518-0.09-4.33
	s-1.083-1.082-1.894-1.082s-0.722-0.813-1.173-1.533c-0.209-0.335-0.614-0.687-1.013-0.979c-0.895,0.694-1.811,1.366-2.214,2.038
	c-0.685,1.141-3.082-1.484-3.994,2.853c0,0-2.169,1.94-2.511,3.424c-0.343,1.483,1.826,5.021,1.141,6.847
	c-0.685,1.826-3.082,7.075-5.25,8.788c-2.168,1.712-3.766,5.363-2.853,5.705c0.913,0.343,2.282,0.458,0.685,2.168
	c-1.598,1.713-0.457,2.056,0.342,3.196c0.799,1.142,1.94,2.054,1.37,4.222c-0.571,2.169,0.913,7.418,2.625,8.331
	c1.712,0.914,2.055,2.056,1.37,3.881c-0.685,1.825,1.826,1.141,3.652-0.57c1.826-1.713,3.195-3.766,4.337-2.968
	c1.142,0.8,2.054,2.968,2.739-0.114c0.685-3.08,6.391,0.799,5.136,2.739s-0.115,1.256,0.457,3.196
	c0.57,1.939,0.685,6.048-0.685,6.162c-1.369,0.113-1.598,3.196-0.913,4.337c0.685,1.14,2.168,0.57,1.712,2.168
	c-0.457,1.598-2.055,0.57-1.598,2.054c0.457,1.484,0.343,3.311-0.57,4.908s-2.054,1.826-0.571,2.281
	c1.484,0.457,2.283-0.228,2.283,3.196c0,0,7.875,3.651,5.592,7.075c0,0-3.88,1.142,2.625,1.142c6.505,0,33.095,0,35.492,1.141
	c2.397,1.142,6.049,3.424,6.049,3.424l6.733-0.114l5.021,3.196l8.635,2.587c0,0-5.858-8.903-7.608-13.391
	c-1.75-4.489-3.271-9.663-5.325-6.848c0,0-0.685,1.369-2.511,1.142c0,0,2.13-2.893-2.283-2.511
	c-4.413,0.381-3.348-0.305-0.229-1.294c0,0,1.674,0,2.435,0.532c0.761,0.533,1.598,1.598,2.663,0.076l2.13-0.38
	c0,0-2.13-8.293-2.891-11.868c-0.761-3.576,0.532-7.229-5.097-1.979c0,0,0.151-1.446,2.51-3.425
	c2.359-1.978,2.283-1.141,2.283-4.563c0-3.425,0.38-9.282,4.261-12.401s10.651-4.717,9.206-5.858s-2.587-2.511-3.043-3.652
	c-0.457-1.141-2.663-0.076-2.434-0.837c0.228-0.761,2.206,0.077,1.75-1.979c-0.457-2.053-0.38-2.662,0.761-0.607
	c1.142,2.054,2.283,3.118,2.967,4.793c0.685,1.673,0.837,3.729,6.01,0.455c5.174-3.271,5.402-7.227,5.782-9.586
	c0.381-2.357,0.152-6.543,1.75-9.509c1.598-2.969-0.533-2.892-0.761-3.957s1.293-0.457,1.141-2.892s1.978-4.716,3.5-6.086
	c1.522-1.369,3.424-1.218,4.185-3.729c0.761-2.51,2.739-4.184,3.88-4.412s1.75-1.217,3.423-2.968
	c1.674-1.75,3.424-1.598,4.489-2.283c1.066-0.684,1.141-1.367,2.587-1.444c1.446-0.076,0.609-1.75,1.141-2.511
	c0.533-0.761,3.652-4.032,4.793-4.108c1.141-0.076,3.043,0.685,1.826-1.826c-1.217-2.511,0.532-3.194,1.141-2.967
	c0.608,0.228,1.902,0.686,1.75-0.685c-0.152-1.37-0.989,0.608-1.521-2.283c-0.533-2.891,1.445-2.967,1.674-5.325
	S145.997,564.196,142.497,561.229z"/>
<path id="Chubut" fill="#6298f2" stroke="#231F20" stroke-miterlimit="10" d="M182.803,444.108c-0.385-4.801,0.596-3.715-0.526-5.538
	c-1.122-1.822-1.717-4.907-3.716-4.241c-1.998,0.667-4.206,2.383-6.064,3.015c0,0-4.662,1.017-1.332,1.087
	c3.33,0.068,4.381,0.386,3.645,2.77c-0.736,2.383-2.173,1.015-3.926,0.876c-1.752-0.14-3.36,2.159-5.678,0.489
	c-1.752-1.261,2.138-4.451,2.138-4.451s-6.905-0.735-8.833-2.699c-0.837-0.854-1.391-1.838-1.662-2.839H36.917
	c0.46,2.559,1.129,3.284-0.745,3.88c-2.511,0.799-4.564-1.712-5.592-0.685s-1.142,3.995-0.229,5.479
	c0.914,1.482,2.967,0.798,0.457,6.162c-2.511,5.364-0.343,7.418,1.141,9.13c1.484,1.712,8.103,5.82,4.451,8.104
	c-3.652,2.281-2.055,4.222,0.799,5.933c2.853,1.713,3.309,2.511,1.027,4.565s0.342,3.31,0.342,4.223s-0.685,3.31-2.168,4.679
	c-1.484,1.37-0.457,0.913-0.342,2.968c0.114,2.054-1.712,4.907,1.369,4.336c3.081-0.57,7.646-0.229,9.358,1.142
	c1.711,1.369,2.853,2.511,1.026,4.337c-1.825,1.825,0.115,5.935-2.51,5.478s-2.51-2.738-4.451-2.169
	c-1.94,0.571-3.195,0.913-4.109,0.457c-0.913-0.457-1.027,1.826-3.88,0.799c-2.853-1.026-1.712,2.168-0.798,2.625
	c0.913,0.456,6.276,0.686,7.76,2.168c1.484,1.483,1.94,3.652,3.424,5.479c1.483,1.825,0.913,4.907-0.571,5.021
	c-1.483,0.115-1.94,0.57-1.255,1.598c0.685,1.028,1.37,1.712-1.483,2.055s-3.31,0.799-3.424,3.995
	c-0.114,3.194,1.255,4.337,2.054,5.478c0.342,0.488,0.388,1.354,0.091,2.282h72.842c0.241-0.651,0.547-1.311,0.941-1.978
	c3.728-6.316,3.386-6.125,3.5-7.381c0.114-1.255,1.027-1.369,4.679-6.733c3.651-5.363,8.444-3.88,9.358-3.88
	c0.913,0-0.342-1.483-0.342-1.483l1.369-0.114c0,0-0.361-0.36-0.326-1.097c0.035-0.735,3.961-0.98,4.732-1.822
	c0.771-0.841,1.367-1.929,3.12-1.052s2.593,2.173,3.61,0.631s1.613,1.401,3.435,0.562c1.823-0.842,3.576-3.189,2.313-3.611
	c-1.262-0.42-2.874,0.21-3.084-2.735s1.788-3.997,3.225-4.522c1.437-0.524,3.049-0.629,3.015-1.542
	c-0.035-0.911,0.49-0.912,1.156-0.948c0.666-0.035-0.526-0.806,0.175-1.822s2.208-1.788,1.157-2.911
	c-1.051-1.122-1.297-3.715-0.386-4.556c0.912-0.842,1.297-2.455,0.281-4.139s-1.227-3.051-1.367-4.173
	c-0.14-1.121-1.191-3.191,1.227-5.925c2.418-2.736,3.82-3.856,3.82-5.538c0-1.684,1.227-3.086,4.311-4.383s9.744-3.752,8.552-5.084
	c-1.191-1.331-1.788,0.877-7.221-1.963c-5.433-2.839-6.029-2.875-5.188-4.557c0.842-1.684,2.104-1.965,3.12-2.14
	c1.016-0.175,2.523-2.909,5.468-2.839c2.945,0.07,5.749,2.524,5.503,4.452c-0.245,1.928-0.351,4.977,2.244,4.871
	c2.594-0.105,2.909-0.945,4.207-1.226c1.297-0.281,3.855,0.141,4.136-1.929C182.523,448.457,183.188,448.911,182.803,444.108z"/>
<g id="BuenosAires">
	<path fill="#6298f2" stroke="#231F20" stroke-miterlimit="10" d="M305.082,300.575c-2.13,1.37-6.771,0.38-9.281-4.946
		c-2.511-5.325-1.674-8.521,1.445-11.335c3.12-2.815,1.597-5.326-0.836-7.761c-2.435-2.434-10.348-8.521-14.608-10.347
		s-8.065-5.249-7.152-6.999c0.913-1.75,0.305-1.75-0.152-2.511c-0.456-0.761,2.055,0.152,1.903-1.75
		c-0.078-0.962-0.368-2.277-0.667-4.019c-4.582,0.767-8.205-3.049-10.06-3.513c-2.435-0.609-5.173-2.131-7-3.349
		c-1.826-1.217-4.87-1.217-7.304-2.434c-2.435-1.217-3.957-3.043-6.087-4.869c-2.13-1.826-2.435-1.522-2.435-1.522l-4.261,6.696
		l-6.391-1.522l-15.521,17.651l-29.824,0.304l-0.305,143.338c0,0,1.217-0.913,5.782,1.217c1.93,0.9,3.586,3.761,4.858,6.762
		c2.104-0.981,4.47-2.036,5.873-2.683c2.665-1.228,2.77-0.948,4.031-4.103s1.892-4.241,0.21-5.188
		c-1.682-0.947-3.541-2.214-3.82-4.207c-0.28-1.994,1.156-2.489,1.823-3.962c0.665-1.471,0.035-6.24,1.016-7.012
		c0.981-0.771,3.611,0.525,3.575-3.085c-0.035-3.61,0.035-4.767,0.491-5.574c0.456-0.806,1.263-0.982-0.315-2.208
		c-1.578-1.227-1.612-1.892-1.612-1.892s2.629,1.752,2.909,0.735c0.281-1.017-0.946-1.719-2.523-2.245
		c-1.578-0.526-3.225-2.068-3.26-3.436c-0.036-1.366,0.771-2.348,1.647-2.803c0.876-0.456,0.981-0.737,2.349,0.035
		c1.366,0.771,3.855,1.086,2.523,0.176c-1.332-0.912-3.75-3.506-5.222-2.244c-1.472,1.261-1.718,1.157-1.612-0.105
		c0.105-1.263-0.561-1.333-0.561-1.964s1.928-1.261,2.875-0.42c0.947,0.841,4.803,4.031,7.01,4.101
		c2.208,0.07,2.174-0.456,3.856,0.175c1.683,0.63,20.366-0.926,31.398-3.513c11.032-2.587,38.877-11.032,41.084-16.89
		c2.207-5.858-0.076-5.326,3.651-9.435c3.728-4.108,5.174-5.706,7-9.586c1.825-3.88,5.478-7.836,5.629-9.206
		C307.365,311.759,307.212,299.205,305.082,300.575z"/>
	<path fill="#6298f2" stroke="#231F20" stroke-miterlimit="10" d="M210.333,394.084c-2.167-1.417-3.083,0.583-2.5,2.5
		c0.087,0.287,1.25,1.583,1.917,1.417S212.5,395.501,210.333,394.084z"/>
	<path fill="#6298f2" stroke="#231F20" stroke-miterlimit="10" d="M211,388.001c-0.5-0.833-1.5-0.917-1.75,0.583s2,3.75,2,3.75
		l-0.25-2.667C211,389.667,211.5,388.834,211,388.001z"/>
	<path fill="#6298f2" stroke="#231F20" stroke-miterlimit="10" d="M209.083,384.501c0,0-0.333,1,0.417,1.333s0.833-0.333,0.833-1
		S209.417,384.001,209.083,384.501z"/>
	<path fill="#6298f2" stroke="#231F20" stroke-miterlimit="10" d="M210.167,364.751c0,0,0.417,0.333,0.5,1s0.417,0.667,1.417,1.5
		s2.417,1.917,2-0.667S209.583,363.751,210.167,364.751z"/>
</g>
<path id="Corrientes" fill="#6298f2" stroke="#231F20" stroke-miterlimit="10" d="M323.418,129.467c0,0-1.02-0.342,2.169-1.909
	c-1.891-2.292-3.38-5.138-3.768-7.068c-0.607-3.042-3.195-5.782-3.651-7.304c-0.174-0.583-0.126-1.748,0.001-2.962
	c-0.476-0.073-0.871,0.058-1.143,0.527c-1.255,2.168-2.054-0.342-2.853,2.511c-0.799,2.853-2.168,5.021-4.679,0.342
	c0,0-2.511-1.142-3.424,1.027c-0.912,2.168-1.141-2.854-3.538-1.712s-2.967,1.142-7.418,0.114c-4.45-1.026-8.444-3.309-13.466-2.967
	c-4.44,0.303-6.916,1.227-8.376,0.57c-1.934,0.915-4.148,1.998-5.015,2.549c-1.673,1.065-0.912,0.456-0.304,3.043
	c0.608,2.586,0.761,8.825-0.456,10.042c-1.218,1.217-4.261,0.457-3.805,2.891c0.456,2.435,0.608,5.326,0,8.065
	c-0.609,2.739-1.065,7.456-2.435,8.825c-1.369,1.37-2.282,0.914-2.891,2.435c-0.609,1.521-1.218,0-2.587,2.891
	c-1.37,2.891-0.456,7.304-1.521,8.369c-1.065,1.065-0.913,2.13-0.304,4.26c0.608,2.131-0.304,4.109-0.457,6.695
	c-0.152,2.587-0.152,4.565,1.369,3.195s2.282-1.522,5.63-1.522c3.347,0,2.891-2.282,4.717-2.586
	c1.826-0.304,4.413,0.456,5.478-1.065c1.065-1.521,3.819,2.229,7.151,1.674c1.826-0.305,1.435,2.621,2.739,2.739
	c1.674,0.152,0.457,2.739,2.891,5.173c0.799,0.798,1.832,1.396,2.874,1.839c-0.522-2.442-2.238-3.494,0.208-5.833
	c2.625-2.511,3.424-3.424,3.196-5.022s2.511-0.684,3.879-2.738c1.371-2.055,1.371-4.908,2.968-5.821
	c1.597-0.913,2.282,1.142,6.732-5.478c0,0,3.082-2.739,3.88-5.364c0.799-2.625,1.826-2.739,3.538-3.651
	c1.713-0.914,0.457-2.055,1.826-2.854c1.37-0.799,0.343-3.196,1.598-3.652s2.967-0.457,3.994-2.739
	c1.028-2.282,1.256-3.423,2.396-2.853c1.142,0.571-0.228-2.054,1.027-2.396C322.847,131.408,327.526,133.005,323.418,129.467z"/>
<path id="Jujuy" fill="#6298f2" stroke="#231F20" stroke-miterlimit="10" d="M173.005,47.452c-0.761-3.195-0.608-12.325-0.608-12.325
	s-1.826-0.913-3.348,0.609s-0.609,1.37-2.891-0.152c-2.282-1.521-4.108-1.218-5.326-0.609c-1.217,0.609-3.195-5.021-3.195-5.021
	s1.065-5.021-0.761-5.326c-1.827-0.304-2.587,0.913-3.348-1.673c-0.761-2.587,0.152-3.805-0.913-5.326
	c-0.922-1.317,1.003-5.373,1.044-9.895c-1.212-0.095-2.458-0.148-3.707-0.148c-6.848,0-6.391-1.256-8.103-2.511
	c-1.711-1.255-2.625,0.114-3.195-1.141c-0.571-1.255-2.283-2.967-2.854-2.396s0.913,5.707-4.108,7.189
	c-5.021,1.484-4.908,1.827-5.82,5.707l-3.88,1.712c0,0-0.685,2.51-2.168,3.994c-1.484,1.483,1.939,4.564,1.939,4.564
	s0,3.619-3.262,13.214c1.545,1.673,3.529,3.982,3.529,4.818c0,1.37,7.456,6.847,9.586,5.934s2.282-5.934,2.13-12.325
	c-0.152-6.391,0.609-3.652,4.108-2.283c3.5,1.369,2.435,3.348,2.13,5.934c-0.304,2.587-1.065,3.957,3.044,5.326
	c4.108,1.369,0.76,6.087,4.716,7.304c3.957,1.217,4.717,2.282,6.086,1.521c1.37-0.761,5.174,3.804,6.391,1.522
	c1.217-2.283,1.674-0.761,3.348,0c1.674,0.76,2.739-1.217,4.565-2.13S173.766,50.648,173.005,47.452z"/>
<path id="Catamarca" fill="#6298f2" stroke="#231F20" stroke-miterlimit="10" d="M156.876,139.815
	c-1.979-1.521-2.739-1.065-1.522-4.717c1.218-3.651-0.457-11.107-0.457-11.107s-1.369-2.587-3.043-3.044
	c-1.673-0.457-1.065,2.435-3.804,3.5c-2.739,1.065-2.13-4.869-2.891-4.109c-0.761,0.761-2.13,1.522-2.435,0
	c-0.304-1.521-0.913-2.434-1.522-3.956c-0.609-1.522-0.304-5.173-2.283-6.087c-1.978-0.913-1.065-1.217,1.521-4.565
	c2.588-3.347,1.065-4.564,1.065-4.564s1.218-1.979,0.457-2.587c-0.762-0.609-3.804-3.043-4.109-4.413
	c-0.184-0.826,0.186-4.085,0.509-6.643c-0.394-0.227-0.686-0.407-0.813-0.509c-0.761-0.609-2.13,0.609-3.805,3.348
	c-1.673,2.738-3.651-1.065-4.565-3.652c-0.913-2.587-3.5-6.695-3.347-8.369c0.151-1.674,1.369-1.217,3.043-0.913
	c1.674,0.304,1.521-1.673,1.826-3.5c0.304-1.826-1.218-2.435-1.218-2.435l1.065-1.37c0,0-10.195-0.76-17.956-0.76
	c-4.282,0-10.831-1.112-15.844-2.108c-1.218,0.669-1.881,2.104-2.491,5.151c-0.114,0.571-1.255-0.914,0.115,3.195
	s3.424,9.814,2.625,11.64c-0.799,1.826-3.31,2.739-3.31,2.739l-0.228,3.88c0,0,6.048,6.961,5.25,9.586
	c-0.799,2.625-5.021,4.336-5.021,4.336s-3.195-2.625-3.994-1.141c-0.799,1.484,1.141,2.739-0.343,4.336
	c-1.465,1.579-4.153,6.385-4.878,9.142c3.066,0.334,5.823-0.871,7.884-1.305c2.891-0.609,3.043,0.304,3.348,3.651
	c0.305,3.348,0.152,1.522,1.826,1.674c1.675,0.152,0.609,1.217,2.587,1.826c1.978,0.609,1.978,1.826,3.956,1.369
	c1.979-0.456,1.37,2.739,2.892,4.565c1.521,1.826,1.065-1.978,4.26-1.065c3.196,0.913,7.304,1.217,7.304,1.217
	c1.826-2.739,5.021-2.283,8.217-1.979c3.196,0.305,2.13-0.152,3.348,3.195c1.217,3.348,1.217,4.261,3.195,5.478
	s-1.674,1.826,0,2.892c1.674,1.065,3.957,1.369,5.174,2.434s3.652,3.957,5.021,5.782c1.369,1.826,6.695,17.651,6.695,17.651
	s1.218,0.152,3.957-0.608c2.739-0.761,5.021-3.804,5.021-3.804l-1.065-6.391l2.282-0.608c0,0,0,0,0-1.826
	c0-1.826-0.304-3.957,0.457-6.391C161.592,145.445,158.854,141.336,156.876,139.815z"/>
<path id="LaRioja" fill="#6298f2" stroke="#231F20" stroke-miterlimit="10" d="M150.711,167.517c-0.359,0.013-0.531-0.008-0.531-0.008
	s-5.326-15.825-6.695-17.651c-1.37-1.826-3.804-4.717-5.021-5.782s-3.5-1.369-5.174-2.434c-1.674-1.065,1.978-1.674,0-2.892
	s-1.979-2.13-3.195-5.478c-1.217-3.347-0.152-2.891-3.348-3.195c-3.195-0.304-6.391-0.761-8.217,1.979c0,0-4.108-0.305-7.304-1.217
	c-3.195-0.913-2.739,2.891-4.26,1.065c-1.522-1.826-0.913-5.021-2.892-4.565c-1.978,0.457-1.978-0.76-3.956-1.369
	c-1.979-0.608-0.913-1.673-2.587-1.826c-1.674-0.152-1.521,1.674-1.826-1.674c-0.304-3.347-0.457-4.26-3.348-3.651
	c-2.061,0.434-4.817,1.639-7.884,1.305c-0.009,0.034-0.021,0.07-0.028,0.103c-0.685,2.739-1.255,2.967-2.511,4.451
	c-1.255,1.484-1.826,4.565-3.538,3.995c-1.711-0.571-0.798,1.826-2.168,2.967c-0.074,0.062-0.146,0.125-0.216,0.191
	c0.635,0.428,1.246,0.857,1.585,1.14c0.913,0.76,2.283-0.152,3.348,1.369c1.065,1.521,2.586,5.935,4.565,7.456
	c1.978,1.522,2.586,4.87,1.37,5.783c-1.217,0.913-0.457,0.76-0.305,3.043c0.152,2.283-1.826,7.303,0.457,7.151
	c2.282-0.151,9.282-0.608,11.108,1.218c1.826,1.826,13.238,11.563,13.39,12.934c0.152,1.37,1.826,3.195,4.413,5.63
	c2.587,2.435,5.783,6.391,4.717,8.064s0.761,3.044-0.152,5.935c-0.914,2.891,0,6.087,1.369,7.152c1.37,1.065,2.13,1.978,2.739,3.652
	s2.13,1.826,1.978,2.283c-0.017,0.052-0.11,0.1-0.259,0.143c1.14,0.8,2.401,1.561,3.402,1.833c2.43,0.663,4.419,0,6.628,0
	c2.21,0,4.199-1.768,5.966-1.546c1.768,0.221,1.768,0.221,1.768,0.221l-0.221-18.56
	C143.878,186.727,148.098,174.734,150.711,167.517z"/>
<path id="SanJuan" fill="#6298f2" stroke="#231F20" stroke-miterlimit="10" d="M124.617,202.354c-0.609-1.674-1.369-2.587-2.739-3.652
	c-1.369-1.065-2.283-4.261-1.369-7.152c0.913-2.891-0.914-4.261,0.152-5.935s-2.13-5.63-4.717-8.064
	c-2.586-2.435-4.26-4.26-4.413-5.63c-0.152-1.37-11.564-11.107-13.39-12.934c-1.826-1.826-8.826-1.37-11.108-1.218
	c-2.282,0.152-0.304-4.868-0.457-7.151c-0.152-2.283-0.913-2.13,0.305-3.043c1.217-0.913,0.608-4.261-1.37-5.783
	c-1.979-1.521-3.5-5.935-4.565-7.456c-1.065-1.521-2.435-0.609-3.348-1.369c-0.339-0.283-0.95-0.711-1.585-1.14
	c-1.228,1.147-1.894,2.97-2.866,8.367c-1.027,5.707-0.228,6.847-2.282,7.646c-2.054,0.799-2.967,4.452-2.283,6.277
	c0.685,1.826,2.054,8.104,1.141,11.641c-0.913,3.537,2.625,0.913,2.283,2.967s-1.598,1.483-1.598,3.082
	c0,1.598-2.739,2.853-4.108,1.711c-1.37-1.141-0.229,0.457-0.571,1.484c-0.343,1.027-1.826,2.625-2.054,6.847
	c-0.228,4.222-0.799,7.304-2.054,7.646c-1.255,0.343-1.826-2.853-2.168,1.142c-0.342,3.994-1.826,5.935-0.799,8.901
	c1.027,2.968,2.169,2.853,2.054,3.994c-0.114,1.142,3.538,0.571,3.652,2.397c0.114,1.826-2.853,2.282-2.853,2.282
	s1.369,1.369,1.369,3.31c0,1.94,0.342,2.054,1.255,3.31c0.913,1.255,1.598,1.94,1.711,4.336c0.025,0.503,0.013,0.964-0.003,1.397
	c0.451-0.01,0.728-0.155,1.106-0.408c0.913-0.609,1.218-0.914,3.805-0.914c2.586,0,3.043-1.216,3.043-3.5
	c0-2.282,0.761-2.586,1.37-4.108c0.608-1.521,1.065-1.826,2.435-2.13c1.369-0.304,1.521-0.457,4.413-2.13
	c2.891-1.674,2.435,1.521,2.435,1.521l3.195,0.305l-0.152,5.173h4.261c0,0,3.195-3.043,3.5-4.564c0.304-1.522,2.434,0,4.717-0.304
	s3.804-1.522,5.326,0.152s2.283,1.37,5.934,2.13c3.652,0.761,2.435,0.913,2.435,0.913c3.196,4.413,3.196,1.521,2.435,0
	c-0.761-1.522-0.608-5.174-0.608-7c0-1.826,0.913-0.761,3.042-0.608c2.131,0.152,7.913,0,8.065-0.457
	C126.747,204.18,125.226,204.027,124.617,202.354z"/>
<path id="Mendoza" fill="#6298f2" stroke="#231F20" stroke-miterlimit="10" d="M128.188,265.164c-1.768-4.198-2.21-7.071-1.546-11.489
	c0.663-4.419,0-4.419-1.768-6.85c-1.767-2.431-4.418-6.628-5.081-8.175c-0.664-1.547-1.547-13.036-1.547-15.246
	s-1.104-3.535-1.326-5.744c-0.054-0.541-0.359-1.49-0.789-2.616c-0.407,0.03-1.177-0.559-2.469-2.343c0,0,1.217-0.152-2.435-0.913
	c-3.651-0.761-4.413-0.456-5.934-2.13s-3.043-0.456-5.326-0.152s-4.413-1.218-4.717,0.304c-0.304,1.521-3.5,4.564-3.5,4.564h-4.261
	l0.152-5.173l-3.195-0.305c0,0,0.457-3.195-2.435-1.521c-2.891,1.673-3.043,1.826-4.413,2.13c-1.37,0.304-1.827,0.609-2.435,2.13
	c-0.609,1.521-1.37,1.826-1.37,4.108c0,2.283-0.457,3.5-3.043,3.5c-2.587,0-2.892,0.304-3.805,0.914
	c-0.378,0.252-0.655,0.398-1.106,0.408c-0.06,1.631-0.184,2.842,1.259,4.195c1.826,1.711,1.598,3.423,0.342,5.021
	c-1.255,1.598-0.913,4.907,1.826,4.907c2.739,0,3.538-0.457,2.168,4.908c-1.37,5.363-0.57,7.532-0.457,9.358
	c0.114,1.826,2.283,7.418-0.913,7.304c-3.195-0.115-1.255,1.711-3.766,4.336c-2.511,2.625-2.283,4.337-2.511,6.276
	c-0.228,1.94-2.168,3.539-2.168,5.821c0,2.283-1.598,2.853-2.967,3.766s-0.799,2.511,1.37,2.055
	c2.168-0.457,0.342,0.456,0.685,3.081c0.342,2.625,0.115,6.619,1.027,7.761c0.913,1.141,0.457,0.799-0.343,1.94
	c-0.684,0.978,0.218,4.044-0.513,5.55c0.073,0.957,0.137,1.817,0.17,2.324c0.114,1.712,0.342,1.712,2.055,2.282
	c1.712,0.571,1.255,0.342,1.712,2.853c0.456,2.511,3.538,5.021,5.363,6.962c1.826,1.939,0.913-0.685,2.396,4.793
	c1.483,5.478,6.505,3.081,8.902,3.423c2.396,0.342,2.396,0.342,4.108,4.223c1.711,3.88,3.309-1.027,5.364,1.255
	c2.054,2.282,4.793,1.597,4.793,1.597c0.913,2.397,3.766,2.397,3.766,2.397l-0.002,0.209c0.159,0.011,0.333,0.024,0.514,0.039
	V297.34h-1.739v-3.477h30.304c1.011-5.649,1.905-13.42,2.252-16.547C131.281,273.339,129.956,269.362,128.188,265.164z"/>
<path id="LaPampa" fill="#6298f2" stroke="#231F20" stroke-miterlimit="10" d="M155.64,271.021v22.842H98.284v3.477h1.739v31.861
	c0.77,0.066,1.744,0.178,2.987,0.36c5.174,0.761,5.326,1.218,5.63,3.196c0.304,1.978-2.435,4.413-2.435,5.782
	c0,1.37,2.739,1.979,4.108,4.108c1.369,2.13,4.108,2.13,6.391,1.522c2.282-0.608,2.13,2.587,3.195,3.347
	c1.065,0.761,8.522,2.435,9.13,3.804c0.608,1.37-0.609,5.021,3.956,4.869c4.565-0.152,6.695-0.761,10.5,1.37
	c3.804,2.13,1.978-0.609,3.804-0.913c1.826-0.304,3.347,2.739,9.738,0.609c6.391-2.13,17.347,4.108,21.151,6.695
	c2.497,1.698,4.993,4.445,8.437,5.443l0.209-98.373H155.64z"/>
<path id="Neuquén" fill="#6298f2" stroke="#231F20" stroke-miterlimit="10" d="M40.338,409.037c-0.822-1.358-1.493-3.025-1.922-3.453
	c-0.667-0.666-1.417-2.667-1.25-3s0.861-1.06,1-0.667c0.5,1.417,4.75,5.417,4.75,5.417s0,0-1.083,0s0.333,1.083,1.417,1.583
	c0.598,0.276,1.517,0.955,2.201,1.553c1.104-0.005,2.215-0.635,3.541-2.696c2.739-4.261-3.343-3.787,1.522-7.304
	c1.133-0.819,2.515-1.516,5.24-1.925c1.053-0.159,2.264-2.106,3.421-1.896c1.159,0.211,4.212,1.422,6.107-1.263
	s3.527-5.897,3.106-8.107c-0.421-2.211,2.249-5.486,8.526-6.97c6.267-1.481,0.818-4.555,5.569-5.927
	c2.017-0.069,7.681-5.333,7.681-5.333c0.736-0.844,1.44-1.708,2.157-2.549c2.625-3.082,4.45-5.707,8.217-5.25
	c3.766,0.457,4.336-0.57,2.396-3.651c-1.94-3.082-3.652-3.082-3.652-3.082l0.227-25.354l0,0l0.002-0.209c0,0-2.853,0-3.766-2.397
	c0,0-2.739,0.685-4.793-1.597c-2.055-2.283-3.652,2.625-5.364-1.255c-1.712-3.88-1.712-3.88-4.108-4.223
	c-2.396-0.343-7.418,2.054-8.902-3.423c-1.483-5.478-0.57-2.854-2.396-4.793c-1.826-1.94-4.907-4.451-5.363-6.962
	c-0.457-2.511,0-2.282-1.712-2.853c-1.712-0.57-1.94-0.57-2.055-2.282c-0.034-0.507-0.098-1.367-0.17-2.324
	c-0.123,0.252-0.285,0.465-0.514,0.612c-1.597,1.027-3.766,0.457-4.337,2.967c-0.57,2.511,0.229,2.854-2.054,3.31
	c-2.283,0.457-1.484,1.369-3.082,1.255s0.229,4.793-2.054,5.021c-2.283,0.228-0.457,2.511-0.571,5.135
	c-0.114,2.625,0.342,4.565-0.57,6.163c-0.913,1.598-0.342,1.598,0.114,4.336c0.457,2.739,1.142,2.625-0.228,4.108
	c-1.37,1.483-1.028,2.283,0.57,6.391c1.598,4.108,2.511,10.271,2.967,12.439c0.457,2.168,2.168,0.571,2.168,2.739
	c0,2.169-0.342,5.022-4.108,5.25c0,0-5.82,2.511-6.276,3.767s1.369,7.189,0.457,9.015c-0.913,1.826-1.598,4.452-1.826,5.935
	c-0.228,1.483-1.37,2.054-3.196-0.114c0,0-0.57,5.021,0.114,6.048c0.685,1.027,1.484,1.598,0.229,4.108s0.57,3.538-2.739,1.826
	c0,0-1.141,1.827,0.114,3.424c1.255,1.597,3.538,1.026,2.396,3.082c-1.141,2.054-2.168,0.456-2.739,2.624
	c-0.571,2.168-1.483,4.794-2.168,6.049c-0.685,1.255,2.055,2.738,1.484,5.707c-0.063,0.328-0.098,0.617-0.117,0.885
	C36.88,408.865,38.899,408.871,40.338,409.037z M87.417,349.5c0.833-0.083,2.5-0.5,3.25,0.083s1.75,1.833,2.917,1.5
	s3.167,1.666,2.417,2.333s-2,0.917-2.333,0.333s-1.5-2.417-2.417-1.917c0,0-2.583,2.75-3.833,0.667S86.584,349.583,87.417,349.5z"/>
<path id="RíoNegro" fill="#6298f2" stroke="#231F20" stroke-miterlimit="10" d="M192.33,402.904c-4.565-2.13-5.782-1.217-5.782-1.217
	l0.068-32.293c-3.444-0.999-5.94-3.746-8.437-5.443c-3.804-2.587-14.76-8.826-21.151-6.695c-6.391,2.13-7.913-0.913-9.738-0.609
	c-1.826,0.304,0,3.043-3.804,0.913c-3.805-2.131-5.935-1.521-10.5-1.37c-4.564,0.152-3.347-3.5-3.956-4.869
	c-0.608-1.369-8.065-3.043-9.13-3.804c-1.065-0.76-0.913-3.956-3.195-3.347c-2.283,0.608-5.022,0.608-6.391-1.522
	c-1.37-2.13-4.108-2.738-4.108-4.108c0-1.369,2.739-3.804,2.435-5.782c-0.305-1.978-0.457-2.435-5.63-3.196
	c-1.536-0.226-2.667-0.344-3.501-0.399l-0.227,25.354c0,0,1.712,0,3.652,3.082c1.939,3.081,1.369,4.108-2.396,3.651
	c-3.767-0.457-5.592,2.168-8.217,5.25c-0.717,0.841-1.42,1.706-2.157,2.549c0,0-5.664,5.264-7.681,5.333
	c-4.751,1.372,0.697,4.446-5.569,5.927c-6.277,1.484-8.947,4.759-8.526,6.97c0.421,2.21-1.21,5.422-3.106,8.107
	s-4.949,1.474-6.107,1.263c-1.158-0.21-2.368,1.737-3.421,1.896c-2.726,0.409-4.107,1.105-5.24,1.925
	c-4.865,3.517,1.217,3.043-1.522,7.304c-1.325,2.062-2.437,2.691-3.541,2.696c0.554,0.485,0.958,0.918,0.883,1.03
	c-0.167,0.25-3,0.084-4.5-0.75c-0.536-0.298-1.039-0.959-1.495-1.713c-1.439-0.166-3.458-0.172-5.424-0.111
	c-0.15,2.137,0.941,2.524,0.23,5.162c-0.799,2.969,1.027,7.189,0.229,9.244s1.255,0.57,1.255,5.934c0,1.36,0.132,2.441,0.288,3.311
	H156.85c-0.353-1.301-0.229-2.627,0.366-3.716c1.051-1.929,0.315-2.245,0.42-3.787s1.086-3.927,0.456-4.663
	s-3.155-6.487-2.909-10.902c0.245-4.417,1.612-7.221,3.399-7.817c1.788-0.596,4.451,0.771,2.208,1.788
	c-2.244,1.016-1.332,1.192,0.736,1.051c2.067-0.141,3.048-0.175,6.589,1.929c3.54,2.103,6.484,3.47,8.027,3.645
	c1.542,0.176,1.086,2.138,3.715,2.138c2.628,0,11.952,0.423,13.179-0.453c0.581-0.415,2.26-1.238,4.15-2.121
	C195.916,406.665,194.26,403.805,192.33,402.904z M157.083,394.501c-1.25,1.417-5.583,0.167-6.083-0.667s-1.083-0.667-1.833-0.083
	s-1.333,0-1.583-0.417c0,0,0.417-0.583,0.75-0.833s-0.667-0.75-0.167-1.25s1.833,1.167,3.333,1.167S158.333,393.084,157.083,394.501
	z M183.167,380.918c-0.917,0.083-3.083-1.583-3-1.833c0.25-0.75,3.5-0.417,5.167-0.25S184.083,380.834,183.167,380.918z"/>
<g id="TierradelFuego">
	<path fill="#6298f2" stroke="#231F20" stroke-miterlimit="10" d="M154.974,775.855c-0.152-0.837-0.989-0.76-1.902-1.064
		c-0.913-0.305-1.674,0.685-3.804,0.837c-2.13,0.151-6.239,0.227-12.25-2.815c-6.01-3.043-8.292-5.706-9.053-7.305
		c-0.761-1.598-0.761-1.521-4.184-3.88c-3.424-2.358-11.108-5.706-11.717-7.837c-0.608-2.129,0-2.891-1.217-3.879
		c-1.217-0.989-6.543-5.402-7.38-8.978c-0.836-3.576-0.38-6.011-2.967-6.239c-2.586-0.228-6.01,0.305-6.239-2.891
		c-0.228-3.195,2.511-5.936,3.12-6.087c0.608-0.152,2.967,1.444,1.674-0.686c-1.294-2.13-5.769-9.054-5.769-9.054v55.599
		c1.077,0.033,2.136,0.096,2.741,0.212c1.58,0.304,5.103,0.729,8.625,0.547s2.551-1.458,3.462-1.215s0.668,0.485,2.794,0.789
		s4.859-0.425,6.864-0.607s-0.182,1.094-1.397,1.762s-3.402,1.397-5.164,1.094s-4.131-0.426-5.832-0.122s-6.317,0-6.682-0.182
		s-1.701-0.122-4.07-0.122c-0.449,0-0.903-0.079-1.343-0.207v9.567c0,0,1.736-0.542,2.953-1.15s2.054-0.533,3.195-1.445
		c1.142-0.914,2.282,0.456,5.098,1.141c2.815,0.685,4.717,1.445,6.695,1.217c1.979-0.228,1.979-1.369,6.087-0.304
		s7.228,1.749,8.293,2.587c1.065,0.837,2.891,2.739,5.478,2.587c2.586-0.152,1.978-1.598,3.575-1.522
		c1.598,0.077,7,0.152,5.478-2.435c0,0-0.608-0.304,1.446-0.304s2.814,0.228,3.119,1.445s1.978,0.38,3.195-0.228
		c1.218-0.609,0.914-2.208,1.522-1.827c0.608,0.381,1.141,2.739,2.739-0.228c1.598-2.968,1.902-3.575,1.978-4.641
		C154.213,776.921,155.125,776.693,154.974,775.855z"/>
	<path fill="#6298f2" stroke="#231F20" stroke-miterlimit="10" d="M162.365,781.925c0,0-0.612-1.912,0.536-1.912
		s2.448,0.993,2.754,0.152s0.535-1.989,0.765-1.836s1.683,0.688,2.524,0s2.142-0.382,2.983,0.153s1.223,0,2.294,0
		s2.065-1.071,3.213-0.918s3.059,0.536,0.994,1.76s-2.295,0.305-2.83,0.841s-1.606,0.153-2.677,0.842s-1.377,0.535-2.218-0.459
		s-0.918-0.306-1.3,0.459s-0.995,0.918-1.683,1.377s-1.759-0.613-2.142,0.382s-1.989,1.836-2.065,0.612
		S162.977,781.466,162.365,781.925z"/>
</g>
<path id="Córdoba" fill="#6298f2" stroke="#231F20" stroke-miterlimit="10" d="M212.787,221.179c0.736-0.588,1.325-2.649,0.147-4.12
	c-1.178-1.472-1.472-2.649-2.796-4.709s-1.766,0.588-1.472-2.648c0.295-3.238-0.735-3.679-0.883-4.268
	c-0.147-0.589,0-1.178-0.294-3.384c-0.294-2.207,1.325-2.207,2.06-3.09c0.736-0.883,5.15-19.276,5.15-19.276l-2.795-0.441
	c0,0,0.441-0.735-1.324-1.912c-0.359-0.239-0.625-0.675-0.824-1.214l-0.004,0.028l0.153-1.073c-0.715-1.082-1.021-2.705-1.021-2.705
	s-0.117-0.005-0.313-0.014c-0.049,0.852-0.233,1.695-0.373,2.16c-0.257,0.858,0,5.322-0.086,7.897s-4.377,1.974-5.922,1.459
	s-2.318,1.116-4.035,1.116s-4.206-4.893-4.978-6.094s-4.377-3.176-5.322-4.034s-0.429-2.833,0.343-3.691s0.136-5.862,0.515-5.922
	c4.292-0.687,4.979,4.721,5.322,4.807c0.218,0.055,3.953-0.409,6.943-1.018c0.003-0.061,0.004-0.131,0.009-0.184
	c0.085-0.944,0.687-1.802,0.687-1.802s-1.459-1.03-2.747-2.318s-1.374-3.433-1.374-3.433l-11.587-0.172l-0.687-2.661
	c0,0-3.776,0.257-4.807-0.343s-1.116-2.489-2.146-1.288s-1.459,0.687-1.631-0.086s-1.459-0.858-3.433-1.374s-6.781,0.172-9.27,0.772
	c-1.069,0.258-2.422,0.072-3.619-0.224c0,0.038,0,0.071,0,0.094c0,0.082,0,0.083,0,0.083l-2.282,0.608l1.065,6.391
	c0,0-2.282,3.043-5.021,3.804c-1.71,0.475-2.827,0.594-3.425,0.617c-2.614,7.217-6.833,19.21-6.833,19.21l0.213,17.894
	c1.459,0.388,3.042,0.83,3.805,1.107c1.619,0.589,5.444,3.09,5.886,4.562c0.442,1.472,0.588,3.826,0.588,3.826l4.268,0.735
	c0,0,0.294,1.472,0.882,2.649c0.589,1.177-0.294,2.795-0.588,4.267c-0.294,1.471-1.03,7.063-2.207,8.976
	c-1.177,1.913-1.471,3.973-1.471,6.18c0,1.676,0.415,23.629,0.615,34.098h30.956l0.027-12.671l8.879-0.09
	c5.065-7.87,16.631-25.816,18.233-28.105c2.06-2.943,1.766-2.648,1.324-5.738C214.847,221.327,212.052,221.767,212.787,221.179z"/>
<path id="SantiagodelEstero" fill="#6298f2" stroke="#231F20" stroke-miterlimit="10" d="M163.994,156.143
	c2.489-0.601,7.296-1.288,9.27-0.772s3.261,0.601,3.433,1.374s0.601,1.288,1.631,0.086s1.116,0.687,2.146,1.288
	s4.807,0.343,4.807,0.343l0.687,2.661l11.587,0.172c0,0,0.086,2.146,1.374,3.433s2.747,2.318,2.747,2.318s-0.602,0.858-0.687,1.802
	c-0.005,0.052-0.005,0.123-0.009,0.184c1.726-0.352,3.206-0.751,3.614-1.128c1.116-1.03,1.116-1.888,2.489-2.231
	s0.601,3.605,1.202,4.721c0.275,0.511,0.329,1.239,0.288,1.96c0.196,0.009,0.313,0.014,0.313,0.014s0.305,1.624,1.021,2.705
	l7.252-50.776h-0.177V77.124h-31.214c-0.697,0.772-1.174,1.218-1.35,1.218c-1.369,0-7-1.674-8.978,0.152
	c-1.978,1.826-3.5-0.152-4.413-0.152c-0.913,0-3.348,6.847-3.652,8.978c-0.074,0.513-0.192,0.837-0.36,1.041l0.056,2.001
	c-0.609,1.369,0,7.608,0,7.608l-2.435-0.152c0,0,0.913,1.826-0.76,2.586c-1.674,0.761-1.37,0.761-1.827,3.805
	c-0.456,3.042-0.304,5.782-3.042,7c-2.739,1.217-1.522,1.826-1.218,3.499c0.304,1.674,0.609,2.74,0.457,4.413
	c-0.152,1.674-0.457,3.195-2.13,2.739c-0.932-0.254-1.533,0.247-1.962,0.978c0.462,0.622,0.745,1.153,0.745,1.153
	s1.674,7.456,0.457,11.107c-1.217,3.652-0.456,3.196,1.522,4.717c1.978,1.521,4.716,5.63,3.956,8.064
	c-0.76,2.434-0.457,4.565-0.457,6.391c0,0.994,0,1.443,0,1.648C161.572,156.214,162.925,156.4,163.994,156.143z"/>
</svg>
