<?xml version="1.0" encoding="utf-8"?>
<!-- Generator: Adobe Illustrator 16.0.0, SVG Export Plug-In . SVG Version: 6.00 Build 0)  -->
<!DOCTYPE svg PUBLIC "-//W3C//DTD SVG 1.1//EN" "http://www.w3.org/Graphics/SVG/1.1/DTD/svg11.dtd">
<svg version="1.1" id="Canada" xmlns="http://www.w3.org/2000/svg" xmlns:xlink="http://www.w3.org/1999/xlink" x="0px" y="0px"
	 width="595.28px" height="841.89px" viewBox="0 0 595.28 841.89" enable-background="new 0 0 595.28 841.89" xml:space="preserve">
<g id="Northwestterritories">
	<path fill="#47EADA" stroke="#FFFFFF" stroke-miterlimit="10" d="M157.299,179.87c-1.12-2.208,1.404-6.492,2.472,0.629
		c3.255,5.456,6.392,0.829,3.797-3.28c-0.167-7.47,2.859,2.386,3.805-0.379c3.364-4.823,1.461-9.782,3.079-11.474
		c2.309,3.653,1.358,8.155,4.09,7.083c3.494-1.371-1.956-3.767,5.16-6.848c0.147-2.948,1.897-6.637-2.762-9.81
		c4.431-4.238,3.969-4.633,2.345-6.208c-5.082-4.937-6.219-0.936-4.507,1.661l-1.526,2.325c-8.351-3.301-11.287,3.55-12.424,5.937
		c-1.33,2.784-2.128,4.412-3.658,6.792c-1.958,3.039-0.172,6.097-3.331,6.555c-7.412,1.606-4.365,5.31-2.598,10.712
		C155.623,174.669,155.434,187.875,157.299,179.87z"/>
	<path fill="#47EADA" stroke="#FFFFFF" stroke-miterlimit="10" d="M206.609,186.537c-0.67-6.954-8.281-2.773-2.995-7.203
		c-1.143-0.619-1.897-1.588-3.072-2.241c-0.692-3.523-3.108-2.762-4.253-3.915c-8.97,5.075-3.125-4.402-6.044-4.426
		c-3.067-0.03-8.809,1.103-9.685,6.149c-0.764,4.427-5.786,7.984-5.991,12.839c-0.488,11.358,10,11.111,13.737,8.572
		c2.048-1.401,2.419-6.583,4.475-7.84c7.719-0.388-2.27,2.469,1.175,6.77c1.72,2.147,13.23-5.366,13.985-3.539
		c2.221,5.39-7.103,4.505-8.635,4.894c-2.019,0.532-6.193,3.58-8.581,5.71c-0.354,4.232,11.457,4.86,13.684,2.557
		c1.274-1.312,2.997-2.656,4.909-3.886v-14.144C208.265,186.755,207.313,186.653,206.609,186.537z"/>
	<path fill="#47EADA" stroke="#FFFFFF" stroke-miterlimit="10" d="M112.353,252.697c3.514,1.307,4.101,2.141,7.471,4.675
		c3.908,2.938,3.129,10.721,7.68,9.106c1.494-0.53,5.788-5.716,7.019-6.491c1.47-0.933,1.111,1.962,2.846,1.789
		c3.206-0.324,4.688-2.954,5.157-7.527c0.362-3.59,2.266-4.94,0.585-8.876c1.68-0.735,0.971,1.72,3.613,1.245
		c2.25-0.396,2.622-3.705,3.636-7.148c1.679-2.026,11.08-6.183,12.751-8.293c1.714-2.17,3.703-2.977,6.111-3.952
		c1.945-0.806,6.293-2.403,4.402-5.253c-1.021-1.535-1.281-1.661-2.79-2.736c-1.243-0.891-1.384-2.278-2.724-3.033l-1.64-1.217
		c-4.281-8.182-10.775-5.991-13.469-5.175c-0.507,3.673-2.981,7.258-2.227,0.271c-2.04-1.834-3.728-0.692-6.595-1.123
		c-2.583-0.393-4.428-4.006-7.034-5.272c-1.371,0.419-4.523,0.204-5.816,0.621c-1.399,0.453-6.563,1.004-5.977,2.499
		c-2.255,0.027-7.808-2.017-9.952,0.54c-1.782,2.132,4.014,12.279,4.136,14.95c0.155,3.262-2.33,1.76-3.276,4.585
		c-0.936,2.807-0.689,6.182-2.314,8.502c-0.978,1.394-1.179,7.866-2.152,9.268c-0.813,1.175-2.73,2.871-3.215,4.136
		C107.213,252.333,109.505,252.284,112.353,252.697z"/>
	<path fill="#47EADA" stroke="#FFFFFF" stroke-miterlimit="10" d="M209.316,238.671c-2.697-1.779-6.349-3.559-7.325-2.093
		c-0.692,1.044,4.295,4.785,4.036,6.047c-0.62,3.016-6.336,5.567-8.877,6.28c-1.458,0.404-2.594,2.084-3.694,0.771
		c-1.904-2.27,1.707-1.266,2.385-2.864c0.775-1.878,2.329-2.991,0.576-5.117c-0.908-1.102-7.112-4.175-8.496-4.302
		c-3.996-0.371-3.794,1.526-4.928,4.245c-0.952,2.286-4.597,4.045-7.623,3.469c0.721-2.667,4.039-3.832,4.519-5.428
		c0.438-1.459-0.763-2.792-0.548-4.49c0.207-1.617-0.838-4.283-2.071-5.197c-1.458-1.078-5.863,0.684-7.423,1.611
		c-4.977,2.984-14.919,8.897-16.288,10.936c-5.958,4.893-0.752,3.237-0.433,6.42c-1.806,0.119-7.846,6.665-5.956,10.366
		c0.868,1.699,4.743,3.684,6.182,4.619c2.193,1.434,4.835-0.28,7.559-0.612c2.042-0.251,8.753-3.106,10.329-0.85
		c-0.917,1.395-6.734,0.663-6.585,2.517c-3.329,0.221-17.951,3.112-11.96,8.41c6.262,6.177,7.046,3.368,11.124,5.259
		c2.655,1.228,3.76,2.234,6.591,0.462c1.963-1.229,3.376-3.207,5.625-3.776c2.945-0.73,6.807,0.253,9.546,1.551
		c1.752,0.827,4.977,2.205,6.434,3.691c-3.003,4.655-12.928-0.504-16.531,1.165c-2.021,0.943-4.365,0.32-6.426,1.305
		c-2.523,1.207-6.324,1.187-8.788,2.463c-1.11,0.575-1.772,1.203-2.104,1.86h51.15V238.671z"/>
	<path fill="#47EADA" stroke="#FFFFFF" stroke-miterlimit="10" d="M35.189,339.522H49.46c0,0,0.144,2.162,1.441,3.171v2.451
		l1.297,2.594l-1.441,3.028l1.441,1.44v5.189c0,0,5.333-3.171,4.612,0c0,0,5.622-4.324,3.027,1.441c0,0,4.469,3.749-2.306,11.531
		c0,0,2.018,4.325,7.496,9.37v1.874c0,0,2.882-3.17,4.612,3.316c0,0,1.297,3.604,4.901,4.755v2.739c0,0,3.46,1.298,0,5.91
		l3.892,3.027l-0.721,4.324l2.018,1.153v2.739h1.874c0,0-3.892,6.054,1.441,5.766c0,0,3.027-2.594,7.64,7.639
		c0,0,5.957-0.863,6.006,11.533c0,0,4.949-0.723,6.968-2.741c0,0,2.018,3.316,6.341-1.008l3.604,0.721c0,0-4.469,3.749,0,6.487
		l2.156,4.9h25.52h62.126h3.796h49.826h2.882l-0.816-58.426l-45.935-8.649l-10.377-9.417l-14.222,0.768
		c-31.327-34.017-37.67-29.212-37.67-29.212l-16.528-12.3v-28.444l4.291-0.796c-3.15-2.302-6.852-6.935-10.122-6.816
		c-2.159,0.077-6.03-1.437-7.899,0.217c-0.682,0.599,0.105,5.244-0.42,5.515c-15.364,9.404-0.805-4.073-8.445-3.857
		c-0.02-2.886,2.667-10.955-2.125-6.993c-4.145,1.875,0.612,2.741-2.343,5.046c2.162,2.379,0.41,2.866-2.162,4.037
		c-1.124,0.516,1.585,3.459-0.144,5.549c-4.252-2.162-8.372-5.991-10.234-15.351c-0.638-4.107-5.766-11.099-7.001-6.361
		c-2.333,2.449,6.077,4.074-1.202,9.336c-7.567,6.63,2.115,8.194-0.589,8.845c-1.314,0.313-2.975-3.584-4.27-3.108
		c-1.433,0.525-0.041-3.801-1.4-3.234c-4.036,1.057-6.283,3.131-9.12,6.97c-4.324,5.333-1.89-1.42-4.574-0.05
		c-5.382,7.303-3.796,1.778-3.699,0.24c1.826-2.642,2.801-0.879,6.678-2.354c2.787-1.682,2.738-5.093,8.271-7.13
		c3.313-3.869,0.366-5.968-3.165-1.355c-0.866,1.13-2.606-2.264-3.856-1.509c-2.046,1.238-3.075,8.024-4.276,2.979
		c-1.729,1.097-5.189,6.006-8.024,5.333c-4.735,1.712-1.249,5.43-9.561,7.255c2.136-4.336,0.793-4.209-2.582-7.5
		c-0.865,3.075-2.279,3.203-3.184,4.848c-0.372,1.063-1.429,4.041-4.841,1.879c-1.109,0.485-2.678,0.946-3.208,2.162
		c-1.286,2.941,7.495,4.521,4.468,9.855c-2.925-2.662-4.655-3.395-6.162-3.669v21.249C33.46,328.423,34.901,329.721,35.189,339.522z
		"/>
	<path fill="#47EADA" stroke="#FFFFFF" stroke-miterlimit="10" d="M188.461,142.861c0.821,0.578,0.628,2.347,1.517,2.408
		c1.004,0.072,3.621,0.266,4.8-1.711c0.094-1.277-0.801-2.031-2.194-2.242c-0.958-1.278-1.69-1.395-2.91-1.971
		c-0.85-0.4-2.176-0.688-2.387,0.285C186.561,141.293,188.051,142.572,188.461,142.861z"/>
	<path fill="#47EADA" stroke="#FFFFFF" stroke-miterlimit="10" d="M191.271,164.943c3.105,0.146,4.017-0.973,3.498-1.497
		c0.976-3.382-6.1-1.284-7.206-0.873C186.475,162.976,186.488,165.386,191.271,164.943z"/>
	<path fill="#47EADA" stroke="#FFFFFF" stroke-miterlimit="10" d="M173.046,177.017c-0.195,0.11-2.225,2.146-2.817,2.528
		c-0.702,0.453-1.209,1.357-2.065,1.493c-0.388,1.384-3.616,2.902-2.945,4.561c0.524,0.27,1.053,0.442,1.598,0.513
		c0.924,1.485,2.048,1.853,2.984,1.021c0.878-0.79,1.334-1.461,1.745-2.445c0.532-1.288,0.412-1.532,0.916-2.529
		C174.02,179.047,175.122,175.824,173.046,177.017z"/>
	<path fill="#47EADA" stroke="#FFFFFF" stroke-miterlimit="10" d="M208.747,124.933c-1.965-3.184-4.912-2.522-6.227,0.422
		c-1.728,1.915-3.447,2.316-5.159,3.058c-2.553,1.104-6.927,3.124-3.95,5.622c6.855-4.055,5.819-0.263,7.688-0.228
		c1.223-0.66,5.3-0.135,8.218-0.794v-7.734C209.121,125.168,208.929,125.056,208.747,124.933z"/>
	<path fill="#47EADA" stroke="#FFFFFF" stroke-miterlimit="10" d="M209.316,141.339v-3.502c-4.226,0.386-13.146,1.98-13.732,8.577
		c0,0,1.272,8.998,6.984,5.989c0,0,5.139-1.257,6.749-2.819v-5.058C208.213,144.429,204.022,143.883,209.316,141.339z"/>
</g>
<path id="Princeedwardisland" fill="#47EADA" stroke="#FFFFFF" stroke-miterlimit="10" d="M518.3,597.208l5.381-4.709
	c0,0-15.663,4.134-14.798-4.708C508.883,587.791,502.154,594.614,518.3,597.208z"/>
<g id="Newfoundlandandlabrador">
	<path fill="#47EADA" stroke="#FFFFFF" stroke-miterlimit="10" d="M580.522,572.318c-2.009-1.52-6.378,0.406-6.056-1.776
		c0.371-2.456,5.938-4.621,2.554-5.215c-1.203-0.219-4.052-1.258-5.071-1.623c-0.721-0.341-0.75-0.767-2.335,0.302
		c-2.257,0.948-2.979,4.566-5.387,0.902c-2.175-2.03,1.444-3.253-0.245-5.719c-1.908-2.791-10.36,6.202-8.849,2.623
		c0.948-2.218,11.974-19.74,8.524-20.375c-2.474-0.461-6.131,1.482-7.264,3.612c-1.797,3.381-4.635,6.371-5.631,10.085
		c-1.604,5.984-5.736,10.55-3.045,11.767c-1.699,2.038-6.628,2.976-6.981,6.282c11.003-1.105-1.36,5.009-1.488,6.988
		c-0.367,5.803,2.678,2.664,5.813,1.037c3.106-1.613,4.181,1.777,10.571,1.249c1.257-0.092,3.844-2.739,7.304,1.346
		c2.73-0.601,3.582-3.376,4.372-1.153c1.202,3.372-9.183,5.7-6.061,7.371c3.283,1.754,7.465-1.447,9.026-3.848
		c0.868-1.353,2.01-3.473,3.593-2.332c1.418,1.036-1.485,4.696-0.769,5.99c1.742,3.15,6.004,3.381,8.217,1.009
		C585.822,581.506,574.757,581.833,580.522,572.318z"/>
	<path fill="#47EADA" stroke="#FFFFFF" stroke-miterlimit="10" d="M504.139,457.096c0,0,10.005,6.105,1.62,11.391
		c5.491,4.562,6.984,1.869,2.489,21.283c0,0,5.644,4.275-0.843,3.987c0,0,4.674,0.288,3.491,5.766c0,0,4.293,5.043-2.626,6.341
		c0,0,6.054,7.063-6.487,0c0,0-3.314,4.47-10.521-4.612c0,0,1.586,8.361-5.189,2.595c0,0,4.612,4.757-1.874,7.496
		c0,0-1.008,7.639,6.054,10.665c0,0-4.035,3.47-3.314,8.51c0,0,3.604,0.149,5.621-2.954c0,0,3.459,1.653,0,8.859
		c0,0,8.816,1.391,12.625,6.1c0,0,2.942-2.928,2.942-9.126l3.459,4.468l42.955-0.433v5.428c3.379-0.774,5.725-2.862,8.089-5.927
		c2.242-2.895,0.813-4.182-1.723-6.437c1.905-1.803,2.439-2.104,0.697-4.303c2.485-1.946,1.464-4.54-1.406-5.657
		c-2.954-5.441-13.262,4-5.405-4.073c-3.387-2.521-4.438-3.329-7.712-2.954c-2.813,0.317-6.509,6.422-9.141,6.789
		c-3.376,0.484-5.853-0.142-3.04-1.816c1.947-1.158,9.281-4.948,11.966-5.693c2.479-0.692,3.457-1.603,5.62-3.355
		c-0.863-2.396-3.423,1.262-3.783-3.532c-0.164-2.185-2.178,2.028-4.071,1.478c-4.216-1.226-2.091-4.828-5.778-4.636
		c-1.115,0.058-4.396,0.601-1.802-1.25c-1.388-1.077-3.51,0.733-3.483,1.25c0.179,0.714-1.084,0.793-1.105,0.387
		c-0.984-1.3,1.281-3.139,1.202-3.413c-0.06-0.648-1.343-0.769-1.214-1.238c1.478-5.406-3.924-2.258-5.117-5.005
		c0.469-1.481-3.927-4.581-1.441-6.167c-1.946-0.756-3.282-0.166-3.316-1.329c0.39-3.363,6.343,0.433,0.145-10.521
		c1.153-5.335-1.98-5.44-5.045-12.398l-3.531,0.145c-0.656-2.433,4.9-1.152-0.648-7.496c-2.788-0.589-3.672-11.806-4.829-9.657
		c-1.246,2.348-3.524-11.137-5.046-9.296c-0.401,1.995-0.871,3.486-1.361,4.634C503.41,446.928,504.877,455.003,504.139,457.096z"/>
</g>
<path id="Alberta" fill="#47EADA" stroke="#FFFFFF" stroke-miterlimit="10" d="M203.406,442.873H141.28l0.385,74.379
	c-5.67,2.882,3.363,7.427,3.363,7.427c0.865,3.104,7.207,4.104,7.207,4.104c0.576,4.036,6.919,6.343,6.919,6.343
	c0.577,12.106,17.29,21.004,17.29,21.004c-1.187,5.088,1.418,9.388,3.766,12.069l21.483,0.103l5.509,0.024V442.873H203.406z"/>
<path id="Saskatchewan" fill="#47EADA" stroke="#FFFFFF" stroke-miterlimit="10" d="M259.91,442.873h-2.882h-49.826v125.453
	l52.864,0.252l3.528,0.016C258.911,508.213,259.91,442.873,259.91,442.873z"/>
<g id="Ontario">
	<path fill="#47EADA" stroke="#FFFFFF" stroke-miterlimit="10" d="M391.515,598.646c0,0-3.797-0.789-7.4-0.5
		C384.114,598.146,391.515,603.834,391.515,598.646z"/>
	<path id="_x3C_Path_x3E__1_" fill="#47EADA" stroke="#FFFFFF" stroke-miterlimit="10" d="M437.447,601.815
		c-12.107,1.922-16.336-3.363-16.336-3.363c-0.961-4.133-9.61-4.708-9.61-4.708l-4.612-9.034l0.183-41.508
		c-0.718,1.146-1.567,2.7-1.396,3.388c-3.173-1.73-5.906-0.583-5.622-2.595c0.186-1.393-1.099-3.801-1.153-5.189
		c-2.37-0.517-7.486-11.582-9.945-11.099c-0.36-7.58,0.566-24.355-0.433-24.649c-4.112-1.206-12-2.6-19.206-1.086
		c-0.793-1.946-2.078-3.178-2.415-4.68c-1.497,0.2-10.594-3.647-11.821-4.9c-1.447-1.464-1.371-1.021-1.921-2.775
		c-0.533-1.696-4.397-4.323-8.849-6.698l-39.716,46.152l-0.137,36.036c3.837-0.287-0.584,4.806,8.738,8.072
		c3.627,1.273,5.106-4.244,9.977,3.198c0.4-1.932,1.384,0.506,5.109,1.414c1.646,0.401,2.6-1.697,4.71-0.961
		c8.264,2.883,11.318,0.386,17.009-8.035c19.987,2.463,8.649,9.573,21.333,9.959c2.432,4.442,0.166,9.602,3.268,12.972
		c7.206,8.265,18.354,1.056,17.969,6.055c3.062,0.094,4.688,0.412,5.359,0.994c12.756,11.065,5.307,18.8-2.908,6.117
		c-0.133,0.194-1.12,0.033-1.25,0.24c3.459,7.542-1.722,9.815-1.344,10.762c1.66,8.698-4.038,6.415-7.412,12.541
		c-0.196,3.516-2.739,2.499-1.43,5.141c2.538,0,10.522-6.029,12.829-5.261c5.573,1.857,6.821-1.994,13.729-1.773
		c0,0-0.798-2.055-0.965-2.79c-0.264-1.143-4.624,0.778-3.826-1.371c2.832-7.645,13.933-5.861,17.682-5.286
		c1.058-2.209,8.035-4.13,11.914-9.364c1.271-0.536,3.466-0.459,4.502-0.565l1.746-1.794
		C443.021,600.758,437.447,601.815,437.447,601.815z"/>
</g>
<path id="Manitoba" fill="#47EADA" stroke="#FFFFFF" stroke-miterlimit="10" d="M339.118,481.144
	c-4.458-2.054-6.58-3.437-7.929-3.172c-2.542,0.512-3.242,3.099-10.233,3.099c2.81-4.54,0.969-6.451-0.327-9.957
	c-2.341-6.331-2.195-7.532-3.542-11.424c-6.04-1.372-7.399,0.385-7.399,0.385c-3.411-2.786-2.868-7.391-2.93-9.465
	c-0.049-1.634-0.561-3.312,0.456-7.736H259.91c0,0-0.999,65.34,3.685,125.721l37.992,0.182l2.66,0.012
	c0.069,0,0.142,0.006,0.212,0.008l0.137-39.725l39.716-46.152C342.902,482.168,340.557,481.806,339.118,481.144z"/>
<g id="Quebec">
	<path fill="#47EADA" stroke="#FFFFFF" stroke-miterlimit="10" d="M505.759,559.586c0,0,0.77,1.201,4.277,3.268
		c0,0,10.376,7.305,13.645,4.949C523.681,567.803,519.646,559.779,505.759,559.586z"/>
	<path fill="#47EADA" stroke="#FFFFFF" stroke-miterlimit="10" d="M511.585,537.863l-3.459-4.468c0,6.198-2.942,9.126-2.942,9.126
		c-3.809-4.709-12.625-6.1-12.625-6.1c3.459-7.206,0-8.859,0-8.859c-2.018,3.104-5.621,2.954-5.621,2.954
		c-0.721-5.04,3.314-8.51,3.314-8.51c-7.062-3.026-6.054-10.665-6.054-10.665c6.486-2.739,1.874-7.496,1.874-7.496
		c6.775,5.767,5.189-2.595,5.189-2.595c7.207,9.082,10.521,4.612,10.521,4.612c12.541,7.063,6.487,0,6.487,0
		c6.919-1.298,2.626-6.341,2.626-6.341c1.183-5.478-3.491-5.766-3.491-5.766c6.486,0.288,0.843-3.987,0.843-3.987
		c4.495-19.414,3.002-16.722-2.489-21.283c8.385-5.285-1.62-11.391-1.62-11.391c0.738-2.093-0.729-10.168-1.88-15.71
		c-1.79,4.198-3.821,3.766-3.611,6.32c1.275,2.555,3.353,1.846-0.059,4.345c-0.853,0.604-0.052,2.24-0.386,3.482
		c-3.819,1.225-2.072,4.884-3.862,3.367c-1.214-0.451-2.503,1.197-2.959,3.721c-3.099,0.505-4.249,3.327-5.994,3.176
		c-1.072-0.09-1.979-2.255-2.968-3.081c-2.222,0.338-2.769-1.452-2.728-4.055c-1.308-1.416-4.279-1.803-7.566,0.721
		c-1.64,1.26-7.003-2.142,3.376-3.68c0.479-0.409-2.259-0.817-3.075-1.851c0.615-0.42,1.316-0.858,2.114-1.321
		c-0.358-1.689-2.869,0.326-2.834-1.44c0.049-2.239,1.825-4.325-0.865-7.448c-0.012-1.144,1.45-1.803,1.345-2.782
		c-0.131-1.222-0.412-0.921-1.345-2.791c1.97-4.71,3.39-6.113,2.678-8.933c-3.299-1.569-1.971,5.922-4.325,0.192
		c-17.584-0.768-8.861-6.831-9.802-7.737c-4.662-1.607-9.442-9.76-13.933-11.77c-3.215-1.431-4.71,6.384-10.971,1.443
		c-3.656,1.762-7.576,0.13-14.303-3.749c-1.581,3.171-5.305,2.604-4.205,6.534c1.413,5.048,0.216,5.261,4.004,8.37
		c-1.262,2.297-2.159,7.936-6.754,10.931c-0.252,0.165-0.507,0.326-0.781,0.473c-0.181,0.85,0.034,1.116,0.483,1.065
		c1.384-0.158,4.998-3.362,6.195-2.026c0.281,1.346-1.01,2.596-0.721,5.189c0.132,3.68,3.521,3.685,2.697,7.207
		c-0.924,4.155-3.64,3.603-2.169,6.486c-4.239,2.898-5.333,4.18-6.198,9.225c0.406,2.105,4.329,3.823,7.85,7.532
		c1.395,1.469,2.728,3.249,3.752,5.492c1.204,2.632,1.984,5.897,1.947,10.038c-0.008,5.232-1.543,12.686-7.862,17.6
		c-2.803,2.726-4.35,2.241-5.397,3.519c-1.164,1.431,5.576,2.214,4.252,2.882c-2.596,0.722-3.469-0.778-5.485-2.146
		c-4.325-0.578-4.194,1.309-5.687,3.084c7.929,9.873,1.226,14.846,6.846,23.782c0.226,5.447-2.411,8.325-4.973,9.082
		c0,0-0.424,0.593-0.909,1.37l-0.183,41.508l4.612,9.034c0,0,8.649,0.575,9.61,4.708c0,0,4.229,5.285,16.336,3.363
		c0,0,5.573-1.058,3.749,3.555l-1.746,1.794c3.602-0.372,6.361,1.198,12.262,0.263c12.918-0.008,10.901-5.773,16.665-8.657
		c0.202-4.519,1.841-11.704,6.116-14.73c0.889,0.743,2.017,1.753,3.92,0.534c0.625-0.589,0.933-1.015,0.933-1.015v-2.979
		l1.151-0.457c4.42-3.437,6.223-0.061,6.223-0.061c2.312-0.961,4.342-1.451,6.063-1.66c0.349-0.464,1.365-1.002,3.379-1.618
		c6.054,3.289,13.586-4.681,8.108-10.158c-7.063-0.288-20.383,2.185-22.632,5.188c-2.519,3.358-5.882,4.543-8.792,7.352
		c-1.831,1.76-7.988,11.797-10.233,10.522c-0.709-3.167,7.861-11.533,9.496-12.827c1.958-1.576,3.72-5.521,5.703-7.266
		c4.563-4.022,6.352-0.749,9.447-6.529c-0.431-4.8,5.449-5.879,7.065-7.54c1.967-2.039,8.775,1.368,10.953,0.577
		c0,0-1.729,4.757,2.595,2.596c1.152-5.335,12.51-1.688,16-1.73c3.199-0.045,7.421-1.375,10.523-1.442
		c3.671-0.071,3.192-5.789,6.485-4.323c1.441-4.037,7.111-7.628,11.964-8.072c0.596-0.056,1.156-0.149,1.694-0.271v-5.428
		L511.585,537.863z"/>
</g>
<path id="Yukon" fill="#47EADA" stroke="#FFFFFF" stroke-miterlimit="10" d="M15.182,295.184l-3.741-1.206
	c-2.63-0.669-6.026-0.026-8.357-0.421C2.22,324.021,3.465,439.922,3.465,439.922c8.229,2.951,9.934-1.974,12.842-0.653
	c-0.485,1.107-0.282,2.326,0.335,3.604h99.118l-2.156-4.9c-4.469-2.738,0-6.487,0-6.487L110,430.765
	c-4.324,4.324-6.341,1.008-6.341,1.008c-2.019,2.019-6.968,2.741-6.968,2.741c-0.049-12.396-6.006-11.533-6.006-11.533
	c-4.612-10.233-7.64-7.639-7.64-7.639c-5.333,0.288-1.441-5.766-1.441-5.766H79.73v-2.739l-2.018-1.153l0.721-4.324l-3.892-3.027
	c3.46-4.612,0-5.91,0-5.91v-2.739c-3.604-1.151-4.901-4.755-4.901-4.755c-1.73-6.486-4.612-3.316-4.612-3.316v-1.874
	c-5.478-5.045-7.496-9.37-7.496-9.37c6.775-7.782,2.306-11.531,2.306-11.531c2.595-5.765-3.027-1.441-3.027-1.441
	c0.721-3.171-4.612,0-4.612,0v-5.189l-1.441-1.44l1.441-3.028l-1.297-2.594v-2.451c-1.297-1.01-1.441-3.171-1.441-3.171H35.189
	c-0.288-9.802-1.729-11.1-1.729-11.1v-21.249C30.029,306.55,27.757,308.318,15.182,295.184z"/>
<g id="Britishcolumbia">
	<path fill="#47EADA" stroke="#FFFFFF" stroke-miterlimit="10" d="M107.441,560.932c-1.87-3.125-2.871-6.103-5.477-6.775
		c-2.985-0.778-5.226-1.873-7.808-3.275c-1.389-0.745-7.971-2.721-8.192,0.249c-0.138,1.747,5.453,4.553,6.681,6.05
		c1.894,2.29,2.376,3.9,5.031,4.6c1.481,0.371,0.28,0.527,1.261,1.892c1.188,1.646,3.821,1.034,4.415,2.737
		c0.741,2.118,2.898,2.564,4.522,3.461c1.074,0.592,2.705,3.28,3.966,3.576c1.457,0.332,3.14,1.808,4.538,2.045
		c4.388,0.786,5.057-3.958,1.272-7.964C114.36,566.265,107.441,560.932,107.441,560.932z"/>
	<path fill="#47EADA" stroke="#FFFFFF" stroke-miterlimit="10" d="M65.063,513.94c0,0-5.045,2.019-9.225-0.865
		c0,0-2.451,13.982,12.973,23.207C68.811,536.282,60.306,523.311,65.063,513.94z"/>
	<path id="_x3C_Path_x3E_" fill="#47EADA" stroke="#FFFFFF" stroke-miterlimit="10" d="M176.443,556.13
		c0,0-16.713-8.897-17.29-21.004c0,0-6.343-2.307-6.919-6.343c0,0-6.342-1-7.207-4.104c0,0-9.033-4.545-3.363-7.427l-0.385-74.379
		h-25.52H16.643c1.002,2.071,3.1,4.299,5.173,6.472c2.352,2.467,4.668,4.865,5.303,6.886c2.166-0.132,6.321-3.513,8.538-7.493
		c0.171-0.308,0.334-0.62,0.481-0.935c1.628-0.385,2.983-0.166,4.436,0.719c2.979,1.816,6.374,6.448,13.391,14.535
		c6.641,9.635-0.289,17.874,20.901,29.189c0,1.004,2.584,15.388-0.145,15.708c-0.024,0.084-5.91,11.607,0.145,15.859
		c1.241,1.857,8.1-6.9,9.082-4.603c1.167,2.726-4.339,9.311-3.46,12.099c5.751-0.982,3.171,9.515,11.383,2.019
		c3.906,0.813-6.154,5.336-2.302,7.206c1.874,5.766,1.441,6.631,24.649,20.758c2.366,2.994,10.09,1.485,7.495,6.631l41.738,0.197
		l16.759,0.079C177.861,565.518,175.256,561.218,176.443,556.13z M78.521,494.055c-0.015-0.048-0.02-0.185-0.025-0.341
		c0.005,0,0.01,0,0.019,0c0.006,0.081,0.006,0.175,0.025,0.262C78.53,494.007,78.53,494.021,78.521,494.055z"/>
</g>
<g id="Nunavut">
	<path fill="#47EADA" stroke="#FFFFFF" stroke-miterlimit="10" d="M391.404,402.805c-0.271-0.112-0.558-0.171-0.855-0.209
		l-0.008-0.04c0,0-0.216,0-0.587,0.008c-0.088,0.001-0.185,0.003-0.288,0.006c-1.798,0.045-5.984,0.219-8.702,0.915
		c-1.675,1.105-0.858,1.942-1.079,3.456c-0.565,0.956-1.426,1.926-2.75,2.638c0,0,0.678,0.558,1.267,1.398
		c0.011,0.064,0.018,0.118,0.031,0.188c0.236,1.226,0.294,2.05,0.803,2.494c-0.02,0.142-0.05,0.283-0.094,0.426
		c0,0,0.19-0.085,0.483-0.196c0.233,0.09,0.523,0.145,0.896,0.158c0.26-0.267,0.471-0.46,0.651-0.607
		c0.344-0.066,0.685-0.099,0.99-0.076c0.189,0.337,0.317,0.864,1.026,0.683c1.713-0.454,1.637-0.839,3.314-2.594
		c0.775-0.813,4.698-3.753,4.9-5.045V402.805z"/>
	<path fill="#47EADA" stroke="#FFFFFF" stroke-miterlimit="10" d="M482.071,435.959c0,0-1.873-0.289-1.873,4.9
		C480.198,440.859,485.676,436.247,482.071,435.959z"/>
	<path fill="#47EADA" stroke="#FFFFFF" stroke-miterlimit="10" d="M396.162,524.607c0,0-5.734,0.709-5.621,2.595l8.504,3.314
		C399.045,530.517,401.063,528.498,396.162,524.607z"/>
	<path fill="#47EADA" stroke="#FFFFFF" stroke-miterlimit="10" d="M310.788,51.491c4.434,1.162-3.61,6.217-2.778,6.792
		c2.533,1.771,8.643-5.579,12.105-3.746c-11.388,5.75-12.19,15.418-4.326,14.511c14.401-0.633,18.225-9.976,22.008-7.838
		c-6.809,8.194-20.368,7.48-22.906,10.858c-0.267,2.215,7.503,7.057,9.33,7.001c7.115-13.355,8.621-11.667,23.107-14.261
		c-4.364,0.967-14.523,4.533-16.568,8.189c-3.173,5.724-2.732,8.354,4.093,8.528c12.977-0.184,2.005-6.862,16.392-7.73
		c-7.941,10.894,1.153,4.391,4.936,3.263c8.506-2.539,5.963-6.169,12.347-14.605c3.552-4.704,10.988-8.221,7.001-5.257
		c-1.267,1.908-3.792,4.442-6.818,7.826c-2.449,1.546-3.464,5.096-2.007,6.771c0.464,0.532,10.613-1.478,11.179-1.42
		c-3.493,0.927-14.486,5.46-15.962,7.351c-0.874,2.116,8.518-0.144,7.747,1.62c-9.436,1.003-22.147,6.549-23.573,6.739
		c2.332,0.761,2.883,16.289,16.939,15.43c-12.414,4.491-8.922-0.245-12.646-4.493c-2.06-2.359-7.003-8.284-9.19-9.051
		c-11.51-2.432-12.483-1.854-10.745,5.179c0.127,12.228,7.33,8.573,9.622,14.481c1.063,2.745,9.831,11.915-0.865,7.16
		c2.147,5.342,8.518,3.936,10.886,3.738c2.194-0.19,9.496-2.661-1.814,1.982c-2.985,0.744,5.253,7.462,2.148,5.917
		c-1.553-0.785-4.673-3.857-6.518-4.874c-1.543-0.844-7.112-1.023-8.711-0.672c-1.951,0.423-7.426,1.958-9.519,13.514
		c0.563,2.913,7.396,1.713,8.856,1.978c1.793,0.323,3.198-8.244,5.143-8.813l-0.303,5.208c1.367,2.342-3.451,4.755-3.642,7.044
		c-0.275,3.228,3.844,6.926,5.242,7.65c5.213,4.102,5.388-4.492,8.118-6.005c0.549-3.878,3.571-5.987,1.319-0.038
		c-0.625,0.463-2.328,4.286-2.705,5.503c-0.426,1.376-2.322,1.868-2.992,3.134c-1.087,2.043-2.444,1.865-3.964,1.908
		c-2.365,0.067-4.925-0.007-6.732-2.798c-0.354-4.696-1.761-5.425-3.718-7.103c-2.264-1.931-5.321,1.077-7.693,0.421
		c-1.407,4.685,2.306,4.282,2.923,6.079c-1.769,3.637,3.394,2.987,3.224,5.059c-0.361,4.423-4.627,2.03-6.398,3.216
		c-2.449,1.623-6.315,2.387-5.611,7.792c-1.106,3.619,1.334,4.377,7.375,5.786c5.594,1.479,1.145-2.186,2.613-2.759
		c1.06-0.418,2.879,2.658,3.989,2.969c1.096-5.964-0.92,0.577,4.4-0.033c0.791,0.789,5.507,0.734,6.448,0.459
		c1.185-0.367-3.107-1.643-2.938-2.721c0.348-3.321,0.663,0.909,3.525,0.13c0.337-5.528,3.314,0.5,3.314,0.504
		c3.468,0.76,2.449-1.452,2.444-1.082c-0.126-6.434-0.222,1.527,3.828,1.087c14.015-6.192,5.264,2.978,7.152,2.333
		c2.567-0.873-2.319,2.401,0.286,2.009c0.613-0.093,6.861-2.861,7.445-3.155c1.18-0.558,1.778-1.683,2.683-2.375
		c1.002-0.766,1.377-3.444,2.307-2.088c1.517,2.203,0.308,2.108,2.245-0.339c0.127-2.308,2.331-2.027,1.759-3.913
		c-0.56-1.785-0.281-1.434-1.177-2.726c-1.048-1.531-2.829-0.84-4.04,1.08c-1.248,0.277-2.192,1.247-3.171-1.289
		c0.447-1.622,2.541-3.108,0.77-4.498c-2.821-1.882-2.663,0.589-3.879,0.294c-1.387-0.342-3.14-2.094-4.604-2.077
		c-1.459,0.015-1.712-0.533-2.831,1.062c-0.771,1.099-2.627,0.142-3.844-1.056c9.313-0.309-0.336-1.462,2.007-4.165
		c1.586-0.771,3.531,4.005,8.034,3.88c4.704,0.418,10.006-2.683,10.962-3.912c3.185-4.092-0.069-5.042-2.372-8.687
		c3.535,0.544,24.015-0.819,7.478-5.914c3.143,0.232,17.021-3.058,1.703-5.935c-0.612-2.102,7.672,0.627,8.386-2.997
		c0.341-1.717,6.374-2.205-4.021-6.049c-4.136-2.228-8.962-0.757-8.524-1.872c3.589-9.162,13.253,1.831,14.196-1.737
		c-2.638-3.741-2.924-2.216-1.146-3.6c-3.228-1.5-11.923-0.89-15.105-1.135c2.346-2.642,15.754,0.75,5.15-4.744
		c1.079-1.432,6.425,2.904,7.815,2.215c0.882-0.433-0.808-3.236,0.135-2.992c1.327,0.344,2.723,4.843,8.509-0.61
		c-0.395-6.303-1.788-4.823-7.475-5.536c-1.056-1.045-0.128-1.382,0.505-1.624c2.528-0.939,4.883,0.8,7.51,0.983
		c0.327,6.39,9.705,3.359,10.625-1.589c0.474-2.5-3.174,0.191-2.132-1.503c0.699-1.147,4.367-1.056,3.528-3.595
		c-0.775-2.323-3.313,0.246-4.508,0.127c-0.001-0.054-3.743-0.115-3.745-0.169c4.721-2.196,10.01-2.732,10.345-3.789
		c0.721-2.212-2.354-1.497-2.727-6.912c0.657,0.279,3.392,3.214,5.689,2.782c0.895,0.309,3.35-5.329,4.958-7.108
		c1.723-1.874,4.266-4.987,5.852-7.454c1.58-2.458,4.892-7.115,6.927-7.921c2.536-1.018,6.739-2.858,6.346-8.917
		c-3.507-0.08-5.658,2.183-9.91,3.499c-1.622,2.457-5.493,3.089-7.601,3.527c-2.257,0.47-7.078,6.054-9.037,3.382
		c0.495-2.759,13.656-7.327,14.928-8.976c1.744-2.279-10.223,0.29-7.845-1.157c2.068-0.693,10.546-0.575,12.964-4.506
		c1.694-0.906,4.845,0.121,6.592-0.371c3.548-1.013,0.389-1.843,1.651-2.344c2.155-0.356,6.179-3.983,8.021-5.747
		c2.352-2.458,2.352-2.458,2.185-4.385c1.014-1.661,4.325-3.13,3.652-5.713c-0.676-2.58,1.043-3.065-1.771-5.652
		c-1.627-1.164-4.649-1.248-6.417-1.197c-2.071,0.058,0.113-2.919-5.813-6.043c0.882-0.137,3.593-0.974,2.015-3.781
		c-1.88-0.406-1.98,0.365-3.712,1.024c-2.696,1.03-0.872-7.517-6.011,1.367c-2.799-5.531-7.854,6.292-14.617,4.46
		c-1.8-0.118,10.818-4.625,9.897-7.914c-0.822-2.909-6.316-0.372-8.198-2.067c-2.257-2.033-5.794-3.216-7.419-1.629
		c-1.463,1.43,4.019-5.724-7.667-2.697c-1.757,1.261,0.849,6.661,0.849,6.661c-4.672-1.799-3.979-4.553-3.601-6.68
		c-3.831,0.66-15.198,3.258-4.152,12.602c-7.228-2.738-6.148-3.36-7.693-7.507c-1.423-3.803-11.582-3.556-14.086-4.015
		c-5.451,1.718,5.088,12.547,6.929,15.438c-1.854,8.33-10.541-14.784-12.447-8.292c-1.379,4.695-2.783-5.072-11.238-0.602
		c1.2,7.416,4.415,4.381,9.128,7.651c-3.174-1.778-3.479,1.478-9.346-3.69c-12.421,0.352-8.352,8.974-10.905,11.162
		c-2.234,1.909,8.922,8.781,9.571,11.593c-3.928,0.506-7.366-5.308-10.7-7.013c0.347,1.63,0.862,4.142,1.308,5.624
		c2.237-0.645,1.987-0.373,3.688,2.011c-2.831,0.586-2.675-1.085-5.426-1.226c-0.789-4.576-1.964-6.402-4.293-7.88
		c-1.396-0.89-7.65-5.944-15.158,4.752c0.304,2.528,8.427,4.754,9.893,6.25c-18.792-5.813-20.483,0.489-20.328,2.048
		c-3.071-0.149-6.457,0.353-9.143,3.08c-0.439,0.452-1.23,1.784-1.665,2.051c-0.737,0.45-1.515-0.48-2.178,0.596
		c-0.599,0.961-0.836,4.508,0.002,5.31C303.258,55.34,307.337,50.117,310.788,51.491z"/>
	<path fill="#47EADA" stroke="#FFFFFF" stroke-miterlimit="10" d="M275.93,92.078c0.964,0.216,3.596,1.831,4.606,1.735
		c0.782-0.072,1.816-3.586,4.289-1.005c-4.507,1.744,1.11,5.37-1.561,4.169c-1.06,0.112-2.926,0.717-3.792-0.082
		c-0.642-0.596-5.174-3.084-5.894-3.179c-1.591-0.228-0.726,4.42,0.724,8.621c0.405,1.167,2.341,2.753,2.75,3.948
		c7.782-0.417,12.181-1.761,0.64,2.869c1.492,10.418,7.587,2.554,9.999,2.951c-5.379,7.093,2.615,0.567,4.652,0.534
		c1.747-0.019,4.459-3.904,5.369-1.034c4.276,5.726-3.575,7.352-5.215,6.453c-2.66-0.71-3.234,3.61-6.668,3.707
		c-1.222,2.161,2.119,1.422,2.803,3.8c2.619,8.975,9.147,5.017,9.597,5.751c1.551,2.605-5.095,0.171-4.053,3.65
		c0.536,1.804,3.005,3.632,4.117,4.27c0.665,0.388,2.415-0.209,3.248,0.26c2.705,1.512,4.887,1.86,6.526,0.511
		c-1.702-9.313,2.111-0.364,4.065-0.508c1.435-0.106-4.46-7.794-2.437-9.708c1.915-0.344,3.773,9.063,5.346,9.654
		c3.633,1.038,5.313-9.111,7.712-11.572c1.603-1.648,1.999-4.963,3.65-6.585c2.087-2.032,7.061-6.06,9.399-6.847
		c2.065-0.705-0.749-5.734-2.862-7.873c-4.691,3.668-3.264-5.112-9.08,1.142c0.808-5.326,1.916-15.62-2.833-13.178
		c-1.038,0.529-3.982-0.574-5.31-1.175c-0.451-0.201-2.312-2.034-2.713-2.624c-1.831-2.678-0.147-4.133-0.604-4.402
		c0,0,1.587-1.077,0.253-2.577c-1.945-3.731-8.422,2.071-10.641-8.127c-1.461-2.563-2.612-3.812-3.35-6.988
		c-0.528-2.25-1.933-4.556-2.9-6.146c-2.425-4-6.688-0.143-10.324-1.766c-1.976-0.878-2.198,2.192,0.26,3.775
		c1.306,0.859,7.787-0.491-0.013,5.426c-6.198-4.563-7.016,0.698-7.507,4.215c-0.412,2.923,7.769,2.441,7.345,5.291
		c0.326,3.035-5.35,1.625-8.205,2.393c-6.447,1.066,3.519,5.694-1.316,5.476C266.784,86.739,273.961,91.641,275.93,92.078z"/>
	<path fill="#47EADA" stroke="#FFFFFF" stroke-miterlimit="10" d="M234.782,115.991c-0.551,7.381,0.479,3.12,4.487,1.837
		c7.989,9.191-2.542,6.86-3.93,8.852c-1.485,2.132,0.967,6.945,4.501,6.845c13.564-8.731,2.209,1.902,5.009,2.412
		c1.921-0.737,2.997-2.686,5.019-2.744c1.003-0.028,3.599-1.724,2.418,1.845c1.38,0.736,3.673-0.685,5.214-0.344
		c2.392,0.525,0.136,4.77,2.431,5.839c1.566,0.72,5.096,1.928,6.685,1.402c2.848-0.927,2.673-4.502,1.204-5.954
		c-2.476-2.422-6.093-5.826-2.98-10.039c-0.841-3.795-3.185-4.574-4.996-6.34c-3.007-2.964-2.075-4.262-5.693-4.16l-3.713-1.368
		c-2.165,0.061-1.954,8.5-3.971,2.062c-1.069-3.414,0.054-4.391-2.487-6.396c-2.294-1.806-5.154-2.997-8.396-1.53
		c-1.294,1.114-3.685,0.01-5.065,0.537c-1.024,0.391-0.36,2.102-1.098,3.768C227.585,116.624,234.566,115.889,234.782,115.991z"/>
	<path fill="#47EADA" stroke="#FFFFFF" stroke-miterlimit="10" d="M255.949,186.636c1.313-1.452,7.251-2.538,8.715-3.807
		c1.41-1.213,4.79-2.323,4.116,1.868c-0.507,3.152-6.943,1.172-1.864,8.117c2.382,2.396,9.264,0.861,11.385-0.743
		c1.549-1.167-1.403-5.705-0.015-7.355c0.892-1.056,2.694,1.958,2.026-3.209c-2.997-0.066,0,0-0.666-8.811
		c-1.194-1.538-1.253-3.632-1.007-6.534c-3.219,0.091-2.734-2.817-5.489-2.416c-0.507,1.206-0.569,3.505-1.65,3.778l-2.699-2.149
		c-1.253-0.89-3.172-1.958-4.391-2.429c-1.369-0.536-3.903,1.918-5.361,2.116c-0.204,1.775,2.418,1.954,2.869,2.996
		c0.706,1.66,1.428-0.439,1.955,1.712c0.701,2.864,1.194,2.73,2.933,2.732c0.262,3.92,1.935,8.747,0.033,6.349
		c-1.295-1.635-5.114-6.305-6.241-8.333c-1.137-2.051-3.162-2.595-4.109,0.936c-0.421,1.537,0.099,3.076-0.203,4.62
		c-0.322,1.667,0.485-8.721-10.503-2.321c-0.826,2.876,4.787,6.149,7.761,8.758C252.618,186.351,254.134,188.643,255.949,186.636z"
		/>
	<path fill="#47EADA" stroke="#FFFFFF" stroke-miterlimit="10" d="M235.546,192.661c0.952-1.397,2.022-3.625,1.337-6.184
		c1.642-2.163,1.656-8.157-2.634-8.893l-2.122-1.101c-2.729,0.223,2.351,11.915-5,3.186c-5.903,4.685-0.625-1.161-2.212-2.884
		c-6.798,2.354,1.055-4.547-3.746-6.865c-1.377-4.886,1.943-6.635-3.058-7.667c-1.344-0.081-3.611,0.197-3.541,4.515
		c0.018,1.457-4.109,3.885-3.648,4.916c0.756,1.667,1.752-0.48,2.252,1.651c0.66,2.832,10.074,3.106,0.699,6.417
		c0.855,2.154,11.573,3.243,2.767,7.127c-1.716,0.201-4.811,0.145-7.324-0.044v14.144c4.06-2.611,8.984-4.702,12.36-4.852
		C227.472,195.862,230.915,199.483,235.546,192.661z"/>
	<path fill="#47EADA" stroke="#FFFFFF" stroke-miterlimit="10" d="M169.252,297.569c2.272,1.014,3.683,1.562,6.102,0.62
		c2.434-0.944,4.602-0.649,7.418,1.173c1.294,1.409-0.423,4.17,0.769,7.378c0.726,1.947,3.267,3.959,7.111,2.564
		c4.422,1.116,12.025-0.859,16.144-1.627c3.592-0.667,8.457-2.56,8.245-5.535c2.134,0.959,4.37,0.865,7.516-0.126
		c5.766-2.811,1.246-4.185,3.69-6.819c4.767-2.95-0.526,7.794,16.297,8.215c3.524,2.462,6.879,2.538,9.913,1.551
		c2.95-0.952,4.257-2.814,6.962-2.439c1.383-1.719,1.671-2.869-0.346-5.934c-1.089-1.661-2.168-1.981-3.459-1.707
		c-2.179,0.47-1.773,3.135-3.844,2.432c-0.452-2.687-3.833-4.753-2.497-6.581c5.379,8.027,4.703-1.726,7.879-1.123
		c1.923,0.366,9.324,4.932,8.745,1.123c-0.858-5.654,1.441-7.557-4.132-6.938c-2.831-0.067-6.774-4.158-8.938-6.59
		c-1.113-1.246-6.869-2.668-7.881-4.032c-1.108-1.496-1.909-2.452-2.978-4.032c4.035-8.528-2.146-10.892-2.307-15.429
		c-0.148-3.729-3.125-13.252-5.573-15.817c-2.606-2.733-6.918-7.055-8.553-7.055c-0.096,7.086-5.669-4.962-7.399,2.248
		c-2.925,2.635,2.691,4.652,2.305,16.457c1.325,4.501,2.127,6.717,0.68,11.411c-2.051,0.526-3.088-3.184-4.138-5.15
		c-1.133-2.126-0.357-3.35-0.961-5.582c-0.8-2.958-1.798-6.976-3.843-9.304c-0.426-0.488-1.528-1.369-2.862-2.249v48.719h-51.15
		C156.161,291.365,166.698,296.429,169.252,297.569z"/>
	<path fill="#47EADA" stroke="#FFFFFF" stroke-miterlimit="10" d="M369.233,193.464c-0.058-0.326-0.207-6.162-0.274-6.47
		c1.06-6.712-6.612-1.584-3.245-5.346c-3.103-3.515-5.631-4.555-9.245-4.371c-2.846,0.155-6.771,1.224-9.537-0.494
		c-2.884,1.604-5.379,4.852-8.25,6.26c-2.582,1.271-5.262,1.251-7.968,0.215c-2.612-0.992-5.352,0.148-7.527-2.834
		c-1.308-1.789-2.305-4.209-4.254-3.601l-2.009-1.909c-1.817,0.051-6.429,0.342-8.014-4.558c0.866-0.024,8.014,4.057,6.562-0.393
		c-1.267-3.884-5.934-8.869-7.774-8.816c-1.858,0.058-5.23,3.41-6.994,2.313c-1.54-0.963,0.992-3.354-2.986-6.122
		c-2.352-2.121-6.374-2.582-8.879-2.053c-1.378,0.299-4.785-0.814-5.305,2.006c-0.54,2.895,1.255,5.287,2.16,7.38
		c1.752,4.024,5.014,4.867,7.675,5.413c2.685,0.557,3.698-0.238,6.109-0.74c2.719-0.564,6.316,6.106,6.57,10.41
		c0.289,5.043-1.831,4.843-1.079,9.152c0.722,4.227,0.072,4.164,2.517,7.096c1.517,1.824,4.48,1.392,6.028,3.244
		c1.876,2.227,5.669,0.465,7.39,0.104c5.97-8.931,2.649,2.259,4.55,2.186c1.632-0.058,4.396,1.01,5.938,0.205
		c1.587-0.828,5.083-0.035,6.802-0.361c1.707-0.351,3.451-0.97,5.18-0.896c3.198,0.132,6.518,0.078,6.123-3.578
		c0.919-2.929,1.498-6.979,2.444-0.592c0.572,3.821,1.273,3.143,4.312,3.937c1.839,0.472,2.791-0.768,4.451-1.304
		c1.413-0.443,3.53,0.36,4.906-0.532C368.337,196.652,362.779,195.61,369.233,193.464z"/>
	<path fill="#47EADA" stroke="#FFFFFF" stroke-miterlimit="10" d="M294.773,244.341c-2.066-5.22-2.747,1.341-4.662-1.122
		c-0.717-0.931,0.097-5.824-3.459-8.065c-0.51-0.632-5.256,3.372-5.478,2.673c-1.153-3.737,6.782-9.534,8.554-9.686
		c0.422-1.429,2.418-4.784,2.329-6.403l-1.466-2.283c-2.875-3.919-9.156-0.757-11.051,0.346c-3.367,1.958-4.035-2.933-10.087-2.022
		c-2.951-0.174-10.236,6.723-5.336,10.757c2.428,3.529,6.675,3.494,5.886,9.933c-2.479,0.745-7.184,6.906-9.49-2.021
		c-0.778-3.012-6.162-2.506-6.486,2.545c-0.354,5.407,4.16,10.244,7.639,10.479c3.746,0.263,8.133,3.895,10.523,8.021
		c2.447,4.226,4.348,15.755,9.225,11.168c0.979-0.916,0.069-5.34,1.561-6.381c1.36-0.942,4.988,0.434,6.368-0.129
		c1.81-0.741,3.44-3.126,4.466-5.184C295.28,254.005,296.244,247.225,294.773,244.341z"/>
	<path fill="#47EADA" stroke="#FFFFFF" stroke-miterlimit="10" d="M310.579,233.546c1.194-1.913,3.881-0.138,5.655-0.215
		c2.639-0.115,3.172,1.062,4.983-0.86c2.049-2.165,6.553-9.029,9.481-16.224c-4.229-6.391-10.425-1.12-13.444-4.641
		c-0.495-0.578-2.298,0-3.175,0l-1.439-0.485c-6.167,0.926-13.069,1.29-13.642,9.492c-0.18,2.632,0.985,8.805,1.091,11.417
		c0.087,1.979,1.068,3.613,1.871,4.958c0.881,1.467,0.723,8.332,0.943,10.112c2.714,1.203,7.54-2.151,9.292-8.068
		c0.166-2.566-0.974-4.221-1.543-4.385C308.896,234.141,310.482,233.975,310.579,233.546z"/>
	<path fill="#47EADA" stroke="#FFFFFF" stroke-miterlimit="10" d="M519.508,340.304c-3.812,2.369-5.328-5.627-8.058-8.486
		c-2.104-2.224-2.738,3.524-4.976,1.222c-2.216-2.272-5.518-7.499-7.763-9.779c-2.543-2.575-7.917-2.174-10.676-4.371
		c-1.982-1.568-8.486-4.634-9.72-7.157c-1.354-2.763,5.053-3.578,3.651-5.922c-0.806-1.352-4.843-1.612-4.502-3.5
		c4.036-0.153,14.507,5.531,11.62-2.578c-0.331-0.932-11.02-1.355-11.849-3.737c-1.485-4.263,7.777-2.362,9.112-1.838
		c-5.023-22.644-10.073-1.017-11.167-6.013l4.576-7.771c-0.007-3.598-5.228-5.641-7.883-6.025c-2.75-0.394-7.353-0.172-9.021,2.483
		c-0.881,1.42-3.549,5.242-2.1,0.191c0.793-2.802,6.179-2.613,4.836-7.602c-1.334-4.946-4.298,0.937-5.744,2.397
		c-1.674,1.675-3.56-1.643-5.127-2.139c0.51-3.035,5.93-0.872,6.758-3.809c1.174-4.177-3.812-8.039-6.238-8.324
		c-5.326-0.644-11.046,5.878-15.38-1.303c-1.377-2.272-1.833-5.78-2.996-8.44c-1.399-3.207-2.413-7.497-4.546-9.797
		c-0.634-0.682-1.365-1.272-2.148-1.78c-2.872-1.859-6.493-2.53-8.974-1.805c-1.01,0.295-2.983,0.665-4.589,1.573
		c-1.345,0.761-2.429,1.899-2.461,3.701c-0.071,2.235,9.463,6.239,9.052,7.181c-13.238-8.345-11.839-0.648-11.796,0.56
		c0.077,1.889,4.346,6.85,0.301,2.604c-3.813,1.931,2.887-6.17-5.084-9.291c-1.795-2.252-5.022,7.644-6.974,9.528
		c-1.615,1.57,2.084-8.23-0.315-10.121c-1.915-1.505,2.79-3.279,2.961-5.362c0.241-2.852-0.339-4.241-1.043-6.141
		c-0.27-0.725-0.556-1.523-0.824-2.509c-0.317-1.182-0.699-2.395-1.142-3.59c-2.771-7.479-8.052-14.232-16.634-7.72
		c-3.136,0.548-8.26,4.259-11.163,6.262c-0.643,0.437-2.026,4.544-2.294,5.559c9.443,5.319,5.456,3.759-0.833,1.946
		c-0.507,2.705-1.289,7.901-1.217,7.924c4.526,6.688,6.742,2.632,10.208,11.423c-2.046,3.871-5.898-8.131-7.728-5.342
		c-0.968,1.474-3.772-0.154-4.568,1.871c-1.195,2.975,2.492,5.405,3.485,6.431c2.078,2.134,5.318,4.929,5.166,8.734
		c-1.461,18.474-1.823,0.612-10.571,6.083c-1.592-4.52,13.634-2.694,4.912-9.486c-0.962-1.529-3.336-3.885-4.448-5.214
		c-1.683-2.018,0.751-7.692-0.238-10.505c-1.776-5.063-4.016-8.278-1.472-12.123c1.486-2.235,3.61-8.817,5.8-8.792l5.187-5.8
		c-2.125-3.22-6.325-5.036-9.179-4.723c-2.514,0.275-7.82,3.065-10.044,4.283c-5.453,2.984-7.924,12.16-10.735,17.102
		c-3.316,5.832-4.932,11.759-3.521,19.779c-0.946,7.456,2.56,11.367,7.838,11.819c1.601,0.142,9.496,1.292,8.348,5.047
		c-0.909,2.947-11.755-3.64-13.488-2.104c-2.244,1.983,1.889,8.973,3.735,10.611c2.011,1.794,3.984,4.941,6.407,5.02
		c2.619,0.085,4.04-2.729,6.508-1.729c1.706,0.692,0.668,3.626,4.939,5.374c1.898,0.93,6.296,0.472,8.347,0.538
		c3.017,0.086,4.96-0.22,7.733,1.322c2.051,1.144,6.922,3.911,9.353,3.301c3.119-3.305-6.677-8.511-5.961-8.59
		c1.319-0.145,10.689,7.964,12.3,9.562c1.599,1.585,2.985,2.333,3.404,3.188c4.022,5.027,9.25-0.758,8.09-2.625
		c-0.95-1.531-8.379,2.11-14.424-6.233c1.373-1.737,6.678,1.874,9.802,1.01c1.249,0.683,2.329,2.761,2.968,2.889
		c2.608,0.52,6.975,0.642,5.295-3.801c-2.803-7.416-3.122-6.006-5.285-6.343c-0.433-3.076-3.37-5.28-5.126-3.858
		c-1.265,1.023-4.459-0.443-3.954-1.908c4.853-1.489,12.317,4.931,13.87,5.663c2.448,1.146,1.661,1.273,2.879,4.656
		c0.685,1.908,4.251-4.751,5.444,3.329c-0.772,2.016-3.836,7.191,2.958,2.176c1.514,4.258,2.053,4.17,4.525,4.306
		c-4.443,2.139,3.808,8.174,5.203,8.623c0.497,5.464-8.705,0.122-6.838,6.355c-1.369,3.669,1.132,3.581,4.046,1.182
		c3.22-4.518,4.345-3.931,5.251-2.537c2.708-3.469,2.759-0.942,2.838-0.804c-1.54,4.51,1.034,7.27,3.774,8.174l0.261-3.615
		c6.028,0.866-2.208,5.833,6.927,8.812c-0.358,1.694,1.74,1.621,1.406,3.015c-0.346,1.428,0.117,3.213,0.122,4.623
		c0.01,3.792,3.056,7.072,1.406,10.081c-3.052,5.609-10.856,6.958-10.98,15.832c-0.043,3.635,5.032,4.038,5.429,7.433
		c0.781,2.576-4.22,1.561-7.4,1.439c-3.277-0.124-1.129,3.655-9.946,2.03c-2.967-0.087-4.749-4.106-7.647-2.127
		c-2.152,1.476-6.584,7.512-5.964,10.358c1.226,5.562,8.95,7.877,12.318,7.295c2.4-0.421,0.583-2.144,2.963-2.897
		c0.308-5.185,4.376,0.288,7.575,0.351c3.637-5.453,4.569-3.075,4.112,2.145c2.218,4.523,5.249,1.238,8.243,3.51
		c3.615,2.747-5.352,1.173,7.458,12.765c2.156,2.39,8.834,2.65,9.308,5.952l3.207-0.447c1.119,3.323,3.345,3.959,5.295,5.671
		c1.682,1.474,6.89,1.308,8.801,2.164c2.137,0.938,7.07,4.382,9.356,5.064c2.062,0.614-1.296-2.323,0.161-5.025
		c-3.382-2.458-2.428-3.41-3.947-5.027c-1.634-1.726-4.4-3.346-5.963-5.157c-1.787-2.063-5.253-4.045-6.407-7.052
		c-4.59-7.529,2.918-1.666,5.18,0.369c0.358-1.073-0.467-4.032-0.428-4.644c2.689-0.579,2.13,5.455,4.086,6.816
		c2.65,1.841,4.794,1.394,7,5.016c4.449-1.601,3.784,4.489,6.379,5.641c1.801,0.811,6.06,4.423,1.642-1.693
		c-3.881-4.889-2.026-4.224,1.622-3.369c0.366-1.219-7.697-14.004,1.875-6.718c0.502-1.541-1.49-4.448-1.901-5.734
		c-2.813-4.617-4.629-6.42-2.552-8.233c-1.346-2.905-1.916-2.823-3.728-4.945c-1.539-1.793-5.906-3.135-7.187-5.471
		c-2.16-9.062-8.27-10.279-8.436-13.491c-0.314-6.085,12.451,11.942,2.428-7.782c2.977-0.321,6.58,1.638,8.669,3.556
		c2.325,2.144,1.862,2.693,4.498,3.656c3.091,1.138,2.752,2.227,2.683,6.257c-0.082,5.004,2.093,3.546,4.708,6.059
		c1.581,1.528,4.507,5.537,6.804,4.653c3.331-1.375,0.532-6.777,0.791-8.863c0.575-4.621,4.509-0.042,7.269-0.546
		c2.807-0.515-1.481-7.571-0.224-11.012c1.535-4.111,6.39,4.023,5.187,0.032C527.308,348.877,523.186,338.021,519.508,340.304z"/>
	<path fill="#47EADA" stroke="#FFFFFF" stroke-miterlimit="10" d="M486.35,294.157c0.011,0.041,0.019,0.079,0.026,0.12
		C486.572,294.28,486.544,294.233,486.35,294.157z"/>
	<path fill="#47EADA" stroke="#FFFFFF" stroke-miterlimit="10" d="M393.087,386.374c-1.7-2.351,0.673-7.534-1.683-9.241
		c-1.164-0.841-2.993-1.329-2.993-1.329c-3.833-0.479-3.529-0.408-5.633-3.918c-1.237-2.064-5.888-5.887-7.758-6.748
		c-1.195-0.556-1.909,3.275-2.979,2.882c-1.211-0.446-1.038-6.928-2.019-7.879c-3.028-2.954-5.343,0.763-5.669,4.611
		c-0.309,3.664-0.707,7.083-1.633,10.188c-1.295,4.395,1.267,6.522-1.18,10.508c-1.533,2.487-6.996,5.858-3.742,8.52
		c2.711,0.96,6.269-3.856,8.765-2.499c2.411,1.324-0.698,7.501,1.825,8.322c6.093-0.345,5.188-4.785,7.208-5.63
		c1.504-0.632,3.147-1.842,4.588-3.244c0.874-0.85-2.065-5.741,3.58-5.623c6.655,4.494,0.673,7.761,5.742,7.281
		c1.37-0.235,1.507,0.887,2.857,0.994c1.66,0.112,2.12,2.122,3.533,2.603c1.729,0.582,5.354-3.797,5.59-6.556
		C401.797,386.061,394.468,388.265,393.087,386.374z"/>
	<path fill="#47EADA" stroke="#FFFFFF" stroke-miterlimit="10" d="M345.099,367.341c-5.427-9.188-12.699-8.866-10.309-9.225
		c7.282-2.739,16.792,9.634,19.57,8.364c3.003-1.382,3.347-2.025,5.958-4.228c1.986-1.668,6.96-6.382,4.035-8.647
		c-1.359-1.055-3.277-3.119-4.695-3.706c0.67-1.635,0.648-2.523,6.368-2.239c2.315-0.699,4.03,3.28,3.973,4.288
		c1.186,0.507,3.86,1.964,4.212,1.871c2.035,8.144,6.006,8.303,7.825,8.914c4.42-1.056-16.625-17.585-2.895-9.993
		c0.491-4.71-8.642-10.052-7.1-12.685c1.947-3.343,2.786,3.459,5.189,4.324c1.91,2.395,2.047,5.67,3.843,6.245
		c2.553,0.813,10.517-9.381,12.686-11.531c2.787-6.439-11.702-26.235-8.508-24.6c2.272,1.161,2.366-0.661,4.76,0.192
		c4.133-1.826,2.424-4.059,2.786-5.958c0.507-2.708-2.661,1.324-3.555-1.441c-0.574-1.779,3.718-2.805,3.364-4.612
		c-0.688-3.52-3.732,0.086-4.602-3.849c-4.805-3.171,0.048-5.485-3.555-6.438c-4.088-1.083-5.116,1.496-8.758-0.765
		c-8.481-5.259-8.441,2.9-9.322,6.823c-0.75,3.344,5.729,5.559,3.557,7.688c-3.54,3.484,8.745,3.556-4.517,3.556
		c-1.094,2.933-0.576,9.897-3.862,15.414c-1.711,9.186-5.626,12.661-6.611,12.166c-2.403-5.477-9.515-8.36-6.631-19.507
		c-0.379-2.484,1.142,2.625,2.487,0.031c0.467-1.137,0.268-3.902-0.278-7.815c-0.513-3.768-2.118-0.968-5.956-7.32
		c-2.091-3.459-4.059-3.079-5.045,0.937c-0.223,4.483-1.47,4.189-1.768,7.855c-0.041,2.328-2.48,8.236-2.878,8.233
		c0.012-0.444,0.01-1.543,0.036-3.027c-0.103,1.244-0.146,2.263-0.091,2.931c-0.056-0.667-1.313-7.121-1.211-8.364
		c0.04-2.233-0.577-8.205-5.586-12.421c2.632-0.036,3.136,1.225,5.478,2.018c1.886,0.638,1.319,2.775,2.379,2.301
		c-0.969-4.174,0.296-7.138-1.06-7.269l-5.091-0.244l-2.066-2.787c-3.314,4.229-4.564,0.48-9.032-0.961
		c1.826-1.105,2.973-4.098,4.475-5.044c2.059-1.299-2.634-3.677-2.119-4.326c1.201-1.97,5.139,3.556,5.523-1.201
		c0.043-0.526-3.442-2.896-3.89-4.613c-0.354-1.346-0.199-3.162-0.963-3.219c-0.694-0.052-1.008-0.48-2.498,0.961
		c0.145-3.027-1.485-4.906-1.693-11.863c-3.54-6.838-7.063-9.657-9.603-9.989c-2.484-1.095-3.59-0.793-5.965,0.332
		c-1.42,0.658-2.402,3.178-3.285,4.407c-0.383,0.518-0.119,1.771-0.56,2.319c-0.433,0.552-0.738,2.466-1.23,2.957
		c-1.313,3.339-2.276,8.171-1.933,12.886c0.388,5.322-0.875,7.847,2.01,12.217c2.38,3.612,4.298,6.097,7.881,6.534
		c1.368,0.265-0.814-1.451,2.021-1.355c2.373,7.602,10.277-2.776,6.913,6.353c-5.598,1.157-9.152,14.655-3.387,8.745
		c2.433-2.496,4.828,2.113-1.32,11.146c-2.563,3.765-8.222,2.419-8.649,6.823c-0.435,4.476,4.017,10.126,2.113,10.715
		c-10.955-2.307-1.355-18.671-5.91-18.379c-2.477,0.153-8.697-5.981-12.092-3.868c-1.562-0.555-2.221,4.071-2.946,7.112
		c-0.599,2.525,6.246-0.145,9.054,4.43c-4.969,0.975-1.114,4.85-3.313,4.363c-5.188-6.703-6.516-1.03-10.09-2.378
		c-1.874-0.706-5.598-2.893-7.639-2.883c-1.478,0.008-6.704,1.729-7.855,4.684c-0.362-2.811-4.336-2.931-4.336-2.931
		c-10.09-1.153-6.044-11.338-11.953-3.05c-3.504-2.843-5.417-5.891-8.588-7.812c0-3.412-0.805-4.412-2.223-7.25
		c-2.964-5.927-8.932,1.942-13.91,2.883c-3.133-0.582-5.051,1.181-5.838,5.91c0.878-0.197,1.189-0.361,1.695-0.005
		c-0.961,2.499,3.907,3.125,5.513,2.383c-5.55-5.118,5.978,0.866,7.783-6.342c3.604-2.955,6.24-0.233,4.469,1.802
		c-1.335,1.54-4.635,0.213-4.822,2.309c-0.397,4.356-6.465,2.653-8.295,6.339c-4.953,1.248,7.099,19.845,3.315,16.721
		c-3.556-2.018-1.81,4.58-3.027,3.604c-1.187-0.944-3.649-11.093-4.468-11.964c-4.468,1.874-4.536-5.271-7.496-4.757
		c-2.684,0.471-2.429-5.93-5.044-5.044c-2.155,0.743-2.814,4.462-5.189,4.181c-4.87-0.551-10.689,1.152-15.857,1.152l-13.117-2.738
		c0.382-5.889,6.805-4.887,9.946-7.063c2.307-3.315-1.956-8.936-6.054-10.522c-4.667-1.82-4.245-3.197-8.216-3.027
		c-2.528,0.115,2.458,3.887-0.216,3.244c-3.137-0.763-14.977-3.459-17.572-7.854c-4.267-0.002-5.059-0.506-7.726-2.452
		c-0.573-0.218-1.175-0.584-1.798-1.041l-4.291,0.796v28.444l16.528,12.3c0,0,6.343-4.805,37.67,29.212l14.222-0.768l10.377,9.417
		l45.935,8.649l0.816,58.426h47.304c0.403-1.752,0.841-4.805-0.313-6.054c1.105-0.335,5.382-8.646,4.92-11.426
		c-0.067-1.74,2.487-3.884,4.354-4.959c1.349-0.776-1.134-2.25-0.831-3.091c1.312-3.662,7.705-4.959,9.417-8.195
		c-4.227-6.591,3.67-2.844,6.14-5.771c6.045-4.939,0.647-6.918-3.256-11.333c0.949-0.27,12.696,6.409,10.392-4.162
		c1.729-4.612,9.212,4.545,12.286-3.334c1.468-3.098,1.468-3.098,6.46-9.61C359.871,370.381,360.522,367.341,345.099,367.341z"/>
	<path fill="#47EADA" stroke="#FFFFFF" stroke-miterlimit="10" d="M276.562,216.337c0,0,7.399,0.434,8.745-2.926
		c0,0,3.94-3.01,1.346-2.927C286.652,210.484,271.084,214.949,276.562,216.337z"/>
	<path fill="#47EADA" stroke="#FFFFFF" stroke-miterlimit="10" d="M320.88,150.906c0,0-0.404-3.349-1.459-3.992
		c-1.329-0.799-8.929-2.092-5.797,3.758c0.033,1.131,1.411,2.216,1.734,2.841C316.858,156.436,323.711,154.275,320.88,150.906z"/>
	<path fill="#47EADA" stroke="#FFFFFF" stroke-miterlimit="10" d="M247.829,167.343c-2.056-0.797-2.165-4.508-4.527-1.312
		c-0.878,1.207-1.562,3.966,1.036,3.988l-0.03-0.187c0.86,1.182,5.215,0.536,6.465-0.13c1.14-0.611,1.494-0.53,0.108-1.75
		C249.571,166.805,249.068,167.827,247.829,167.343z"/>
	<path fill="#47EADA" stroke="#FFFFFF" stroke-miterlimit="10" d="M268.36,125.927c0.854,2.099,0.626,4.115,2.36,4.895
		c1.29,0.573,5.006,1.039,4.719,2.583c-1.855,0.094-6.933,1.211-0.904,3.823c1.274,2.469-0.208,3.78,1.75,3.626
		c1.374-0.113,4.719-2.92,6.17-2.821c2.4,0.16,1.997-1.362,4.134-1.785c0.077-0.517,0.454-3.859,0.454-3.859
		c-1.449-1.367-2.5-0.407-2.68-1.23c-0.239-1.124,0.956-1.125,1.334-1.813c0.669-1.204,1.896-1.898,0.697-2.836
		c-1.351-1.049-6.476-1.195-7.351-4.532c-1.971-0.968-7.266-2.964-9.054-3.541C267.486,117.629,266.769,122.01,268.36,125.927z"/>
	<path fill="#47EADA" stroke="#FFFFFF" stroke-miterlimit="10" d="M284.09,146.939c0.721,0.496,3.405,0.559,4.208,0.536
		c2.017-0.066,5.167,0.705,5.803-2.718c0.657-1.527,0.365-4.157-1.074-4.28c-1.296,1.303-3.859-0.09-4.618,0.153
		c-1.077,0.353-2.156,0.51-3.339,0.553C283.031,141.242,282.506,145.842,284.09,146.939z"/>
	<path fill="#47EADA" stroke="#FFFFFF" stroke-miterlimit="10" d="M265.159,93.812c0,0,0.304,5.097,2.591,4.688
		c2.627-0.464,0.523-6.756-0.316-10.2c-1.485-0.136-4.812-0.72-5.958,0.858C258.697,95.443,263.302,94.246,265.159,93.812z"/>
	<path fill="#47EADA" stroke="#FFFFFF" stroke-miterlimit="10" d="M256.799,145.035c2.695-3.783-1.382-5.725-2.967-4.545
		c-0.979-0.172-2.038-0.228-3.042-0.027C250.305,142.991,254.437,145.853,256.799,145.035z"/>
	<path fill="#47EADA" stroke="#FFFFFF" stroke-miterlimit="10" d="M212.259,128.634c-0.288-2.145-1.695-2.665-2.942-3.357v7.734
		C211.479,132.524,213.006,131.387,212.259,128.634z"/>
	<path fill="#47EADA" stroke="#FFFFFF" stroke-miterlimit="10" d="M243.092,194.021c0.645,0.323,2.893-0.729,3.505-1.544
		c1.99-2.628-3.349-8.078-5.375-3.159C239.137,193.775,240.945,192.94,243.092,194.021z"/>
	<path fill="#47EADA" stroke="#FFFFFF" stroke-miterlimit="10" d="M304.335,198.572c1.084-1.918,0.535-5.074-0.147-6.566
		c-0.841-1.807-1.198-3.768-1.552-5.862l-0.831-1.748c-1.166-2.27-3.982-1.408-5.78-1.114c-1.902,0.299-2.194,2.529-3.668,3.828
		c-1.727,1.531-3.201,1.769-2.344,5.471c0.667,2.862,2.599,4.158,4.537,4.429c2.208,0.295,2.359,0.794,4.366,1.957
		C300.155,199.682,303.328,200.298,304.335,198.572z"/>
	<path fill="#47EADA" stroke="#FFFFFF" stroke-miterlimit="10" d="M227.625,222.05c-1.974,0.66-4.232,1.324-2.988,3.538
		c1.117,2.01,2.311,2.568,4.265,2.896c2.937,0.495,1.794,2.707,3.719,4.849c1.116,1.248,2.963,4.219,4.345,2.225
		c0.349-0.515,2.268-4.16,2.448-4.799c0.227-0.83,0.538-1.466,0.737-2.338c0.34-1.528-1.506-5.573-1.506-5.573
		C235.533,220.922,231.107,220.895,227.625,222.05z"/>
	<path fill="#47EADA" stroke="#FFFFFF" stroke-miterlimit="10" d="M291.057,293.89c-2.423-1.979-4.971-6.543-7.327-3.733
		c-1.875,1.73,0.217,4.345-0.602,5.478c-2.571-3.171-1.198,4.077-3.868,6.094c-2.561,1.932-6.803,1.937-3.387,5.221
		c0.431,1.802,1.074,1.646,3.675,1.082c3.417-0.736,7.136,6.208,12.829,6.055c1.793,0.516,4.144-0.333,5.693-1.513
		c0.865-3.605,4.135-2.833,4.469-3.821l-3.351-1.806C297.144,301.666,297.628,299.258,291.057,293.89z"/>
	<path fill="#47EADA" stroke="#FFFFFF" stroke-miterlimit="10" d="M406.459,232.816c1.375,1.571,3.862,1.593,5.792,0.832
		c1.37-0.55,2.413-1.285,3.65-1.893c0.178-0.086,0.425-0.139,0.706-0.17c1.605-0.909,3.579-1.279,4.589-1.575
		c2.48-0.724,6.102-0.054,8.974,1.805c0.846-0.994,0.27-2.837-2.007-5.581c-1.841-2.234-2.569-4.233-4.838-7.029l-2.739-1.249
		c-2.979-1.454-6.805-1.219-9.947-1.062c-2.742,0.138-6.819-3.521-9.44-2.997c-1.46,0.291-1.959,2.142-1.916,4.248
		c0.442,1.195,0.824,2.408,1.142,3.589c0.269,0.985,0.555,1.784,0.824,2.51c1.409,0.131,4.428-0.824,3.441,4.378
		C404.298,230.506,405.512,231.726,406.459,232.816z"/>
	<path fill="#47EADA" stroke="#FFFFFF" stroke-miterlimit="10" d="M425.164,317.438c-1.271,0.514-1.808,0.744-2.632,1.687
		c-0.942,1.061,0.049,2.067-1.035,2.914c-1.637,1.696-2.222,7.014,1.035,10.635c3.558,1.043,8.845,0.333,11.099-2.998
		c1.707-2.503,0.288-6.243,0.505-11.114C431.324,316.331,426.686,316.824,425.164,317.438z"/>
	<path fill="#47EADA" stroke="#FFFFFF" stroke-miterlimit="10" d="M382.614,352.614c0.238,0.653,1.354,1.719,1.947,1.652
		c0.966-0.115,0.887-2.425-0.033-2.474C383.723,351.437,382.028,351.042,382.614,352.614z"/>
	<path fill="#47EADA" stroke="#FFFFFF" stroke-miterlimit="10" d="M407.615,411.561c-0.222-0.327-0.524-0.585-0.931-0.745
		c0,0-0.351-0.023-0.857,0.089c-0.354-0.051-0.741-0.085-1.178-0.089l-1.569,1.189c-0.873,1.625-1.174,3.392-1.054,4.959
		c-0.031,0.48-0.043,0.994-0.028,1.553l0.512,0.62c0.403,1.012,1.023,1.795,1.796,2.183l1.016,1.232c0,0,0.193-0.377,0.479-0.993
		c0.067-0.01,0.137-0.017,0.205-0.031C406.42,419.622,410.496,413.664,407.615,411.561z"/>
	<path fill="#47EADA" stroke="#FFFFFF" stroke-miterlimit="10" d="M209.566,144.543c0,0-0.097-0.005-0.25-0.018v5.058
		c0.265-0.257,0.437-0.521,0.473-0.79L209.566,144.543z"/>
	<path fill="#47EADA" stroke="#FFFFFF" stroke-miterlimit="10" d="M211.509,137.712c0,0-0.869,0.003-2.193,0.124v3.502
		c0.619-0.298,1.368-0.623,2.268-0.978L211.509,137.712z"/>
	<path fill="#47EADA" stroke="#FFFFFF" stroke-miterlimit="10" d="M240.152,149.82c0,0-0.564-6.505-5.343-7.082
		c0,0-0.778,11.377,7.426,13.074C242.235,155.812,245.085,151.216,240.152,149.82z"/>
	<path fill="#47EADA" stroke="#FFFFFF" stroke-miterlimit="10" d="M320.311,91.921l0.29-6.785l-4.34,0.123
		C316.261,85.259,311.764,92.458,320.311,91.921z"/>
	<path fill="#47EADA" stroke="#FFFFFF" stroke-miterlimit="10" d="M290.975,183.231c0,0-4.423,1.893-2.9,4.992
		c0,0,2.544-0.988,2.081-3.267C290.155,184.956,294.86,186.198,290.975,183.231z"/>
	<path fill="#47EADA" stroke="#FFFFFF" stroke-miterlimit="10" d="M369.004,171.519c0,0-3.22,5.235-0.609,7.217
		c0.497-1.231,2.813-5.32,2.855-5.932L369.004,171.519z"/>
	<path fill="#47EADA" stroke="#FFFFFF" stroke-miterlimit="10" d="M368.577,178.868c-0.065-0.042-0.123-0.087-0.183-0.132
		C368.24,179.119,368.258,179.229,368.577,178.868z"/>
	<path fill="#47EADA" stroke="#FFFFFF" stroke-miterlimit="10" d="M298.76,176.283l-1.291,0.527l0.429,3.818l1.711-0.048
		C299.609,180.58,299.353,176.66,298.76,176.283z"/>
	<path fill="#47EADA" stroke="#FFFFFF" stroke-miterlimit="10" d="M291.863,235.316c0,0,3.558-2.043,0-5.483
		C291.863,229.833,289.475,231.286,291.863,235.316z"/>
	<path fill="#47EADA" stroke="#FFFFFF" stroke-miterlimit="10" d="M268.45,312.956c0,0,6.919-8.215,3.219-8.889
		C271.669,304.067,263.26,307.526,268.45,312.956z"/>
	<path fill="#47EADA" stroke="#FFFFFF" stroke-miterlimit="10" d="M444.81,333.688c0,0,5.768-3.158-5.62-5.662l-2.812,0.417
		C436.378,328.443,434.72,335.386,444.81,333.688z"/>
	<path fill="#47EADA" stroke="#FFFFFF" stroke-miterlimit="10" d="M408.644,485.54l-6.646,4.804c0,0,6.294-2.273,1.048,4.613
		c0,0,4.612-2.306,7.111,0c0,0,3.843-4.612,2.497-6.728C412.654,488.229,410.975,489.575,408.644,485.54z"/>
	<path fill="#47EADA" stroke="#FFFFFF" stroke-miterlimit="10" d="M301.713,297.288c0,0-0.577-4.131-2.931-3.748
		c0,0-1.105,3.555,0,4.9C299.887,299.787,301.713,297.288,301.713,297.288z"/>
	<path fill="#47EADA" stroke="#FFFFFF" stroke-miterlimit="10" d="M359.946,318.28c-1.769-1.482-5.117,4.017-1.586,9.854
		C361.314,327.63,360.955,319.126,359.946,318.28z"/>
</g>
<path id="Newbrunswick" fill="#47EADA" stroke="#FFFFFF" stroke-miterlimit="10" d="M507.753,596.116
	c-0.166-0.091-0.329-0.18-0.49-0.269c-1.568-0.867-2.826-1.678-3.282-2.291c1.119-7.549-7.386-4.737-2.197-7.477
	c-0.884-1.872,4.206-3.992,3.479-6.122c-1.192,0.183-4.107,0.436-4.992,0.741c-0.431,0.151-8.806-0.538-7.486-2.298
	c-1.722,0.209-3.752,0.699-6.063,1.66c0,0-1.803-3.376-6.223,0.061l-1.151,0.457v2.979c0,0-0.308,0.426-0.933,1.015
	c1.574,0.435,3.389,1.364,5.484,2.928c0.085,7.444-1.355,13.307,2.175,14.194c0.217,1.563-0.382,2.742,0.647,4.107
	c3.509-0.322,5.983,1.586,8.194-1.152c0,0,1.584,1.105,5.41-1.292c0.355-0.222,0.668-0.298,0.783-0.329
	c0.157-0.042,0.567-0.063,0.811-0.099l0.342-0.301l2.762-2.428L507.753,596.116z"/>
<path id="Novascotia" fill="#47EADA" stroke="#FFFFFF" stroke-miterlimit="10" d="M532.232,594.997
	c-1.585-0.115,0.98-6.639-0.575-7.109c-1.673-0.498-4.966,8.771-6.919,9.032l0.48,4.9c-1.153-0.756-2.642-0.46-3.004-2.73
	c-1.908,1.548-4.129,2.61-4.9,1.693c-1.476-1.759-3.689-0.41-6.684-1.929c-0.662-0.335-2.856-2.727-2.878-2.738l-2.731,4.086
	c0.672-0.408,1.188-0.579,1.326-0.431c0.004,0.003,0.01,0.003,0.012,0.006c-2.341,2.987-3.927,2.987-4.107,6.123
	c-7.748,6.486-7.395,7.682-7.748,8.251c0.433,2.812-0.008,3.146,0.648,4.182c2.019-0.759,2.228,2.196,2.668,2.197
	c5.405,0.012,9.909-9.988,10.738-9.657c1.474,0.564,2.812,1.262,6.494-1.045c2.057-1.288,6.104-1.61,6.854-2.579
	c4.081-2.259,4.832-6.484,11.191-6.484c2.811,0,2.978-0.992,3.812-4.997C537.24,594.163,532.597,597.182,532.232,594.997z"/>
</svg>
