<?xml version="1.0" encoding="utf-8"?>
<!-- Generator: Adobe Illustrator 16.0.0, SVG Export Plug-In . SVG Version: 6.00 Build 0)  -->
<!DOCTYPE svg PUBLIC "-//W3C//DTD SVG 1.1//EN" "http://www.w3.org/Graphics/SVG/1.1/DTD/svg11.dtd">
<svg version="1.1" id="China" xmlns="http://www.w3.org/2000/svg" xmlns:xlink="http://www.w3.org/1999/xlink" x="0px" y="0px"
	 width="1300px" height="1000px" viewBox="0 0 1300 1000" enable-background="new 0 0 1300 1000" xml:space="preserve">
<path id="Xinjiang" fill="#C6E75E" stroke="#FFFFFF" stroke-width="0.5" stroke-miterlimit="10" d="M462.7,325.992l-0.367-1.71
	c0,0-8.796-8.938-9.523-9.521c-0.729-0.583-6.706-19.973-6.706-19.973l-3.496-0.729l0.897-6.851l-10.717,0.53
	c-4.373-3.79-27.213-19.774-27.213-19.774l-24.685-1.215l-27.02-4.859l-4.47-7.192l0.846-8.314l5.958-8.791l-2.723-7.337
	l3.353-7.144l-1.749-9.476l-8.793-11.42c0.001-12.441-8.36-14.188-8.36-14.188l-2.099-4.111l-4.703,1.973l-3.888-6.22l-10.594,0.681
	l-2.292-3.697l-6.261-1.259v-5.442l-12.321-6.935l1.825-3.951l-6.219-4.957l2.6-3.833l-0.294-4.792l-9.252,1.722l-5.563-2.39
	l-5.568,1.81l-2.624,3.888l1.871,6.625l-4.933,7.953c0,0-4.957-0.729-6.706,1.749c-1.75,2.479-7.288-3.79-10.641,2.916
	s-3.207,11.176-3.207,11.176s-0.864,16.611,4.305,19.045l-2.994,7.827l-8.455,0.729l-4.665,4.664l-2.861-3.31l-18.86-0.189
	l-17.056-6.414l-10.205,35.861l-3.645,0.875v12.101l4.961,4.134l0.579,5.779l-6.969-0.931l-6.7,0.106l-3.008-3.86l-15.978,7.018
	c0,0-10.205-1.021-11.517,1.021c0,0-10.788,0.438-9.184,5.248c0,0,2.041,3.353,4.957,1.604c0,0,1.312,3.791,4.228,5.831
	c0,0-0.047,20.166,8.311,35.133l-0.583,4.665l-6.572,3.379l3.461,4.594l-7.386,1.357l-1.556,5.831l2.333,8.939l-1.75,5.831
	l-6.22,0.974l-2.527,4.08c0,0-20.603,8.031-22.352,11.307c-1.749,3.272-8.748-0.228-10.302,5.411c0,0-9.233,2.233-8.33,6.315
	c0,0-16.939-4.956-19.854,1.896c0,0-3.399,13.691-7.289,16.327l-2.479-2.479l-9.767,3.354l-0.41-4.458l-1.485-5.312l-7.289,4.957
	l-5.976,0.034l-2.625-1.932l-0.292,4.957l-9.476,6.562l-7.143-0.291l-2.77,7.437l1.021,8.745l-7.581,1.896l5.54,11.369l-1.021,5.248
	c0,0,1.312,5.688,6.123,5.979s11.736,0.362,14.326,7.7l2.177,4.898l2.06,12.169l1.552,5.813l-12.872,3.346l0.716,3.711l7.831,2.793
	l8.474-0.037l3.514,5.646l6.381,0.866l4.04,9.438l-0.553,6.828l5.164,6.596l5.39-0.231l9.191,6.394l20.892,2.067
	c17.59-25.171,43.177-5.711,43.832-2.236c0.075,0.4,0.087,1.055,0.037,1.881c13.376,4.273,32.703,7.611,43.6-6.059
	c0,0,6.706-2.625,11.954,5.539c5.248,8.163,39.069-2.332,42.567-8.164c0,0,18.369,5.832,21.576-9.622c0,0,19.302-6.744,21.167-4.247
	l7.731,1.916c14.34-9.971,29.005-2.039,37.496,2.786c0.075,0.042,0.152,0.086,0.227,0.128c8.455,4.813,8.894-3.354,8.894-3.354
	c15.598,9.771,20.846,4.374,21.867,4.083c1.021-0.293-2.721-10.735-2.721-10.735c-6.609-2.335-2.721-9.33-2.721-9.33
	c11.663-1.166,8.942-5.831,8.942-5.831c-3.109-1.941-3.11-7.773-3.11-7.773s-10.885-4.276-12.44-6.222
	c-1.555-1.941-1.166-13.995-1.166-13.995c-4.277,1.944-3.887-7.387-1.943-6.221c1.944,1.166,6.604-4.868,6.604-4.868
	c2.333,1.354,34.21-8.352,34.21-8.352v-2.934v-2.751c5.831-5.295,10.089-29.483,10.089-29.483
	c-3.499-9.72,17.123-8.761,17.123-8.761c2.333-12.828,20.212-22.158,20.212-22.158c9.329-8.938,10.887,0,10.887,0l5.832-6.605
	c0,0,15.549-0.775,9.718-12.438C453.416,336.188,457.846,330.231,462.7,325.992z"/>
<path id="Innermongolia" fill="#88D8D5" stroke="#FFFFFF" stroke-width="0.5" stroke-miterlimit="10" d="M493.432,372.682
	c0,0,8.164,5.248,7.289,14.578c0,0,6.998-1.167,17.494-5.831c0,0,17.783-6.706,20.115-0.583c0,0-0.875,20.992-14.576,23.908
	c0,0,11.66,5.248,14.576,5.54c0,0,5.54,6.413,5.54,7.288c0,0,7.289-4.071,6.706,8.313c0,0,3.791,4.223,7.289,2.766
	c3.499-1.456,4.957,14.368,11.662,7.187c6.705-7.187,2.916-8.341,1.458-9.948c0,0,9.038-4.813,16.907-1.896
	c7.873,2.915,11.371-3.313,11.371-3.313s13.12-7.767,15.744-3.977c2.624,3.791-0.972,5.549,2.434,9.188
	c3.397,3.641-11.663,14.623-13.606,15.789c-1.94,1.165-1.359,6.804-0.583,7.579c0.777,0.777-5.439,5.64,0.583,8.747
	c6.026,3.109,11.858,8.747,12.637,10.011c0,0,18.077-2.432,20.992-6.314c0,0,6.996-1.558,7.969-0.975
	c0.976,0.583,5.058-8.747,3.693-10.496c-1.359-1.75-0.389-29.545,17.492-32.46c0,0,2.916,6.807,5.057,8.748
	c2.138,1.941-4.082,9.32-4.082,9.32s-0.776,7.395-4.666,10.114c0,0,6.529,4.858,9.193,3.889c2.662-0.973,9.076,2.526,11.408,6.024
	c2.334,3.499,7.58,1.555,10.688,5.832c0,0,12.472,2.9,14.354-1.858c0.125-0.315,0.203-0.669,0.229-1.058
	c0.394-6.222-0.389-7.774,0.975-5.639c1.359,2.141,5.33,2.042,4.472-1.166c-2.916-10.889,13.021-22.744,13.021-22.744
	s5.578-4.28,4.229-7.383c0,0,5.637,0.923,4.711-5.056c0,0,2.918,0,3.309,2.332c0,0,5.73-3.664,5.64,2.493
	c-0.068,4.275,5.248-6.193,5.248-6.193s6.414-4.073,4.272,1.758c0,0,6.023,1.75,7.189-5.055c0,0,1.359-2.525,6.221,0.973
	c0,0,4.082-1.357,4.082-3.69s3.109-18.465,14.385-12.829c0,0,2.724,1.557,5.64-3.889c2.916-5.444,7.58,0.973,7.58,0.973
	s8.354,0.392,8.938-3.886c0,0,6.224,0.191,5.443-8.556c-0.777-8.747-7.545-2.503-1.229-11.271c0,0-4.021-7.684,3.17-7.771
	c3.734-0.049,1.357-6.997,1.166-8.554c-0.19-1.555,3.89-2.917,5.058-3.108c1.166-0.191,1.555-5.639,6.414-4.665
	c0,0,5.438,5.828,1.94,9.327c-3.5,3.499,1.976,6.998,9.054,5.054c0,0-1.084-4.664,9.604-8.938c0,0,3.887,0,4.274,3.499
	c0,0,3.498,0.778,4.664-4.274c0,0,6.414,0.193,10.688-0.191c4.274-0.392,2.604-9.722,1.89-11.272
	c-0.724-1.557,4.551-4.473,8.137-2.333c3.584,2.139,4.168-2.723,4.168-2.723s2.721-3.499,5.637-0.391s14.576,20.604,7.971,20.8
	c0,0-2.848,2.331,2.756,13.217c0,0,19.207,0.974,19.984-1.941c0.777-2.916-2.916-22.158-0.775-23.324
	c2.14-1.167,4.664-1.359,11.662,1.358c0,0,0.582,6.414,2.721,9.137c2.14,2.723,1.357,5.831,1.357,5.831s11.473-18.659,17.689-14.968
	c0,0,9.521-7.581,10.688-7.581s3.5,1.75,4.079,1.75c0.584,0,5.25-6.607,5.25-6.607s16.427-6.414,23.326-3.691
	c0,0-0.192-6.705,7.871-6.023l3.498-7.482c0,0-14.285-2.916-7.58-5.539c6.707-2.625-2.623-21.576-3.207-26.824
	c-0.582-5.248-11.662,12.438-16.715,7.388c-5.057-5.055-4.277-24.491-3.111-28.768c1.166-4.275-8.938-12.857-8.938-12.857
	l3.015-9.301c24.198,22.158,19.631-2.235,19.631-2.235c9.914-1.167,2.332-7.289,2.041-9.913s7.289-5.831,7.289-5.831
	c9.33-1.75,1.166-6.123,1.166-6.123c-6.123,7.58-9.912,3.79-9.621,0c0.291-3.791-9.037-12.246-7.58-17.202
	s12.828-9.039,13.703-12.246s4.664-4.373,4.664-4.373c2.625,1.166,10.496-10.788,13.412-13.412s3.498-4.082,5.248,4.665
	s4.373,0,4.373,0c-1.748-16.035,6.123-25.656,6.123-25.656s12.536,1.75,6.413-10.204s3.791-28.573,8.748-30.614
	c4.954-2.041,0.873-9.039,0.873-9.039c11.954-7.289,0-15.673,0-15.673c-7.87-16.84-13.993-11.441-13.993-11.441
	c-2.623,15.453-27.115,8.164-27.115,8.164c-15.744,14.287-23.908-22.742-19.533-23.033c4.373-0.292,0-6.413,0-6.413
	c-13.121-16.327-15.162,0-15.162,0L958.181,36.82c0,0,7.286-7.872,9.036-13.703c0.898-2.999-2.059-7.699-5.143-11.56
	c-3.061,1.253-5.451,2.521-5.451,2.521l-7.922,0.875l-10.643,13.841l-4.813,2.041l0.293,6.56l9.478-2.041l3.938,3.354l-1.748,7.726
	l2.623,3.063l-2.623,9.184l-6.998,6.415l-3.646,1.604l-1.75,8.455l-4.813,4.957l0.055,5.581l-4.666,5.546l-1.559,6.609l-3.305,3.11
	l-2.914,8.553l4.408,0.232l-2.25,7.646l-12.854,4.951L902,127.586l-13.021,7.386l-11.661-4.858l-9.812-5.05l-15.688,35.044
	l-2.406,3.343l-1.055,10.646l-4.865,1.888l1.557,7.581l7.582,5.642l3.818-4.246l13.09-1.396l11.471,6.808l9.326-9.917l13.111,0.777
	l4.965,6.025l6.805,3.499l-0.545,4.281l13.767,11.269l2.629,10.729l-5.271,4.165l-12.719-4.203l-4.471,1.749l-11.867-0.992
	l-8.348,6.046l-0.945-0.944l-4.887-1l-1.766,5.069l-11.845,0.179l-8.89,9.166l-2.799,3.861v6.998l-9.658,6.219l-20.116-0.729
	l-3.646,6.852l-17.062,13.46l-17.721-0.931l-5.605-5.894c-1.416-2.436-10.918-1.296-10.918-1.296l-5.697,6.466
	c-9.656,18.22,5.979,26.532,5.979,26.532l0.875,4.373l-6.98,3.347l-3.471,3.823l-9.229,3.183L739.29,330.17l-15.308,5.248
	l-28.479-0.996l-9.373,3.134l-1.457-1.458l-5.731,2.624l-13.314,3.107l-16.092,8.322l-14.036,9.073l-8.689-1.179l-1.313-6.7
	l-13.123,2.438l-21.576-9.135l-13.224-1.194l-6.505-8.62l-27.264-4.664l-18.808,3.498l-22.013-2.503l-16.163-3.767l-8.064,0.806
	l13.21,31.068C491.974,359.27,482.936,364.809,493.432,372.682z"/>
<path id="Heilongjiang" fill="#88D8D5" stroke="#FFFFFF" stroke-width="0.5" stroke-miterlimit="10" d="M1157.214,292.6
	l-3.307-16.521l-2.623-4.765c1.94-2.624,10.01-2.916,10.01-2.916c6.607-3.013,3.133-4.983,4.18-6.438
	c0.752-1.042,4.521-3.426,4.521-3.426c2.125,1.47,7.24,1.99,14.238,6.461c6.995,4.47,9.911-2.526,9.911-2.526
	c-0.194-5.442,0.584-10.496,4.273-11.08c3.693-0.583,2.141-7.975,2.141-7.975c6.804-1.367,4.855-9.519,4.855-9.519
	c6.025-3.888,2.527-8.164,2.527-8.164c4.274-0.776,3.887-17.299,5.637-17.299s1.574-6.558,1.574-6.558l3.469-4.691l3.896-0.807
	l3.892-7.581l-4.277-8.164l5.641-10.49l-5.567-2.418c-12.664,1.324-10.811,4.945-10.811,4.945
	c-5.104-1.604-10.786,5.394-10.786,5.394c-7.438-5.831-13.27,4.048-13.27,4.048c-4.373-0.472-3.645,3.824-4.957,5.72
	c-1.311,1.896-19.53,1.167-19.971,0.146c-0.438-1.021-7.338,0.238-7.338,0.238c-4.471,0.194-12.244-8.553-9.674-11.468
	s3.646-11.079,0-11.273c-3.646-0.194-2.187-4.08-2.187-4.08c6.022-9.523-2.332-8.164-2.332-8.164
	c-7.188,2.916-12.635-6.22-13.021-9.33c-0.391-3.109-3.891-2.721-3.891-2.721c0-3.11-3.849-4.082-3.849-4.082
	c-8.897,4.665-11.703-2.526-12.285-4.859c-0.584-2.333-8.164,1.166-13.604,1.166c-5.442,0-12.052-7.772-11.47-10.104
	c0.584-2.332,1.215-8.794,0.563-10.347c-1.065-2.538-4.156-4.278-4.156-4.278c2.623-17.202-10.153-20.118-8.743-25.949
	c2.024-8.386-3.017-6.658-2.041-8.795c0.974-2.137-2.479-4.325-3.063-4.762c-0.584-0.438,3.207-3.646,1.021-4.374
	c-2.188-0.729-5.979-7.289-4.082-10.205s-3.646-4.665-3.646-4.665c1.748-2.041-2.092-8.844-2.092-8.844s0.194-0.389,0-1.75
	c-0.191-1.361-3.498-2.139-4.857-2.916c-1.358-0.778,4.275-4.859,1.943-4.859c-2.334,0-4.859-4.082-4.859-4.082
	c-2.524,0.972-3.104-0.389-3.104-0.389c1.557-7.192-3.693-5.442-3.693-5.442c-12.05-10.885-13.021-1.167-13.021-1.167
	c-3.11-5.637-8.748-4.471-8.748-4.471c-2.916-6.026-6.803-4.47-6.803-4.47c-2.14-3.693-9.138-6.997-9.138-6.481
	s-2.916,1.233-2.916,1.233c-2.332-2.332-4.272-0.973-5.248,0.905c-0.973,1.878-14.771,1.912-14.771,1.912
	c-2.525-4.568-7.582,0.487-7.582,0.487c-2.433-1.326-7.621,0.3-11.65,1.95c3.084,3.859,6.041,8.56,5.142,11.559
	c-1.748,5.832-9.035,13.704-9.035,13.704l12.826,10.788c0,0,2.041-16.327,15.159,0c0,0,4.373,6.123,0,6.414
	c-4.373,0.292,3.791,37.32,19.535,23.033c0,0,24.49,7.289,27.115-8.164c0,0,6.123-5.398,13.992,11.44c0,0,11.953,8.386,0,15.673
	c0,0,4.082,6.998-0.875,9.039s-14.867,18.66-8.744,30.614s-6.414,10.204-6.414,10.204s-7.873,9.622-6.123,25.657
	c0,0-2.625,8.747-4.373,0c-1.75-8.747-2.332-7.289-5.248-4.665s-10.789,14.578-13.412,13.412c0,0-3.791,1.166-4.664,4.373
	c-0.875,3.207-12.245,7.289-13.705,12.246c-1.456,4.957,7.873,13.411,7.582,17.201c-0.293,3.79,3.498,7.58,9.621,0
	c0,0,8.164,4.373-1.166,6.123c0,0-7.58,3.207-7.289,5.831c0.177,1.566,2.943,4.379,3.041,6.641
	c7.222,0.462,14.468,0.432,15.039-1.48c1.166-3.887-0.776,15.161,4.273,16.328c5.057,1.166,6.996,8.552,6.996,8.552
	s8.164-4.275,11.664-1.555c3.498,2.722,13.604-5.443,13.604-1.166c0,4.276,3.623,11.274,5.504,9.719
	c1.884-1.555,22.485-3.498,18.985,8.554c0,0-0.388,7.774,6.998,5.83c7.388-1.941,3.107,4.276,3.107,4.276
	s3.888,15.161,10.105,11.273c0,0,6.221-16.719,8.939-10.496c2.722,6.22,2.332,16.716,5.439,16.716c3.108,0,2.723,12.828,8.555,7.771
	c5.829-5.055,16.324-17.882,17.49-9.718s6.608-0.775,7.774-2.721c1.166-1.943,1.166,14.797,6.998,13.618
	c2.983-0.604,6.587,2.878,9.388,6.418l0.268-7.708L1157.214,292.6z"/>
<path id="Jilin" fill="#88D8D5" stroke="#FFFFFF" stroke-width="0.5" stroke-miterlimit="10" d="M1051.767,379.913l9.621-13.063
	l2.552-8.622l7.729-2.948l4.492,6.122c3.014,5.046,15.646,3.99,15.646,3.99c2.232,4.859,6.607-5.248,6.607-5.248
	c-3.887-3.304-4.955-10.494-4.955-10.494l16.91-0.729l5.104-4.229l0.604-4.146l3.918-2.996c0,0,5.395,4.229,7.436-3.499
	c2.041-7.729,2.334-10.496,2.334-10.496l6.121,1.604l2.029,6.519l5.695,5.729c1.75-5.688-3.354-7.145-3.354-7.145
	c0.861-2.901,12.684-3.646,12.684-3.646l2.935-10.803l0.043-1.225c-2.801-3.54-6.398-7.021-9.387-6.418
	c-5.832,1.179-5.832-15.563-6.998-13.618c-1.166,1.941-6.607,10.885-7.773,2.721s-11.662,4.667-17.492,9.718
	c-5.832,5.057-5.44-7.771-8.555-7.771c-3.109,0-2.723-10.496-5.441-16.716c-2.719-6.223-8.938,10.496-8.938,10.496
	c-6.223,3.887-10.104-11.273-10.104-11.273s4.273-6.22-3.108-4.275c-7.387,1.943-6.998-5.831-6.998-5.831
	c3.5-12.052-17.104-10.106-18.984-8.554c-1.883,1.556-5.506-5.441-5.506-9.719s-10.104,3.888-13.604,1.166
	c-3.5-2.721-11.664,1.555-11.664,1.555s-1.938-7.386-6.995-8.552c-5.057-1.167-3.106-20.214-4.272-16.328
	c-0.574,1.912-7.82,1.942-15.039,1.48c0.064,1.526-1.088,2.803-5.082,3.272c0,0,4.566,24.395-19.631,2.236l-3.016,9.3
	c0,0,10.104,8.583,8.938,12.858c-1.165,4.274-1.941,23.713,3.109,28.767c5.052,5.054,16.133-12.635,16.717-7.387
	c0.453,4.087,6.209,16.48,5.566,23.008c3.627,0.974,6.821,2.734,8.135,5.854c3.791,9.039,9.037,6.998,9.037,6.998
	s1.75,11.079,2.625,10.788s8.746-14.562,8.746-6.985c0,7.569,8.748,24.479,9.914,24.479c1.165,0-5.832,12.535,1.748,13.701
	c0,0,2.916,14.287,6.123,12.829c1.983-0.901-1.953,3.118-3.097,8.183l0.474-0.658h6.411v0.002h-0.002v-0.001L1051.767,379.913
	L1051.767,379.913z"/>
<path id="Tibet" fill="#8ED168" stroke="#FFFFFF" stroke-width="0.5" stroke-miterlimit="10" d="M502.396,689.314
	c12.174,0.582,3.57-13.131,3.57-13.131l6.987-1.617c-2.521-2.854-4.946-4.203-4.946-4.203c22.448,7.871,0.193-12.729,4.729-16.037
	c4.532-3.303-1.423-20.405-1.229-22.155c0.193-1.748,3.307-3.109-2.524-8.94c-5.832-5.829-3.694-7.97-3.694-7.97
	c18.271,5.639-2.816-11.662-2.816-11.662c-1.38-8.283-8.361-13.754-15.333-17.221l0.173,0.312c0,0-5.248-2.331-6.416,0.875
	c-1.166,3.206-1.457,9.911-1.457,9.911c-4.665-1.748-9.621,2.916-9.621,2.916c1.459,8.455-5.247,5.248-5.247,5.248
	c-1.055-0.922-1.937-1.484-2.684-1.834c-2.562-1.184-3.438,0.377-3.438,0.377c-12.246,10.496-19.535-11.08-19.535-11.08
	c-1.166-4.663-13.995-7.869-13.995-7.869c-7.579,6.413-21.573,2.913-21.573,2.913c-7.289-2.041-41.11-13.702-41.11-13.702
	c-28.573-6.123-28.183-15.938-28.183-15.938c-8.164-6.996-5.401-9.719-5.401-9.719c4.318,0.389,2.874-18.271,2.874-18.271
	c-6.804,2.332-5.676-10.805-5.676-10.805c3.07-1.084,4.122-11.158,4.122-11.158c-3.738-3.021-4.495-6.012-3.969-8.584
	c-8.491-4.825-23.156-12.756-37.496-2.786l-7.731-1.916c-1.866-2.496-21.167,4.247-21.167,4.247
	c-3.207,15.454-21.576,9.622-21.576,9.622c-3.499,5.832-37.319,16.328-42.567,8.164s-11.954-5.539-11.954-5.539
	c-10.896,13.67-30.223,10.332-43.6,6.059c-0.384,6.33-4.55,23.302-13.836,22.609c-10.496-0.775-13.277,8.371-13.277,8.371
	l-0.49,15.766l7.936,6.771l-1.654,18.563l-4.567,0.584l-2.722-6.516l-6.997,2.725l1.07,9.115l4.372,2.063l1.458,16.229l9.233,9.723
	l11.187,0.265l6.5,9.168l12.44,2.815l6.414,9.328l4.568-0.188l3.235-8.138l13.092,0.939l2.429,7.192l8.942,4.08l7.482,5.931
	l6.96,0.76l1.486,7.65l3.704,1.688l5.053-4.373l4.591,1.67l1.144,8.924l13.163,7.287l4.524-2.723l1.069,7.481l6.511,1.361
	l4.763-1.748l1.846,4.765l4.47,5.538l3.014-5.442l1.458,4.182l3.862,1.613l3.815-4.92l9.815,6.221l11.517,0.875l3.645-3.354
	l15.015-3.354l3.936,5.538l-1.599,6.048l2.983,7.129l11.736-19.59l9.767-3.938l17.09,6.416c0,0,4.729,1.367,9.977,0.073
	c0,0,5.057,1.817,5.057,4.539c0,2.724,7.19,2.916,12.829-1.166c0,0,5.247,3.5,8.552-1.556c0,0,0.972-10.808,20.992-16.97
	c0,0,10.689-3.252,10.494-9.275c0,0,4.664-6.807,13.219-0.774c0,0,0.585,0.368,1.669,0.686c2.679,0.777,8.411,1.207,16.021-5.154
	c0,0,7.388-5.354,13.995,11.123c0,0,6.606,11.424,15.938,13.949c0,0,4.03,0.584,4.443-5.637c0,0,8.969,0.561,10.135,6.028
	c0.148,0.705,0.297,1.381,0.44,2.021c2.009-3.486,3.441-6.205,3.441-6.205L502.396,689.314z"/>
<path id="Yunnan" fill="#61BC76" stroke="#FFFFFF" stroke-width="0.5" stroke-miterlimit="10" d="M617.73,805.299l3.912,3.045
	l9.403-3.961l-0.975-4.566l10.212-6.395l3.535,5.002c2.846-4.515,6.467-7.354,6.467-7.354c7.289,4.664,7.289-8.164,7.045-10.496
	c-0.242-2.332-6.461-3.791-13.459-2.916s-4.373-1.457-5.539-4.364c-1.166-2.91-6.415-0.3-11.079-0.009s-4.081-10.202-4.081-10.202
	s6.997-10.205,6.122-10.205s-11.953-10.203-9.522-9.621c2.431,0.584,0.776-3.789,4.858-11.662c4.08-7.871-1.75-9.813-1.75-9.813
	s-2.524-0.393-8.163,3.498c-5.639,3.892-6.998-6.807-6.998-6.807c3.891-1.941-1.021-7,0-7c1.021,0,3.646-6.994,3.646-6.994
	c6.854,5.979,9.187-0.291,9.187-0.291c13.994,7.436,19.532-5.688,19.532-5.688c1.459-9.913-6.268-8.313-6.268-8.313
	c-6.563,10.061-14.435,0.291-14.435,0.291c1.166,1.313,2.771-4.813,2.771-4.813c-6.706-5.688-0.729-8.021-0.729-8.021
	c0.583-3.789-11.663,1.459-11.663,1.459c2.333,7.579-2.041,7.87-2.041,7.87c-1.749-0.291-4.956,4.081-4.956,4.081
	c4.082,4.082-9.038,14.287-9.038,14.287c-4.957-0.293,1.168,20.991,1.168,20.991s-7.291,6.123-7.583,5.248s-0.875-5.248-7.869-0.293
	c-6.998,4.957-10.496,2.041-10.496,2.041c-0.583-3.498-18.077-30.321-20.118-36.442c-2.041-6.123-8.164,0-8.164,0
	c-8.455-7.582-4.373-8.748-4.373-8.748c5.248-2.622-7.872-15.449-9.039-13.992c-1.166,1.456-1.166,5.247-3.789,4.081
	c-2.624-1.166-5.243,7.288-5.243,7.288c-0.813-4.879-3.07-8.479-5.263-10.956l-6.987,1.618c0,0,8.604,13.711-3.57,13.127
	l-3.136-6.704c0,0-1.437,2.72-3.441,6.204c4.232,19.033,5.583,12.557,5.583,12.557c9.33-4.475,8.552,16.905,8.552,16.905
	l-1.359,14.627c0,0-4.665,0.123-2.624,3.778s1.458,4.78-1.75,4.511c-3.207-0.271-3.207,4.104-3.207,4.104s-4.849-2.935-5.19,2.472
	c-0.349,5.399-2.972,4.233-3.847,4.233s-6.705,5.832-2.334,9.33c0,0-8.162,3.685-4.08,9.422c4.08,5.738,3.498,9.229,0,10.979
	c-3.498,1.751,3.205,5.252,10.203-2.909c0,0,11.954-0.875,14.578-2.041s-2.624,4.95-2.624,4.95s0.292,3.795,2.916,3.795
	s-0.292,3.791-0.292,3.791l1.749,3.207c0,0-2.041,6.414,2.624,5.539c0,0-0.875,3.206,5.831,2.041
	c6.706-1.166,4.374,3.791,2.916,3.497c0,0-0.875,5.104-3.207,4.738c-2.333-0.365,3.207,5.176,0.583,5.467s-9.622,9.621,12.244,9.039
	c0,0-1.166,9.33,3.791,8.162c0,0-1.75,5.247,5.831,2.625c0,0,2.333,3.791,12.536-4.957c0,0,4.957,6.998,4.082,10.495
	c0,0-3.789,4.082,4.665,0c0,0,4.665,5.38,5.831,1.813c1.167-3.563-0.583-11.729-2.332-15.521c-1.75-3.789-2.916-5.539-0.875-8.745
	c0,0-1.897-6.707,4.299-1.166c0,0,4.156-4.082,7.072-1.166c2.916,2.913,0-13.703,13.12-3.5c0,0,4.956,8.454,8.454-4.082
	c0,0,3.504,9.914,8.021,0.293C607.579,807.104,611.119,820.115,617.73,805.299z"/>
<path id="Guangxi" fill="#61BC76" stroke="#FFFFFF" stroke-width="0.5" stroke-miterlimit="10" d="M736.3,825.764
	c5.832,0.291,4.373-5.248,4.373-5.248s6.414-0.291,6.707-4.082c0.291-3.791,2.621-5.539,11.076-9.91c0,0,4.666-7.582,2.625-13.412
	c0,0,6.123-8.455,7.289-9.621c1.166-1.168,0.873-5.541,4.082-8.455c3.207-2.916,0-8.748,0-8.748v-3.153
	c-2.466,0.346-5.498-1.06-5.832-0.053c-0.584,1.75-5.832,4.666-5.832,0c0-4.662,1.75-15.451-3.789-6.996s-3.5-1.457-3.5-1.457
	c9.039-6.998,6.707-11.662,6.707-11.662s4.664-5.539,0-3.498c-4.666,2.041-2.625-7.873-3.5-9.914c-0.873-2.041-11.66,0-11.66,0
	l-6.996,6.998c0,0-1.166-6.998-3.207-4.082s-11.955,3.498-11.955,3.498s-1.457,6.414-4.082,6.414c-2.622,0-4.663,3.5-4.663,3.5
	s-6.414-3.5-6.414-1.195c0,2.301-3.791,7.9-6.412,3.527c-2.625-4.373-6.414,5.248-6.414,5.248l-2.916,2.754
	c0,0-8.455-2.463-11.955-9.459c-3.498-6.998-6.414,5.83-7.289,7.58c-0.873,1.748-17.783,1.166-15.402,5.539
	c2.381,4.371-3.838,5.537-7.629,3.496s-11.953-7.287-11.953-4.371s-8.164,8.453-9.622,6.705c-0.489-0.591-2.501-0.55-4.95-0.238
	c0.14,3.078,0.854,8.021,4.076,7.818c4.665-0.291,9.914-2.902,11.08,0.008c1.164,2.908-1.459,5.24,5.537,4.365
	c6.998-0.875,13.217,0.584,13.461,2.916c0.242,2.331,0.242,15.159-7.045,10.495c0,0-3.621,2.843-6.469,7.354l1.291,1.828
	l6.123,3.498l5.104-1.75l3.861,3.278l4.773-2.286l4.264,2.799l-1.168,4.897l-4.229,0.203l-0.146,5.83l4.065,1.166l0.019,6.512
	l6.631,0.777l6.004,7.096l9.814-1.409l4.442,3.206c0,0,3.717,0.294,7.361-3.352s14.178,4.104,14.178,4.104l7.252-0.08l-1.358-6.396
	l1.475-0.296l3.531,4.419l0.188-0.021C729.997,829.006,733.398,825.618,736.3,825.764z"/>
<path id="Liaoning" fill="#88D8D5" stroke="#FFFFFF" stroke-width="0.5" stroke-miterlimit="10" d="M1047.976,372.39
	c-3.207,1.458-6.123-12.829-6.123-12.829c-7.579-1.166-0.582-13.701-1.748-13.701s-9.913-16.911-9.913-24.479
	c0-7.571-7.869,6.694-8.744,6.985s-2.625-10.788-2.625-10.788s-5.248,2.041-9.037-6.997c-1.313-3.121-4.51-4.886-8.137-5.854
	c-0.183,1.854-0.88,3.235-2.359,3.815c-6.707,2.625,7.58,5.541,7.58,5.541l-3.498,7.479c-8.066-0.68-7.873,6.026-7.873,6.026
	c-6.898-2.724-23.324,3.69-23.324,3.69s-4.666,6.607-5.25,6.607c-0.582,0-2.916-1.75-4.082-1.75c-1.164,0-10.688,7.581-10.688,7.581
	c-6.221-3.691-17.688,14.967-17.688,14.967s0.775-3.107-1.358-5.83c-2.14-2.723-2.722-9.137-2.722-9.137
	c-6.995-2.723-9.521-2.525-11.661-1.358c-2.14,1.166,1.557,20.407,0.774,23.323c-0.199,0.753-1.635,1.245-3.646,1.563
	c-0.225,5.593-3.352,6.502-4.321,6.987c-1.168,0.583-1.75,6.998-1.75,6.998l8.164,7.189c0,0,7.969-1.941,6.604,1.75
	c-1.356,3.691,0.976,7.386,2.334,7.969c0.668,0.287,1.664,2.497,2.506,4.672l12.072-5.645c0,0,10.359-18.784,14.541-17.521
	l8.297,1.391l4.854-2.624l0.491,3.499l7.095,7.28l-1.847,3.989l-3.983,1.667l0.873,3.482l-10.498,8.644l-0.678,5.158l-3.449,5.879
	l4.521,2.188l4.957-1.068l-3.289,5.771l-8.957,5.212l0.709,3.624l10.177-1.875l1.067-2.771l5.931-2.479l6.754-8.021l26.678-11.662
	l9.248,0.972l3.58-3.304l0.584-6.123l17.201-13.267l4.521,1.021l4.051-5.669C1046.021,375.508,1049.962,371.487,1047.976,372.39z"/>
<path id="Chongqing" fill="#61BC76" stroke="#FFFFFF" stroke-width="0.5" stroke-miterlimit="10" d="M658.599,677.652
	c0,0,2.041,3.646,3.5,2.188c1.457-1.457-0.438-7.871,2.041-5.104c2.479,2.771,0.875,7.289,4.082,6.414s2.188-6.563,2.188-6.998
	c0-0.437,6.969-2.188,6.969-2.188s2.51,2.771,3.82-1.75c1.313-4.521,0-5.979,3.938-4.813c3.938,1.166,4.521,2.479,4.229,3.646
	c-0.291,1.166,5.541-0.291,7.289-1.021c1.75-0.729,4.372,4.373,3.354,7.289c-1.021,2.916,4.957,2.188,5.396,1.896
	c0.438-0.292-1.459,4.155,0.729,4.047c2.188-0.109,2.771,3.242,2.771,3.242s-2.623,3.788,4.957,2.622
	c1.901-0.293,3.387-0.424,4.545-0.456c-0.166-6.224-0.441-14.604-1.92-20.683c-2.625-10.789-14.578-15.264-14.578-15.264
	c3.789-2.726,0-15.938,0-15.938l23.032-3.496c5.246-7.129,9.328-4.375,9.328-4.375l1.748-12.536c-6.994,0-9.33-7.324-9.33-7.324
	l-7.578-2.297c-6.289-6.082-12.1-8.582-16.987-9.287c0.229,0.957-0.353,2.414-2.398,4.623c0,0,12.687,5.539-5.396,16.326
	c0,0-1.604,4.666-1.166,6.706c0.438,2.041-2.188,5.395-4.521,3.063c-2.334-2.331-6.998,2.041-7.146,3.206
	c-0.146,1.166,3.207,9.022,0.875,9.022s-7.289-6.676-11.369-3.338c0,0-3.984,0.584-5.346-1.164
	c-1.359-1.75-5.248,11.468-6.808,2.521c-1.557-8.938-7.969-7.771-7.969-7.771c-3.207,2.041-6.861,6.705-6.861,6.705
	s3.363,2.916,1.904,4.957c-1.457,2.041,1.637,2.33,1.637,2.33c2.705,5.441,0.211,4.666-6.205,11.472
	c-6.414,6.803,6.205,9.521,6.205,9.521c1.688,3.309,2.744,5.902,3.355,7.947C653.689,670.852,657.382,671.217,658.599,677.652z"/>
<path id="Guizhou" fill="#61BC76" stroke="#FFFFFF" stroke-width="0.5" stroke-miterlimit="10" d="M647.552,678.818
	c-4.875,11.271,10.316,7.189,12.267,12.633c1.942,5.441-12.056,10.496-13.412,7.39c-0.685-1.562-3.521-1.8-6.18-1.65
	c-0.027,0.416-0.07,0.85-0.144,1.313c0,0-5.539,13.119-19.532,5.687c0,0-2.333,6.27-9.187,0.291c0,0-2.624,6.998-3.646,6.998
	c-1.021,0,3.891,5.057,0,7c0,0,1.359,10.69,6.998,6.805c5.636-3.889,8.163-3.498,8.163-3.498s5.83,1.939,1.75,9.813
	c-4.082,7.873-2.433,12.244-4.859,11.662c-2.429-0.584,8.648,9.621,9.523,9.621s-6.122,10.202-6.122,10.202
	s-0.057,1.009,0.006,2.388c2.448-0.313,4.46-0.353,4.95,0.237c1.457,1.748,9.622-3.789,9.622-6.705s8.162,2.33,11.953,4.371
	c3.789,2.041,10.01,0.875,7.627-3.496c-2.379-4.375,14.531-3.791,15.404-5.541c0.875-1.747,3.791-14.577,7.288-7.579
	c3.5,6.997,11.955,9.459,11.955,9.459l2.916-2.753c0,0,3.787-9.622,6.412-5.247c2.623,4.372,6.414-1.229,6.414-3.531
	c0-2.301,6.414,1.197,6.414,1.197s2.041-3.498,4.664-3.498c2.625,0,4.082-6.414,4.082-6.414s0.482-0.031,1.232-0.104l-1.523-5.438
	c-5.539,1.457-2.916-9.039-2.916-9.039c6.998-0.291,2.625-10.787,2.916-9.621s-25.656,5.248-11.854-2.041
	c13.801-7.289,9.522-14.286,8.356-14.577c-0.512-0.128-0.572-3.647-0.705-8.479c-1.154,0.033-2.643,0.166-4.543,0.459
	c-7.582,1.166-4.957-2.625-4.957-2.625s-0.584-3.354-2.771-3.241c-2.188,0.108-0.291-4.339-0.729-4.048
	c-0.438,0.294-6.416,1.021-5.396-1.896c1.021-2.914-1.604-8.021-3.354-7.287c-1.748,0.729-7.58,2.188-7.289,1.021
	c0.293-1.168-0.291-2.479-4.229-3.646c-3.938-1.168-2.625,0.291-3.938,4.813c-1.313,4.52-3.817,1.748-3.817,1.748
	s-6.972,1.75-6.972,2.188c0,0.438,1.021,6.122-2.188,6.997c-3.207,0.873-1.604-3.646-4.082-6.416s-0.582,3.646-2.041,5.104
	c-1.457,1.456-3.498-2.188-3.498-2.188c-1.219-6.437-4.908-6.8-7.688-6.048C653.607,680.62,647.552,678.818,647.552,678.818z"/>
<path id="Anhui" fill="#82CEA1" stroke="#FFFFFF" stroke-width="0.5" stroke-miterlimit="10" d="M923.189,618.95
	c0,0-4.081-0.772-4.666-2.332c-0.581-1.555-15.159,2.724-8.356-5.44c0,0,0.584-2.525-2.721-3.691
	c-3.308-1.166-11.08-11.26-4.275-12.233c6.803-0.979,3.109-5.451,1.748-7.593c-1.359-2.137,5.055-3.495,6.414-1.166
	c1.361,2.334,9.543,2.111,7.58-1.219c-8.211-13.951-11.855-3.633-11.855-3.633c-12.243,2.729-10.104-9.727-10.104-9.727
	c-7.97,1.166-2.623-4.957-0.682-11.662c1.942-6.707-9.039,0.192-8.648-0.875c0.391-1.07-1.066-5.64-3.789-7.189
	c-2.721-1.557-8.164-1.652-10.689-5.832c-1.696-2.809-8.17-7.365-12.237-10.059c-0.628,1.637-1.988,3.153-4.813,3.883
	c0.025,0.26,0.045,0.531,0.045,0.83c0,4.272,7.58,5.248,8.164,4.856c0.582-0.389-3.5,4.664,1.166,6.025
	c4.664,1.359-0.777,3.689-2.525,3.305c-1.75-0.389-7.192,8.746-11.661-2.524c0,0-6.416-2.724-6.609,1.75
	c-0.19,4.473,0.976,8.746-2.521,8.555c-3.5-0.195-4.669,8.16-4.475,9.135c0.193,0.976-3.106,5.056-5.83,0
	c0,0-5.057,6.605,4.857,8.162c0,0-1.75,6.224,3.887,5.441c0,0,2.234,7.58,7.531,2.916c0,0,5.299-9.912,1.994,14.578
	c0,0-1.168,1.36-4.859,2.727c-3.689,1.357-9.328,12.438,4.275,13.992c0,0,6.414,3.498,2.723,5.248
	c-3.689,1.75-6.024,5.832-1.942,8.938c0,0-0.775,5.617,4.473,9.228l-0.188,7.104c2.4,1.349,5.298,2.246,7.089,0.283
	c3.498-3.836,9.036-6.168,8.311-3.254c-0.729,2.916-9.33,13.559,3.646,6.561c0,0,3.063-11.075,8.311-0.875
	c0,0-3.646,2.203,10.643,3.218c0,0,2.203,1.979,3.938,4.483l1.459-3.619c0,0,14.432-3.235,12.1-18.817c0,0,9.912,3.369,9.33-1.588
	c-0.584-4.957-3.5-3.207-3.5-3.207s0.683-4.181,5.152-3.207C925.521,631.393,923.189,618.95,923.189,618.95z"/>
<path id="Jiangxi" fill="#82CEA1" stroke="#FFFFFF" stroke-width="0.5" stroke-miterlimit="10" d="M892.575,656.375
	c-14.287-1.015-10.646-3.218-10.646-3.218c-5.247-10.2-8.311,0.875-8.311,0.875c-12.977,6.998-4.373-3.646-3.646-6.563
	c0.729-2.914-4.813-0.582-8.312,3.255c-1.791,1.964-4.688,1.063-7.088-0.282l-0.009,0.282c-5.93,1.845-7.579-1.438-7.579-1.438
	s-5.056-1.747-4.855,0c0.191,1.75,2.914,5.83-4.274,5.248c-7.189-0.584-2.724,3.108-2.724,3.108l-11.854,4.081
	c0,0-2.724-5.053-4.275-0.775c-0.805,2.209-3.887,3.896-6.682,5.015c0.045,0.02,0.07,0.024,0.07,0.024s3.69,7.388,2.524,10.303
	c-1.166,2.916,5.248,12.054-4.274,15.354c0,0-10.888,11.077-4.275,14.577c6.607,3.498,4.666,8.746,3.691,11.078
	c-0.974,2.332-1.357,6.582,4.858,6.791c6.221,0.207,0,7.203-2.524,7.979c0,0,7.771-1.94,0.389,4.857
	c-6.777,6.246,2.154,7.742-0.994,13.813c0.832,0.146,1.473,0.428,1.771,0.957c1.559,2.724,13.411-0.19,13.219,3.308
	c-0.191,3.497-6.222,4.274-8.162,9.719c-1.943,5.443,1.356,3.307,15.16-0.191c13.801-3.5,10.688,2.914,13.217,4.664
	c2.522,1.75-0.191-7.772,1.75-9.33c0.258-0.207,0.688-0.259,1.236-0.196c-0.562-2.64-0.986-5.521-0.269-5.826
	c1.36-0.584,2.916-3.308,2.916-3.308c-0.584-6.22,0.974-7.188,0.974-7.188c2.331,0,3.497-4.472,3.497-4.472
	c5.832-3.108,5.058-6.413,2.724-6.413c-2.332,0,6.223-5.832,4.856-6.025c-1.356-0.193-2.522-6.414-1.942-7.969
	c0.584-1.558,2.725-3.892,8.358-5.058s3.304-9.136,3.304-9.136s-3.498-5.638,0-5.44c3.5,0.192,4.475-3.889,4.475-3.889
	c4.857-6.223,8.746,0.581,8.746,0.581c1.941-4.081,11.469-6.413,11.469-6.413c-1.75-1.94,0.973-3.688,0.973-3.688
	c0.521-0.229,1.008-0.429,1.464-0.595c-0.892-5.761-2.962-13.271-7.779-17.099l2.771-6.878
	C894.778,658.352,892.575,656.375,892.575,656.375z"/>
<path id="Zhejiang" fill="#82CEA1" stroke="#FFFFFF" stroke-width="0.5" stroke-miterlimit="10" d="M921.052,630.42
	c-4.475-0.974-5.149,3.207-5.149,3.207s2.916-1.75,3.5,3.206c0.58,4.955-9.33,1.589-9.33,1.589
	c2.332,15.582-12.103,18.817-12.103,18.817l-4.229,10.496c4.818,3.822,6.893,11.338,7.78,17.098
	c6.896-2.516,6.896,1.761,6.896,1.761c-1.361,2.721-0.973,6.021-0.973,6.021c2.524,2.525,2.522,8.357,2.522,8.357
	c2.141,4.274,6.807,3.69,11.271-0.39c4.473-4.082,4.473,2.33,4.473,2.33c1.75,8.558,9.328,1.558,9.328,1.558
	c4.16-0.832,6.252,1.617,7.287,4.688c1.979-2.045,3.459-3.496,3.309-4.539c-0.875-5.979,9.297-17.987,9.297-17.987
	c0.906,7.348,8.685-1.595,9.851-2.795c1.168-1.203-0.631-8.08-0.631-8.08c4.663-0.582-3.5-18.517-2.041-18.076
	c1.456,0.438,11.661-8.164,11.661-8.164c-13.561-4.082-18.659-15.891-18.659-15.891c0.254-1.867,1.166-3.238,2.438-4.244
	c-3.112-2.701-6.459-5.652-7.932-7.125c-3.107-3.105-6.322,6.221-6.322,6.221l-3.201-3.109c0,0-7.188,2.726-10.885-3.889
	c-1.438-2.574-3.707-2.756-5.938-2.021C923.657,621.779,924.979,631.273,921.052,630.42z"/>
<path id="Shandong" fill="#C6E75E" stroke="#FFFFFF" stroke-width="0.5" stroke-miterlimit="10" d="M861.186,530.318
	c0.389-0.483,5.639-0.1,8.161-0.584c2.525-0.483,5.349,13.51,6.998,10.98c1.65-2.525,8.648-0.101,9.814-2.232
	c1.166-2.136,5.83-4.861,7.58-1.945s4.957,5.248,6.414,0c1.459-5.245,6.707-2.33,6.707-2.33s1.747-7.579,3.497-7.579
	c1.152,0,6.638-1.777,10.229-2.986l6.096-8.871l9.438-5.639l-1.377-9.092l1.916-1.604l3.729,3.501l4.275-0.68l2.813-8.552
	l2.527,0.681l1.359-4.082l12.146-4.273c0,0,5.488-3.558,7.189-4.273c2.524-1.069,5.58,1.896,5.58,1.896l5.598-2.283l-0.291-3.889
	l2.916-7.385l-9.139-0.972l-1.357-2.818l-11.065,2.06l-3.703-3.318h-3.109l-1.361-3.11l-4.762-3.4l-13.779,5.822l-1.297,4.615
	l-1.889-0.613c0,0-2.961-0.979-5.682,8.062l-7.68,1.217l-8.453-4.957c0,0-1.748-8.455,3.5-11.079l-6.025-9.912
	c-9.49,2.64-15.578-1.313-18.813-4.652c-2.641,2.373-5.211,5.188-6.647,8.104c-3.791,7.679-13.412-0.1-16.326,4.565
	c-2.916,4.665-14.871,10.788-14.871,10.788s2.041,9.913-7.287,13.703c-9.33,3.791-3.498,11.371-2.916,14.87
	c0.195,1.174-0.271,1.848-1.006,2.188c0.48,1.633,0.297,3.689-1.424,6.168c-4.857,6.998,10.303-2.526,11.469-4.082
	c1.166-1.558,2.723,2.14-3.598,5.832c-6.316,3.69-7.871,7.772-7.871,7.772s-9.137,0.191-10.496,11.078c0,0,1.168,3.307,7.389,0
	c0,0,0.392,1.75,0.584,4.666c0.191,2.916,2.422-1.359,3.543,0c1.119,1.357-2.569,8.163,12.783,5.247c0,0,2.521-0.163,2.869,3.253
	C863.556,538.256,860.823,530.77,861.186,530.318z"/>
<path id="Henan" fill="#C6E75E" stroke="#FFFFFF" stroke-width="0.5" stroke-miterlimit="10" d="M865.462,551.895
	c-4.664-1.359-0.582-6.412-1.166-6.023c-0.582,0.392-8.164-0.584-8.164-4.856c0-4.273-2.914-4.082-2.914-4.082
	c-15.354,2.916-11.662-3.889-12.783-5.248c-1.12-1.357-3.352,2.916-3.543,0c-0.192-2.916-0.584-4.662-0.584-4.662
	c-6.221,3.308-7.389,0-7.389,0c1.359-10.887,10.496-11.08,10.496-11.08s1.557-4.082,7.871-7.772c6.313-3.693,4.764-7.388,3.598-5.83
	c-1.166,1.555-16.326,11.078-11.469,4.082c1.721-2.479,1.901-4.537,1.426-6.169c-1.449,0.679-3.953,0.041-4.535-0.733
	c-0.873-1.166-3.789-2.623-6.414,0.875c-2.622,3.499-16.032-5.539-16.032-5.539s-2.771,1.009-6.146-0.698
	c-0.719,5.263-2.117,12.688-4.445,14.402c-3.69,2.723-6.414,6.025-7.387,9.139c-0.973,3.11-6.998,5.056-15.938,4.082
	c-8.94-0.975-5.247,3.498-6.52,4.273c-1.27,0.772-3.979-1.357-7.479,3.307c-3.5,4.663-5.056,0.584-8.941,2.724
	c-2.594,1.428-11.588,3.805-17.291,5.229c1.896,3.252,0.684,9.631,4.271,10.313c4.08,0.775,0.775,5.637,0.775,5.637
	s4.664,6.223,6.996,8.554c1.582,1.581,1.109,4.95,0.764,8.771c2.431,0.557,6.207,2.112,5.506,6.393c0,0,12.588,20.021,35.328,12.828
	l7.974,3.307c0,0,4.272-5.248,5.83-3.498c1.555,1.748-2.142,17.884,8.938,13.996c0,0,8.746,1.166,8.357,3.109
	c0,0-1.168,5.223,9.379,2.463c0,0,2.188-1.588,3.498,4.146c0.75,3.28,1.932,2.014,3.565-0.111c0.01-3.246,2.438-6.563,4.354-7.271
	c3.69-1.358,4.86-2.727,4.86-2.727c3.304-24.488-1.993-14.578-1.993-14.578c-5.298,4.664-7.531-2.916-7.531-2.916
	c-5.637,0.777-3.887-5.44-3.887-5.44c-9.914-1.558-4.859-8.162-4.859-8.162c2.723,5.055,6.025,0.975,5.83,0
	c-0.193-0.974,0.975-9.328,4.473-9.136c3.498,0.191,2.332-4.082,2.525-8.555c0.192-4.471,6.608-1.75,6.608-1.75
	c4.47,11.273,9.91,2.141,11.66,2.527C864.683,555.586,870.128,553.256,865.462,551.895z"/>
<path id="Shanxi" fill="#C6E75E" stroke="#FFFFFF" stroke-width="0.5" stroke-miterlimit="10" d="M765.942,529.348
	c3.497-4.664,6.209-2.527,7.479-3.305c1.271-0.777-2.426-5.248,6.521-4.275c8.94,0.973,14.967-0.973,15.938-4.082
	s3.691-6.414,7.387-9.137c2.328-1.715,3.729-9.146,4.447-14.402c-1.396-0.707-2.896-1.867-4.354-3.777
	c-4.955-6.52,6.416-7.479,5.697-8.937c-0.716-1.458,0-5.831,0-5.831c8.03-10.203,5.383-15.159,3.342-16.909
	s-3.342-8.455-3.342-8.455c-8.296-5.831-5.404-10.788-5.404-10.788s5.539-0.875,5.404-4.374c-0.134-3.499-3.656-4.957,6.547-8.164
	c10.205-3.204,6.123-19.531,4.094-19.632c-2.029-0.099-16.338-1.357-7.3-7.48s6.704-0.292,7.288-7.872
	c0.192-2.531-2.4-4.521-5.939-6.046c-1.32,4.006-5.039,3.906-5.039,3.906c-0.584,4.276-8.939,3.889-8.939,3.889
	s-4.666-6.414-7.58-0.975c-2.914,5.442-5.639,3.891-5.639,3.891c-11.271-5.64-14.385,10.496-14.385,12.829s-4.082,3.69-4.082,3.69
	c-4.854-3.499-6.221-0.973-6.221-0.973c-0.707,4.125-3.195,5.102-5.053,5.232c-0.072,1.092-0.043,2.028,0.188,2.542
	c0.875,1.896-3.205,9.184-4.228,9.327c-1.021,0.146-1.604,11.228-6.854,16.036c-5.246,4.813-1.896,11.954,2.041,13.852
	c3.937,1.896,0.729,8.747-2.041,8.894c0,0-0.146,7.289-4.08,8.021c-3.938,0.729,2.041,14.433,1.746,15.599
	c-0.291,1.167-4.272,6.606,1.56,18.66c0,0,0.975,2.332-1.556,6.606c-2.53,4.275-8.164,16.718-4.856,19.242
	c0.397,0.31,0.719,0.698,0.979,1.146c5.701-1.426,14.695-3.803,17.291-5.229C760.89,529.932,762.442,534.012,765.942,529.348z"/>
<path id="Shaanxi" fill="#C6E75E" stroke="#FFFFFF" stroke-width="0.5" stroke-miterlimit="10" d="M751.755,561.801
	c-2.332-2.332-6.998-8.553-6.998-8.553s3.308-4.857-0.774-5.64c-4.082-0.774-1.943-8.938-5.248-11.463
	c-3.308-2.525,2.332-14.967,4.856-19.242c2.525-4.274,1.558-6.606,1.558-6.606c-5.832-12.053-1.851-17.493-1.56-18.66
	c0.293-1.166-5.686-14.869-1.748-15.598c3.938-0.729,4.08-8.021,4.08-8.021c2.771-0.146,5.979-6.995,2.041-8.892
	c-3.938-1.896-7.287-9.039-2.041-13.852c5.248-4.812,5.83-15.892,6.854-16.036c1.021-0.146,5.104-7.437,4.229-9.33
	c-0.232-0.511-0.268-1.447-0.189-2.541c-1.2,0.088-2.143-0.18-2.143-0.18c2.143-5.831-4.273-1.76-4.273-1.76
	s-5.313,10.475-5.247,6.195c0.098-6.157-5.64-2.493-5.64-2.493c-0.391-2.332-3.307-2.332-3.307-2.332
	c0.924,5.979-4.713,5.056-4.713,5.056c1.352,3.104-4.229,7.383-4.229,7.383s-15.938,11.855-13.021,22.744
	c0.859,3.208-3.109,3.305-4.471,1.166c-1.359-2.14-0.584-0.583-0.978,5.636c-0.021,0.392-0.104,0.741-0.229,1.061
	c-1.881,4.761-14.354,1.855-14.354,1.855c-2.369-3.26-5.979-2.909-8.596-4.104c-1.699,1.111-3.254,2.122-3.648,2.355
	c-0.975,0.582-8.746,20.8,0,21.188l2.414,2.525c0,0,6-0.692,8.465,3.979c0.146,0.272,0.275,0.564,0.396,0.876
	c2.141,5.639,6.998-0.774,8.164,2.916c1.166,3.693,4.666-1.165,5.057,4.859c0.389,6.023-2.916,11.662-2.916,11.662l2.945,12.828
	c-1.135,1.556-5.277-1.358-5.277-1.358c-0.391,0.975-12.637,1.358-12.637,1.358c-4.275,1.939,2.141,5.246,1.75,6.605
	c-0.391,1.36-13.801,3.11-13.801,3.11c-1.75-7.581-13.121-3.6-13.121-3.6l0.682,5.732c0,0-8.525,5.93,0.5,8.261
	c9.023,2.334-1.473,8.747-1.473,8.747s-0.291,4.373,0.875,12.537c0,0-7.438,1.748-10.496-1.313c0,0-8.746,6.414-1.021,10.351
	c7.729,3.938-8.466,7.58-8.466,7.58s-0.137,9.039,8.609,0c0,0,10.559,9.491,15.629,4.02c5.07-5.474,9.608,6.479,9.608,6.479
	l4.109-1.75c0,0,6.514,7.288,12.928,6.413c0,0,6.588-1.081,7.211,1.5c4.892,0.705,10.697,3.205,16.986,9.287l5.293,1.604
	c0.902-4.783,1.894-10.916,1.314-12.295c-0.971-2.332-3.908-0.193-1.178-4.857c2.729-4.664,1.762-4.662,5.844-3.307
	c4.08,1.358,9.137-0.389,4.473-5.248c-4.666-4.855-5.438,0.395-5.832-5.828c0,0-18.271-7.188,5.832-3.5c0,0,8.746,0.611,9.719-1.057
	c0,0-0.973,7.307,6.023,0c0,0,0.824,0.047,1.928,0.299C752.862,566.752,753.335,563.383,751.755,561.801z"/>
<path id="Hubei" fill="#C6E75E" stroke="#FFFFFF" stroke-width="0.5" stroke-miterlimit="10" d="M736.009,614.383l-1.75,12.537
	c0,0-4.082-2.755-9.33,4.375l-23.032,3.498c0,0,3.791,13.211,0,15.936c0,0,11.954,4.475,14.577,15.264
	c0.369,1.519,0.66,3.181,0.896,4.912c1.229-1.084,2.313-2.285,2.313-3.164c0-2.041,0.291-11.662,6.123-13.412
	c5.83-1.746,4.08-4.953,4.08-4.953s11.662,6.412,14.287,2.916c2.623-3.5-7.063-18.077,29.707-0.293c0,0,5.863,8.738,17.137-1.27
	c0,0-1.75,16.615,11.854,0c0,0,4.666,7.486,4.473,10.402c-0.182,2.719,4.369,4.592,4.98,4.831c2.795-1.116,5.879-2.805,6.682-5.014
	c1.557-4.272,4.275,0.775,4.275,0.775l11.854-4.082c0,0-4.471-3.689,2.724-3.105c7.19,0.582,4.473-3.5,4.274-5.248
	c-0.192-1.75,4.857,0,4.857,0s1.649,3.281,7.58,1.438l0.192-7.387c-5.25-3.607-4.473-9.226-4.473-9.226
	c-4.082-3.108-1.748-7.19,1.943-8.94c3.688-1.75-2.726-5.248-2.726-5.248c-6.553-0.75-8.635-3.709-8.627-6.728
	c-1.639,2.125-2.815,3.396-3.567,0.109c-1.313-5.729-3.498-4.146-3.498-4.146c-10.545,2.759-9.377-2.463-9.377-2.463
	c0.389-1.944-8.357-3.11-8.357-3.11c-11.078,3.887-7.387-12.248-8.939-13.996c-1.553-1.75-5.832,3.498-5.832,3.498l-7.971-3.306
	c-22.74,7.189-35.326-12.828-35.326-12.828c1.021-6.219-7.436-6.69-7.436-6.69c-6.996,7.309-6.025,0-6.025,0
	c-0.971,1.669-9.719,1.059-9.719,1.059c-24.102-3.69-5.83,3.5-5.83,3.5c0.391,6.222,1.166,0.972,5.83,5.83
	c4.666,4.855-0.391,6.604-4.473,5.248c-4.08-1.358-3.107-1.36-5.845,3.306c-2.729,4.663,0.207,2.524,1.181,4.856
	c0.572,1.381-0.414,7.512-1.314,12.297l2.287,0.689C726.679,607.059,729.011,614.383,736.009,614.383z"/>
<path id="Hunan" fill="#82CEA1" stroke="#FFFFFF" stroke-width="0.5" stroke-miterlimit="10" d="M812.784,736.938
	c7.387-6.803-0.388-4.855-0.388-4.855c2.525-0.778,8.744-7.774,2.525-7.981c-6.223-0.209-5.832-4.459-4.861-6.791
	c0.976-2.332,2.916-7.58-3.69-11.076c-6.607-3.5,4.274-14.578,4.274-14.578c9.525-3.307,3.109-12.438,4.277-15.354
	c1.166-2.914-2.527-10.301-2.527-10.301s-5.246-1.943-5.055-4.859c0.193-2.916-4.473-10.4-4.473-10.4
	c-13.605,16.613-11.854,0-11.854,0c-11.271,10-17.136,1.263-17.136,1.263c-36.77-17.785-27.084-3.207-29.705,0.293
	c-2.625,3.498-14.287-2.916-14.287-2.916s1.75,3.207-4.082,4.955c-5.832,1.75-6.123,11.37-6.123,13.411
	c0,0.877-1.08,2.078-2.313,3.162c1.441,10.605,0.729,23.992,1.729,24.242c1.166,0.293,5.439,7.289-8.356,14.576
	c-13.797,7.289,12.146,3.207,11.854,2.041c-0.291-1.164,4.082,9.33-2.916,9.621c0,0-2.623,10.496,2.916,9.039l1.523,5.438
	c2.715-0.266,9.121-1.11,10.723-3.396c2.041-2.916,3.207,4.082,3.207,4.082l6.996-6.998c0,0,10.789-2.041,11.66,0
	c0.875,2.041-1.166,11.955,3.5,9.914c4.664-2.041,0,3.498,0,3.498s2.332,4.664-6.705,11.661c0,0-2.041,9.914,3.5,1.457
	c5.537-8.455,3.787,2.334,3.787,6.998s5.248,1.748,5.832,0c0.584-1.75,9.33,3.789,9.039-5.248c-0.293-9.036,9.912-2.623,9.912-2.623
	c1.94,8.552,8.356,5.636,7.772,3.691c-0.584-1.941-2.916-6.223,0-7.773c2.916-1.557,5.058-5.442,6.803-1.944
	c1.408,2.813,8.22,0.979,11.644,1.569C814.939,744.68,806.005,743.184,812.784,736.938z"/>
<path id="Ningxia" fill="#C6E75E" stroke="#FFFFFF" stroke-width="0.5" stroke-miterlimit="10" d="M637.852,481.531
	c5.057,0.192,0,5.057,0,5.057s-0.193,2.522,3.497,6.803c3.691,4.276-0.973,9.72-0.973,9.72s0.389,8.357,6.805,6.998
	c0,0,19.438,23.76,15.938,0.387c0,0,8.162,1.359,7.387-4.08c0,0,4.859-6.411-6.604-10.105c0,0-1.697-5.639-3.279-6.024
	c-1.58-0.391,3.975-5.832,3.975-5.832s-0.69-3.69,1.06-6.414c1.184-1.843,7.766-2.634,12.221-3.118
	c0.061-6.117,3.482-14.58,4.104-14.953c0.396-0.236,1.949-1.246,3.648-2.356c-0.814-0.374-1.539-0.894-2.094-1.727
	c-2.332-3.499-8.748-6.997-11.41-6.022c-2.662,0.973-9.191-3.891-9.191-3.891c3.89-2.725,4.664-10.113,4.664-10.113
	s6.222-7.38,4.082-9.321c-2.141-1.94-5.055-8.747-5.055-8.747c-17.883,2.915-18.854,30.711-17.494,32.46
	c1.361,1.75-2.723,11.078-3.688,10.495c-0.976-0.583-7.972,0.975-7.972,0.975c-1.635,2.177-8.021,3.896-13.328,4.988
	C628.395,472.979,634.686,481.41,637.852,481.531z"/>
<path id="Fujian" fill="#82CEA1" stroke="#FFFFFF" stroke-width="0.5" stroke-miterlimit="10" d="M935.046,704.475
	c0,0-7.58,7-9.328-1.555c0,0,0-6.414-4.473-2.332c-4.469,4.082-9.135,4.666-11.271,0.389c0,0,0.003-5.832-2.522-8.357
	c0,0-0.394-3.303,0.973-6.021c0,0,0-4.857-8.355-1.166c0,0-2.723,1.748-0.975,3.69c0,0-9.521,2.33-11.469,6.412
	c0,0-3.887-6.805-8.744-0.58c0,0-0.975,4.08-4.475,3.888c-3.498-0.191,0,5.44,0,5.44s2.332,7.972-3.305,9.138
	c-5.64,1.166-7.773,3.5-8.357,5.055c-0.582,1.557,0.584,7.772,1.941,7.971c1.36,0.191-7.189,6.023-4.857,6.023
	c2.334,0,3.109,3.307-2.722,6.414c0,0-1.166,4.471-3.497,4.471c0,0-1.558,0.975-0.976,7.191c0,0-1.555,2.721-2.914,3.305
	c-0.725,0.311-0.295,3.188,0.269,5.826c3.563,0.389,12.174,5.645,12.174,5.645s7.971,7.58,8.162,11.66
	c0.109,2.318,2.104,7.705,3.801,11.934l3.178-1.481l3.617,1.896l2.816-5.932l10.396-8.646l-4.053-5.498l14.31-1.209
	c1.166,0.291,6.561-8.021,5.979-10.063c-0.584-2.041,2.041-3.224,2.041-3.224c0.438,3.045,6.563-1.006,4.521-3.189
	c-2.043-2.187,2.571-3.535,2.571-3.535c3.498,1.941,5.058-2.526,6.024-17.104c0.972-14.578,8.604-9.099,8.604-9.099
	c1.697-5.774,5.445-9.808,8.211-12.661C941.298,706.092,939.206,703.643,935.046,704.475z"/>
<path id="Qinghai" fill="#8ED168" stroke="#FFFFFF" stroke-width="0.5" stroke-miterlimit="10" d="M594.602,498.343
	c-1.457,0.292-10.979-17.786-11.375-18.563c-0.395-0.776,3.312-4.473,3.312-4.473s-8.552-3.108-11.272-9.72
	c-2.724-6.606-5.248-3.107-5.248-3.107c-3.306-4.273-7.578-4.473-7.578-4.473c-1.944,2.333-10.496-6.023-11.662-8.463
	c-1.167-2.438-6.223-1.645-6.223-1.645c-7.972-11.079-10.302-5.248-10.302-5.248c4.081,6.414-1.36,3.89-1.36,3.89
	c-21.382-22.742-24.104-20.409-24.104-20.409c-1.555,4.273-4.858,2.915-4.858,2.915c-5.055-2.916-5.055,2.722-5.055,2.722
	c-1.166,3.499-20.021-8.553-20.021-8.553c-7.971-1.941-4.081,15.938-4.081,15.938c-5.248-2.916-7.192,5.441-7.581,7.773
	c-0.391,2.333-6.025,0.776-6.025,0.776c-2.334,5.638-13.604-3.499-13.604-3.499c-5.441,5.248-10.648-0.583-10.648-0.583
	l-10.537,1.557l-4.858-10.689c-9.331,2.141-11.08,0-11.08,0c8.938-5.44-10.69-3.889-10.69-3.889l-2.722-4.709
	c-2.044,0.354-8.354-0.426-14.382-1.332v2.934c0,0-31.878,9.701-34.21,8.352c0,0-4.664,6.034-6.607,4.868
	c-1.944-1.167-2.334,8.165,1.943,6.221c0,0-0.39,12.054,1.166,13.995c1.556,1.942,12.44,6.222,12.44,6.222s0.001,5.832,3.11,7.773
	c0,0,2.721,4.665-8.942,5.831c0,0-3.888,6.997,2.721,9.33c0,0,3.741,10.443,2.721,10.734c-1.021,0.291-6.27,5.688-21.867-4.082
	c0,0-0.438,8.164-8.893,3.354c-0.074-0.042-0.151-0.086-0.227-0.128c-0.526,2.571,0.231,5.563,3.969,8.583
	c0,0-1.051,10.075-4.122,11.159c0,0-1.127,13.138,5.676,10.804c0,0,1.444,18.659-2.874,18.271c0,0-2.763,2.726,5.401,9.721
	c0,0-0.39,9.814,28.183,15.938c0,0,33.821,11.661,41.11,13.702c0,0,13.994,3.5,21.573-2.914c0,0,12.829,3.207,13.995,7.871
	c0,0,7.289,21.576,19.535,11.08c0,0,1.458-2.625,6.123,1.457c0,0,6.706,3.207,5.248-5.248c0,0,4.957-4.664,9.622-2.916
	c0,0,0.292-6.705,1.458-9.912c1.167-3.207,6.415-0.875,6.415-0.875l-5.54-9.984l5.54-11.006c0,0-7.289-5.832-5.831-9.912
	c1.458-4.082,5.831-2.041,5.831-2.041s-1.458-7.729,6.414-4.813c7.357,2.727,8.539,1.063,8.659,0.832
	c-0.129,0.263-1.771,3.815,3.101,7.188c5.054,3.5,4.857,14.188,4.857,14.188s17.104,8.748,18.271,10.303
	c0,0,3.499-8.555,6.803-2.525c3.309,6.023,1.944,8.554,4.86,2.914c2.916-5.636,3.888,2.724,4.665,3.5
	c0.773,0.775,3.106-0.975,3.106-0.975s11.855,2.723,10.889-4.474c-0.975-7.19-3.693-12.635,6.997-8.356c0,0,1.813-0.756,3.473-2.029
	c0.014-0.014,0.025-0.021,0.041-0.03c0.116-0.093,0.229-0.188,0.346-0.279c0.034-0.025,0.067-0.058,0.104-0.086
	c0.094-0.08,0.188-0.162,0.277-0.246c0.036-0.034,0.074-0.068,0.109-0.104c0.09-0.086,0.177-0.172,0.261-0.258
	c0.033-0.033,0.067-0.065,0.104-0.104c0.094-0.104,0.187-0.205,0.271-0.312c0.021-0.021,0.038-0.043,0.061-0.063
	c0.104-0.129,0.208-0.263,0.303-0.396c0.017-0.021,0.026-0.043,0.041-0.063c0.076-0.111,0.149-0.228,0.216-0.341
	c0.025-0.043,0.049-0.088,0.072-0.133c0.052-0.098,0.104-0.188,0.146-0.287c0.021-0.053,0.046-0.104,0.064-0.151
	c0.039-0.099,0.074-0.191,0.106-0.291c0.017-0.051,0.031-0.104,0.048-0.15c0.028-0.106,0.053-0.221,0.071-0.328
	c0.01-0.043,0.02-0.084,0.022-0.127c0.021-0.149,0.034-0.311,0.034-0.465c0-0.021-0.003-0.039-0.003-0.061
	c-0.003-0.14-0.015-0.275-0.033-0.416c-0.008-0.056-0.021-0.104-0.031-0.16c-0.021-0.107-0.046-0.219-0.078-0.328
	c-0.018-0.063-0.038-0.123-0.062-0.187c-0.038-0.106-0.082-0.213-0.131-0.319c-0.027-0.063-0.06-0.125-0.091-0.188
	c-0.061-0.114-0.128-0.229-0.198-0.352c-0.034-0.057-0.064-0.107-0.104-0.166c-0.115-0.172-0.244-0.346-0.394-0.521
	c-0.262-0.308-0.543-0.575-0.846-0.819c-0.1-0.08-0.209-0.144-0.313-0.215c-0.209-0.15-0.419-0.304-0.646-0.429
	c-0.13-0.071-0.269-0.131-0.399-0.192c-0.211-0.104-0.422-0.205-0.646-0.291c-0.146-0.058-0.3-0.101-0.45-0.146
	c-0.221-0.065-0.438-0.141-0.662-0.19c-0.158-0.039-0.318-0.065-0.479-0.103c-0.228-0.044-0.452-0.087-0.684-0.117
	c-0.163-0.021-0.325-0.037-0.488-0.057c-0.232-0.021-0.465-0.045-0.698-0.057c-0.162-0.009-0.32-0.015-0.48-0.021
	c-0.237-0.006-0.476-0.009-0.708-0.004c-0.155,0.004-0.312,0.006-0.464,0.015c-0.239,0.011-0.479,0.021-0.716,0.037
	c-0.143,0.013-0.28,0.021-0.42,0.027c-0.249,0.021-0.487,0.048-0.729,0.074c-0.117,0.014-0.234,0.024-0.354,0.038
	c-0.262,0.033-0.511,0.065-0.755,0.104c-0.082,0.015-0.163,0.021-0.242,0.034c-1.608,0.244-2.819,0.521-3.151,0.457l0,0
	c-0.072-0.015-0.111-0.043-0.099-0.097c0.236-0.776-1.123-5.053-1.123-5.053c-11.47-10.303-0.391-11.662-0.391-11.662
	c0.164,0.103,0.327,0.203,0.488,0.302c19.946,12.133,21.671-0.302,21.671-0.302l-5.055-6.414l-0.193-6.024
	c0,0,7.773-5.248,8.746-6.219c0.974-0.974-1.359-6.416-1.359-6.416c1.75,1.168,5.055-3.888,5.055-3.888
	c2.525,2.138,4.665-2.141,4.665-2.141c-0.775-3.5,0.192-5.056,0.192-5.056c2.333,0.195,3.889-3.692,3.109-4.569
	C591.59,502.322,596.061,498.052,594.602,498.343z"/>
<path id="Gansu" fill="#C6E75E" stroke="#FFFFFF" stroke-width="0.5" stroke-miterlimit="10" d="M570.987,562.581
	c2.548,3.013,0.266,5.607-1.997,7.218c2.333,2.385,5.949,3.944,9.867-2.354l4.082-4.082l-4.373-11.371
	c0,0,14.284-7.578,14.284-6.414c0,1.166,3.79,8.164,5.831,11.078c2.041,2.916,19.534,4.666,19.534,4.666s0.292,7.289,2.916,7.289
	s-2.332,11.662,0,13.119c2.333,1.459,12.245,2.916,12.245,2.916l10.844-4.111c-0.223-0.896-0.211-1.721-0.211-1.721
	s16.189-3.645,8.465-7.58c-7.729-3.938,1.021-10.352,1.021-10.352c3.063,3.063,10.496,1.313,10.496,1.313
	c-1.166-8.164-0.875-12.537-0.875-12.537s10.496-6.414,1.473-8.748c-9.023-2.332-0.498-8.26-0.498-8.26l-0.682-5.731
	c0,0,11.369-3.983,13.119,3.599c0,0,13.408-1.75,13.801-3.11c0.391-1.358-6.025-4.666-1.75-6.606c0,0,12.246-0.39,12.637-1.357
	c0,0,4.146,2.914,5.277,1.357l-2.945-12.828c0,0,3.307-5.639,2.916-11.663c-0.391-6.022-3.891-1.165-5.057-4.857
	c-1.166-3.69-6.021,2.724-8.164-2.916c-0.117-0.313-0.25-0.604-0.396-0.876c-2.463-4.677-8.465-3.98-8.465-3.98l-2.412-2.524
	c-3.133-0.141-4.143-2.822-4.104-6.23c-4.455,0.485-11.037,1.276-12.225,3.12c-1.748,2.723-1.06,6.414-1.06,6.414
	s-5.553,5.442-3.971,5.832c1.58,0.389,3.276,6.025,3.276,6.025c11.472,3.691,6.605,10.104,6.605,10.104
	c0.773,5.442-7.387,4.082-7.387,4.082c3.5,23.373-15.938-0.388-15.938-0.388c-6.414,1.359-6.805-6.998-6.805-6.998
	s4.666-5.44,0.973-9.718c-3.69-4.276-3.498-6.805-3.498-6.805s5.058-4.857,0-5.056c-3.165-0.12-9.456-8.553-13.716-14.838
	c-4.166,0.855-7.663,1.327-7.663,1.327c-0.775-1.265-6.606-6.899-12.637-10.011c-6.023-3.106,0.191-7.97-0.583-8.745
	c-0.776-0.775-1.357-6.414,0.583-7.581c1.94-1.166,17.008-12.147,13.604-15.789c-3.397-3.642,0.192-5.397-2.432-9.188
	s-15.743,3.979-15.743,3.979s-3.498,6.229-11.371,3.313c-7.872-2.916-16.909,1.898-16.909,1.898
	c1.457,1.606,5.247,2.767-1.459,9.948c-6.705,7.187-8.163-8.644-11.661-7.186s-7.287-2.767-7.287-2.767
	c0.582-12.388-6.707-8.313-6.707-8.313c0-0.875-5.539-7.287-5.539-7.287c-2.916-0.292-14.578-5.54-14.578-5.54
	c13.703-2.916,14.578-23.907,14.578-23.907c-2.332-6.122-20.117,0.582-20.117,0.582c-10.495,4.665-17.492,5.831-17.492,5.831
	c0.875-9.329-7.289-14.576-7.289-14.576c-10.496-7.872-1.458-13.412-1.458-13.412l-13.21-31.067l-15.267,1.522l-0.8-3.731
	c-4.854,4.237-9.283,10.193-6.197,16.368c5.831,11.661-9.719,12.438-9.719,12.438l-5.832,6.606c0,0-1.558-8.939-10.887,0
	c0,0-17.882,9.329-20.213,22.158c0,0-20.621-0.958-17.123,8.761c0,0-4.258,24.189-10.089,29.484v2.751
	c6.027,0.904,12.338,1.685,14.382,1.332l2.722,4.709c0,0,19.63-1.558,10.689,3.888c0,0,1.749,2.14,11.079,0l4.857,10.69
	l10.538-1.558c0,0,5.207,5.83,10.646,0.583c0,0,11.271,9.136,13.604,3.499c0,0,5.64,1.558,6.024-0.776
	c0.389-2.331,2.333-10.688,7.581-7.773c0,0-3.889-17.883,4.082-15.938c0,0,18.854,12.053,20.021,8.555c0,0,0-5.64,5.054-2.724
	c0,0,3.307,1.359,4.859-2.915c0,0,2.721-2.333,24.104,20.409c0,0,5.438,2.524,1.359-3.889c0,0,2.329-5.831,10.302,5.247
	c0,0,5.054-0.796,6.221,1.645c1.166,2.438,9.719,10.796,11.661,8.463c0,0,4.273,0.195,7.581,4.473c0,0,2.524-3.5,5.248,3.107
	c2.723,6.607,11.271,9.722,11.271,9.722s-3.7,3.69-3.311,4.472c0.395,0.776,9.919,18.854,11.375,18.563
	c1.459-0.29-3.013,3.979-2.232,4.854c0.777,0.879-0.775,4.77-3.108,4.571c0,0-0.972,1.556-0.192,5.054c0,0-2.14,4.274-4.664,2.141
	c0,0-3.307,5.057-5.057,3.889c0,0,2.334,5.441,1.36,6.416c-0.974,0.972-8.746,6.22-8.746,6.22l0.193,6.023l5.054,6.414
	c0,0-1.723,12.436-21.67,0.302c-0.161-0.1-0.325-0.198-0.489-0.302c0,0-11.079,1.358,0.392,11.661c0,0,1.358,4.272,1.124,5.055
	c-0.014,0.041,0.021,0.06,0.063,0.074l0.033,0.021C557.684,560.938,566.996,557.865,570.987,562.581z"/>
<path id="Sichuan" fill="#61BC76" stroke="#FFFFFF" stroke-width="0.5" stroke-miterlimit="10" d="M621.134,581.729
	c-2.332-1.455,2.624-13.117,0-13.117s-2.916-7.289-2.916-7.289s-17.493-1.75-19.534-4.666c-2.041-2.914-5.83-9.912-5.83-11.078
	s-14.284,6.414-14.284,6.414l4.372,11.371l-4.081,4.082c-3.919,6.305-7.535,4.738-9.868,2.354c-1.534,1.09-3.061,1.725-3.061,1.725
	c-10.688-4.273-7.969,1.166-6.998,8.357c0.975,7.19-10.886,4.473-10.886,4.473s-2.333,1.75-3.106,0.975
	c-0.777-0.776-1.75-9.136-4.665-3.5c-2.916,5.64-1.559,3.109-4.86-2.914c-3.304-6.024-6.803,2.525-6.803,2.525
	c-1.166-1.555-18.271-10.303-18.271-10.303s0.192-10.688-4.857-14.188c-4.867-3.369-3.229-6.925-3.101-7.188
	c-0.122,0.229-1.303,1.895-8.661-0.832c-7.871-2.916-6.412,4.813-6.412,4.813s-4.375-2.041-5.832,2.041
	c-1.457,4.08,5.832,9.912,5.832,9.912l-5.541,11.006l5.366,9.679c6.972,3.467,13.953,8.936,15.333,17.221
	c0,0,21.092,17.3,2.816,11.662c0,0-2.138,2.14,3.694,7.969c5.831,5.832,2.722,7.193,2.524,8.941
	c-0.191,1.75,5.764,18.854,1.229,22.155c-4.533,3.308,17.722,23.907-4.729,16.037c0,0,8.464,4.663,10.209,15.158
	c0,0,2.618-8.454,5.243-7.288c2.623,1.166,2.623-2.623,3.789-4.082c1.167-1.456,14.287,11.37,9.039,13.995
	c0,0-4.082,1.166,4.373,8.746c0,0,6.123-6.123,8.164,0s19.535,32.945,20.118,36.445c0,0,3.499,2.916,10.496-2.041
	c6.996-4.957,7.578-0.584,7.869,0.291s7.584-5.248,7.584-5.248s-6.125-21.283-1.169-20.992c0,0,13.12-10.205,9.038-14.287
	c0,0,3.207-4.373,4.956-4.08c0,0,4.374-0.293,2.041-7.872c0,0,12.246-5.248,11.663-1.457c0,0-5.979,2.332,0.729,8.021
	c0,0-1.604,6.123-2.771,4.812c0,0,7.872,9.771,14.435-0.291c0,0,7.014-1.448,6.406,6.997c2.656-0.146,5.496,0.094,6.181,1.65
	c1.356,3.106,15.354-1.945,13.411-7.388c-1.944-5.44-17.141-1.358-12.266-12.636c0,0,9.117,2.722,0-15.161
	c0,0-12.618-2.723-6.203-9.521c6.414-6.806,8.908-6.024,6.203-11.47c0,0-3.094-0.291-1.637-2.331
	c1.457-2.041-1.902-4.957-1.902-4.957s3.652-4.664,6.859-6.705c0,0,6.412-1.166,7.971,7.772c1.557,8.939,5.441-4.272,6.805-2.522
	c1.357,1.748,5.347,1.164,5.347,1.164c4.082-3.339,9.037,3.338,11.371,3.338c2.331,0-1.021-7.855-0.875-9.021
	c0.145-1.166,4.811-5.539,7.145-3.207c2.33,2.332,4.955-1.021,4.521-3.063c-0.439-2.041,1.166-6.707,1.166-6.707
	c18.073-10.787,5.395-16.326,5.395-16.326c7.58-8.163-4.811-6.122-4.811-6.122c-6.416,0.875-12.929-6.413-12.929-6.413l-4.11,1.75
	c0,0-4.537-11.955-9.609-6.479c-5.067,5.478-15.629-4.019-15.629-4.019c-6.109,6.313-7.885,3.808-8.396,1.722l-10.848,4.11
	C633.379,584.645,623.467,583.188,621.134,581.729z"/>
<path id="Hainan" fill="#82CEA1" stroke="#FFFFFF" stroke-width="0.5" stroke-miterlimit="10" d="M735.229,897.486
	c0,0,2.726-4.473,4.861-4.272c2.137,0.19,3.691-3.693,3.498-5.248c-0.195-1.558,4.471-12.439,6.607-12.83
	c2.137-0.388,1.748-8.551,1.748-8.551l-4.275-1.75c0,0-4.078-2.332-3.887,0c0,0-7.39,1.358-9.914,2.916c0,0-11.08-3.498-10.885,0
	c0.192,3.497-2.724,1.555-2.724,1.555s-3.5-1.166-1.75,2.141c0,0-7.188,4.469-8.164,6.023c0,0-4.789-0.193-3.658,6.223
	c0,0-7.811,18.465,16.103,18.465c0,0,3.498,5.64,5.248,0c1.748-5.639,4.664-0.975,6.219-1.75
	C735.813,899.625,735.229,897.486,735.229,897.486z"/>
<path id="Guangdong" fill="#82CEA1" stroke="#FFFFFF" stroke-width="0.5" stroke-miterlimit="10" d="M870.319,776.977
	c-0.191-4.082-8.162-11.66-8.162-11.66s-11.47-6.998-13.412-5.44c-1.941,1.555,0.772,11.077-1.75,9.327
	c-2.523-1.75,0.584-8.161-13.217-4.661c-13.804,3.495-17.104,5.637-15.16,0.19c1.942-5.438,7.969-6.223,8.162-9.721
	c0.192-3.498-11.66-0.584-13.218-3.305c-1.557-2.724-11.661,0.973-13.411-2.527c-1.748-3.498-3.89,0.393-6.806,1.945
	c-2.916,1.552-0.584,5.832,0,7.772c0.584,1.939-5.832,4.855-7.772-3.69c0,0-10.205-6.414-9.912,2.623
	c0.123,3.842-1.387,5.045-3.207,5.299v3.155c0,0,3.207,5.83,0,8.746c-3.209,2.914-2.916,7.287-4.082,8.455
	c-1.166,1.166-7.289,9.621-7.289,9.621c2.041,5.83-2.625,13.412-2.625,13.412c-8.453,4.371-10.787,6.119-11.076,9.91
	c-0.293,3.791-6.707,4.082-6.707,4.082s1.459,5.539-4.372,5.248c-2.898-0.146-6.306,3.241-8.99,6.688l3.229-0.354l-1.473,2.647
	l-3.24,5.008l-1.178,9.427l3.238,0.883l-0.354,5.365l5.006,2.649l-1.471,1.181l0.883,2.942l8.836-0.297l4.123-4.123l0.295-1.77
	l-4.125-4.121l0.063-2.713l-3.24-1.179l-1.234-4.161l20.629-8.604l2.021,2.336l9.449-6.271l-0.193-3.4l3.033,2.904l2.215-2.711
	l7.48,1.067l1.358-1.067l9.642-3.188l1.438-4.59l1.748,5.149l8.164-4.666l0.973-8.063l2.623-3.014c0,0,0.841,1.873,1.501,4.279
	c2.313-2.411,7.999-4.577,10.65-2.376l1.724,6.754l2.5-3l-0.498-7.128l4.495-1.59c0,0-1.32,10.735,7.814-0.533
	c0,0,2.522,1.166,5.83,2.816c3.305,1.65,3.396-1.266,3.012-3.982l5.248,2.332c0,0,17.787-6.073,20.799-16.618l3.803-1.771
	C872.421,784.682,870.431,779.295,870.319,776.977z"/>
<path id="Hongkong" fill="#82CEA1" stroke="#FFFFFF" stroke-width="0.5" stroke-miterlimit="10" d="M808.75,814
	c0.438,1.601,0.198,7.379-0.875,9.375c13.375,0,11.525-11.75,11.525-11.75C816.75,809.419,811.063,811.589,808.75,814z"/>
<path id="Jiangsu" fill="#C6E75E" stroke="#FFFFFF" stroke-width="0.5" stroke-miterlimit="10" d="M960.674,612.594
	c-1.584-0.922-2.695-1.415-2.695-1.415s-2.302-4.063-6.414-5.64c-4.115-1.573-4.081-2.916-3.888-5.637
	c0.191-2.721,3.888,3.887,5.248,5.055c1.358,1.166,11.854,9.328,15.354,9.523c3.498,0.195-0.195-7.387,0.582-8.115
	c0.78-0.727-8.164-9.963-8.355-13.069c-0.195-3.108-8.748-9.942-8.748-9.942c-6.996-5.084-11.078-32.961-11.078-32.961l-3.063-5.834
	l-9.037-3.646l-12.244-11.08l4.256-6.19c-3.594,1.21-9.078,2.986-10.229,2.986c-1.75,0-3.498,7.58-3.498,7.58
	s-5.248-2.916-6.707,2.331c-1.457,5.248-4.664,2.916-6.414,0s-6.414-0.188-7.58,1.945c-1.166,2.133-8.164-0.295-9.814,2.232
	c-1.649,2.528-4.473-11.467-6.997-10.98c-2.523,0.484-7.773,0.097-8.162,0.582c-0.224,0.281,0.744,3.286-0.285,5.979
	c4.067,2.692,10.541,7.25,12.238,10.058c2.524,4.181,7.969,4.276,10.688,5.831c2.723,1.553,4.18,6.121,3.789,7.191
	c-0.389,1.067,10.592-5.832,8.649,0.875c-1.942,6.704-7.288,12.827,0.681,11.661c0,0-2.138,12.456,10.104,9.728
	c0,0,3.646-10.318,11.855,3.631c1.961,3.33-6.219,3.555-7.58,1.221c-1.359-2.332-7.773-0.973-6.414,1.166
	c1.361,2.142,5.055,6.61-1.75,7.591c-6.803,0.977,0.971,11.069,4.277,12.235c3.305,1.166,2.721,3.691,2.721,3.691
	c-6.803,8.164,7.773,3.885,8.355,5.44c0.584,1.56,4.666,2.332,4.666,2.332s0.034,0.189,0.09,0.51c2.229-0.735,4.5-0.555,5.938,2.021
	c3.695,6.613,10.885,3.889,10.885,3.889l3.201,3.109c0,0,3.215-9.326,6.322-6.221c0.246,0.245,0.546,0.411,0.546,0.411
	C950.811,614.565,957.604,612.923,960.674,612.594z"/>
<path id="Shanghai" fill="#82CEA1" stroke="#FFFFFF" stroke-width="0.5" stroke-miterlimit="10" d="M971.396,626.92
	c0.421-6.842-6.687-11.977-10.724-14.326c-3.071,0.329-9.862,1.972-10.507,10.072l0.355,0.456c1.699,1.599,4.438,4.01,7.029,6.259
	C962.135,625.76,971.396,626.92,971.396,626.92z"/>
<g id="Hebei">
	<path id="path1" fill="#C6E75E" stroke="#FFFFFF" stroke-width="0.5" stroke-miterlimit="10" d="M872.625,408.5
		c-0.531,0.902-1.094,1.614-1.667,2.198c0.449,0.685,1.038,1.174,1.729,0.802c0,0,3.938,2.625,2.875-2.313
		c0,0,1.188-0.563,0.063-2.188c0,0,4.683-0.327-0.563-2.563c0,0,1.464-1.303,0.949-4.115c-1.458,0.855-2.763,1.303-2.763,1.303
		C863.375,401.875,872.625,408.5,872.625,408.5z"/>
	<path id="path" fill="#C6E75E" stroke="#FFFFFF" stroke-width="0.5" stroke-miterlimit="10" d="M926.882,398.144
		c-1.36-0.583-3.688-4.274-2.332-7.969c1.357-3.691-6.606-1.75-6.606-1.75l-8.164-7.189c0,0,0.584-6.415,1.75-6.998
		c0.975-0.484,4.102-1.396,4.322-6.986c-5.775,0.911-16.343,0.38-16.343,0.38c-5.604-10.888-2.756-13.22-2.756-13.22
		c6.605-0.191-5.055-17.688-7.971-20.798c-2.916-3.106-5.638,0.392-5.638,0.392s-0.584,4.856-4.168,2.721
		c-3.588-2.137-8.854,0.778-8.137,2.333c0.721,1.557,2.391,10.887-1.889,11.273c-4.275,0.39-10.689,0.192-10.689,0.192
		c-1.166,5.054-4.664,4.274-4.664,4.274c-0.391-3.499-4.272-3.499-4.272-3.499c-10.688,4.273-9.604,8.938-9.604,8.938
		c-7.08,1.942-12.553-1.557-9.053-5.054c3.496-3.499-1.943-9.327-1.943-9.327c-4.856-0.974-5.248,4.473-6.414,4.665
		c-1.168,0.192-5.246,1.558-5.055,3.108c0.191,1.557,2.568,8.504-1.166,8.554c-7.188,0.092-3.17,7.771-3.17,7.771
		c-6.318,8.771,0.447,2.525,1.229,11.271c0.177,1.977-0.02,3.477-0.401,4.646c3.537,1.524,6.137,3.515,5.938,6.046
		c-0.584,7.579,1.748,1.749-7.287,7.872c-9.038,6.122,5.271,7.386,7.3,7.48c2.026,0.1,6.108,16.427-4.095,19.633
		c-10.202,3.206-6.68,4.664-6.547,8.163c0.136,3.499-5.405,4.374-5.405,4.374s-2.892,4.957,5.405,10.788
		c0,0,1.302,6.706,3.343,8.454c2.04,1.748,4.688,6.705-3.343,16.91c0,0-0.715,4.373,0,5.831c0.718,1.458-10.653,2.417-5.696,8.937
		c4.957,6.521,10.493,4.479,10.493,4.479s13.412,9.039,16.035,5.54c2.625-3.499,5.541-2.041,6.414-0.875
		c0.875,1.167,6.123,2.042,5.541-1.457c-0.584-3.499-6.414-11.079,2.914-14.87c9.33-3.79,7.289-13.701,7.289-13.701
		s11.955-6.123,14.871-10.788c2.914-4.665,12.533,3.107,16.324-4.565c1.438-2.915,4.014-5.729,6.647-8.104
		c-1.944-2.012-2.856-3.804-2.856-3.804c-1.999-0.979-3.18-2.529-3.746-4.14l-6.162,1.673c0.25-4-3-0.875-3-0.875
		c-1.25-4.375-4.375-2.375-4.375-2.375l-0.625-1.75c-3.75,0.25-2.125-2.625-2.125-2.625c-1.375-1.5,0.25-5.25,0.25-5.25
		c5-1.125,3.625-2.5,2.25-3.5c1.125-3-1.125-4.625-1.125-4.625c1.875-3.125-0.25-2.625-0.25-2.625
		c0.405-1.064,0.191-2.348-0.203-3.498c-2.359,0.737-4.297-0.127-4.297-0.127c-1.617,1.408-2.5,1.818-2.125,4.257
		c-2.938,0.093-5.25-3.507-5.25-3.507l-3.125-0.125l-2.5-0.875c-1.875,4.592-3.625,1.375-3.625,1.375
		c-5.375,0.458-4.5-4.875-4.5-4.875c4.875-0.125-0.875-4.875-0.875-4.875l3.875-4.5c11.875-0.375,2-9.75,2-9.75l2.75-3.745
		c2.391,0.996,12.097-2.278,9.25-7.255c3.559-2.172,7.875-3.25,7.875-3.25c1.875,11.25,15.875,10.505,15.875,10.505
		c-1.438,0.579-1.33,2.729-2.366,2.822c-7.509,0.673-1.134,7.711-1.134,7.711s3.125-1.664,8.125,6.086c0,0-11-2.625-2.625,8.625
		c0,0-0.875,3,1.5,2.875c0,0,0.375-2.5,3.75-0.75l-2,5.5c0,0,5.16,1.871,3.893,4.061l0.002,0.002
		c1.519,0.492,4.13,4.576,4.261,3.807c0.146-0.875,7.58-3.646,12.055-2.333c4.474,1.313,8.646-6.899,8.646-6.899l3.205-10.446
		l8.822-4.125C928.548,400.641,927.55,398.431,926.882,398.144z"/>
</g>
<path id="Tianjin" fill="#C6E75E" stroke="#FFFFFF" stroke-width="0.5" stroke-miterlimit="10" d="M888.5,418.75l2-5.5
	c-3.375-1.75-3.75,0.75-3.75,0.75c-2.375,0.125-1.5-2.875-1.5-2.875c-8.375-11.25,2.625-8.625,2.625-8.625
	c-5-7.75-8.125-6.086-8.125-6.086c-0.571,1.714-2.235,3.027-3.737,3.908c0.515,2.813-0.95,4.115-0.95,4.115
	c5.245,2.234,0.563,2.563,0.563,2.563c1.125,1.625-0.063,2.188-0.063,2.188c1.063,4.938-2.875,2.313-2.875,2.313
	c-0.69,0.372-1.279-0.118-1.729-0.802c-1.015,1.035-2.061,1.623-3.036,1.929c0.396,1.15,0.608,2.434,0.203,3.498
	c0,0,2.125-0.5,0.25,2.625c0,0,2.25,1.625,1.125,4.625c1.375,1,2.75,2.375-2.25,3.5c0,0-1.625,3.75-0.25,5.25
	c0,0-1.625,2.875,2.125,2.625l0.625,1.75c0,0,3.125-2,4.375,2.375c0,0,3.25-3.125,3,0.875l6.162-1.673
	c-0.791-2.241-0.388-4.601,0.713-5.702c1.896-1.896,7.842-0.362,7.842-0.362c-6.998-5.686-1.313-8.455,0-9.185
	c0.157-0.087,0.345-0.083,0.552-0.016v-0.002C893.66,420.621,888.5,418.75,888.5,418.75z"/>
<path id="Beijing" fill="#C6E75E" stroke="#FFFFFF" stroke-width="0.5" stroke-miterlimit="10" d="M867.375,375.375
	c0,0-4.316,1.078-7.875,3.25c2.847,4.977-6.86,8.251-9.25,7.255l-2.75,3.745c0,0,9.875,9.375-2,9.75l-3.875,4.5
	c0,0,5.75,4.75,0.875,4.875c0,0-0.875,5.332,4.5,4.875c0,0,1.75,3.217,3.625-1.375l2.5,0.875l3.125,0.125c0,0,2.313,3.6,5.25,3.507
	c-0.375-2.438,0.508-2.849,2.125-4.257c0,0,1.938,0.864,4.297,0.127c0.977-0.307,2.021-0.895,3.036-1.929
	c0.573-0.583,1.136-1.295,1.667-2.198c0,0-9.25-6.625,0.625-6.875c0,0,1.305-0.447,2.763-1.303c1.502-0.881,3.166-2.194,3.737-3.908
	c0,0-6.375-7.039,1.134-7.711c1.036-0.093,0.929-2.243,2.366-2.822C883.25,385.88,869.25,386.625,867.375,375.375z"/>
</svg>
