<?xml version="1.0" encoding="utf-8"?>
<!-- Generator: Adobe Illustrator 16.0.0, SVG Export Plug-In . SVG Version: 6.00 Build 0)  -->
<!DOCTYPE svg PUBLIC "-//W3C//DTD SVG 1.1//EN" "http://www.w3.org/Graphics/SVG/1.1/DTD/svg11.dtd">
<svg version="1.1" id="레이어_1" xmlns="http://www.w3.org/2000/svg" xmlns:xlink="http://www.w3.org/1999/xlink" x="0px"
	 y="0px" width="425px" height="565px" viewBox="0 0 425 565" enable-background="new 0 0 425 565" xml:space="preserve">
<path id="BadenWürttemberg" fill="#eeeeee" stroke="#000000" stroke-width="0.25" stroke-miterlimit="10" d="M149.749,434.335
	c6.833,1.332,5,0.332,6-4.5c1-4.834,1.729-24.057,0-31.834c-2.333-10.5,7.733-6.06,10.333-10.5
	c3.708-6.334-1.687-11.709,4.323-10.084c6.01,1.625,4.76-0.875,3.385-3.125s-3.015-4.607-2.875-11.75
	c0.125-6.375-7.125-6.375-9.125-13.875s-1.642-6.77-0.125-12.5c1.125-4.25-4.25-9.875-6-7.5s-2.714,2.492-3.75-1.875
	c-2.875-12.125-9.625-5.875-9.75-9.75s-7.125-4.625-10-1.75s4.125,5-1.75,7.875s-9.5,0.375-9.75,4.75s-6.5,0.833-6.667,4.75
	s-3.75,2.5-3.5-0.667s-5.633-12.02-7.583-6.167c-1.417,4.25-5.083,0.334-5.25-0.083s-5.981-6.805-0.917,6.917
	c2.583,7-4.417,11.667-5.083,17.5c-0.519,4.539-1.754,6.854-5.217,7.974c-0.898,0.593-2.861,1.741-3.408,4.901
	c-1.125,6.5-4.75,8.5-9.375,13.875s-4.25,8.875-5.25,12.875c-3.412,13.647-7.25,15-7.25,22s0.125,6-1.875,11.375
	c-3.959,10.642-0.625,6.875,0,13.375s7,5.75,13.875,6.625s11.75-6.875,14.125-3.5s4.375,3.375,4.375,0.75s2.58,0.403,4.25-2.25
	c2.125-3.375-6.875-5.125,0-8c2.529-1.058,6.125-3.125,8.25,2.125s3.25,2.5,3.25,1.625s1.25-2.75,3.25-0.125s5.5,1.125,4.125,0.375
	s-0.375-4.25,3.5-0.5s5.042,1.835,2.458,0.002c-14.533-10.313,7.681,1.189,17.124,6.636
	C140.705,437.371,145.395,433.484,149.749,434.335z"/>
<path id="Saarland" fill="#eeeeee" stroke="#000000" stroke-width="0.25" stroke-miterlimit="10" d="M51.791,343.917
	c0-3,2.125-1.125,3-5s-3.25-3.25-3.5-6s3.125-0.875,0.875-5.75s-12.625-6.5-16-4.875s-6.75,3.75-11.75,3
	c-2.299-0.345-5.067-0.372-7.394-0.301c1.273,4.442,6.962,1.626,10.644,14.051c1.617,5.458,3,6.625,6.625,4.25
	c6.784-4.443,8,4.375,15,5.5c2.347,0.377,4.13-0.005,5.57-0.467C53.433,347.086,51.791,346.093,51.791,343.917z"/>
<path id="NordrheinWestfalen" fill="#eeeeee" stroke="#000000" stroke-width="0.25" stroke-miterlimit="10" d="M37.749,275.851
	c0.333-2.685-5.871-4.479,1.5-4.185c2.083,0.083,1.833-6.833,9.833-7s7.958-6,13.958-7.125s8.626-4.875,10.251-7.875
	s2-4.125,4.625,0.875s9.056,13.24,9.5,6.5c0.75-11.375,11.3-4.018,11.75-9.375c1.25-14.875,8.703-7.435,9.5-12.464
	c1.75-11.036-5.425-8.31-3.417-11.536c2.75-4.417,11-1.167,10.5-5.417s-0.917-5.5,4-3s9.083,1.833,10.75-3
	s-0.167-14.667,3.75-15.917s1.417-4.417,0-5.5s-2.917-2.333-3.75-5.75s-11.917-12.75-11.833-16.833s7.417-10.083,4.417-13.083
	s-10.333,6-12.833,1.5S94.167,150,92.667,155.5s6.083,7.833,6.083,14.5c0,3.083-1.75,2-4.167,3.417s-7.5,0.833-9.75,3
	s-7.167,2.25-4-1S81.5,163.834,80.416,162s-6.167-9.25-13.5-4.5c-6.446,4.175-13.085,9.119-19.861,8.953
	c-0.292,0.153-0.621,0.307-1.014,0.463c-3.75,1.5-17.125,7.5-11.625,11.25s-8.625,5.25-11.375,4.75s-7.25-2.125-7.75,1.125
	s-2.75,1.25-5,2.625c-10.447,6.384,5.875,21.25,5.625,25.5s-7.875,10.125-7.625,12s5,3.5,0.792,5.167c-2.108,0.834-6.667,5-6.5,8
	s7,2,6.833,5s-6.333,6.167-1.833,10.5c3.321,3.197,3.333,3.833,3,9.333s6.75,6.917,9.25,11.917c0.413,0.826,0.684,1.404,0.845,1.84
	c3.155,0.181,6.793,0.745,9.238,2.243C35.083,281.334,37.416,278.534,37.749,275.851z"/>
<path id="FreistaatBayern" fill="#eeeeee" stroke="#000000" stroke-width="0.25" stroke-miterlimit="10" d="M223.916,274.792
	c-3.375,1.5-3.75,0.875-10,1.125s-2.5-6.625-8.875-6.125c-4.867,0.382-2.375,5.75-3,10.75s-3.875,3.5-5.375,0.75
	s-8.25-5.875-12.625-3.125s6,5.875-1,9.375c-4.881,2.44-8.112-9-18.014-16.75c-8.788-6.878-7.236,4.25-14.736,5.625
	c-7.808,1.433-4.25,11-8.625,10c-10.308-2.355-1.875,5.625-5.625,7.25s-7.119-2.75-11.25-1.75c-9.77,2.365-8,12.125-5,17.25
	s1.625,7.5,0.75,11.125c-0.378,1.565,0.154,3.643,0.88,5.498c1.373-1.35,4.533-0.438,8.995-2.623c5.875-2.875-1.125-5,1.75-7.875
	s9.875-2.125,10,1.75s6.875-2.375,9.75,9.75c1.036,4.367,2,4.25,3.75,1.875s7.125,3.25,6,7.5c-1.517,5.73-1.875,5,0.125,12.5
	s9.25,7.5,9.125,13.875c-0.14,7.143,1.5,9.5,2.875,11.75s2.625,4.75-3.385,3.125c-6.01-1.625-0.615,3.75-4.323,10.084
	c-2.6,4.44-12.667,0-10.333,10.5c1.729,7.777,1,27,0,31.834c-1,4.832,0.833,5.832-6,4.5c-4.354-0.851-9.044,3.036-11.876,5.97
	c1.969,1.136,3.383,2.008,3.793,2.362c2.375,2.063,7.313-5.688,7.75-1.25c0.215,2.179,0.443,1.484,2.125,2.375
	c2.788,1.478,7.25,3.125,5.125,7.75s5.75-0.25,5.75,4.625s8.75-0.125,10.25-8.125s8.625-4.125,11-2.875s7.625-1.375,5.5,0.75
	s-0.985,1.67,2.25,4.375c4.543,3.801,7.875,2.875,9.25,1s4.625,3,8.625-3.375c2.711-4.319,7.375-1.625,8.875-4.375
	c0.75-1.375,2.5-2.75,11.5-4.125s12.625-0.875,10.625-5s7.25-4.875,11.5,0.25s5.125-2.625,9.5-1.875s-0.375,2,4.25,7.625
	c7.701,9.366,11.375,3.5,10.75-1.5s-1-8.125-3.5-7.625s-0.75-4.125-0.875-9.875s-16.125-11.625-4.75-17.625
	c9.765-5.149,19.5-8.5,18.5-19.625c-0.242-2.688,1.875-5.125,8-2.625s8.5-3.375,8.375-7.875s0.542-17.332-12.792-20.166
	c-13.334-2.833-16.251-19.834-24.501-18.834c-6.472,0.784-8-4.667-8-4.667c-0.042-1.792-3.833-8.083-6.583-13.333
	s-4.25-5.375-2.875-7.875s4.625-4.125,0.375-7c-5.773-3.904-8.25-6.5-12-16.25c-1.117-2.902-1.376-4.58-1.154-5.378
	C232.268,277.182,226.741,273.537,223.916,274.792z"/>
<path id="RheinlandPfalz" fill="#eeeeee" stroke="#000000" stroke-width="0.25" stroke-miterlimit="10" d="M94.916,317.334
	c2.167-2.25,1.667-3.417,0-5.083s-1.375-2.833-2.5-7.583s-5.625-7.625-10.125-5.237c-4.5,2.387-9.25,1.612-9.625-2.513
	s5.083-9.083,7.888-9.75c2.805-0.667,2.625-4,1.362-6.5c-3.031-5.996-1.167-10.167,2.333-13c2.01-1.627,1.71-5.339,1.091-8.208
	c-2.231-0.811-5.674-5.582-7.425-8.917c-2.625-5-3-3.875-4.625-0.875s-4.25,6.75-10.25,7.875s-5.958,6.958-13.958,7.125
	s-7.75,7.083-9.833,7c-7.371-0.295-1.167,1.5-1.5,4.185c-0.333,2.684-2.667,5.482-7.833,2.315c-2.445-1.499-6.083-2.063-9.238-2.243
	c0.813,2.205-1.49,0.396-6.012,4.118c-12.407,10.211-3.75,22.5,2.125,25.625c12.295,6.54-0.5,11.625,0,18
	c0.04,0.508,0.121,0.94,0.231,1.324c2.327-0.071,5.095-0.044,7.394,0.301c5,0.75,8.375-1.375,11.75-3s13.75,0,16,4.875
	s-1.125,3-0.875,5.75s4.375,2.125,3.5,6s-3,2-3,5c0,2.176,1.642,3.169,3.07,4.408c2.854-0.916,4.352-2.146,6.18,1.592
	c2.75,5.626,13.25,4.376,21.75,6.501c4.367,1.092,4.606,1.097,3.658,1.723c3.463-1.12,4.699-3.435,5.217-7.974
	c0.667-5.833,7.667-10.5,5.083-17.5c-2.027-5.491-2.309-7.757-1.911-8.479C93.616,321.759,93.299,319.013,94.916,317.334z"/>
<path id="Hessen" fill="#eeeeee" stroke="#000000" stroke-width="0.25" stroke-miterlimit="10" d="M153.833,262.167
	c-5,3.667-2.206,0.124-2.25-3c-0.083-5.917,4.563-6.755,4.75-9.5c0.25-3.667-5.25-6.75,2.583-9.25s4.889-9.155,1-10.917
	c-11.417-5.167-5.905-10.912-10.667-10.917c-4.833-0.005-2.583,6.333-5.5,6.25s-5.583-2.917-3.667-6.25s-0.584-4.083,0.333-6.583
	s4.083-6.334-0.417-6.917c-3.371-0.437-6.368-0.639-8.64,0.828c-0.123,2.337-0.276,4.646-0.86,6.339c-1.667,4.833-5.833,5.5-10.75,3
	s-4.5-1.25-4,3s-7.75,1-10.5,5.417c-2.009,3.228,5.167,0.5,3.417,11.536c-0.797,5.029-8.25-2.411-9.5,12.464
	c-0.45,5.357-11-2-11.75,9.375c-0.148,2.244-0.961,2.822-2.075,2.417c0.619,2.869,0.919,6.581-1.091,8.208
	c-3.5,2.833-5.364,7.004-2.333,13c1.264,2.5,1.443,5.833-1.362,6.5c-2.805,0.667-8.263,5.625-7.888,9.75s5.125,4.898,9.625,2.513
	c4.5-2.387,9,0.487,10.125,5.237s0.833,5.917,2.5,7.583s2.167,2.833,0,5.083c-1.617,1.68-1.3,4.426-0.077,6.854
	c0.598-1.082,2.728,1.313,2.827,1.563c0.167,0.417,3.833,4.333,5.25,0.083c1.951-5.854,7.833,3,7.583,6.167s3.333,4.584,3.5,0.667
	s6.417-0.375,6.667-4.75c0.06-1.052,0.32-1.7,0.755-2.127c-0.726-1.855-1.258-3.933-0.88-5.498c0.875-3.625,2.25-6-0.75-11.125
	s-4.77-14.885,5-17.25c4.131-1,7.5,3.375,11.25,1.75s-4.683-9.605,5.625-7.25c4.375,1,0.817-8.567,8.625-10
	c3.692-0.677,5.191-3.716,6.81-5.808C157.353,266.112,157.182,259.711,153.833,262.167z"/>
<path id="FreistaatThüringen" fill="#eeeeee" stroke="#000000" stroke-width="0.25" stroke-miterlimit="10" d="M238.333,260.167
	c4.417-1.417,2.333-2.833,1.417-4.583s1.666-2.417,3.666-4.417c6.48-6.48,8.083-8,3.083-13.5s-8.833-2.583-8.333-0.667
	s3.25,4.25-5.75,4.333s-7-7.852-17.833-7.852c-9.673,0-6.532-1.575-9.417-1.398c-6.541,0.401-7.417-0.583-9-2.75
	c-5.607-7.672,1.417-5.167,3.167-7c5.339-5.594-3.833-2.917-10.5-5.25s-5.167-5.167-1.667-3.917s2.75-4.5-3-9.5s-3,2.5-8.25,3.875
	s-6.25-3.375-8.125,0c-2.227,4.01-3.625,8.25-9.25,8.361c-3.07,0.061-5.463,2.218-7.01,4.166c0.689,2.043,0.526,5.874,8.385,9.431
	c3.889,1.761,6.833,8.417-1,10.917s-2.333,5.583-2.583,9.25c-0.187,2.745-4.833,3.583-4.75,9.5c0.044,3.124-2.75,6.667,2.25,3
	c3.349-2.456,3.52,3.945,3.268,8.442c1.668-2.158,3.465-3.31,7.926,0.183c9.902,7.75,13.133,19.19,18.014,16.75
	c7-3.5-3.375-6.625,1-9.375s11.125,0.375,12.625,3.125s4.75,4.25,5.375-0.75s-1.867-10.368,3-10.75
	c6.375-0.5,2.625,6.375,8.875,6.125s6.625,0.375,10-1.125c0.807-0.357,1.837-0.308,2.945,0.004
	C226.714,259.291,234.094,261.527,238.333,260.167z"/>
<path id="FreistaatSachsen" fill="#eeeeee" stroke="#000000" stroke-width="0.25" stroke-miterlimit="10" d="M331.666,206.292
	c-0.696-0.196-1.281-0.445-1.776-0.739c-28.118-0.688-37.879,2.394-37.64,6.697c0.116,2.082,1.972,3.083,1.667,4.417
	c-1.069,4.67-15.5-0.75-23.125-3.5c-18.676-6.734-25.792,1.083-31.7,3.333s-1.759,7.667-1.842,10.25s-1.833,2.292-1.583,5.792
	c0.103,1.418,1.253,2.606,2.583,3.523c0.657-1.688,4.033-3.038,8.251,1.602c5,5.5,3.397,7.02-3.083,13.5
	c-2,2-4.583,2.667-3.667,4.417s3,3.166-1.417,4.583c-4.238,1.36-11.619-0.876-11.471,14.629c2.771,0.779,6.046,3.238,7.648,5.368
	c0.521-1.882,3.727,1.155,4.78,4.753c1.5,5.125,3.5,3.25,3.875,0.25s0.625-8.125,8-11.25s11.25,2.625,16.375-4.375
	c4.029-5.503,15.75-6.625,16.625-10c2.085-8.044,14.375-4.5,14.5-7.75s8.25-4.875,12.5-7s7.25-4,2.625-6.375
	c-5.799-2.978,6.625-7,8-0.375s7.125,9.875,10.125,6s0.25-7.75,4.625-14.5C339.4,225.13,339.166,208.417,331.666,206.292z"/>
<path id="Brandenburg" fill="#eeeeee" stroke="#000000" stroke-width="0.25" stroke-miterlimit="10" d="M329.89,205.552
	c-4.845-2.868-1.029-9.986-6.474-14.636c-4.784-4.086-0.625-8.125,0.625-10.875c3.633-7.992-1.875-9-1.875-12.75s0.75-3-2.75-7.5
	s0-8.625,0-13s-1.75-5.875-5-7.375s-3.375-4.125-10.5-8s-4.25-7.5,0.875-13.375c3.614-4.143,3.433-12.137,2.4-19.561
	c-2.989-1.28-6.542-0.024-8.025,0.936c-2.125,1.375-3.5,3.375-4.125-0.625s-1.125-5.75-9-5.25s-4.875,9.625-16.875,11.25
	c-8.357,1.132-5.25,6.25-11.375,6s-4.125-3-9.625-3.25c-7.996-0.362-12-4-19.375-5.875s-6,4.5-13.625,6.875
	c-3.736,1.164-7.375,12.625-4.375,12.375s8.25,5.625,15.5,7.625s8.625,4.875,8.75,10.75s-1.875,8.25,2.125,14.75
	c7.296,11.855-1.523,12.875-1,18.625c1.094,11.992,14.875,6.25,19.75,7s11.5,8,18.375,9c4.986,0.726,3,4.625-1.5,10.25
	c-2.606,3.258-6.007,8.525-8.41,12.385c1.975,0.426,4.104,1.033,6.41,1.865c7.625,2.75,22.056,8.17,23.125,3.5
	c0.305-1.333-1.551-2.334-1.667-4.417C292.01,207.946,301.771,204.865,329.89,205.552z M271.666,158.292
	c-10.132,0-8.875-7.25-8.875-7.25c1.792-10.292,7.042-1.875,9.708-7.375c2.05-4.229,5.542-1.5,6.792,4
	C281.41,156.99,276.666,158.292,271.666,158.292z"/>
<path id="Berlin" fill="#eeeeee" stroke="#000000" stroke-width="0.25" stroke-miterlimit="10" d="M272.499,143.667
	c-2.667,5.5-7.917-2.917-9.708,7.375c0,0-1.257,7.25,8.875,7.25c5,0,9.744-1.302,7.625-10.625
	C278.041,142.167,274.55,139.438,272.499,143.667z"/>
<g id="MecklenburgVorpommern">
	<path fill="#eeeeee" stroke="#000000" stroke-width="0.25" stroke-miterlimit="10" d="M293.083,57.667c0,0,5.5,4.833,5.833,8.25
		s3.083,3.167-1.083,2.25s-5.167,0.333-6.75,1.75S287,70.167,288.166,68s0.667-1.75,0.5-3.083s-0.25-2.666,2.917-1.583
		s0.833-4.167-1.5-3.333s-4.083,0.75-4.333-1.333s-2.75-4.25-1.167-5.917s1.319,3.697,6,3.5
		C291.822,56.198,293.083,57.667,293.083,57.667z"/>
	<path fill="#eeeeee" stroke="#000000" stroke-width="0.25" stroke-miterlimit="10" d="M269.333,24.417c0,0,1.417,4,5.083,3.667
		s4.25,1.083,2.917,2.667s-2.5,4.667,2,7.75s2.5,8.917-0.583,5.75s-4.417-1.588-6.833,0.914s-5,1.914-6.833,0
		s-2.8-3.167-0.833-4.581c2.667-1.917-2.25-3.583,0.083-4.583s-1.812-3.463,0.333-4.75c3.333-2,4.333,2.5,6.5,1.25
		s-2.583-5.5-6.083-4.75s-3.417-2.667-0.75-3.917S270.912,20.853,269.333,24.417z"/>
	<path fill="#eeeeee" stroke="#000000" stroke-width="0.25" stroke-miterlimit="10" d="M305.666,89.792
		c-1.75-8.75-2.5-14.542-9.5-14.208s-12.667-4.75-10.417-8.083s2.167-2-1-6s-0.667-9.667-4.5-8.167
		c-5.95,2.328-7,1.917-11.917-2.583s-6.25-3.167-8.25-6.917s-2.75-7.75-5.917-4.083s-3.5,2.833-4.917,1.333s-4.583-2.667-9.5,2.667
		s-5.083,3-4,1.25c5.078-8.202,8.333-5.25,13.833-6c11.84-1.614-5.25-2.25-9-2.5s-5.917,6.917-9.667,11.5s-2.25,1.417-3.833,5.167
		s-1.167,0.417-3.833,0.25c-5.919-0.37-3.5,3.417-9.917,3.25c-8.504-0.221-7.167,8.25-8.75,12.333s-2.582-2.334-5.165-0.417
		s-2.083-4.25-6.75-4.25c-3.094,0-7.917,3.333-8,5.417c-0.061,1.51-1.123,2.09-1.609,0.877c-4.524,8.489,1.096,9.35,0.859,18.164
		c-0.203,7.624-7.5,3.458-6.25,12.458s19.167,9.75,22.833,15.833c1.293,2.146,6.997,1.813,9.202,1.598
		c0.229-3.337,2.82-9.315,5.464-10.14c7.625-2.375,6.25-8.75,13.625-6.875s11.379,5.513,19.375,5.875c5.5,0.25,3.5,3,9.625,3.25
		s3.017-4.868,11.375-6c12-1.625,9-10.75,16.875-11.25s8.375,1.25,9,5.25s2,2,4.125,0.625c1.483-0.96,5.036-2.215,8.025-0.936
		C306.759,95.378,306.182,92.372,305.666,89.792z"/>
</g>
<path id="SachsenAnhalt" fill="#eeeeee" stroke="#000000" stroke-width="0.25" stroke-miterlimit="10" d="M274.291,188.667
	c-6.875-1-13.5-8.25-18.375-9s-18.656,4.992-19.75-7c-0.523-5.75,8.296-6.77,1-18.625c-4-6.5-2-8.875-2.125-14.75
	s-1.5-8.75-8.75-10.75s-12.5-7.875-15.5-7.625c-0.646,0.055-0.98-0.439-1.075-1.254c-1.676,1.824-1.575,5.602-5.675,8.504
	c-6,4.25-6.625-1-14.625,1.5c-6.083,1.901-8.75,4.5-6.061,8.75c2.688,4.25,5.061,6.625,5.311,13s4,7.125,3.375,15.375
	c-0.398,5.272-1.125,12.75-6.25,12.125s-10.375,1.625-9.875,4.875s4.125,3.25,0,6.5c-2.708,2.135-0.75,3.5,1.5,6.25
	c1.014,1.239,2.152,3.542,3.1,5.7c0.637-0.547,1.605-0.354,3.65,1.425c5.75,5,6.5,10.75,3,9.5s-5,1.583,1.667,3.917
	s15.839-0.344,10.5,5.25c-1.75,1.833-8.774-0.672-3.167,7c1.583,2.167,2.459,3.151,9,2.75c2.885-0.177-0.256,1.398,9.417,1.398
	c10.833,0,8.833,7.935,17.833,7.852s6.25-2.416,5.75-4.333c-0.078-0.3-0.039-0.623,0.083-0.936c-1.33-0.917-2.481-2.104-2.583-3.523
	c-0.25-3.5,1.5-3.208,1.583-5.792s-4.065-8,1.842-10.25c5.179-1.972,11.286-8.221,25.29-5.2c2.403-3.858,5.803-9.126,8.41-12.384
	C277.291,193.292,279.277,189.392,274.291,188.667z"/>
<path id="FreieundHansestadtHamburg" fill="#eeeeee" stroke="#000000" stroke-width="0.25" stroke-miterlimit="10" d="M161.791,88.667
	c0.417-1.792,1.75-6.417-3.833-6.417c-9.667,0-12.44,8.854-13.03,11.348c0.738,0.773,0.884,1.244,0.113,1.318
	c-0.024,0.002-0.049,0-0.073,0.002c3.581,2.666,8.417,4.563,14.115,5.082c4.267,0.389,5.363-1.133,6.233-1.466
	c-0.091-0.635-0.473-0.909-2.316-2.951C159.916,92.167,161.374,90.459,161.791,88.667z"/>
<g id="SchleswigHolstein">
	<path fill="#eeeeee" stroke="#000000" stroke-width="0.25" stroke-miterlimit="10" d="M98.083,3.834c0,0-3.417,7.5-2.667,13
		s1.583,3.583,1.75,0s-0.191-5.746,3.167-3.25c2.243,1.667,2.75-1.833,0.667-3.25s-2.833-2.417-1.25-4.417S100.833,0.5,98.083,3.834
		z"/>
	<path fill="#eeeeee" stroke="#000000" stroke-width="0.25" stroke-miterlimit="10" d="M187.083,36.084c0,0,4.06-5.828,8.333,0.417
		c2.167,3.167-1.333,6.583-3.583,4.333s-1.333-2.5-3.333-2.5S186.432,36.844,187.083,36.084z"/>
	<path fill="#eeeeee" stroke="#000000" stroke-width="0.25" stroke-miterlimit="10" d="M191.416,43.5c-0.495-4.338-5.583-1-9.917,2.083
		s-7.25,0.833-9.25-1.667s-7.417-5.5-9.583-2.75s-4.583,2.75-3.417-0.083s-0.5-6-5.667-4c-10.583,4.097-0.5-1.167,1.333-4.833
		c1.644-3.287-0.25-8.833-2.604-13.667s-3.229,1.333-4.896-0.75s-6.167-7.417-8.083-5.417s-6.75,5.5-4.25,2.25
		s-3.042-1.875-3.042-1.875c-7.5,0.625-4-2.5-12.375-3.25s-13.375-1.75-13.5,2.5s3.375,7.875,7,12.75s2,5.625,5.125,8.375
		s2.125,5.375-1,6.875s-7.75,0.875-7.75,2.5s-2.5,1.875-2.75,4s1.25,3,5.875,1.75c9.751-2.635,1.625,0.25,1.5,5.875
		s6.25,1.125,6.25,5.875s-6.375,1-6.5,4.125c-0.075,1.877,3.5,1.375,3.875,4.375c0.782,6.254,7.25,1.25,8.875,6.125
		c2.566,7.699,15.291,15.813,18.262,18.932c0.59-2.495,3.363-11.348,13.03-11.348c5.583,0,4.25,4.625,3.833,6.417
		s-1.875,3.5,1.208,6.917c1.843,2.042,2.225,2.316,2.316,2.951c0.438-0.167,0.819-0.039,1.517,0.799
		c1.563,1.876,7.866,2.25,10.915,2.32c-0.027-0.134-0.063-0.265-0.081-0.403c-1.25-9,6.047-4.835,6.25-12.458
		c0.235-8.814-5.386-9.675-0.86-18.164c-0.187-0.462-0.291-1.176-0.223-2.211c0.37-5.546-1.583-1.417-3.5-3.75
		c-2.553-3.107,11.333-10.917,11.167-14C190.164,44.454,191.621,45.299,191.416,43.5z"/>
</g>
<path id="Niedersachsen" fill="#eeeeee" stroke="#000000" stroke-width="0.25" stroke-miterlimit="10" d="M209.702,118.681
	c-2.205,0.215-7.909,0.547-9.202-1.598c-3.611-5.989-21.023-6.814-22.752-15.43c-3.049-0.07-9.352-0.444-10.915-2.32
	c-2.083-2.5-1.333,1.25-7.75,0.667c-5.697-0.518-10.534-2.416-14.115-5.082c-10.002,0.854-19.188-21.865-23.802-20.752
	c-3.242,0.783-6.048,1.764-10,0c-6.911-3.083-7.375,0.625-10.25,6.125s-0.625,3.5,1,10s-0.875,6-3.25,0.875s-5.875-2-6.625,0.625
	s3.875,2.375,2.75,5.125s-2.125,5.375-4.625,2.375s-4.25-0.625-4.5-3.75c-0.319-3.988,4.75-2.625,2.875-4.625
	c-3.394-3.62-0.625-2.875-4-6.75s-22.75-2.875-27.125,0s-6,5-3.625,6.75c3.628,2.673-2.375-1.75-2.25,7.875
	c0.057,4.376,10.125,3.625,6,6c-2.81,1.618-2,5.625-1.875,14s-4.875,9.125-4.875,18s-13.375-1.5-12.75,11.75
	c0.236,4.996,10.375,4.375,10.5,11.375c0.07,3.94,1.005,5.233-1.486,6.537c6.776,0.166,13.415-4.777,19.861-8.953
	c7.333-4.75,12.417,2.667,13.5,4.5s3.583,10.167,0.417,13.417s1.75,3.167,4,1s7.333-1.583,9.75-3s4.167-0.333,4.167-3.417
	c0-6.667-7.583-9-6.083-14.5s15.083-3.333,17.583,1.167s9.833-4.5,12.833-1.5s-4.333,9-4.417,13.083s11,13.417,11.833,16.833
	s2.333,4.667,3.75,5.75s3.917,4.25,0,5.5c-2.544,0.813-2.663,5.245-2.89,9.577c2.272-1.467,5.269-1.265,8.64-0.828
	c4.5,0.583,1.333,4.417,0.417,6.917s1.583,3.25-0.333,6.583s0.75,6.167,3.667,6.25s0.667-6.255,5.5-6.25
	c1.483,0.001,1.97,0.562,2.281,1.486c1.547-1.948,3.94-4.105,7.01-4.166c5.625-0.111,7.023-4.353,9.25-8.361
	c1.875-3.375,2.875,1.375,8.125,0c3.382-0.886,3.445-4.31,4.6-5.3c-0.947-2.159-2.086-4.461-3.1-5.7
	c-2.25-2.75-4.208-4.115-1.5-6.25c4.125-3.25,0.5-3.25,0-6.5s4.75-5.5,9.875-4.875s5.852-6.853,6.25-12.125
	c0.625-8.25-3.125-9-3.375-15.375s-2.621-8.75-5.311-13c-2.69-4.25-0.023-6.849,6.061-8.75c8-2.5,8.625,2.75,14.625-1.5
	c4.1-2.902,3.999-6.68,5.675-8.504C209.682,119.373,209.678,119.044,209.702,118.681z M118.166,127.417
	c-4.625-0.188-5.625-1.125-6.063-3.688c-0.438-2.563-6.188-5.375-6.188-5.375c-0.75-0.938-1.063-0.313,0-2.438s3-2.438,4.25-1.063
	s3.188,3.188,5.938,3.188s4.125,2.625,5.125,5.563C122.228,126.542,122.791,127.605,118.166,127.417z"/>
<path id="FreieHansestadtBremen" fill="#eeeeee" stroke="#000000" stroke-width="0.25" stroke-miterlimit="10" d="M116.104,118.042
	c-2.75,0-4.688-1.813-5.938-3.188s-3.188-1.063-4.25,1.063s-0.75,1.5,0,2.438c0,0,5.75,2.813,6.188,5.375
	c0.438,2.562,1.438,3.5,6.063,3.688c4.625,0.188,4.063-0.875,3.063-3.813C120.23,120.667,118.854,118.042,116.104,118.042z"/>
</svg>
