<?xml version="1.0" encoding="utf-8"?>
<!-- Generator: Adobe Illustrator 16.0.0, SVG Export Plug-In . SVG Version: 6.00 Build 0)  -->
<!DOCTYPE svg PUBLIC "-//W3C//DTD SVG 1.1//EN" "http://www.w3.org/Graphics/SVG/1.1/DTD/svg11.dtd">
<svg version="1.1" id="레이어_1" xmlns="http://www.w3.org/2000/svg" xmlns:xlink="http://www.w3.org/1999/xlink" x="0px"
	 y="0px" width="1280px" height="800px" viewBox="0 0 1280 800" enable-background="new 0 0 1280 800" xml:space="preserve">
<g id="Sardegna">
	<path fill="#eeeeee" stroke="#000000" stroke-width="0.25" stroke-miterlimit="10" d="M180.664,527.334
		c0,0-5.338,38.258-5.931,49.824s-1.483,17.794-9.49,13.049c-8.008-4.745-10.374-6.771-14.334-2.965
		c-1.593,1.53-4.943-2.57-5.734-5.141s-2.373,3.361-1.582,8.897c0.791,5.535,0.593,7.711-2.768,11.862
		c-3.361,4.152-9.491,8.305-10.875,4.152s-3.955-1.977-5.338-0.197s-3.559,2.372-2.768-1.978s-2.175-0.198-1.977-4.943
		s-2.175-3.757-4.35-3.954c-2.175-0.197-2.373,3.559-3.955,5.932c-1.582,2.372-5.635-6.179-2.669-8.7
		c2.965-2.521,6.328,5.03,5.042,0c-0.645-2.521-1.483-0.148-2.373-3.707s-3.491-3.698-0.445-7.711
		c1.497-1.972,0.216-4.676-1.334-5.932c-3.114-2.521,1.779-3.559,0.296-6.228s-1.779-2.225,0.296-4.745
		c2.076-2.521,3.708-5.487,2.076-10.232c-1.631-4.745-2.25-8.705,2.373-5.931c2.225,1.334,4.152-7.415,3.114-9.491
		c-1.038-2.075-3.855-3.855-4.597-0.89c-0.741,2.966-3.114,0.89-3.559-2.669s1.186-6.228,0-7.414
		c-1.187-1.187-1.631-1.779,2.373-1.928c4.003-0.148,2.817-3.411,1.631-5.339c-1.186-1.928-1.038-5.635-0.148-8.304
		s0.593-5.932-2.669-5.932s0.704-6.524-3.133-11.418c-3.836-4.894-0.781-8.839-7.396-6.08c-2.019,0.843-4.449,0.297-4.152-2.372
		c0.296-2.67,4.597-3.707,2.373-5.783c-2.225-2.076-3.707-2.817-1.334-6.525c2.373-3.707,4.448-6.524,2.224-9.045
		s-1.038-6.821,1.187-1.038c2.224,5.783,9.676,8.872,15.718,7.118c4.597-1.335,4.282-1.541,5.635-3.263
		c3.262-4.152,7.711-1.483,11.27-6.08c3.559-4.597,0.741-2.224,4.152-5.486s4.004-6.376,8.749-7.118
		c4.745-0.741,5.932-1.334,5.635-4.597c-0.296-3.262,2.966-6.228,4.745-1.482c1.78,4.745,2.373-1.038,5.635,1.779
		c3.262,2.817,3.262,5.486,6.524,3.41s4.894,2.966,3.114,4.894c-1.78,1.928-2.225,2.373-0.148,4.449
		c2.076,2.075,2.373,2.966,1.631,4.894c-0.742,1.928-5.356,1.915,0.371,3.188c1.334,0.297,2.521-3.484,2.521,0.89
		c0,4.375,5.294,0.168,2.595,5.116c-1.779,3.263-0.265,0.978,1.779,7.414c0.949,2.987,1.483-1.187,1.928,6.97
		c0.445,8.156,6.525,3.114,3.559,11.121c-2.966,8.008-6.524,3.855-8.007,10.084s-3.114,9.193,0.89,13.791
		C183.037,526.147,181.011,524.819,180.664,527.334z"/>
	<path fill="#eeeeee" stroke="#000000" stroke-width="0.25" stroke-miterlimit="10" d="M99.002,591.236c0,0,0.28-0.953,1.796-1.964
		c1.515-1.01,4.097-0.897,4.602-1.628c0.505-0.729,0.393,1.235,0.505,3.255c0.112,2.021,0.336,2.863,0,4.771
		c-0.337,1.908-1.571,1.516-2.918,0.842c-1.347-0.673-1.852-0.842-1.291-1.684c0.561-0.842,0.25-0.713-0.225-1.627
		C100.686,591.686,99.17,592.304,99.002,591.236z"/>
	<path fill="#eeeeee" stroke="#000000" stroke-width="0.25" stroke-miterlimit="10" d="M101.25,457.063c0,0,2.438-1,3.313-3.125
		s3.25-1.625,2.938,1.563s-1.563,2.188-2.813,2.625s-1.813,0.5-2,2.313s-2,2.375-1.813-0.313S100.527,457.435,101.25,457.063z"/>
</g>
<g id="Sicilia">
	<path fill="#eeeeee" stroke="#000000" stroke-width="0.25" stroke-miterlimit="10" d="M300.051,753.617c0,0-2.504-3.388,0.884-2.946
		c3.388,0.442,4.124,0.884,5.008,2.946c0.883,2.062,0.589,2.798-1.326,3.387C302.702,757.594,300.788,756.225,300.051,753.617z"/>
	<path fill="#eeeeee" stroke="#000000" stroke-width="0.25" stroke-miterlimit="10" d="M410.514,732.113c0,0,15.644-2.41,23.86,17.674
		c1.326,3.24,1.178,4.419,7.217,4.86c6.039,0.442,1.844,2.663,9.426,3.83c5.744,0.884,6.976-3.24,10.163,0.884
		c2.504,3.24,1.788-2.549,5.744,2.209c1.165,1.4,1.843,2.095,2.946,0.136c0.331-0.589,0.663-0.614,0.994,0.048
		c0.331,0.663,0.663-0.92,0-2.136c-0.663-1.215-0.181-2.279-1.657-5.56c-0.663-1.473,1.399-2.72,2.356-6.589
		c0.958-3.868,6.358-8.729,9.107-8.532c2.75,0.196,2.161-1.964,0-1.964c-2.16,0-2.553,0.196-1.767-1.768s-0.196-4.909-3.927-6.284
		c-3.731-1.374-2.946-3.927-0.982-5.105c1.964-1.178,4.517,0.393,1.768-2.749c-2.75-3.143-7.462,0.196-6.873-7.267
		c0.589-7.462-0.393-9.622,3.142-10.212c3.535-0.589,1.375-1.963,1.178-5.694c-0.197-3.731,1.178-3.143,2.553-8.837
		c1.375-5.695,0.786-2.946,4.517-9.427c3.731-6.48,11.586-12.176,12.568-17.281s3.142-8.248,5.499-8.248
		c2.356,0,0-0.785-1.964-0.981c-1.963-0.197-1.571-3.143-6.087,0c-4.517,3.142-9.414,5.388-11.182,4.504
		c-1.767-0.884-2.012-0.096-1.767-2.136c0.119-0.987-0.773-2.393-0.663-1.141c0.111,1.252-0.724,4.615-2.491,6.038
		c-1.768,1.424-5.621,5.382-7.61,1.719c-0.933-1.719-5.351-4.86-9.279-2.111s-5.695-0.785-10.212,4.713
		c-4.517,5.499-22.976,7.07-31.813,6.088c-8.837-0.981-3.371-0.776-16.692,2.554c-5.499,1.374-13.158-5.499-12.765-7.267
		c0.393-1.768-0.827-0.918-5.695-0.196c-2.756,0.408-4.91-3.143-2.946-4.32c1.964-1.179,0.204-1.179-2.157-2.945
		c-2.36-1.768-7.662,2.062-10.019,0.589c-2.356-1.474-3.387,0.294-4.86,3.093c-1.473,2.798,3.24,3.388,0,5.008
		s-8.689,6.627-12.519-0.736c-3.83-7.364-5.529-10.02-5.744-4.566c-0.115,2.91-0.589,2.063-5.155,4.86
		c-4.566,2.799-5.744,5.892-7.954,13.108c-2.209,7.217-0.736,8.837-1.031,11.93c-0.294,3.094,1.473,2.651,4.713,2.799
		s3.388,2.945,5.302,5.597c1.915,2.651,2.798,0.295,6.48,0.147s10.092-2.228,12.961,4.713c0.883,2.138-0.737,0.736,5.597,0.442
		c6.333-0.295,2.905,3.38,10.457,8.101c3.535,2.209,4.124,4.565,8.69,5.891c4.566,1.326,6.775,1.768,9.426,5.598
		c2.651,3.829,7.642,2.909,12.077,6.922C406.537,734.912,408.603,732.2,410.514,732.113z"/>
	<path fill="#eeeeee" stroke="#000000" stroke-width="0.25" stroke-miterlimit="10" d="M304.985,673.567c0,0-0.183-2.4,1.473-0.441
		c0.516,0.61,0.516,1.473,0.958,1.841s-0.08,0.663-1.218,0C305.059,674.305,305.279,674.525,304.985,673.567z"/>
	<path fill="#eeeeee" stroke="#000000" stroke-width="0.25" stroke-miterlimit="10" d="M318.167,676.783c0,0-0.786-0.586,0.687-1.422
		c1.473-0.836,0.982-0.394,1.473,0.711c0.491,1.104-0.013,1.104-1.185,1.398S318.364,677.313,318.167,676.783z"/>
	<path fill="#eeeeee" stroke="#000000" stroke-width="0.25" stroke-miterlimit="10" d="M365.15,623.564c0,0,0.368-1.03,1.104-0.516
		c0.736,0.516,0.074,1.547-1.104,1.547S365.15,623.564,365.15,623.564z"/>
	<path fill="#eeeeee" stroke="#000000" stroke-width="0.25" stroke-miterlimit="10" d="M458.823,637.557c0,0-0.982-1.767,2.455-1.129
		s0.393,0.639,0.638,2.504s-0.151,4.173-1.106,2.258c-0.956-1.914-2.674-1.374-2.33-2.504
		C458.823,637.557,458.921,637.816,458.823,637.557z"/>
	<path fill="#eeeeee" stroke="#000000" stroke-width="0.25" stroke-miterlimit="10" d="M460.68,643.448c0,0,0.99,0.393,0.843-0.393
		c-0.147-0.786,0.196-0.786,0.589,0.245c0.393,1.031,0.688,0.393,1.08,1.179c0.393,0.785,1.154,1.206,0.295,2.258
		c-0.562,0.688-1.964-0.933-2.16-1.03C461.131,645.608,460.279,644.233,460.68,643.448z"/>
	<path fill="#eeeeee" stroke="#000000" stroke-width="0.25" stroke-miterlimit="10" d="M428.434,634.808c0,0,0.442,1.473,1.129,0.736
		c0.687-0.736-0.197-1.669-0.565-1.473S428.305,634.479,428.434,634.808z"/>
	<path fill="#eeeeee" stroke="#000000" stroke-width="0.25" stroke-miterlimit="10" d="M439.333,632.696c0,0,0.491,0.982,1.62,1.13
		c1.129,0.146,0.491-1.522-0.442-1.866S439.038,632.285,439.333,632.696z"/>
	<path fill="#eeeeee" stroke="#000000" stroke-width="0.25" stroke-miterlimit="10" d="M453.227,633.236c0,0,0.245,0.736,1.178,1.13
		c0.933,0.393,1.325,1.129,2.062,1.129c0.736,0,0.54-1.08,0.54-2.259c0-1.178-0.393-1.178-1.277-0.981
		C454.847,632.451,453.177,631.764,453.227,633.236z"/>
	<path fill="#eeeeee" stroke="#000000" stroke-width="0.25" stroke-miterlimit="10" d="M467.366,628.082c0,0-0.736,0.981,0,0.834
		S468.298,627.542,467.366,628.082z"/>
	<path fill="#eeeeee" stroke="#000000" stroke-width="0.25" stroke-miterlimit="10" d="M474.877,616.986c0,0,0.786-0.786,1.473,0
		c0.688,0.785-0.197,0.736-0.442,1.62c-0.246,0.884-0.688,0.639-1.031,0.245c-0.343-0.393-1.276-0.883-0.638-1.374
		S474.877,616.986,474.877,616.986z"/>
</g>
<path id="Calabria" fill="#eeeeee" stroke="#000000" stroke-width="0.25" stroke-miterlimit="10" d="M539.833,532.504
	c-0.167,7.337,0.167,9.663-2.5,6.163s-2.833-2.333-8.835-0.671c-10.714,2.967-3.832-2.829-11.249-4.996
	c-5.769-1.686-9.379,1.235-11.445,4.146c0.958,2.356,1.595,5.2,1.695,8.604c0.676,22.995,7.25,14.25,11.25,28
	c6.352,21.834,1.981,23.666,6.75,30.375c8.969,12.617,4.375,15.125-0.25,16.625s-6.125-0.625-10.917,3.251
	c-8.556,6.921,2,1-0.333,15s-10.333,5.333-12.667,24s8.667,12.666,14.333,12.666s8,2,10.667-5.333s4.333-14,12-19.333
	s11.333-4.667,12-13s-3.575-8.826-3.333-13.667c0.476-9.534,18-21.333,28-17.333s5.333-3,4.667-15.334S584,573.334,572,569.001
	s-5.667-10.334-16.333-10.334c-13.338,0-9.333-12.333-5.667-18.333c3.32-5.433,2.554-11.681,5.346-16.526
	C539.441,519.077,539.988,525.713,539.833,532.504z"/>
<g id="Campania">
	<path fill="#eeeeee" stroke="#000000" stroke-width="0.25" stroke-miterlimit="10" d="M422.729,494.808c0,0-0.627-1.269,1.246-0.748
		c1.024,0.284,1.688-0.86,2.077-0.125c0.388,0.734-0.056,1.288-1.107,1.123c-1.053-0.167-1.44,0.497-1.828,0.332
		C422.729,495.223,422.644,495.589,422.729,494.808z"/>
	<path fill="#eeeeee" stroke="#000000" stroke-width="0.25" stroke-miterlimit="10" d="M403.402,480.492c0,0,0.609-0.386,0.665-1.106
		c0.055-0.721,0.609-0.389,2.325,0c1.717,0.388,2.326,0.442,2.659,1.827c0.332,1.385,0.83,1.938-0.444,1.717
		c-1.273-0.222-0.885,0.664-1.716,0.609c-0.831-0.056-1.716,0.115-2.437,0.002c-0.72-0.112-1.218-1.387-1.052-1.94
		C403.568,481.046,403.026,480.857,403.402,480.492z"/>
	<path fill="#eeeeee" stroke="#000000" stroke-width="0.25" stroke-miterlimit="10" d="M411.985,478.961c0,0,0.018-0.937,0.775-0.628
		c0.374,0.152,1.121,0.314,0.436,0.628s-0.831,0.313-0.893,0.833c-0.063,0.519-0.187,0.809-0.415,0.27
		C411.66,479.523,412.02,479.79,411.985,478.961z"/>
	<path fill="#eeeeee" stroke="#000000" stroke-width="0.25" stroke-miterlimit="10" d="M498.667,504.001
		c-4.5-6-6.833-8.585-7.667-12.667c-2.702-13.231-5.667-4.333-6.667-14s6.667-4.333,8.5-9.139c5.61-14.703-5.167-12.194-10.5-13.861
		s-6.667-1.167-4.333-5.667c3.596-6.936-4.5-8-8-9.333s0.192-3,0-6.167c-0.351-5.775-6.333-6.166-7.833-4s-2.833-0.666-11.5,3.334
		s-13,1.833-21.333-3.596s-12-3.404-12,1.429s-2.333,6.5-4.69,2.333s-4.644-5.167-7.144-1.5s0.667,8.833-2.233,10
		c-1.71,0.688-3.491,3.892-4.668,6.409c4.909,4.664,8.938,12.229,12.151,17.924c5.5,9.75,2.75,12.25,10.25,9.75
		s10.75-1.25,12.5,2.25s3.934,3.737,2.25,6c-4.016,5.396-8.25,10.75-2.25,7s8,1.25,12.75-2.75s20.5,9,17.75,19s-2,9.75,0.75,10.5
		s11.5,6.5,17.5,12.75s8,3,9.5-0.75c0.679-1.696,3.862-1.954,7.191-0.158C513.054,511.757,502.94,509.698,498.667,504.001z"/>
</g>
<path id="Basilicata" fill="#eeeeee" stroke="#000000" stroke-width="0.25" stroke-miterlimit="10" d="M556.833,483.581
	c-0.167-6.086-5.833-6.414-11.5-2.311s-12.915-3.212-13.833-9.104c-1.5-9.622-2.333-4.666-5.333-4.166
	c-5.064,0.844-8.167-0.334-7.333-4.5s3.667-4.167-2.5-7.834c-8.849-5.263-5.333-0.166-10.136-0.833
	c-6.001-0.833-10.569,0.59-13.589,2.15c1.996,1.634,2.683,4.771,0.226,11.211c-1.833,4.806-9.5-0.528-8.5,9.139
	s3.965,0.769,6.667,14c0.833,4.082,3.167,6.667,7.667,12.667c4.273,5.697,14.387,7.756,0.274,25.091
	c2.558,1.379,5.201,3.967,6.863,8.054c2.066-2.91,5.676-5.831,11.445-4.146c7.417,2.167,0.535,7.963,11.249,4.996
	c6.001-1.662,6.168-2.829,8.835,0.671s2.333,1.174,2.5-6.163c0.154-6.791-0.393-13.427,15.513-8.696
	c0.292-0.506,0.609-1.001,0.987-1.474c3.447-4.309,5.661-10.847,9.619-17.69C558.306,500.584,556.974,488.723,556.833,483.581z"/>
<path id="Puglia" fill="#eeeeee" stroke="#000000" stroke-width="0.25" stroke-miterlimit="10" d="M646.667,508.668
	c-5-8.666-18-9.334-18.667-17.667s-11.333-9.667-24.667-15s-12.667-11.667-22-16.667s-43-20-53.333-25s-12.667-3-14.333-10.334
	S521,414,527,409s5-17.333-17.333-14.333c-14.227,1.911-25.602,1.112-34.319-0.751c-3.919,4.292-4.11,9.746-3.598,13.334
	c0.75,5.25-0.25,6.5-6.5,9.5c-3.869,1.857-2.947,7.449-1.684,11.441c2.315-0.799,6.155,0.38,6.434,4.976
	c0.192,3.167-3.5,4.834,0,6.167s11.596,2.397,8,9.333c-2.333,4.5-1,4,4.333,5.667c2.997,0.937,7.713,0.555,10.274,2.65
	c3.021-1.561,7.588-2.983,13.589-2.15c4.803,0.667,1.287-4.43,10.136,0.833c6.167,3.667,3.333,3.668,2.5,7.834
	s2.269,5.344,7.333,4.5c3-0.5,3.833-5.456,5.333,4.166c0.918,5.892,8.167,13.207,13.833,9.104s11.333-3.775,11.5,2.311
	c0.141,5.142,1.472,17.003,9.119,21.063c0.635-1.099,1.311-2.203,2.048-3.31c5.333-8,21.667-5.333,18.333-1.667s-2,7,1.333,6
	s3,4.667,14.333,5c13.664,0.401,24.334,6.667,25.334,16.334s3.666,15,15,18.666s1.999-6.999,7.999-16.333
	S651.667,517.334,646.667,508.668z"/>
<path id="Abruzzo" fill="#eeeeee" stroke="#000000" stroke-width="0.25" stroke-miterlimit="10" d="M395,328.25
	c-3.5,4.25-8,0.5-14,7.75s-1,12.271-6,12.636s-10.509-3.135-8.75,10.364c0.75,5.755,11,17,8.75,19.75s-10.5-2.5-13.25,0
	s-6.5,7.687,2,10.25c15.75,4.75,9,13,16,14s7.5,3.25,11.5,2s14.451,9.5,22.226,5.75s3.274-5.25,5.774-9.25s8-6.75,13.75-0.75
	s4,8,8.5,0.5c2.771-4.618,8.289-10.471,11.946-16.854c-2.548-2.136-4.519-4.604-7.113-8.063c-5-6.667-10-5-21.333-20.667
	c-9.679-13.38-15.709-17.287-19.756-31.222C401.771,324.791,397.077,325.728,395,328.25z"/>
<path id="Molise" fill="#eeeeee" stroke="#000000" stroke-width="0.25" stroke-miterlimit="10" d="M475.348,393.916
	c-4.968-1.061-9.081-2.464-12.348-3.916c-4.331-1.925-7.19-3.621-9.554-5.604c-3.658,6.383-9.175,12.235-11.946,16.854
	c-4.5,7.5-2.75,5.5-8.5-0.5s-11.25-3.25-13.75,0.75s2,5.5-5.774,9.25c-1.167,0.563-2.394,0.794-3.65,0.793
	c0.222,4.974,0.391,11.851,0.037,17.769c0.928,0.563,1.85,1.707,2.782,3.355c2.356,4.167,4.69,2.5,4.69-2.333s3.667-6.857,12-1.429
	s12.666,7.596,21.333,3.596s10-1.168,11.5-3.334c0.306-0.442,0.805-0.771,1.399-0.976c-1.263-3.992-2.185-9.584,1.684-11.441
	c6.25-3,7.25-4.25,6.5-9.5C471.237,403.662,471.428,398.208,475.348,393.916z"/>
<g id="Lazio">
	<path fill="#eeeeee" stroke="#000000" stroke-width="0.25" stroke-miterlimit="10" d="M352.346,468.531c0,0,0.277-2.547,2.16-2.381
		c0,0-1.496,1.551-1.496,2.381s0.831,1.717-0.387,1.717s0.109-0.505-0.056-1.273C352.403,468.205,352.178,469.269,352.346,468.531z"
		/>
	<path fill="#eeeeee" stroke="#000000" stroke-width="0.25" stroke-miterlimit="10" d="M409.825,411.543
		c-7.116-0.004-15.175-7.605-18.575-6.543c-4,1.25-4.5-1-11.5-2s-0.25-9.25-16-14c-8.5-2.563-4.75-7.75-2-10.25s11,2.75,13.25,0
		s-8-13.995-8.75-19.75c-1.759-13.499,3.75-10,8.75-10.364c3.425-0.25,2.158-2.686,2.949-6.525
		c-3.96-7.828-10.911-10.477-10.699-5.61c0.25,5.75-2.25,7.5-8.743,8.604S342.25,353.25,339.25,356.5s-8.5,12-12.25,3.5
		s-9-3.75-10.25-9.75s-2-10.5-10.5-9.596s-1.75-5.154-7-10.404s-7,2.25-6.75,6s1.047,7.75-5.25,10.62c-9.03,4.115-6,5.63-6.25,6.13
		s1.549,5.25-2,5c-3.284-0.231-4.498,2.405-4.879,5.183c7.977,3.982,16.46,11.935,18.129,19.067c2.75,11.75,16.25,5.25,20.5,15.5
		c6.571,15.848,9.75,9.75,17.75,22.25s22.5,10.25,25.25,16.627S357,446,364.5,443.25c11.034-4.046,13.25,3.25,22.25,0.5
		c4.413-1.349,8.354,0.505,11.849,3.826c1.177-2.518,2.958-5.721,4.668-6.409c2.9-1.167-0.267-6.333,2.233-10
		c1.511-2.216,2.944-2.718,4.362-1.855C410.216,423.394,410.047,416.517,409.825,411.543z"/>
</g>
<path id="ValledAosta" fill="#eeeeee" stroke="#000000" stroke-width="0.25" stroke-miterlimit="10" d="M75,124
	c9.333,1,9.667-10,6.667-15c-1.688-2.814-1.889-8.058-1.208-12.997c-3.292,2.934-5.831-1.932-9.958-3.17
	C58.28,89.167,61.833,98,54.333,97.135S50.5,99.667,45,99.25c-8.739-0.662-6.75-5-10.5,0s-10.5-1.5-12,9.5
	c-1.019,7.468,10.458,8.064,10.75,12c0.407,5.484,2.162,8.142,4.065,9.979C44.204,130.591,53.73,129.86,57,127
	C62.333,122.333,65.667,123,75,124z"/>
<path id="Piemonte" fill="#eeeeee" stroke="#000000" stroke-width="0.25" stroke-miterlimit="10" d="M82,233c8.75,1,9.75-6,11.25-13
	s6.75-7.25,6.5-13s7.75-0.75,11-2.655s8.75,0.155,9-2.845s4.25-8,6.75-1.25s3.75,4,8.557,0s-2.807-4.5,2.443-7.5s9.5,7.75,13.25,3
	s6-4.5,0-10.5s-3.75-2.75-11.25-15s-3.25-3.75-10.75-4.25s-9.25-11.75-12.25-18s2.75-12.5,6-7.25s5,2.25,7.5-2.57
	s-3.5-15.93-7-23.074s-3.667-6.106-3.667-14.773s7.667-8,6.667-14c-0.205-1.229-0.106-2.434,0.165-3.577
	c-2.944-0.969-6.244-2.188-8.832-5.423c-6-7.5-3.667-14.167-3.333-20.667s-16.333,2.5-16.833,18.5s-10,9.667-14.5,17.833
	c-0.785,1.424-1.513,2.384-2.208,3.003c-0.68,4.938-0.48,10.182,1.208,12.997c3,5,2.667,16-6.667,15s-12.667-1.667-18,3
	c-3.27,2.86-12.796,3.591-19.685,3.729c3.29,3.173,7.024,3.886,5.018,12.438c-3.167,13.5-20.958,11.083-26.208,13.333
	s0.25,4.75,1.625,10.5c3.743,15.654,18,7,18.25,14.25c0.381,11.039-8.25,5-8.75,23S37.5,220.25,48,231s20.5-6.75,23,1.5
	c0.239,0.79,0.401,1.532,0.496,2.231C74.132,233.184,77.594,232.497,82,233z"/>
<path id="Liguria" fill="#eeeeee" stroke="#000000" stroke-width="0.25" stroke-miterlimit="10" d="M184.878,221.5
	c-9.122-5.75-6.128-10-13.628-9.75s-4.283-2.902-3.75-7.5c0.7-6.035-10.059-8.294-16.264-9.094c-0.16,0.192-0.32,0.383-0.486,0.594
	c-3.75,4.75-8-6-13.25-3s2.363,3.5-2.443,7.5s-6.057,6.75-8.557,0s-6.5-1.75-6.75,1.25s-5.75,0.94-9,2.845s-11.25-3.095-11,2.655
	s-5,6-6.5,13s-2.5,14-11.25,13c-4.406-0.503-7.868,0.184-10.504,1.731c1.435,10.568-12.591,11.312-10.246,19.519
	c2.5,8.75,17.25,2.5,29-3s7.5-20,15.5-20s5.5-6,7-8.25c12.819-19.229,45.5-8.75,58,4.25c8.245,8.574,17.358,9.863,24.903,12.687
	C206.49,238.573,192.598,226.366,184.878,221.5z"/>
<g id="Toscana">
	<path fill="#eeeeee" stroke="#000000" stroke-width="0.25" stroke-miterlimit="10" d="M185.82,312.133
		c0.15-0.089,1.16-0.718,1.464-1.464s0.672-0.23,0.69,0.12c0.019,0.35,0.608,0.166,0.497,0.699c-0.11,0.534-0.147,0.498,0.083,0.811
		s-0.607,0.536,0,0.573c0.608,0.037,0.382-0.741,0.746,0.255c0.11,0.302,0.069,0.262-0.034,0.352s-0.131,0.274-0.15,0.734
		c-0.019,0.46-0.258,0.46-0.276,0.819c-0.018,0.359,0.102,0.368-0.285,0.276c-0.387-0.092-1.354,1.16-1.602,1.795
		s-0.552,1.05-0.663,0.635c-0.11-0.414-0.221-0.276-0.469-0.221c-0.249,0.056-0.221-0.221-0.414-0.828
		c-0.193-0.608-0.304-0.636-0.497-0.829c-0.194-0.193,0.58-0.498,0.58-1.077C185.489,314.205,185.51,312.317,185.82,312.133z"/>
	<path fill="#eeeeee" stroke="#000000" stroke-width="0.25" stroke-miterlimit="10" d="M201.473,331.795c0,0-2.273,1.424,0,4.457
		c1.089,1.453,2.575,0.198,4.061,0c1.486-0.198,2.244,1.8,2.179-0.594c-0.026-0.96,0.693-0.298,1.98,0.396
		c1.288,0.693,0.941-0.321,0.792-0.916s3.12-1.411,3.64-0.371c0.52,1.04,0.743,3.268,2.451,3.193
		c1.708-0.074,1.931,0.297,1.56-1.856c-0.372-2.154-3.893-1.292-1.114-2.303c0.817-0.297,1.114-0.297,0.965-2.525
		c-0.148-2.228,0.456-1.931,0.302-3.268c-0.153-1.338-1.119-2.08-1.936-0.446c-0.817,1.635-1.188,1.635-1.931,2.525
		c-0.743,0.892-0.297,1.857-1.411,1.56c-1.114-0.297-0.446-1.188-1.634-1.411c-1.188-0.223-2.08-0.445-2.525,1.337
		c-0.445,1.783-2.451,1.04-2.822,0C205.657,330.533,202.29,330.789,201.473,331.795z"/>
	<path fill="#eeeeee" stroke="#000000" stroke-width="0.25" stroke-miterlimit="10" d="M197.785,347.171c0,0,1.411,0.223,1.485-1.932
		c0,0,0.074-0.576,0.223,0.649c0.149,1.226,0.26,0.849,0.446,1.288s0.074,1.739-0.631,1.404c-0.706-0.334-1.746-0.26-1.968-0.557
		C197.116,347.728,197.306,347.223,197.785,347.171z"/>
	<path fill="#eeeeee" stroke="#000000" stroke-width="0.25" stroke-miterlimit="10" d="M210.485,365.467c0,0,0.57-1.601,1.931,0
		c0.842,0.99-0.693,1.287-0.965,1.684C211.179,367.547,209.792,366.704,210.485,365.467z"/>
	<path fill="#eeeeee" stroke="#000000" stroke-width="0.25" stroke-miterlimit="10" d="M242.226,362.892c0,0,0-1.98,0.99-0.842
		s0.99,1.251,1.386,2.705c0.396,1.454,0.396,2.939-0.99,1.554c-1.386-1.387-1.04-1.733-1.882-2.229S242.136,363.624,242.226,362.892
		z"/>
	<path fill="#eeeeee" stroke="#000000" stroke-width="0.25" stroke-miterlimit="10" d="M299.833,320.667
		c2.259-8.258,0.5-5.667,0.333-12.333s3.667-5.667,8.5-10.333s5.333-3.75,1.083-7.75s-5.766-3.305-4.25-4.5
		c3.539-2.791,4.25-4,6-9.5s-1.5-5.25,5-9s7.75-6-1.75-6s-10.25-1-18-4.25s-5.75-0.5-10.25-9s-1.25-4.25,1-9.25
		c4.405-9.79-2-1.25-5-6.25s-5.5,0-6.75-3c-3.333-8.001-7.5-2.75-11,1s-5.25,6-11,3.5s-5.75,1-8.92,2.25
		c-8.02,3.162-8.83-10.75-13.83-5c-6.732,7.742-3.5-5.25-13.75-7s-8.25-5.406-16.787-8.25s-2.713-4.5-7.463-8s-4.25-2.5-8.122,2.75
		c-1.716,2.326-4.487,3.521-7.043,4.133c1.262,1.711,2.905,4.009,7.043,6.617c7.72,4.866,21.612,17.073,10.775,18.437
		c3.895,1.458,7.373,3.323,10.097,6.813c8,10.25,3.25,28,10.25,37s8,13,8.75,26.5s12.5,8,13.5,15.25c1.567,11.365,6.75,7,16.5,19.75
		s-0.25,11.75,0,14s-0.5,7.75,6.5,2.5c2.751-2.063,7.705-1.146,12.871,1.433c0.382-2.778,1.596-5.415,4.879-5.183
		c3.549,0.25,1.75-4.5,2-5s-2.78-2.015,6.25-6.13c6.297-2.87,5.5-6.87,5.25-10.62s1.5-11.25,6.75-6
		c0.032,0.032,0.058,0.064,0.089,0.096C298.821,327.971,298.582,325.244,299.833,320.667z"/>
</g>
<path id="Umbria" fill="#eeeeee" stroke="#000000" stroke-width="0.25" stroke-miterlimit="10" d="M368.5,328.444
	c-5.833-0.389-4.262-1.784-7.833-4.197c-5.653-3.82-8-0.914-9-12.08s-2.333-2.5-4.167-13.167s-3.414-5.724-2.75-9.5
	c1.083-6.167-0.083-7.167-1.583-5.833s-6,2.113-8.167,0c-4.966-4.843-6.333-6.833-9.184-6.333s-4.483,1.5-4.19-2.667
	c0.189-2.693-5.489-2.183-9.529-1.485c-0.05,0.787-0.183,1.765-0.597,3.068c-1.75,5.5-2.461,6.709-6,9.5
	c-1.516,1.195,0,0.5,4.25,4.5s3.75,3.083-1.083,7.75s-8.667,3.667-8.5,10.333s1.926,4.075-0.333,12.333
	c-1.252,4.578-1.012,7.305-0.495,9.68c5.074,5.228-1.537,11.207,6.911,10.308c8.5-0.904,9.25,3.596,10.5,9.596s6.5,1.25,10.25,9.75
	s9.25-0.25,12.25-3.5s12.764-10.292,19.257-11.396s8.993-2.854,8.743-8.604c-0.105-2.421,1.563-2.979,3.753-1.968
	C372.468,331.251,372.879,328.736,368.5,328.444z"/>
<path id="Marche" fill="#eeeeee" stroke="#000000" stroke-width="0.25" stroke-miterlimit="10" d="M335.625,252.645
	c0-2.355-5.875-1.52-4.625-4.77s-1.333-6.665-2.583-3.79s-3.917-0.71-7.292,1.915c-4.121,3.205-9.375-2-10.625,6.25
	c-0.672,4.434-2.545,6.919-4.559,8.31c2.136,0.495,4.623,0.69,8.809,0.69c9.5,0,8.25,2.25,1.75,6
	c-4.96,2.861-4.244,3.396-4.403,5.932c4.04-0.698,9.719-1.208,9.529,1.485c-0.293,4.167,1.34,3.167,4.19,2.667
	s4.218,1.491,9.184,6.333c2.167,2.113,6.667,1.333,8.167,0s2.667-0.333,1.583,5.833c-0.664,3.776,0.917-1.167,2.75,9.5
	s3.167,2,4.167,13.167s3.348,8.26,9,12.08c3.571,2.414,2,3.808,7.833,4.197c4.379,0.292,3.968,2.807,2.503,6.088
	c2.212,1.021,4.956,3.645,6.946,7.578c0.363-1.766,1.161-3.827,3.051-6.11c6-7.25,10.5-3.5,14-7.75
	c2.077-2.522,6.771-3.459,10.244-3.805c-0.691-2.381-1.327-5.047-1.911-8.112c-4-21-9-20.333-12-33.667s-4-7-12-12S366,261,356,250
	c-6.963-7.66-7.952-2.884-13.421-6.136c-0.082,1.081-0.151,2.32-0.204,3.761C342,258,335.625,255,335.625,252.645z"/>
<path id="TrentinoAltoAdige" fill="#eeeeee" stroke="#000000" stroke-width="0.25" stroke-miterlimit="10" d="M226.75,52.75
	c6,0.5,3.75,7.25,0,10S229.5,68,226,78.25s-4.546,11-1.773,20.5s4.023,8.5,8.523,5.75s9.25-4.75,10.25,4.75s4.25,5,7.75,3.25
	s7.75,2.5,8.25-4.5s13-17,19-17.75s7.114,6.768,9.75-3.25c1.25-4.75,1.5-6.25,7.5-6.5s7.25-4.75,2.25-11.25s-6.153-4.77-1-12.5
	c3-4.5-4.25-5,1.75-6.5s9-1.75,9.75-8.25s1.25-3.75,4.25-1.25s0.987,6.283,9,1.5c3.035-1.812,5.706-3.468,8.031-4.776
	c-5.218-1.983-5.553-6.223-8.281-9.974c-9.372-12.887-8.833-6.167-9.833-12.833s5.167-2.667,4.5-7.5s-3-1.667-11.333,2.333
	c-16.404,7.874-13.833-0.833-25.833,2S265.667,14,260.667,15c-11.258,2.251-1.333,15.333-13.5,15.667
	c-8.17,0.224-8.167-6.844-19.5-6.833c-6.841,0.006-7.333,0.833-6.667,12.667c0.371,6.58,0.122,9.396-0.888,10.543
	C221.394,49.981,223.447,52.475,226.75,52.75z"/>
<path id="EmiliaRomagna" fill="#eeeeee" stroke="#000000" stroke-width="0.25" stroke-miterlimit="10" d="M332,233.333
	c-13.433-16.723-13-36.667-13-36.667c-0.043-1.824,0.221,4.277-0.167-10.167c-0.334-12.449,3.128-3.696,7.932-6.589
	c-5.099-1.643-9.458-7.392-15.516-9.411c-9-3-12.805-3.793-18.25-0.25c-9.734,6.334-8.927,3.464-18.096,0.616
	c-9.985,1.675-21.713-0.435-27.404,1.884c-6.75,2.75-10.75-7-16-3.25c-10.551,7.537-9.5,1.5-13.5,0.75
	c-8.88-1.665-4.75-6-11.25-5.75s-7.75,1-9.25-3.25s-3.25-4-8.134-1.75s-5.116,4.5-12.116,0.5s-10-1.25-15.894,5.75
	s-3.311,6.176-1.606,9.5c4.646,9.058-1.25,3.5-1.5,10c-0.119,3.083-1.981,4.244-3.906,4.623c0.515,1.736-0.98,2.729-3.107,5.284
	c6.205,0.799,16.963,3.059,16.264,9.094c-0.533,4.598-3.75,7.75,3.75,7.5c4.098-0.137,5.064,1.072,6.584,3.133
	c2.556-0.612,5.328-1.807,7.043-4.133c3.872-5.25,3.372-6.25,8.122-2.75s-1.074,5.156,7.463,8s6.537,6.5,16.787,8.25
	s7.018,14.742,13.75,7c5-5.75,5.811,8.162,13.83,5C248,235,248,231.5,253.75,234s7.5,0.25,11-3.5s7.667-9.001,11-1
	c1.25,3,3.75-2,6.75,3s9.405-3.54,5,6.25c-2.25,5-5.5,0.75-1,9.25s2.5,5.75,10.25,9c4.334,1.818,6.48,2.931,9.191,3.56
	c2.014-1.39,3.887-3.875,4.559-8.31c1.25-8.25,6.504-3.045,10.625-6.25c3.375-2.625,6.042,0.96,7.292-1.915s3.833,0.54,2.583,3.79
	s4.625,2.415,4.625,4.77s6.375,5.355,6.75-5.02c0.052-1.441,0.122-2.68,0.204-3.761C340.193,242.445,336.96,239.508,332,233.333z"/>
<path id="Lombardia" fill="#eeeeee" stroke="#000000" stroke-width="0.25" stroke-miterlimit="10" d="M158.25,185.25
	c0.25-6.5,6.146-0.942,1.5-10c-1.705-3.324-4.287-2.5,1.606-9.5S170.25,156,177.25,160s7.231,1.75,12.116-0.5s6.634-2.5,8.134,1.75
	s2.75,3.5,9.25,3.25s2.37,4.085,11.25,5.75c4,0.75,2.949,6.787,13.5-0.75c5.25-3.75,9.25,6,16,3.25
	c5.691-2.319,17.419-0.209,27.404-1.884c-0.665-0.207-1.377-0.413-2.154-0.616c-15.456-4.032-7.102-8.367-12-10
	c-11.739-3.913-8.5-6.5-12.75-8.25c-8.582-3.534-4.75-8.5-10-8s-3.206-1.5-3.206-4c0-9.081-4.127-1.333-4.794-11
	s0.667-9,5.667-16.333c2.312-3.391,3.333-7.2,3.771-10.326c-1.917-0.507-4.336,0.721-6.688,2.159c-4.5,2.75-5.75,3.75-8.523-5.75
	S222.5,88.5,226,78.25s-3-12.75,0.75-15.5s6-9.5,0-10c-3.303-0.275-5.356-2.769-6.638-5.707c-0.806,0.917-2.096,0.771-3.946,0.624
	c-4.167-0.333-5.167,1.667-5.833-3.833s-12.833-2.333-12,7.345s7,7.822,7.167,14.655c0.098,4.002,0.5,6.333-3.833,6
	c-7.646-0.588-4-11.167-10-11.5s-6.667,7.167-12.5,7.5c-9.324,0.533-11-4.833-12-10.5s-0.833-6.833-5.833-5.833s-4,1.167-3,6.333
	s-1,12.667-6,18c-11.612,12.387-10.333,10.333-6.5,19.833s-7.333,8.833-8.167,3.167s-3.833-1.667-4.167-9.5
	c-0.189-4.455-3.453-5.299-7.335-6.577c-0.271,1.144-0.37,2.348-0.165,3.577c1,6-6.667,5.333-6.667,14s0.167,7.629,3.667,14.773
	s9.5,18.254,7,23.074s-4.25,7.82-7.5,2.57s-9,1-6,7.25s4.75,17.5,12.25,18s3.25-8,10.75,4.25s5.25,9,11.25,15
	c2.191,2.191,3.275,3.548,3.594,4.623C156.269,189.494,158.131,188.333,158.25,185.25z"/>
<path id="Veneto" fill="#eeeeee" stroke="#000000" stroke-width="0.25" stroke-miterlimit="10" d="M325.816,133.667
	c-4.684,6.333-8.483,11.167,2.017,2.333s22.167-13.333,28.333-15.5c1.785-0.627,2.803-0.961,3.452-1.313
	c-0.635-16.521-7.083-17.667-14.119-14.853c-7.5,3-11.5-0.167-13.333-5.833s-7.833-9.833-5.5-11.833
	c5.28-4.525,3.833-8.667-0.851-13.167s-3.316-6.333,0-8.833c7.076-5.334,3.517-10,10.017-10.167s1.833-1.833,5.833-5.167
	c2.127-1.773,1.992-6.657,1.398-10.842c-0.799-0.047-1.645-0.05-2.565,0.008c-5.295,0.335-8.786-0.101-11.219-1.026
	c-2.326,1.308-4.997,2.964-8.031,4.776c-8.013,4.783-6,1-9-1.5S308.75,35.5,308,42s-3.75,6.75-9.75,8.25s1.25,2-1.75,6.5
	c-5.153,7.73-4,6,1,12.5s3.75,11-2.25,11.25s-6.25,1.75-7.5,6.5c-2.636,10.018-3.75,2.5-9.75,3.25S259.5,101,259,108
	s-4.75,2.75-8.25,4.5s-6.75,6.25-7.75-3.25c-0.478-4.535-1.81-6.445-3.562-6.909c-0.438,3.125-1.459,6.935-3.771,10.326
	c-5,7.333-6.334,6.666-5.667,16.333s4.794,1.919,4.794,11c0,2.5-2.044,4.5,3.206,4s1.418,4.466,10,8
	c4.25,1.75,1.011,4.337,12.75,8.25c4.898,1.633-3.456,5.968,12,10c11.5,3,9.811,6.793,20.25,0c5.445-3.543,9.25-2.75,18.25,0.25
	c6.057,2.019,10.417,7.769,15.516,9.411c0.77-0.463,1.572-1.214,2.401-2.411c6-8.667-3.667-14.333-12.333-25
	s0.833-19.667,6.833-24.667s9-5.833,9.863-2.333S330.5,127.333,325.816,133.667z"/>
<path id="FriuliVeneziaGiulia" fill="#eeeeee" stroke="#000000" stroke-width="0.25" stroke-miterlimit="10" d="M394.333,106.167
	c-7.5-3.333-3.167-2-2.333-10.667s-3.5-1.5-5.833-4.5c-4.414-5.675,6.167-9,6.667-12.167s2-3.333-8.667-5.5s-4.667-7,7-15.333
	s4.5-10.167-9.167-10c-27.036,0.329-28.296-8.889-38.935-9.508c0.593,4.185,0.729,9.069-1.398,10.842c-4,3.333,0.667,5-5.833,5.167
	s-2.941,4.832-10.017,10.167c-3.316,2.5-4.684,4.333,0,8.833s6.13,8.642,0.851,13.167c-2.333,2,3.667,6.166,5.5,11.833
	s5.833,8.833,13.333,5.833c7.035-2.814,13.484-1.668,14.119,14.853c1.592-0.863,0.895-1.835,3.381-7.52
	c3.5-8,17.333-1.667,16.167,1.5s5.833,4.167,5.833,0.5c0-11.345,10.167-0.333,13.5,2.667s-8.5,9.167,3.167,6.5
	S401.833,109.5,394.333,106.167z"/>
</svg>
