<?xml version="1.0" encoding="utf-8"?>
<!-- Generator: Adobe Illustrator 16.0.3, SVG Export Plug-In . SVG Version: 6.00 Build 0)  -->
<!DOCTYPE svg PUBLIC "-//W3C//DTD SVG 1.1//EN" "http://www.w3.org/Graphics/SVG/1.1/DTD/svg11.dtd">
<svg version="1.1" id="Layer_1" xmlns="http://www.w3.org/2000/svg" xmlns:xlink="http://www.w3.org/1999/xlink" x="0px" y="0px"
	 width="672.999px" height="235px" viewBox="0 0 672.999 235" enable-background="new 0 0 672.999 235" xml:space="preserve">
<g id="main-map">
	<g id="east">
		<path id="Sarawak" fill="#77C6F9" d="M542.706,112.709c0.476-2.141-1.838-5.254-3.007-7.005c-1.166-1.751-0.97-3.696,1.362-7.199
			c2.337-3.502,1.557-6.227,1.362-9.518c-0.193-3.292-4.086-1.183-5.836-0.21c-0.704,0.392-1.439,0.183-2.065-0.205
			c-1.128,1.229-2.028,2.136-2.172,2.324c-0.513,0.664-3.144-0.294-3.863-0.776c-2.085-1.39-1.998-0.912-3.865,0.7
			c0.805,0.857,2.883,2.318,3.055,3.482c0.261,1.766,1.965,4.426,1.612,6.051c-0.451,2.114-0.28,4.468-0.288,6.621
			c-0.004,0.901,2.794,2.675,3.501,3.301c-1.997,3.416-3.325-1.08-5.061-0.388c-1.051,0.421-2.564-0.552-3.857-0.203
			c-0.71,0.195-0.599-4.398-0.684-4.935c-0.469-2.982-2.327-5.185-2.364-8.482c-0.012-1.089,0.879-4.224,0.008-5.314
			c0.804,1.007-3.981,2.838-4.77,2.867c-0.788,0.031-1.155,1.456-1.669,2.026c-1.185,1.321-2.499,0.527-2.063,2.58
			c0.529,2.485-0.265,7.084,1.271,9.16c0.751,1.015,2.157-0.024,1.735,1.756c-0.386,1.628-0.642,3.615-1.615,5.02
			c-1.886,2.724-1.535,4.574-4.505,6.66c-2.294,1.611-3.046,1.196-5.104-0.912c-0.636-0.65-1.222-1.705-1.846-2.474
			c-0.863-1.067-1.263-2.625-1.715-3.896c-0.382-1.07-4.189-0.599-5.314-0.641c2.377-1.962,0.587-4.122-0.528-6.303
			c-1.234-2.415-2.755-1.598-4.26-3.606c-4.544-6.059-7.868,8.714-9.271,11.261c-3.204,5.815-8.908,10.656-13.833,14.937
			c-4.429,3.847-7.302,9.663-10.971,14.231c-0.738,0.921-1.183,1.947-1.841,2.903c-1.108,1.608-3.043,0.386-4.278,1.205
			c-1.064,0.706,0.816,2.003,0.594,2.777c-0.358,1.25-3.403,2.728-4.461,3.284c-7.542,3.963-17.248,5.412-25.518,7.268
			c-3.887,0.873-7.744,1.419-11.716,1.719c-2.657,0.2-7.17,0.15-9.254,1.885c-2.237,1.863-5.942,3.112-6.741,5.986
			c-1.366,4.895,2.208,3.089,3.821,6.466c-0.756-0.036-4.015-0.597-4.161,0.12c-0.587,2.871,2.51,3.214,4.648,3.675
			c-1.235,1.586-1.863,0.376-3.332,0.027c-2.319-0.544-4.036,2.435-5.521-0.906c-2.9-6.522-4.484,7.076-2.003,6.388
			c0.149-0.054,0.296-0.125,0.435-0.236c-0.157,0.124-0.301,0.2-0.435,0.236c-0.707,0.254-1.512,0.029-2.145,0.709
			c-1.53,1.648,1.771,1.348,2.323,1.303c0.799-0.066,2.432,0.975,2.991-0.029c1.042-1.876,1.799-0.948,3.307-0.196
			c-1.332,0.241-2.526,0.902-2.431,2.434c-1.401-0.492-4.008-2.243-4.865-0.1c-0.85,2.13-1.218,4.493-1.936,6.674
			c-0.914,2.765-2.989,4.098-1.195,6.926c1.639,2.581,3.609,2.12,6.245,2.844c-1.216,1.159-2.13,0.097-3.601,0.097
			c-1.495,0-2.254-2.058-3.178-1.901c-1.877,0.311-5.43,0.663-4.108,3.737c1.052,2.436,4.367,7.223,7.329,5.896
			c2.058-0.923,2.528,0.171,4.044,1.314c0.65,0.018,1.233,0.245,1.75,0.683c0.371,0.367,0.736,1.841,1.189,2.036
			c-1.361-0.585-4.793-4.217-6.053-3.497c-3.021,1.728-5.592-0.265-8.394-2.221c-0.755-0.527-7.664-5.828-8.049-3.13
			c-0.412,2.894-1.767,3.351-4.086,5.061c0.284-2.431,2.721-2.318,3.207-4.509c0.488-2.194-7.647-1.346-8.265-2.788
			c-0.691-1.615-2.618-0.869-0.457-2.443c2.652-1.933-0.142-2.418-1.717-2.049c-0.766,0.176-0.692,3.023-2.361,1.28
			c-0.442-0.464-1.197-3.085-1.683-3.283c-0.06-0.024-1.182,4.316-1.468,4.938c-0.345-3.835-9.996-1.872-12.937-1.849
			c-1.614,0.012-1.706-1.451-2.423-2.406c-1.072-1.431-3.899-1.42-5.351-2.434c-2.156-1.497-2.339-3.802-2.259-6.147
			c-0.07,0.465-0.186,0.824-0.381,0.87c-0.729,0.184-2.804,0.336-3.012,1.104c-0.633,2.351-0.369,4.508,2.271,5.373
			c0.454,0.146,2.242,0.076,2.518,0.677c0.555,1.206-1.424,2.084-1.192,3.353c0.395,2.173-0.181,1.864,1.362,3.406
			c1.168,1.167,2.335,2.336,3.501,3.504c1.016,1.012,1.575,2.117,3.135,2.476c2.597,0.599,3.093,0.342,3.093,3.44
			c0,1.875,2.326,1.019,2.896,2.372c0.868,2.059,1.124,2.1,3.628,2.466c1.705,0.254,3.11,1.705,3.886,3.253
			c0.604,1.207,0.183,1.978,0.504,3.081c0.269,0.919,2.914,0.514,3.66,0.834c1.451,0.628,1.681,2.153,2.608,3.111
			c1.17,1.201,3.978,1.462,5.567,1.253c3.207-0.423,9.404-1.423,10.559-4.68c0.549-1.549,1.126-1.064,2.788-1.213
			c2.397-0.216,4.479-1.306,6.777-1.628c2.22-0.31,4.861,0.91,6.832,1.754c1.233,0.527,2.033,0.525,3.335,0.315
			c1.37-0.22,1.405,1.488,2.509,1.744c2.055,0.48,4.154-2.698,6.396-1.77c1.941,0.805,3.836,1.518,5.418-0.374
			c1.237-1.478,2.062-3.068,4.151-3.276c1.694-0.17,3.387-0.356,5.078-0.54c1.527-0.165,1.316-2.533,1.83-3.731
			c0.521-1.22,2.512-3.399,2.129-4.803c-0.229-0.842-1.171-0.938-1.52-1.63c-0.28-0.554,3.09-1.526,3.366-1.717
			c1.765-1.207,3.872-1.564,5.664-2.822c1.461-1.025,4.181-0.568,5.85-0.455c1.02,0.069,8.698,1.748,9.402,0.106
			c0.559-1.299,6.998-0.546,6.758,1.153c-0.266,1.881-1.683,1.92-2.816,3.13c-1.837,1.965,3.688,0.726,4.531,0.836
			c1.636,0.212,3.136,0.917,4.924,1.109c2.64,0.284,3.611,1.478,5.321,3.23c1.376,1.416,1.754-0.055,3.104-0.259
			c2.689-0.408,3.216,1.344,4.69,2.785c0.44,0.432,4.489-1.895,5.291-2.125c1.966-0.568,1.932-2.843,3.896-3.693
			c3.304-1.429,4.491-2.302,8.264-2.282c1.157,0.006,1.741,1.608,3.025,1.075c2.091-0.871,4.101-2.005,6.266-2.688
			c1.553-0.49,6.163,2.962,6.457,2.531c1.624-2.391,1.243-4.527,3.599-6.238c2.129-1.553,1.812-6.309,2.138-8.698
			c0.069-0.506,2.85-0.639,3.521-1.179c2.275-1.832-0.149-2.511,1.52-4.352c1.04-1.151-2.172-1.287-2.439-2.022
			c-0.435-1.198-0.592-3.12-0.752-4.392c-0.435-3.437,4.398-1.626,6.172-3.645c1.192-1.358-0.275-1.57,1.692-2.65
			c2.113-1.162,3.616-3.54,6.267-3.54c4.509,0,0.817-4.667-1.787-4.667c-1.074,0-1.699-0.355-0.841-1.557
			c0.563-0.789-0.235-1.892,0.16-2.319c0.683-0.748,1.183-1.389,1.227-2.467c0.044-1.063-1.289-1.348-1.289-1.78
			c0-0.432,1.449-2.984,1.931-3.198c1.867-0.823,4.052-2.255,4.394-4.438c1.303,0.497,1.234,1.604,2.578,1.757
			c1.596,0.176,2.059-0.591,3.55-0.591c3.115,0,2.473-5.978,2.271-7.724c-0.135-1.157,0.729-8.346,2.594-7.647
			c1.985,0.745,2.603-0.36,1.587-2.012c-1.558-2.535-1.597-4.512-1.853-7.425c-0.16-1.802,1.268-4.46,0.97-5.873
			c-0.276-1.323-2.372-0.572-0.508-2.006c1.066-0.823,1.624-1.886,1.997-3.044C540.78,117.322,542.23,114.85,542.706,112.709z"/>
		<g id="Sabah">
			<path fill="#487ECC" d="M664.866,72.354c-2.938,2.094-7.873-1.937-10.327-3.075c-3.054-1.418-4.648-3.137-7.267-5.43
				c-3.432-3.009-6.482-4.517-10.896-5.575c-1.477-0.354-3.476-0.673-4.407,0.857c-0.555,0.913-1.916,1.553-1.501,2.796
				c0.239,0.716-0.055,1.391-0.293,2.043c-0.818-1.107-1.117-2.392-2.522-1.987c-2.688,0.777-3.141,1.592-4.657-0.792
				c-0.969-1.521,4.304-1.732,4.979-2.055c2.906-1.394,0.601-4.01-0.479-5.958c-0.557-1.004-0.756-4.636-2.57-2.906
				c-1.831,1.745-2.558,3.016-5.133,3.513c-3.897,0.754-7.801,1.48-11.7,2.208c2.083-1.175,5.772-2.061,7.102-4.086
				c-0.974-0.551-1.944-1.102-2.918-1.653c1.937-1.586-0.578-3.794-1.486-5.352c-0.849-1.453,4.347-1.308,4.517-1.751
				c1.408-3.719,1.412-6.491-2.016-9.009c-1.556-1.145-3.961-2.332-5.102-3.928c-0.339-0.478-1.078,1.001-1.178,1.094
				c-1.082,1.034-1.857-0.22-2.464-0.946c-1.242-1.486-4.253,0.568-4.678-2.359c-0.172-1.179-0.115-2.42-0.631-3.529
				c-1.031-2.21-0.831-2.006-0.063-4.302c0.646-1.942-2.496-4.219-4.289-4.018c-0.932,0.104-6.31,2.208-3.137,3.65
				c1.233,0.562-1.153,4.533-1.697,5.708c-0.874,1.896-5.308,2.867-5.308,4.896c0,1.083-4.403,1.945-2.947-0.464
				c1.127-1.862,2.55-4.037,3.201-6.137c0.348-1.115-0.005-1.639-0.776-2.362c-1.33-1.244,1.459-1.712,0.718-3.198
				c-0.718-1.434-2.515-2.649-3.698-3.696c-0.601,0.872-1.2,1.959-1.362,3.015c-0.325,2.111-1.568,2.154-2.435,3.982
				c-0.669,1.409,0.721,3.581-0.407,5.063c-0.753,0.988-1.562,1.807-2.251,2.866c-1.432,2.197-3.15,6.123-5.61,7.353
				c-1.352,0.677-2.861,1.164-2.812,2.857c0.028,0.945-2.214,1.891-2.891,2.573c-1.31,1.323-2.472,2.786-3.651,4.222
				c-1.553,1.886-0.629,1.335-0.589,3.046c0.035,1.591-1.126,3.625-2.216,4.716c-1.518,1.518,0.595,3.119-1.708,4.48
				c-3.981,2.351-3.139,4.256-5.149,7.75c-1.748,3.038-8.767,2.7-9.194-1.238c-2.514,2.582-4.977,5.258-7.647,7.68
				c-5.145,4.664,2.674,5.964,5.511,6.604c2.964,0.666-1.419,5.91-4.307,9.054c0.626,0.387,1.361,0.596,2.065,0.205
				c1.75-0.973,5.643-3.081,5.836,0.21c0.194,3.292,0.975,6.016-1.362,9.518c-2.332,3.503-2.528,5.448-1.362,7.199
				c1.169,1.751,3.482,4.864,3.007,7.005s-1.926,4.613,0.063,9.603c0.681-2.125,0.726-4.571,2.122-6.437
				c1.076-1.433,3.012-1.338,4.502-2.096c1.737-0.883,0.993-2.174,1.224-3.787c0.237-1.656,2.973-0.259,3.937,0.228
				c2.175,1.098,2.234,3.338,4.604,1.128c1.305-1.216,0.923-2.437,3.115-2.258c1.983,0.162,4.047-0.081,6.001,0.358
				c2.732,0.612,1.159,5.161,4.67,2.534c1.548-1.157,1.171-2.819,3.143-1.898c0.548,0.256,1.343,0.215,1.927,0.252
				c3.198,0.202,6.412,0.19,9.613,0.198c3.779,0.008,9.754-1.122,12.922,0.592c3.164,1.709,4.459,5.317,8.092,5.393
				c2.797,0.059,2.827-1.54,4.804-3.517c-1.709-0.748-0.475-1.79-1.118-2.688c-0.46-0.645-2.306-1.582-0.587-2.663
				c1.02-0.64,7.409,3.063,8.223,4.183c3.273,4.5,8.337,1.799,12.443,0.602c3.033-0.883,6.061-1.256,9.191-1.544
				c1.28-0.116,3.147-0.073,4.122-1.088c0.779-0.808,0.413-2.445,1.774-2.35c1.146,0.078,5.66-0.659,2.957-2.333
				c-2.174-1.346-2.015-2.03-3.588-4.046c-0.738-0.946-4.115-2.086-5.29-2.028c-3.754,0.181-8.391,1.084-9.287-3.994
				c-0.345-1.932-2.36-2.403-1.207-4.214c1.49-2.343,3.946-1.995,6.396-2.463c0.375-0.071,3.334-1.692,3.107-1.746
				c1.628,0.375,1.35,4.781,3.979,2.364c1.209-1.111,2.563-0.049,4.067,0.166c2.854,0.409,5.639-1.526,8.237-2.438
				c3.93-1.376,11.349-1.586,13.003-6.31C670.96,77.288,669.435,69.1,664.866,72.354z"/>
			<path fill="#77C6F9" d="M592.558,9.913c0,0-0.907-4.411,0-4.93C593.467,4.464,597.227,2,597.227,2s3.244,0.259,3.244,1.815
				c0,1.558-0.908,1.427,0,2.725c0.409,0.585-0.153,2.95-1.033,2.879c-1.132-0.092,0.826-2.216-0.955-1.553
				c-1.116,0.416-2.573,1.099-3.329,2.047c-1.038,1.297-1.428,2.074-1.428,2.074L592.558,9.913z"/>
			<path fill="#77C6F9" d="M585.472,8.615c-0.06-0.442,0.386-1.644,0.634-2.086c0.447-0.788,2.348-0.923,2.92-1.66
				c0.573-0.742,0.185-3.081,1.556-1.362c0.619,0.778,0,1.021,0.145,1.8c0.111,0.584,1.43,1.686-0.109,1.728
				c-0.534,0.015-1.188-1.189-1.04-1.196c-0.652,0.029-1.269,0.72-1.096,1.436c0.028,0.122,1.553,0.193,0.988,0.859
				c-0.188,0.223-1.807-0.127-2.213-0.067C587.061,8.097,585.483,8.708,585.472,8.615z"/>
			<path fill="#77C6F9" d="M604.945,24.57c0,0-1.685-0.065-1.231,0.843c0.454,0.908,1.49,1.038,1.231,1.492
				c-0.259,0.454-2.27,0.259-2.787,0.714c-0.519,0.453-0.065,1.815,1.816,1.621c1.879-0.195,5.188,0,4.54-2.011
				C607.865,25.218,606.119,24.301,604.945,24.57z"/>
		</g>
	</g>
	<g id="west">
		<path id="Johor" fill="#487ECC" d="M166.271,209.208c-1.104-4.884-3.951-9.487-6.271-13.868c-1.313-2.479-2.646-4.971-4.192-7.313
			c-1.141-1.726,0.677-4.188-1.121-5.72c-1.699-1.449-4.85-3.965-4.667-6.448c0.097-1.297,0.775-1.575-0.181-2.419
			c-1.249-1.105-2.552-2.206-3.991-3.06c-0.646-0.386-1.286-0.745-1.915-1.101c-0.129,0.466-0.362,0.867-0.771,0.825
			c-0.941-0.097-1.201,1.168-0.91,1.655c0.293,0.485,0.974,0.778,0.293,1.652c-0.681,0.877,0.387,0.681,0.487,1.558
			c0.097,0.876,0.584,1.751-1.267,1.848c-1.848,0.098-6.322-3.405-8.755-3.989c-2.433-0.583-3.404,1.656-6.322,2.142
			c-2.918,0.486-9.338-5.837-10.8-7.395c-1.111-1.185-3.292-3.043-5.516-4.555c-0.155,1.989-0.481,4.598-1.164,5.659
			c-1.168,1.814-0.908,6.614-2.465,9.078c-1.556,2.466-2.593,2.596-2.853,4.41c-0.228,1.591-0.653,4.47-0.234,6.382
			c0.937,0.063,2.236,0.278,1.92,1.014c-0.545,1.27-0.248,2.937,0.66,3.896c1.17,1.235,2.34,2.47,3.511,3.705
			c1.672,1.764,1.213,0.654,3.519,1.048c1.492,0.257,2.998,1.658,4.207,2.473c2.046,1.378,4.083,2.773,6.149,4.121
			c1.541,1.002,3.053,1.821,4.773,2.483c1.684,0.649,5.176,1.415,5.979,3.286c0.857,1.999,1.419,4.176,1.937,6.283
			c0.477,1.943-0.12,3,1.984,2.919c1.48-0.057,3.63-0.107,4.763-1.224c0.803-0.787,0.743-2.286,1.427-3.243
			c0.875-1.226,2.18-1.868,3.685-1.785c2.64,0.148,6.452,1.715,9.031,0.583c2.681-1.175,2.473,1.441,2.338,3.603
			c1.833-0.729,3.66-1.551,5.34-2.596C167.645,213.397,166.931,212.124,166.271,209.208z"/>
		<path id="Melaka" fill="#77C6F9" d="M98.831,176.82c-2.074-0.809-6.354-0.099-8.69,0c-1.589,0.068-3.121,2.342-3.938,3.786
			c0.541,0.262,1.041,0.563,1.447,0.95c1.594,1.527,3.361,2.639,5.296,3.748c3.556,2.042,5.868,3.222,9.94,3.222
			c0.151,0,0.438,0.004,0.77,0.024c-0.419-1.912,0.006-4.791,0.234-6.382c0.244-1.708,1.177-1.926,2.583-3.999
			C104.238,178.16,100.472,177.46,98.831,176.82z"/>
		<path id="Negeri_Sembilan" fill="#67AFE5" d="M109.208,168.681c0.683-1.062,1.009-3.67,1.164-5.659
			c-0.697-0.472-1.399-0.909-2.072-1.282c-2.821-1.557-7.394-6.127-9.047-7.197c-1.654-1.071-2.725-1.365-4.767-1.654
			c-2.043-0.294-3.989-0.975-5.352-0.681c-1.362,0.289-1.653,0-1.945-0.78c-0.292-0.777-1.07-1.652-1.598-2.334
			c-0.48-0.619-1.102-0.113-2.599-0.016c-0.123,0.622-0.159,1.361,0.142,1.963c0.648,1.297,1.687,4.41,1.687,4.41
			s-2.075,5.316-2.854,6.872c-0.778,1.559-2.464,0.908-3.762,0.778c-1.296-0.131-1.037,4.022-1.167,5.189
			c-0.094,0.85-0.601,3.14-0.869,4.325c0.072,0.023,0.143,0.052,0.216,0.074c1.092,0.342,2.207,0.704,3.22,1.242
			c1.213,0.643,0.761,1.891,1.15,3.071c0.73,2.213,3.398,2.614,5.445,3.604c0.817-1.444,2.349-3.718,3.938-3.786
			c2.335-0.099,6.616-0.809,8.69,0c1.642,0.64,5.408,1.34,7.644,1.35c0.089-0.13,0.177-0.265,0.269-0.411
			C108.3,175.295,108.041,170.495,109.208,168.681z"/>
		<path id="Selangor" fill="#487ECC" d="M78.207,163.101c1.298,0.13,2.983,0.78,3.762-0.778c0.779-1.556,2.854-6.872,2.854-6.872
			s-1.038-3.113-1.687-4.41c-0.301-0.602-0.265-1.342-0.142-1.963c-0.15,0.009-0.305,0.016-0.474,0.016
			c-1.848,0-3.696-2.431-4.573-3.21c-0.875-0.777,0.39-1.07,0.973-1.945c0.584-0.875-1.069-0.974-1.361-2.627
			c-0.292-1.653,0.584-2.724,1.653-3.404c1.07-0.681-0.194-3.114-2.82-5.059c-2.625-1.945-3.923-2.396-3.924-2.397
			c0.021,0.188,0.033,0.295,0.033,0.295s-2.595,3.301-3.632,3.561c-1.038,0.259-3.632-3.503-5.318-4.54
			c-1.686-1.038-1.686,1.037-1.167,2.594c0.518,1.556-0.779,1.816-3.113,0.778c-2.335-1.038-10.507-4.54-11.415-5.059
			c-0.773-0.441-5.116-0.79-6.391-0.883c0.118,0.179,0.242,0.364,0.379,0.567c1.187,1.742,3.852,2.953,5.449,4.397
			c1.276,1.156,2.648,2.2,3.871,3.415c1.407,1.397,2.013,3.057,3.075,4.682c1.4,2.142,3.885,3.348,4.944,5.572
			c1.147,2.41,1.628,5.351,3.138,7.564c0.422,0.619,0.842,1.063,1.067,1.794c0.176,0.574,0.819,0.566,0.938,0.95
			c0.215,0.693-1.017,1.096-1.043,1.673c-0.048,1.072-0.122,2.144-0.122,3.214c0,1.238-3.127,1.824-0.925,3.242
			c1.744,1.128,3.263-0.188,3.722,2.213c0.588,3.083,3.044,3.365,5.609,4.359c1.527,0.592,3.044,1.266,4.604,1.775
			c0.269-1.186,0.775-3.476,0.869-4.325C77.17,167.123,76.911,162.97,78.207,163.101z"/>
		<path id="Pahang" fill="#77C6F9" d="M79.212,137.906c-1.069,0.681-1.945,1.751-1.653,3.404c0.292,1.653,1.946,1.752,1.361,2.627
			c-0.583,0.875-1.848,1.168-0.973,1.945c0.876,0.779,2.725,3.21,4.573,3.21c1.849,0,2.544-0.68,3.072,0
			c0.527,0.682,1.306,1.557,1.598,2.334c0.292,0.78,0.583,1.069,1.945,0.78c1.363-0.294,3.308,0.387,5.352,0.681
			c2.042,0.289,3.112,0.583,4.767,1.654c1.653,1.07,6.226,5.641,9.047,7.197c2.823,1.558,6.13,4.28,7.588,5.837
			c1.461,1.558,7.881,7.881,10.8,7.395c2.918-0.485,3.89-2.725,6.322-2.142c2.433,0.584,6.907,4.087,8.755,3.989
			c1.851-0.097,1.364-0.972,1.267-1.848c-0.1-0.877-1.167-0.681-0.487-1.558c0.68-0.874,0-1.167-0.293-1.652
			c-0.291-0.487-0.031-1.752,0.91-1.655c0.409,0.042,0.642-0.359,0.771-0.825c-2.034-1.163-3.938-2.317-5.518-4.312
			c-2.291-2.894-1.447-6.369-1.624-9.746c-0.141-2.723-0.37-5.435-0.456-8.156c-0.035-1.052-0.076-2.128,0.045-3.176
			c0.147-1.253,2.436-2.807,1.235-4.006c-2.239-2.238-7.789-8.86-2.76-10.872c1.397-0.558-0.053-1.945-0.163-2.985
			c-0.17-1.621,1.999-2.032,1.265-3.713c-0.696-1.59-0.671-2.945,0.153-4.452c0.318-0.583,0.494-1.245,0.6-1.941
			c-6.167,0.421-3.863,4.43-3.116,5.801c0.779,1.428-1.295,3.244-1.686,4.412c-0.39,1.167-2.464-2.206-3.892-2.725
			c-1.427-0.518-2.205-3.631-3.89-4.021c-1.687-0.389-4.542,0.13-5.709,0c-1.167-0.129-0.387-4.41-0.127-5.577
			c0.257-1.167,1.167-2.205,3.372-2.595c2.205-0.388,0.647-1.945,0-3.762c-0.65-1.815-1.298-1.945-3.115-1.296
			c-1.814,0.648-2.075-1.039-2.982-2.335c-0.907-1.297,0.518-1.039,0.778-3.243c0.26-2.205-1.944-1.815-4.15-2.076
			c-2.153-0.254-1.958-1.25-2.31-2.98c-0.678,0.093-1.572,0.14-2.166-0.126c-1.071-0.48-0.292,2.328-1.458,2.133
			c-1.168-0.194-1.558,0.973-2.335,1.741c-0.779,0.767-1.946-1.741-3.406-1.838s-1.459,1.459-2.043,2.432
			c-0.583,0.973-1.36,0.39-2.334-0.593c-0.972-0.984-1.653,0.983-3.109,0.983c-1.455,0-2.729-3.892-2.729-3.892l-6.226-0.389
			c0,0-0.389,3.502-0.973,4.573c-0.584,1.069-0.973,0.681-0.875,0c0.097-0.682-0.486-1.751-1.265-1.946
			c-0.778-0.193-1.167-1.264-1.556-2.237c-0.39-0.973-1.557-0.966-1.557-0.966s-0.195,5.051-1.071,5.218
			c-0.875,0.167-1.751,1.584-3.21,2.266c-1.46,0.681-2.724-0.099-3.891-0.726c-1.168-0.627-0.876-0.441-2.724-0.054
			c-1.849,0.39-4.683-1.487-4.683-1.487l0,0c0.098,0.984,0.24,2.028,0.24,2.817c0,1.686,3.631,9.729,5.188,11.544
			c1.556,1.814,3.372,3.891,3.632,5.707c0.23,1.613,0.972,8.287,1.134,9.764c0.001,0.001,1.299,0.452,3.924,2.397
			C79.018,134.792,80.282,137.225,79.212,137.906z"/>
		<path id="Terengganu" fill="#91E8FF" d="M99.869,66.207c0.13,2.983,1.947,5.188,1.557,6.485c-0.389,1.297-1.557,6.616-0.519,7.523
			c1.039,0.909,3.113,2.725,3.113,4.411c0,1.686,1.816,5.447,2.983,5.837c1.168,0.39,2.465,3.125,2.855,4.936
			c0.387,1.809,0.129,2.846,2.334,3.106c2.206,0.261,4.41-0.129,4.15,2.076c-0.26,2.204-1.685,1.946-0.778,3.243
			c0.907,1.296,1.167,2.983,2.982,2.335c1.817-0.649,2.465-0.519,3.115,1.296c0.647,1.817,2.205,3.374,0,3.762
			c-2.206,0.39-3.115,1.428-3.372,2.595c-0.26,1.167-1.04,5.448,0.127,5.577c1.168,0.13,4.022-0.389,5.709,0
			c1.685,0.39,2.462,3.503,3.89,4.021c1.428,0.519,3.502,3.892,3.892,2.725c0.391-1.168,2.465-2.983,1.686-4.412
			c-0.747-1.372-3.051-5.38,3.116-5.801c0.224-1.436,0.159-3.015,0.483-4.34c0.531-2.183-1.281-5.212-0.097-7.109
			c1.15-1.84-0.392-3.964-0.41-6.13c-0.012-1.537,0.167-4.877-0.885-6.063c-0.793-0.89-1.356-2.073-1.952-3.095
			c-3.825-6.555-6.418-14.441-12.303-19.46c-2.095-1.787-4.954-2.894-7.267-4.404c-1.609-1.05-3.281-2.125-4.672-3.461
			c-1.706-1.641-2.851-3.53-4.745-4.93l-4.214,3.183C100.649,60.111,99.74,63.223,99.869,66.207z"/>
		<path id="Kelantan" fill="#487ECC" d="M66.955,102.104c1.848-0.388,1.556-0.574,2.724,0.054c1.167,0.627,2.431,1.406,3.891,0.726
			c1.458-0.682,2.335-2.1,3.21-2.266c0.875-0.167,1.071-5.218,1.071-5.218s1.167-0.007,1.557,0.966
			c0.388,0.973,0.778,2.044,1.556,2.237c0.779,0.195,1.362,1.265,1.265,1.946c-0.097,0.681,0.292,1.069,0.875,0
			c0.584-1.071,0.973-4.573,0.973-4.573l6.226,0.389c0,0,1.273,3.892,2.729,3.892c1.456,0,2.137-1.967,3.109-0.983
			c0.974,0.983,1.75,1.566,2.334,0.593c0.584-0.972,0.584-2.529,2.043-2.432s2.626,2.605,3.406,1.838
			c0.778-0.769,1.167-1.936,2.335-1.741c1.167,0.195,0.387-2.613,1.458-2.133c0.594,0.266,1.487,0.219,2.166,0.126
			c-0.009-0.042-0.017-0.083-0.024-0.126c-0.39-1.81-1.687-4.546-2.855-4.936c-1.167-0.39-2.983-4.151-2.983-5.837
			c0-1.687-2.074-3.502-3.113-4.411c-1.038-0.908,0.13-6.227,0.519-7.523c0.39-1.297-1.427-3.502-1.557-6.485
			c-0.128-2.984,0.78-6.096,0.78-6.096l4.214-3.183c-0.161-0.119-0.324-0.236-0.497-0.346c-1.495-0.965-2.346-3.095-3.296-4.577
			c-0.496-0.774-1.003-1.564-1.357-2.416c-0.429-1.029-0.121-2.167-0.652-3.181c-1.396-2.658-7.418-2.636-9.957-3.679
			c-0.545,1.821-0.308,4.789-2.075,5.967c-1.293,0.862-1.923,2.289-2.961,3.405c-1.122,1.205-0.144,4.503-1.19,5.026
			c-0.984,0.493-1.346,0.912-1.646,1.44c1.516,1.968,3.635,4.688,4.142,5.176c0.809,0.777-0.94,2.983-0.162,4.669
			s-1.428,5.059-3.243,5.795c-1.816,0.737-4.54-1.386-4.28-0.606c0.259,0.777-1.815,1.685-5.188,1.296
			c-3.374-0.389-5.189,9.599-5.708,11.026c-0.519,1.426-0.908,2.205-0.778,3.891c0.129,1.686-1.946,4.67-2.335,5.707
			c-0.39,1.037-0.779,1.557-1.297,2.465c-0.276,0.481-0.221,1.515-0.11,2.63l0,0C62.272,100.618,65.106,102.495,66.955,102.104z"/>
		<path id="Perak" fill="#67AFE5" d="M59.27,133.139c2.334,1.038,3.631,0.778,3.113-0.778c-0.519-1.557-0.519-3.632,1.167-2.594
			c1.686,1.037,4.28,4.799,5.318,4.54c1.038-0.26,3.632-3.561,3.632-3.561s-0.908-8.243-1.167-10.06
			c-0.26-1.815-2.076-3.892-3.632-5.707c-1.557-1.816-5.188-9.859-5.188-11.544c0-1.688-0.648-4.54-0.13-5.447
			c0.518-0.909,0.907-1.428,1.297-2.465c0.389-1.037,2.464-4.021,2.335-5.707c-0.13-1.686,0.259-2.465,0.778-3.891
			c0.519-1.428,2.334-11.415,5.708-11.026c3.373,0.389,5.447-0.519,5.188-1.296c-0.259-0.779,2.464,1.343,4.28,0.606
			c1.815-0.737,4.021-4.109,3.243-5.795s0.97-3.892,0.162-4.669c-0.507-0.488-2.626-3.208-4.142-5.176
			c-0.243,0.427-0.443,0.926-0.9,1.593c-0.657,0.96-2.295-1.621-3.609-0.945c-1.322,0.68-1.242,1.039-2.033-0.275
			c-0.783-1.304-0.795-3.064-1.695-4.217c-1.803-2.316-3.949,0.948-5.554,1.108c-1.192,0.12-1.888-0.627-2.898-0.012
			c-1.41,0.857-1.421,2.139-3.236,2.313c-2.503,0.24-2.192,3.233-3.36,4.991c-2.186,3.289-3.215,0.56-4.762-1.751
			c-0.557-0.832-1.345-1.418-1.726-2.282c-0.874,0.846-1.845,2.003-2.567,3.357c-1.037,1.945-1.037,5.447-2.075,6.745
			c-1.038,1.297-1.945,3.114-1.945,5.018s-1.168,1.598-3.373,2.116c-2.205,0.52-2.206,1.687-3.244,2.595
			c-1.038,0.909-2.205,4.28-3.762,4.929c-1.557,0.648-0.908-1.297-1.686-2.335c-0.44-0.587-1.378-0.966-2.111-1.185
			c0.079,0.336,0.16,0.67,0.245,0.998c0.345,1.316-3.897,0.798-2.619,3.665c0.705,1.581,0.985,3.48,2.046,4.883
			c0.953,1.261,3.579,1.172,4.836,2.446c1.817,1.838-1.043,7.109,2.531,6.705c-0.863,0.792-1.149,1.999-0.779,3.113
			c0.656,1.967-1.022,3.572-1.167,5.447c-0.258,3.361-1.145,6.867,2.164,9.187c1.864,1.308,4.95,2.312,3.549,4.897
			c-1.441,2.662-1.478,3.334-0.039,5.528c1.275,0.093,5.618,0.441,6.391,0.883C48.763,128.599,56.935,132.101,59.27,133.139z"/>
		<g id="Pinang">
			<path fill="#4D80D2" d="M20.674,70.805c0,0.007,1.603,0.642,1.783,0.617c0.708-0.093,1.106-1.056,2.054-0.905
				c0.919,0.147,1.663,1.768,1.901,2.653c0.27,1.002-0.316,1.218-0.624,2.026c-0.479,1.261,0.188,2.273-1.159,2.7
				c-0.325,0.103-3.113-0.272-3.102-0.308c0-0.001,0.351-1.167,0.351-1.167s-0.864-4.12-0.877-4.182
				C20.895,71.735,20.67,71.313,20.674,70.805z"/>
			<path fill="#4D80D2" d="M33.586,79.34c-0.194-1.556,0.487-9.046,0-11.09c-0.485-2.043-1.556-1.265-3.891-1.362
				c-0.563-0.024-1.04-0.07-1.441-0.126c0.166,0.652-0.268,1.982-0.375,2.559c-0.13,0.69-0.549,1.599-0.453,2.287
				c0.19,1.36,1.424,2.381,1.909,3.632c0.624,1.608,0.961,3.383,1.361,5.089c0.732,0.219,1.67,0.598,2.111,1.185
				c0.082,0.11,0.146,0.233,0.201,0.359C33.328,81.247,33.704,80.277,33.586,79.34z"/>
		</g>
		<path id="Kedah" fill="#77C6F9" d="M53.775,47.284c-2.052-1.271,2.385-3.98-0.063-4.915c-1.154-0.439-3.981-0.779-5.186-0.492
			c-0.951,0.227-2.588,1.347-3.144,0.028c-1.071-2.539,0.118-5.398-2.822-6.516c-2.004-0.763-2.272,0.19-4.212,0.444
			c-1.584,0.208-2.412-1.027-3.612-1.724c-2.11-1.229-4.125-0.922-6.081-1.874c0.185,2.202-1.958,5.085-3.37,5.955
			c-1.175,0.723-2.95,3.145-3.919,4.547c0.07,0.095,0.14,0.19,0.215,0.282c1.028,1.263,2.6,1.815,3.574,3.212
			c0.905,1.299,1.725,3.009,2.112,4.54c0.704,2.785-0.057,6.414-0.2,9.245c-0.149,2.976-0.353,4.026,1.123,6.574
			c0.028,0.049,0.048,0.109,0.064,0.172c0.401,0.057,0.878,0.103,1.441,0.126c2.335,0.097,3.405-0.681,3.891,1.362
			c0.487,2.043-0.194,9.534,0,11.09c0.118,0.937-0.258,1.907-0.577,2.532c0.462,1.065,0.095,2.555,1.485,1.976
			c1.557-0.649,2.724-4.021,3.762-4.929c1.038-0.908,1.039-2.075,3.244-2.595c2.205-0.518,3.373-0.212,3.373-2.116
			s0.907-3.72,1.945-5.018c1.038-1.297,1.038-4.799,2.075-6.745c0.722-1.354,1.693-2.511,2.567-3.357
			c-0.114-0.261-0.193-0.546-0.215-0.873c-0.038-0.544-0.099-2.929,0.545-3.072c2.712-0.603,2.358-1.203,3.09-3.905
			C55.57,48.688,56.022,48.675,53.775,47.284z"/>
		<g id="Perlis">
			<path fill="#91E8FF" d="M25.285,38.189c1.413-0.87,3.555-3.753,3.37-5.955c-0.358-0.174-0.713-0.384-1.067-0.661
				c-1.185-0.92-0.156-3.03-1.424-4.088c-1.492-1.244-1.946,0.071-3.453-1.545c-1.431-1.536-1.535,2.887-1.624,3.63
				c-0.11,0.919-0.102,1.821-0.39,2.715c-0.32,0.992-1.509,1.628-1.509,2.662c0,2.749,0.467,5.516,2.178,7.79
				C22.335,41.334,24.11,38.913,25.285,38.189z"/>
			<path fill="#91E8FF" d="M2.104,36.304c-0.434,0.668,0.6,1.597,1.129,2.534c0,0,1.557-0.129,1.687,0.908
				c0.138,1.099-0.421,3.06,0.005,4.005c0.699,1.552,1.444-0.106,2.289-0.888c0.887-0.823,1.347-0.9,2.535-1.065
				c0.718-0.1,2.516,0.156,2.889-0.699c0.162-0.372-0.585-3.016-0.752-3.551c-0.341-1.09-2.538-3.579-3.854-3.25
				c-1.554,0.39-0.371,0.779-1.288,1.297c-1.223,0.693-2.918-0.21-4.063,0.283C2.39,36.003,2.206,36.146,2.104,36.304z"/>
			<path fill="#91E8FF" d="M7.233,45.202c0.366-0.929,0.861-2.084,1.734-2.646c1.015-0.653,1.784-0.011,1.669,1.154
				c-0.111,1.108-0.757,1.43-1.137,2.565c-0.301,0.908-1.379,1.021-2.169,0.779C6.81,46.895,6.882,46.092,7.233,45.202z"/>
		</g>
	</g>
</g>
</svg>
