<?xml version="1.0" encoding="utf-8"?>
<!-- Generator: Adobe Illustrator 23.0.0, SVG Export Plug-In . SVG Version: 6.00 Build 0)  -->
<svg version="1.1" id="Layer_1" xmlns="http://www.w3.org/2000/svg" xmlns:xlink="http://www.w3.org/1999/xlink" x="0px" y="0px"
	 width="663px" height="903px" viewBox="0 0 663 903" style="enable-background:new 0 0 663 903;" xml:space="preserve">
<g id="Northkorea" >
	<path id="Ryanggang" fill="#ebf0f4" stroke="#cad7e0" stroke-width="0.25" d="M186,131.5c-1.5-0.2-1.5,2.2-2.8,2.8c-1.3,0.7-3.1,1.8-4.9,0c-1.8-1.8-0.4,8.8,1.5,9.2
		c1.9,0.3,4.4,2.9,3.3,5.1c-1.2,2.2,5.7,6.4,5.6,8.9c-0.1,2.5,4.9,0.4,3.9,2.4c-1,2-1.5,10.1,1.4,10.6c2.9,0.5,2.4,0.7,3.4,2.8
		c1,2.2,2.3,0.2,3.9,0.5c1.6,0.3,5.6,1.6,6.3-1.5c0.7-3.1,4.8-4.4,5.9-1.7c1.2,2.8,2.2,4.7,2.4,7.3s2,4.4,3.6,3.1
		c1.6-1.3,7.8-7.1,8.8-8.8c0.9-1.7,7.4-0.6,7.4,1.5c0,2.1-1.3,5.5-1.3,7c-0.1,1.5-1.1,2.5-2.8,3.7c-1.7,1.2-1.6,3.6-1.1,4.6
		c0.5,1-2.4,3.9-5.1,6.3c-2.7,2.4,1.3,3.9,0.5,5.7s0.1,5.6,1.6,5.2s1.7,5.3,3.7,6.1s2.4,1.4,2.4,3.9s-0.5,4.6,2.1,4.4
		c2.6-0.2,1.7,1.6,1.4,3.4c-0.3,1.8,0.1,3.8-1.5,5.4c-1.6,1.7-3.4,8.8,0.3,8.3s8.8-7.9,8.8-10s2.1-1.8,2.7-2.4
		c0.6-0.7,1.3-4.3,3.4-4.6c2.2-0.3,3.8-1,4.3-1.6c0.6-0.6,3.9,0.4,3.8,2s3.9,3.8,5.2,1.3s2.6-4.3,4.2-4.3c1.6,0,2.4-3.8,5.3-5
		c2.8-1.2,2.4-5.8,2.3-6.8c-0.2-1,0.6-1.5,1.4-2.2c0.8-0.7-0.2-2.9,1.4-3.5c1.6-0.6-0.3-3.6,0.7-4.9c1-1.3,2.8-4.9,1.6-6.3
		c-1.3-1.4,0.8-3.6,3-3.6s1-1.6,3.8-1.3s6.1-2,7-4.4c0.9-2.4,6.2-3.7,4.7-4.8c-1.5-1.1-1.8-5.4,1.5-6.1c3.3-0.7,2.5,2.1,4.7,1.2
		c2.2-0.9,6.4-2.8,6.8-1.3c0.3,1.4-1,4.9,5.2,4.4c0-0.2,0.2-0.4,0.5-0.7c1.7-1.4,0.2-5.5,1.1-8.3s3.4-4,0.9-6s-0.1-4.9-2-5.8
		c-1.8-0.9,0.1-2.4-0.7-6.8s3.1-1.6,2.6-4.6s0.5-3,3-6.1s-2.5-2.4-2.5-4.1s-0.6-2.3-4.1-3.1s-1.2-2.8-1.2-5.5s-3.8-1.9-2.3-4.9
		s-0.4-4.9,0.4-6.1s0.1-1.8-0.9-3.2s3.8-5,3.2-6.8c-0.7-1.8,3.8-7.3,4.7-8.2c0.5-0.5-0.4-4-1.2-6.6c-1,0.8-2.6,0.3-3.3-0.3
		c-0.9-0.8-1.7,1.2-1.6,2.8s-0.3,3.8-0.3,3.8s-6.8,1-7.8-0.8c-1.1-1.8-3.6,0.2-3.6,0.2s-1.2-3.6-3.3-1.1c-2.1,2.5-4.4,2.9-4.9,0.8
		c-0.5-2.1-5,2.4-6.4,2.5c-1.4,0.1-7.3,0.5-7.3-1.9L257,92.4c0,0-5.3,2.6-4.3,4.1c1.1,1.5,3.6,3.3,3.7,5.3c0.1,2,0.5,12.2,0.5,12.2
		s3.1-0.1,2.9,2.9s2.8,8.6,6.8,8.4c0,0,1.4,2,1.7,3s2,0.6,1.8,2.1s1.3,0.7,0.9,2.2c-0.4,1.5-1.4,1.9-2,3.9c-0.6,2-4.3,5.3-4.6,7.4
		c-0.3,2.1-4.9,8.3-6.6,8.4s-0.5-1.8-3.1-1.8s-2.3-2.6-2.3-2.6s-1.3-0.4-1.8-0.2s-1.3-0.6-1.9-0.9c-0.6-0.3-3.4-1.3-3.4-2.5
		s-1.1,3.4-3.1,1.6s-2.1,3.3-3.7,2.3s-9.3-1.8-11.8,0.1c-2.5,1.9-1.2-2-4.9-1.8s-1.2-4.4-3.6-3.9s-4.3,0.3-4.3-0.4
		c0-0.7-1.2,0.1-1.2,1.2s-3.2,1.6-3.5-0.6c-0.3-2.1-3.2-0.6-3.1,0.6c0.1,1.2-5.6-1.4-5.2-2.8s-1.4,0-1.4,0s-4-3.3-6.2-2.9
		s0.6-1-2.9-0.8s2.6-4.1,3.3-4.1s0-1.4-2.1-1.4c-2.1-0.1,0-2.5-2.4-2.1c-0.4,0.1-0.6,0.1-0.8,0C187.7,130.5,186.7,131.6,186,131.5z"
		/>
	<path id="Hamnam" fill="#ebf0f4" stroke="#cad7e0" stroke-width="0.25" d="M322.6,216.2c0.8-2.9-4.8-6.1-4.8-8c-0.1-1.9,0.7-4.9-1.8-7.9s1.3-3.8,1.1-5.9s-0.6-5.9,1.5-6.4
		s-0.5-3.6,0.4-6.4s2.5-4,1.1-5.6c-1.1-1.3-3.1-1.7-2.9-2.6c-6.1,0.5-4.8-3.1-5.2-4.4c-0.4-1.5-4.6,0.3-6.8,1.3
		c-2.2,0.9-1.3-1.8-4.7-1.2c-3.3,0.7-3,5-1.5,6.1c1.5,1.1-3.8,2.4-4.7,4.8c-0.9,2.4-4.3,4.7-7,4.4s-1.5,1.3-3.8,1.3s-4.3,2.2-3,3.6
		c1.3,1.4-0.6,5-1.6,6.3c-1,1.3,0.9,4.3-0.7,4.9c-1.6,0.6-0.6,2.8-1.4,3.5c-0.8,0.7-1.6,1.2-1.4,2.2c0.2,1,0.6,5.7-2.3,6.8
		c-2.8,1.2-3.7,5-5.3,5c-1.6,0-2.9,1.8-4.2,4.3c-1.3,2.5-5.3,0.3-5.2-1.3c0.2-1.6-3.2-2.6-3.8-2c-0.6,0.6-2.2,1.3-4.3,1.6
		c-2.2,0.3-2.8,3.9-3.4,4.6c-0.6,0.7-2.7,0.3-2.7,2.4s-5.1,9.5-8.8,10s-1.9-6.7-0.3-8.3c1.6-1.7,1.3-3.6,1.5-5.4
		c0.3-1.8,1.2-3.6-1.4-3.4c-2.6,0.2-2.1-1.9-2.1-4.4s-0.4-3.2-2.4-3.9s-2.2-6.5-3.7-6.1s-2.3-3.4-1.6-5.2c0.8-1.8-3.2-3.3-0.5-5.7
		c2.7-2.4,5.6-5.3,5.1-6.3s-0.6-3.4,1.1-4.6c1.7-1.2,2.7-2.2,2.8-3.7c0.1-1.5,1.3-4.9,1.3-7c0-2.1-6.5-3.2-7.4-1.5
		c-0.9,1.7-7.2,7.4-8.8,8.8c-0.7,0.6-1.5,0.6-2.1,0.1c-2.1,2.7-6.3,7.9-6.9,8.2c-0.8,0.5-3,8.7,0,9.5c3,0.8,1.5,8.5-2.8,8
		s-5.7-3.2-6.8-1.3c-1.2,1.8-1.5,2-1.2,3s-1.1,5-0.1,6.7c1,1.7-3.4,5.8-4.5,4.5c-1.2-1.3-4.7-1.3-5.3,1.8c-0.5,3.2-1.9,3.3-3.7,1.8
		s-3.2,1.5-2.7,4.5s0.3,4.2-1.7,5c-2,0.8-2.3,3-2.3,4.8c0,1.2-0.9,1.5-1.7,2.1c2.1,1.4,6.3,4,8.3,3.9c2.7-0.2,6.2,3.7,4.5,7.2
		s2.2,5.7,3.3,6.7c1.2,1,1.7,5.2-1.7,5.2c-3.3,0-5.8,6.8-5.3,9.2c0.5,2.4,0.8,10.1,2.2,10.9c1.3,0.8-6.2,1.2-7,2.5
		c-0.8,1.3-5.7-4-9-4s-6.7,2.8-7.6,5.8s-3.1,7.7-1.4,8.3s0.4,3.8-0.6,5.2c-1.1,1.3,0.1,3.8-1.6,5.3c-1.7,1.5-2.7,3-1.8,5
		c0.8,2,4.8,4.3,4.3,6.7c-0.5,2.3-1.7,4.6-0.3,5c1.3,0.5-5.2,5.5-3.3,6.5c1.8,1,5-0.2,6.7,2c1.7,2.2,7.2,0,7.5,2
		c0.3,2,1,6.2,3.8,5.3c2.8-0.8,1.8-5.3,5.3-5.8s6.3-6.3,4.8-8.7s2.5-1.5,3.7,0.3c1.2,1.8,6-0.3,6.3-1.6c0.3-1.4,4.2-6,5.2-4.7
		c1,1.3,3.7,3.3,6,3c1.2-0.2,4-0.9,6.7-1.1c-0.3-1.8-0.2-3.6,0.8-4.5c2.9-2.8,2.8-4.6,2.4-7c-0.4-2.4-2.9-2-2.9-2
		c-5.3-4.9,2-9,2.5-10.4c0.5-1.4,1.6-3.5,3.8-4.4c2.1-0.9,5.9-4.6,7.5-3.9s3.8-0.6,3.8-0.6s0.4-4.9,2-2c1.6,2.9,4.9-2.5,5.3-3.3
		s-0.3-5.4,1.3-4.4s4.8-3.9,5.3-5.4c0.5-1.6,3-2.9,3.4-1.4s6,0.6,7.5,1.3c1.5,0.6,6.3-0.6,6.3-0.6s1.6-3.9,2.3-2.4
		c0.7,1.5,3.3,2.7,4.8,2.3c1.5-0.3,1.8-5.5,1.8-5.5s5.7,1,6.7-1.3s5.2-7,7.8-5.3c2.7,1.7,4.8-2,5.8-3.7s-2-3.7-2.3-6.2
		c-0.3-2.5,4.5-7.2,9.3-5c4.8,2.2,14.2-10.2,14.2-10.2l4.7-1.8c2.5,3.2,5-4.5,5-4.5c2.2,0,2.9-2.6,3.1-4.7
		C324.1,221.5,321.9,218.7,322.6,216.2z"/>
	<path id="Chagang" fill="#ebf0f4" stroke="#cad7e0" stroke-width="0.25" d="M177.6,239.8c0.8-0.6,1.7-1,1.7-2.1c0-1.8,0.3-4,2.3-4.8c2-0.8,2.2-2,1.7-5s0.8-6,2.7-4.5
		c1.8,1.5,3.2,1.3,3.7-1.8c0.5-3.2,4.1-3.2,5.3-1.8c1.2,1.3,5.5-2.8,4.5-4.5c-1-1.7,0.5-5.7,0.1-6.7s0-1.2,1.2-3
		c1.2-1.8,2.5,0.8,6.8,1.3s5.8-7.2,2.8-8c-3-0.8-0.8-9,0-9.5c0.6-0.4,4.8-5.6,6.9-8.2c-0.8-0.6-1.4-1.8-1.5-3.2
		c-0.3-2.6-1.3-4.5-2.4-7.3c-1.2-2.8-5.3-1.4-5.9,1.7c-0.7,3.1-4.7,1.8-6.3,1.5c-1.6-0.3-2.9,1.7-3.9-0.5c-1-2.2-0.5-2.3-3.4-2.8
		c-2.9-0.5-2.4-8.6-1.4-10.6c1-2-4,0.1-3.9-2.4c0.1-2.5-6.8-6.8-5.6-8.9c1.2-2.2-1.3-4.8-3.3-5.1c-1.9-0.3-3.3-11-1.5-9.2
		c1.8,1.8,3.6,0.7,4.9,0c1.3-0.7,1.3-3,2.8-2.8c0.7,0.1,1.7-1,2.6-2.2c-0.7-0.3,1.2-1.8-1.9-2.7c-3.8-1.1-1.9-3,0-3.3
		s-0.1-1.6-0.5-1.9s-0.2-3.1-0.2-3.1l-2.9-0.3c0,0-0.6-2.9-4.1-2.9s0-0.4,0-1.1s-0.2-2.1-1.6-1.6c-1.4,0.5-4.8,2.3-5.4,5.1
		c-0.6,2.8-1.3,3.3-2.1,1.4c-0.8-1.9-1.5-1.8-1.5,1.8s-4.1-2.4-4.1-2.4s-4.6-1.1-3.5,1c1.1,2.1,2.4,2.6,1.6,3.5
		c-0.9,0.9-3.6,2.8-3.7,3.2s-3.4-2.8-3.9,0.8c-0.6,3.6-1.8,3.4-2.3,3c-0.4-0.4,0.4,2,1.1,3.7c0.7,1.7-2,3.6-2.1,5.2
		c-0.1,1.6-0.3,3.9-1.4,4.8c-1.2,0.9-2.1,2.9-1.1,5.7c0.9,2.8,1.8,4.3,1.1,4.4c-0.8,0.1-1.6,0-1-1.3c0.6-1.3-4.5,0.1-4.9,1.4
		s-1.1,2.2-1.4,2.1c-0.3-0.1-4.2,2.1-4.3,6.8c-0.2,4.8-13.3,14-13.3,14s-4.5,1.1-3.2,2.8c1.3,1.8,0.7,3.3,0.3,3s-2.3-0.1-1.4,1.8
		c0.8,1.9-1.9,1.5-1.9,1.5s0.5,1.8,0.3,2.2s-2.3,1.3-2.3,3s-3.3-0.3-3.1,0.8s3.3,4.4-1.6,3.7c0,0-3,2.3-4.3-1.7h-3.3
		c0,0-2.9,6.8-5.8,1.8c0,0-1.4,0-1.8,1.8h-3.1l-4.7,6.3c0,0,5.4,2.7,3,3.3s-6.2,0.7-6.5-1.1s-2.6,1.7-2.6,3.4c0,1.2-1.9,1.6-3.3,1.7
		c0.6,3.7,2.3,5.1,6.1,7.3c4.8,2.8,0.3,3,1.3,5.7c1,2.7-1.5,1.8-1,3.2s-0.5,3.7-1.2,5.2c-0.7,1.5,1.2,3.5,1.2,5.5s-1.3,2.2,1.3,3.7
		c2.7,1.5,3.5,3.7,5.5,5.2s4.8,0.7,6.8,3.2s0.2,3.2,6.7-1s7.8,5.8,10.3,7.3s5.2,6.7,5.7,8.5c0.5,1.8,12.2,4.2,14.7,5.8s4.5,2.5,7,0
		s6.8-0.2,6.8-2.8c0-2.7,1.7-4.5,3.7-4.5s2.5-2.7,3.5-4.3s2.2,3.5,3.7,0s6.5-2.8,6.5-2.8s1.2-7,4.8-7.5c3.7-0.5,2.2-5,2.8-7
		C176.6,240.6,177.1,240.2,177.6,239.8"/>
	<path id="Pyongbuk" fill="#ebf0f4" stroke="#cad7e0" stroke-width="0.25" d="M91.9,302.5c2.8,0.2,9.2-5.7,9.2-7.5c0-1.8,1.3,0.5,3-2s3.2-1.8,4-2.5c0.8-0.7,5-7,9.2-4.5
		c4.2,2.5,8.5,3,12-0.6c3.5-3.6,6.3-1.6,8-2.9c1.7-1.3,2.7-2,2.3-4.3c-0.2-1.1,0-4,0.3-6.6c-0.7-0.3-1.5-0.7-2.3-1.3
		c-2.5-1.7-14.2-4-14.7-5.8c-0.5-1.8-3.2-7-5.7-8.5s-3.8-11.5-10.3-7.3s-4.7,3.5-6.7,1s-4.8-1.7-6.8-3.2s-2.8-3.7-5.5-5.2
		c-2.7-1.5-1.3-1.7-1.3-3.7s-1.8-4-1.2-5.5c0.7-1.5,1.7-3.8,1.2-5.2s2-0.5,1-3.2c-1-2.7,3.5-2.8-1.3-5.7c-3.7-2.2-5.5-3.6-6.1-7.3
		c-0.6,0-1.2-0.1-1.4-0.2c-0.7-0.3-1.4,4.3-1.4,4.3s-3.3-0.1-3.1,2.5c0.2,2.6-1.5,0.1-2.2-0.6c-0.7-0.7-2.4,0.3-3,0.8
		c-0.6,0.4-2.8-2.5-4.2-0.5s-0.3,3.8-3.2,3.6c-2.9-0.2-15.4,8.2-15.1,9c0.3,0.8,3.8,3.3,1.5,3.3c-2.3,0.1-3.8-0.7-6.2,1.3
		c-2.4,1.9-1.7-5-3.2-1.8s-2.9,6.4-8.3,7.8c-5.3,1.4,0.3,5.1-5.6,6.7c-5.8,1.6-7.2,6.7-7.2,7.5c0,0.9-5.1,2.3-5.1,2.3
		s0.7,8.6-2.4,7.6s-5.9,2.3-5.6,4.9c0.3,2.6-2,11.4-2.6,11.5c-0.6,0.1,2.1,5.1,2.6,5.9s-0.1,3.3,2.1,3.1c2.3-0.1,8.8,0.9,8.9,1.8
		c0.1,0.9,3.4-2.8,2.6-0.9c-0.8,1.9-2,3.8-0.5,4.1c1.5,0.4,1.5,1.5,1,2.5s-0.1,1.9,2.4,4c2.5,2.1-0.9,7.9-0.3,7.8
		c0.6-0.1,3.4,0.4,5.3-2.8c0,0,1.3-0.6,1.8,0c0.5,0.6,0.9-2.4,0.9-2.4s0.1-0.3,0.6-0.3s-0.9-2.5,0.5-3s-0.5-3.8-1-4.4
		c-0.5-0.6-0.1-2.3,0.8-1s2,4,3,4.3s4.9-0.5,5.8,1.3s1.5,5.4,3.1,5.1s1.3-2.8,1.9-1.3s0.8,2.3,1.9,1.5s3.8,1.1,4.3,2.9
		s2.4,4.8,3.5,4.1c1.1-0.6,5-1.3,5.6-1.8s2.8-1.9,3-2.3c0.3-0.4-0.8,2.8,1.6,3.9c2.4,1.1,0.9,4.3,0.9,4.3s2.3,1.4,12.3-6.9
		c0,0,8.1-2.4,9.6-4C87.6,304.9,89.1,302.4,91.9,302.5z"/>
	<path id="Kangwon" fill="#ebf0f4" stroke="#cad7e0" stroke-width="0.25" d="M273.8,389.4c0-3.4-6.1-4.5-8.1-3s-2.3-0.6-6-6.6s-8.8-2-12.1-7.6c-3.4-5.6-8.4-8.6-8.4-8.6
		c-4-13.6-6.8-11.5-6.8-11.5c-4,4.1-9.4-2.6-9.4-2.6s-5.4,1.5-6.3,0c-0.9-1.5-2.8-5.1-2.8-1.8c0,3.4-2.8-1.6-2.8-1.6
		c-11.1-7.6,2.8-13.1,2.4-14.8c-0.4-1.6-2.4-1-2.6-0.1c-0.3,0.9-3,0.5-2.9-1.4c0.1-1.9,3.1,0.5,3.8-0.9c0.6-1.4,3.1-0.8,3.1-0.8
		s0.1-1.6,2.4,0c1.8,1.3,0.7,5.8,0.2,7c0.5-0.7,2.5,0.2,2.5,0.2c0.5-1.6-1.3-8.4-1.3-8.4s-1.8-3.7-2.3-7.1c-2.7,0.2-5.5,0.9-6.7,1.1
		c-2.3,0.3-5-1.7-6-3c-1-1.3-4.8,3.3-5.2,4.7c-0.3,1.4-5.2,3.5-6.3,1.6c-1.2-1.8-5.2-2.7-3.7-0.3c1.5,2.3-1.3,8.2-4.8,8.7
		c-3.2,0.5-2.7,4.2-4.7,5.5c0.7,2,1.8,2.3,3.5,2.6c2.7,0.5,5.3,3.8,5.9,5.7c0.5,1.8-7.4-0.3-6.4,2c1,2.3-1.2,4.7,0.9,6.7
		c2.1,2,3.1,7,1.4,10.5c-1.7,3.5-2,2-4.5,3.2s-3.7,5.7-3,8.8s-0.7,2.5-3.3,3.3c-2.7,0.8-4,1.7-4.3,6c-0.3,4.3-5.2,1.7-7.1,3.2
		c-2,1.5,2.1,5.2,1.1,9.3c-1,4.2,3,8.7,2.5,15.3s4.5,4.2,5.7,3.5s5.2,2.7,3.5,4.6c-1.7,1.9-1.3,5.9-1.3,5.9s3.3,0.9,2.8,2.4
		c-0.3,1-1.1,4.9,0.4,7.5c3.2-1.5,3.1-0.9,3.5-3.9c0-0.2,0-0.4,0.1-0.6c0-0.2,0-0.4,0.1-0.6l0,0c0-0.2,0-0.4,0.1-0.6c0,0,0,0,0,0
		c0-0.2,0.1-0.4,0.1-0.6c0,0,0,0,0,0c0-0.2,0.1-0.4,0.1-0.6c0,0,0,0,0,0c0.1-0.2,0.1-0.4,0.2-0.6c0,0,0,0,0,0
		c0.5-1.2,1.4-2.6,3.3-4.2c0,0,0,0,0,0c0.3-0.3,0.6-0.6,1-0.9c0,0,0,0,0,0c0.4-0.3,0.8-0.6,1.2-0.9c0,0,0,0,0,0
		c0.4-0.3,0.9-0.6,1.4-1c0,0,0,0,0,0c0.7-0.5,1.5-1,2.4-1.6c0.3-0.2,0.6-0.4,0.9-0.5c0,0,2,1.2,3,0.6c1-0.6,3.7-2.8,6-1.6
		c2.3,1.2,7.7-0.4,8.8-0.8c1.1-0.4,7.3,4.1,10.1,1.8c2.8-2.3,2.9-1.8,2.9-1.8s13.9-1.9,14.6-0.1c0.7,1.8,2.4,2.7,5.3,0.5
		c2.9-2.2,12.1,2.8,13.9,1.3c1.8-1.5,14-7.7,14.9-13.8v-9.9l3.4-2.6C273.8,394.4,273.8,392.1,273.8,389.4z"/>
	<path id="Hwangnam" fill="#ebf0f4" stroke="#cad7e0" stroke-width="0.25" d="M141.9,432.6c1.5-1.2,1.1-2.5-0.9-3.1c-2-0.6-4.8-1.9-5.9-3.8s-0.9-0.5-5.2-1.6
		c-4.3-1.1-6,2-7.6,3.3s-1.8,0.6-5.6-0.3s-7.4,3.8-9.3,3.6c-1.8-0.1-3.1-1.2-1.7-3.6c1.4-2.4-0.1-3-1.6-2.9s-0.5-1.3-1.5-1
		c-1.1,0.3-3.5,0.1-1.5-2.5s-1.3-1.7-2.6-1.7s-4.3-4.2-4.4-5.6s1.8-1.9,1.6-2.6c-0.2-0.7-3.3-3.8-3.1-5.3c0.3-1.6,1.2-0.1,1.7-0.8
		s-0.3-3.6-1.3-4.9c-1.1-1.3,0.8-6.8,0.4-7.8s-7.6-3.5-7.6-3.5s-2.9,0.6-4,2.8c0,0-4.4-4-5.6-3.3s3.1,2.5-3.1,1.8
		c0,0-2.4,0.4-2.4,1.3c0,0.9-2.6-1-2.6,0.1c0,1.1-0.4,5.5-0.4,5.5s-1.8-3.8-2.2-4c-0.4-0.3-0.5-2.5-1.8-1.5s-1.9,3.6-4.4,0.6
		s-0.6,2-0.4,2.9c0.3,0.9-0.3,2.9-3.5-3c0,0-2,0.1-0.5,4.1l0.1,3c0,0,1.4,0.8,1.3,1.4c-0.1,0.6-4.3-1.4-4.8,1.5l-2.4-0.3l0.3-1.9
		c0,0-3.1-0.3-4-1s-0.1,1.3,0.5,2.5s0.5,3.4,0.5,3.4l1.4,1.1c0,0-1.1,3.8-1.9,3.9c-0.8,0.1-0.9,0.6-0.6,1.6s-0.3,1-0.9-0.9
		c-0.6-1.9-4.1,7.8-5.9,8.1c-1.8,0.4-2,2.8-0.1,4.1l-0.5,5.3c0,0,1.6,1.5,1.6,2.3s1.9,1.8,3.5-0.4c0,0,2.6-0.4,2.5,0.5
		c-0.1,0.9-2.6,1.5-2.6,1.5l-1.4,1.3c0,0-1-1.1-1.6-1.4s-2.3-0.5-2.1-2.1c0.1-1.6-3.1,2.4-3.4,3.3c-0.3,0.9-0.3,2.6-2.3,1.9
		s-1.1,0.4-3.1,1.8c-2,1.4,0,1.4-4.3,0.9s-0.9,2.3,0.4,2.8s5.9,1.6,6.8,1.8c0.9,0.1,2.9-1.1,4.1-1.3c1.3-0.1,2.9-1.9,2.9-1.9
		s7.1,4.4,7.8,4.9s1.9-0.8,2.5-0.3s2.8,0.6,4.1-0.3c1.4-0.9,1.3-1.3,2.6-1s2-0.9,3.3-0.1s3.1,0.5,3.9,0.8s3.2,0.8,0.6,1.8
		s-0.8,3-0.8,3s-1.3,2.4-1.8-0.4s-1.4-2-4.1-1.5s-4,1.1-3.6,2.4s1.5,2.5,2.3,2.3s-0.5,1.4,0.3,1.6s2.6-0.4,1.8,1
		c-0.9,1.4-1.6,0.1-2.8,0.1s-2.8-0.4-2.8-1c0-0.6-2.9-0.5-3.4,0.6c-0.5,1.1-2.5-0.1-2.9,0.8c-0.4,0.9-1.5,3.4,0.9,2.1
		c0,0-1.5,3.5,2.8,2.5s1.8,1.1,1.8,1.1s2.8,3,4.9,2.1c2.1-0.9,0.8,0.5,3.3,0.3s2.8-2.6,2.8-4.5c0-1.9,1-2.3,1.3-1.5s0,2.6-0.1,3
		c-0.1,0.4-1.6,4.4-2.6,4.1s-1.4,1.9-1.4,1.9l-3.6,2.4l1.4,1.1c0,0,2.5-1.3,2.6-2s3.1,0.6,3.1,0.6l3.2-1.5c0,0-0.8-1.8-0.6-2.1
		c0.3-0.4,1,1.3,2,0.9c2.5-1,0,2.5,1.6,2.5c1.6,0,1.4-4.1,1.4-4.1v-2.8c0,0,0.7,0.3,2.5,0.1c1.8-0.1-0.5,2.5,1.3,2
		c1.8-0.5,2-2.9,2-4c0.1-1.1-0.1-2.1,1.2-1.1s-1,3.1,0.3,2.8c1.3-0.4,1.4,1,0.8,1.4c-0.5,0.4-1.5,0.5,0,1c1.5,0.5,0,1.6,0,1.6
		s2.4-1.3,2.1,0.8s-3.2,1.6-3.6,1c-0.4-0.6-2.4,0.8-2.8,1.8s-0.8,0-1.3,1c-0.5,1,0.2,1-1.1,0.5c-1.3-0.5-0.1,0.5,0.4,1.7
		c0.4,1.2,3.1-2.5,3.9-0.9c0.8,1.6-1.9,1.4-1.9,1.4s-1.2,1.1-2.4,0.3c-1.2-0.9-1.3,1-2.1,1.1c-0.8,0.1-2,2.6-1.3,3.5
		c0.7,0.9,1.8,2.4,2,2c0.2-0.4,0.4-4.3,1.4-3.6s3.1-1.5,4.1-0.5c1,1,3.3,0.3,3.3-0.6c0-1,1.4-2.6,1.4-2.6s0.6-5.7,0.9-2.2
		c0.3,3.5,1.9,2.2,1.9,2.2c0.3-3,2.1-0.8,2.1-0.8c-1.9,1.9,2.4,1.4,2.4,1.4s1.8-3.5,1-3.5s-2.4-1.5-0.9-1.4c1.5,0.1,1.8-1.3,1.4-1.1
		s-1.9-3.5-0.5-2.3s0.3-1.5,0.8-2.6s-0.8-1.8-0.8-1.8c-0.4-0.8,1.4-1.8,1.4-1.8c0.5,3.6,2.4,2.8,4.3,2.3s3.5-4.6,1.7-3s-3,0-2.8-0.8
		s1-0.9,2-0.9s1.3-1.9,0-1.3s-4.1,0.5-2.9,0s1.1-1.8,1.1-1.8l-3.9,1.8c0,0-5.8-5.1-6.2-6.1c-0.5-1,1.9,0,1.9,0s7.6,0.9,7.8,2.5
		c0.2,1.6,2.3,3.2,2.2,0.2s2.1-0.2,3.9,1.1c1.8,1.3,1.4,0.8,0.8,3.1s2.1-0.3,4.8,4.9s1.8,6.1,4.2,5.6s3.4,0.4,3.4,0.4
		s-1.4-5.7,0.7-4.6s1.8,2.3,2.4,2.8s1.4,1.4,1.7,0.1s1.4-3.6,1.4-0.2c0,3.4,0.4,4.8,2,5.4c1.6,0.7-0.2,3.9,2.4,4.1
		c2.6,0.3,3.7,0.3,2.8-2.6c-0.9-2.9-1.4-5.6,0.4-5.9s3.4,0.1,2.1-2s2.1,0.9,2.1,0.9s2.9,2.4,5.3-0.3s5.6-1.6,5.8-2.9
		s0.6-0.8,0.6-1.2c0-0.2,0.3-0.4,0.5-0.4c0-1.8-2.1-3.6-1.6-4.1c0.6-0.6,0.5-1.9-0.8-3.5s1.2-2.6,0.6-3.8s2.1-2.1,0.1-3.1
		s0.9-3.8,0.9-3.8C138.4,437.1,140.4,433.8,141.9,432.6z"/>
	<path id="Pyongyang" fill="#ebf0f4" stroke="#cad7e0" stroke-width="0.25" d="M86.9,366.9c0.8-0.8,3.2-0.6,3.8-0.9s2.7-3.5,7.5-2.8c0,0,2.4,4.8,3.9,3.3s4.8-1.3,6.4,0.7
		c1.6,2,3.3-1.2,3.3-1.5s2.2,0.8,2.5,0.4c0.3-0.3,2.6-2.3,1.7-4.1s-2.4-4.6-2.4-6c-0.1-1.4-2.4-2.2-2.4-2.2s4.9-6,9.8-2.8
		c4.1,2.8,3.2,3.8,3,5.4c0.9-0.6,4.1-2.6,4.8-1.6c0.8,1.1,2.6,3,2.8,3.5c0.1,0.5,1.9-0.8,3.2,1c1.3,1.8,3.9-0.3,5,0.8
		c0.9,0.9,3.1,3.3,4.6,2.9l0,0c-0.3-0.2-0.5-0.5-0.6-0.7c0,0,0,0,0,0c0-0.1-0.1-0.1-0.1-0.2c0,0,0,0,0,0c0-0.1,0-0.1,0-0.2
		c0,0,0-0.1,0-0.1c0,0,0-0.1,0-0.1c0-0.1,0.1-0.1,0.1-0.2c0,0,0,0,0,0c0.1-0.1,0.2-0.1,0.3-0.1c0.2-0.1,0.3-0.2,0.3-0.4
		c0-1.4-4.7-5.4-5.2-6.9c-0.5-1.7-1.3-3.7-4.8-4.2c-1.5-0.2-1.7-1.6-1.7-3.2c0-0.7,0.1-1.3,0.1-2c0-1.2-0.2-2.2-1.3-2.2
		c-3,0-4-5.5-7.3-4.1c-2.5,1.1-3.1,0.4-3.1-0.7c0-0.4,0.1-0.8,0.1-1.2c0.3-1.7-8.5-1.8-10.5,0c-2,1.8-7.7-3-8.3-4.8
		c-0.7-1.8-9,1-10.8,3.4c-0.3,0.4-0.5,1-0.4,1.7c0.1,2.8,3.1,7.2,3.3,9c0,0,0,0,0,0l0,0c0.2,2.2-1.3,2.7-4.5,3.8
		c-1,0.4-1.3,1.4-1.2,2.6c0.1,2.2,1.3,5.3,1.4,7c0,0.4,0,0.7-0.2,0.9c-1,1.8-4.6,4-4.6,4s-0.2,1.4-1,3
		C85.2,367.3,86.4,367.4,86.9,366.9z"/>
	<path id="Nampo" fill="#ebf0f4" stroke="#cad7e0" stroke-width="0.25" d="M83.1,359.7c-0.1-1.4-1.2-0.8-1.7-2.6c-0.6-1.8-1.8-3.4-3.1-1.7c-1.3,1.7-5.8,1-6.7,1.7
		c-0.9,0.7,0.5,2.5,0,3.8c-0.3,0.8-4.9-0.5-8.3-1.6c-0.8,3-3.8,4-3.8,4s-0.9,1.4,0.4,1.9s-3,2.4-2.6,5.8c0.4,3.4-3.5,2.8-2.1,3.5
		s1.8,1.4,1,3.1s0.3,3.9,1.8,4.6s3.1,3.4,3.1,3.4s1.4-4.1,2.4-3.1c0.9,0.9-0.8,3.2-1.3,3.9c-0.1,0.1-0.2,0.2-0.2,0.2
		s3.1,1.1,3.4,1.6s3.8-0.4,5.2-0.9s6.6,0,4.5-3s2.9,0.6,2.9,1.4s7.4,1.5,7.8,2.9c0,0,3.4-1.4,2.8-4s-1-6.2-1-6.2s-1.4-1.9-1.5-3
		c-0.1-1.2-1.6-2.1-1.9-2.3c-0.3-0.3,0-2.2,0-2.2s-2.2,0.2-0.7-2c0.4-0.6,0.7-1.1,1-1.7c0,0,0,0-0.1,0c0,0,0,0,0.1,0
		c0.8-1.6,1-3,1-3s1-0.6,2.1-1.5C85.8,361.9,83.2,360.6,83.1,359.7z"/>
	<path id="Pyongnam" fill="#ebf0f4" stroke="#cad7e0" stroke-width="0.25" d="M193.7,257.5c-1.2-1-5-3.2-3.3-6.7c1.7-3.5-1.8-7.3-4.5-7.2c-2,0.1-6.3-2.5-8.3-3.9
		c-0.5,0.4-0.9,0.8-1.2,1.5c-0.7,2,0.8,6.5-2.8,7c-3.7,0.5-4.8,7.5-4.8,7.5s-5-0.7-6.5,2.8s-2.7-1.7-3.7,0c-1,1.7-1.5,4.3-3.5,4.3
		s-3.7,1.8-3.7,4.5c0,2.7-4.3,0.3-6.8,2.8c-1.7,1.7-3.2,1.9-4.7,1.3c-0.2,2.6-0.4,5.4-0.3,6.6c0.3,2.3-0.7,3-2.3,4.3
		c-1.7,1.3-4.5-0.7-8,2.9s-7.8,3.1-12,0.6c-4.2-2.5-8.3,3.8-9.2,4.5c-0.8,0.7-2.3,0-4,2.5s-3,0.2-3,2c0,1.8-6.3,7.7-9.2,7.5
		c-2.8-0.2-4.3,2.3-5.8,4c-1.5,1.7-9.6,4-9.6,4l0.9,1.8l1.9,0.1c0,0-2.9,0.4-4.6,1.4s-1.4,2.1-1.4,3.8s-4.9,5.9-3.8,6.5
		c1.1,0.6,2.1,0,0.9,1.8s1.1,4.4,1.8,4.3c0.6-0.1,1.8,0.1,1.8,1.3c0,1.1,0.4,3.6,2.3,4c1.9,0.4-3.1,1.3-1.6,2.8s-1.8,1.9-1.8,1.9
		s0.5,3.6-1,2.9s-6.8,5.6-5.8,10.4c0,0-2,2.4-2.6,5.8c0,0.1-0.1,0.3-0.1,0.4c3.4,1.1,8,2.4,8.3,1.6c0.5-1.3-0.9-3.1,0-3.8
		c0.9-0.7,5.4,0,6.7-1.7c1.3-1.7,2.6-0.1,3.1,1.7c0.6,1.8,1.6,1.1,1.7,2.6c0.1,0.9,2.6,2.3,4.3,3c1-0.8,2-1.7,2.5-2.5
		c1-1.7-3.2-9.3,0-10.5c3.2-1.2,4.7-1.7,4.5-3.8c-0.2-2.2-4.7-8.3-2.8-10.6s10.2-5.2,10.8-3.4c0.7,1.8,6.3,6.7,8.3,4.8
		s10.8-1.7,10.5,0c-0.3,1.7-0.3,3.4,3,1.9c3.3-1.4,4.3,4.1,7.3,4.1c3,0-0.5,6.8,3,7.3s4.3,2.5,4.8,4.2c0.5,1.7,6.6,6.7,4.9,7.3
		c-0.8,0.3-0.6,1,0.2,1.6c0.1,0,0.1,0,0.2-0.1c-0.1,0-0.1,0-0.2,0.1c0,0,0,0,0.1,0.1c0,0,4,1.7,4.5,0.3s-1.6-5.3,0.3-5.7
		s13.9,4.8,13.7,2.8c-0.2-1.9-1.8-4.4-2.1-4.9c-0.3-0.4-0.9-8.1-4.9-7.4c-3.9,0.6,1.9-5.6,3.7-4c1.8,1.6,6.5,1.6,7.5,1.4
		s10.8,10.2,12.9,9.8c0.7-0.1,1.8-0.3,2.9-0.4c-1.8-2,0.3-4.2-0.7-6.5c-1-2.3,6.9-0.2,6.4-2c-0.5-1.8-3.1-5.2-5.9-5.7
		c-1.7-0.3-2.8-0.7-3.5-2.6c-0.2,0.1-0.4,0.2-0.7,0.3c-2.8,0.8-3.5-3.3-3.8-5.3c-0.3-2-5.8,0.2-7.5-2c-1.7-2.2-4.8-1-6.7-2
		c-1.8-1,4.7-6,3.3-6.5c-1.3-0.5-0.2-2.7,0.3-5s-3.5-4.7-4.3-6.7s0.2-3.5,1.8-5c1.7-1.5,0.5-4,1.6-5.3s2.3-4.5,0.6-5.2
		c-1.7-0.7,0.5-5.3,1.4-8.3c0.9-3,4.3-5.8,7.6-5.8c3.3,0,8.2,5.3,9,4c0.8-1.3,8.3-1.7,7-2.5s-1.7-8.5-2.2-10.9s2-9.2,5.3-9.2
		C195.4,262.7,194.9,258.5,193.7,257.5z"/>
	<path id="Hambuk" fill="#ebf0f4" stroke="#cad7e0" stroke-width="0.25" d="M396.4,76.6c-1.7-1.9-0.1-1.5,0-4.4c0.1-2.9,1.2-2.8,2.8-2.1s1.2,0.2,4-3.2
		c2.8-3.3,3.5-4.8,1.3-6.7c-2.3-1.8,4.2-2.4,6.6-3.2s2.1-4.8,3.5-6.4c0.9-1,0.4-4.5-0.1-6.9c-0.3-0.3-0.7-0.6-0.9-1
		c-1.6-2.2-5.1-6.8-6.2-7.2c-1.1-0.4-1.6-4-1.6-4s-2.9-1.9-3.6-2.4s-0.8-4.2,0.1-4.9c0.9-0.8,0.2-3-0.7-4s1.3-4.9,2-5.2l-0.3-3.1
		c0,0-6.1-2.1-8.2,0c-2.1,2.1-3.8-2.2-1.8-2.4s1.2-1.3,0.7-2s0.3-1.8,1.2-2c0.9-0.2-1.3-3.2-4.8,0c0,0-9.9,1.4-7.3-3.3
		c0,0-5.4-0.4-5.4,1.8s1.9,0.8,1.8,1.3c-0.1,0.5-4.1-0.1-3.8,1.3c0.3,1.4,1.5,3.4,0.8,3.4c-0.7,0-2.4,0.8-2.1,2.7
		c0.3,1.8-0.8,5.7-2.1,6.3c-1.3,0.6,0.5,4-0.2,4.8c-0.7,0.8-4.3,4.9-1.7,7.5c2.6,2.6,0.7,2,0.1,1.7c-0.6-0.3-1,1.3-0.5,1.9
		s-0.7,0.9-0.8,1.9s2.2,2.3,0.4,3s-2.1,3.1-1.9,5.1s0.3,15.1-6.9,9.8c0,0-2.7-2.3-3.5-0.7c0,0,2-0.2,0.6,2.3
		c-1.4,2.4-3.2,1.6-2.8,3.7c0.3,2.1-1.3,0.4-2.3-1.7c-1-2.1-4.4-3.8-4.4-3.8s-2.3,0.8-2.7-0.5s-1.8-0.8-1.7,0.6
		c0.1,1.3-0.8,1.9-1.1,0.2s-2.3-1.3-2.1,0.4c0.2,1.8,0.1,3.2-0.7,1.5s-2.4,1.1-2.1,2.5c0.3,1.4-2.1,0.3-2.1,0.3s-0.3,0.5-0.4,1
		s-3.6-0.4-1.9,2.6s-0.3,3.3-1.2,2.8c-0.8-0.5-1.3,0.2-0.4,1.7c0.8,1.4,0,1.4-0.6,1.3c-0.6-0.1,1.7,1.4,1.1,1.8
		c-0.7,0.4-3.4,0.3-2.7,1.8s2.8,3.8,2,3.9c-0.8,0.1-1.9-0.3-1.6,1.2s-2.3-0.8-2.2,1.3c0.1,2.2-1.9,1.5-2.3,1.3s-0.4,1.8-0.4,1.8
		s-2.5,0.6-3.1-0.8s-0.9,1.7-0.9,1.7s-1.8-0.6-2,2.3c0,0.8-0.3,1.3-0.7,1.7c0.8,2.6,1.7,6.1,1.2,6.6c-0.8,0.8-5.3,6.3-4.7,8.2
		c0.7,1.8-4.2,5.5-3.2,6.8s1.6,1.9,0.9,3.2s1.1,3.1-0.4,6.1s2.3,2.1,2.3,4.9s-2.3,4.6,1.2,5.5s4,1.4,4.1,3.1s5,1,2.5,4.1
		s-3.5,3.1-3,6.1s-3.4,0.3-2.6,4.6s-1.2,5.9,0.7,6.8c1.8,0.9-0.5,3.8,2,5.8s0,3.3-0.9,6s0.6,6.9-1.1,8.3c-1.7,1.4,1,1.6,2.3,3.3
		s-0.3,2.9-1.1,5.6s1.8,5.9-0.4,6.4s-1.6,4.3-1.5,6.4s-3.6,2.9-1.1,5.9s1.7,6,1.8,7.9c0.1,1.9,5.6,5.1,4.8,8c-0.7,2.6,1.5,5.3,6,6.9
		c0.2-1.7,0.2-3.1,0.7-2.8c1,0.7,2.5-5,2.5-5c4-8.5,5.7,2.4,6.9-1.8c1.3-4.1,6.9-7,9.8-8.8s4.9-0.8,5.6-1.4c0.8-0.6,0.9-4.4,4.1-3.5
		c3.3,0.9,4.1-0.5,4.1-0.5s3.4,2.4,5.3-3c1.9-5.4,2.9-5.6,0.1-6.9s0.3-15.1-0.9-18.8c-1.1-3.6,1-5.1,0.6-7c-0.4-1.9,1.5-5.6,1.5-5.6
		c4.1-1.9,2.5-7.1,2.5-7.1s-1,1.6-1.8-0.6s-3.5-3-3.5-3c-5.8-2.9-5.4-12.6-3.9-12.6s1.5-9.6,4.3-10c2.8-0.4,1.9-7.6,2.6-7.4
		s2.9-2.3,2.9-2.3l3.1,2.3v-3.8c2.3-0.9,2.6-6,2.6-9.5s4.3,0,4.3,0s1.1-6.4,2-7.1s1.1-0.1,1.4-2.1s2.3,0.1,2.4-1.9s1.3-3.3,1.3-3.3
		c1.1,2,1.5,0.9,1.5-1.3c0-2.2,1.9-2.9,2.9-1.2s3.5,1.4,2.8,0c-0.8-1.4,0-2.3,0-2.3c1.9-0.1,2.8-1.5,3.3-3.5
		C395.7,78.8,398,78.3,396.4,76.6z"/>
	<path id="Rason" fill="#ebf0f4" stroke="#cad7e0" stroke-width="0.25" d="M430.9,67.6c-1.9-1.2-0.9-3.3-0.1-6.7c0.8-3.3-6.5-5.5-6.5-5.5s-1.8-3.1,0.3-3.8c0,0-3-6.1-3.5-6.3
		s-0.3-6.7-0.3-6.7s-6.3-0.6-4.4,3.3c1.6,3.2-0.3,3.1-1.9,1.8c0.5,2.4,1,5.9,0.1,6.9c-1.4,1.6-1.1,5.7-3.5,6.4s-8.8,1.3-6.6,3.2
		c2.3,1.8,1.6,3.3-1.3,6.7c-2.8,3.3-2.3,3.8-4,3.2s-2.7-0.8-2.8,2.1c-0.1,2.9-1.7,2.5,0,4.4c1.5,1.8-0.8,2.3,3.1,5
		c0.1-0.4,0.2-0.9,0.3-1.4c0.5-2.6,5-5.4,5.9-6.9s1.4,4,1.4,4l1.8-2.5c1.5,0,0.5-4,1.9-3s1.4-1.8,1.4-1.8c-1.3-3.2,1.7-4.3,1.7-4.3
		s3.7,3.8,3.3,0c-0.3-3.8,3.7,0.3,3.3-0.5c-0.3-0.8,0.5-3.8,2.3-4.2c1.8-0.3-2.3,4.2,0,4.8c2.3,0.7,3.5,4.2,3.5,4.2
		S432.8,68.8,430.9,67.6z"/>
	<path id="Hwangbuk" fill="#ebf0f4" stroke="#cad7e0" stroke-width="0.25" d="M183.3,355.4c-0.1-0.1-0.1-0.1-0.2-0.2c-0.1-0.1-0.1-0.1-0.2-0.2c-1.1,0.1-2.2,0.3-2.9,0.4
		c-2.1,0.4-11.9-10-12.9-9.8s-5.7,0.3-7.5-1.4s-7.6,4.6-3.7,4c3.9-0.6,4.6,7,4.9,7.4c0.3,0.4,1.9,2.9,2.1,4.9
		c0.2,1.9-11.8-3.2-13.7-2.8s0.2,4.3-0.3,5.7c-0.4,1.4-4.5-0.3-4.5-0.3c0,0,0,0-0.1-0.1c-1.5,0.4-3.7-2-4.6-2.9
		c-1.1-1.2-3.7,0.9-5-0.8c-1.3-1.8-3.1-0.5-3.2-1c-0.1-0.5-2-2.4-2.8-3.5c-0.6-1-3.9,1-4.8,1.6c0.3-1.5,1.1-2.6-3-5.4
		c-4.9-3.3-9.8,2.8-9.8,2.8s2.3,0.8,2.4,2.2s1.6,4.3,2.4,6s-1.4,3.8-1.7,4.1c-0.3,0.3-2.5-0.8-2.5-0.4s-1.7,3.6-3.3,1.5
		c-1.6-2-4.8-2.2-6.4-0.7c-1.6,1.5-3.9-3.3-3.9-3.3c-4.8-0.8-6.8,2.5-7.5,2.8s-3.1,0.1-3.9,0.9c-0.5,0.5-1.7,0.4-2.6,0.2
		c-0.3,0.6-0.6,1.1-1,1.7c-1.6,2.1,0.7,2,0.7,2s-0.3,1.9,0,2.2c0.3,0.3,1.8,1.2,1.9,2.3c0.1,1.2,1.5,3,1.5,3s0.3,3.6,1,6.2
		s-2.8,4-2.8,4s7.3,2.5,7.6,3.5s-1.4,6.4-0.4,7.8c1.1,1.3,1.8,4.3,1.3,4.9s-1.4-0.8-1.7,0.8s2.9,4.6,3.1,5.3
		c0.2,0.7-1.8,1.2-1.6,2.6s3.2,5.6,4.4,5.6s4.6-0.9,2.6,1.7s0.4,2.8,1.5,2.5c1.1-0.3,0,1.1,1.5,1c1.6-0.1,3.1,0.4,1.6,2.9
		c-1.4,2.4-0.1,3.5,1.7,3.6c1.8,0.1,5.4-4.4,9.3-3.6s4,1.5,5.6,0.3s3.3-4.3,7.6-3.3c4.3,1.1,4-0.3,5.2,1.6c1.2,1.9,3.9,3.1,5.9,3.8
		s2.4,1.9,0.9,3.1c-1.5,1.2-3.4,4.5-0.5,6.2c0,0-2.9,2.8-0.9,3.8s-0.8,2-0.1,3.1c0.1,0.2,0.1,0.3,0.1,0.6c-0.2,0.9-1.8,1.8-0.7,3.2
		c1.3,1.6,1.5,2.9,0.8,3.5c-0.5,0.5,1.6,2.3,1.6,4.1c0.3,0,0.6,0.3,0.2,1.2c0,0,0.2,3.3,1.6,4.7c1.4,1.4,9.1,5.9,9.1,5.9
		s3.7-1.3,4.4-2.1s1.1-3.8,2.3-4.5c0.1-0.1,0.2-0.1,0.3-0.2c0.1-1.9,0.5-7.3-0.1-8.5c0,0,8.3-2.1,12.1-7.3c3.8-5.1-1.3-4.4,3.3-6.9
		c0.5-0.3,1-0.5,1.4-0.7c-1.5-2.6-0.7-6.6-0.4-7.5c0.3-1-0.8-1.6-1.7-2c0,0,0,0,0,0c-0.6-0.3-1.1-0.4-1.1-0.4s0-0.4,0-1
		c0-1.3,0.2-3.6,1.4-4.9c1.7-1.9-2.3-5.2-3.5-4.6c-1.2,0.7-6.2,3.2-5.7-3.5s-3.5-11.2-2.5-15.3c1-4.2-3.1-7.8-1.1-9.3
		c2-1.5,6.8,1.2,7.1-3.2c0.3-4.3,1.7-5.2,4.3-6c2.7-0.8,4-0.2,3.3-3.3c-0.7-3.2,0.5-7.7,3-8.8c2.5-1.2,2.8,0.3,4.5-3.2
		C186.2,362.3,185.3,357.5,183.3,355.4z"/>
</g>
</svg>
