<?xml version="1.0" encoding="utf-8"?>
<!-- Generator: Adobe Illustrator 16.0.0, SVG Export Plug-In . SVG Version: 6.00 Build 0)  -->
<!DOCTYPE svg PUBLIC "-//W3C//DTD SVG 1.1//EN" "http://www.w3.org/Graphics/SVG/1.1/DTD/svg11.dtd">
<svg version="1.1" id="레이어_1" xmlns="http://www.w3.org/2000/svg" xmlns:xlink="http://www.w3.org/1999/xlink" x="0px"
	 y="0px" width="738px" height="620px" viewBox="0 0 738 620" enable-background="new 0 0 738 620" xml:space="preserve">
<path id="الشرقية" fill="#eeeeee" stroke="#000000" stroke-width="0.25" stroke-miterlimit="10" d="M708.667,374.833
	c-5.939-9.206-13.833-20.667-18.167-18.167s-69.333-5.167-80.833-5s-36-39-36-39c-5.167-11.167-12.833-1-17.333-13.5
	s-16.5-9.333-18.333-17.333s-8.667-22.5-15.833-33.333s-0.667-7.167-0.167-16.667s-4.833-9.333-5.833-15.667S512,211.333,505,205.5
	s-12.833-6.667-14.667-13.667c-2.659-10.152-10.333-6.5-14-15.333s-7.333-12.667-10.167-21.833s-17.333-6-23.667-5.333
	S434.833,145,432,136c-2.218-7.045-19.348-6.278-34.719-7.051c-8.523,2.3-19.793,6.601-25.114,14.051
	C363,155.833,358.264,170.631,352,176c-4.667,4-3,2.333-2.333,7.5s6.833,4.167,7.5,10s13.667,6.167,18.167,11.833
	s8.11,7.679,12.667,6.667c6-1.333,13.333,10,20.167,7.5s4.167,5.833,13,10s10.5-0.667,10.333,7.167s-2.333,49.333,2.5,52
	s24.597,13.396,25,31.833c0.119,5.452-20.658,172.369-26.096,243.143c1.317-1.726,2.14-3.864,2.846-7.393
	c3.118-15.592,26.917-32.916,46.25-41.25s90.333-15.666,103.333-19s90.333-36.249,99.083-39.249S694.75,446,694.75,446
	c2-11.25,11.75-50.333,13.25-55.5S712,380,708.667,374.833z"/>
<path id="منطقةالحدودالشمالية" fill="#eeeeee" stroke="#000000" stroke-width="0.25" stroke-miterlimit="10" d="
	M132.167,49.833c3.667,6.333,7.166,3.833,12.333,3.833s37.175-3.015,45.333,5.333c7.167,7.333,21.474,3.678,28.667,5.667
	c7.833,2.167,12.333,7.5,19.5,7.333s6.833,5.334,10.667,11.667s3.833,4.667-1,8.167s-33.833,19.667-34.333,26.333
	s0.667,8.833-3.5,11.5s0,7.666,8.167,5.333s14.5-6.333,20.667-1s9.834,0.333,16.167,0.5s10.334,1.502,13.667,6.667
	c10,15.5,20.256-6,19.089,4.5c-0.646,5.818,1.238,6.554,8.578,6.667c3.333,0.051,4.333,7.167,6.167,3.833s6-8.556,9.833,0.889
	s3,6.111,5.167,11.778s5.144,6.84,12.167,7.667c11.333,1.333,7,6.167,17.667,10.5c3.012,1.224,5.249,1.676,7.019,1.775
	c-1.93-1.367-4.135-2.301-4.519-5.275C349,178.333,347.333,180,352,176c6.264-5.369,11-20.167,20.167-33
	c5.321-7.45,16.591-11.751,25.114-14.051c-4.264-0.214-8.393-0.547-12.031-1.199c-16.75-3-26-3.5-33.5-3.75s-7.5,1-12.75-4
	c-49.292-46.945-122.75-95.25-127.25-98.5S197,17.75,186.25,15S171,8,165.667,12.667c-3.2,2.8-19.595,7.098-34.398,10.306
	c-2.205,3.818-4.777,8.981-5.436,13.028C124.667,43.167,128.5,43.5,132.167,49.833z"/>
<path id="الجوف" fill="#eeeeee" stroke="#000000" stroke-width="0.25" stroke-miterlimit="10" d="M31.25,120.5c6.75,2.5,4-3,12-2
	S62,118.25,68,127s7.755,8.126,15.25,5.5c3.682-1.29,11,1,15.5,3.25s10.25,0.75,11.25-5s6.25-4,6.25,2.25s-0.26,13.75,9.37,16.75
	s12.88,0.25,15.88,2.75s14.25,3.25,20-3.25s17.75-9,23-8.75s6.75-1.306,11.25-4.153c3.419-2.164,7.657-3.413,12.604-3.441
	c-0.397-1.09,0.021-2.306,1.479-3.239c4.167-2.667,3-4.833,3.5-11.5s29.5-22.833,34.333-26.333s4.833-1.833,1-8.167
	S245.167,71.833,238,72s-11.667-5.167-19.5-7.333c-7.193-1.989-21.5,1.667-28.667-5.667c-8.158-8.348-40.167-5.333-45.333-5.333
	s-8.667,2.5-12.333-3.833s-7.5-6.667-6.333-13.833c0.659-4.047,3.231-9.209,5.436-13.028c-9.871,2.139-19.035,3.794-23.103,4.194
	C98,28.167,98,30,102.25,34.25S116.877,55.841,120.5,60c6.628,7.608,6.25,9.75,1.25,11.25S113,77,112,82.75s-10.25,4.75-18.75,5
	s-10-0.75-11.5,3.5C78.881,99.379,70.5,105,65.75,109s-24-0.75-32.75-4.75c-5.045-2.307-9.008,6.527-12.036,16.144
	C24.525,119.725,28.416,119.45,31.25,120.5z"/>
<path id="حائل" fill="#eeeeee" stroke="#000000" stroke-width="0.25" stroke-miterlimit="10" d="M181.833,176.333
	c0.833,7.833,1.5,11.5,6.833,14.667s-5.5,13.833-9,17.167s0.195,6.624-2.833,11.167c-5,7.5,6.333-2,4.5,10
	c-0.996,6.518-1,17.833,0,25.5S185,260.667,193.5,260s8.5-2.167,15.333-5.333s3.667-3.167,15.667-0.333s8.833-1,14.833-2
	s7.833-2.333,7.833-6.167s0-5.5,3.333-5.333s3.833-0.333,3.833-4.167s0.5-6.333,4.833-6.333c6.333,0,3.333-5.167,8.833-7.833
	s11.791-10.834,15.667-12.333c7.286-2.818,6.333,1.333,9-6.333c2.253-6.477,9.167-6,17.5-9.833s10.167,8.833,20,7.667
	c6.788-0.805,6.167-3.833,7.833-10.167c0.833-3.167,3.042-5.292,5.042-6.625c-5.546-3.681-4.042-7.257-13.542-8.375
	c-7.022-0.826-10-2-12.167-7.667s-1.333-2.333-5.167-11.778s-8-4.222-9.833-0.889s-2.833-3.782-6.167-3.833
	c-7.34-0.113-9.224-0.849-8.578-6.667c1.167-10.5-9.089,11-19.089-4.5c-3.332-5.165-7.333-6.5-13.667-6.667s-10,4.833-16.167-0.5
	s-12.5-1.333-20.667,1c-5.309,1.517-8.908-0.068-9.646-2.094c-4.947,0.028-9.185,1.277-12.604,3.441c-4.5,2.847-6,4.403-11.25,4.153
	s-17.25,2.25-23,8.75c-1.818,2.056-4.188,3.382-6.671,4.162C165.58,158.094,181.122,169.643,181.833,176.333z"/>
<path id="تبوك" fill="#eeeeee" stroke="#000000" stroke-width="0.25" stroke-miterlimit="10" d="M100.667,278.833
	c5.833-2.333,5.666-3.167,11.333-2.5s2.575-7.703,4-15.653c2.333-13.014-6.333-11.514-6.667-16.18s-9.5-17-13.5-16.167
	s-6.5-8.5-3.167-15.167s-9-3.5-7-11.667s-0.011-12.661-2.844-13.495s0.169-3.022,6.177-5.672c9.449-4.167,8.333,4.333,14.167,2
	s11.263-8.146,12.167,0.667c1.333,13,10.5,5.167,11.167,13.5s3.667,8.167,9.5,5s9.5-6.32,14.833,2.673
	c4.619,7.789,16.364,5.207,27.872,3.185c0.236-0.398,0.545-0.794,0.962-1.191c3.5-3.333,14.333-14,9-17.167s-6-6.833-6.833-14.667
	c-0.712-6.691-16.253-18.239-27.004-22.921c-5.37,1.685-11.278,0.797-13.329-0.912c-3-2.5-6.25,0.25-15.88-2.75
	s-9.37-10.5-9.37-16.75s-5.25-8-6.25-2.25s-6.75,7.25-11.25,5s-11.818-4.54-15.5-3.25C75.755,135.126,74,135.75,68,127
	s-16.75-7.5-24.75-8.5s-5.25,4.5-12,2c-2.834-1.05-6.725-0.775-10.286-0.106c-2.223,7.062-3.944,14.546-5.214,18.356
	c-3,9-5.5,9.5,6,10.25s20,26.25,25.5,35s17,38,22.25,41c11.281,6.446-3,10,6,13.5c8.152,3.17,13,14.25,12.5,30
	c-0.118,3.712,0.926,7.367,2.639,10.828C94.358,279.735,98.245,279.802,100.667,278.833z"/>
<path id="المدينة" fill="#eeeeee" stroke="#000000" stroke-width="0.25" stroke-miterlimit="10" d="M145.167,330
	c5.833,7.833,3.76,9.733,8,7.667c6.5-3.167,5.333,6.833,12.167,2.667s12-2.333,11,3.333s-2,7.833,2.667,11.167s-3.194,7.455,5,9.833
	c5.167,1.5,4.217-7.448,12.667-3.667c6.333,2.833,3.333-1.333,8.167-5.333s8.833-9.167,15.167-13s7.5-3.5,3.5-7.833
	s0.167-3.5,4.667-5.833s9.55-3.506,9.833-10.167c0.375-8.833,7.5-0.083,8.375-11.833c0.732-9.83,7.99-18.544,3.25-18.875
	c-5.375-0.375-2-15-8.625-14.5c-5.478,0.414-0.751-14.188-6.122-19.274c-1.515,1.011-3.331,1.646-10.378-0.018
	c-12-2.833-8.833-2.834-15.667,0.333S202,259.333,193.5,260s-11.167,2.5-12.167-5.167s-0.996-18.982,0-25.5c1.833-12-9.5-2.5-4.5-10
	c2.668-4.002,0.124-7.032,1.872-9.976c-11.508,2.022-23.252,4.604-27.872-3.185c-5.333-8.994-9-5.84-14.833-2.673
	s-8.833,3.333-9.5-5s-9.833-0.5-11.167-13.5c-0.904-8.813-6.333-3-12.167-0.667s-4.717-6.167-14.167-2
	c-6.008,2.649-9.011,4.838-6.177,5.672s4.844,5.328,2.844,13.495s10.333,5,7,11.667s-0.833,16,3.167,15.167s13.167,11.5,13.5,16.167
	s9,3.167,6.667,16.18c-1.425,7.95,1.667,16.32-4,15.653s-5.5,0.167-11.333,2.5c-2.422,0.969-6.309,0.902-10.028,0.494
	c5.555,11.221,18.23,20.379,21.861,22.672c4.75,3,17.5,11.75,19,18.75c0.432,2.016,0.75,3.865,1.045,5.642
	C137.051,325.756,142.265,326.102,145.167,330z"/>
<path id="القصيم" fill="#eeeeee" stroke="#000000" stroke-width="0.25" stroke-miterlimit="10" d="M262.667,285.667
	c8.333,6.167,26.167,3.167,23-3.5s5.333-10.5,15.5-14.333S311.333,257,320.333,257s22,3.667,19.667-6.667S329.5,232,329.667,223
	s20.333-15.833,14.667-21.167c-2.588-2.436-5.244-3.82-7.764-4.52c-0.822,2.487-2.175,3.852-6.402,4.353
	c-9.833,1.167-11.667-11.5-20-7.667s-15.248,3.356-17.5,9.833c-2.667,7.667-1.714,3.515-9,6.333
	c-3.875,1.499-10.167,9.667-15.667,12.333s-2.5,7.833-8.833,7.833c-4.333,0-4.833,2.5-4.833,6.333s-0.5,4.334-3.833,4.167
	s-3.333,1.5-3.333,5.333s-1.833,5.167-7.833,6.167c-2.476,0.413-3.392,1.308-4.456,2.018c5.371,5.085,0.644,19.688,6.122,19.274
	c6.625-0.5,3.25,14.125,8.625,14.5c1.036,0.072,1.498,0.545,1.582,1.341C254.157,285.663,258.296,282.432,262.667,285.667z"/>
<path id="نجران" fill="#eeeeee" stroke="#000000" stroke-width="0.25" stroke-miterlimit="10" d="M333.667,479.667
	c-7.5-7.5-3,3-6.333,5.5s-5.193,0.813-3.667,11.5c2,14-12,5.667-13.5,12.334c-1.065,4.735-3.417,5.499-7.667,9.749
	s-6.25,2.25-4.75,12.5c0.888,6.064-0.413,14.754-1.623,20.84c2.342,0.81,4.354,1.952,5.54,2.91c4.333,3.5,5.667,4.833,14.667,0.5
	s34-3.333,40,0.5s37.333,8.167,44.333,5s6.833-0.75,10.083,5.75s9,6.75,15.25,2.5c3.31-2.251,5.421-3.666,6.904-5.607
	c1.688-21.967,4.854-53.195,8.413-85.983c-21.696,4.917-72.893,7.912-81.984,8.509C349.167,486.835,341.167,487.167,333.667,479.667
	z"/>
<path id="جيزان" fill="#eeeeee" stroke="#000000" stroke-width="0.25" stroke-miterlimit="10" d="M274.625,536
	c-2.259-10.996-8.792-0.833-10.292,2.833s-3.25,8.084-6.917,0.75s-12.75-1.416-13.25-6.416c-0.697-6.974-9,0-7.333-11
	c1.341-8.852-7.066-2.907-13.13,2.351c2.9,9.262,25.477,24.038,25.963,31.982c0.5,8.167,2.167,8.167,6.5,12.5
	s3.909,11.539,5.833,15.333c5.47,10.785,8.5,3.833,14.833-3s0.5-1.833,2.833-18.833c1.198-8.727,5.82-11.388,10.622-11.441
	C283.184,547.172,276.315,544.224,274.625,536z"/>
<path id="الرياض" fill="#eeeeee" stroke="#000000" stroke-width="0.25" stroke-miterlimit="10" d="M434,288.667
	c-4.833-2.667-2.667-44.167-2.5-52s-1.5-3-10.333-7.167s-6.167-12.5-13-10S394,210.667,388,212c-4.556,1.012-8.167-1-12.667-6.667
	s-17.5-6-18.167-11.833c-0.283-2.475-1.558-3.717-2.981-4.725c-1.771-0.099-4.007-0.552-7.019-1.775
	c-1.726-0.701-3.054-1.415-4.125-2.125c-2,1.333-4.208,3.458-5.042,6.625c-0.629,2.39-0.933,4.307-1.431,5.814
	c2.521,0.699,5.176,2.084,7.764,4.52C350,207.167,329.833,214,329.667,223s8,17,10.333,27.333S329.333,257,320.333,257
	s-9,7-19.167,10.833s-18.667,7.667-15.5,14.333s-14.667,9.667-23,3.5c-4.371-3.234-8.51-0.003-11.46,3.8
	c0.299,2.85-4.259,9.852-4.832,17.534c-0.203,2.722-0.743,4.335-1.455,5.331c0.357,3.739,1.21,7.984,3.247,8.169
	c3.667,0.333,2.5,4.667,4.167,11.667s3,18.833,11.333,18.833s17-3.667,16.167,7.167s-1.167,8.833,6.167,8.5s10.167-2.5,9.833,8.167
	s-8.167,29.333-2.5,34.833s23.167,24.5,19.5,34.833c-3.484,9.82-5.797,10.527,16.49,32.841c0.521-0.729,1.666-0.352,4.344,2.326
	c7.5,7.5,15.5,7.168,25.667,6.501c9.091-0.597,60.288-3.592,81.984-8.509C449.227,404.809,459.082,324.26,459,320.5
	C458.597,302.062,438.833,291.333,434,288.667z"/>
<path id="عسير" fill="#eeeeee" stroke="#000000" stroke-width="0.25" stroke-miterlimit="10" d="M312.833,444.5
	c2.337-6.586-3.924-16.688-10.24-24.576c-4.505,5.453-10.233,12.298-13.761,7.742c-4.001-5.167-25.166,7.167-30.333,13.167
	s-6.167,6.5-10.333-1.5s-6.167-2.167-6,3.5s-6.667,4-6.333,12.333c0.236,5.901-7,9.167-1.833,9s2.167,7.167,3.5,15.667
	s-18.667,2.5-19.667,12.167c-0.579,5.593,1.387,9.015,7.333,10c6.595,1.093,8.073,9.763,8.341,15.889
	c2.427-0.775,3.957,0.111,3.325,4.278c-1.667,11,6.636,4.026,7.333,11c0.5,5,9.583-0.918,13.25,6.416s5.417,2.916,6.917-0.75
	s8.032-13.829,10.292-2.833c1.69,8.224,8.559,11.172,15.664,15.059c1.993-0.022,4.016,0.401,5.838,1.031
	c1.21-6.086,2.511-14.775,1.623-20.84c-1.5-10.25,0.5-8.25,4.75-12.5s6.602-5.014,7.667-9.749c1.5-6.667,15.5,1.666,13.5-12.334
	c-1.527-10.687,0.333-9,3.667-11.5c2.143-1.607,1.052-6.515,1.99-7.826C307.036,455.027,309.349,454.32,312.833,444.5z"/>
<path id="منطقةمكة" fill="#eeeeee" stroke="#000000" stroke-width="0.25" stroke-miterlimit="10" d="M293.333,409.667
	c-5.667-5.5,2.167-24.167,2.5-34.833s-2.5-8.5-9.833-8.167s-7,2.333-6.167-8.5S272,351,263.667,351s-9.667-11.833-11.333-18.833
	s-0.5-11.333-4.167-11.667c-2.037-0.185-2.89-4.43-3.247-8.169c-2.361,3.301-6.632-0.284-6.92,6.503
	c-0.283,6.661-5.333,7.833-9.833,10.167s-8.667,1.5-4.667,5.833s2.833,4-3.5,7.833s-10.333,9-15.167,13S203,363.833,196.667,361
	c-8.45-3.781-7.5,5.167-12.667,3.667c-8.194-2.379-0.333-6.5-5-9.833s-3.667-5.5-2.667-11.167s-4.167-7.5-11-3.333
	s-5.667-5.833-12.167-2.667c-4.24,2.066-2.167,0.167-8-7.667c-2.902-3.898-8.116-4.244-12.622-3.608
	c1.171,7.056,1.965,12.923,7.962,23.108c7.507,12.75,7.243,20.25,1.326,29.333c-5.351,8.215,9,18,3.5,23.833
	c-5.746,6.094,16.167,33,19.333,37.333s3.083,3.75,7.333,4.25s9.25,8.75,17,14.25s13.75,10.25,15,18.75s8,8.5,8.75,23.5
	c0.505,10.1,7.25,5.25,10.75,23c0.049,0.251,0.122,0.508,0.204,0.768c3.209-2.783,7.075-5.757,9.805-6.629
	c-0.268-6.126-1.747-14.796-8.341-15.889c-5.947-0.985-7.912-4.407-7.333-10c1-9.667,21-3.667,19.667-12.167
	c-1.237-7.891,1.248-14.766-2.521-15.579c-0.371-0.034-0.716-0.061-1.063-0.087c-0.536,0.014-0.931-0.013-1.211-0.076
	c-7.058-0.362-8.75,1.426-11.893,9.534c-3.076,7.938-3.979,7.041-10.646-0.125s-0.833-12.334-7.167-17
	c-4.57-3.367-0.5-6.334,4.667-9.834c7.668-5.194,7.167-9.166,7.333-12.666s6.167-10.167,7.333-5.834s1.5,10.667,8.833,6.5
	c7.59-4.313,11.509-2.013,13.477,0.753c0.919,0.054,2.094,1.17,3.523,3.914c4.167,8,5.167,7.5,10.333,1.5
	s26.332-18.334,30.333-13.167c3.527,4.556,9.256-2.289,13.761-7.742C299,415.436,295.389,411.661,293.333,409.667z"/>
<path id="الباحة" fill="#eeeeee" stroke="#000000" stroke-width="0.25" stroke-miterlimit="10" d="M231.167,434.666
	c-7.333,4.167-7.667-2.167-8.833-6.5S215.167,430.5,215,434s0.334,7.472-7.333,12.666c-5.167,3.5-9.237,6.467-4.667,9.834
	c6.333,4.666,0.5,9.834,7.167,17s7.57,8.063,10.646,0.125c3.142-8.108,4.835-9.896,11.893-9.534
	c-2.33-0.529,3.338-3.688,3.128-8.925c-0.333-8.333,6.5-6.666,6.333-12.333c-0.109-3.723,0.716-7.517,2.477-7.414
	C242.676,432.653,238.757,430.354,231.167,434.666z"/>
</svg>
