<?xml version="1.0" encoding="utf-8"?>
<!-- Generator: Adobe Illustrator 16.0.0, SVG Export Plug-In . SVG Version: 6.00 Build 0)  -->
<!DOCTYPE svg PUBLIC "-//W3C//DTD SVG 1.1//EN" "http://www.w3.org/Graphics/SVG/1.1/DTD/svg11.dtd">
<svg version="1.1" id="Layer_2" xmlns="http://www.w3.org/2000/svg" xmlns:xlink="http://www.w3.org/1999/xlink" x="0px" y="0px"
	 width="612px" height="792px" viewBox="0 0 612 792" enable-background="new 0 0 612 792" xml:space="preserve">
<g id="NorthEast">
	<path fill="#ccaeeb" stroke="#231F20" stroke-miterlimit="10" d="M337.548,125.798c-0.739,3.052-4.715,7.49-5.362,13.222
		c-0.647,5.732,4.068,8.229,5.271,9.616c1.201,1.387,1.293,5.27,2.866,6.656c1.571,1.386,3.235,1.202,5.36,2.497
		c2.128,1.294,5.642,0.462,7.213,0.648c1.572,0.185,1.942,1.016,2.219,2.958c0.277,1.942-0.186,5.085,1.849,6.75
		c2.034,1.665,8.692,6.564,10.911,8.506c2.219,1.941,7.304,8.136,8.043,10.17c0.74,2.034-1.572,3.791-0.186,6.842
		c1.387,3.052,7.584,0.924,9.247,0.369c1.664-0.555,4.438,0,8.969-0.462c4.529-0.462,2.033-1.756,2.496-3.329
		c0.463-1.572-1.387-2.126-2.22-2.958c-0.832-0.832,0.463-1.85,1.757-2.867c1.294-1.018-0.37-2.034-0.831-2.773
		c-0.463-0.739,5.454-3.235,6.564-4.068c1.108-0.833,3.327-1.941,5.361-1.849s3.329-0.278,5.179-2.034
		c0.688-0.654-0.11-1.321-1.476-1.982c-0.004,0.048-0.006,0.093-0.01,0.145c-0.135,1.757-1.352,1.757-3.245,0.811
		c-1.895-0.946-3.788-0.542-5.682-0.406c-1.893,0.136-7.304-0.134-8.521-5.273c0,0-0.405-2.029,2.3-2.976
		c2.705-0.947,3.11-1.894,4.328-2.029s1.623,1.216,2.704,1.758c0.008,0.003,0.018,0.007,0.024,0.01
		c0.592-0.414,1.219-0.648,1.625-0.597c0.738,0.093,11.834,0.738,13.406,0.83c1.572,0.092,7.674,0,7.674,0s2.312,2.866,4.807,3.144
		c2.497,0.277,7.213-4.438,11.096-7.859c3.883-3.421,8.32-3.698,10.17-4.068c1.849-0.37,0.925-1.849,1.109-4.993
		c0.185-3.144-2.127-6.009-3.237-7.304c-1.108-1.294,3.329-3.698,5.179-5.085c1.85-1.386,5.363-5.362,7.119-7.766
		c1.758-2.404,3.329-2.866,3.698-4.9c0.369-2.034-4.16-4.992-6.01-6.656c-1.069-0.962-1.733-3.032-2.107-4.665
		c-0.904,0.537-1.541,0.94-1.541,0.94l0.276,3.454c0,0-1.52-0.138-4.421-0.415c-2.902-0.276-6.632,0.691-9.809,0.139
		c-3.179-0.552-4.146-1.381-6.218-1.381s-2.901,0.691-4.421-0.553c-1.521-1.244-10.085-6.494-10.085-6.494s-2.212-1.796-3.454-2.21
		c-1.242-0.414-1.382-0.691-2.763-3.592c-1.382-2.901-4.284-9.533-7.737-8.98c-3.455,0.553-8.98,4.421-11.053,6.079
		c-2.073,1.658-3.178,3.177-3.178,3.177l3.178,0.415c0,0,0.553,1.795,1.242,2.487c0.692,0.69,2.349,1.795,1.521,2.625
		s-2.072,1.796-2.072,1.796s2.35,1.382,1.244,2.072c-1.106,0.691-1.936,0.553-1.106,1.796c0.83,1.243,0.414,2.211-1.243,0.691
		c-1.658-1.52-1.381-2.763-0.829-3.178c0.553-0.415,0.829-1.796,0.553-2.625c-0.276-0.829,0.691-1.382,1.105-1.244
		c0.414,0.138-1.519-3.592-3.592-2.625c-2.072,0.967-2.763,1.658-3.315,3.454s-1.52,2.763-2.764,3.73
		c-1.244,0.967-9.257-0.276-10.084,1.105c-0.829,1.382-1.244,11.743-1.244,11.743s-2.625,2.625-3.869,4.145
		c-1.244,1.52-2.21,6.908-3.868,6.079s0.829-5.25,2.349-7.045c1.52-1.796,4.698-3.73,4.146-6.632
		c-0.554-2.902-1.243-8.979,0.69-10.223c1.935-1.244,9.947-0.415,11.054-1.244c1.104-0.829,3.178-8.427,6.078-10.914
		s6.492-5.664,7.599-6.079c1.104-0.415,3.729-1.658-0.138-3.592c-3.869-1.934-7.6-4.697-10.225-8.842s-3.177-7.323-3.454-10.638
		c-0.275-3.316-1.657-4.835-5.525-4.006c-3.869,0.829-7.599,1.105-10.086,3.039c-2.487,1.934-3.591,4.145-4.697,6.908
		c-1.105,2.763-4.974,8.289-6.492,8.979c-1.521,0.691-5.389,2.486-5.942,3.454c-0.553,0.967-1.104,6.493-2.625,9.118
		c-1.519,2.625-5.11,3.868-5.11,3.868s-0.001,4.835-0.554,5.25c-0.282,0.212-0.926,1.108-1.396,1.492
		c-0.663,1.511-1.551,3.184-2.269,4.517C339.767,116.275,338.287,122.748,337.548,125.798z M396.839,152.65
		c1.217,0.405,3.517-0.406,4.057-0.812c0.542-0.406,1.895,0.946,0.678,4.462c-1.218,3.517-1.353,3.787-3.652,4.058
		c0,0-2.435,0.54-3.651-2.57C393.052,154.678,395.622,152.244,396.839,152.65z"/>
	<path fill="#ccaeeb" stroke="#231F20" stroke-miterlimit="10" d="M391.127,76.329c1.184,0.829,3.08,1.777,3.553,2.724
		c0.473,0.947,0.473,1.896,1.658,2.843c1.185,0.947,3.079,1.895,3.079,3.079s-0.591,2.724,0.119,2.487
		c0.71-0.237,0.474-2.487,2.487-1.185c2.013,1.303,5.802,4.974,5.447,4.027c-0.354-0.947-2.604-3.553-5.329-6.159
		s-3.908-4.026-4.738-5.33c-0.828-1.303-1.185,0.474-3.671-1.776c-2.487-2.25-3.316-5.093-5.33-4.146
		C388.402,72.895,389.942,75.5,391.127,76.329z"/>
</g>
<path id="NorthWest" fill="#ccaeeb" stroke="#231F20" stroke-miterlimit="10" d="M318.34,47.765
	c-2.487-3.73-6.217-6.908-6.217-6.908s-4.284,4.559-5.527,4.698c-1.242,0.138-6.493,3.316-7.183,1.795
	c-0.691-1.52,2.763-2.486,5.941-4.421c3.178-1.934,5.663-4.007,5.663-6.217c0-2.21-0.69-6.632-3.178-5.803
	c-2.486,0.829-2.072,1.52-4.145,1.796s-4.697,2.486-5.664,0.138s-0.553-9.808,0.553-8.15c1.105,1.658,1.244,4.006,1.244,4.006
	s3.592,0.69,4.835-0.829c1.243-1.52,2.072-2.901-1.244-4.974s-5.526-3.592-6.632-3.177c-1.105,0.414-1.52,1.381-2.486,0.552
	c-0.967-0.829-0.691-1.382,0.415-1.658c1.105-0.276,2.071-0.69-0.277-1.934s-1.52,0.552-3.177-1.105
	c-1.658-1.657-3.04-4.007-4.835-3.592s-2.073,0.277-3.178,2.625c-1.105,2.349-1.244,2.763-2.349,2.349
	c-1.105-0.415-0.966-1.935,0.415-4.145l1.52-1.796c0,0-6.631-4.283-7.599-4.145c-0.967,0.138-4.145,6.354-5.25,5.803
	c-1.105-0.553-0.415-2.763-1.658-3.04c-1.243-0.276-1.658-0.967-3.178,0.553c-1.519,1.52-4.144,2.487-2.487-0.139
	c1.658-2.625,6.493-3.73,4.145-4.697c-2.349-0.967-14.921-3.177-20.723-0.552c-5.803,2.625-16.579,8.705-23.625,13.954
	c-7.046,5.25-17.27,11.191-18.375,11.605c-1.105,0.414-3.869,2.349-3.177-0.139c0,0-1.52,0.414-1.935,1.52s-2.349,2.073-2.349,3.73
	c0,1.658-0.415,2.487-1.52,3.454c-1.105,0.967-2.349,2.211-2.763,4.007s-0.414,3.039-1.796,3.177
	c-1.382,0.139-0.553-0.829-2.072-0.967c-0.343-0.031-0.901-0.062-1.57-0.082c0.215,1.461,0.605,3.972,0.863,4.742
	c0.369,1.109,1.017,5.177-0.648,7.212c-1.664,2.034-7.119,7.766-7.858,11.187s0.37,12.666-0.647,14.331
	c-1.017,1.664-2.866,3.421-2.866,6.01c0,2.588,0.369,11.187,5.177,16.827c4.808,5.64,5.64,8.414,7.858,14.239
	c2.219,5.825,3.329,10.725,4.346,11.927c1.017,1.202,1.665,1.941,1.942,6.657c0.278,4.716,0.186,10.355,3.514,14.331
	c3.328,3.976,7.303,9.894,9.153,10.448c1.849,0.554,6.288,2.126,5.271,5.271c-1.017,3.143-6.195,1.849-7.212,3.143
	c-1.017,1.295-0.555,3.051-1.757,3.421c-1.202,0.37-2.496,0.463-4.16,1.757c-1.665,1.294-3.329,1.942-4.993,2.034
	s-5.084-0.093-5.084-0.093s-1.018,5.548,0.739,7.305c1.756,1.757,12.204,9.8,13.961,11.742s4.531,4.623,7.396,4.993
	c2.866,0.369,4.531,0.092,6.842,2.404c2.312,2.311,7.952,5.732,10.633,6.287c2.681,0.554,3.328,1.849,3.328,2.958
	c0,1.11,0.555,1.11,1.665,1.388c1.109,0.277,2.312,3.79,3.421,2.403c1.109-1.387,0.739-3.513,1.387-4.623
	c0.647-1.11,1.202-2.497,0.647-4.253c-0.555-1.757-0.185-2.403,1.664-5.547c1.849-3.144,4.068-6.841,5.455-6.934
	c1.387-0.093,5.732-1.387,5.917-4.531s0.647-8.414,1.942-9.523c1.294-1.109,3.883-3.975,2.034-4.53
	c-1.85-0.555-2.681-0.093-4.345-1.109c-1.665-1.017-8.599-7.119-9.616-7.952c-1.017-0.832-3.79-2.958-3.698-6.009
	c0.092-3.052,2.773-5.64,4.438-7.212c1.665-1.572,2.404-3.513,3.329-4.9c0.925-1.387,5.656-5.187,7.12-5.918
	c0.595-0.297,5.195-6.458,6.058-14.004c-0.039-0.151-0.087-0.269-0.149-0.33c-0.541-0.541-2.976-0.541-3.652-0.136
	c-0.676,0.406-2.029,0.676-1.894,2.029s-0.406,5.139-0.135,5.951s0.234,3.902,0.234,3.902l-3.075-4.308c0,0-1.082,2.299-1.758,2.57
	c-0.676,0.27-2.84,1.488-3.516,1.217c-0.676-0.271-2.029-0.947-2.029-0.947s0.405,3.652,0,3.652c-0.406,0-2.029-0.542-2.029-0.542
	s-3.651,0.136-4.057-0.135c-0.406-0.271-0.406,1.623-0.406,1.623l-2.164-0.676v2.029l-1.352,1.082l-0.947-1.217
	c0,0,0.271,2.029-0.135,2.164c-0.406,0.135-2.164,0.405-2.569,0.27c-0.406-0.135-2.434-0.271-3.517-0.541
	c-1.082-0.27-2.435,0.271-2.84,0.947c-0.406,0.676,0.405,1.758,0.405,1.758s-1.487,1.623-2.569,0.541
	c-1.083-1.082-2.705-2.299-2.705-2.299s2.028,0.271,2.299-0.135c0.271-0.406-0.405-1.894,0.271-2.299
	c0.676-0.405,2.84,0.812,3.788-0.27c0.946-1.083,3.11-1.488,3.11-1.488l-0.136-1.218l2.435-1.623c0,0-2.976,0.271-3.787,1.082
	c-0.812,0.812-2.57,1.217-2.57,1.217s0.812-2.164,2.164-3.11c1.353-0.947,4.193-3.652,4.193-2.976s1.488,2.84,2.028,2.976
	c0.541,0.135-0.947-2.299-0.135-2.299s3.246,0,3.246,0s3.246-3.111,1.758-2.84c-1.488,0.271-2.705,1.623-3.652,1.217
	c-0.947-0.406-0.946-4.057-1.894-3.516c-0.947,0.541-1.217,2.84-1.758,2.435c-0.542-0.406-0.947-3.651-1.624-2.84
	c-0.676,0.812-0.27,5.545-0.946,5.14c-0.676-0.406-1.758-0.677-1.758,0c0,0.676-1.217,4.057-1.758,2.84
	c-0.541-1.217-1.217-2.435-1.488-1.488c-0.271,0.947-0.135,4.192-1.082,3.787c-0.947-0.405-1.217-1.623-1.488-2.434
	c-0.271-0.812-1.353-1.487-1.623,0.406c-0.271,1.893,0.541,4.463-0.947,4.192c-1.488-0.271-2.569-0.135-2.569-1.082
	c0-0.947,2.029-1.759,1.623-2.84s-3.381-1.217-2.84-1.893c0.541-0.677,2.84,0.405,2.975-0.677s0.406-2.299,0.406-2.299
	s5.951,0.675,7.033-1.488c1.083-2.164-1.353-3.922-2.029-2.84s-1.216,2.705-1.758,1.623c-0.542-1.082-1.083-2.569-0.542-4.598
	c0.542-2.029,2.434-1.082,2.57-2.029c0.135-0.947-0.947-4.463,0.135-3.787s1.488,3.922,2.706,4.463
	c1.217,0.542,2.569,0.947,1.217-0.676s-1.623-1.623,0.27-1.893c1.894-0.271,3.111-0.406,2.299-1.488
	c-0.812-1.082-3.787-2.84-2.299-2.84s4.058,2.029,3.923-0.271c-0.136-2.299-0.136-4.598,0.676-2.975
	c0.812,1.623,0.812,3.381,1.487,3.516c0.676,0.135,1.352,0.812,0.135,1.624c-1.217,0.811-2.164,3.651-2.164,4.057
	s0.812-2.705,1.758-0.946c0.946,1.758,1.488,0.946,1.894-0.135c0.406-1.082,0.677-1.217,1.488-1.217
	c0.811,0,1.893-0.947,2.028-1.488s1.217,1.487,0.135,2.434c-1.082,0.947-2.705,3.787-2.705,3.787s1.894-2.164,2.976-2.029
	c1.082,0.136,2.299,0.676,1.217,1.488c-1.082,0.812-1.217,2.029-1.217,2.029s3.246,1.218,3.381,0.271
	c0.135-0.947-0.135-2.705,0.812-2.028c0.946,0.676,1.623,2.164,2.57,1.758c0.947-0.405,1.352-1.082,0.405-1.758
	c-0.946-0.676-0.405-2.706,0.542-3.246c0.947-0.541,1.623-1.083,2.569-2.029c0.947-0.946,1.894-1.623,2.84-0.676
	c0.947,0.947,2.84,4.328,2.84,4.328s1.217-1.083,0.812-1.894c-0.406-0.811-1.758-2.569-0.406-2.028
	c1.353,0.541,2.299,2.434,2.299,2.434h2.029c0.327-0.047,0.569,0.005,0.774,0.08c0.388,0.141,0.629,0.368,0.983,0.19
	c0.541-0.27,0.271-1.757,0-2.164c-0.165-0.247-1.03-1.347-1.622-2.414c-0.379-0.685-0.648-1.355-0.542-1.779
	c0.054-0.218,0.148-0.311,0.269-0.321c-0.816-7.086-0.3-11.457-0.607-13.144c-0.37-2.034-3.976-7.767-4.901-8.969
	c-0.924-1.202-2.588-3.421,2.034-4.161c4.623-0.74,9.431-3.328,11.465-10.17c2.034-6.842,3.792-11.835,5.64-13.869
	c1.849-2.034,8.044-5.178,11.465-1.017c3.421,4.16,5.084,8.136,8.228,7.673c2.48-0.364,4.85-2.215,8.234-1.713
	c0.461-0.439,1.083-0.827,1.741-1.024c1.382-0.415,3.454-0.691,3.454-0.691s0.276-1.795,0.967-2.625
	c0.691-0.829,1.243-0.829-0.553-1.796c-1.796-0.967-0.138-0.967,1.382-0.829s2.626-0.552,3.454-1.934
	c0.829-1.382,0.414-4.559,1.657-6.494c1.243-1.934,2.487-1.381,2.901-2.901s0.414-3.04,1.934-4.145
	C319.307,51.633,320.827,51.495,318.34,47.765z M248.067,91.923c-0.271,0.406-4.463,4.869-5.951,6.627
	c-1.487,1.758-3.246,0.947-4.599,0.271c-1.353-0.676-2.299,1.082-2.299,1.082s-0.676,0.947-1.758,3.517
	c-1.083,2.569,0.946,1.758,0.676,5.274c-0.271,3.516-2.029,0.676-2.029-1.353c0-2.029-0.676-1.758-1.893-1.623
	c-1.217,0.135-1.488,0-1.488,0c1.623-1.083,3.11-4.463,2.705-5.681c-0.405-1.217,1.353-3.111,1.353-3.111s-3.246,0.541-4.598,0.947
	s-0.947,2.164-1.353,3.246c-0.406,1.082-1.353-1.623-2.976-1.488c-1.623,0.135-1.353,2.028-0.405,2.705
	c0.947,0.676-0.676,2.029,0.135,2.841s-0.541,1.487-0.406,3.516c0.136,2.029,1.623,2.435,0.947,2.57
	c-0.676,0.135-0.542,1.758-1.353,2.975c-0.812,1.218-1.623-5.41-2.029-6.357c-0.405-0.947-0.27-3.516-1.217-3.922
	c-0.947-0.405-1.488,3.922-2.029,5.545s1.217,3.381,1.217,3.381s-1.623-0.27-2.163-0.27c-0.542,0-1.894,3.652-2.976,3.516
	c-1.083-0.135,1.082-2.976,1.488-3.516c0.406-0.541,0.406-5.275,0.812-6.897c0.405-1.623-1.083-0.947-2.165-0.812
	c-1.082,0.135-2.299,2.164-1.894,1.082c0.406-1.082-1.352-0.676-1.082-2.164c0.271-1.487,4.057-0.27,7.438-2.434
	c3.381-2.164-3.111-1.894-4.328-1.353s-4.193,0.812-4.463-0.812c-0.271-1.623,3.246-1.217,4.463-1.758
	c1.217-0.541,2.57-0.135,4.193,0c1.623,0.135,2.299,0,1.893-1.758c-0.405-1.758,2.029-0.135,2.029-0.135
	c-0.676-2.705-7.033-2.299-6.221-2.705c0.812-0.406,1.893-3.517,1.893-3.517s0.676,1.894,2.299,2.299
	c1.1,0.275,2.322-0.566,2.87-1.054c0.075-0.141,0.16-0.244,0.241-0.298c0.131-0.087,0.021,0.066-0.241,0.298
	c-0.299,0.566-0.41,1.756,0.782,2.948c1.488,1.487,2.435,2.028,1.623,0.676c-0.811-1.353,0.676-1.082,1.758-0.676
	c1.082,0.405,1.758-0.406,1.623-1.624c-0.135-1.217-2.705-2.434-1.217-3.11c1.487-0.676,3.922,3.922,4.192,3.517
	c0.271-0.406,1.759,0,2.976-1.488c1.217-1.487-0.541-1.893-1.894-2.029c-1.353-0.135,1.082-1.758-0.135-2.705
	c-1.218-0.946-2.57,0.947-3.923,1.353c-1.352,0.405-1.758-1.218,0-2.299c1.758-1.082-0.811-1.083-2.435-0.947
	c-1.623,0.135-1.487,1.488-2.299,2.029c-0.812,0.542-1.893,2.029-2.434,1.082c-0.542-0.947-1.894-2.705-2.299-3.516
	s0.811-0.947,1.893-0.271c1.082,0.676,2.57-0.405,2.435-1.352c-0.135-0.947-1.217-1.217-1.488-2.029
	c-0.271-0.811,0.946-1.353,1.758-1.623c0.812-0.271,1.894,0.406,2.434,1.488c0.542,1.082,3.111,0.947,3.111,0.947
	s-0.27-2.164,0.136-3.381c0.405-1.217,1.352-1.217,2.975-1.624c1.623-0.406,1.758,1.353,0.676,1.353s-2.164,1.623-0.947,2.57
	c1.218,0.947-0.135,2.57,0.541,4.192c0.677,1.623,2.435-1.623,2.705-2.028c0.271-0.406,0.947,0,1.082,0.811s1.217-0.811,1.353-1.623
	c0.135-0.812,0.812-1.082,0.812-1.082s0.541,1.894,0.271,2.57c-0.271,0.676,0.27,1.487,0.676,1.623
	c0.406,0.136,0.405-1.352,0.812-1.893s0.676,1.758,0.676,2.164c0,0.406,1.217,0.946,2.299,0.27c1.082-0.676-0.541-1.758-1.217-2.164
	c-0.676-0.405-1.758-2.976-2.028-3.787c-0.271-0.811,0.812-2.569,0.676-3.111c-0.135-0.541,1.353-2.028,1.758-2.028
	c0.405,0,0.947,0.947,0.812,1.488c-0.135,0.541,0.271,1.893,0.405,2.435c0.136,0.542,1.894,3.246,2.57,4.057
	s2.299,1.758,2.434,2.569c0.135,0.812,0.676,2.029,1.758,2.57C251.583,87.46,248.337,91.518,248.067,91.923z"/>
<g id="SouthEast">
	<path fill="#ccaeeb" stroke="#231F20" stroke-miterlimit="10" d="M607.626,79.882c-0.946-1.658-4.736-9.356-7.224-10.777
		c-2.487-1.421-4.146-3.316-5.447-4.619c-1.303-1.303-6.396-5.448-9.238-5.685c-2.843-0.237-3.91-1.066-6.87-2.368
		c-2.96-1.303-6.039-3.199-8.29-2.369c-2.25,0.829-2.487,3.435-5.092,3.79c-2.606,0.355-4.146-0.829-5.567-1.185
		c-1.421-0.355-2.606,1.066-4.501-0.947c-1.895-2.014-2.961-2.605-2.961-0.355c0,2.25-0.592,2.369-1.895,3.435
		c-1.303,1.066-3.552,4.382-5.211,4.146c-1.658-0.237-2.842-1.066-3.554-0.474c-0.71,0.592-2.487,1.303-3.553,0.711
		c-1.065-0.593-1.422-1.658-1.422-1.658s-2.131,0.237-2.131,1.658c0,1.421,0.71,6.396,1.895,8.409
		c1.185,2.014,2.014,4.737,0.236,8.054c-1.775,3.316-1.895,4.146-1.895,4.146c0.119,1.066,2.133,4.381,6.159,6.04
		c4.026,1.659,6.159,4.027,6.395,6.396c0.237,2.369-0.117,2.843,2.487,5.211c2.605,2.368,3.554,5.566,3.554,5.566
		s0.593-0.592,1.776,0.474s3.198,4.264,1.658,6.158c-1.54,1.895-2.368,3.316-3.553,4.738c-1.185,1.421-4.026,4.501-0.948,4.382
		c3.08-0.119,5.448-2.25,7.343-1.422c1.896,0.829,3.79,1.066,9.475-0.118c5.686-1.184,14.45-4.738,18.714-6.751
		s11.725-2.132,12.198-6.514c0.475-4.382,2.725-13.028,3.435-15.634c0.712-2.605,2.369-4.381,1.54-5.803
		c-0.828-1.421-0.828-2.25,0.83-3.553C607.626,81.659,608.574,81.541,607.626,79.882z M557.647,72.303
		c-1.422,0.355-1.541,3.079-1.186,4.619c0.356,1.54,3.791,2.014,4.738,2.132c0.946,0.119-0.119,1.185-0.237,2.013
		c-0.117,0.829-1.303,0.711-1.658,0.355s-4.382-0.474-4.5-1.658c-0.118-1.185-1.657,0.118-3.435-0.237
		c-1.776-0.356-3.08-2.132-3.08-2.132s-0.643-7.072-0.236-7.343c1.422-0.947,1.54-0.237,2.487,1.066
		c0.947,1.302,3.079,0.355,2.724-0.948c-0.355-1.302-0.592-2.131,0.355-2.842c0.947-0.71,1.896,0.474,3.435,1.066
		c1.54,0.592,6.159-0.355,6.633,1.303C564.161,71.355,559.068,71.947,557.647,72.303z M589.151,92.555
		c-3.79,2.368-11.371,5.33-13.739,3.197c0,0-0.355-1.776,5.685-3.079C587.137,91.371,592.94,90.187,589.151,92.555z"/>
	<path fill="#ccaeeb" stroke="#231F20" stroke-miterlimit="10" d="M527.564,77.987c4.501-0.947,4.855-3.553,3.671-6.04
		c-1.184-2.487-2.605-4.145-4.263-4.263c-1.658-0.119-3.316-0.356-3.435-3.198c0,0-4.265,5.329-3.316,7.698
		C521.17,74.553,523.064,78.936,527.564,77.987z"/>
	<path fill="#ccaeeb" stroke="#231F20" stroke-miterlimit="10" d="M435.066,89.594c-1.776-0.592-2.487-0.118-3.436-1.303
		c-0.947-1.185-3.672-5.33-4.618-4.5c-0.947,0.829,0.354,2.013,0.354,2.013l9.121,8.172
		C436.488,93.976,436.843,90.186,435.066,89.594z"/>
	<path fill="#ccaeeb" stroke="#231F20" stroke-miterlimit="10" d="M522.256,190.065c-0.968-1.381,8.703-19.065,12.71-29.565
		s5.94-15.473,5.94-15.473s-14.506-7.875-20.308-10.224c-5.803-2.349-7.46-2.073-7.875-1.52s-1.658,1.382-3.039,1.105
		c-1.382-0.276-0.415-1.658-2.072-1.658c-1.658,0-3.04-0.276-2.902-2.073c0.14-1.795,1.106-2.21,2.764-1.795
		c1.658,0.415,1.381,0.138-0.139-0.967c-1.519-1.105-2.763,0.138-4.282-4.145c-1.52-4.283-3.592-9.947-5.25-12.158
		c-1.657-2.211-1.935-4.559-4.836-4.974s-4.696-1.244-6.907-2.072c-2.211-0.829-5.249-1.935-5.249-1.935s0.138,0.829,1.796,1.935
		c1.658,1.105,5.663,1.934,3.73,2.486c-1.935,0.553-4.285-0.552-6.219-1.934s-3.314-1.382-6.631-1.382s-10.085,0.553-9.671,3.178
		s2.487,2.21,3.316,3.178c0.828,0.967,1.104,1.795-0.139,2.072c-1.243,0.276-2.901-0.277-3.729-0.967
		c-0.575-0.479-4.008,1.434-6.058,2.652c0.374,1.633,1.038,3.703,2.107,4.665c1.85,1.664,6.379,4.623,6.01,6.656
		c-0.369,2.034-1.94,2.497-3.698,4.9c-1.756,2.404-5.27,6.38-7.119,7.766c-1.85,1.387-6.287,3.791-5.179,5.085
		c1.11,1.295,3.422,4.161,3.237,7.304c-0.185,3.144,0.739,4.623-1.109,4.993c-1.85,0.37-6.287,0.647-10.17,4.068
		c-3.883,3.421-8.599,8.137-11.096,7.859c-2.495-0.278-4.807-3.144-4.807-3.144s-6.102,0.092-7.674,0
		c-1.572-0.092-12.668-0.737-13.406-0.83c-0.406-0.051-1.033,0.183-1.625,0.597c1.098,0.532,3.912,0.686,5.927,3.507
		c1.97,2.757,2.28,2.842,2.174,4.454c1.365,0.661,2.163,1.328,1.476,1.982c-1.85,1.756-3.145,2.126-5.179,2.034
		s-4.253,1.016-5.361,1.849c-1.11,0.833-7.027,3.33-6.564,4.068c0.461,0.739,2.125,1.756,0.831,2.773
		c-1.294,1.017-2.589,2.035-1.757,2.867c0.833,0.832,2.683,1.386,2.22,2.958c-0.463,1.572,2.033,2.866-2.496,3.329
		c-4.53,0.462-7.305-0.093-8.969,0.462c-1.663,0.555-7.86,2.683-9.247-0.369c-1.387-3.051,0.926-4.808,0.186-6.842
		c-0.739-2.034-5.824-8.229-8.043-10.17c-2.219-1.942-8.877-6.842-10.911-8.506c-2.034-1.664-1.571-4.808-1.849-6.75
		c-0.276-1.942-0.646-2.773-2.219-2.958c-1.571-0.186-5.085,0.646-7.213-0.648c-2.125-1.295-3.789-1.111-5.36-2.497
		c-1.573-1.387-1.665-5.27-2.866-6.656c-1.203-1.387-5.919-3.884-5.271-9.616c0.342-3.021,1.606-5.679,2.836-7.968
		c-2.312-0.398-5.677-0.943-7.243-1.026c-2.512-0.132-6.081-1.322-7.535,1.586c-1.454,2.909-2.379,9.782-3.965,11.765
		c-1.587,1.982-4.099,3.172-3.966,5.023c0.132,1.85-0.264,5.154,0.661,6.08s4.626,4.496,3.833,7.139
		c-0.793,2.643-1.321,1.851-3.568,2.511c-2.248,0.661-5.553,1.983-4.23,3.305c1.321,1.322,3.7,0.792,6.609,1.718
		c2.908,0.926,3.833,1.72,3.966,3.57c0.132,1.85-0.133,7.667,1.718,8.46c1.851,0.793,10.312,3.569,12.294,6.609
		c1.983,3.04,5.023,8.725,3.835,9.65c-0.655,0.509-1.709,0.537-2.524,0.46c-0.168,0.181-0.349,0.377-0.544,0.589
		c-1.519,1.658-2.209,2.901-3.176,3.592c-0.968,0.691-2.625,1.52-1.658,3.454c0.966,1.934,2.485,5.25,1.243,6.907
		c-1.243,1.658-3.454,3.592-1.243,3.316c2.21-0.276,2.763,0.276,2.9,1.796c0.138,1.52,0.691,4.421,4.422,4.835
		c3.729,0.415,13.677-10.914,10.085-5.25c-3.593,5.665-5.803,7.736-9.671,7.598s-12.71,0.415-12.71,0.415s0.275,6.631,4.006,12.02
		c3.73,5.388,9.118,9.671,9.118,9.671s2.625-5.388,4.282-5.112c1.658,0.276,2.902-1.658,4.423-2.625
		c1.519-0.968,2.899-0.553,3.729-1.658c0.829-1.105,2.626-3.177,3.73-3.592c1.105-0.414,3.593-1.382,4.422-3.039
		c0.828-1.658,3.73-0.692,5.249-1.106c1.52-0.415,4.56-2.625,6.218-3.04c1.658-0.414,11.191-2.486,13.263-3.868
		c2.072-1.382,14.781-5.25,22.519-6.771c7.737-1.52,15.197-4.836,18.651-5.941c3.454-1.104,13.125-2.762,16.578-3.868
		s8.705-3.041,10.087-3.178c1.382-0.138,8.428-1.935,14.368-2.349c5.94-0.414,9.947,0,10.499-1.105
		c0.554-1.105,3.039-4.559,2.35-0.552c-0.691,4.006,0.691,6.907,0.691,6.907s2.763-1.934,4.973-1.657
		c2.211,0.276,9.532,3.039,9.671,3.454c0.139,0.414,3.731-6.217,2.351,1.381c0,0,6.078,1.52,8.979-1.658
		c2.901-3.177,4.835-5.249,5.25-4.559s1.382,1.796,1.382,1.796l1.105-2.902h14.506l-0.277-5.664c0,0,7.185,0.275,7.6-0.415
		c0.414-0.69,0.139,5.803,0.139,5.803h1.243l-0.14-11.191C535.518,190.341,523.224,191.447,522.256,190.065z"/>
	<path fill="#ccaeeb" stroke="#231F20" stroke-miterlimit="10" d="M410.313,70.763c1.896,0,1.659,0.236,2.132,1.421
		c0.474,1.184,0.355,1.421,2.843,1.658c2.487,0.237,1.896-0.236,2.961-1.065s2.962-3.435,4.737-2.013
		c1.776,1.421-3.79,3.316-4.974,3.553c-1.184,0.236,1.895,1.303,3.434,2.487c1.54,1.185,1.54,0.355,3.673,1.066
		c2.132,0.71,5.329,3.197,6.157,3.79c0.829,0.592,1.658,2.606,2.251,2.961c0.592,0.355-0.119-1.777-0.354-2.842
		c-0.238-1.066,1.539-1.777,2.485-1.303c0.948,0.474,0.475,3.671-0.354,3.909c-0.83,0.237-1.065,1.066-1.065,1.066
		s0.829,0.237,2.013,0.237c1.185,0,3.908,3.316,4.62,4.382c0.709,1.066,1.775,3.316,3.552,4.027c1.777,0.71,3.436-0.355,3.436-0.355
		s-1.185-0.473-2.251-0.473c-1.065,0-0.354-1.658,0.355-2.606c0.711-0.947,2.132-2.487,3.908-2.605
		c1.776-0.118,1.776,1.303,2.014,3.08c0.236,1.776,4.975,0.237,6.988-0.237c2.014-0.474,2.843-1.066,4.501-2.725
		c1.657-1.658-2.133-0.828-3.79-0.71c-1.658,0.118-0.711-0.829-0.356-1.895c0.356-1.066,3.672-0.355,5.448-0.237
		c1.776,0.119,2.131-1.421,3.908-1.895s4.027,0.237,6.278,1.065c2.25,0.829,1.775,0.474,2.959-0.236
		c1.186-0.711,4.738-0.829,7.226-0.948c2.487-0.118,1.303-1.066,0.236-2.131c-1.065-1.066-0.474-2.487,0.475-3.909
		c0.947-1.421-0.119-3.198-1.54-5.211c-1.422-2.013-2.368-1.184-2.605-0.474c-0.236,0.711-1.775,0.119-2.843-0.592
		c-1.065-0.71-4.737-0.473-6.75,0.592c-2.013,1.066-3.316,0.474-4.383-0.355c-1.065-0.829-2.487-0.237-2.843,0.592
		c-0.354,0.829-1.302-0.473-2.962-2.132c-1.657-1.658-8.645,0.83-10.657,1.659c-2.016,0.829-11.016,1.421-11.607,1.065
		c-0.593-0.355-1.658-1.658-4.975-2.605c-3.316-0.947-4.975-3.908-6.75-5.567c-1.776-1.658-2.369-0.592-4.856-1.065
		c-2.486-0.474-9.712-4.264-11.37-4.264c-1.657,0-1.539,1.658-2.25,1.895s-1.895,0.474-2.486,1.303
		c-0.593,0.829-2.008,0.359-3.436,0.947c-2.013,0.83,0.593,3.671,2.488,6.041C407.825,71.474,408.418,70.763,410.313,70.763z"/>
</g>
<g id="CentralSingapore">
	<path fill="#ccaeeb" stroke="#231F20" stroke-miterlimit="10" d="M283.366,160.9c-1.082-2.029-2.84-0.948-2.84-0.948
		s1.623,3.382,0.676,3.922c-0.947,0.541-1.894-0.27-1.759-1.352c0.136-1.082-0.541-2.164-1.623-2.164
		c-1.082,0-0.947-1.082-1.217-2.029c-0.271-0.946,2.163-0.542,2.704-1.623c0.542-1.082-1.352-0.811-2.975-1.217
		c-1.623-0.406-2.705,2.57-2.57,4.193c0.135,1.623,2.3,2.57,2.165,3.922s-1.083,0.406-1.759-0.135
		c-0.676-0.541-1.758-2.569-2.028-1.353c-0.271,1.217-2.029,0.27-3.517-0.135c-1.487-0.406-0.947-3.652-2.299-3.922
		c-1.353-0.271,0.271,4.463-1.758,4.193c-2.029-0.27-1.759-3.787-3.517-3.922s-0.947,3.381-1.217,4.598
		c-0.271,1.217-6.627-4.598-9.198-5.68c-2.569-1.082-2.79,1.391-2.569,1.758c0.405,0.676,3.246,1.623,5.275,1.758
		c2.029,0.136,4.057,2.975,4.598,3.11c0.542,0.136-0.27,0.812-0.676,3.787c-0.405,2.975,0.406,2.976,1.218,0.947
		s2.434-1.893,4.192-2.028c1.759-0.135-1.217,4.463-1.758,5.68c-0.541,1.217,1.893-0.946,2.976-2.434
		c1.082-1.488,1.758-3.516,2.164-3.381c0.406,0.135,3.787-0.676,5.274-0.811c1.487-0.135,2.976,1.217,4.463,2.299
		c1.488,1.082,1.623,0.406,2.028-0.811c0.406-1.218,1.217,0,1.487,1.353c0.271,1.352,1.488,0.54,3.246-0.136
		c1.758-0.676,2.57-2.84,2.57-3.922c0-1.082,1.894-1.082,1.353-1.623C285.936,162.251,284.448,162.928,283.366,160.9z"/>
	<path fill="#ccaeeb" stroke="#231F20" stroke-miterlimit="10" d="M337.43,197.444c1.188-0.925-1.852-6.61-3.835-9.65
		c-1.982-3.041-10.443-5.816-12.294-6.609c-1.851-0.793-1.586-6.61-1.718-8.46c-0.133-1.851-1.058-2.644-3.966-3.57
		c-2.909-0.926-5.288-0.396-6.609-1.718c-1.322-1.321,1.982-2.644,4.23-3.305c2.247-0.66,2.775,0.132,3.568-2.511
		c0.793-2.644-2.908-6.213-3.833-7.139s-0.529-4.23-0.661-6.08c-0.133-1.851,2.379-3.041,3.966-5.023
		c1.586-1.983,2.511-8.856,3.965-11.765c1.454-2.908,5.023-1.718,7.535-1.586c1.566,0.083,4.932,0.627,7.243,1.026
		c1.102-2.054,2.177-3.811,2.526-5.254c0.739-3.051,2.219-9.523,3.514-11.927c0.718-1.333,1.605-3.006,2.269-4.517
		c-0.446,0.365-0.736,0.265-0.399-1.354c0.691-3.316,0.968-6.493,0.968-6.493s4.698-2.902,4.56-5.25
		c-0.14-2.349-0.14-3.315,0.829-4.006c0.966-0.691,0.275-3.868,2.486-5.388c2.21-1.52,9.532-6.217,8.98-8.98
		c-0.553-2.763-4.697-0.829-7.599-2.625c-2.902-1.796-5.112-3.178-6.909-2.763c-1.795,0.415-1.795,0.415-1.795,0.415
		s1.105,6.769-1.243,6.493c-2.35-0.276-1.244-1.381-1.382-1.934c-0.138-0.552-0.967-1.105-0.138-1.796
		c0.828-0.691,1.382-2.072,0-2.21c-1.383-0.138-2.765-0.829-5.94-4.835c-3.179-4.006-4.975-6.77-8.98-6.217
		c-4.007,0.552-4.697,0.553-5.388,2.901c-0.692,2.348-0.968,1.934-1.797,3.177s-0.414,3.454-1.796,3.73
		c-1.382,0.277-1.382,1.244-2.349,2.625c-0.967,1.381-4.835,5.111-6.632,5.94c-1.796,0.829-3.039,2.625-3.039,3.73
		s-0.414,0.553-1.657,0.691c-1.244,0.138-1.659,1.934-3.178,2.763s-3.316,1.658-3.316,1.658l-0.138,4.421
		c0,0-2.072-0.138-4.421-2.625c0,0,0.138,3.178-0.829,4.283c-0.967,1.105-1.658,1.381-1.658,1.381s5.111,10.362,4.282,10.915
		c-0.829,0.553-5.388-10.915-5.388-10.915l-2.625-0.138l-3.454,3.868c0,0,0-2.21,1.105-3.04l0.967-0.967l-1.934-0.829
		c0,0-1.796,3.04-2.625,2.902c-0.829-0.139,1.52-4.421,2.487-5.526c0.966-1.105,0.967-1.658-0.276-1.935
		c-1.244-0.276-1.935-1.934-0.691-3.315c1.244-1.382,3.177-2.487,3.177-2.487s-3.592-0.553-5.802,1.105
		c-2.211,1.658-2.487,3.868-2.487,3.868s-11.743,2.901-11.604,1.382c0.138-1.52,9.256-3.177,9.256-3.177s0.415-6.218,2.487-7.046
		c2.072-0.829,4.007-1.244,5.112-1.935s2.211-0.829,2.487,0.691s5.526,0.552,5.526,0.552s1.658,2.763,3.868,2.349
		c2.21-0.415,3.73-1.105,5.25-2.625s2.901-2.072,2.901-2.072s-2.349-1.244-2.487-2.072c-0.072-0.434,0.239-0.98,0.746-1.463
		c-3.385-0.502-5.754,1.349-8.234,1.713c-3.144,0.462-4.807-3.513-8.228-7.673c-3.421-4.161-9.616-1.017-11.465,1.017
		c-1.849,2.034-3.606,7.027-5.64,13.869c-2.034,6.842-6.842,9.43-11.465,10.17c-4.623,0.74-2.958,2.958-2.034,4.161
		c0.925,1.202,4.531,6.935,4.901,8.969c0.307,1.687-0.209,6.058,0.607,13.144c0.478-0.039,1.383,1.295,2.031,1.943
		c0.811,0.812,1.623,1.623,2.028,0.947c0.406-0.676,1.758-1.894,1.353-0.541c-0.406,1.353-1.353,3.11-1.218,3.787
		c0.136,0.676,2.976,2.976,2.976,2.976s-0.947-2.299,0-2.028c0.947,0.27,2.299,0.812,2.164,0.405
		c-0.135-0.405-1.218-3.517,0.27-2.569c1.489,0.947,1.624,4.058,1.624,4.058s3.111,1.217,2.028,4.328
		c-1.082,3.111-2.57,2.3-3.246,3.246s-1.893,1.083-1.353-0.676c0.541-1.758-1.623-0.271-2.434,0.811
		c-0.812,1.083-1.218,3.247-2.299,2.976c-1.082-0.271-1.893-1.353-2.569-1.217c-0.676,0.135,6.221-4.734,4.598-5.951
		c-1.623-1.217-3.922-1.487-3.922-0.541s-0.662,2.031-0.933,2.572c-0.24,0.479,0.039-2.966-0.271-4.135
		c-0.863,7.546-5.463,13.707-6.058,14.004c-1.463,0.731-6.195,4.531-7.12,5.918c-0.924,1.387-1.664,3.328-3.329,4.9
		c-1.664,1.572-4.345,4.16-4.438,7.212c-0.092,3.051,2.681,5.178,3.698,6.009c1.017,0.833,7.952,6.935,9.616,7.952
		c1.664,1.017,2.496,0.554,4.345,1.109c1.849,0.555-0.74,3.421-2.034,4.53c-1.294,1.11-1.757,6.38-1.942,9.523
		s-4.53,4.438-5.917,4.531c-1.387,0.093-3.605,3.791-5.455,6.934c-1.849,3.144-2.219,3.79-1.664,5.547
		c0.555,1.756,0,3.144-0.647,4.253c-0.648,1.109-0.277,3.235-1.387,4.623c-1.109,1.386-2.312-2.126-3.421-2.403
		c-0.513-0.128-0.902-0.201-1.178-0.347c-1.222,1.796-2.669,4.007-2.965,4.818c-0.529,1.454-0.792,2.776,1.322,4.362
		c2.115,1.586,2.379,4.098,2.644,5.816c0.265,1.718,1.189,5.155,1.322,7.271s0.661,3.172,3.172,5.156
		c2.512,1.982,5.552,3.172,6.346,2.379c0.793-0.793,2.379-1.455,3.701-0.662c1.322,0.793,7.931-0.794,8.724,1.718
		c0.793,2.512,0.133,3.701-1.718,5.684c-1.851,1.983-5.288,3.173-3.701,5.949c1.24,2.171,2.397,4.824,3.097,6.573
		c0.104-0.024,0.213-0.041,0.342-0.041c0.829,0,1.658-2.487,2.487-1.796c0.829,0.69-0.967,3.176-0.967,3.176l2.211,1.796l2.9-3.316
		l-0.69,3.455c0,0,2.901,0.277,3.039,1.796l6.908-0.415l8.842-5.525h10.638l7.736,7.459c0,0-3.178-4.42-2.21-5.664
		c0.967-1.244,2.625-1.106,4.559,1.52c1.935,2.625,3.708,5.14,3.985,4.862c0.278-0.277-0.669-2.652,0.16-3.066
		s-0.157-11.605-0.157-11.605s-2.052-2.071-0.81-2.624c1.244-0.552,6.355,1.935,6.908,3.04c0.552,1.104,1.658,3.867,4.559,4.006
		c2.902,0.138,4.698-1.935,8.704-4.559c4.007-2.625,11.605-5.942,4.836-11.882c-6.771-5.94-13.125-5.112-13.125-5.112
		s-0.69,2.902-2.072,4.697c-1.382,1.796-2.487,4.974-4.697,1.796c-2.211-3.178-0.967-6.632-0.967-6.632s-2.625,1.521-4.146,0.968
		c-1.52-0.553-1.243-2.487-2.21-3.592c-0.967-1.105-2.072-0.691-3.868-0.691c-1.796,0-2.35-2.625-4.421-1.796
		c-2.072,0.829-2.487,2.348-5.112,1.934c-2.625-0.414-5.112-1.38-4.42-2.624c0.69-1.244,0.552-1.796-0.967-1.934
		c-1.52-0.139-2.211-1.52,0.415-1.52c2.625,0,1.52,1.38,2.763,2.762c1.243,1.382,3.177,2.072,5.664,0
		c2.487-2.071,4.283,0.277,5.112,0.83c0.829,0.552,3.73-0.139,5.25,0.828s3.73,3.73,3.73,3.73l2.072-2.624
		c0,0,7.599-0.553,9.532-0.139c1.935,0.415,4.56,0.276,4.56,0.276s-0.275-6.078-0.138-8.979c0.138-2.902-0.275-4.008,1.382-5.389
		s4.006-3.73,3.177-4.283s-0.968,0.139-1.796-0.552c-0.829-0.691-2.487-2.625-0.69-2.625c1.796,0,2.348,0.138,3.04-1.243
		c0.69-1.381,2.071-2.486,1.52-4.006c-0.553-1.52-1.382-1.935-1.244-4.421c0.138-2.487-0.553-2.9-1.382-4.697
		c-0.828-1.797-0.829-2.487-2.072-2.763c-1.242-0.276-3.868-2.763,0.829-1.244c0,0,0.691-0.414,0.553-2.487
		c-0.138-2.073,1.244-5.25,1.52-1.243c0.277,4.006-1.105,3.039,0.553,7.184s3.731,0.829,4.007-0.138
		c0.276-0.967,1.104-2.348,2.349-2.625c1.244-0.277,2.763-0.415,2.763-0.415s-0.526,0.526-1.667,1.76
		C335.721,197.981,336.774,197.953,337.43,197.444z M285.124,164.416c0,1.083-0.812,3.246-2.57,3.922
		c-1.758,0.676-2.975,1.488-3.246,0.136c-0.27-1.353-1.081-2.57-1.487-1.353c-0.406,1.217-0.541,1.893-2.028,0.811
		c-1.488-1.082-2.976-2.434-4.463-2.299c-1.488,0.135-4.869,0.946-5.274,0.811c-0.406-0.135-1.083,1.893-2.164,3.381
		c-1.083,1.488-3.517,3.651-2.976,2.434c0.541-1.217,3.517-5.815,1.758-5.68c-1.758,0.135-3.38,0-4.192,2.028
		s-1.623,2.028-1.218-0.947c0.406-2.975,1.218-3.651,0.676-3.787c-0.541-0.135-2.569-2.974-4.598-3.11
		c-2.029-0.135-4.87-1.083-5.275-1.758c-0.22-0.367,0-2.84,2.569-1.758c2.57,1.082,8.927,6.897,9.198,5.68
		c0.27-1.217-0.541-4.733,1.217-4.598s1.487,3.652,3.517,3.922c2.028,0.27,0.405-4.464,1.758-4.193
		c1.353,0.271,0.812,3.517,2.299,3.922c1.488,0.405,3.246,1.353,3.517,0.135c0.27-1.217,1.353,0.812,2.028,1.353
		c0.676,0.541,1.624,1.487,1.759,0.135s-2.029-2.299-2.165-3.922c-0.135-1.623,0.947-4.599,2.57-4.193
		c1.623,0.406,3.517,0.136,2.975,1.217c-0.541,1.082-2.975,0.677-2.704,1.623c0.27,0.947,0.135,2.029,1.217,2.029
		c1.082,0,1.758,1.082,1.623,2.164c-0.135,1.082,0.812,1.893,1.759,1.352c0.947-0.54-0.676-3.922-0.676-3.922
		s1.758-1.081,2.84,0.948c1.082,2.028,2.569,1.351,3.111,1.893C287.018,163.334,285.124,163.334,285.124,164.416z"/>
	<path fill="#ccaeeb" stroke="#231F20" stroke-miterlimit="10" d="M332.856,62.117c2.015,0.947,4.027,3.553,5.566,6.04
		s4.264,2.013,4.264,2.013s4.145-3.908,5.33-4.737c1.185-0.829,0.71-1.066-0.475-1.54s-2.725-2.96-6.396-5.921
		c-3.672-2.96-7.934-1.066-10.659,0.829C327.763,60.696,330.843,61.169,332.856,62.117z"/>
	<path fill="#ccaeeb" stroke="#231F20" stroke-miterlimit="10" d="M350.267,70.881c1.895,0.71,2.605,2.25,4.5,2.605
		c1.896,0.355,4.382,1.777,5.805,0c1.42-1.776-3.554-5.211-5.212-5.921s-4.619-1.421-4.619-1.421l-4.026,3.553
		C346.24,70.882,348.372,70.17,350.267,70.881z"/>
</g>
<g id="SouthWest">
	<path fill="#ccaeeb" stroke="#231F20" stroke-miterlimit="10" d="M171.235,303.661c-2.16-0.786-8.444,1.057-9.818,3.609
		c-1.374,2.552,5.752,3.871,5.752,3.871c0.263-0.813,4.852-2.692,6.815-3.674C175.948,306.485,173.396,304.447,171.235,303.661z"/>
	<path fill="#ccaeeb" stroke="#231F20" stroke-miterlimit="10" d="M171.039,319.633c0.779,0.654,4.648,0.981,6.583,0.025
		c0,0-4.648-4.145-6.985-4.875C170.637,314.784,170.26,318.98,171.039,319.633z"/>
	<path fill="#ccaeeb" stroke="#231F20" stroke-miterlimit="10" d="M181.04,305.838c-1.96,1.281-1.785,3.468-1.357,4.146
		c0.427,0.679,3.392,3.794,3.493,3.819c0,0,0.93-1.257,1.332-2.187c0.402-0.93-0.025-1.607-0.527-4.95
		C183.477,303.326,183,304.558,181.04,305.838z"/>
	<path fill="#ccaeeb" stroke="#231F20" stroke-miterlimit="10" d="M194.659,313.126c-2.714-0.025-5.855-0.917-6.759-0.956
		c-0.603-0.024-2.663,2.941-1.96,3.794c0.704,0.854,3.848,0.64,7.563,1.3c4.456,0.791,7.262-1.074,5.93-2.255
		C198.101,313.83,196.486,313.143,194.659,313.126z"/>
	<path fill="#ccaeeb" stroke="#231F20" stroke-miterlimit="10" d="M287.733,308.936c-2.25-1.658-2.35-0.358-2.25,0.355
		c0.473,3.434,4.382,5.685,5.33,4.738C291.759,313.083,289.983,310.595,287.733,308.936z"/>
	<path fill="#ccaeeb" stroke="#231F20" stroke-miterlimit="10" d="M299.339,321.017c-2.961-1.421-3.909-0.829-4.62,0.711
		c-0.71,1.539,3.791,5.21,6.278,7.935c2.487,2.724,3.553,3.315,3.553,3.315s1.539-4.026,0.474-4.974
		c-1.066-0.948-1.185-1.303,0.71-2.37C307.63,324.57,302.3,322.438,299.339,321.017z"/>
	<path fill="#ccaeeb" stroke="#231F20" stroke-miterlimit="10" d="M307.63,321.372c0.829,1.777,5.566,6.159,5.566,6.159
		c-0.593-0.711,2.369-3.553,2.369-3.553s-5.804-5.449-8.291-6.87C304.787,315.688,306.801,319.595,307.63,321.372z"/>
	<path fill="#ccaeeb" stroke="#231F20" stroke-miterlimit="10" d="M306.327,314.858c0.947-0.593,2.013-1.185,4.5-1.302
		c2.487-0.119,3.316-1.067,3.435-3.199c0.118-2.131-1.776-0.591-2.604,0.237c-0.829,0.829-3.909,0.355-5.804,0.475
		c-1.895,0.118-3.016,2.004-2.961,2.605C303.011,314.978,305.38,315.451,306.327,314.858z"/>
	<path fill="#ccaeeb" stroke="#231F20" stroke-miterlimit="10" d="M314.854,319.359c0,0,4.501,3.315,4.501,1.184
		C319.355,318.412,318.407,319.123,314.854,319.359z"/>
	<path fill="#ccaeeb" stroke="#231F20" stroke-miterlimit="10" d="M159.338,196.894c-2.389-0.397-2.229,0.637-2.946,2.149
		c-0.717,1.512-0.876,6.609-0.876,6.609c-0.318,0.956,2.946,3.264,3.901,4.061c0.956,0.795,2.15,3.104,4.936,6.13
		c2.787,3.025,6.847,0.955,8.121,0.318c1.273-0.636,1.354-2.388,1.433-3.424c0.079-1.036-2.548,0.08-3.025,0.478
		s-2.548,0.398-3.583-0.478c-1.035-0.876-0.637-2.309,0.637-3.582c1.274-1.273,1.513-3.424,1.513-4.618
		c0-1.193,1.354-1.991,2.389-3.821C172.873,198.885,161.727,197.292,159.338,196.894z"/>
	<path fill="#ccaeeb" stroke="#231F20" stroke-miterlimit="10" d="M88.4,100.004c-0.477,0.238-0.159,0.795-1.114,1.114
		c-0.955,0.319-2.866,0.717-2.866,0.717s-1.433,1.035-0.319,1.592s4.936,1.354,4.936-0.159S88.878,99.765,88.4,100.004z"/>
	<path fill="#ccaeeb" stroke="#231F20" stroke-miterlimit="10" d="M85.772,95.785c1.672,0.08,2.548-1.274,1.911-2.548
		c-0.637-1.273-1.991-0.558-2.707-1.911c-0.716-1.353-1.505,0.813-1.592,1.035C82.668,94.193,84.101,95.705,85.772,95.785z"/>
	<path fill="#ccaeeb" stroke="#231F20" stroke-miterlimit="10" d="M85.136,88.779c1.353,0.557,1.672,0,1.831-1.911
		c0.16-1.911-1.99-1.911-2.866-2.866c-0.875-0.955-0.796-3.344-2.468-3.98c-1.673-0.637-0.478,2.547,0.398,3.662
		s0.08,1.751-1.035,2.309c-1.115,0.557-2.787-0.717-4.618-2.627s-2.548,0.876-4.777,2.309c-2.229,1.433-1.075,4.137-1.035,5.095
		c0.08,1.911,1.274,2.23,1.592,3.822c0.318,1.592,2.07,1.592,2.309,3.025s-1.115,2.946-1.592,4.777
		c-0.478,1.832,0.557,2.07,2.229,2.15c1.672,0.079,0.398-1.274,0-2.707s0.796-1.035,2.07,0.08c1.273,1.114-0.08,3.025-0.478,3.742
		c-0.398,0.717,0.956,0.875,1.991,0.557c1.035-0.318,2.309,0.239,3.344,0s-1.115-2.309-1.592-2.787
		c-0.477-0.478-0.637-1.354-1.274-2.627s-0.239-0.875,1.115-1.433c1.354-0.557,1.592-2.389,1.911-4.14
		c0.318-1.751,0.08-1.592-1.831-2.309c-1.911-0.717-1.513-0.478-1.751-1.671c-0.239-1.194,1.433-0.479,2.946-0.479
		s1.035-1.592,1.194-3.105C82.907,86.151,83.783,88.221,85.136,88.779z"/>
	<path fill="#ccaeeb" stroke="#231F20" stroke-miterlimit="10" d="M134.896,46.662c1.354,0.08,1.354-0.079,1.751,1.433
		c0.398,1.513,1.354,1.194,1.592,0.399c0.239-0.796,0.318-1.673,1.354-2.867c1.035-1.194,0.478-2.627-0.318-4.22
		c-0.796-1.592-3.184,0.637-4.14,1.911c-0.956,1.274-2.312,2.305-1.99,2.787C133.463,46.583,133.542,46.583,134.896,46.662z"/>
	<path fill="#ccaeeb" stroke="#231F20" stroke-miterlimit="10" d="M100.184,60.992c-1.114-1.035-0.875-2.627-1.751-2.866
		c-0.875-0.239-3.77,0.08-5.892-0.478c-2.122-0.557-4.379-1.513-5.414-0.637c-1.035,0.875-1.035,1.115-0.717,2.07
		c0.318,0.956-0.008,1.3-0.716,2.149c-1.194,1.433-4.856-1.273-5.813,0.239c-0.175,0.277-0.637,1.274,0.398,1.751
		c1.035,0.478,3.423,0.636,3.423,2.149c0,1.513,1.274,2.787,1.831,2.07c0.558-0.717,1.115-0.638,2.389,1.035
		c1.274,1.672,5.573,3.9,5.812,2.468c0.239-1.433-1.935-1.433-3.316-2.547c-1.381-1.115-2.655-3.105-2.575-4.061
		c0.08-0.956,0.291-1.672,1.433,0.239c1.142,1.911,2.839,2.468,1.99-0.478c-0.848-2.946-0.955-4.061,1.035-3.344
		c1.991,0.717,3.822,2.866,4.618,2.707s0.398-2.309,1.114-1.592c0.717,0.716,2.071,3.822,3.424,1.99
		C102.811,62.027,101.298,62.027,100.184,60.992z"/>
	<path fill="#ccaeeb" stroke="#231F20" stroke-miterlimit="10" d="M255.736,251.773c1.851-1.983,2.511-3.172,1.718-5.684
		c-0.793-2.512-7.402-0.925-8.724-1.718c-1.322-0.793-2.908-0.132-3.701,0.662c-0.793,0.793-3.834-0.397-6.346-2.379
		c-2.512-1.983-3.04-3.041-3.172-5.156s-1.057-5.552-1.322-7.271c-0.264-1.719-0.529-4.23-2.644-5.816
		c-2.115-1.585-1.851-2.908-1.322-4.362c0.295-0.812,1.743-3.022,2.965-4.818c-0.32-0.17-0.487-0.443-0.487-1.041
		c0-1.109-0.647-2.404-3.328-2.958c-2.681-0.555-8.321-3.976-10.633-6.287c-2.312-2.312-3.976-2.035-6.842-2.404
		c-2.866-0.37-5.64-3.051-7.396-4.993s-12.205-9.985-13.961-11.742c-1.757-1.757-0.739-7.305-0.739-7.305s3.42,0.185,5.084,0.093
		s3.328-0.74,4.993-2.034c1.665-1.294,2.958-1.387,4.16-1.757c1.202-0.37,0.74-2.126,1.757-3.421c1.017-1.294,6.195,0,7.212-3.143
		c1.017-3.144-3.421-4.716-5.271-5.271c-1.85-0.555-5.825-6.472-9.153-10.448c-3.328-3.976-3.236-9.615-3.514-14.331
		c-0.277-4.715-0.925-5.455-1.942-6.657c-1.017-1.202-2.126-6.102-4.346-11.927c-2.218-5.825-3.051-8.599-7.858-14.239
		c-4.808-5.64-5.177-14.239-5.177-16.827c0-2.589,1.849-4.346,2.866-6.01c1.017-1.665-0.093-10.91,0.647-14.331
		s6.195-9.153,7.858-11.187c1.665-2.035,1.017-6.103,0.648-7.212c-0.258-0.771-0.648-3.281-0.863-4.742
		c-2.304-0.069-5.988-0.008-7.272,0.634c-1.658,0.829-4.145,3.04-6.908,0.967s-6.77-4.835-6.908-2.349s1.658,4.835,3.178,7.599
		c1.52,2.763,2.487,6.216,1.244,6.908c-1.244,0.69-2.072,1.934-2.487,2.763s-3.315,4.144-4.283,4.697c0,0-0.415,3.454-0.276,4.007
		c0.138,0.553-1.658,0.138-2.625,0.829c-0.967,0.69-1.52,2.487-3.178,2.349c-1.658-0.139-1.105,1.657-2.348,2.072
		c-1.244,0.415-2.625,0.552-3.04,2.487c-0.415,1.934-0.276,1.934-1.796,2.072c-1.52,0.139-2.349,0.831-1.105,4.146
		c1.243,3.316,4.282,4.974,4.559,6.77c0.277,1.796,2.21,3.869,2.763,5.527c0.553,1.657,0.691,2.763-0.414,4.144
		c0,0,2.486-0.69,1.657,0.829c-0.828,1.52-2.625,1.934-2.486,3.316c0.138,1.381,1.243,1.934,2.763,1.795
		c1.52-0.138,3.454,0.691,1.105,0.967c-2.349,0.276-2.487,0.139-1.105,1.796c1.381,1.657,1.934,3.868,0.829,3.315
		c-1.105-0.552-4.006-5.112-4.006-5.112s-1.52,3.454-1.658,6.908s-0.277,6.355-1.106,5.665c-0.828-0.691-0.138-10.362,0.829-13.954
		c0.967-3.592-0.138-7.322-1.105-9.394c-0.967-2.072-4.559-7.599-4.559-7.599s-2.349,2.21-2.211,4.421
		c0.139,2.21,0.553,4.697-0.69,6.216s-1.52,3.316-4.421,3.592c-2.901,0.276-2.625,0.967-2.487,3.177
		c0.138,2.211,1.244,4.697-0.138,5.803s-1.658,1.105-1.382,3.592c0.276,2.487,0.691,2.487-0.829,3.316
		c-1.52,0.829-5.388,1.105-2.763-0.553c2.625-1.658,1.934-0.553,1.934-3.73c0-3.178,1.382-3.04,1.52-4.283
		c0.138-1.243,0.415-6.217-1.105-6.079c-1.52,0.139-3.178,0.553-4.421,2.073c-1.244,1.52-2.487,3.039-3.73,2.21
		c-1.244-0.829,1.382-2.486,2.763-3.729c1.382-1.244,3.593-2.211,3.593-2.211s-5.113-5.388-3.593-5.526s2.349,1.658,4.006,3.73
		c1.658,2.072,4.283,1.105,4.559,0.138c0.276-0.966,0.276-1.243,1.658-1.52c1.381-0.276,2.072-1.658,1.381-2.625
		c-0.691-0.967-2.487-1.105-1.52-2.487s1.52-3.454,1.52-3.454c0.415-0.829-0.138-1.658,0.829-2.764
		c0.967-1.105,3.178-5.387,1.521-5.94c-1.658-0.552-3.316,2.072-3.316,2.072s-0.967-0.139-0.829-1.52
		c0.138-1.382-0.829-2.901-4.006-1.243c-3.178,1.658-3.868,2.21-4.559,1.105s0.552-4.974-1.382-4.974
		c-1.934,0-2.21,1.658-3.315,2.901c-1.105,1.243-2.349,2.072-1.934,2.763c0.414,0.691,1.658,3.591,0.138,3.315
		c-1.52-0.276-3.316-0.829-3.868-1.52c-0.552-0.691-3.039,0.415-3.177-1.105c-0.139-1.52,1.243-1.52,3.177-1.796
		c1.934-0.276,3.454-2.21,2.625-2.901c-0.829-0.691-3.604-0.515-4.007-0.415c-2.763,0.69-4.973,2.072-4.421-0.415
		c0.552-2.487,1.243-2.348,4.835-2.072c3.592,0.276,8.704-0.139,8.98-1.934c0.276-1.796,1.243-2.073,3.73,0
		c2.487,2.072,3.868,3.315,6.631,3.039c2.763-0.276,3.868-0.553,1.658-2.763c-2.21-2.211-1.658-3.316,0.968-2.073
		c2.625,1.244,4.835,2.487,6.631,0.691c1.796-1.796,8.152-7.185,7.737-8.842c-0.415-1.657-0.552-1.105-1.934-1.244
		c-1.381-0.138,0.276-0.967,1.52-1.657c1.243-0.691,1.657-1.796,2.072-3.454c0.415-1.658,1.381-2.763,1.381-2.763
		s-2.625,0.553-3.04-0.69c-0.414-1.244,0-3.178,1.244-3.316s1.934-0.552,1.934-0.552s-0.691-0.967-0.691-2.072
		c0-1.105-0.967-0.967-1.519-2.625c-0.553-1.658,0-4.283,0.552-5.112c0.553-0.829,2.349-1.381-0.138-2.901
		c-2.487-1.52-3.316-1.658-4.283-3.178c-0.968-1.52-1.796-2.487-2.487-2.487s-1.244-1.244-1.105-2.487s-0.966,1.52-1.381,2.487
		c-0.415,0.967-0.414,5.388-1.658,6.77c-1.244,1.382-1.521,0.967-1.244-1.381c0.276-2.349,0.691-5.388,1.381-6.217
		c0.691-0.829,2.349-2.763-0.829-1.243c-3.177,1.52-4.144,2.072-5.94,2.072c-1.795,0-0.967-2.763-0.967-2.763
		c0-0.967-0.691-1.243-4.283-0.967c-3.592,0.276-7.598,1.657-8.979,2.763c-1.382,1.105-3.731,3.315-6.632,4.973
		c-2.9,1.658-3.454,2.901-4.421,3.73c-0.967,0.829-3.729,2.486-5.111,4.006c-1.381,1.52-4.835,6.494-8.151,6.77
		c-3.315,0.276-5.665-0.276-7.184,1.243c-1.52,1.52-1.244,2.625-3.868,2.349c-2.625-0.276-1.934,0.829-2.763,1.105
		c-0.829,0.277-0.553,0.69-2.349,0.967c-1.796,0.276-3.454,0-4.282,1.381c-0.829,1.382-0.84,1.308-1.797,2.901
		c-0.829,1.382-1.244,3.178-2.211,5.665c-0.966,2.487-2.21,5.112-1.657,7.322c0.552,2.21,0.552,2.21,0.552,2.21l-2.349,0.553
		l0.276,2.625c0,0-2.072,2.763-3.592,2.902c-1.52,0.138-3.868,0.138-3.868,0.138l-0.553,2.763c0,0-0.415,2.073-1.382,1.52
		c-0.967-0.553-1.934-0.829-1.934-0.829s0,1.796,0.414,2.901s1.381,2.487,0.691,3.316c-0.691,0.829-0.691,5.388-0.829,7.46
		c-0.138,2.072-0.829,9.395-2.763,10.915c-1.934,1.52-3.177,2.349-3.869,4.144c-0.69,1.796-0.414,2.901,0.553,1.658
		s1.796-2.763,2.487-1.105c0.69,1.658,1.243,2.901,3.592,1.796s3.731-1.658,3.731-2.625c0-0.967,8.98-1.105,9.394,2.072
		c0.415,3.178,0.138,6.079-0.829,7.046c-0.967,0.968-2.486,1.935-2.21,2.625c0.276,0.69,1.381,1.52-0.415,2.487
		c-1.796,0.967-2.348,2.072-3.868,1.105s-5.388,0.138-8.151,0.415c-2.763,0.276-3.454,0.829-5.526,0.415s-2.349,0.552-3.592,2.072
		c-1.243,1.52-2.625,4.559-1.796,6.631c0.829,2.072,1.658,1.934-1.658,3.316c-3.315,1.381-6.908,1.52-8.013,3.039
		s-0.276,2.625-1.795,2.901s-3.592,0.553-2.487,1.934c1.105,1.382,3.316,4.56,4.835,6.77c1.52,2.211,7.46,6.632,7.46,6.632
		c1.244,1.105,2.211,2.763,2.349,5.526c0.138,2.763,2.073,2.902,3.178,2.211c1.105-0.692,1.658-0.001,3.178,0.966
		c1.519,0.967,4.697-1.657,5.94-0.829s0.414,2.348-2.349,2.625c-2.764,0.276-5.388-0.277-6.77,0.967
		c-1.382,1.244-2.901,2.901-5.527-0.276c-2.625-3.178-3.315-5.94-2.21-7.046c1.105-1.105,1.381-1.52-0.69-1.52
		c-2.073,0-4.421,0.69-6.079-1.244c-1.658-1.934-0.415-2.902-3.73-4.421s-4.283-0.69-4.283-0.69s0.552-3.315-0.691-3.868
		c-1.243-0.553-4.697,0.276-4.145,4.006c0.553,3.729,1.708,1.373,2.21,2.21c0.829,1.381-1.799,7.051-1.799,7.051
		s-13.677,39.513-17.545,48.907c-3.869,9.395-4.007,9.118-4.421,13.677c-0.414,4.56,0.553,51.808,0.553,51.808
		s20.862,13.401,23.763,15.335c2.901,1.934,11.605,9.116,5.941-4.008c0,0-2.625-5.111-3.73-8.565
		c-1.105-3.454-8.151-12.985-10.637-17.269c-2.487-4.283-3.869-3.592-0.691-6.355c3.178-2.762,17.408-12.434,20.447-14.23
		c3.04-1.795,6.079-4.006,5.112-8.151c-0.967-4.145-3.455-5.388-7.599-13.815c-4.144-8.427-6.216-13.125-7.875-14.783
		c-1.658-1.658-4.145-5.25-4.145-5.25l4.974-6.355c0,0,6.079,6.217,7.184,6.217s6.77-8.151,8.151-7.737
		c1.381,0.414,4.559,2.21,2.486,4.56c-2.072,2.348-6.631,6.907-6.631,6.907l3.868,4.282c0,0,8.29-9.532,9.533-7.736
		c1.243,1.795,0,4.006-2.349,5.802v2.21l-2.625,0.139l-3.454,4.42c0,0,0.414,2.348,1.658,2.21c1.244-0.138,2.625-1.934,2.625-1.934
		l4.007,3.869l-0.415,1.934c0,0,5.802-2.072,3.868,1.382c-1.934,3.454-2.901,4.006-2.901,4.006l4.835,2.625
		c0,0,2.21-4.006,3.177-3.178c0.968,0.829,3.73,5.526,3.73,5.526l9.533-8.289c0,0-6.493-5.111-6.493-9.808c0,0,0-3.04,2.21-3.178
		c0,0,0.967-2.486,2.349-1.935c0,0,1.105,0,0.967,3.454c0,0,0.139,1.796,2.625,4.559c2.487,2.763,4.145,4.835,5.111,4.421
		c0.967-0.415,3.316,0.829,3.04-3.178s-2.625-12.986,0.138-12.572c2.763,0.415,3.178,12.71,3.178,12.71s9.947-0.415,11.881-1.658
		c0,0-0.415-9.118,2.21-9.394c2.625-0.276,3.316,0.276,4.007,1.796c0.691,1.52,2.211,2.763,3.73,2.901s2.072,0.277,2.072,3.316
		l7.322-0.415v-7.321c0,0,2.349,0.553,3.315-0.415s3.177-1.659,5.664-0.829c2.487,0.829,5.25,4.559,8.98,6.908
		c3.73,2.349,7.599,5.665,6.217,1.105c-1.381-4.56-6.632,0-5.388-3.868c1.244-3.869,6.079-13.815,8.566-18.237
		s5.802-5.803,3.177-9.257c-2.625-3.454-4.974,1.241-6.217-2.903c-1.243-4.144,3.73-4.559,1.244-8.013c0,0-1.934-0.415-1.796-2.487
		c0.138-2.071-1.52-2.625-2.486-3.315c-0.967-0.69-2.211-0.139-3.04-1.106c-0.829-0.966-1.659-3.04,0.276-3.315
		c1.935-0.276,6.77-0.967,8.013-0.69c1.244,0.276,2.072,2.21,2.901,3.868c0.829,1.658,4.283,5.25,4.421,7.599
		c0.138,2.348-0.138,6.079-0.138,6.079s-4.421-4.144-5.389-3.039c-0.967,1.105-2.486,3.454-1.381,3.592
		c1.105,0.138,6.769-1.52,6.493,6.908s-7.736,13.678-7.875,18.237c-0.138,4.558,0.138,5.388,1.796,5.25s3.73-0.414,1.934,1.243
		c-1.796,1.658-2.487,2.625-0.967,4.284c1.52,1.658,12.434,3.592,13.539,3.454c1.105-0.138,2.665-3.011,4.283-2.625
		c2.901,0.691-0.1,4.293,1.52,4.697c1.105,0.276,5.94,0.966,5.802,2.072c-0.138,1.105,1.244-0.829,2.349-0.691
		c1.105,0.138,5.665-1.243,5.665-1.243s-1.381-4.283-2.625-6.079c-1.244-1.796-2.625-2.625-2.487-3.869
		c0.138-1.243-2.625,0.139-2.625,0.139s2.486-1.795,1.243-2.763c-1.243-0.968-1.105-1.106-3.729-0.415
		c-2.625,0.691-3.592,0.829-3.73-0.415c-0.139-1.243,1.934-1.797,2.072-3.039c0.138-1.243,0.276-2.764,1.105-1.935
		c0.829,0.83,1.244,2.072,1.244,2.072s3.316-0.275,4.421,0.553s4.559,4.282,5.25,8.013c0,0,0.829,1.244,2.901,4.421
		c2.072,3.178,6.77,6.632,6.079,7.737c-0.691,1.104-2.486,4.558-2.486,4.558l14.644,8.98c0,0,0.83-0.276-1.243,3.04
		s-1.381,5.112-6.494,2.21c-5.111-2.901-11.743-7.322-14.506-6.631c-2.763,0.691-4.421,4.421-4.421,4.421
		s22.52,15.887,24.177,14.506c1.658-1.381,9.533-12.848,9.533-12.848s14.921,9.394,16.855,10.499c1.934,1.106,2.9,0.968,4.144-0.828
		c0,0,2.349,1.934,2.487,2.486c0.139,0.552,0.967,0.968,1.658,0.829c0.69-0.139,8.151,6.907,9.118,8.289
		c0.967,1.382,1.52-0.552,1.934-1.243c0.415-0.691,1.382-2.072,3.04-1.243c1.658,0.828,1.934-0.968,3.454-1.244
		c1.283-0.232,1.584-0.659,2.145-0.788c-0.7-1.75-1.857-4.402-3.097-6.573C250.449,254.946,253.885,253.756,255.736,251.773z
		 M135.134,43.318c0.956-1.273,3.344-3.502,4.14-1.911c0.796,1.592,1.354,3.025,0.318,4.22c-1.035,1.194-1.115,2.07-1.354,2.867
		c-0.238,0.795-1.194,1.114-1.592-0.399c-0.397-1.512-0.397-1.354-1.751-1.433c-1.354-0.079-1.433-0.079-1.751-0.557
		C132.823,45.623,134.179,44.592,135.134,43.318z M82.748,87.664c-0.159,1.513,0.319,3.105-1.194,3.105s-3.185-0.716-2.946,0.479
		c0.239,1.193-0.16,0.955,1.751,1.671c1.911,0.716,2.149,0.557,1.831,2.309c-0.318,1.751-0.557,3.583-1.911,4.14
		c-1.354,0.558-1.751,0.159-1.115,1.433s0.797,2.15,1.274,2.627c0.478,0.478,2.627,2.548,1.592,2.787s-2.309-0.318-3.344,0
		c-1.035,0.318-2.389,0.16-1.991-0.557c0.398-0.717,1.751-2.628,0.478-3.742c-1.274-1.115-2.468-1.513-2.07-0.08
		s1.672,2.786,0,2.707c-1.672-0.08-2.707-0.318-2.229-2.15c0.477-1.831,1.831-3.344,1.592-4.777s-1.991-1.433-2.309-3.025
		c-0.318-1.592-1.513-1.912-1.592-3.822c-0.04-0.958-1.194-3.662,1.035-5.095c2.229-1.433,2.946-4.22,4.777-2.309
		s3.503,3.185,4.618,2.627c1.115-0.558,1.911-1.194,1.035-2.309s-2.071-4.299-0.398-3.662c1.672,0.637,1.592,3.025,2.468,3.98
		c0.876,0.956,3.026,0.956,2.866,2.866c-0.159,1.911-0.478,2.468-1.831,1.911C83.783,88.221,82.907,86.151,82.748,87.664z
		 M83.385,92.361c0.087-0.222,0.876-2.388,1.592-1.035c0.716,1.353,2.069,0.637,2.707,1.911c0.637,1.274-0.239,2.627-1.911,2.548
		C84.101,95.705,82.668,94.193,83.385,92.361z M84.101,103.428c-1.114-0.557,0.319-1.592,0.319-1.592s1.911-0.398,2.866-0.717
		c0.955-0.318,0.637-0.875,1.114-1.114c0.478-0.239,0.637,1.751,0.637,3.264S85.215,103.985,84.101,103.428z M101.458,63.858
		c-1.354,1.832-2.708-1.274-3.424-1.99c-0.716-0.717-0.318,1.433-1.114,1.592s-2.627-1.99-4.618-2.707
		c-1.99-0.716-1.883,0.398-1.035,3.344c0.849,2.946-0.848,2.388-1.99,0.478c-1.142-1.911-1.354-1.194-1.433-0.239
		c-0.08,0.955,1.194,2.946,2.575,4.061c1.382,1.114,3.555,1.114,3.316,2.547c-0.239,1.433-4.538-0.796-5.812-2.468
		c-1.274-1.673-1.831-1.752-2.389-1.035c-0.557,0.716-1.831-0.558-1.831-2.07c0-1.513-2.389-1.672-3.423-2.149
		c-1.035-0.478-0.573-1.474-0.398-1.751c0.956-1.513,4.618,1.194,5.813-0.239c0.708-0.849,1.035-1.194,0.716-2.149
		c-0.318-0.955-0.318-1.194,0.717-2.07c1.035-0.876,3.292,0.08,5.414,0.637c2.122,0.558,5.016,0.239,5.892,0.478
		c0.876,0.239,0.637,1.832,1.751,2.866C101.298,62.027,102.811,62.027,101.458,63.858z M171.838,200.716
		c-1.035,1.831-2.389,2.628-2.389,3.821c0,1.194-0.239,3.345-1.513,4.618c-1.274,1.273-1.672,2.706-0.637,3.582
		c1.035,0.876,3.105,0.876,3.583,0.478s3.104-1.514,3.025-0.478c-0.08,1.036-0.16,2.788-1.433,3.424
		c-1.274,0.637-5.334,2.707-8.121-0.318c-2.786-3.026-3.98-5.335-4.936-6.13c-0.955-0.796-4.219-3.105-3.901-4.061
		c0,0,0.159-5.097,0.876-6.609c0.717-1.512,0.557-2.546,2.946-2.149C161.727,197.292,172.873,198.885,171.838,200.716z"/>
	<path fill="#ccaeeb" stroke="#231F20" stroke-miterlimit="10" d="M104.349,234.406c-0.027-0.009-0.083,0.012-0.154,0.049
		C104.333,234.437,104.392,234.421,104.349,234.406z"/>
	<path fill="#ccaeeb" stroke="#231F20" stroke-miterlimit="10" d="M153.56,249.973c-4.644-0.376-3.641-1.632-6.653-3.891
		c-3.013-2.26-3.515-5.398-4.017-7.407c-0.502-2.008-2.009-3.264-5.9-5.147s-3.264-0.753-3.892,0.753
		c-0.628,1.506-6.905-0.251-10.169-1.13c-3.264-0.878-3.766-1.883-4.896-0.628c-1.13,1.255-1.758,1.005-3.014,1.507
		c-1.255,0.502,2.009,2.762,3.39,4.645c1.381,1.884,0.252,3.515,0.252,5.398s1.631,4.017,4.268,4.771
		c2.637,0.753,1.255,1.631-0.251,3.515s-2.762,1.758-4.519,0.251s-3.139-3.39-3.515-5.147c-0.376-1.757-3.892-5.272-3.892-5.272
		s-1.758,1.381-4.394,3.264s-2.009,1.758-2.26,4.143c-0.251,2.385-2.259,3.013-3.766,3.013c-1.507,0-3.013,2.134-5.147,4.017
		s-4.766-1.506-5.901-3.767c-1.135-2.259,3.892-4.519,6.402-6.778c2.511-2.26,2.386-3.516,2.888-5.398
		c0.466-1.748,4.71-5.76,5.62-6.229c-1.058,0.135-6.978,0.357-10.642,0.579c-4.143,0.25-12.052,5.022-15.818,7.909
		c-3.766,2.887-13.809,8.035-22.723,15.944c-8.913,7.909,3.878,19.55,4.394,21.216c1.632,5.274,9.918,15.063,15.818,19.959
		c5.9,4.896,8.788,3.389,13.809,0.125c5.022-3.263,9.039-10.419,9.541-14.186c0.502-3.766-5.775-11.675-8.155-13.432
		c-2.379-1.758-4.524-3.768-5.779-4.772c-1.255-1.004,3.013-4.519,4.394-5.648c1.381-1.129,3.892,2.637,5.398,3.138
		c1.507,0.502,5.9-0.125,5.9-0.125s-0.628,2.259-0.376,4.017c0.251,1.758,2.134,7.783,2.887,9.917
		c0.753,2.135,0.753,5.147,2.134,4.646c1.381-0.501,9.667-3.515,12.931-4.519c3.264-1.005,8.913-4.771,8.913-4.771
		s-5.147-4.644-7.783-5.649c-2.636-1.004-3.013-1.129-3.515-2.511c-0.502-1.381,2.51-2.762,4.77-4.142s2.386-0.628,2.888,1.256
		c0.501,1.883,2.887,2.636,5.147,3.64c2.259,1.004,2.134-0.125,5.649,3.515s7.281-2.134,9.541-4.645
		c2.259-2.51,0.125-2.637-1.883-2.386s-1.757-2.761-0.753-4.644c1.004-1.883,5.398,0,8.536,0.753
		c3.139,0.754,1.883,1.255,5.022,0.502c3.138-0.753,6.527-1.758,7.406-5.147C162.724,251.604,158.205,250.35,153.56,249.973z"/>
	<path fill="#ccaeeb" stroke="#231F20" stroke-miterlimit="10" d="M108.201,221.26c0.589-1.571-3.731-6.48-4.713-6.284
		c-0.982,0.196,0.982,7.069,0.982,7.069S107.612,222.831,108.201,221.26z"/>
	<path fill="#ccaeeb" stroke="#231F20" stroke-miterlimit="10" d="M131.373,221.849c0,0,1.375-1.178,0.982-2.356
		c-0.393-1.179-3.731-4.712-5.498-4.32c-1.768,0.393,0,2.945,0.982,3.141C128.821,218.51,131.373,221.849,131.373,221.849z"/>
	<path fill="#ccaeeb" stroke="#231F20" stroke-miterlimit="10" d="M146.101,173.147c-0.589,2.356,4.517,0.589,4.517,0.589
		C149.046,171.576,146.69,170.792,146.101,173.147z"/>
	<path fill="#ccaeeb" stroke="#231F20" stroke-miterlimit="10" d="M201.393,307.633c-1.54-0.71-1.895-2.25-8.527-6.869
		s-5.685,2.606-4.856,6.396c0.829,3.79,4.382,3.316,6.514,2.96c0,0,3.435,1.421,6.396,2.724c2.96,1.303,3.672,5.804,3.672,5.804
		s6.04,0.592,6.869,0.236c0.829-0.355-3.79-6.04-5.211-7.698C204.827,309.529,202.933,308.345,201.393,307.633z"/>
	<path fill="#ccaeeb" stroke="#231F20" stroke-miterlimit="10" d="M291.759,281.814c-2.132-0.237-2.842,0.474-4.264,0.948
		c-1.421,0.474-3.434,0.237-5.092-0.592s-4.264-1.895-5.686-1.421c-1.421,0.474-0.71,2.607-3.197,0.948
		c-2.487-1.658-5.921-3.197-8.172-4.619s-3.08-1.896-4.264-1.658c-1.185,0.237-1.421,1.302-2.843,0.354c0,0-2.132-0.118-3.79-0.236
		c-1.658-0.119-2.724-0.236-3.435-1.067c-0.711-0.829-2.25-0.354-2.25-0.354c0,1.066,1.185,2.013,3.79,3.079
		c2.606,1.066,4.5,4.739,8.291,7.344c3.79,2.605,9.001,6.869,10.541,7.934c1.54,1.067,7.817,6.042,8.883,6.988
		c1.066,0.948,1.303-0.711,2.487-2.014c1.184-1.302,3.197-2.96,4.5-2.842c1.303,0.118,2.25,0.237,2.369-0.237
		c0.119-0.475,0.355-2.844,0-4.027s-2.131-2.25-0.118-2.487s2.368-1.658,3.079-2.842
		C293.299,283.828,293.892,282.051,291.759,281.814z"/>
	<path fill="#ccaeeb" stroke="#231F20" stroke-miterlimit="10" d="M255.281,268.668c-1.184-1.657-2.842,0.12-2.724,1.303
		C252.557,269.971,256.465,270.326,255.281,268.668z"/>
	<path fill="#ccaeeb" stroke="#231F20" stroke-miterlimit="10" d="M289.509,278.736c2.961-0.947-2.25-3.672-3.908-5.448
		c-1.658-1.777-2.487-3.435-5.448-3.909c-2.961-0.475-7.58,5.567-7.58,5.567c0.592,1.304,3.435,2.013,8.053,3.553
		C285.246,280.038,286.548,279.683,289.509,278.736z"/>
	<path fill="#ccaeeb" stroke="#231F20" stroke-miterlimit="10" d="M296.142,288.566c-0.829,1.421-2.606,0.829-2.606,0.829l-0.237,5.329
		c2.132,1.54,3.553-1.42,5.33-3.671c1.777-2.249,1.658-2.605,0.474-4.619C297.918,284.421,296.97,287.146,296.142,288.566z"/>
	<path fill="#ccaeeb" stroke="#231F20" stroke-miterlimit="10" d="M50.327,130.38c0.174-1.394,0.349-5.052-0.523-3.833
		c-0.871,1.219-1.742,1.742-1.742,1.742s-0.697-1.742-1.046-1.045c-0.348,0.697,0.175,1.742-0.696,1.917
		c-0.872,0.174-1.568,0.697-1.568,0.697l0.522,2.439C45.274,132.296,50.152,131.773,50.327,130.38z"/>
	<path fill="#ccaeeb" stroke="#231F20" stroke-miterlimit="10" d="M141.722,30.753c2.311-1.017,4.715-2.127-0.832-1.757
		C140.02,29.055,139.411,31.77,141.722,30.753z"/>
</g>
</svg>
