<?xml version="1.0" encoding="utf-8"?>
<!-- Generator: Adobe Illustrator 16.0.0, SVG Export Plug-In . SVG Version: 6.00 Build 0)  -->
<!DOCTYPE svg PUBLIC "-//W3C//DTD SVG 1.1//EN" "http://www.w3.org/Graphics/SVG/1.1/DTD/svg11.dtd">
<svg version="1.1" id="레이어_1" xmlns="http://www.w3.org/2000/svg" xmlns:xlink="http://www.w3.org/1999/xlink" x="0px"
	 y="0px" width="612px" height="792px" viewBox="0 0 612 792" enable-background="new 0 0 612 792" xml:space="preserve">
<g id="ĐồngbằngsôngHồng-sub" display="none">
	<path id="HảiPhòng" display="inline" fill="#0bd5ef" stroke="#231F20" stroke-miterlimit="10" d="M585.028,272.913
		c-13.961-10.474-43.63-43.63-43.63-43.63c-17.451-6.983-33.158-19.196-33.158-19.196s-3.489,20.943-13.962,29.668
		c-10.473,8.724-22.689,48.864-24.435,64.57c-1.746,15.707-20.938,33.162-27.92,36.651s-8.725,24.434,1.745,33.158
		c10.468,8.724,33.156,10.473,47.119-3.489c8.19-8.191,22.985-4.333,36.99,4.104c26.732-10.005,70.39-40.949,69.884-54.121
		c-0.354-9.207,2.866-16.129,7.488-21.34C598.291,288.053,590.776,277.223,585.028,272.913z"/>
	<path id="HàNội" display="inline" fill="#0bd5ef" stroke="#231F20" stroke-miterlimit="10" d="M240.255,247.133
		c0-2.81,6.375-6.379,15.676-10.092c12.099-4.831,29.152-9.906,43.612-13.875c-9.359-5.485-17.547-15.41-19.344-20.8
		c-2.36-7.082-18.888-14.95-29.118-18.885c-10.229-3.935-10.229-25.967-9.442-40.92c0.464-8.789,7.159-17.22,13.096-22.746
		c-4.489-7.645-3.854-16.099-2.022-25.448c-21.603-4.167-46.313-11.88-65.4-19.614c-4.967,23.354,6.135,57.687,15.36,78.44
		c10.925,24.579-10.924,31.402-10.924,31.402s-0.084-0.076-0.087-0.08c-0.491-0.453-17.859-16.459-31.319-27.229
		c-13.653-10.925-36.863,9.56-46.424,15.019c-9.56,5.458-39.597-20.48-53.251-43.691c-4.972-8.449-12.658-14.342-20.424-18.45
		c-14.745,18.96-37.251,48.78-31.284,78.625c2.414,12.064,4.82,22.218,7.113,30.558c15.398-6.28,36.825-12.981,45.166-5.834
		c13.624,11.677,33.085,25.301,25.301,40.87c-7.785,15.57-11.677,42.817,5.839,48.655c17.516,5.84,27.247,15.57,36.978,33.086
		c8.036,14.468,24.095,43.472,60.124,50.964c0.303-0.476,0.619-0.947,1.018-1.385c7.869-8.654,8.651-11.016,28.327-19.671
		c19.675-8.654,44.854-13.376,49.575-18.885c0.004-0.003,0.012-0.003,0.016-0.007C225.29,285.825,240.255,256.457,240.255,247.133z"
		/>
	<path id="VĩnhPhúc" display="inline" fill="#0bd5ef" stroke="#231F20" stroke-miterlimit="10" d="M60.667,128.615
		c13.654,23.211,43.691,49.15,53.251,43.691c9.561-5.459,32.771-25.943,46.424-15.019c13.655,10.925,31.406,27.308,31.406,27.308
		s21.849-6.823,10.924-31.402c-9.225-20.754-20.328-55.087-15.36-78.44c-11.342-4.592-20.705-9.199-26.239-13.073
		c-20.839-14.585-12.503-31.257-33.341-41.676c-8.089-4.044-17.733-9.339-26.521-14.309C96.156,16.57,81.426,24.362,69.023,30.566
		c-13.308,6.652-31.162-8.525-46.101-20.04c0.479,7.739-0.099,15.593-3.542,19.896c-8.336,10.419-6.253,12.506,6.249,18.755
		c12.502,6.25,31.261,39.593,16.672,58.345c-0.658,0.849-1.357,1.745-2.057,2.643C48.009,114.273,55.695,120.165,60.667,128.615z"/>
	<path id="TháiBình" display="inline" fill="#0bd5ef" stroke="#231F20" stroke-miterlimit="10" d="M331.119,394.506
		c5.941,3.96,8.18,16.652,8.785,28.68c2.648-0.183,4.303-0.194,4.303-0.194s8.725,29.669,27.923,40.142
		c19.2,10.472,34.903,13.963,48.864,27.925c13.963,13.962,22.687,22.686,40.142,15.706c8.127-3.25,22.663-3.839,35.902-3.554
		c4.135-8.367,6.204-17.015,5.341-25.667c-2.593-25.946-5.185-93.417,20.763-101.203c1.471-0.441,3.032-0.988,4.639-1.589
		c-14.005-8.438-28.799-12.297-36.99-4.105c-13.963,13.962-36.651,12.213-47.119,3.489c-9.542-7.953-8.884-25.909-3.414-31.694
		c-60.272,2.026-124.706,35.199-124.706,35.199S319.441,386.721,331.119,394.506z"/>
	<path id="NinhBình" display="inline" fill="#0bd5ef" stroke="#231F20" stroke-miterlimit="10" d="M170.233,467.165
		c-18.167,7.784,0,28.545-6.486,38.924c-6.484,10.381-20.761-1.3-36.331-20.761c-15.57-19.464-28.543-7.787-32.436,1.299
		c-3.893,9.085,68.767,59.684,92.122,72.656c23.355,12.974,59.683,28.547,97.312,49.306c17.804,9.821,19.568,25.138,16.55,38.579
		c5.995-2.359,12.453-4.454,19.136-6.437c9.697-34.248,19.049-73.178,15.381-85.106c-6.979-22.688-27.926-24.429-45.375-17.449
		c-17.452,6.979-40.142-36.647-43.631-43.631c-0.76-1.522,0.468-4.175,2.894-7.494c-11.538-6.615-26.548-14.896-44.103-26.373
		C171.53,438.617,188.399,459.382,170.233,467.165z"/>
	<path id="NamĐịnh" display="inline" fill="#0bd5ef" stroke="#231F20" stroke-miterlimit="10" d="M461.136,506.763
		c-17.455,6.979-26.179-1.744-40.142-15.706c-13.961-13.962-29.664-17.453-48.864-27.925
		c-19.198-10.473-27.923-40.142-27.923-40.142s-33.161-0.003-48.869,17.452c-15.706,17.455-52.354,47.12-48.864,54.103
		c3.489,6.982,26.179,50.608,43.631,43.631c17.45-6.979,38.396-5.237,45.375,17.45c3.668,11.929-5.684,50.857-15.381,85.105
		c8.662-2.57,17.698-4.952,26.582-7.493c36.332-10.376,77.854-67.47,106.396-85.633c19.023-12.105,35.693-27.68,43.961-44.396
		C483.799,502.924,469.263,503.513,461.136,506.763z"/>
	<path id="HưngYên" display="inline" fill="#0bd5ef" stroke="#231F20" stroke-miterlimit="10" d="M240.255,247.133
		c0,9.324-14.965,38.692,28.16,100.006c4.732-5.475,19.656,7.093,22.017,12.597c1.615,3.771,8.412,13.117,26.186,19.899
		c-0.71-1.218-1.067-1.996-1.067-1.996s26.866-13.783,62.084-24.126c-22.875-23.035-51.388-53.727-55.604-62.153
		c-3.413-6.831,12.461-30.93,26.244-49.796c-3.89,1.258-6.489,1.598-8.275-0.639c-3.146-3.935-18.885-11.803-31.475-14.164
		c-3.002-0.563-6.047-1.877-8.982-3.596C273.968,230.187,240.255,240.667,240.255,247.133z"/>
	<path id="HảiDương" display="inline" fill="#0bd5ef" stroke="#231F20" stroke-miterlimit="10" d="M322.029,291.36
		c4.217,8.427,32.729,39.118,55.604,62.153c19.371-5.689,41.232-10.354,62.622-11.072c0.531-0.563,1.049-1.156,1.669-1.463
		c6.981-3.49,26.174-20.945,27.92-36.651c1.744-15.706,13.962-55.847,24.435-64.57c8.441-7.033,12.343-21.998,13.54-27.536
		c-9.976-11.894-19.221-22.116-23.567-29.072c-5.014-8.021-7.417-23.841-8.542-39.217c-3.647-2.794-7.298-6.884-10.946-12.813
		c-10.382-16.87-40.221,1.3-58.388,18.166c-7.211,6.692-13.991,11.054-20.305,13.414c13.485,23.153,10.479,27.209,9.798,48.324
		c-0.786,24.394-25.18,23.609-36.194,26.757c-4.759,1.36-8.442,2.832-11.399,3.786C334.491,260.43,318.617,284.529,322.029,291.36z"
		/>
	<path id="HàNam" display="inline" fill="#0bd5ef" stroke="#231F20" stroke-miterlimit="10" d="M290.431,359.736
		c-2.36-5.509-17.311-18.098-22.032-12.59c-4.72,5.508-29.899,10.229-49.575,18.885c-19.676,8.655-20.458,11.017-28.327,19.671
		c-7.868,8.656,3.147,25.185,7.082,30.691c2.775,3.881,4.372,28.444,5.071,42.627c0.882,0.559,1.658,1.029,2.615,1.658
		c17.554,11.479,32.565,19.758,44.103,26.373c8.697-11.899,33.693-32.961,45.971-46.607c12.267-13.631,35.116-16.604,44.565-17.258
		c-0.604-12.026-2.844-24.72-8.784-28.68c-8.378-5.584-12.7-11.78-14.502-14.871C298.843,372.854,292.046,363.507,290.431,359.736z"
		/>
	<path id="BắcNinh" display="inline" fill="#0bd5ef" stroke="#231F20" stroke-miterlimit="10" d="M241.638,142.562
		c-0.786,14.954-0.786,36.986,9.442,40.92c10.229,3.935,26.757,11.803,29.118,18.885c2.361,7.081,15.737,22.035,28.325,24.396
		c12.59,2.361,28.328,10.229,31.476,14.164c3.146,3.934,8.659,0,19.675-3.147s35.408-2.364,36.194-26.757
		c0.682-21.115,3.688-25.171-9.798-48.324c-9.588,3.584-18.068,2.444-25.107-3.033c-11.678-9.081-23.354-3.894-70.064-18.166
		c-20.952-6.405-31.413-13.598-36.165-21.683C248.797,125.342,242.102,133.773,241.638,142.562z"/>
</g>
<g id="ĐôngNamBộ-sub" display="none">
	<path id="BìnhPhước" display="inline" fill="#0bd5ef" stroke="#231F20" stroke-miterlimit="10" d="M145.392,156.958
		c0.769,5.385,4.617,24.619,8.464,20.004s8.462-3.08,10.77,0.768c2.307,3.849,6.924-0.768,13.847-2.31
		c6.924-1.542,23.081,10.771,23.081,10.771s11.54-7.69,20.771-11.539c9.231-3.847,5.386-10,14.619-26.928
		s30.771-11.539,30.771-11.539s-2.307-10-1.538-20.771c0.769-10.771,17.694-13.08,17.694-13.08s-2.308-15.387-3.847-24.619
		c-1.539-9.233-16.155-20-23.848-27.695c-7.692-7.693-2.309-20,0.769-32.31c1.307-5.226-2.11-8.496-6.461-10.543
		c-10.487,8.908-21.939,20.339-29.299,25.858c-9.918,7.44-45.462,11.572-52.074,18.185c-6.612,6.611-16.532,10.748-21.49,7.439
		c-4.958-3.308-28.928-4.96-33.889-0.828c-4.96,4.134,4.132,10.745,4.132,22.316c0,11.572-0.826,31.425-0.826,31.425
		s-0.167,0.018-0.411,0.041c3.464,12.974,7.581,26.271,11.07,31.506C135.39,154.652,144.623,151.573,145.392,156.958z"/>
	<path id="NinhThuận" display="inline" fill="#0bd5ef" stroke="#231F20" stroke-miterlimit="10" d="M571.602,72.328
		c-3.848-9.233-20.002-8.462-27.694-13.849c-7.695-5.386-10-26.157-20.002-35.39c-10-9.233-14.617,6.924-14.617,15.386
		c0,0,1.537,16.928-3.076,30.005c-4.615,13.077-8.463,10.771-0.771,23.852c7.69,13.08,3.848,15.386-2.31,26.156
		c-6.156,10.771-6.924,13.077-1.539,13.077c5.388,0,11.543,10,17.695,19.233c6.151,9.232,10.771,4.618,24.619,11.542
		c8.26,4.129,7.752,12.621,6.002,18.813c2.594,0.322,4.883,0.54,6.6,0.251c6.863-1.146,20.59-16.016,17.158-26.311
		s-3.436-25.168,12.58-33.175c13.748-6.874,20.729-22.156,20.266-30.691c-5.188,0.229-10.19,0.573-13.366,1.104
		C583.91,93.873,575.449,81.561,571.602,72.328z"/>
	<path id="BàRịaVũngTàu" display="inline" fill="#0bd5ef" stroke="#231F20" stroke-miterlimit="10" d="M297.727,270.036
		c-5.385-6.926-11.541,5.385-13.079,11.538c-1.538,6.152-5.386,3.848-10.002,9.231c-4.617,5.386-10-1.538-9.231-3.847
		c0.769-2.31-0.77-9.233-6.155-12.311c-5.386-3.075-13.848,7.695-18.464,14.618c-4.617,6.924-6.924,0.769-14.617,0.769
		c-7.692,0-11.541,10-10.002,13.848c1.538,3.848,2.31,10.771-0.77,16.928c-1.065,2.131-1.758,5.932-2.211,9.98
		c3.476-1.771,6.952-2.143,10.43,0.466c9.152,6.862-12.583,13.729-2.288,18.305c10.296,4.575,16.015-2.292,20.591-4.578
		c4.577-2.285,5.719,6.863,17.159,3.434c11.44-3.434,13.727-16.018,30.886-20.592c15.17-4.045,27.637-9.874,30.33-13.543
		c-1.969-11.14-5.424-22.325-7.959-26.553C307.727,280.039,303.112,276.959,297.727,270.036z"/>
	<path id="BìnhThuận" display="inline" fill="#0bd5ef" stroke="#231F20" stroke-miterlimit="10" d="M482.152,142.511
		c-8.58-0.573-19.445-5.721-30.314-2.859c-10.867,2.862-8.578,20.019-4.004,24.023s-17.729,18.874-36.033,29.17
		c-18.305,10.295-13.154,0-10.295-7.437c2.857-7.438-28.598-12.584-38.893-8.58s-16.016,2.858-32.029-2.858
		c-16.012-5.717-16.588,2.286-24.023,16.585c-7.435,14.3-6.864,42.324-6.864,42.324s17.73,5.147,21.163,16.589
		c2.252,7.507-8.527,20.396-16.22,28.396c2.65,2.832,5.179,5.661,7.705,9.866c2.535,4.228,5.99,15.413,7.959,26.553
		c0.354-0.481,0.557-0.929,0.557-1.327c0-3.432,19.447-17.161,34.316-22.879c14.871-5.718,29.74,4.574,38.893-10.296
		c9.154-14.869,16.017-30.882,29.744-33.171s34.316-10.295,44.611-20.59s11.441-25.166,29.744-24.021
		c18.301,1.143,19.447-5.722,27.453-16.017c6.002-7.721,16.512-5.792,24.287-4.826c1.75-6.192,2.258-14.685-6.002-18.813
		c-13.849-6.923-18.467-2.309-24.619-11.542c-6.039-9.06-12.078-18.834-17.392-19.2
		C494.738,140.718,489.219,142.983,482.152,142.511z"/>
	<path id="TâyNinh" display="inline" fill="#0bd5ef" stroke="#231F20" stroke-miterlimit="10" d="M100.083,184.838
		c-4.082-10.202,4.576-30.316,9.152-36.606c2.923-4.018,10.495-8.257,15.598-10.808c-2.749-6.556-5.652-16.264-8.205-25.819
		c-2.375,0.211-15.692,1.153-27.692-3.348c-13.226-4.96-19.836-15.708-35.542-9.92s-26.451,20.667-38.023,19.84
		c-11.572-0.828-15.704,2.48-5.786,15.705c9.918,13.224,9.093,19.012,8.266,32.236c-0.827,13.224-6.612,19.012,9.918,32.235
		c16.53,13.226,28.93,27.276,33.063,20.665c4.132-6.611,9.09-3.308,9.918,6.612c0.271,3.248-0.258,6.137-1.001,8.965
		c2.664,0.805,5.11,1.833,6.411,3.134c3.848,3.849,6.923-2.306,13.079-4.615c3.232-1.213,5.622,0.979,8.494,3.771
		C132.713,218.864,103.948,194.503,100.083,184.838z"/>
	<path id="BìnhDương" display="inline" fill="#0bd5ef" stroke="#231F20" stroke-miterlimit="10" d="M129.11,211.719
		c6.863,10.724,9.867,18.875,17.159,22.735s8.579,17.158,12.869,19.732c4.29,2.573,9.867-0.857,15.872-5.146
		c6.006-4.29,13.298-18.018,17.16-20.162c3.86-2.146,14.155-9.866,12.011-25.31c-0.828-5.955-1.271-12.413-1.503-18.109
		c-0.717,0.462-1.123,0.733-1.123,0.733s-16.157-12.313-23.081-10.771c-6.923,1.542-11.54,6.157-13.847,2.31
		c-2.308-3.848-6.922-5.382-10.77-0.768c-3.848,4.615-7.695-14.619-8.464-20.004c-0.769-5.387-10.002-2.307-17.694-13.849
		c-0.918-1.377-1.882-3.341-2.865-5.687c-5.103,2.55-12.675,6.79-15.598,10.808c-4.576,6.291-13.234,26.405-9.152,36.606
		c2.066,5.165,11.239,14.528,13.995,24.88C119.115,207.272,125.414,205.941,129.11,211.719z"/>
	<path id="HồChíMinh" display="inline" fill="#0bd5ef" stroke="#231F20" stroke-miterlimit="10" d="M176.987,285.649
		c-7.091-7.088,5.91-11.819,13-16.545c7.089-4.726,1.182-7.092-2.363-14.184c-1.684-3.371-5.235-6.997-8.502-9.886
		c-1.399,1.639-2.787,3.06-4.112,4.005c-6.005,4.289-11.582,7.721-15.872,5.146s-5.577-15.872-12.869-19.732
		c-7.292-3.861-10.296-12.012-17.159-22.735c-3.696-5.778-9.995-4.447-15.032-2c2.403,9.015-0.061,18.777-16.346,27.166
		c2.597,2.523,5.588,5.54,9.971,7.001c9.231,3.077,19.233-3.077,20.002,10.771c0.769,13.849-6.156,30.77,1.539,33.85
		c7.694,3.08,36.926,6.16,38.466,13.852c1.098,5.485,1.385,14.872-3.269,22.048c3.334,2.977,7.056,6.837,10.396,11.444
		c0.233-0.023,0.454-0.063,0.746-0.013c2.295,0.382,4.335,2.047,6.376,3.877c9.218-10.419,9.592-24.101,13.94-32.792
		C200.625,297.466,184.078,292.737,176.987,285.649z"/>
	<path id="ĐồngNai" display="inline" fill="#0bd5ef" stroke="#231F20" stroke-miterlimit="10" d="M281.684,137.129
		c-4.186-2.202-9.211-3.473-14.566-4.112c0.325,1.979,0.598,3.17,0.598,3.17s-21.539-5.389-30.771,11.539
		s-5.388,23.081-14.619,26.928c-7.503,3.127-16.532,8.794-19.648,10.806c0.232,5.696,0.675,12.154,1.503,18.109
		c2.145,15.443-8.15,23.165-12.011,25.31c-3.01,1.672-8.103,10.366-13.047,16.157c3.268,2.889,6.819,6.515,8.502,9.886
		c3.544,7.092,9.452,9.458,2.363,14.184c-7.09,4.726-20.091,9.457-13,16.545c7.091,7.088,23.638,11.817,18.91,21.271
		c-4.348,8.691-4.722,22.373-13.94,32.792c4.06,3.64,8.124,7.936,14.215,4.129c5.675-3.549,11.349-10.164,17.024-13.051
		c0.454-4.049,1.146-7.85,2.211-9.979c3.079-6.156,2.308-13.08,0.77-16.928c-1.539-3.848,2.31-13.848,10.002-13.848
		c7.693,0,10,6.155,14.617-0.769c4.616-6.923,13.078-17.694,18.464-14.618c5.385,3.076,6.924,10.001,6.155,12.311
		c-0.77,2.309,4.614,9.231,9.231,3.847c4.616-5.385,8.464-3.079,10.002-9.232c1.538-6.152,7.693-18.463,13.079-11.537
		c2.44,3.136,4.717,5.481,6.913,7.827c7.693-7.999,18.472-20.889,16.22-28.396c-3.432-11.441-21.162-16.589-21.162-16.589
		s-0.571-28.023,6.863-42.324c6.291-12.101,7.707-19.655,17.684-18.241c-11.193-9.939-23.984-13.177-30.395-16.385
		C285.003,151.506,302.695,148.188,281.684,137.129z"/>
</g>
<g id="BắcTrungBộ-sub" display="none">
	<path id="ThừaThiênHuế" display="inline" fill="#0bd5ef" stroke="#231F20" stroke-miterlimit="10" d="M589.026,649.207
		c-5.784,2.893-13.498,9.643-16.391,4.82c-2.892-4.82-3.857-21.209-16.391-26.993c-12.53-5.783-26.028-9.641-30.849-19.28
		c-4.399-8.8-7.214-11.188-16.462-17.396c-5.263,5.491-10.888,13.55-13.863,19.172c-4.831,9.126-15.03,5.368-20.399,2.148
		c-5.368-3.22-16.104,8.052-6.978,12.346c9.127,4.296,1.609,15.568-3.222,17.716c-3.082,1.367-8.771,7.968-12.5,12.576
		c9.267,5.669,18.256,8.677,21.567,18.618c3.481,10.448,4.178,7.662,14.628,11.146c10.449,3.483,15.324,13.236,22.291,9.057
		c6.319-3.792,10.896-8.113,9.096-0.57c2.034-0.762,4.004-0.718,5.351,1.168c4.078,5.709,7.342,4.894,13.052-1.631
		c5.709-6.524,10.601-5.304,14.271,1.631c3.672,6.936,5.306,3.267,13.053-2.038c4.463-3.054,7.846-5.535,11.394-7.117
		c-0.011-1.985,1.088-4.311,2.345-5.568c2.594-2.594,12.967-12.32,12.967-12.32l16.784-0.382
		C600.896,656.748,593.925,646.759,589.026,649.207z"/>
	<path id="QuảngTrị" display="inline" fill="#0bd5ef" stroke="#231F20" stroke-miterlimit="10" d="M506.117,588.472
		c-11.568-7.711-36.634-35.668-39.526-47.237c-2.465-9.864-17.517-14.113-23.698-16.349c-8.027,5.438-15.258,12.425-16.792,22.133
		c-2.892,18.315-26.993,11.569-33.741,8.677c-2.696-1.155-6.311-0.146-9.686,1.47c4.85,5.924,2.405,7.766,2.405,17.556
		c0,10.45,2.782,25.074,10.446,34.826c7.662,9.753,4.594,27.714,15.043,31.194c10.448,3.482,14.912-20.746,19.788-15.87
		s-0.697,12.541,4.18,18.811c4.876,6.268,6.269,3.482,16.021,9.752c0.474,0.304,0.946,0.595,1.417,0.883
		c3.729-4.609,9.418-11.209,12.5-12.576c4.831-2.146,12.349-13.42,3.222-17.716c-9.127-4.294,1.608-15.565,6.978-12.346
		s15.568,6.978,20.399-2.148c2.977-5.622,8.602-13.681,13.863-19.172C508.05,589.763,507.128,589.146,506.117,588.472z"/>
	<path id="QuảngBình" display="inline" fill="#0bd5ef" stroke="#231F20" stroke-miterlimit="10" d="M440.563,523.881
		c-2.893-1.93-32.779-35.67-39.527-41.454c-6.747-5.784-27.955-33.741-29.885-43.382c-1.93-9.643-1.93-23.14,4.82-23.14
		c4.84,0,5.699-5.453,4.028-11.026c-4.093,1.223-7.883,1.774-9.813,1.389c-4.82-0.965-14.461,3.855-22.172,9.642
		c-7.713,5.784-17.354-1.931-21.211-1.931c-3.855,0-10.604-0.963-11.568-7.711c-0.965-6.749-10.604-15.425-26.028-15.425
		c-10.311,0-28.794,12.484-39.925,20.769c1.31,5.203,2.296,9.675,2.754,11.958c1.394,6.966,7.66,22.984,19.502,29.252
		c11.843,6.27,16.717,8.359,23.684,18.809c6.965,10.448,25.072,51.544,54.33,39.7c0,0,4.18,5.572,6.27,13.235
		c2.092,7.662,11.845,18.112,14.63,26.472c2.786,8.358,4.875-2.093,11.146,4.874c0.395,0.439,0.754,0.855,1.079,1.255
		c3.375-1.616,6.988-2.625,9.685-1.471c6.748,2.894,30.852,9.641,33.742-8.677c1.534-9.708,8.765-16.693,16.792-22.133
		C441.822,524.497,440.988,524.164,440.563,523.881z"/>
	<path id="HàTĩnh" display="inline" fill="#0bd5ef" stroke="#231F20" stroke-miterlimit="10" d="M376.934,398.555
		c-4.82-6.75-10.604-12.534-19.281-15.426c-8.676-2.894-21.209-19.281-33.74-25.065c-12.532-5.784-17.354-22.174-27.958-27.958
		c-10.484-5.72-12.495-17.093-19.062-29.463c-7.042,3.988-14.811,8.321-18.537,10.185c-7.711,3.856-24.102,5.784-51.096,0.966
		c-8.379-1.496-15.453-1.689-21.232-1.249c-1.587,3.364-4.598,7.066-5.742,12.021c-2.09,9.056,7.661,22.288,7.661,29.951
		s11.147,9.753,16.022,12.539c4.876,2.786,8.359,14.629,8.359,14.629s4.182-2.788,6.27-6.271c2.089-3.482,14.629,2.09,20.201,9.057
		c3.746,4.682,7.799,18.475,10.481,29.142c11.131-8.284,29.614-20.769,39.925-20.769c15.424,0,25.063,8.676,26.028,15.425
		c0.966,6.748,7.713,7.711,11.568,7.711c3.856,0,13.498,7.715,21.21,1.931c7.712-5.785,17.353-10.605,22.173-9.642
		c1.932,0.387,5.721-0.166,9.813-1.389C379.339,402.68,378.299,400.463,376.934,398.555z"/>
	<path id="NghệAn" display="inline" fill="#0bd5ef" stroke="#231F20" stroke-miterlimit="10" d="M262.212,207.673
		c-7.711-1.928-16.389-16.389-19.282-19.28c-2.892-2.893-10.604-10.605-13.496-7.714c-2.893,2.892-12.534-3.854-16.388-5.785
		c-3.855-1.929-6.75-1.927-12.534-3.854c-5.785-1.928-5.785-6.749,0-12.533c5.784-5.784-9.641-9.642-15.425-14.46
		c-5.784-4.82-6.747-16.39-1.928-22.173c4.82-5.785-8.676-9.642-16.388-13.498c-2.59-1.295-7.143-3.572-12.041-6.021
		c-0.556,0.003-1.103,0.02-1.607,0.09c-4.876,0.696-27.167,9.751-20.897,16.021c6.27,6.27,11.841,13.235,3.482,17.415
		c-8.358,4.18-13.931,2.091-16.021,8.359c-2.09,6.27-8.36,20.201-18.809,15.325c-10.449-4.876-15.325-14.627-22.988-13.234
		s-9.057,1.393-16.719-1.395c-7.663-2.787-11.145,2.09-18.808,2.786c-7.663,0.696-13.237-11.843-16.022-2.09
		c-2.786,9.752,11.842,25.078,11.842,25.078s-8.359,13.933-12.539,16.719s-27.865,9.056-21.595,14.629
		c6.27,5.572,4.872,9.049,18.805,12.533c13.933,3.483,27.864,12.54,29.258,17.415c1.394,4.876,9.752,2.09,15.325,6.271
		s13.237,15.325,13.237,15.325s12.537-1.394,24.379,18.112c11.843,19.504,47.37,13.933,47.37,13.933s27.166,10.445,32.738,16.716
		c2.524,2.84,2.181,5.396,0.866,8.179c5.779-0.439,12.853-0.246,21.232,1.249c26.995,4.819,43.385,2.893,51.096-0.965
		c3.726-1.862,11.494-6.195,18.537-10.185c-0.075-0.141-0.143-0.28-0.218-0.42c-6.75-12.534-29.888-34.707-25.067-46.275
		c4.821-11.568,20.509-28.887,25.067-37.599c1.417-2.711,2.233-5.417,2.489-7.886C272.57,208.623,265.659,208.534,262.212,207.673z"
		/>
	<path id="ThanhHóa" display="inline" fill="#0bd5ef" stroke="#231F20" stroke-miterlimit="10" d="M308.489,92.466
		c-13.979-7.712-27.476-13.498-36.152-18.317c-7.484-4.156-28.582-18.709-33.316-24.797c-7.517-3.25-17.327-7.686-24.048-11.353
		c-10.605-5.784-22.173-17.354-30.85-22.174c-8.677-4.821-17.353-0.964-17.353-0.964L141.15,4.733
		c0.463,3.771-1.274,4.085-5.23,7.479c-5.061,4.338-6.73,4.88-16.137-3.672c-2.198-2-4.913-2.648-7.068-3.615
		c-0.034,0.017-5.576,2.805-9.049,9.75c-3.484,6.966-6.966,6.965-13.933,8.359c-6.966,1.394-15.326,12.538-11.146,14.628
		c4.18,2.09,9.752-7.664,22.292-1.395c12.539,6.271,21.597,9.057,18.113,18.81c-3.484,9.753,2.786,18.109,10.448,16.021
		c7.663-2.089,20.2-11.146,28.561,11.842c7.495,20.609,1.555,19.389-3.27,19.415c4.898,2.449,9.451,4.727,12.041,6.021
		c7.712,3.855,21.208,7.713,16.388,13.498c-4.819,5.784-3.856,17.353,1.928,22.173c5.785,4.82,21.209,8.677,15.425,14.46
		c-5.785,5.785-5.785,10.605,0,12.533c5.784,1.928,8.678,1.926,12.534,3.854c3.854,1.931,13.496,8.677,16.388,5.785
		s10.604,4.821,13.496,7.714c2.893,2.893,11.571,17.354,19.282,19.28c3.447,0.861,10.358,0.95,16.951,0.789
		c0.356-3.431-0.4-6.394-2.414-8.155c-3.466-3.03,0.434-10.828,3.897-15.16c3.464-4.331,2.599-9.527-1.3-10.827
		c-3.897-1.299,0.434-17.324,2.147-20.635c5.013-9.688,18.317-24.104,20.245-34.708c1.091-6.011,6.212-9.543,12.899-12.179
		C315.76,101.805,315.104,96.116,308.489,92.466z"/>
</g>
<g id="NamTrungBộ-sub" display="none">
	<path id="ĐàNẵng" display="inline" fill="#0bd5ef" stroke="#231F20" stroke-miterlimit="10" d="M130.736,22.016
		c-3.027,3.027-5.303,11.354,3.027,10.596c8.329-0.756,17.411,11.355,17.411,11.355c2.271,8.326,9.84,14.383,15.896,9.841
		c6.058-4.542,7.571-0.757,15.897,0c5.068,0.459,8.741-3.563,13.737-6.955c-10.124-13.78-20.527-27.553-26.149-33.741
		c-1.724-1.897-3.419-3.903-5.084-5.926l-19.597,0.445C145.875,7.632,133.763,18.989,130.736,22.016z"/>
	<path id="BìnhĐịnh" display="inline" fill="#0bd5ef" stroke="#231F20" stroke-miterlimit="10" d="M339.213,464.964
		c4.471-8.942,6.021-14.938,25.743-13.777c3.556-6.218,10.481-20.908,7.069-36.265c-4.502-20.26-13.51-64.154-25.889-82.162
		c-9.318-13.553-7.802-34.755-9.84-51.133c-0.025-0.205-0.063-0.396-0.089-0.601c-16.468,3.083-36.048,0.1-45.089-0.808
		c-7.376-0.738-19.883,7.406-28.054,13.467c0.125,0.271,0.257,0.541,0.346,0.809c2.532,7.597,10.973,25.323,3.376,38.83
		c-7.598,13.506-13.506,31.233-5.065,44.739c8.442,13.507,11.818,31.234,21.104,43.896c9.285,12.661,11.818,21.104,8.442,36.298
		c-1.465,6.592-1.922,13.513-1.55,20.669c6.539,0.544,13.819,1.328,17.941,2.355C316.365,483.457,333.771,475.846,339.213,464.964z"
		/>
	<path id="KhánhHòa" display="inline" fill="#0bd5ef" stroke="#231F20" stroke-miterlimit="10" d="M362.061,597.719
		c-13.054,1.088-15.233,18.498-25.026,17.409l-11.513,2.095c-7.035,3.651-22.205,12.267-22.205,18.666
		c0,8.326,3.792,28.751-6.806,27.996c-10.598-0.756-22.707-4.545-25.736,3.025c-3.031,7.571-4.54,14.388,0,21.954
		c0,0-0.135,0.188-0.346,0.465c2.885,2.261,4.946,5.612,4.583,10.671c-0.587,8.237-1.484,15.191-0.985,21.4
		c2.292-5.167,6.202-8.293,11.897-3.034c9.84,9.084,12.108,29.522,19.678,34.821c7.571,5.299,23.464,4.54,27.251,13.625
		c3.785,9.085,12.11,21.199,21.194,19.683c3.126-0.521,8.05-0.86,13.153-1.085c-0.072-1.389-0.326-2.611-0.805-3.567
		c-3.377-6.753-19.135-23.637-10.131-20.259c9.006,3.375,25.887,0,21.385-6.755c-4.5-6.753-13.504-13.506-12.379-18.007
		s6.754-12.378,0-18.008c-6.752-5.628-4.5-7.877,0-10.129c4.502-2.252-14.633-23.636-7.881-29.266
		c6.754-5.629,20.26,9.006,20.26-4.5c0-13.507-20.256-37.146-9.002-45.022c8.108-5.676,13.306-16.017,19.785-24.307
		c-0.492-3.559-0.982-6.76-1.351-8.961C385.996,590.101,375.115,596.631,362.061,597.719z"/>
	<path id="PhúYên" display="inline" fill="#0bd5ef" stroke="#231F20" stroke-miterlimit="10" d="M387.779,555.613
		c-9.002-9.006-18.002-19.136-9.002-27.013c0,0-13.502-22.511-11.254-33.766c2.25-11.255-4.504-40.52-4.504-40.52
		s0.797-1.141,1.937-3.13c-19.724-1.16-21.272,4.835-25.743,13.777c-5.441,10.882-22.848,18.493-31.553,16.317
		c-4.122-1.027-11.403-1.813-17.941-2.355c0.488,9.344,2.424,19.099,5.77,29.135c5.909,17.728,14.351,31.232,0,37.986
		c-13.091,6.159-27.542,6.767-29.347,26.677c1.164,1.124,2.414,2.872,3.868,5.635c7.571,14.385,13.629,24.223,24.981,28.009
		c11.353,3.785,20.438-0.004,27.25,4.541c6.812,4.544,6.812,4.544,6.812,4.544s-1.414,0.669-3.531,1.771l11.513-2.095
		c9.793,1.089,11.974-16.321,25.026-17.409c13.056-1.088,23.937-7.618,25.023-1.088c0.367,2.202,0.857,5.402,1.35,8.961
		c2.51-3.214,5.207-6.13,8.354-8.332C408.04,589.379,396.783,564.617,387.779,555.613z"/>
	<path id="QuảngNgãi" display="inline" fill="#0bd5ef" stroke="#231F20" stroke-miterlimit="10" d="M332.631,267.481
		c-7.878-15.758-20.259-23.636-23.636-46.147c-3.083-20.56,0.386-56.125-22.993-69.859c-14.146,6.11-39.312,13.453-46.227,14.71
		c-9.286,1.688-16.883-4.221-28.701,5.909c-11.818,10.129-10.973,29.545-8.441,32.921c1.107,1.474-0.852,5.207-3.403,8.942
		c0.129,0.104,0.264,0.221,0.386,0.322c4.54,3.782,9.84,12.863,16.653,15.895c6.812,3.03,3.785,9.088,9.083,15.142
		c5.299,6.055,15.897,3.023,21.196,14.38c5.299,11.356,10.598,20.441,9.839,23.469c-0.161,0.64-0.642,1.45-1.381,2.284
		c3.502,2.507,6.737,5.404,8.06,8.237c8.171-6.061,20.678-14.205,28.054-13.467c9.041,0.907,28.621,3.891,45.089,0.808
		C335.536,275.886,334.504,271.23,332.631,267.481z"/>
	<path id="QuảngNam" display="inline" fill="#0bd5ef" stroke="#231F20" stroke-miterlimit="10" d="M278.606,148.173
		c0,0-19.134-18.01-27.012-20.259c-7.877-2.25-21.383-34.895-30.389-47.272c-4.505-6.191-14.364-19.994-24.5-33.789
		c-4.996,3.392-8.669,7.414-13.737,6.955c-8.326-0.757-9.84-4.542-15.897,0c-6.057,4.542-13.625-1.516-15.896-9.841
		c0,0-9.082-12.111-17.411-11.355c-4.287,0.39-5.753-1.63-5.764-4.094c-4.141,1.847-8.092,4.744-13.302,8.311
		c-9.045,6.19-10.951,10.475-15.238,2.379s-9.997-9.521-16.664-1.904c-6.666,7.617-10.475,8.57-15.237,1.904
		c-1.571-2.201-3.871-2.254-6.246-1.363c-0.214,0.901-0.481,1.898-0.858,3.106c-4.068,13.011-11.387,28.454-27.653,30.084
		c-16.265,1.629-30.092,0.003-16.265,19.52c13.827,19.517,18.705,39.035,37.41,45.541c18.705,6.506,11.385,11.386,21.145,17.892
		c8.634,5.758,12.812,8.35,15.912,15.626c5.866-2.457,13.242-3.778,19.292,0.763c12.111,9.084,5.3,13.625,18.924,15.138
		c13.625,1.514,31.791-3.023,30.276,11.357c-1.513,14.38-1.635,25.9,8.326,29.521c8.33,3.027,15.897-0.755,17.411-12.111
		c1.474-11.05,9.387-4.188,13.997-0.322c2.552-3.736,4.511-7.47,3.403-8.942c-2.532-3.376-3.377-22.792,8.441-32.921
		c11.818-10.13,19.416-4.221,28.701-5.909c6.915-1.257,32.08-8.6,46.227-14.71C283.783,150.172,281.339,149.051,278.606,148.173z"/>
</g>
<g id="TâyNguyên-sub" display="none">
	<path id="KonTum" display="inline" fill="#0bd5ef" stroke="#231F20" stroke-miterlimit="10" d="M104.717,213.868
		c23.292-17.337,50.552-0.817,92.948-27.722c42.396-26.903,28.539-39.953,26.091-48.921c-2.447-8.968,7.338-7.337,19.566-2.447
		c12.229,4.891,20.383-2.443,21.201-5.703c0.817-3.261-4.892-13.047-10.599-25.277c-5.708-12.232-17.123-8.968-22.83-15.489
		c-5.707-6.521-2.447-13.045-9.785-16.309c-7.338-3.265-13.045-13.045-17.936-17.119c-4.892-4.074-13.862-12.232-15.493,0
		c-1.63,12.231-9.781,16.306-18.752,13.045c-10.73-3.9-10.599-16.31-8.968-31.798c1.63-15.489-17.937-10.603-32.611-12.232
		c-14.676-1.63-7.338-6.521-20.383-16.306c-6.518-4.892-14.462-3.466-20.781-0.82c0.433,1.02,0.852,2.104,1.257,3.313
		c3.502,10.513-0.874,40.294-15.768,43.799c-14.892,3.505-21.9,14.008-8.76,25.397c13.139,11.391-2.626,0.878,0,24.527
		c2.626,23.651,8.76,21.02,0,44.67c-8.76,23.651-30.658,32.409-28.907,66.573c1.751,34.163,14.013,43.799,18.394,46.427
		c0.787,0.474,0.803,1.375,0.414,2.667C74.145,259.582,76.48,234.879,104.717,213.868z"/>
	<path id="ĐắkLắk" display="inline" fill="#0bd5ef" stroke="#231F20" stroke-miterlimit="10" d="M106.351,538.338
		c4.891,4.894,7.338,13.047,17.123,14.677c9.785,1.63,8.968,6.521,21.201,16.306c12.231,9.784,23.643,38.317,23.643,38.317
		s7.338-4.889,20.383-6.521c13.045-1.63,17.123-6.522,26.09-13.045c8.969-6.521,13.045,1.63,22.014-7.338
		c8.968-8.968,5.708-6.524,18.752-2.446c13.045,4.076,24.461-12.229,24.461-12.229c-4.891-8.15-3.265-15.491,0-23.646
		c3.264-8.153,16.306-4.073,27.72-3.261c11.416,0.814,7.33-21.185,7.33-30.152c0-8.969,27.722-22.014,27.722-22.014s0,0-7.338-4.895
		c-7.339-4.896-17.123-0.814-29.351-4.892c-12.228-4.076-18.752-14.676-26.908-30.168c-8.155-15.491-10.598-3.261-22.827-4.891
		c-12.228-1.631-15.492-22.83-26.09-43.214c-10.599-20.383-58.706-30.981-67.673-26.903c-8.969,4.077-26.091,9.781-36.689,5.707
		c-6.244-2.4-26.912-1.689-42.848-0.699c-0.462,1.456-0.965,2.934-1.559,4.45c-14.015,35.914-27.154,43.796-15.766,85.843
		c9.909,36.588,11.193,53.272,9.628,64.492C93.21,525.769,102.423,534.406,106.351,538.338z"/>
	<path id="DakNông" display="inline" fill="#0bd5ef" stroke="#231F20" stroke-miterlimit="10" d="M53.872,681.36
		c8.637-3.636,26.822-9.092,30.459-14.092c3.637-5.001,10.456-18.64,15.002-16.366c4.547,2.271,11.821,12.729,17.276,10.456
		c5.456-2.273,10.911-7.273,15.911-2.729c5.001,4.547,16.821,20.457,29.096,12.729c12.275-7.729,8.183-20.004,0-28.64
		c-8.183-8.64-15.911-23.188-7.274-29.552c6.695-4.935,10.652-0.358,13.579-6.492c-2.053-4.931-12.311-28.608-23.246-37.355
		c-12.233-9.785-11.416-14.676-21.201-16.306c-9.785-1.63-12.231-9.783-17.123-14.677c-3.928-3.932-13.141-12.569-30.981-6.521
		c-0.233,1.677-0.527,3.235-0.868,4.714c-2.628,11.387-16.642,50.811-25.402,46.43c-8.76-4.378-18.394-19.268-31.535-10.51
		c-3.391,2.261-7.134,5.226-10.998,8.51c4.612,2.172,8.232,5.639,6.848,11.177c-3.262,13.044-8.968,26.086-0.815,34.24
		c8.153,8.154,23.642,19.564,25.273,29.351s4.078,26.091,4.078,26.091s-0.348,0.051-0.917,0.158
		C45.319,682.719,50.144,682.93,53.872,681.36z"/>
	<path id="GiaLai" display="inline" fill="#0bd5ef" stroke="#231F20" stroke-miterlimit="10" d="M306.639,412.229
		c15.457-7.273,6.363-21.821,0-40.915c-6.366-19.093-8.185-37.278-4.548-53.645c3.637-16.366,0.91-25.458-9.092-39.098
		c-10.001-13.639-13.639-32.731-22.73-47.279c-9.093-14.548-2.728-33.643,5.455-48.189s-0.909-33.641-3.637-41.825
		c-1.108-3.323-4.922-6.786-9.053-9.741c-2.976,3.355-10.069,7.1-19.712,3.242c-12.228-4.891-22.013-6.521-19.566,2.447
		c2.448,8.968,16.306,22.018-26.091,48.921c-42.396,26.904-69.656,10.386-92.948,27.722c-28.236,21.011-30.572,45.713-51.703,50.276
		c-1.78,5.89-12.158,19.972,2.214,39.374c16.78,22.653,38.354,40.496,27.838,73.513c15.936-0.99,36.604-1.702,42.848,0.699
		c10.598,4.074,27.72-1.63,36.689-5.707c8.968-4.078,57.075,6.521,67.673,26.903c10.599,20.384,13.862,41.583,26.09,43.214
		c8.865,1.183,12.591-4.876,17.077-2.419c0.511,0.28,1.044,0.717,1.584,1.238C276.97,419.518,292.537,418.863,306.639,412.229z"/>
	<path id="LâmĐồng" display="inline" fill="#0bd5ef" stroke="#231F20" stroke-miterlimit="10" d="M284.581,578.053
		c0.392-5.447-1.829-9.061-4.936-11.494c-1.992,2.64-12.368,15.391-24.088,11.729c-13.045-4.078-9.785-6.521-18.752,2.446
		c-8.969,8.968-13.045,0.817-22.014,7.338c-8.968,6.521-13.045,11.415-26.09,13.045c-13.045,1.632-20.383,6.521-20.383,6.521
		s-0.152-0.378-0.397-0.962c-2.927,6.134-6.883,1.559-13.579,6.492c-8.637,6.364-0.909,20.912,7.274,29.552
		c8.183,8.636,12.275,20.91,0,28.64c-12.274,7.729-24.094-8.183-29.096-12.729c-5-4.545-10.455,0.455-15.911,2.729
		c-5.455,2.271-12.729-8.185-17.276-10.456c-4.546-2.272-11.365,11.365-15.002,16.366c-3.637,5-21.822,10.456-30.459,14.092
		c-3.728,1.569-8.553,1.358-12.838,0.616c-3.638,0.674-17.131,3.83-17.836,13.705c-0.536,7.505,0.335,14.633,0.996,18.654
		c5.676,0.678,11.001,2.021,15.437,4.355c22.268,11.72,3.518,15.236,12.894,19.924c6.793,3.401,20.349,6.832,32.211,17.365
		c1.922,0.273,4.109,0.825,6.72,1.756c16.97,6.06,23.032,7.273,33.943,3.028c10.911-4.243,44.247,1.21,41.218,9.092
		c-3.03,7.881-8.489,18.793,10.911,7.881c19.398-10.909,43.035-26.668,38.188-30.913c-4.849-4.243-7.274-22.425,4.244-25.458
		s23.032,2.422,32.125,3.029c7.49,0.5,13.34-1.899,20.926-11.564c-0.107-0.007-0.217-0.033-0.323-0.033
		c-5.708,0-4.895-2.444,1.63-13.859c6.524-11.416,10.599-13.858,2.447-27.722c-8.151-13.861-4.073-11.417,0.817-25.276
		c4.891-13.857,3.26-31.799,3.26-31.799c0-3.779,0.881-8.984,2.678-13.038C282.983,594.416,283.949,586.926,284.581,578.053z"/>
</g>
<g id="ĐồngbằngsôngCửuLong-sub" display="none">
	<path id="LongAn" display="inline" fill="#0bd5ef" stroke="#231F20" stroke-miterlimit="10" d="M384.172,62.595
		c13.305,6.208,9.756,18.626,15.078,27.497s14.191,8.867,22.172,15.076c7.982,6.208,15.965,5.324,31.043,7.981
		c15.076,2.658,10.644-10.64,26.607-12.417c15.965-1.776,34.59,13.307,49.668,24.835c15.076,11.529,35.477,9.755,50.553,2.662
		c15.078-7.094,15.078-24.835,13.303-33.702c-1.774-8.866-35.475-12.417-44.346-15.968s-0.887-23.058-1.773-39.021
		c-0.887-15.965-12.416-8.871-23.059-12.417c-10.643-3.548-14.191-15.08-21.287-12.417c-7.094,2.662-10.641,9.755-15.076,5.319
		c-1.5-1.499-4.319-2.685-7.391-3.611c-1.76,6.702-4.576,13.094-2.652,22.067c2.857,13.341,0,24.777-12.389,22.872
		s-18.105-23.822-27.635-21.917c-9.53,1.905-20.008,1.908-24.773-6.668c-4.768-8.577-7.623-33.35-20.965-26.682
		c-13.34,6.668-19.061,13.341-34.307,15.246c-2.271,0.281-4.447,0.316-6.556,0.23c1.773,6.653,4.468,13.415,7.177,20.635
		C362.885,56.382,370.869,56.386,384.172,62.595z"/>
	<path id="AnGiang" display="inline" fill="#0bd5ef" stroke="#231F20" stroke-miterlimit="10" d="M213,143.304
		c9.757,4.431,15.964,5.323,29.268,8.87s26.606,21.284,38.137,27.493c11.531,6.208,13.305-5.32,16.851-10.642
		c3.547-5.318,15.965,6.209,22.174,6.209s6.209-17.74,15.077-17.74c8.867,0,13.304-15.075,18.625-32.813
		c5.322-17.737-37.25-16.853-40.799-22.173s-10.642-23.063-20.399-31.932c-6.236-5.667-5.585-22.899-4.305-34.621
		c-12.539-8.156-29.335-17.03-34.549-9.863c-7.623,10.48,5.716,28.586-1.907,40.021c-7.391,11.089-30.018,44.478-55.706,46.506
		C193.187,133.108,204.679,139.525,213,143.304z"/>
	<path id="CàMau" display="inline" fill="#0bd5ef" stroke="#231F20" stroke-miterlimit="10" d="M297.258,361.469
		c5.322-12.414-17.739-19.516-31.93-26.608c-14.19-7.093-16.851-14.189-35.475-12.417c-8.514,0.813-18.489,3.473-26.832,6.127
		c-1.637,13.979-3.267,31.152-5.207,52.966c-7.623,85.763-15.246,93.382,0,92.431c15.246-0.949,26.681-1.904,7.623,14.295
		c-19.059,16.201-43.832,25.729-18.104,30.492s99.499-18.318,124.112-66.121c5.4-10.486,10.867-19.035,16.227-26.025
		c-9.793-10.563-21.523-22.492-29.527-31.438C283.068,378.318,291.937,373.882,297.258,361.469z"/>
	<path id="SócTrăng" display="inline" fill="#0bd5ef" stroke="#231F20" stroke-miterlimit="10" d="M409.01,264.796
		c-2.66,10.644-15.078,20.396-35.477,28.377c-20.4,7.981-17.738,17.74-20.4,32.816c-2.662,15.075,20.4,24.834,41.686,23.063
		c21.285-1.773,20.4,7.093,15.966,16.849c-2.021,4.442,0.198,11.641,3.209,18.17c11.902-3.288,22.764-6.746,27.146-9.535
		c10.412-6.626,43.539-28.872,40.699-40.701c-2.84-11.83-7.104-41.646-23.197-51.586c-13.567-8.38-21.813-29.938-21.813-29.938
		s-12.25-9.237-15.402-9.686C415.219,241.739,411.67,254.152,409.01,264.796z"/>
	<path id="BạcLiêu" display="inline" fill="#0bd5ef" stroke="#231F20" stroke-miterlimit="10" d="M328.031,307.527
		c-8.9,0-17.803-3.956-24.726-2.968c-6.924,0.989-7.912,7.913-4.945,12.858c2.967,4.944-4.945,11.867-1.979,22.747
		c0.912,3.339-0.145,6.958-2.032,10.37c3.229,3.181,4.702,6.749,2.909,10.935c-5.321,12.413-14.19,16.849,0.887,33.701
		c8.004,8.944,19.734,20.875,29.527,31.438c19.078-24.869,36.807-29.969,45.307-32.188c6.304-1.646,24.648-5.83,41.015-10.348
		c-3.011-6.528-5.229-13.728-3.209-18.17c4.436-9.756,5.319-18.622-15.966-16.849c-21.284,1.771-44.348-7.986-41.686-23.063
		c1.717-9.731,1.252-17.239,6.166-23.49C347.195,301.569,334.627,307.527,328.031,307.527z"/>
	<path id="CanTho" display="inline" fill="#0bd5ef" stroke="#231F20" stroke-miterlimit="10" d="M295.723,185.872
		c6.593,5.273,24.396,23.737,26.375,27.693c1.979,3.956,13.846,9.896,17.803,16.485c3.957,6.592,10.55,18.464,11.869,5.935
		c1.318-12.528,3.957-19.119,16.484-11.868c12.527,7.252,15.826,0,23.738,0s7.912-9.233,13.848-8.573
		c5.934,0.661-16.486-13.187-16.486-13.187c-3.957-6.596-7.254-17.808-13.848-15.168c-6.592,2.64-15.822-14.508-23.076-17.804
		c-4.742-2.155-9.766-7.406-14.703-12.63c-1.008,0.476-2.076,0.738-3.221,0.738c-8.869,0-8.869,17.74-15.078,17.74
		s-18.626-11.527-22.173-6.209c-2.14,3.211-3.648,8.662-7.031,11.131C291.819,182.182,293.658,184.218,295.723,185.872z"/>
	<g id="KiênGiang" display="inline">
		<path fill="#0bd5ef" stroke="#231F20" stroke-miterlimit="10" d="M9.756,149.664c-7.702,8.295-2.37,11.254,3.555,10.07
			c5.925-1.182,8.888,21.327,9.479,29.622s14.22,28.439,14.22,28.439c7.109-4.736,7.109-33.18,12.442-45.62
			c5.334-12.441-0.593-31.399-5.333-39.694C39.378,124.187,17.458,141.368,9.756,149.664z"/>
		<path fill="#0bd5ef" stroke="#231F20" stroke-miterlimit="10" d="M309.029,289.666c-5.89-8.245,22.383-21.207,31.809-31.813
			c3.654-4.114,4.992-11.238,5.279-18.421c-2.127-2.398-4.438-6.417-6.217-9.381c-3.957-6.591-15.824-12.529-17.803-16.485
			c-1.979-3.956-19.783-22.42-26.375-27.693c-2.065-1.653-3.904-3.689-5.5-5.714c-2.224,1.622-5.247,1.971-9.819-0.49
			c-11.53-6.209-24.833-23.946-38.137-27.493c-13.304-3.547-19.511-4.439-29.268-8.87c-8.32-3.779-19.813-10.196-17.533-30.685
			c-0.806,0.062-1.605,0.192-2.417,0.192c-26.682,0-58.126,1.908-57.174,21.917s5.718,18.109,12.388,32.4
			c6.67,14.291,13.339,39.066,22.868,20.963c9.53-18.104,17.154-15.249,31.448-3.813c14.293,11.438,32.397,20.969,42.879,33.354
			s-2.859,6.668-20.011,35.255c-12.791,21.314-17.632,34.702-22.426,75.682c8.343-2.653,18.318-5.314,26.832-6.127
			c18.624-1.772,21.284,5.324,35.475,12.417c9.407,4.702,22.671,9.42,29.021,15.675c1.888-3.412,2.944-7.031,2.032-10.37
			c-2.967-10.88,4.945-17.803,1.979-22.747c-2.966-4.945-1.979-11.869,4.945-12.858c3.008-0.429,6.402,0.085,9.994,0.792
			C315.893,296.748,313.465,295.875,309.029,289.666z"/>
	</g>
	<path id="ĐồngTháp" display="inline" fill="#0bd5ef" stroke="#231F20" stroke-miterlimit="10" d="M391.826,184.388
		c6.43,4.945,10.879,12.363,24.727,0.989c13.849-11.374,10.385-19.287-0.494-24.232c-10.881-4.944-16.813-8.9-6.43-17.803
		c10.385-8.902,23.244-13.353,19.287-23.243c-1.619-4.045-2.213-8.001-2.25-11.85c-1.791-0.784-3.523-1.746-5.244-3.083
		c-7.98-6.208-16.85-6.205-22.172-15.076s-1.773-21.288-15.078-27.497c-13.303-6.208-21.287-6.212-26.607-20.399
		c-2.709-7.221-5.401-13.981-7.176-20.635c-12.045-0.498-21.543-5.481-29.652,2.627c-9.53,9.527-12.389,26.683-20.011,20.963
		c-2.409-1.808-7.3-5.424-13.096-9.194c-1.28,11.722-1.932,28.954,4.305,34.621c9.757,8.87,16.85,26.611,20.399,31.932
		s46.121,4.436,40.799,22.173c-4.635,15.447-8.6,28.865-15.403,32.075c4.938,5.224,9.961,10.475,14.703,12.63
		c7.254,3.296,16.483,20.442,23.075,17.804c1.845-0.737,3.423-0.367,4.836,0.652C383.846,184.609,388.395,181.75,391.826,184.388z"
		/>
	<path id="HậuGiang" display="inline" fill="#0bd5ef" stroke="#231F20" stroke-miterlimit="10" d="M404.857,212.963
		c1.963,1.653,2.768,2.776,0.981,2.58c-5.937-0.66-5.937,8.573-13.848,8.573c-7.912,0-11.212,7.252-23.738,0
		s-15.166-0.66-16.483,11.868c-0.728,6.896-3.052,6.388-5.652,3.446c-0.287,7.183-1.625,14.307-5.279,18.421
		c-9.426,10.605-37.699,23.567-31.809,31.813c4.436,6.209,6.863,7.082,4.27,15.686c4.676,0.924,9.699,2.176,14.732,2.176
		c6.596,0,19.164-5.958,31.268-5.026c2.701-3.435,7.002-6.494,14.234-9.326c20.398-7.981,32.816-17.733,35.477-28.377
		c2.58-10.327,6.01-22.285,11.879-22.182c-0.221-6.561-3.604-12.429-7.045-21.538C412.016,216.228,408.416,213.971,404.857,212.963z
		"/>
	<path id="TiềnGiang" display="inline" fill="#0bd5ef" stroke="#231F20" stroke-miterlimit="10" d="M440.41,158.587
		c9.725,2.777,38.893,2.083,48.615-0.695c9.723-2.777,27.084-8.333,34.028-4.86c5.144,2.573,25.898,11.606,49.572,17.819
		c4.6-0.244,17.004-0.634,23.771-7.398c8.838-8.836-1.621-29.706,4.413-30.313c-3.852-5.312-8.334-10.099-12.178-13.53
		c-2.158,3.326-5.018,6.587-9.342,8.62c-15.076,7.093-35.477,8.867-50.553-2.662c-15.078-11.528-33.703-26.611-49.668-24.835
		c-15.965,1.777-11.531,15.076-26.607,12.417c-11.83-2.086-19.278-2.036-25.799-4.898c0.037,3.848,0.631,7.804,2.25,11.85
		c3.957,9.891-8.902,14.341-19.287,23.243s-4.451,12.857,6.43,17.803c1.656,0.754,3.117,1.585,4.396,2.478
		C426.824,160.35,435.074,157.066,440.41,158.587z"/>
	<path id="BếnTre" display="inline" fill="#0bd5ef" stroke="#231F20" stroke-miterlimit="10" d="M602.99,196.423
		c-6.592-9.233-28.693-24.479-30.363-25.572c-23.674-6.213-44.43-15.246-49.572-17.819c-6.944-3.473-24.307,2.083-34.028,4.86
		c-7.414,2.117-26.117,3.021-38.9,2.1c1.131,4.223,3.703,9.406,9.285,14.483c12.711,11.556,32.354,22.531,32.354,22.531l9.937,18.44
		c0,0,27.752,27.612,39.771,32.721c18.933,8.048,28.55,12.877,33.824,7.6c5.275-5.277-1.318-18.46-5.275-19.781
		c-3.957-1.32-46.157-29.011-35.604-27.692c10.551,1.316,34.285,23.732,39.563,18.46c5.274-5.274,3.954-23.738,11.866-21.101
		C593.76,208.292,609.584,205.656,602.99,196.423z"/>
	<path id="VĩnhLong" display="inline" fill="#0bd5ef" stroke="#231F20" stroke-miterlimit="10" d="M472.984,226.64
		c3.662-7.606,13.799-19.453,20.067-27.246l-1.287-2.388c0,0-19.645-10.977-32.354-22.531c-5.582-5.077-8.154-10.262-9.285-14.483
		c-3.98-0.286-7.406-0.742-9.715-1.403c-5.336-1.521-13.586,1.763-19.955,5.034c7.111,4.969,7.834,12.115-3.902,21.756
		c-13.848,11.374-18.297,3.956-24.727-0.989c-3.432-2.639-7.98,0.221-11.484,3.454c3.645,2.639,6.16,9.764,9.012,14.516
		c0,0,10.941,6.762,15.504,10.605c3.56,1.008,7.158,3.265,8.986,8.113c3.439,9.109,6.824,14.979,7.045,21.539
		c0.181,0.004,0.354-0.021,0.537,0.008c2.469,0.352,10.494,5.973,13.869,8.402c3.236-2.607,7.051-5.655,9.547-7.576
		C449.922,239.541,467.904,237.195,472.984,226.64z"/>
	<path id="TràVinh" display="inline" fill="#0bd5ef" stroke="#231F20" stroke-miterlimit="10" d="M559.932,275.622
		c0,0-16.563-9.94-26.979-17.515c-10.414-7.571-26.508-34.551-26.508-34.551l-4.744-8.109l-8.648-16.054
		c-6.27,7.793-16.406,19.64-20.067,27.246c-5.08,10.555-23.063,12.9-28.144,16.811c-2.496,1.921-6.311,4.969-9.547,7.576
		c0.937,0.677,1.533,1.116,1.533,1.116s17.551,14.009,27.018,20.164c9.47,6.154,11.361,27.454,29.349,35.973
		c17.985,8.521,38.811,22.723,53.483,5.208C561.352,295.975,559.932,275.622,559.932,275.622z"/>
</g>
<g id="ĐôngBắc-sub" display="none">
	<path id="HàGiang" display="inline" fill="#0bd5ef" stroke="#231F20" stroke-miterlimit="10" d="M133.646,125.162
		c0.412,2.467,5.347,7.399,2.057,9.045c-3.291,1.646-5.347,4.933,2.055,8.635c7.401,3.701,13.57,10.689,18.093,22.615
		c0,0,6.989-7.4,11.512-0.411s6.167,11.923,11.513,12.746c5.345,0.824,9.046,1.646,11.102-4.521
		c2.057-6.169,6.167-24.672,10.69-23.026c4.524,1.645,9.458,5.346,9.458,5.346s5.759-14.804,8.635-20.972
		c2.877-6.167,10.28-27.138,17.271-23.437c6.989,3.7,12.745,10.69,16.446,6.99c3.702-3.701,8.225-5.756,12.748-1.234
		c4.521,4.522,15.624,3.701,13.157-4.11c-2.466-7.813-7.81-19.738-18.091-24.672c-10.28-4.934-15.214-5.757-9.869-11.924
		c5.346-6.167,10.692-15.214,15.214-16.447c3.372-0.92,9.945-6.188,15.459-14.604c-3.198-5.743-8.413-19.997-12.997-21.523
		c-5.492-1.83-16.474-21.966-24.711-12.813c-8.238,9.152-22.882,14.644-35.695,19.22c-12.813,4.575-30.203,11.898-23.795,25.627
		c6.407,13.729,6.406,21.049-6.407,22.88c-12.813,1.832-34.779,5.493-37.524,10.068c-2.076,3.459-7.294,10.572-13.67,11.863
		c4.063,5.151,9.16,11.648,9.409,13.146C136.113,116.115,133.235,122.695,133.646,125.162z"/>
	<path id="LạngSơn" display="inline" fill="#0bd5ef" stroke="#231F20" stroke-miterlimit="10" d="M385.285,144.896
		c-5.075-3.514-10.521-8.138-18.801-1.206c-0.441,0.369-0.891,0.771-1.348,1.206c0,0,12.336,20.561,7.813,27.139
		c-4.523,6.577-19.738,24.26-17.682,35.771c2.058,11.512,0.823,18.915,12.748,28.372c11.924,9.458,0.82,17.264-2.47,25.9
		c-3.288,8.635,0.002,14.389,7.813,15.624c7.813,1.234,7.402,12.337,17.271,11.514c9.867-0.823,14.39-4.523,16.446-20.148
		c0,0,0.41-4.934,11.102-7.812s11.103-2.055,16.858,1.646c5.757,3.7,7.401,4.522,12.747,0.821c5.346-3.7,8.632,0.408,9.043,6.165
		s6.168,6.579,5.757,11.104c-0.411,4.523,4.522,6.165,10.279,2.055c5.757-4.111,4.934,7.402,5.346,13.159l16.035-2.058
		c0,0,5.759-10.279,8.636-9.457c2.877,0.823,6.577-3.289,3.289-7.812c-3.289-4.523,4.934-16.858,4.934-16.858
		c2.554-1.701,6.973-3.297,10.989-5.232c-2.697-3.935-4.455-13.969-12.369-12.388c-9.15,1.83-21.05-2.746-26.541-10.982
		c-5.491-8.237-0.916-17.391-0.916-17.391s-12.812-1.83-20.135-5.491c-7.322-3.661-16.475-10.984-21.966-6.407
		c-5.491,4.578-11.897,12.813-10.982,3.662c0.913-9.153,2.744-32.033,0.913-37.524c-1.829-5.492-16.474-21.05-15.559-27.458
		c0.062-0.421,0.122-0.926,0.183-1.492c-3.179,2.611-6.537,5.478-8.877,7.636C400.498,151.886,390.631,148.596,385.285,144.896z"/>
	<path id="CaoBang" display="inline" fill="#0bd5ef" stroke="#231F20" stroke-miterlimit="10" d="M288.236,114.265
		c8.237-5.948,16.019-22.88,19.679-11.896c3.66,10.982,3.66,10.982,3.66,10.982s-10.526-5.034-4.118,5.949
		c6.406,10.983,9.609,16.933,18.307,14.645c8.693-2.289,23.338-12.813,27.913-8.695c3.786,3.407,4.15,13.694,11.937,19.223
		c0.291-0.267,0.587-0.542,0.873-0.78c8.277-6.933,13.725-2.309,18.8,1.206c5.346,3.7,15.213,6.99,20.558,2.056
		c2.34-2.158,5.698-5.023,8.877-7.636c0.877-8.038,2.069-29.266,8.056-24.135c6.407,5.491,17.39,4.576,21.051-10.982
		c3.662-15.56-0.916-18.306-8.237-23.797s-20.135-9.152-23.797-11.898c-3.66-2.746-20.135,10.982-27.456,8.237
		c-7.321-2.746-24.713-21.966-39.356-15.56s-18.304,8.236-22.881,3.66c-4.576-4.576-36.609-15.558-39.355-17.389
		c-0.453-0.304-1.015-1.139-1.647-2.274c-5.514,8.416-12.087,13.685-15.459,14.604c-4.521,1.233-9.868,10.28-15.214,16.447
		c-5.345,6.167-0.411,6.99,9.869,11.924c10.281,4.935,15.625,16.859,18.091,24.672c0.218,0.688,0.296,1.305,0.317,1.887
		C281.661,116.117,285.048,116.567,288.236,114.265z"/>
	<path id="LaoCai" display="inline" fill="#0bd5ef" stroke="#231F20" stroke-miterlimit="10" d="M100.153,215.857
		c5.95-5.948,12.357-5.493,18.306-2.289c5.948,3.204,18.761,2.29,15.559-6.405c-3.203-8.695-3.203-8.695-3.203-8.695
		s-9.61-18.762-4.119-19.678c5.492-0.916,17.846,13.729,22.88,9.152c5.035-4.577,7.782-10.068,10.069-12.813
		c1.315-1.579-2.047-5.28-3.588-9.875c-0.124,0.118-0.206,0.204-0.206,0.204c-4.522-11.924-10.691-18.914-18.093-22.615
		c-7.402-3.702-5.346-6.989-2.055-8.635c3.29-1.646-1.646-6.579-2.057-9.045c-0.411-2.468,2.467-9.048,2.057-11.515
		c-0.25-1.498-5.347-7.995-9.409-13.146c-2.057,0.417-4.234,0.236-6.466-0.879c-9.152-4.578-13.727-10.068-11.897-13.729
		c1.83-3.662-1.83-9.151-10.983-2.746c-9.153,6.406-20.136,10.983-20.136,23.796c0,12.813-0.916,22.881-8.237,19.221
		c-7.322-3.662-13.729-10.067-18.305-13.729S34.71,97.791,32.88,94.129c-1.83-3.661-6.406-10.067-12.813-5.492
		c-6.407,4.576-1.83,11.897-5.491,17.389c-1.333,1.999-4.002,3.263-6.767,3.806c1.751,3.372,5.089,5.157,10.213,5.157
		c8.003,0,4.309,8.003-1.846,14.773c-6.155,6.771,0.616,8.003,6.771,10.464c6.155,2.461,16.004,0.615,22.159,5.54
		c6.155,4.925-2.461,11.081,1.232,13.543c3.694,2.461,1.846,6.155,4.925,9.848c3.078,3.694,1.23,12.312,4.307,19.082
		c3.077,6.772,8.618,4.31,11.696,6.771c2.321,1.855,1.491,8.607-0.64,14.192c5.968,1.011,13.762,2.54,15.68,3.908
		C85.51,215.4,94.203,221.806,100.153,215.857z"/>
	<path id="BắcGiang" display="inline" fill="#0bd5ef" stroke="#231F20" stroke-miterlimit="10" d="M348.186,261.162
		c-1.373,7.321,1.373,11.897,1.373,17.848c0,5.948-16.018,9.153-17.848,17.39c-1.83,8.237-3.662,14.644,12.813,19.678
		s20.593,3.204,24.711,6.407c4.119,3.204,9.61,2.287,16.019-3.661c6.407-5.949,16.933-12.356,20.593-6.407
		c3.662,5.95,7.321,6.866,10.983,5.95c3.661-0.916,10.98,7.321,18.305,7.779c7.322,0.459,16.934-5.491,21.509-5.948
		c4.575-0.458,16.017,0.914,18.306-11.898c0.739-4.141,1.957-8.322,3.267-12.093h-0.005c-0.412-5.755,0.411-17.271-5.346-13.159
		s-10.69,2.468-10.279-2.055c0.411-4.523-5.346-5.347-5.757-11.104c-0.411-5.756-3.697-9.865-9.043-6.165
		c-5.345,3.701-6.99,2.878-12.747-0.821c-5.757-3.7-6.168-4.523-16.858-1.646c-10.689,2.878-11.102,7.812-11.102,7.812
		c-2.059,15.625-6.579,19.325-16.446,20.148c-9.868,0.824-9.458-10.279-17.271-11.514c-7.813-1.235-11.103-6.989-7.813-15.624
		c0.548-1.436,1.315-2.848,2.153-4.248C360.275,256.889,349.098,256.301,348.186,261.162z"/>
	<g id="QuảngNinh" display="inline">
		<path fill="#0bd5ef" stroke="#231F20" stroke-miterlimit="10" d="M587.174,292.89c0.41,4.112,6.99,3.7,6.99,3.7
			s6.167-3.7,6.577-4.934c0.41-1.234-1.645-3.289-5.344-3.7C591.697,287.545,586.764,288.778,587.174,292.89z"/>
		<path fill="#0bd5ef" stroke="#231F20" stroke-miterlimit="10" d="M560.858,306.047c-2.878,2.878,2.467,6.989,2.467,6.989
			c4.934,0.412,11.925-7.399,15.214-11.513c3.291-4.111-1.233-6.989-2.466-8.224C576.073,293.301,563.735,303.169,560.858,306.047z"
			/>
		<path fill="#0bd5ef" stroke="#231F20" stroke-miterlimit="10" d="M535.368,308.103c-4.112,6.168-10.692,24.26-2.469,25.493
			c0,0,12.335-8.634,10.689-11.102c-1.644-2.467-6.169-1.233-4.111-5.757C541.535,312.215,539.479,301.934,535.368,308.103z"/>
		<path fill="#0bd5ef" stroke="#231F20" stroke-miterlimit="10" d="M421.032,341.021c0.1-0.469,0.148-0.752,0.148-0.752
			s5.539,4.308,11.693,6.771c0,0,10.465,11.695,15.39,15.39c2.026,1.52,4.678,5.339,7.099,9.303
			c3.733-4.214,10.104-5.22,10.104-5.22c4.937-5.756-11.101-5.346-5.756-11.514c1.962-2.262,4.746,2.464,16.036-2.878
			c0.822-0.389,4.523-10.713,8.224-8.657c3.701,2.055,2.879,9.458,2.879,9.458c-2.056,10.689,9.146,4.802,9.146,4.802
			c13.728-7.323,31.117-24.713,29.286-29.289c-1.829-4.576-1.829-27.457,9.153-26.542c10.982,0.916,21.978-3.58,28.067-6.123
			c14.628-6.108,22.272-29.573,28.679-24.996c6.405,4.578,6.403,13.73,15.559,7.323c9.152-6.407,0.914-8.238-8.238-15.56
			c-9.15-7.322-12.812-11.897-28.371-7.322c-15.561,4.576-27.459,4.576-30.204,0c-2.746-4.576-12.813,2.747-16.476,0.916
			c-0.494-0.248-0.938-0.728-1.359-1.342c-4.018,1.936-8.437,3.531-10.989,5.232c0,0-8.223,12.334-4.934,16.858
			c3.288,4.522-0.412,8.635-3.289,7.812c-2.877-0.822-8.636,9.457-8.636,9.457l-16.03,2.058c-1.31,3.771-2.527,7.953-3.267,12.093
			c-2.289,12.813-13.729,11.44-18.306,11.898c-4.575,0.457-14.187,6.407-21.509,5.948c-7.323-0.458-14.644-8.694-18.305-7.779
			c-2.375,0.595-4.748,0.39-7.122-1.43c0.396,5.423,1.245,11.003,3.014,13.832C414.253,333.22,417.514,336.825,421.032,341.021z"/>
	</g>
	<path id="BắcKạn" display="inline" fill="#0bd5ef" stroke="#231F20" stroke-miterlimit="10" d="M288.574,133.008
		c-0.833,7.771-11.103,21.647-15.542,24.701c-4.44,3.053-3.887,6.661-1.666,10.546c2.222,3.885-0.555,9.715-0.833,15.265
		c-0.278,5.55,4.997,16.931,12.212,18.318c7.215,1.387,13.045-6.385,18.318-3.332c5.273,3.052,10.268,6.106,9.16,12.49
		c-1.111,6.383-7.217,14.154-0.279,19.428c6.938,5.272,10.826,7.771,19.705-3.052c8.883-10.825,16.097-20.262,19.982-17.764
		c1.563,1.004,4.112,2.817,6.604,4.625c-0.277-2.014-0.559-4.138-0.967-6.427c-2.058-11.513,13.157-29.194,17.682-35.771
		c4.523-6.578-7.813-27.139-7.813-27.139c0.161-0.154,0.316-0.279,0.476-0.425c-7.784-5.528-8.148-15.813-11.936-19.223
		c-4.574-4.119-19.22,6.406-27.914,8.695c-8.695,2.288-11.898-3.661-18.306-14.645c-6.408-10.983,4.118-5.949,4.118-5.949
		s0,0-3.66-10.982c-3.66-10.983-11.441,5.948-19.679,11.896c-1.896,1.369-3.859,1.75-5.764,1.551
		C285.389,120.809,289.087,128.22,288.574,133.008z"/>
	<path id="YênBái" display="inline" fill="#0bd5ef" stroke="#231F20" stroke-miterlimit="10" d="M106.243,245.406
		c4.717-2.774,15.542-1.386,12.212,7.495c-3.33,8.882-10.545,13.323-5.273,22.203c5.273,8.88,6.937,17.763,16.097,16.098
		c9.16-1.665,10.822-6.662,15.54-5.83c4.718,0.833,12.21,8.048,16.096,4.995c3.885-3.053,7.772-1.388,11.38,3.33
		s7.493,7.771,11.656,4.44c4.163-3.331,12.489-2.498,9.436-10.546c-3.052-8.048-10.824-18.318-3.052-25.256
		c7.772-6.938,18.317-13.601,23.313-14.155c4.995-0.555,3.33-6.379,4.163-12.485c0.832-6.104-1.665-15.542-6.938-21.369
		c-5.272-5.828-12.767-14.711-15.542-18.318c-2.296-2.986-6.86-9.791-10.571-17.704c-1.669,0.177-3.628-0.164-5.881-0.511
		c-5.345-0.823-6.989-5.757-11.513-12.746c-4.085-6.312-10.163-0.905-11.306,0.207c1.541,4.596,4.903,8.296,3.588,9.875
		c-2.287,2.746-5.034,8.236-10.069,12.813c-5.034,4.577-17.389-10.068-22.88-9.152c-5.491,0.916,4.119,19.678,4.119,19.678
		s0,0,3.203,8.695s-9.61,9.609-15.559,6.405c-5.949-3.204-12.356-3.659-18.306,2.289c-5.95,5.949-14.643-0.457-17.847-2.746
		c-1.917-1.368-9.712-2.896-15.68-3.908c-0.695,1.824-1.53,3.525-2.438,4.89c-3.693,5.54-2.462,9.848-1.231,14.158
		c0.854,2.987,1.071,5.682-0.491,8.486c4.816,4.458,12.801,10.57,21.851,12.277C99.026,251.791,101.524,248.181,106.243,245.406z"/>
	<path id="TuyênQuang" display="inline" fill="#0bd5ef" stroke="#231F20" stroke-miterlimit="10" d="M228.514,250.181
		c4.805,7.551,9.61,14.415,15.102,15.788c5.492,1.373,15.788,14.416,22.652,10.983c6.864-3.433,15.788-8.237,10.297-16.475
		c-5.492-8.238-4.119-10.982,0-18.535c4.118-7.55-2.06-18.532,2.059-24.711c2.319-3.479,3.988-9.79,6.226-15.251
		c-0.688,0.023-1.388-0.004-2.104-0.142c-7.216-1.388-12.49-12.769-12.212-18.318c0.278-5.55,3.054-11.38,0.833-15.265
		c-2.221-3.885-2.775-7.493,1.666-10.546c4.44-3.052,14.709-16.931,15.542-24.701c0.513-4.788-3.186-12.199-6.102-17.192
		c-1.299-0.136-2.573-0.533-3.773-1.102c0.207,6.009-9.351,6.347-13.474,2.224c-4.523-4.521-9.046-2.467-12.748,1.234
		c-3.701,3.7-9.457-3.291-16.446-6.99c-6.989-3.701-14.392,17.271-17.271,23.437c-2.876,6.167-8.635,20.972-8.635,20.972
		s-4.934-3.701-9.458-5.346c-4.523-1.646-8.634,16.857-10.69,23.026c-1.189,3.567-2.932,4.79-5.221,5.033
		c3.711,7.913,8.275,14.718,10.571,17.704c2.775,3.608,10.27,12.49,15.542,18.318c5.273,5.827,7.771,15.265,6.938,21.369
		c-0.432,3.171-0.197,6.257-0.564,8.577C222.025,245.359,226.591,247.159,228.514,250.181z"/>
	<path id="TháiNguyên" display="inline" fill="#0bd5ef" stroke="#231F20" stroke-miterlimit="10" d="M298.733,287.925
		c5.24,3.667,20.175,9.186,32.322,11.528c0.194-0.989,0.422-2.006,0.655-3.055c1.83-8.236,17.847-11.44,17.847-17.39
		s-2.744-10.526-1.373-17.848c0.912-4.861,12.092-4.273,19.517-3.332c4.198-7.027,10.258-13.767,0.315-21.652
		c-9.553-7.576-10.66-13.837-11.781-21.944c-2.49-1.809-5.039-3.622-6.604-4.625c-3.887-2.498-11.102,6.938-19.982,17.764
		c-8.879,10.824-12.767,8.324-19.705,3.052c-6.938-5.272-0.832-13.045,0.279-19.428c1.108-6.384-3.886-9.438-9.16-12.49
		c-4.75-2.75-9.955,3.263-16.214,3.474c-2.238,5.462-3.907,11.771-6.226,15.251c-4.119,6.178,2.059,17.161-2.059,24.711
		c-4.119,7.552-5.492,10.297,0,18.535c1.993,2.986,2.071,5.519,1.057,7.702c3.1,1.752,6.501,3.62,9.354,5.046
		C294.325,276.9,291.384,282.781,298.733,287.925z"/>
	<path id="PhúThọ" display="inline" fill="#0bd5ef" stroke="#231F20" stroke-miterlimit="10" d="M225.974,356.273
		c4.41,2.205,13.964,2.206,20.579,3.675c6.613,1.469,5.88-5.145,4.41-7.349c-1.471-2.204-3.674-8.82-5.879-19.844
		s6.613-22.05,11.759-28.663c5.146-6.614-1.47-18.374-5.88-20.578s-5.145-2.939-2.204-6.615c1.214-1.518,1.418-4.287,1.25-7.017
		c-2.438-1.878-4.657-3.48-6.393-3.915c-5.491-1.373-10.296-8.237-15.102-15.788c-1.923-3.021-6.488-4.821-11.268-5.909
		c-0.341,2.149-1.196,3.642-3.599,3.908c-4.996,0.555-15.542,7.217-23.313,14.155c-7.772,6.938,0,17.208,3.052,25.256
		c3.053,8.048-5.272,7.215-9.436,10.546c-0.439,0.353-0.875,0.596-1.31,0.811c6.916,9.494,7.146,15.679,6.06,20.563
		c-0.525,2.361-0.545,6.23-0.297,10.338c6.925,5.077,16.089,10.286,19.934,11.727C214.216,343.781,221.564,354.069,225.974,356.273z
		"/>
</g>
<g id="TâyBắc-sub" display="none">
	<path id="LaiChâu" display="inline" fill="#0bd5ef" stroke="#231F20" stroke-miterlimit="10" d="M72.082,111.462
		c8.336,3.79,27.284,20.464,27.284,20.464s9.094-7.578,1.515-13.642s6.065-6.821,9.854,0c3.788,6.82-3.789,18.188,5.305,25.01
		c9.094,6.82,12.126,11.369,13.642,13.642c1.516,2.273,1.516-6.823,7.579-9.096c6.063-2.273,17.432-6.821,19.705-12.884
		c2.273-6.063,3.032-8.336,17.432-1.516c14.4,6.821,21.978,9.853,27.284,6.821c5.305-3.031,10.611-7.577,16.674,3.032
		c6.063,10.608,2.275,10.61,12.126,6.82c9.852-3.791,11.367-9.854,15.915,4.547c4.548,14.4,7.579,19.707,12.884,21.979
		c5.305,2.272,5.306,14.399,10.611,20.463c5.305,6.063,12.884,10.611,18.947,5.306s6.063-9.853,4.548-15.157
		c-1.515-5.306-3.032-10.611,1.516-17.433c4.548-6.82,7.58-20.464,3.79-23.494c-3.79-3.031-10.612,0.002-14.4-8.337
		c-3.789-8.338-1.515-18.946-5.305-23.494c-3.79-4.549-1.515-9.097-6.063-12.126c-4.548-3.03,6.062-10.611-1.518-16.675
		c-7.578-6.063-19.705-3.79-27.283-6.82c-7.578-3.031-15.915-4.548-8.336-12.885c7.578-8.336,12.126-18.188,2.273-18.188
		c-6.309,0-10.419-2.199-12.576-6.352c-5.947,1.17-12.258-0.384-10.825-4.685c2.253-6.761,3.381-13.523,3.381-13.523
		s-11.27-16.901-18.031-11.268c-6.761,5.634-12.396,22.54-19.157,23.665c-6.762,1.126-23.665,19.157-27.046,29.299
		c-3.381,10.143-25.92,2.255-28.173-9.015c-2.253-11.271-10.144-12.396-18.031-16.904s-16.906-10.14-30.428-16.9
		C63.652,15.354,62.524-3.804,56.89,9.719c-5.634,13.523-22.537,28.172-15.776,30.427c6.761,2.255-0.001,9.016-7.889,10.143
		c-1.598,0.228-2.796,1.285-3.881,2.829c4.907,5.995,12.121,14.935,15.452,19.692C50.103,80.391,63.746,107.672,72.082,111.462z"/>
	<path id="ĐiệnBiên" display="inline" fill="#0bd5ef" stroke="#231F20" stroke-miterlimit="10" d="M183.67,326.943
		c2.818-13.522,10.705-7.325,15.776-3.381c5.071,3.943,12.959-8.452,9.579-14.086c-3.381-5.634,1.127-12.96,4.508-18.594
		c3.38-5.634-11.833-27.61-14.65-33.244c-2.818-5.634,15.213-8.452,16.903-14.086s12.96-18.594,15.776-21.412
		s1.127-24.228-1.126-27.609c-2.253-3.38,3.381-19.157,2.816-22.538c-0.347-2.078-3.673-12.668-6.186-20.523
		c-5.54,2.212-3.511,0.931-8.714-8.175c-6.063-10.609-11.369-6.063-16.674-3.032c-5.306,3.031-12.884,0-27.284-6.821
		c-14.4-6.82-15.159-4.548-17.432,1.516c-2.273,6.063-13.642,10.61-19.705,12.884c-6.063,2.272-6.063,11.369-7.579,9.096
		c-1.515-2.272-4.547-6.821-13.642-13.642c-9.094-6.821-1.517-18.189-5.305-25.01c-3.789-6.821-17.432-6.063-9.854,0
		c7.579,6.063-1.515,13.642-1.515,13.642s-18.947-16.674-27.284-20.464c-8.336-3.79-21.979-31.072-27.285-38.652
		c-3.331-4.759-10.545-13.698-15.452-19.692c-4.268,6.071-6.688,20.058-23.996,24.402c0,0-6.514,9.771,5.7,20.357
		s33.385,27.687,38.271,36.643c4.886,8.957,15.472,21.171,21.986,26.871c6.514,5.7,12.214,22.798,13.028,30.127
		c0.814,7.33,10.586,26.871,10.586,26.871c3.257-0.813,16.285-17.098,13.028-22.798c-3.257-5.7-3.255-21.986,4.072-16.286
		c7.328,5.7,8.143,20.357,12.214,20.357s6.514-8.146,9.771-1.629c3.257,6.516,11.4,22.8-2.443,37.456
		c-13.843,14.657-10.586,17.101-5.7,20.357c4.886,3.257,4.073,1.631-4.07,9.772c-8.143,8.141-16.286,14.654-7.33,19.542
		c8.957,4.886,8.958,22.798,21.986,38.271c9.063,10.763,15.771,22.698,26.136,30.616
		C172.285,349.796,181.366,337.997,183.67,326.943z"/>
	<path id="SơnLa" display="inline" fill="#0bd5ef" stroke="#231F20" stroke-miterlimit="10" d="M435.53,404.419
		c5.916-5.071,7.605-4.227,5.07-13.522c-2.535-9.298-1.689-15.214,8.451-11.833c10.144,3.381,10.987,0.846,16.904-1.69
		c5.916-2.534,22.819-9.297,12.678-17.748c-10.143-8.452-26.201-21.976-27.892-27.047c-1.69-5.07-4.227-25.354-2.535-32.962
		c1.337-6.014,1.053-13.628-7.461-25.316c-4.521,2.238-8.769-1.271-12.739-6.466c-4.441-5.81-9.228-7.859-14.012-4.102
		c-4.783,3.76-14.011-5.125-19.818-6.149c-5.809-1.025-7.856,5.127-19.134,7.177s-13.326-8.884-19.818-19.819
		c-6.492-10.935,2.393-16.402,6.492-27.338c4.1-10.935-9.228-12.645-15.037-9.228c-5.809,3.417-8.884,7.86-26.996,4.443
		c-11.143-2.102-20.975-9.627-26.902-15.115c-0.851,1.527-2.085,3.08-3.944,4.706c-6.063,5.306-13.642,0.758-18.947-5.306
		c-5.305-6.063-5.305-18.189-10.611-20.463c-5.306-2.272-8.336-7.579-12.884-21.979c-4.547-14.401-6.063-8.336-15.915-4.546
		c-1.396,0.537-2.496,0.986-3.412,1.354c2.512,7.855,5.839,18.445,6.186,20.523c0.564,3.381-5.07,19.158-2.816,22.539
		c2.253,3.381,3.942,24.79,1.126,27.608s-14.086,15.778-15.776,21.412s-19.721,8.452-16.903,14.086
		c2.818,5.634,18.031,27.61,14.65,33.244s-7.889,12.96-4.508,18.594c3.38,5.634-4.508,18.029-9.579,14.086
		c-5.071-3.944-12.958-10.142-15.776,3.381c-2.304,11.055-11.385,22.854-21.086,27.104c4.535,3.465,9.761,6.169,16.205,7.655
		c21.172,4.886,44.788,3.258,58.629,20.357c13.841,17.1,19.543,4.887,29.314-8.144c9.771-13.029,8.955-14.656,27.685-20.356
		c18.729-5.7,23.615-17.916,41.529-10.586c17.913,7.329,24.424,17.095,36.638,25.238c12.214,8.143,8.143,11.398,16.285,17.1
		c8.143,5.7,19.543,10.586,19.543,10.586s5.686,1.892,8.255,4.229C427.663,410.123,429.614,409.49,435.53,404.419z"/>
	<path id="HòaBình" display="inline" fill="#0bd5ef" stroke="#231F20" stroke-miterlimit="10" d="M491.877,408.645
		c10.143,5.636,23.665,19.159,36.061,25.92c7.855,4.285,19.323,9.471,28.11,13.271c-0.88-1.135-1.295-2.025-1.062-2.566
		c1.689-3.945,7.323-9.017,14.086-0.565c6.761,8.452,12.961,13.525,15.776,9.018c2.816-4.508-5.072-13.522,2.816-16.903
		c7.664-3.285,1.026-11.838,14.077-3.538c-0.305-6.158-0.997-16.825-2.202-18.511c-1.623-2.271-6.002-8.85-3.519-12.729
		c-15.646-3.254-22.619-15.849-26.108-22.131c-4.228-7.606-8.452-11.833-16.06-14.369c-7.605-2.534-5.916-14.367-2.535-21.129
		c3.381-6.761-5.07-12.678-10.987-17.749c-3.621-3.104-12.927-0.192-19.613,2.534c1.584,5.762,3.037,9.497,4.149,11.163
		c1.811,2.713,2.714,10.857-5.43,9.047c-8.144-1.809-19.907-1.811-25.338-4.523c-5.429-2.714-14.477-15.382-21.717-18.098
		c-4.732-1.773-16.018-8.188-24.543-14.438c0.493,8.168,1.858,17.102,2.901,20.232c1.689,5.071,17.749,18.595,27.892,27.047
		c10.142,8.451-6.762,15.213-12.678,17.748c-5.917,2.536-6.762,5.071-16.904,1.69c-10.142-3.381-10.987,2.535-8.451,11.833
		c0.554,2.026,0.894,3.554,1.043,4.782l29.948,11.84C471.593,407.519,481.734,403.009,491.877,408.645z"/>
</g>
<g id="Vietnam">
	<path id="TâyBắc" fill="#0bd5ef" stroke="#231F20" stroke-miterlimit="10" d="M215.514,155.811
		c-0.48-0.672-1.775-2.618-1.041-3.765c-4.628-0.962-6.691-4.688-7.723-6.546c-1.25-2.25-2.5-3.5-4.75-4.25s-1.75-4.25-0.75-6.25
		s-1.5-3.75-3.25-5.25c-1.071-0.918-3.824-0.058-5.802,0.75c0.469,1.704,0.898,2.809,1.228,3.302
		c0.536,0.803,0.803,3.211-1.606,2.676c-2.409-0.535-5.889-0.536-7.495-1.338c-1.606-0.802-4.282-4.55-6.424-5.353
		c-1.4-0.525-4.738-2.423-7.26-4.271c-0.09-1.496-0.083-2.905,0.108-3.765c0.396-1.779,0.312-4.031-2.207-7.489
		c-1.337,0.662-2.593-0.376-3.768-1.913c-1.314-1.718-2.729-2.325-4.145-1.213s-4.144-1.516-5.862-1.819
		c-1.718-0.303-2.324,1.518-5.66,2.123c-3.336,0.606-3.942-2.628-5.862-5.861c-1.92-3.234,0.708-4.853,1.92-8.086
		c1.212-3.234-2.729-3.74-4.448-2.729c-1.719,1.011-2.628,2.325-7.985,1.314c-3.296-0.622-6.204-2.849-7.958-4.472
		c0.569-1.021,0.489-2.003,0.179-3.091c-0.448-1.569-0.897-3.139,0.448-5.156c1.345-2.017,2.242-6.053,1.121-6.949
		c-1.121-0.897-3.139,0-4.26-2.467c-1.121-2.466-0.448-5.604-1.569-6.949c-1.121-1.347-0.448-2.69-1.793-3.588
		c-1.345-0.896,1.793-3.139-0.449-4.932c-2.242-1.793-5.829-1.121-8.07-2.018c-2.241-0.897-4.708-1.346-2.466-3.812
		s3.587-5.38,0.672-5.38c-1.866,0-3.082-0.65-3.72-1.878c-1.759,0.346-3.626-0.114-3.202-1.386c0.667-2,1-4,1-4
		s-3.333-5-5.333-3.333s-3.667,6.667-5.667,7s-7,5.667-8,8.667S76,53,75.333,49.667s-3-3.667-5.333-5s-5-3-9-5S56.667,32,55,36
		s-6.667,8.333-4.667,9s0,2.667-2.333,3c-0.473,0.066-0.827,0.38-1.148,0.837c-1.262,1.796-1.978,5.933-7.098,7.218
		c0,0-1.927,2.89,1.686,6.021c3.613,3.131,9.875,8.188,11.32,10.839c1.445,2.649,4.577,6.262,6.503,7.947
		c1.926,1.687,3.613,6.744,3.854,8.912c0.241,2.168,3.131,7.948,3.131,7.948c0.963-0.241,4.817-5.058,3.854-6.744
		c-0.963-1.686-0.963-6.503,1.205-4.816c2.168,1.686,2.409,6.021,3.613,6.021s1.927-2.409,2.89-0.481
		c0.963,1.927,3.372,6.743-0.723,11.079c-4.095,4.337-3.131,5.059-1.686,6.021c1.445,0.963,1.205,0.482-1.204,2.891
		c-2.409,2.409-4.817,4.335-2.168,5.78c2.649,1.445,2.65,6.744,6.503,11.32c2.681,3.184,4.665,6.714,7.731,9.056
		c1.341,1.025,2.887,1.825,4.793,2.265c6.263,1.445,13.248,0.964,17.342,6.021c4.094,5.058,5.781,1.445,8.671-2.409
		c2.89-3.854,2.649-4.335,8.189-6.021c5.54-1.687,6.985-5.3,12.284-3.131c5.299,2.168,7.225,5.057,10.837,7.465
		c3.612,2.407,2.408,3.372,4.817,5.058c2.409,1.687,4.851,2.732,4.851,2.732s2.611,0.958,3.372,1.649
		c3.252,2.957,3.83,2.771,5.58,1.271c1.368-1.173,1.969-1.282,1.809-2.585l8.858,3.502c0,0,3-1.334,6,0.333s7,5.667,10.667,7.667
		c2.324,1.268,5.716,2.801,8.315,3.925c-0.26-0.335-0.383-0.599-0.314-0.759c0.5-1.167,2.167-2.667,4.167-0.167s3.834,4,4.667,2.667
		s-1.5-4,0.833-5c2.267-0.973,0.304-3.501,4.164-1.046C216.075,159.465,215.87,156.31,215.514,155.811z"/>
	<g id="ĐồngbằngsôngCửuLong">
		<path fill="#0bd5ef" stroke="#231F20" stroke-miterlimit="10" d="M115.051,684.848c-1.947,2.097-0.599,2.845,0.898,2.546
			c1.497-0.299,2.247,5.391,2.396,7.487c0.149,2.096,3.594,7.188,3.594,7.188c1.797-1.197,1.797-8.387,3.145-11.531
			c1.348-3.144-0.15-7.937-1.348-10.032C122.538,678.408,116.998,682.75,115.051,684.848z"/>
		<g>
			<path fill="#0bd5ef" stroke="#231F20" stroke-miterlimit="10" d="M265,696.666c-1.667-2.334-7-6-8-6.334
				c-0.267-0.089-0.098-0.105,0.325-0.13c1.163-0.062,4.298-0.159,6.008-1.87c2.234-2.232-0.41-7.509,1.116-7.661
				c-0.973-1.344-2.106-2.48-3.078-3.349l0.29-0.544c1.357-2.091,1.031-4.27,0.711-5.868c-0.449-2.24-8.967-3.139-11.209-4.035
				c-2.242-0.897-0.224-5.828-0.448-9.863c-0.224-4.035-3.139-2.242-5.829-3.139c-2.69-0.897-3.587-3.813-5.38-3.14
				s-2.69,2.466-3.811,1.345c-0.379-0.379-1.092-0.679-1.868-0.912c-0.445,1.693-1.157,3.31-0.67,5.577
				c0.723,3.372,0,6.264-3.131,5.781c-3.131-0.481-4.576-6.021-6.985-5.54c-2.409,0.481-5.058,0.482-6.262-1.686
				c-1.204-2.168-1.927-8.431-5.299-6.744c-3.372,1.686-4.818,3.372-8.671,3.854c-0.574,0.071-1.125,0.08-1.657,0.06
				c-3.044-0.126-5.445-1.386-7.495,0.664c-2.409,2.408-3.131,6.744-5.058,5.299c-0.609-0.457-1.845-1.371-3.31-2.324
				c-3.169-2.062-7.415-4.305-8.733-2.493c-1.927,2.649,1.445,7.227-0.482,10.116c-1.868,2.803-7.587,11.242-14.081,11.755
				c-0.204,0.017-0.406,0.049-0.611,0.049c-6.744,0-14.692,0.482-14.452,5.54c0.24,5.059,1.445,4.577,3.131,8.189
				s3.372,9.875,5.78,5.299c2.408-4.576,4.336-3.854,7.949-0.964s8.189,5.3,10.838,8.431c2.649,3.132-0.723,1.687-5.058,8.911
				c-3.233,5.389-4.457,8.771-5.668,19.13c-0.414,3.533-0.826,7.874-1.316,13.389c-1.927,21.678-3.854,23.604,0,23.362
				c3.854-0.24,6.744-0.48,1.927,3.613s-11.079,6.503-4.576,7.707s25.15-4.63,31.371-16.713c1.365-2.65,2.747-4.813,4.102-6.578
				c4.822-6.286,9.303-7.575,11.452-8.137c1.593-0.416,6.229-1.475,10.367-2.615c3.008-0.831,5.753-1.705,6.861-2.41
				c2.632-1.675,11.005-7.298,10.288-10.288c-0.717-2.99-1.796-10.525-5.864-13.039c-3.429-2.118-5.861-7.877-5.861-7.877
				l0.348,0.269c0,0,4.436,3.541,6.829,5.097s2.872,6.938,7.418,9.093s9.81,5.743,13.519,1.316c3.709-4.428,3.35-9.571,3.35-9.571
				s-4.187-2.513-6.819-4.427c-2.632-1.914-6.7-8.733-6.7-8.733l-1.199-2.05c0,0,7.015,6.979,10.053,8.271
				c4.786,2.033,7.216,3.255,8.55,1.921s-0.333-4.666-1.333-5s-11.667-7.333-9-7s8.667,5.999,10,4.666s1-6,3-5.333
				S266.667,699,265,696.666z"/>
		</g>
	</g>
	<path id="TâyNguyên" fill="#0bd5ef" stroke="#231F20" stroke-miterlimit="10" d="M378.939,559.055c0,0,0,0-2.018-1.346
		c-2.018-1.347-4.708-0.225-8.07-1.346c-3.361-1.121-5.156-4.035-7.397-8.295c-0.429-0.813-0.8-1.347-1.144-1.684
		c0.541-5.882,4.815-6.063,8.688-7.887c4.25-2,1.75-6,0-11.25s-2.25-10.25-1.25-14.75s0.25-7-2.5-10.75s-3.75-9-6.25-13
		s-0.75-9.25,1.5-13.25s-0.25-9.25-1-11.5c-0.306-0.913-1.153-1.688-2.289-2.5c-0.001,0.002-0.201-0.178-0.202-0.177
		c0.221-0.248,0.363-0.487,0.411-0.679c0.226-0.896-1.345-3.587-2.914-6.95s-4.708-2.466-6.276-4.259
		c-1.569-1.793-0.674-3.587-2.69-4.484c-2.017-0.896-3.587-3.587-4.933-4.707c-1.345-1.12-3.812-3.362-4.26,0
		c-0.447,3.363-2.689,4.483-5.156,3.587c-2.949-1.071-2.914-4.483-2.465-8.742c0.447-4.26-4.933-2.915-8.968-3.363
		s-2.019-1.793-5.604-4.483c-1.791-1.345-3.977-0.953-5.713-0.226c0.119,0.28,0.233,0.578,0.346,0.911
		c0.963,2.891-0.24,11.079-4.335,12.043c-4.095,0.964-6.021,3.852-2.409,6.982c3.612,3.131-0.722,0.241,0,6.744
		c0.722,6.503,2.409,5.779,0,12.282s-8.43,8.911-7.948,18.305c0.482,9.395,3.853,12.043,5.058,12.767
		c0.216,0.13,0.221,0.378,0.114,0.732c-0.489,1.619-3.343,5.491,0.609,10.826c4.614,6.229,10.546,11.135,7.653,20.213
		c-0.127,0.4-0.266,0.808-0.428,1.225c-3.854,9.875-7.467,12.042-4.335,23.604c2.725,10.061,3.078,14.647,2.647,17.732
		c-0.064,0.461-0.145,0.89-0.239,1.296c-0.723,3.131-4.576,13.971-6.984,12.767s-5.058-5.298-8.671-2.89
		c-0.932,0.621-1.961,1.437-3.024,2.34c1.268,0.597,2.264,1.55,1.883,3.072c-0.897,3.587-2.466,7.173-0.224,9.415
		c2.242,2.242,6.5,5.38,6.949,8.069c0.449,2.69,1.121,7.175,1.121,7.175s-0.096,0.014-0.252,0.043c-1,0.186-4.71,1.054-4.904,3.769
		c-0.147,2.063,0.092,4.023,0.274,5.129c1.561,0.188,3.025,0.558,4.245,1.198c6.123,3.223,0.967,4.189,3.545,5.479
		c1.868,0.936,5.595,1.879,8.856,4.774c0.529,0.075,1.131,0.227,1.849,0.482c4.666,1.666,6.333,2,9.333,0.833
		s12.166,0.333,11.333,2.5s-2.334,5.167,3,2.167s11.833-7.333,10.5-8.5s-2-6.166,1.167-7s6.333,0.666,8.833,0.833
		c2.06,0.138,3.668-0.522,5.754-3.181c-0.028-0.002-0.06-0.01-0.089-0.01c-1.568,0-1.346-0.672,0.448-3.811
		c1.794-3.14,2.913-3.812,0.673-7.622c-2.241-3.812-1.12-3.141,0.225-6.95c1.346-3.811,0.896-8.743,0.896-8.743
		c0-1.039,0.242-2.471,0.736-3.585c-0.147-1.839,0.117-3.898,0.291-6.338c0.107-1.498-0.297-1.913-1.071-2.946
		c-0.06-0.174-0.183-0.352-0.183-0.352c-1.346-2.241-0.897-4.261,0-6.502c0.896-2.242,4.482-1.12,7.621-0.896
		c3.139,0.225,2.016-5.825,2.016-8.291S378.939,559.055,378.939,559.055z"/>
	<g id="ĐôngBắc">
		<path fill="#0bd5ef" stroke="#231F20" stroke-miterlimit="10" d="M318.871,110.26c-1.348-0.15-3.145,0.299-2.995,1.797
			c0.149,1.498,2.546,1.348,2.546,1.348s2.246-1.348,2.396-1.797C320.966,111.158,320.219,110.41,318.871,110.26z"/>
		<path fill="#0bd5ef" stroke="#231F20" stroke-miterlimit="10" d="M311.833,112.207c0,0-4.493,3.594-5.542,4.642
			c-1.047,1.048,0.899,2.546,0.899,2.546c1.797,0.15,4.343-2.695,5.541-4.193S312.281,112.656,311.833,112.207z"/>
		<path fill="#0bd5ef" stroke="#231F20" stroke-miterlimit="10" d="M298.505,120.742c0.749-1.646,0-5.392-1.497-3.145
			c-1.497,2.246-3.895,8.835-0.898,9.285c0,0,4.492-3.145,3.893-4.043C299.403,121.941,297.755,122.39,298.505,120.742z"/>
		<path fill="#0bd5ef" stroke="#231F20" stroke-miterlimit="10" d="M148.021,41.989c-0.749,0.152-1.542,0.086-2.355-0.32
			c-3.333-1.667-4.999-3.667-4.332-5c0.666-1.333-0.667-3.333-4-1c-3.334,2.333-7.334,4-7.334,8.667c0,4.667-0.334,8.333-3,7
			c-2.667-1.334-5.001-3.667-6.667-5c-1.666-1.333-5.667-5.333-6.333-6.667c-0.667-1.333-2.333-3.667-4.667-2
			c-2.333,1.667-0.667,4.333-2,6.333c-0.485,0.728-1.457,1.188-2.465,1.386c0.638,1.228,1.854,1.878,3.72,1.878
			c2.915,0,1.569,2.915-0.672,5.38c-2.242,2.466,0.225,2.915,2.466,3.811c2.242,0.896,5.829,0.224,8.07,2.018
			c2.242,1.794-0.896,4.036,0.449,4.933c1.345,0.896,0.672,2.242,1.793,3.586c1.122,1.346,0.448,4.484,1.569,6.95
			c1.121,2.466,3.139,1.569,4.259,2.466c0.847,0.676,0.544,3.135-0.232,5.169c0,0,0,0,0.001,0c-0.253,0.665-0.557,1.284-0.888,1.781
			c-1.346,2.018-0.897,3.586-0.449,5.157c0.312,1.088,0.391,2.069-0.179,3.091c1.755,1.623,4.663,3.85,7.959,4.471
			c5.355,1.012,6.267-0.303,7.984-1.314c1.719-1.011,5.66-0.505,4.448,2.729c-1.213,3.235-3.841,4.853-1.921,8.086
			c1.921,3.234,2.526,6.47,5.862,5.863c3.336-0.606,3.941-2.426,5.66-2.124c1.718,0.304,4.447,2.931,5.862,1.82
			c1.415-1.112,2.83-0.506,4.145,1.212c1.176,1.539,2.434,2.585,3.772,1.918c2.514,3.454,2.598,5.705,2.202,7.483
			c-0.191,0.86-0.198,2.269-0.108,3.765c2.521,1.849,5.859,3.746,7.26,4.271c2.142,0.804,4.817,4.551,6.424,5.354
			c1.605,0.803,5.086,0.803,7.494,1.338c2.409,0.535,2.143-1.874,1.606-2.677c-0.535-0.803-1.337-3.212-2.141-7.227
			c-0.803-4.015,2.408-8.031,4.283-10.439c1.874-2.409-0.536-6.692-2.143-7.495s-1.873-1.071-0.802-2.409
			c0.442-0.553,0.517-1.561,0.455-2.555c1.919,1.479,4.212,3.429,5.922,2.574c1.593-0.796,3.488-1.797,4.139-3.194
			c1.127,0.638,2.365,1.317,3.402,1.836c2.677,1.339,1.605,3.48,4.283,5.354c1.907,1.335,7.346,3.345,11.77,4.199
			c-0.487,2.473-0.331,4.454,4.907,6.055c6,1.833,7.499,1.167,8.999,2.333c1.501,1.167,3.501,0.833,5.834-1.333
			c2.334-2.167,6.167-4.5,7.5-2.333c0.47,0.762,0.938,1.293,1.406,1.652c0.145,1.973,0.454,4.002,1.098,5.032
			c0.559,0.893,1.746,2.206,3.027,3.734c0.036-0.171,0.054-0.274,0.054-0.274s2.019,1.569,4.26,2.466c0,0,3.811,4.26,5.604,5.605
			c0.738,0.554,1.704,1.945,2.586,3.388c1.359-1.535,3.68-1.901,3.68-1.901c1.798-2.096-4.044-1.947-2.097-4.193
			c0.715-0.824,1.729,0.897,5.84-1.048c0.3-0.142,1.647-3.901,2.996-3.153c1.348,0.749,1.048,3.444,1.048,3.444
			c-0.748,3.893,3.331,1.749,3.331,1.749c5-2.667,11.333-9,10.666-10.667c-0.666-1.667-0.666-10,3.334-9.667
			s8.005-1.304,10.222-2.23c5.328-2.225,8.112-10.771,10.445-9.104c2.333,1.667,2.332,5,5.667,2.667
			c3.333-2.333,0.332-3-3.001-5.667c-3.332-2.667-4.666-4.333-10.332-2.667c-5.668,1.667-10.002,1.667-11.001,0
			c-1-1.667-4.667,1.001-6.001,0.334c-0.18-0.09-0.341-0.265-0.494-0.489c-0.982-1.433-1.623-5.087-4.506-4.512
			c-3.332,0.667-7.666-1-9.666-4s-0.333-6.333-0.333-6.333s-4.666-0.667-7.334-2c-2.667-1.333-6-4-7.999-2.333
			c-2.001,1.667-4.334,4.667-4.001,1.334c0.333-3.334,1-11.667,0.333-13.667c-0.666-2-6-7.667-5.667-10
			c0.022-0.153,0.045-0.336,0.066-0.542c0,0,0.001,0,0.001,0c0.32-2.928,0.754-10.659,2.934-8.79c2.334,2,6.334,1.667,7.668-4
			c1.333-5.667-0.334-6.667-3.001-8.667c-2.666-2-7.333-3.333-8.666-4.333c-1.333-1-7.334,4-10,3s-9.001-8-14.334-5.667
			s-6.666,3-8.333,1.333c-1.666-1.667-13.333-5.666-14.334-6.333c-0.158-0.106-0.353-0.39-0.571-0.778
			c-0.009-0.017-0.043-0.075-0.05-0.087c-1.166-2.115-3.053-7.25-4.712-7.802c-2.001-0.667-6.001-8-9.001-4.667
			c-2.999,3.333-8.334,5.333-13,7c-4.667,1.667-11,4.333-8.666,9.333c2.333,5,2.333,7.666-2.334,8.333
			c-4.666,0.667-12.667,2-13.667,3.667c-0.751,1.252-2.635,3.822-4.938,4.313L148.021,41.989z"/>
	</g>
	<path id="NamTrungBộ" fill="#0bd5ef" stroke="#231F20" stroke-miterlimit="10" d="M396.333,541.332
		c-2.666-2.666-5.332-5.666-2.666-8c0,0-3.999-6.666-3.333-10c0.666-3.332-1.334-12-1.334-12s0.236-0.338,0.573-0.927
		c1.053-1.842,3.104-6.191,2.094-10.739c-1.333-6-4.001-19-7.667-24.334c-2.76-4.014-2.311-10.293-2.914-15.144
		c-0.008-0.061-0.02-0.117-0.025-0.178c-0.199-1.522-0.506-2.901-1.061-4.013c-2.333-4.667-6-7-7-13.667
		c-0.913-6.089,0.114-16.621-6.811-20.688c-0.656-0.386-1.381-0.718-2.189-0.979c0,0-5.667-5.334-8-6s-6.333-10.334-9-14
		c-1.334-1.834-4.254-5.921-7.256-10.007c-2.998-4.081-6.079-8.16-7.744-9.993c-0.511-0.562-1.014-1.155-1.506-1.755l-5.805,0.132
		c0,0-3.586,3.363-4.482,4.261c-0.436,0.435-0.814,1.239-0.811,1.926c-1.228,0.547-2.396,1.404-3.939,2.46
		c-2.68,1.833-3.243,3.102-4.514,0.705c-1.27-2.397-2.961-2.82-4.935-0.564c-1.974,2.257-3.103,2.538-4.513,0.564
		c-0.465-0.652-1.146-0.667-1.85-0.404c-0.063,0.268-0.143,0.563-0.254,0.92c-1.205,3.854-3.372,8.428-8.189,8.91
		c-4.817,0.483-8.912,0.001-4.817,5.781c4.095,5.78,5.54,11.561,11.079,13.487c5.539,1.926,3.372,3.372,6.262,5.299
		c2.557,1.705,3.794,2.473,4.712,4.628c1.736-0.729,3.922-1.119,5.713,0.226c3.588,2.69,1.57,4.035,5.604,4.483
		c4.035,0.448,9.415-0.896,8.968,3.363c-0.449,4.259-0.484,7.671,2.465,8.742c2.468,0.896,4.709-0.224,5.156-3.587
		c0.438-3.271,2.78-1.239,4.146-0.096c0.038,0.031,0.078,0.065,0.113,0.096c1.346,1.12,2.914,3.811,4.933,4.707
		c2.019,0.897,1.121,2.691,2.69,4.484c1.568,1.793,4.707,0.896,6.276,4.259s3.14,6.054,2.914,6.95
		c-0.048,0.188-0.19,0.43-0.409,0.677c1.037,0.742,1.995,1.602,2.387,2.439c0.037,0.08,0.076,0.16,0.104,0.238
		c0.75,2.25,3.25,7.5,1,11.5s-4,9.25-1.5,13.25s3.5,9.25,6.25,13s3.5,6.25,2.5,10.75c-0.434,1.952-0.568,4.003-0.459,6.121
		c0.145,2.769,0.718,5.656,1.709,8.629c1.75,5.25,4.25,9.25,0,11.25c-3.877,1.824-8.156,2.005-8.691,7.9
		c0.346,0.333,0.715,0.852,1.146,1.669c2.242,4.26,4.036,7.174,7.398,8.295c3.361,1.121,6.053-0.001,8.069,1.345
		c2.017,1.347,2.019,1.347,2.019,1.347s-0.42,0.198-1.047,0.523c-2.084,1.082-6.575,3.634-6.575,5.528
		c0,2.466,1.122,8.515-2.017,8.291s-6.725-1.346-7.621,0.896c-0.897,2.241-1.346,4.261,0,6.502c0,0-0.041,0.056-0.104,0.138
		c0.854,0.669,1.465,1.662,1.357,3.16c-0.174,2.438-0.439,4.499-0.293,6.338c0.68-1.53,1.838-2.456,3.523-0.898
		c2.914,2.69,3.586,8.743,5.828,10.313s6.949,1.345,8.07,4.035c1.121,2.689,3.587,6.277,6.277,5.828
		c0.926-0.153,2.383-0.255,3.896-0.32c-0.021-0.411-0.097-0.773-0.238-1.058c-1-2-5.667-7-3-6s7.666,0,6.333-2s-3.999-4-3.666-5.333
		s2-3.666,0-5.333s-1.333-2.333,0-3s-4.334-7-2.334-8.667s6,2.667,6-1.333s-5.999-11.001-2.666-13.334
		c2.401-1.681,3.939-4.742,5.859-7.197c0.742-0.952,1.542-1.815,2.474-2.469C402.333,551.332,398.999,544,396.333,541.332z
		 M319.419,385.494L319.419,385.494L319.419,385.494z"/>
	<path id="BắcTrungBộ" fill="#0bd5ef" stroke="#231F20" stroke-miterlimit="10" d="M323.667,373c-2,1-4.667,3.334-5.667,1.666
		c-1-1.667-1.334-7.332-5.667-9.332s-9-3.334-10.667-6.668c-1.521-3.041-2.494-3.867-5.692-6.015
		c-0.306-0.206-0.625-0.419-0.975-0.652c-4-2.667-12.667-12.333-13.667-16.333c-0.853-3.41-6.057-4.88-8.194-5.652
		c-0.37-0.134-0.658-0.249-0.806-0.348c-1-0.666-11.334-12.332-13.667-14.332s-9.666-11.668-10.333-15c-0.667-3.333-0.667-8,1.667-8
		c1.673,0,1.971-1.887,1.393-3.813c-0.228-0.76-0.588-1.526-1.06-2.187C248.667,284,246.667,282,243.667,281
		s-7.333-6.667-11.667-8.667s-6-7.667-9.667-9.667c-3.625-1.979-4.32-5.91-6.591-10.188c-0.026-0.048-0.049-0.097-0.076-0.146
		c-2.333-4.333-10.334-12-8.667-16s7.091-9.988,8.667-13c0.49-0.938,0.772-1.873,0.861-2.728c0.123-1.187-0.138-2.21-0.835-2.819
		c-1.198-1.049,0.15-3.744,1.348-5.242c1.198-1.498,0.898-3.294-0.449-3.744c-1.347-0.45,0.15-5.99,0.742-7.135
		c1.733-3.351,6.333-8.334,7-12c0.377-2.078,2.148-3.301,4.46-4.211c0.388-1.728,0.161-3.694-2.126-4.956
		c-4.833-2.667-9.5-4.667-12.5-6.333c-2.588-1.438-9.883-6.47-11.52-8.574c-2.599-1.124-5.991-2.658-8.315-3.925
		c-3.667-2-7.667-6-10.667-7.667s-6-0.333-6-0.333l-8.858-3.502c0.16,1.304-0.44,1.413-1.809,2.585
		c-1.75,1.5-2.327,1.688-5.58-1.271c-0.76-0.69-1.699-0.916-2.444-1.25c-0.012,0.006-1.928,0.97-3.129,3.371
		c-1.205,2.409-2.409,2.408-4.817,2.89c-2.408,0.482-5.299,4.336-3.854,5.059c1.445,0.723,3.372-2.65,7.708-0.482
		s7.467,3.131,6.263,6.503s0.963,6.263,3.613,5.54c2.65-0.722,6.984-3.854,9.875,4.096c2.591,7.126,0.538,6.703-1.13,6.713
		c-0.192,0.001-0.381,0.006-0.556,0.03c-1.686,0.241-9.394,3.372-7.226,5.54c2.168,2.168,4.094,4.576,1.204,6.021
		c-2.89,1.445-4.817,0.723-5.54,2.891c-0.723,2.168-2.891,6.985-6.503,5.299c-3.612-1.686-5.299-5.058-7.948-4.575
		c-2.649,0.481-3.131,0.48-5.781-0.482s-3.854,0.723-6.503,0.963s-4.577-4.095-5.54-0.723s4.095,8.671,4.095,8.671
		s-2.89,4.817-4.335,5.781c-1.445,0.964-9.635,3.131-7.467,5.058s1.685,3.129,6.502,4.333c4.817,1.204,9.634,4.335,10.116,6.021
		c0.482,1.686,3.372,0.723,5.299,2.168c1.927,1.444,4.577,5.299,4.577,5.299s4.335-0.482,8.43,6.262
		c4.095,6.744,16.378,4.817,16.378,4.817s9.393,3.611,11.32,5.779c0.873,0.982,0.754,1.865,0.299,2.828
		c-0.549,1.164-1.59,2.443-1.985,4.157c-0.723,3.131,2.649,7.707,2.649,10.356c0,2.648,3.854,3.372,5.54,4.335
		s2.89,5.058,2.89,5.058s1.446-0.964,2.168-2.168s5.058,0.723,6.985,3.131c1.295,1.619,2.696,6.388,3.624,10.076
		c0.453,1.799,0.794,3.345,0.952,4.135c0.482,2.408,2.648,7.947,6.743,10.114c4.095,2.167,5.78,2.89,8.189,6.503
		c2.409,3.612,8.669,17.821,18.785,13.727c0,0,1.445,1.927,2.168,4.576c0.723,2.649,4.095,6.263,5.058,9.153
		c0.963,2.89,1.686-0.724,3.854,1.686c0.137,0.152,0.26,0.296,0.373,0.435c1.677,2.048,0.832,2.685,0.832,6.069
		c0,3.613,0.963,8.669,3.612,12.042c2.649,3.373,1.588,9.582,5.201,10.786s5.156-7.173,6.842-5.487
		c1.686,1.687-0.241,4.337,1.445,6.503c1.686,2.168,2.167,1.205,5.54,3.372c0.164,0.105,0.327,0.206,0.49,0.306
		c3.204,1.96,6.312,3,7.457,6.438c1.204,3.613,1.444,2.649,5.058,3.854s5.299,4.577,7.708,3.131
		c2.185-1.312,3.768-2.805,3.145-0.197c0.703-0.264,1.384-0.248,1.85,0.404c1.41,1.974,2.539,1.691,4.513-0.564
		c1.975-2.256,3.666-1.833,4.936,0.564c1.269,2.396,1.834,1.129,4.513-0.705c1.543-1.056,2.713-1.914,3.938-2.461
		c-0.004-0.688,0.377-1.491,0.812-1.926c0.896-0.896,4.483-4.261,4.483-4.261l5.804-0.132
		C327.771,375.607,325.359,372.153,323.667,373z"/>
	<path id="ĐôngNamBộ" fill="#0bd5ef" stroke="#231F20" stroke-miterlimit="10" d="M241.981,651.832
		c0.757,0.735,1.628,1.614,2.905,2.04c2.69,0.896,5.604-0.896,5.829,3.14c0.225,4.035-1.794,8.966,0.448,9.862
		c2.242,0.897,10.76,1.796,11.209,4.036c0.32,1.6,0.404,4.334-0.953,6.426c0.972,0.866,2.056,1.991,3.029,3.335
		c0.068-0.008,0.132-0.02,0.217-0.005c0.669,0.111,1.263,0.598,1.858,1.131c1.183,1.061,2.367,2.313,4.142,1.202
		c1.654-1.033,3.307-2.962,4.961-3.803c1.013-0.516,2.026-0.624,3.039,0.136c2.667,2-3.667,4.001-0.667,5.334s4.667-0.668,6-1.334
		s1.667,2,5,1s4-4.667,9-6c4.42-1.179,8.054-2.877,8.838-3.945c0.104-0.142,0.162-0.271,0.162-0.388c0-1,5.667-5.001,10-6.667
		s8.666,1.333,11.333-3s4.667-8.999,8.667-9.666s10-3,13-6s3.334-7.333,8.667-7s5.667-1.667,8-4.667
		c1.749-2.25,4.812-1.688,7.077-1.405c0.756,0.094,1.423,0.156,1.923,0.072c2-0.334,6-4.667,5-7.667s-1.001-7.334,3.666-9.667
		c4.006-2.003,6.04-6.455,5.905-8.942c-1.512,0.065-2.971,0.167-3.896,0.321c-2.689,0.448-5.156-3.14-6.277-5.829
		c-1.121-2.69-5.828-2.467-8.069-4.035c-2.242-1.569-2.914-7.622-5.828-10.313c-2.914-2.69-4.261,2.019-4.261,4.483
		c0,0,0.449,4.933-0.896,8.743c-1.344,3.81-2.466,3.139-0.225,6.949c2.241,3.812,1.12,4.483-0.673,7.622
		c-1.795,3.14-2.019,3.812-0.448,3.812c0.028,0,0.06,0.008,0.089,0.01c-2.086,2.657-3.693,3.317-5.754,3.18
		c-2.5-0.167-5.666-1.667-8.833-0.833s-2.5,5.833-1.167,7s-5.166,5.5-10.5,8.5s-3.833,0-3-2.167s-8.333-3.667-11.333-2.5
		s-4.667,0.833-9.333-0.833c-0.721-0.257-1.321-0.407-1.852-0.481c0.002,0,0.002,0,0.004,0c-3.263-2.896-6.989-3.84-8.857-4.774
		c-2.578-1.289,2.578-2.256-3.545-5.479c-1.22-0.643-2.684-1.013-4.245-1.198c-0.182-1.104-0.421-3.064-0.274-5.129
		c0.224-3.139,5.156-3.813,5.156-3.813s-0.672-4.482-1.121-7.174c-0.449-2.69-4.708-5.828-6.949-8.069
		c-2.241-2.242-0.673-5.828,0.224-9.415c0.381-1.522-0.615-2.477-1.883-3.072c-3.056,2.596-6.393,5.927-8.538,7.535
		c-2.89,2.168-13.248,3.372-15.174,5.299c-1.926,1.927-4.817,3.132-6.262,2.168c-1.445-0.964-8.43-1.445-9.875-0.241
		c-1.445,1.204,1.204,3.131,1.204,6.503s-0.241,9.157-0.241,9.157s-4.692,0.348-8.189-0.964c-3.854-1.445-5.78-4.577-10.357-2.892
		c-4.577,1.687-7.708,6.022-11.08,5.781s-4.576,0.724-1.686,4.576s2.65,5.54,2.409,9.394c-0.241,3.854-1.927,5.54,2.89,9.395
		c4.817,3.854,8.43,7.948,9.634,6.021c1.204-1.927,2.649-0.964,2.89,1.928c0.079,0.945-0.075,1.788-0.292,2.611
		c0.776,0.234,1.489,0.534,1.868,0.913c1.121,1.121,2.018-0.672,3.811-1.345C240.448,650.381,241.145,651.02,241.981,651.832z
		 M291.5,622.424c-0.026-0.119-0.085-0.41-0.155-0.831C291.413,622.007,291.473,622.301,291.5,622.424z M291.514,622.49
		c0,0-0.005-0.023-0.013-0.06C291.509,622.468,291.514,622.49,291.514,622.49z"/>
	<path id="ĐồngbằngsôngHồng" fill="#0bd5ef" stroke="#231F20" stroke-miterlimit="10" d="M265.283,137.38
		c-1.793-1.345-5.604-5.604-5.604-5.604c-2.242-0.896-4.259-2.466-4.259-2.466s-0.018,0.104-0.054,0.274
		c-1.281-1.528-2.469-2.841-3.027-3.734c-0.644-1.03-0.953-3.063-1.097-5.038c-0.469-0.358-0.938-0.884-1.406-1.646
		c-1.333-2.167-5.167,0.167-7.5,2.333c-0.926,0.859-1.797,1.42-2.608,1.723c-1.231,0.46-2.321,0.314-3.225-0.39
		c-1.5-1.167-3-0.5-9-2.333c-2.691-0.823-4.035-1.747-4.646-2.785c-0.577-0.982-0.495-2.068-0.26-3.27
		c-2.775-0.534-5.949-1.525-8.401-2.52c-1.457-0.59-2.66-1.182-3.371-1.679c-2.677-1.874-1.606-4.016-4.283-5.354
		c-1.039-0.52-2.278-1.2-3.407-1.838c-0.649,1.397-2.542,2.398-4.135,3.195c-1.709,0.854-4.003-1.096-5.922-2.574
		c0.062,0.994-0.013,2.003-0.455,2.556c-1.071,1.338-0.803,1.606,0.803,2.409s4.016,5.086,2.142,7.495
		c-0.084,0.109-0.174,0.224-0.264,0.339c-1.894,2.437-4.785,6.266-4.019,10.101c0.31,1.55,0.619,2.854,0.914,3.925
		c1.978-0.808,4.73-1.667,5.802-0.75c1.75,1.5,4.25,3.25,3.25,5.25s-1.5,5.5,0.75,6.25s3.5,2,4.75,4.25
		c1.032,1.857,3.095,5.584,7.723,6.546c-0.735,1.146,0.561,3.093,1.041,3.765c0.356,0.499,0.562,3.654,0.651,5.477
		c-3.86-2.455-1.897,0.074-4.164,1.046c-2.333,1,0,3.667-0.833,5s-2.667-0.167-4.667-2.667s-3.667-1-4.167,0.167
		s8.833,7.667,11.833,9.333s7.667,3.667,12.5,6.333c2.287,1.262,2.514,3.229,2.126,4.956c0.77-0.304,1.6-0.572,2.458-0.827
		c1.113-0.33,2.273-0.636,3.415-0.962c4.667-1.333,10-8.667,13.667-11c2.444-1.556,4.585-3.557,5.647-5.703
		c0.531-1.075,0.797-2.187,0.686-3.297c-0.333-3.333-0.666-12,2.667-13c0.189-0.058,0.39-0.127,0.596-0.204
		c3.434-1.285,9.042-5.26,8.977-6.952c-0.045-1.183,0.368-2.072,0.962-2.741C266.987,139.325,266.021,137.934,265.283,137.38z"/>
</g>
</svg>
