<?xml version="1.0" encoding="utf-8"?>
<!-- Generator: Adobe Illustrator 16.0.0, SVG Export Plug-In . SVG Version: 6.00 Build 0)  -->
<!DOCTYPE svg PUBLIC "-//W3C//DTD SVG 1.1//EN" "http://www.w3.org/Graphics/SVG/1.1/DTD/svg11.dtd">
<svg version="1.1" id="레이어_1" xmlns="http://www.w3.org/2000/svg" xmlns:xlink="http://www.w3.org/1999/xlink" x="0px"
	 y="0px" width="841.89px" height="595.281px" viewBox="0 0 841.89 595.281" enable-background="new 0 0 841.89 595.281"
	 xml:space="preserve">
<polygon id="Gwanak" fill="#F2C379" stroke="#FFFFFF" stroke-width="2.5" stroke-dasharray="4" points="199.277,264.137 
	190.84,245.786 136.227,254.75 132.789,259.749 142.07,259.749 160.275,294.6 167.7,308.775 216.788,284.52 216.788,264.137 "/>
<polygon id="Geumcheon" fill="#F2C379" stroke="#FFFFFF" stroke-width="2.5" stroke-dasharray="4" points="132.789,259.749 
	107.963,250.387 105.6,253.843 133.275,310.462 142.725,313.886 142.725,306.75 150.825,307.087 160.275,294.6 142.07,259.749 "/>
<polygon id="Guro" fill="#F2C379" stroke="#FFFFFF" stroke-width="2.5" stroke-dasharray="4" points="124.689,225.662 
	113.552,218.912 106.464,232.271 95.327,227.35 71.027,234.1 55.478,229.163 54.638,235.537 47.213,237.9 47.55,243.975 57,249.713 
	52.275,265.237 80.963,266.633 81.638,258.824 103.575,244.65 107.963,250.387 132.789,259.749 136.227,254.75 "/>
<polygon id="Yangcheon" fill="#F2C379" stroke="#FFFFFF" stroke-width="2.5" stroke-dasharray="4" points="95.327,227.35 
	106.464,232.271 113.552,218.912 113.552,201.361 122.664,201.361 113.552,181.449 99.714,181.449 98.364,199.717 78.114,204.062 
	63.264,181.449 60.375,192 55.478,229.163 71.027,234.1 "/>
<polygon id="Gangdong" fill="#F2C379" stroke="#FFFFFF" stroke-width="2.5" stroke-dasharray="4" points="409.084,174.449 
	393.488,143.738 349.088,160.959 338.421,190.42 369.863,211.574 373.238,210.9 389.438,186.006 406.315,186.006 409.016,181.537 
	406.99,178.162 "/>
<polygon id="Songpa" fill="#F2C379" stroke="#FFFFFF" stroke-width="2.5" stroke-dasharray="4" points="335.633,198.117 
	297.93,214.955 301.537,236.124 334.612,251.648 350.361,276.219 351.977,274.35 356.026,275.025 359.738,271.987 356.701,268.949 
	356.701,265.912 362.102,268.612 385.051,235.875 377.289,230.475 368.176,231.824 369.863,211.574 338.421,190.42 "/>
<polygon id="Gangnam" fill="#F2C379" stroke="#FFFFFF" stroke-width="2.5" stroke-dasharray="4" points="301.537,236.124 
	297.93,214.955 255.081,198.346 244.047,208.122 280.612,274.262 313.012,267.174 323.079,288.037 330.039,281.438 343.539,284.137 
	350.361,276.219 334.612,251.648 "/>
<polygon id="Seocho" fill="#F2C379" stroke="#FFFFFF" stroke-width="2.5" stroke-dasharray="4" points="280.612,274.262 
	244.047,208.122 216.788,232.271 216.788,284.52 225.076,280.425 225.076,274.688 232.164,274.35 242.964,287.85 258.488,281.438 
	258.488,275.699 263.889,278.4 264.004,307.425 279.076,319.574 297.639,317.212 302.363,304.724 310.464,305.4 316.877,297.975 
	316.877,293.925 323.079,288.037 313.012,267.174 "/>
<polygon id="Dongjak" fill="#F2C379" stroke="#FFFFFF" stroke-width="2.5" stroke-dasharray="4" points="136.227,254.75 
	136.227,254.75 190.84,245.786 199.277,264.137 216.788,264.137 216.788,232.271 180.051,221.939 158.777,221.939 "/>
<polygon id="Yeongdeungpo" fill="#F2C379" stroke="#FFFFFF" stroke-width="2.5" stroke-dasharray="4" points="113.552,201.361 
	113.552,218.912 124.689,225.662 136.227,254.75 158.777,221.939 180.051,221.939 176.059,198.654 144.591,193.887 113.552,174.369 
	113.552,181.449 122.664,201.361 "/>
<polygon id="Gangseo" fill="#F2C379" stroke="#FFFFFF" stroke-width="2.5" stroke-dasharray="4" points="78.114,204.062 
	98.364,199.717 99.714,181.449 113.552,181.449 113.552,174.369 111.24,172.914 87.702,159.362 84.942,149.873 84.307,145.693 
	43.5,112.411 32.362,125.176 36.413,129.226 19.538,152.851 13.125,152.851 3,171.412 4.688,179.512 21.563,181.809 31.35,198.412 
	35.737,187.275 48.225,187.949 50.588,191.324 60.375,192 63.264,181.449 "/>
<polygon id="Yongsan" fill="#F2C379" stroke="#FFFFFF" stroke-width="2.5" stroke-dasharray="4" points="194.215,175.05 
	194.215,181.449 182.67,191.917 186.778,215.882 214.84,223.772 245.492,196.617 233.699,183.18 "/>
<polygon id="Mapo" fill="#F2C379" stroke="#FFFFFF" stroke-width="2.5" stroke-dasharray="4" points="194.215,170.985 
	169.576,174.023 129.076,147.697 117.075,127.875 111.338,133.275 111.338,143.063 92.44,148.272 92.469,148.466 94.177,154.258 
	115.251,166.395 147.313,186.558 182.67,191.917 194.215,181.449 "/>
<polygon id="Gwangjin" fill="#F2C379" stroke="#FFFFFF" stroke-width="2.5" stroke-dasharray="4" points="328.963,168.762 
	329.42,153.996 306.6,156.473 298.838,169.298 284.876,201.685 297.723,206.665 329.545,192.453 339.617,164.631 "/>
<polygon id="Seongdong" fill="#F2C379" stroke="#FFFFFF" stroke-width="2.5" stroke-dasharray="4" points="269.475,154.447 
	253.706,155.167 254.963,165.768 233.699,183.18 245.492,196.617 253.496,189.523 284.876,201.685 298.838,169.298 "/>
<polygon id="Jung" fill="#F2C379" stroke="#FFFFFF" stroke-width="2.5" stroke-dasharray="4" points="254.963,165.768 
	253.706,155.167 202.989,157.485 194.215,170.985 194.215,175.05 233.699,183.18 "/>
<polygon id="Seodaemun" fill="#F2C379" stroke="#FFFFFF" stroke-width="2.5" stroke-dasharray="4" points="129.076,147.697 
	169.576,174.023 194.215,170.985 202.989,157.485 181.052,113.61 "/>
<polygon id="Jungnang" fill="#F2C379" stroke="#FFFFFF" stroke-width="2.5" stroke-dasharray="4" points="346.238,117.413 
	344.214,99.188 332.738,98.851 297.15,106.86 306.6,156.473 329.42,153.996 329.701,145.088 337.127,133.951 341.176,122.476 "/>
<polygon id="Dongdaemun" fill="#F2C379" stroke="#FFFFFF" stroke-width="2.5" stroke-dasharray="4" points="297.949,111.045 
	253.299,151.748 253.706,155.167 269.475,154.447 298.838,169.298 306.6,156.473 "/>
<polygon id="Seongbuk" fill="#F2C379" stroke="#FFFFFF" stroke-width="2.5" stroke-dasharray="4" points="209.064,124.748 
	253.299,151.748 297.949,111.045 297.15,106.86 281.406,92.988 262.387,110.235 212.589,79.951 205.994,82.468 216.788,117.66 "/>
<polygon id="Jongno" fill="#F2C379" stroke="#FFFFFF" stroke-width="2.5" stroke-dasharray="4" points="209.064,124.748 
	216.788,117.66 205.994,82.468 194.025,87.038 181.052,113.61 202.989,157.485 253.706,155.167 253.299,151.748 "/>
<polygon id="Eunpyeong" fill="#F2C379" stroke="#FFFFFF" stroke-width="2.5" stroke-dasharray="4" points="194.025,87.038 
	194.025,69.488 179.85,52.275 146.775,71.851 127.875,133.275 117.075,127.875 129.076,147.697 181.052,113.61 "/>
<polygon id="Gangbuk" fill="#F2C379" stroke="#FFFFFF" stroke-width="2.5" stroke-dasharray="4" points="281.406,92.988 
	248.887,64.334 235.539,25.275 228.789,24.938 212.589,79.951 262.387,110.235 "/>
<polygon id="Nowon" fill="#F2C379" stroke="#FFFFFF" stroke-width="2.5" stroke-dasharray="4" points="338.139,71.176 
	321.938,68.139 319.238,30 323.701,24.35 321.674,18.564 316.539,19.201 311.477,10.764 279.74,20.252 283.415,75.81 
	271.579,84.326 297.15,106.86 332.738,98.851 333.076,93.451 339.488,87.375 "/>
<polygon id="Dobong" fill="#F2C379" stroke="#FFFFFF" stroke-width="2.5" stroke-dasharray="4" points="279.74,20.252 
	277.387,15.488 262.201,15.826 260.852,6.375 245.326,3 235.539,25.275 248.887,64.334 271.579,84.326 283.415,75.81 "/>
</svg>
