<?xml version="1.0" encoding="utf-8"?>
<!-- Generator: Adobe Illustrator 16.0.0, SVG Export Plug-In . SVG Version: 6.00 Build 0)  -->
<!DOCTYPE svg PUBLIC "-//W3C//DTD SVG 1.1//EN" "http://www.w3.org/Graphics/SVG/1.1/DTD/svg11.dtd">
<svg version="1.1" id="레이어_1" xmlns="http://www.w3.org/2000/svg" xmlns:xlink="http://www.w3.org/1999/xlink" x="0px"
	 y="0px" width="841.89px" height="595.281px" viewBox="0 0 841.89 595.281" enable-background="new 0 0 841.89 595.281"
	 xml:space="preserve">
<g>
	<polygon fill="#E1F7FF" points="69.141,410.033 59.513,410.033 59.513,419.181 50.507,419.181 50.151,419.181 41.093,419.181 
		40.879,419.181 31.463,419.181 31.463,428.308 22.192,428.308 22.192,437.591 22.192,437.935 22.192,447.218 31.463,447.218 
		31.822,447.218 40.879,447.218 41.093,447.218 50.151,447.218 50.507,447.218 59.779,447.218 59.779,437.935 68.785,437.935 
		69.141,437.935 78.412,437.935 78.412,428.808 78.412,428.308 78.412,419.181 69.141,419.181 	"/>
	<path fill="#E1F7FF" d="M246.286,216.082h-9.111v-8.807v-0.343v-8.938h9.369v-9.312v-0.317v-8.83v-0.481v-8.802v-0.348v-8.937
		v-0.343v-8.969v-0.315v-9.313h-9.369v-8.803v-0.345v-8.938v-0.346v-9.283h-9.271v-8.834v-0.477v-9.15h-9.414v-8.938v-0.346v-9.281
		h-9.404v-9.314h-9.271v-9.148h-9.416v-8.938v-0.345v-9.284h-9.272v-8.832v-0.479v-8.805v-0.343v-9.284h-9.353V3.232h-9.627v9.283
		v0.344v8.94h-9.08h-0.213h-9.06h-0.354h-9.006h-0.269h-9.003h-0.358h-9.271v9.147h-9.058h-0.358h-8.996h-0.276h-9.017h-0.336
		h-9.291v9.312h-9.416v9.284v0.345v8.937h-9.006h-0.266h-9.361v9.148v0.482v8.832h-9.059v-9.314h-9.271h-0.358h-9.271v9.314V77.6
		v9.313h9.271v8.938v0.344v8.807v0.477v9.15h9.629v-9.15h9.059h0.355h9.006v8.834h-9.361v9.283v0.346v8.938H40.88v9.147h-9.058
		h-0.358h-9.271v9.313v0.315v8.969h-9.354v9.627h9.354h0.273h8.998v8.802v0.481v8.83v0.317v9.312h9.416v8.938v0.343v9.284h9.272
		v8.582H40.88v9.627h9.272v8.94v0.344v8.803H40.88v9.313v0.314v8.969h-9.416v9.281v0.348v8.802v0.479v8.833h-8.998h-0.273h-9.354
		v9.283v0.344v8.939H3.545v9.15v0.477v8.65v0.5v9.127h9.293h0.336h9.018v8.938h-9.354v9.627h9.354h0.273h9.356v-9.283h9.058v9.283
		h9.272h0.355h9.006v9.15h9.628v-9.15v-0.477v-8.807h9.271v-9.281v-0.346v-8.781h9.08v8.781v0.346v9.281h9.353h0.276h9.354v-9.281
		h9.058h0.213h9.058h0.358h9.272v-9.127h9.006h0.354h9.273v-9.15v-0.477v-8.809h9.08v9.283h9.353h0.274h8.996v9.15h9.629v-9.15
		h9.416v-9.283h9.271v-9.281h9.191h0.213h9.414v-9.313v-0.314v-8.834h9.271v-9.281v-0.348v-8.936h9.369v-9.314v-0.314v-8.832v-0.48
		v-8.803v-0.344v-8.94h9.37v-9.06v-0.567v-9.06h-9.37h-0.257V216.082z M59.513,142.027h-9.006v-8.803h9.006V142.027z"/>
	<rect x="283.653" y="95.851" fill="#E1F7FF" width="9.629" height="9.627"/>
</g>
<g id="Jeju">
	<polygon id="Jeju-back" opacity="0" fill="#FFFFFF" points="69.141,419.181 69.141,410.033 59.513,410.033 59.513,419.181 
		50.506,419.181 50.151,419.181 41.092,419.181 40.879,419.181 31.463,419.181 31.463,428.308 22.192,428.308 22.192,437.591 
		22.192,437.935 22.192,447.218 31.463,447.218 31.821,447.218 40.879,447.218 41.092,447.218 50.151,447.218 50.506,447.218 
		59.778,447.218 59.778,437.935 68.785,437.935 69.141,437.935 78.412,437.935 78.412,428.808 78.412,428.308 78.412,419.181 	"/>
	<rect x="61.013" y="411.533" fill="#4EC5ED" width="6.628" height="6.629"/>
	<rect x="32.963" y="420.681" fill="#4EC5ED" width="6.629" height="6.627"/>
	<rect x="42.379" y="420.681" fill="#4EC5ED" width="6.627" height="6.627"/>
	<rect x="51.651" y="420.681" fill="#4EC5ED" width="6.627" height="6.627"/>
	<rect x="61.013" y="420.681" fill="#4EC5ED" width="6.628" height="6.627"/>
	<rect x="70.285" y="420.681" fill="#4EC5ED" width="6.627" height="6.627"/>
	<rect x="23.692" y="429.808" fill="#4EC5ED" width="6.629" height="6.627"/>
	<rect x="32.963" y="429.808" fill="#4EC5ED" width="6.629" height="6.627"/>
	<rect x="42.379" y="429.808" fill="#4EC5ED" width="6.627" height="6.627"/>
	<rect x="51.651" y="429.808" fill="#4EC5ED" width="6.627" height="6.627"/>
	<rect x="61.013" y="429.808" fill="#4EC5ED" width="6.628" height="6.627"/>
	<rect x="70.285" y="429.808" fill="#4EC5ED" width="6.627" height="6.627"/>
	<rect x="23.692" y="439.091" fill="#4EC5ED" width="6.629" height="6.627"/>
	<rect x="32.963" y="439.091" fill="#4EC5ED" width="6.629" height="6.627"/>
	<rect x="42.379" y="439.091" fill="#4EC5ED" width="6.627" height="6.627"/>
	<rect x="51.651" y="439.091" fill="#4EC5ED" width="6.627" height="6.627"/>
</g>
<g id="Gwangju">
	<polygon id="Gwangju-back" opacity="0" fill="#FFFFFF" points="68.785,280.732 68.785,289.88 59.778,289.88 59.513,289.88 
		50.151,289.88 50.151,299.509 59.513,299.509 59.513,308.82 69.141,308.82 69.141,299.509 78.412,299.509 78.412,290.361 
		78.412,289.88 78.412,280.732 	"/>
	<rect x="70.285" y="282.232" fill="#0493BA" width="6.627" height="6.629"/>
	<rect x="51.651" y="291.381" fill="#0493BA" width="6.627" height="6.629"/>
	<rect x="61.013" y="291.381" fill="#0493BA" width="6.628" height="6.629"/>
	<rect x="70.285" y="291.381" fill="#0493BA" width="6.627" height="6.629"/>
	<rect x="61.013" y="300.693" fill="#0493BA" width="6.628" height="6.627"/>
</g>
<g id="Jeonnam">
	<polygon id="Jeonnam-back" opacity="0" fill="#FFFFFF" points="143.794,308.476 143.439,308.476 134.434,308.476 
		134.165,308.476 125.162,308.476 125.162,299.509 125.162,299.193 125.162,289.88 115.746,289.88 115.746,280.732 106.475,280.732 
		106.117,280.732 97.121,280.732 96.845,280.732 87.828,280.732 87.492,280.732 78.201,280.732 78.201,289.88 78.201,290.361 
		78.201,299.193 68.785,299.193 68.785,308.476 59.778,308.476 59.778,299.193 50.506,299.193 50.506,290.361 59.513,290.361 
		59.778,290.361 69.141,290.361 69.141,281.08 69.141,280.732 69.141,271.451 59.513,271.451 59.513,280.732 50.506,280.732 
		50.151,280.732 41.092,280.732 41.092,271.451 31.463,271.451 31.463,280.732 31.463,281.08 31.463,289.88 31.463,290.361 
		31.463,299.193 22.465,299.193 22.192,299.193 12.838,299.193 12.838,308.476 12.838,308.82 12.838,317.759 3.545,317.759 
		3.545,326.91 3.545,327.386 3.545,336.037 3.545,336.537 3.545,345.664 12.838,345.664 13.174,345.664 22.192,345.664 
		22.192,354.601 12.838,354.601 12.838,364.228 22.192,364.228 22.465,364.228 31.821,364.228 31.821,354.945 40.879,354.945 
		40.879,364.228 50.151,364.228 50.506,364.228 59.513,364.228 59.513,373.378 69.141,373.378 69.141,364.228 69.141,363.751 
		69.141,354.945 78.412,354.945 78.412,345.664 78.412,345.318 78.412,336.537 87.492,336.537 87.492,345.318 87.492,345.664 
		87.492,354.945 96.845,354.945 97.121,354.945 106.475,354.945 106.475,345.664 115.533,345.664 115.746,345.664 124.804,345.664 
		125.162,345.664 134.434,345.664 134.434,336.537 143.439,336.537 143.794,336.537 153.066,336.537 153.066,327.386 
		153.066,326.91 153.066,318.103 153.066,317.759 153.066,308.476 	"/>
	<rect x="32.963" y="272.951" fill="#ACEAF9" width="6.629" height="6.629"/>
	<rect x="61.013" y="272.951" fill="#ACEAF9" width="6.628" height="6.629"/>
	<rect x="32.963" y="282.232" fill="#ACEAF9" width="6.629" height="6.629"/>
	<rect x="42.379" y="282.232" fill="#ACEAF9" width="6.627" height="6.629"/>
	<rect x="51.651" y="282.232" fill="#ACEAF9" width="6.627" height="6.629"/>
	<rect x="61.013" y="282.232" fill="#ACEAF9" width="6.628" height="6.629"/>
	<rect x="79.701" y="282.232" fill="#ACEAF9" width="6.627" height="6.629"/>
	<rect x="88.992" y="282.232" fill="#ACEAF9" width="6.629" height="6.629"/>
	<rect x="98.345" y="282.232" fill="#ACEAF9" width="6.63" height="6.629"/>
	<rect x="107.617" y="282.232" fill="#ACEAF9" width="6.629" height="6.629"/>
	<rect x="32.963" y="291.381" fill="#ACEAF9" width="6.629" height="6.629"/>
	<rect x="42.379" y="291.381" fill="#ACEAF9" width="6.627" height="6.629"/>
	<rect x="79.701" y="291.381" fill="#ACEAF9" width="6.627" height="6.629"/>
	<rect x="88.992" y="291.381" fill="#ACEAF9" width="6.629" height="6.629"/>
	<rect x="98.345" y="291.381" fill="#ACEAF9" width="6.63" height="6.629"/>
	<rect x="107.617" y="291.381" fill="#ACEAF9" width="6.629" height="6.629"/>
	<rect x="117.033" y="291.381" fill="#ACEAF9" width="6.629" height="6.629"/>
	<rect x="14.338" y="300.693" fill="#ACEAF9" width="6.627" height="6.627"/>
	<rect x="23.692" y="300.693" fill="#ACEAF9" width="6.629" height="6.627"/>
	<rect x="32.963" y="300.693" fill="#ACEAF9" width="6.629" height="6.627"/>
	<rect x="42.379" y="300.693" fill="#ACEAF9" width="6.627" height="6.627"/>
	<rect x="51.651" y="300.693" fill="#ACEAF9" width="6.627" height="6.627"/>
	<rect x="70.285" y="300.693" fill="#ACEAF9" width="6.627" height="6.627"/>
	<rect x="79.701" y="300.693" fill="#ACEAF9" width="6.627" height="6.627"/>
	<rect x="88.992" y="300.693" fill="#ACEAF9" width="6.629" height="6.627"/>
	<rect x="98.345" y="300.693" fill="#ACEAF9" width="6.63" height="6.627"/>
	<rect x="107.617" y="300.693" fill="#ACEAF9" width="6.629" height="6.627"/>
	<rect x="117.033" y="300.693" fill="#ACEAF9" width="6.629" height="6.627"/>
	<rect x="14.338" y="309.976" fill="#ACEAF9" width="6.627" height="6.627"/>
	<rect x="23.692" y="309.976" fill="#ACEAF9" width="6.629" height="6.627"/>
	<rect x="32.963" y="309.976" fill="#ACEAF9" width="6.629" height="6.627"/>
	<rect x="42.379" y="309.976" fill="#ACEAF9" width="6.627" height="6.627"/>
	<rect x="51.651" y="309.976" fill="#ACEAF9" width="6.627" height="6.627"/>
	<rect x="61.013" y="309.976" fill="#ACEAF9" width="6.628" height="6.627"/>
	<rect x="70.285" y="309.976" fill="#ACEAF9" width="6.627" height="6.627"/>
	<rect x="79.701" y="309.976" fill="#ACEAF9" width="6.627" height="6.627"/>
	<rect x="88.992" y="309.976" fill="#ACEAF9" width="6.629" height="6.627"/>
	<rect x="98.345" y="309.976" fill="#ACEAF9" width="6.63" height="6.627"/>
	<rect x="107.617" y="309.976" fill="#ACEAF9" width="6.629" height="6.627"/>
	<rect x="117.033" y="309.976" fill="#ACEAF9" width="6.629" height="6.627"/>
	<rect x="126.304" y="309.976" fill="#ACEAF9" width="6.63" height="6.627"/>
	<rect x="135.665" y="309.976" fill="#ACEAF9" width="6.629" height="6.627"/>
	<rect x="144.939" y="309.976" fill="#ACEAF9" width="6.627" height="6.627"/>
	<rect x="5.045" y="319.259" fill="#ACEAF9" width="6.629" height="6.627"/>
	<rect x="14.338" y="319.259" fill="#ACEAF9" width="6.627" height="6.627"/>
	<rect x="23.692" y="319.259" fill="#ACEAF9" width="6.629" height="6.627"/>
	<rect x="32.963" y="319.259" fill="#ACEAF9" width="6.629" height="6.627"/>
	<rect x="42.379" y="319.259" fill="#ACEAF9" width="6.627" height="6.627"/>
	<rect x="51.651" y="319.259" fill="#ACEAF9" width="6.627" height="6.627"/>
	<rect x="61.013" y="319.259" fill="#ACEAF9" width="6.628" height="6.627"/>
	<rect x="70.285" y="319.259" fill="#ACEAF9" width="6.627" height="6.627"/>
	<rect x="79.701" y="319.259" fill="#ACEAF9" width="6.627" height="6.627"/>
	<rect x="88.992" y="319.259" fill="#ACEAF9" width="6.629" height="6.627"/>
	<rect x="98.345" y="319.259" fill="#ACEAF9" width="6.63" height="6.627"/>
	<rect x="107.617" y="319.259" fill="#ACEAF9" width="6.629" height="6.627"/>
	<rect x="117.033" y="319.259" fill="#ACEAF9" width="6.629" height="6.627"/>
	<rect x="126.304" y="319.259" fill="#ACEAF9" width="6.63" height="6.627"/>
	<rect x="135.665" y="319.259" fill="#ACEAF9" width="6.629" height="6.627"/>
	<rect x="144.939" y="319.259" fill="#ACEAF9" width="6.627" height="6.627"/>
	<rect x="5.045" y="328.41" fill="#ACEAF9" width="6.629" height="6.627"/>
	<rect x="14.338" y="328.41" fill="#ACEAF9" width="6.627" height="6.627"/>
	<rect x="23.692" y="328.41" fill="#ACEAF9" width="6.629" height="6.627"/>
	<rect x="32.963" y="328.41" fill="#ACEAF9" width="6.629" height="6.627"/>
	<rect x="42.379" y="328.41" fill="#ACEAF9" width="6.627" height="6.627"/>
	<rect x="51.651" y="328.41" fill="#ACEAF9" width="6.627" height="6.627"/>
	<rect x="61.013" y="328.41" fill="#ACEAF9" width="6.628" height="6.627"/>
	<rect x="70.285" y="328.41" fill="#ACEAF9" width="6.627" height="6.627"/>
	<rect x="79.701" y="328.41" fill="#ACEAF9" width="6.627" height="6.627"/>
	<rect x="88.992" y="328.41" fill="#ACEAF9" width="6.629" height="6.627"/>
	<rect x="98.345" y="328.41" fill="#ACEAF9" width="6.63" height="6.627"/>
	<rect x="107.617" y="328.41" fill="#ACEAF9" width="6.629" height="6.627"/>
	<rect x="117.033" y="328.41" fill="#ACEAF9" width="6.629" height="6.627"/>
	<rect x="126.304" y="328.41" fill="#ACEAF9" width="6.63" height="6.627"/>
	<rect x="135.665" y="328.41" fill="#ACEAF9" width="6.629" height="6.627"/>
	<rect x="144.939" y="328.41" fill="#ACEAF9" width="6.627" height="6.627"/>
	<rect x="5.045" y="337.537" fill="#ACEAF9" width="6.629" height="6.627"/>
	<rect x="14.338" y="337.537" fill="#ACEAF9" width="6.627" height="6.627"/>
	<rect x="23.692" y="337.537" fill="#ACEAF9" width="6.629" height="6.627"/>
	<rect x="32.963" y="337.537" fill="#ACEAF9" width="6.629" height="6.627"/>
	<rect x="42.379" y="337.537" fill="#ACEAF9" width="6.627" height="6.627"/>
	<rect x="51.651" y="337.537" fill="#ACEAF9" width="6.627" height="6.627"/>
	<rect x="61.013" y="337.537" fill="#ACEAF9" width="6.628" height="6.627"/>
	<rect x="70.285" y="337.537" fill="#ACEAF9" width="6.627" height="6.627"/>
	<rect x="88.992" y="337.537" fill="#ACEAF9" width="6.629" height="6.627"/>
	<rect x="98.345" y="337.537" fill="#ACEAF9" width="6.63" height="6.627"/>
	<rect x="107.617" y="337.537" fill="#ACEAF9" width="6.629" height="6.627"/>
	<rect x="117.033" y="337.537" fill="#ACEAF9" width="6.629" height="6.627"/>
	<rect x="126.304" y="337.537" fill="#ACEAF9" width="6.63" height="6.627"/>
	<rect x="23.692" y="346.818" fill="#ACEAF9" width="6.629" height="6.627"/>
	<rect x="32.963" y="346.818" fill="#ACEAF9" width="6.629" height="6.627"/>
	<rect x="42.379" y="346.818" fill="#ACEAF9" width="6.627" height="6.627"/>
	<rect x="51.651" y="346.818" fill="#ACEAF9" width="6.627" height="6.627"/>
	<rect x="61.013" y="346.818" fill="#ACEAF9" width="6.628" height="6.627"/>
	<rect x="70.285" y="346.818" fill="#ACEAF9" width="6.627" height="6.627"/>
	<rect x="88.992" y="346.818" fill="#ACEAF9" width="6.629" height="6.627"/>
	<rect x="98.345" y="346.818" fill="#ACEAF9" width="6.63" height="6.627"/>
	<rect x="14.338" y="356.101" fill="#ACEAF9" width="6.627" height="6.627"/>
	<rect x="23.692" y="356.101" fill="#ACEAF9" width="6.629" height="6.627"/>
	<rect x="42.379" y="356.101" fill="#ACEAF9" width="6.627" height="6.627"/>
	<rect x="51.651" y="356.101" fill="#ACEAF9" width="6.627" height="6.627"/>
	<rect x="61.013" y="356.101" fill="#ACEAF9" width="6.628" height="6.627"/>
	<rect x="61.013" y="365.251" fill="#ACEAF9" width="6.628" height="6.627"/>
</g>
<g id="Busan">
	<polygon id="Busan-back" opacity="0" fill="#FFFFFF" points="227.548,271.451 227.548,280.732 218.489,280.732 
		218.276,280.732 208.86,280.732 208.86,289.88 199.456,289.88 199.456,299.193 199.456,299.509 199.456,308.476 199.456,308.82 
		199.456,318.103 209.085,318.103 209.085,308.82 218.276,308.82 218.489,308.82 227.903,308.82 227.903,299.509 227.903,299.193 
		227.903,290.361 237.175,290.361 237.175,281.08 237.175,280.732 237.175,271.451 	"/>
	<rect x="200.956" y="309.976" fill="#4EC5ED" width="6.629" height="6.627"/>
	<rect x="210.36" y="282.232" fill="#4EC5ED" width="6.629" height="6.629"/>
	<rect x="219.776" y="282.232" fill="#4EC5ED" width="6.627" height="6.629"/>
	<rect x="229.048" y="282.232" fill="#4EC5ED" width="6.627" height="6.629"/>
	<rect x="200.956" y="291.381" fill="#4EC5ED" width="6.629" height="6.629"/>
	<rect x="210.36" y="291.381" fill="#4EC5ED" width="6.629" height="6.629"/>
	<rect x="219.776" y="291.381" fill="#4EC5ED" width="6.627" height="6.629"/>
	<rect x="200.956" y="300.693" fill="#4EC5ED" width="6.629" height="6.627"/>
	<rect x="210.36" y="300.693" fill="#4EC5ED" width="6.629" height="6.627"/>
	<rect x="219.776" y="300.693" fill="#4EC5ED" width="6.627" height="6.627"/>
	<rect x="229.048" y="272.951" fill="#4EC5ED" width="6.627" height="6.629"/>
</g>
<g id="Ulsan">
	<polygon id="Ulsan-back" opacity="0" fill="#FFFFFF" points="237.175,252.855 236.917,252.855 227.903,252.855 
		227.903,243.708 218.276,243.708 218.276,252.855 208.86,252.855 208.86,262.482 218.276,262.482 218.276,271.796 227.548,271.796 
		227.903,271.796 236.917,271.796 237.175,271.796 246.544,271.796 246.544,262.482 246.544,262.167 246.544,252.855 	"/>
	<rect x="229.048" y="254.355" fill="#ACEAF9" width="6.627" height="6.627"/>
	<rect x="219.776" y="245.208" fill="#ACEAF9" width="6.627" height="6.627"/>
	<rect x="210.36" y="254.355" fill="#ACEAF9" width="6.629" height="6.627"/>
	<rect x="219.776" y="254.355" fill="#ACEAF9" width="6.627" height="6.627"/>
	<rect x="219.776" y="263.667" fill="#ACEAF9" width="6.627" height="6.629"/>
	<rect x="229.048" y="263.667" fill="#ACEAF9" width="6.627" height="6.629"/>
	<rect x="238.417" y="254.355" fill="#ACEAF9" width="6.627" height="6.627"/>
	<rect x="238.417" y="263.667" fill="#ACEAF9" width="6.627" height="6.629"/>
</g>
<g id="Gyeongnam">
	<polygon id="Gyeongnam-back" opacity="0" fill="#FFFFFF" points="218.489,271.451 218.489,262.167 209.085,262.167 
		209.085,252.855 199.456,252.855 199.456,262.167 190.399,262.167 190.186,262.167 181.126,262.167 181.126,252.855 
		171.773,252.855 171.499,252.855 162.483,252.855 162.483,243.708 153.066,243.708 153.066,234.425 143.794,234.425 
		143.439,234.425 134.434,234.425 134.165,234.425 124.804,234.425 124.804,243.708 124.804,244.052 124.804,252.855 
		115.533,252.855 115.533,262.167 115.533,262.482 115.533,271.796 124.804,271.796 124.804,280.732 115.533,280.732 
		115.533,290.361 124.804,290.361 124.804,299.193 124.804,299.509 124.804,308.82 134.165,308.82 134.434,308.82 143.439,308.82 
		143.794,308.82 152.854,308.82 152.854,318.103 162.146,318.103 162.146,327.386 171.499,327.386 171.773,327.386 180.77,327.386 
		180.77,336.537 190.399,336.537 190.399,327.386 199.815,327.386 199.815,318.103 199.815,317.759 199.815,308.82 199.815,308.476 
		199.815,299.509 199.815,299.193 199.815,290.361 209.085,290.361 209.085,281.08 218.276,281.08 218.489,281.08 227.903,281.08 
		227.903,271.451 	"/>
	<rect x="126.304" y="235.925" fill="#0493BA" width="6.63" height="6.627"/>
	<rect x="135.665" y="235.925" fill="#0493BA" width="6.629" height="6.627"/>
	<rect x="144.939" y="235.925" fill="#0493BA" width="6.627" height="6.627"/>
	<rect x="126.304" y="245.208" fill="#0493BA" width="6.63" height="6.627"/>
	<rect x="135.665" y="245.208" fill="#0493BA" width="6.629" height="6.627"/>
	<rect x="144.939" y="245.208" fill="#0493BA" width="6.627" height="6.627"/>
	<rect x="154.354" y="245.208" fill="#0493BA" width="6.629" height="6.627"/>
	<rect x="117.033" y="254.355" fill="#0493BA" width="6.629" height="6.627"/>
	<rect x="126.304" y="254.355" fill="#0493BA" width="6.63" height="6.627"/>
	<rect x="135.665" y="254.355" fill="#0493BA" width="6.629" height="6.627"/>
	<rect x="144.939" y="254.355" fill="#0493BA" width="6.627" height="6.627"/>
	<rect x="154.354" y="254.355" fill="#0493BA" width="6.629" height="6.627"/>
	<rect x="163.646" y="254.355" fill="#0493BA" width="6.627" height="6.627"/>
	<rect x="172.999" y="254.355" fill="#0493BA" width="6.627" height="6.627"/>
	<rect x="200.956" y="254.355" fill="#0493BA" width="6.629" height="6.627"/>
	<rect x="117.033" y="263.667" fill="#0493BA" width="6.629" height="6.629"/>
	<rect x="126.304" y="263.667" fill="#0493BA" width="6.63" height="6.629"/>
	<rect x="135.665" y="263.667" fill="#0493BA" width="6.629" height="6.629"/>
	<rect x="144.939" y="263.667" fill="#0493BA" width="6.627" height="6.629"/>
	<rect x="154.354" y="263.667" fill="#0493BA" width="6.629" height="6.629"/>
	<rect x="163.646" y="263.667" fill="#0493BA" width="6.627" height="6.629"/>
	<rect x="172.999" y="263.667" fill="#0493BA" width="6.627" height="6.629"/>
	<rect x="182.27" y="263.667" fill="#0493BA" width="6.629" height="6.629"/>
	<rect x="191.686" y="263.667" fill="#0493BA" width="6.629" height="6.629"/>
	<rect x="200.956" y="263.667" fill="#0493BA" width="6.629" height="6.629"/>
	<rect x="210.36" y="263.667" fill="#0493BA" width="6.629" height="6.629"/>
	<rect x="126.304" y="272.951" fill="#0493BA" width="6.63" height="6.629"/>
	<rect x="135.665" y="272.951" fill="#0493BA" width="6.629" height="6.629"/>
	<rect x="144.939" y="272.951" fill="#0493BA" width="6.627" height="6.629"/>
	<rect x="154.354" y="272.951" fill="#0493BA" width="6.629" height="6.629"/>
	<rect x="163.646" y="272.951" fill="#0493BA" width="6.627" height="6.629"/>
	<rect x="172.999" y="272.951" fill="#0493BA" width="6.627" height="6.629"/>
	<rect x="182.27" y="272.951" fill="#0493BA" width="6.629" height="6.629"/>
	<rect x="191.686" y="272.951" fill="#0493BA" width="6.629" height="6.629"/>
	<rect x="200.956" y="272.951" fill="#0493BA" width="6.629" height="6.629"/>
	<rect x="210.36" y="272.951" fill="#0493BA" width="6.629" height="6.629"/>
	<rect x="219.776" y="272.951" fill="#0493BA" width="6.627" height="6.629"/>
	<rect x="117.033" y="282.232" fill="#0493BA" width="6.629" height="6.629"/>
	<rect x="126.304" y="282.232" fill="#0493BA" width="6.63" height="6.629"/>
	<rect x="135.665" y="282.232" fill="#0493BA" width="6.629" height="6.629"/>
	<rect x="144.939" y="282.232" fill="#0493BA" width="6.627" height="6.629"/>
	<rect x="154.354" y="282.232" fill="#0493BA" width="6.629" height="6.629"/>
	<rect x="163.646" y="282.232" fill="#0493BA" width="6.627" height="6.629"/>
	<rect x="172.999" y="282.232" fill="#0493BA" width="6.627" height="6.629"/>
	<rect x="182.27" y="282.232" fill="#0493BA" width="6.629" height="6.629"/>
	<rect x="191.686" y="282.232" fill="#0493BA" width="6.629" height="6.629"/>
	<rect x="200.956" y="282.232" fill="#0493BA" width="6.629" height="6.629"/>
	<rect x="126.304" y="291.381" fill="#0493BA" width="6.63" height="6.629"/>
	<rect x="135.665" y="291.381" fill="#0493BA" width="6.629" height="6.629"/>
	<rect x="144.939" y="291.381" fill="#0493BA" width="6.627" height="6.629"/>
	<rect x="154.354" y="291.381" fill="#0493BA" width="6.629" height="6.629"/>
	<rect x="163.646" y="291.381" fill="#0493BA" width="6.627" height="6.629"/>
	<rect x="172.999" y="291.381" fill="#0493BA" width="6.627" height="6.629"/>
	<rect x="182.27" y="291.381" fill="#0493BA" width="6.629" height="6.629"/>
	<rect x="191.686" y="291.381" fill="#0493BA" width="6.629" height="6.629"/>
	<rect x="126.304" y="300.693" fill="#0493BA" width="6.63" height="6.627"/>
	<rect x="135.665" y="300.693" fill="#0493BA" width="6.629" height="6.627"/>
	<rect x="144.939" y="300.693" fill="#0493BA" width="6.627" height="6.627"/>
	<rect x="154.354" y="300.693" fill="#0493BA" width="6.629" height="6.627"/>
	<rect x="163.646" y="300.693" fill="#0493BA" width="6.627" height="6.627"/>
	<rect x="172.999" y="300.693" fill="#0493BA" width="6.627" height="6.627"/>
	<rect x="182.27" y="300.693" fill="#0493BA" width="6.629" height="6.627"/>
	<rect x="191.686" y="300.693" fill="#0493BA" width="6.629" height="6.627"/>
	<rect x="154.354" y="309.976" fill="#0493BA" width="6.629" height="6.627"/>
	<rect x="163.646" y="309.976" fill="#0493BA" width="6.627" height="6.627"/>
	<rect x="172.999" y="309.976" fill="#0493BA" width="6.627" height="6.627"/>
	<rect x="182.27" y="309.976" fill="#0493BA" width="6.629" height="6.627"/>
	<rect x="191.686" y="309.976" fill="#0493BA" width="6.629" height="6.627"/>
	<rect x="163.646" y="319.259" fill="#0493BA" width="6.627" height="6.627"/>
	<rect x="172.999" y="319.259" fill="#0493BA" width="6.627" height="6.627"/>
	<rect x="182.27" y="319.259" fill="#0493BA" width="6.629" height="6.627"/>
	<rect x="191.686" y="319.259" fill="#0493BA" width="6.629" height="6.627"/>
	<rect x="182.27" y="328.41" fill="#0493BA" width="6.629" height="6.627"/>
</g>
<g id="Daegu">
	<polygon id="Daegu-back" opacity="0" fill="#FFFFFF" points="190.186,216.082 190.186,225.141 181.126,225.141 180.77,225.141 
		171.499,225.141 171.499,234.425 171.499,234.768 171.499,243.708 171.499,244.052 171.499,253.335 180.77,253.335 
		181.126,253.335 190.399,253.335 190.399,244.052 190.399,243.708 190.399,234.768 199.815,234.768 199.815,225.709 
		199.815,225.141 199.815,216.082 	"/>
	<rect x="182.27" y="226.641" fill="#ACEAF9" width="6.629" height="6.627"/>
	<rect x="191.686" y="226.641" fill="#ACEAF9" width="6.629" height="6.627"/>
	<rect x="182.27" y="235.925" fill="#ACEAF9" width="6.629" height="6.627"/>
	<rect x="172.999" y="245.208" fill="#ACEAF9" width="6.627" height="6.627"/>
	<rect x="191.686" y="217.582" fill="#ACEAF9" width="6.629" height="6.627"/>
	<rect x="172.999" y="226.641" fill="#ACEAF9" width="6.627" height="6.627"/>
	<rect x="172.999" y="235.925" fill="#ACEAF9" width="6.627" height="6.627"/>
	<rect x="182.27" y="245.208" fill="#ACEAF9" width="6.629" height="6.627"/>
</g>
<g id="Jeonbuk">
	<polygon id="Jeonbuk-back" opacity="0" fill="#FFFFFF" points="125.162,225.141 124.804,225.141 115.746,225.141 
		115.533,225.141 106.475,225.141 106.475,216.082 97.121,216.082 96.845,216.082 87.828,216.082 87.492,216.082 78.412,216.082 
		78.412,206.932 68.785,206.932 68.785,216.082 68.785,216.559 68.785,225.141 59.778,225.141 59.513,225.141 50.506,225.141 
		50.151,225.141 40.879,225.141 40.879,234.768 50.151,234.768 50.151,243.708 50.151,244.052 50.151,252.855 40.879,252.855 
		40.879,262.167 40.879,262.482 40.879,271.451 40.879,271.796 40.879,281.08 50.151,281.08 50.506,281.08 59.778,281.08 
		59.778,271.796 68.785,271.796 68.785,281.08 78.201,281.08 78.412,281.08 87.492,281.08 87.828,281.08 96.845,281.08 
		97.121,281.08 106.117,281.08 106.475,281.08 115.533,281.08 115.746,281.08 125.162,281.08 125.162,271.451 115.746,271.451 
		115.746,262.482 115.746,262.167 115.746,253.335 125.162,253.335 125.162,244.052 125.162,243.708 125.162,234.768 
		134.434,234.768 134.434,225.141 	"/>
	<rect x="70.285" y="208.432" fill="#4EC5ED" width="6.627" height="6.627"/>
	<rect x="70.285" y="217.582" fill="#4EC5ED" width="6.627" height="6.627"/>
	<rect x="79.701" y="217.582" fill="#4EC5ED" width="6.627" height="6.627"/>
	<rect x="88.992" y="217.582" fill="#4EC5ED" width="6.629" height="6.627"/>
	<rect x="98.345" y="217.582" fill="#4EC5ED" width="6.63" height="6.627"/>
	<rect x="42.379" y="226.641" fill="#4EC5ED" width="6.627" height="6.627"/>
	<rect x="51.651" y="226.641" fill="#4EC5ED" width="6.627" height="6.627"/>
	<rect x="61.013" y="226.641" fill="#4EC5ED" width="6.628" height="6.627"/>
	<rect x="70.285" y="226.641" fill="#4EC5ED" width="6.627" height="6.627"/>
	<rect x="79.701" y="226.641" fill="#4EC5ED" width="6.627" height="6.627"/>
	<rect x="88.992" y="226.641" fill="#4EC5ED" width="6.629" height="6.627"/>
	<rect x="98.345" y="226.641" fill="#4EC5ED" width="6.63" height="6.627"/>
	<rect x="107.617" y="226.641" fill="#4EC5ED" width="6.629" height="6.627"/>
	<rect x="117.033" y="226.641" fill="#4EC5ED" width="6.629" height="6.627"/>
	<rect x="126.304" y="226.641" fill="#4EC5ED" width="6.63" height="6.627"/>
	<rect x="51.651" y="235.925" fill="#4EC5ED" width="6.627" height="6.627"/>
	<rect x="61.013" y="235.925" fill="#4EC5ED" width="6.628" height="6.627"/>
	<rect x="70.285" y="235.925" fill="#4EC5ED" width="6.627" height="6.627"/>
	<rect x="79.701" y="235.925" fill="#4EC5ED" width="6.627" height="6.627"/>
	<rect x="88.992" y="235.925" fill="#4EC5ED" width="6.629" height="6.627"/>
	<rect x="98.345" y="235.925" fill="#4EC5ED" width="6.63" height="6.627"/>
	<rect x="107.617" y="235.925" fill="#4EC5ED" width="6.629" height="6.627"/>
	<rect x="117.033" y="235.925" fill="#4EC5ED" width="6.629" height="6.627"/>
	<rect x="51.651" y="245.208" fill="#4EC5ED" width="6.627" height="6.627"/>
	<rect x="61.013" y="245.208" fill="#4EC5ED" width="6.628" height="6.627"/>
	<rect x="70.285" y="245.208" fill="#4EC5ED" width="6.627" height="6.627"/>
	<rect x="79.701" y="245.208" fill="#4EC5ED" width="6.627" height="6.627"/>
	<rect x="88.992" y="245.208" fill="#4EC5ED" width="6.629" height="6.627"/>
	<rect x="98.345" y="245.208" fill="#4EC5ED" width="6.63" height="6.627"/>
	<rect x="107.617" y="245.208" fill="#4EC5ED" width="6.629" height="6.627"/>
	<rect x="117.033" y="245.208" fill="#4EC5ED" width="6.629" height="6.627"/>
	<rect x="42.379" y="254.355" fill="#4EC5ED" width="6.627" height="6.627"/>
	<rect x="51.651" y="254.355" fill="#4EC5ED" width="6.627" height="6.627"/>
	<rect x="61.013" y="254.355" fill="#4EC5ED" width="6.628" height="6.627"/>
	<rect x="70.285" y="254.355" fill="#4EC5ED" width="6.627" height="6.627"/>
	<rect x="79.701" y="254.355" fill="#4EC5ED" width="6.627" height="6.627"/>
	<rect x="88.992" y="254.355" fill="#4EC5ED" width="6.629" height="6.627"/>
	<rect x="98.345" y="254.355" fill="#4EC5ED" width="6.63" height="6.627"/>
	<rect x="107.617" y="254.355" fill="#4EC5ED" width="6.629" height="6.627"/>
	<rect x="42.379" y="263.667" fill="#4EC5ED" width="6.627" height="6.629"/>
	<rect x="51.651" y="263.667" fill="#4EC5ED" width="6.627" height="6.629"/>
	<rect x="61.013" y="263.667" fill="#4EC5ED" width="6.628" height="6.629"/>
	<rect x="70.285" y="263.667" fill="#4EC5ED" width="6.627" height="6.629"/>
	<rect x="79.701" y="263.667" fill="#4EC5ED" width="6.627" height="6.629"/>
	<rect x="88.992" y="263.667" fill="#4EC5ED" width="6.629" height="6.629"/>
	<rect x="98.345" y="263.667" fill="#4EC5ED" width="6.63" height="6.629"/>
	<rect x="107.617" y="263.667" fill="#4EC5ED" width="6.629" height="6.629"/>
	<rect x="42.379" y="272.951" fill="#4EC5ED" width="6.627" height="6.629"/>
	<rect x="51.651" y="272.951" fill="#4EC5ED" width="6.627" height="6.629"/>
	<rect x="70.285" y="272.951" fill="#4EC5ED" width="6.627" height="6.629"/>
	<rect x="79.701" y="272.951" fill="#4EC5ED" width="6.627" height="6.629"/>
	<rect x="88.992" y="272.951" fill="#4EC5ED" width="6.629" height="6.629"/>
	<rect x="98.345" y="272.951" fill="#4EC5ED" width="6.63" height="6.629"/>
	<rect x="107.617" y="272.951" fill="#4EC5ED" width="6.629" height="6.629"/>
	<rect x="117.033" y="272.951" fill="#4EC5ED" width="6.629" height="6.629"/>
</g>
<g id="Gyeongbuk">
	<polygon id="Gyeongbuk-back2" opacity="0" fill="#FFFFFF" points="246.286,216.082 237.175,216.082 237.175,207.275 
		237.175,206.932 237.175,197.994 246.544,197.994 246.544,188.682 246.544,188.365 246.544,179.535 246.544,179.053 
		246.544,170.252 246.544,169.904 246.544,160.967 246.544,160.625 246.544,151.656 246.544,151.34 246.544,142.027 
		237.175,142.027 237.175,133.224 237.175,132.879 237.175,123.595 227.548,123.595 227.548,132.879 218.489,132.879 
		218.276,132.879 209.085,132.879 208.86,132.879 199.815,132.879 199.456,132.879 190.399,132.879 190.186,132.879 180.77,132.879 
		180.77,142.027 171.499,142.027 171.499,151.34 162.483,151.34 162.146,151.34 152.854,151.34 152.854,160.625 143.439,160.625 
		143.439,169.904 134.165,169.904 134.165,179.053 134.165,179.535 134.165,188.365 134.165,188.682 134.165,197.994 
		143.439,197.994 143.439,206.932 143.439,207.275 143.439,216.082 134.165,216.082 134.165,225.141 134.165,225.709 
		134.165,234.768 143.439,234.768 143.794,234.768 152.854,234.768 152.854,244.052 162.146,244.052 162.146,253.335 
		171.773,253.335 171.773,244.052 171.773,243.708 171.773,234.768 171.773,234.425 171.773,225.709 180.77,225.709 
		181.126,225.709 190.399,225.709 190.399,216.559 199.456,216.559 199.456,225.141 199.456,225.709 199.456,234.425 
		190.186,234.425 190.186,243.708 190.186,244.052 190.186,252.855 180.77,252.855 180.77,262.482 190.186,262.482 190.399,262.482 
		199.815,262.482 199.815,253.335 208.86,253.335 209.085,253.335 218.489,253.335 218.489,244.052 227.548,244.052 
		227.548,253.335 236.917,253.335 237.175,253.335 246.544,253.335 246.544,244.052 246.544,243.708 246.544,234.768 
		255.914,234.768 255.914,225.709 255.914,225.141 255.914,216.082 246.544,216.082 	"/>
	<rect id="Gyeongbuk-back1" x="283.653" y="95.851" opacity="0" fill="#FFFFFF" width="9.629" height="9.627"/>
	<rect x="229.048" y="125.095" fill="#4EC5ED" width="6.627" height="6.629"/>
	<rect x="182.27" y="134.379" fill="#4EC5ED" width="6.629" height="6.629"/>
	<rect x="191.686" y="134.379" fill="#4EC5ED" width="6.629" height="6.629"/>
	<rect x="200.956" y="134.379" fill="#4EC5ED" width="6.629" height="6.629"/>
	<rect x="210.36" y="134.379" fill="#4EC5ED" width="6.629" height="6.629"/>
	<rect x="219.776" y="134.379" fill="#4EC5ED" width="6.627" height="6.629"/>
	<rect x="229.048" y="134.379" fill="#4EC5ED" width="6.627" height="6.629"/>
	<rect x="172.999" y="143.527" fill="#4EC5ED" width="6.627" height="6.629"/>
	<rect x="182.27" y="143.527" fill="#4EC5ED" width="6.629" height="6.629"/>
	<rect x="191.686" y="143.527" fill="#4EC5ED" width="6.629" height="6.629"/>
	<rect x="200.956" y="143.527" fill="#4EC5ED" width="6.629" height="6.629"/>
	<rect x="210.36" y="143.527" fill="#4EC5ED" width="6.629" height="6.629"/>
	<rect x="219.776" y="143.527" fill="#4EC5ED" width="6.627" height="6.629"/>
	<rect x="229.048" y="143.527" fill="#4EC5ED" width="6.627" height="6.629"/>
	<rect x="154.354" y="152.84" fill="#4EC5ED" width="6.629" height="6.627"/>
	<rect x="163.646" y="152.84" fill="#4EC5ED" width="6.627" height="6.627"/>
	<rect x="172.999" y="152.84" fill="#4EC5ED" width="6.627" height="6.627"/>
	<rect x="182.27" y="152.84" fill="#4EC5ED" width="6.629" height="6.627"/>
	<rect x="191.686" y="152.84" fill="#4EC5ED" width="6.629" height="6.627"/>
	<rect x="200.956" y="152.84" fill="#4EC5ED" width="6.629" height="6.627"/>
	<rect x="210.36" y="152.84" fill="#4EC5ED" width="6.629" height="6.627"/>
	<rect x="219.776" y="152.84" fill="#4EC5ED" width="6.627" height="6.627"/>
	<rect x="229.048" y="152.84" fill="#4EC5ED" width="6.627" height="6.627"/>
	<rect x="144.939" y="162.125" fill="#4EC5ED" width="6.627" height="6.627"/>
	<rect x="154.354" y="162.125" fill="#4EC5ED" width="6.629" height="6.627"/>
	<rect x="163.646" y="162.125" fill="#4EC5ED" width="6.627" height="6.627"/>
	<rect x="172.999" y="162.125" fill="#4EC5ED" width="6.627" height="6.627"/>
	<rect x="182.27" y="162.125" fill="#4EC5ED" width="6.629" height="6.627"/>
	<rect x="191.686" y="162.125" fill="#4EC5ED" width="6.629" height="6.627"/>
	<rect x="200.956" y="162.125" fill="#4EC5ED" width="6.629" height="6.627"/>
	<rect x="210.36" y="162.125" fill="#4EC5ED" width="6.629" height="6.627"/>
	<rect x="219.776" y="162.125" fill="#4EC5ED" width="6.627" height="6.627"/>
	<rect x="229.048" y="162.125" fill="#4EC5ED" width="6.627" height="6.627"/>
	<rect x="135.665" y="171.404" fill="#4EC5ED" width="6.629" height="6.631"/>
	<rect x="144.939" y="171.404" fill="#4EC5ED" width="6.627" height="6.631"/>
	<rect x="154.354" y="171.404" fill="#4EC5ED" width="6.629" height="6.631"/>
	<rect x="163.646" y="171.404" fill="#4EC5ED" width="6.627" height="6.631"/>
	<rect x="172.999" y="171.404" fill="#4EC5ED" width="6.627" height="6.631"/>
	<rect x="182.27" y="171.404" fill="#4EC5ED" width="6.629" height="6.631"/>
	<rect x="191.686" y="171.404" fill="#4EC5ED" width="6.629" height="6.631"/>
	<rect x="200.956" y="171.404" fill="#4EC5ED" width="6.629" height="6.631"/>
	<rect x="210.36" y="171.404" fill="#4EC5ED" width="6.629" height="6.631"/>
	<rect x="219.776" y="171.404" fill="#4EC5ED" width="6.627" height="6.631"/>
	<rect x="229.048" y="171.404" fill="#4EC5ED" width="6.627" height="6.631"/>
	<rect x="135.665" y="180.553" fill="#4EC5ED" width="6.629" height="6.629"/>
	<rect x="144.939" y="180.553" fill="#4EC5ED" width="6.627" height="6.629"/>
	<rect x="154.354" y="180.553" fill="#4EC5ED" width="6.629" height="6.629"/>
	<rect x="163.646" y="180.553" fill="#4EC5ED" width="6.627" height="6.629"/>
	<rect x="172.999" y="180.553" fill="#4EC5ED" width="6.627" height="6.629"/>
	<rect x="182.27" y="180.553" fill="#4EC5ED" width="6.629" height="6.629"/>
	<rect x="191.686" y="180.553" fill="#4EC5ED" width="6.629" height="6.629"/>
	<rect x="200.956" y="180.553" fill="#4EC5ED" width="6.629" height="6.629"/>
	<rect x="210.36" y="180.553" fill="#4EC5ED" width="6.629" height="6.629"/>
	<rect x="219.776" y="180.553" fill="#4EC5ED" width="6.627" height="6.629"/>
	<rect x="229.048" y="180.553" fill="#4EC5ED" width="6.627" height="6.629"/>
	<rect x="135.665" y="189.865" fill="#4EC5ED" width="6.629" height="6.629"/>
	<rect x="144.939" y="189.865" fill="#4EC5ED" width="6.627" height="6.629"/>
	<rect x="154.354" y="189.865" fill="#4EC5ED" width="6.629" height="6.629"/>
	<rect x="163.646" y="189.865" fill="#4EC5ED" width="6.627" height="6.629"/>
	<rect x="172.999" y="189.865" fill="#4EC5ED" width="6.627" height="6.629"/>
	<rect x="182.27" y="189.865" fill="#4EC5ED" width="6.629" height="6.629"/>
	<rect x="191.686" y="189.865" fill="#4EC5ED" width="6.629" height="6.629"/>
	<rect x="200.956" y="189.865" fill="#4EC5ED" width="6.629" height="6.629"/>
	<rect x="210.36" y="189.865" fill="#4EC5ED" width="6.629" height="6.629"/>
	<rect x="219.776" y="189.865" fill="#4EC5ED" width="6.627" height="6.629"/>
	<rect x="229.048" y="189.865" fill="#4EC5ED" width="6.627" height="6.629"/>
	<rect x="144.939" y="199.148" fill="#4EC5ED" width="6.627" height="6.627"/>
	<rect x="154.354" y="199.148" fill="#4EC5ED" width="6.629" height="6.627"/>
	<rect x="163.646" y="199.148" fill="#4EC5ED" width="6.627" height="6.627"/>
	<rect x="172.999" y="199.148" fill="#4EC5ED" width="6.627" height="6.627"/>
	<rect x="182.27" y="199.148" fill="#4EC5ED" width="6.629" height="6.627"/>
	<rect x="191.686" y="199.148" fill="#4EC5ED" width="6.629" height="6.627"/>
	<rect x="200.956" y="199.148" fill="#4EC5ED" width="6.629" height="6.627"/>
	<rect x="210.36" y="199.148" fill="#4EC5ED" width="6.629" height="6.627"/>
	<rect x="219.776" y="199.148" fill="#4EC5ED" width="6.627" height="6.627"/>
	<rect x="229.048" y="199.148" fill="#4EC5ED" width="6.627" height="6.627"/>
	<rect x="144.939" y="208.432" fill="#4EC5ED" width="6.627" height="6.627"/>
	<rect x="154.354" y="208.432" fill="#4EC5ED" width="6.629" height="6.627"/>
	<rect x="163.646" y="208.432" fill="#4EC5ED" width="6.627" height="6.627"/>
	<rect x="172.999" y="208.432" fill="#4EC5ED" width="6.627" height="6.627"/>
	<rect x="182.27" y="208.432" fill="#4EC5ED" width="6.629" height="6.627"/>
	<rect x="191.686" y="208.432" fill="#4EC5ED" width="6.629" height="6.627"/>
	<rect x="200.956" y="208.432" fill="#4EC5ED" width="6.629" height="6.627"/>
	<rect x="210.36" y="208.432" fill="#4EC5ED" width="6.629" height="6.627"/>
	<rect x="219.776" y="208.432" fill="#4EC5ED" width="6.627" height="6.627"/>
	<rect x="229.048" y="208.432" fill="#4EC5ED" width="6.627" height="6.627"/>
	<rect x="135.665" y="217.582" fill="#4EC5ED" width="6.629" height="6.627"/>
	<rect x="144.939" y="217.582" fill="#4EC5ED" width="6.627" height="6.627"/>
	<rect x="154.354" y="217.582" fill="#4EC5ED" width="6.629" height="6.627"/>
	<rect x="163.646" y="217.582" fill="#4EC5ED" width="6.627" height="6.627"/>
	<rect x="172.999" y="217.582" fill="#4EC5ED" width="6.627" height="6.627"/>
	<rect x="182.27" y="217.582" fill="#4EC5ED" width="6.629" height="6.627"/>
	<rect x="200.956" y="217.582" fill="#4EC5ED" width="6.629" height="6.627"/>
	<rect x="210.36" y="217.582" fill="#4EC5ED" width="6.629" height="6.627"/>
	<rect x="219.776" y="217.582" fill="#4EC5ED" width="6.627" height="6.627"/>
	<rect x="229.048" y="217.582" fill="#4EC5ED" width="6.627" height="6.627"/>
	<rect x="135.665" y="226.641" fill="#4EC5ED" width="6.629" height="6.627"/>
	<rect x="144.939" y="226.641" fill="#4EC5ED" width="6.627" height="6.627"/>
	<rect x="154.354" y="226.641" fill="#4EC5ED" width="6.629" height="6.627"/>
	<rect x="163.646" y="226.641" fill="#4EC5ED" width="6.627" height="6.627"/>
	<rect x="200.956" y="226.641" fill="#4EC5ED" width="6.629" height="6.627"/>
	<rect x="210.36" y="226.641" fill="#4EC5ED" width="6.629" height="6.627"/>
	<rect x="219.776" y="226.641" fill="#4EC5ED" width="6.627" height="6.627"/>
	<rect x="229.048" y="226.641" fill="#4EC5ED" width="6.627" height="6.627"/>
	<rect x="154.354" y="235.925" fill="#4EC5ED" width="6.629" height="6.627"/>
	<rect x="163.646" y="235.925" fill="#4EC5ED" width="6.627" height="6.627"/>
	<rect x="191.686" y="235.925" fill="#4EC5ED" width="6.629" height="6.627"/>
	<rect x="200.956" y="235.925" fill="#4EC5ED" width="6.629" height="6.627"/>
	<rect x="210.36" y="235.925" fill="#4EC5ED" width="6.629" height="6.627"/>
	<rect x="219.776" y="235.925" fill="#4EC5ED" width="6.627" height="6.627"/>
	<rect x="229.048" y="235.925" fill="#4EC5ED" width="6.627" height="6.627"/>
	<rect x="163.646" y="245.208" fill="#4EC5ED" width="6.627" height="6.627"/>
	<rect x="191.686" y="245.208" fill="#4EC5ED" width="6.629" height="6.627"/>
	<rect x="200.956" y="245.208" fill="#4EC5ED" width="6.629" height="6.627"/>
	<rect x="210.36" y="245.208" fill="#4EC5ED" width="6.629" height="6.627"/>
	<rect x="229.048" y="245.208" fill="#4EC5ED" width="6.627" height="6.627"/>
	<rect x="182.27" y="254.355" fill="#4EC5ED" width="6.629" height="6.627"/>
	<rect x="191.686" y="254.355" fill="#4EC5ED" width="6.629" height="6.627"/>
	<rect x="238.417" y="143.527" fill="#4EC5ED" width="6.627" height="6.629"/>
	<rect x="238.417" y="152.84" fill="#4EC5ED" width="6.627" height="6.627"/>
	<rect x="238.417" y="162.125" fill="#4EC5ED" width="6.627" height="6.627"/>
	<rect x="238.417" y="171.404" fill="#4EC5ED" width="6.627" height="6.631"/>
	<rect x="238.417" y="180.553" fill="#4EC5ED" width="6.627" height="6.629"/>
	<rect x="238.417" y="189.865" fill="#4EC5ED" width="6.627" height="6.629"/>
	<rect x="238.417" y="217.582" fill="#4EC5ED" width="6.627" height="6.627"/>
	<rect x="238.417" y="226.641" fill="#4EC5ED" width="6.627" height="6.627"/>
	<rect x="238.417" y="235.925" fill="#4EC5ED" width="6.627" height="6.627"/>
	<rect x="238.417" y="245.208" fill="#4EC5ED" width="6.627" height="6.627"/>
	<rect x="247.786" y="217.582" fill="#4EC5ED" width="6.628" height="6.627"/>
	<rect x="247.786" y="226.641" fill="#4EC5ED" width="6.628" height="6.627"/>
	<rect x="285.153" y="97.351" fill="#4EC5ED" width="6.629" height="6.627"/>
</g>
<g id="Chungbuk">
	<polygon id="Chungbuk-back" opacity="0" fill="#FFFFFF" points="171.773,132.879 171.773,123.595 162.483,123.595 
		162.483,114.312 153.066,114.312 152.854,114.312 143.439,114.312 143.439,123.595 134.434,123.595 134.165,123.595 
		124.804,123.595 124.804,132.879 115.746,132.879 115.533,132.879 106.117,132.879 106.117,142.027 96.845,142.027 96.845,151.656 
		106.117,151.656 106.117,160.625 96.845,160.625 96.845,170.252 106.117,170.252 106.117,179.535 115.533,179.535 115.533,188.365 
		115.533,188.682 115.533,197.648 115.533,197.994 115.533,206.932 115.533,207.275 115.533,216.559 124.804,216.559 
		124.804,225.709 134.434,225.709 134.434,216.559 143.794,216.559 143.794,207.275 143.794,206.932 143.794,197.648 
		134.434,197.648 134.434,188.682 134.434,188.365 134.434,179.535 134.434,179.053 134.434,170.252 143.794,170.252 
		143.794,160.967 153.066,160.967 153.066,151.656 162.146,151.656 162.483,151.656 171.773,151.656 171.773,142.508 
		181.126,142.508 181.126,132.879 	"/>
	<rect x="126.304" y="125.095" fill="#0493BA" width="6.63" height="6.629"/>
	<rect x="135.665" y="125.095" fill="#0493BA" width="6.629" height="6.629"/>
	<rect x="144.939" y="125.095" fill="#0493BA" width="6.627" height="6.629"/>
	<rect x="154.354" y="125.095" fill="#0493BA" width="6.629" height="6.629"/>
	<rect x="163.646" y="125.095" fill="#0493BA" width="6.627" height="6.629"/>
	<rect x="144.939" y="115.812" fill="#0493BA" width="6.627" height="6.629"/>
	<rect x="154.354" y="115.812" fill="#0493BA" width="6.629" height="6.629"/>
	<rect x="107.617" y="134.379" fill="#0493BA" width="6.629" height="6.629"/>
	<rect x="117.033" y="134.379" fill="#0493BA" width="6.629" height="6.629"/>
	<rect x="126.304" y="134.379" fill="#0493BA" width="6.63" height="6.629"/>
	<rect x="135.665" y="134.379" fill="#0493BA" width="6.629" height="6.629"/>
	<rect x="144.939" y="134.379" fill="#0493BA" width="6.627" height="6.629"/>
	<rect x="154.354" y="134.379" fill="#0493BA" width="6.629" height="6.629"/>
	<rect x="163.646" y="134.379" fill="#0493BA" width="6.627" height="6.629"/>
	<rect x="98.345" y="143.527" fill="#0493BA" width="6.63" height="6.629"/>
	<rect x="107.617" y="143.527" fill="#0493BA" width="6.629" height="6.629"/>
	<rect x="117.033" y="143.527" fill="#0493BA" width="6.629" height="6.629"/>
	<rect x="126.304" y="143.527" fill="#0493BA" width="6.63" height="6.629"/>
	<rect x="135.665" y="143.527" fill="#0493BA" width="6.629" height="6.629"/>
	<rect x="144.939" y="143.527" fill="#0493BA" width="6.627" height="6.629"/>
	<rect x="154.354" y="143.527" fill="#0493BA" width="6.629" height="6.629"/>
	<rect x="163.646" y="143.527" fill="#0493BA" width="6.627" height="6.629"/>
	<rect x="107.617" y="152.84" fill="#0493BA" width="6.629" height="6.627"/>
	<rect x="117.033" y="152.84" fill="#0493BA" width="6.629" height="6.627"/>
	<rect x="126.304" y="152.84" fill="#0493BA" width="6.63" height="6.627"/>
	<rect x="135.665" y="152.84" fill="#0493BA" width="6.629" height="6.627"/>
	<rect x="144.939" y="152.84" fill="#0493BA" width="6.627" height="6.627"/>
	<rect x="98.345" y="162.125" fill="#0493BA" width="6.63" height="6.627"/>
	<rect x="107.617" y="162.125" fill="#0493BA" width="6.629" height="6.627"/>
	<rect x="117.033" y="162.125" fill="#0493BA" width="6.629" height="6.627"/>
	<rect x="126.304" y="162.125" fill="#0493BA" width="6.63" height="6.627"/>
	<rect x="135.665" y="162.125" fill="#0493BA" width="6.629" height="6.627"/>
	<rect x="107.617" y="171.404" fill="#0493BA" width="6.629" height="6.631"/>
	<rect x="117.033" y="171.404" fill="#0493BA" width="6.629" height="6.631"/>
	<rect x="126.304" y="171.404" fill="#0493BA" width="6.63" height="6.631"/>
	<rect x="117.033" y="180.553" fill="#0493BA" width="6.629" height="6.629"/>
	<rect x="126.304" y="180.553" fill="#0493BA" width="6.63" height="6.629"/>
	<rect x="117.033" y="189.865" fill="#0493BA" width="6.629" height="6.629"/>
	<rect x="126.304" y="189.865" fill="#0493BA" width="6.63" height="6.629"/>
	<rect x="117.033" y="199.148" fill="#0493BA" width="6.629" height="6.627"/>
	<rect x="126.304" y="199.148" fill="#0493BA" width="6.63" height="6.627"/>
	<rect x="135.665" y="199.148" fill="#0493BA" width="6.629" height="6.627"/>
	<rect x="117.033" y="208.432" fill="#0493BA" width="6.629" height="6.627"/>
	<rect x="126.304" y="208.432" fill="#0493BA" width="6.63" height="6.627"/>
	<rect x="135.665" y="208.432" fill="#0493BA" width="6.629" height="6.627"/>
	<rect x="126.304" y="217.582" fill="#0493BA" width="6.63" height="6.627"/>
	<rect x="172.999" y="134.379" fill="#0493BA" width="6.627" height="6.629"/>
</g>
<g id="Daejeon">
	<polygon id="Daejeon-back" opacity="0" fill="#FFFFFF" points="106.117,179.053 106.117,188.365 96.845,188.365 
		96.845,197.648 96.845,197.994 96.845,207.275 106.117,207.275 106.475,207.275 115.746,207.275 115.746,197.994 115.746,197.648 
		115.746,188.682 115.746,188.365 115.746,179.053 	"/>
	<rect x="98.345" y="189.865" fill="#4EC5ED" width="6.63" height="6.629"/>
	<rect x="107.617" y="189.865" fill="#4EC5ED" width="6.629" height="6.629"/>
	<rect x="98.345" y="199.148" fill="#4EC5ED" width="6.63" height="6.627"/>
	<rect x="107.617" y="199.148" fill="#4EC5ED" width="6.629" height="6.627"/>
	<rect x="107.617" y="180.553" fill="#4EC5ED" width="6.629" height="6.629"/>
</g>
<g id="Sejong">
	<polygon id="Sejong-back" opacity="0" fill="#FFFFFF" points="97.121,169.904 97.121,160.625 87.492,160.625 87.492,169.904 
		87.492,170.252 87.492,179.535 96.845,179.535 96.845,188.682 106.475,188.682 106.475,179.535 106.475,179.053 106.475,169.904 	
		"/>
	<rect x="88.992" y="162.125" fill="#4EC5ED" width="6.629" height="6.627"/>
	<rect x="88.992" y="171.404" fill="#4EC5ED" width="6.629" height="6.631"/>
	<rect x="98.345" y="180.553" fill="#4EC5ED" width="6.63" height="6.629"/>
	<rect x="98.345" y="171.404" fill="#4EC5ED" width="6.63" height="6.631"/>
</g>
<g id="Chungnam">
	<polygon id="Chungnam-back" opacity="0" fill="#FFFFFF" points="115.746,216.082 115.746,206.932 106.475,206.932 
		106.117,206.932 97.121,206.932 97.121,197.994 97.121,197.648 97.121,188.682 97.121,188.365 97.121,179.053 87.828,179.053 
		87.828,170.252 87.828,169.904 87.828,160.967 96.845,160.967 97.121,160.967 106.475,160.967 106.475,151.34 97.121,151.34 
		97.121,142.027 87.828,142.027 87.492,142.027 78.201,142.027 78.201,151.34 69.141,151.34 69.141,142.027 59.778,142.027 
		59.513,142.027 50.506,142.027 50.506,132.879 40.879,132.879 40.879,142.027 31.821,142.027 31.463,142.027 22.192,142.027 
		22.192,151.34 22.192,151.656 22.192,160.625 12.838,160.625 12.838,170.252 22.192,170.252 22.465,170.252 31.463,170.252 
		31.463,179.053 31.463,179.535 31.463,188.365 31.463,188.682 31.463,197.994 40.879,197.994 40.879,206.932 40.879,207.275 
		40.879,216.559 50.151,216.559 50.151,225.709 59.513,225.709 59.778,225.709 69.141,225.709 69.141,216.559 69.141,216.082 
		69.141,207.275 78.201,207.275 78.201,216.559 87.492,216.559 87.828,216.559 96.845,216.559 97.121,216.559 106.117,216.559 
		106.117,225.709 115.533,225.709 115.746,225.709 125.162,225.709 125.162,216.082 	"/>
	<rect x="42.379" y="134.379" fill="#ACEAF9" width="6.627" height="6.629"/>
	<rect x="23.692" y="143.527" fill="#ACEAF9" width="6.629" height="6.629"/>
	<rect x="32.963" y="143.527" fill="#ACEAF9" width="6.629" height="6.629"/>
	<rect x="42.379" y="143.527" fill="#ACEAF9" width="6.627" height="6.629"/>
	<rect x="51.651" y="143.527" fill="#ACEAF9" width="6.627" height="6.629"/>
	<rect x="61.013" y="143.527" fill="#ACEAF9" width="6.628" height="6.629"/>
	<rect x="79.701" y="143.527" fill="#ACEAF9" width="6.627" height="6.629"/>
	<rect x="88.992" y="143.527" fill="#ACEAF9" width="6.629" height="6.629"/>
	<rect x="23.692" y="152.84" fill="#ACEAF9" width="6.629" height="6.627"/>
	<rect x="32.963" y="152.84" fill="#ACEAF9" width="6.629" height="6.627"/>
	<rect x="42.379" y="152.84" fill="#ACEAF9" width="6.627" height="6.627"/>
	<rect x="51.651" y="152.84" fill="#ACEAF9" width="6.627" height="6.627"/>
	<rect x="61.013" y="152.84" fill="#ACEAF9" width="6.628" height="6.627"/>
	<rect x="70.285" y="152.84" fill="#ACEAF9" width="6.627" height="6.627"/>
	<rect x="79.701" y="152.84" fill="#ACEAF9" width="6.627" height="6.627"/>
	<rect x="88.992" y="152.84" fill="#ACEAF9" width="6.629" height="6.627"/>
	<rect x="98.345" y="152.84" fill="#ACEAF9" width="6.63" height="6.627"/>
	<rect x="14.338" y="162.125" fill="#ACEAF9" width="6.627" height="6.627"/>
	<rect x="23.692" y="162.125" fill="#ACEAF9" width="6.629" height="6.627"/>
	<rect x="32.963" y="162.125" fill="#ACEAF9" width="6.629" height="6.627"/>
	<rect x="42.379" y="162.125" fill="#ACEAF9" width="6.627" height="6.627"/>
	<rect x="51.651" y="162.125" fill="#ACEAF9" width="6.627" height="6.627"/>
	<rect x="61.013" y="162.125" fill="#ACEAF9" width="6.628" height="6.627"/>
	<rect x="70.285" y="162.125" fill="#ACEAF9" width="6.627" height="6.627"/>
	<rect x="79.701" y="162.125" fill="#ACEAF9" width="6.627" height="6.627"/>
	<rect x="32.963" y="171.404" fill="#ACEAF9" width="6.629" height="6.631"/>
	<rect x="42.379" y="171.404" fill="#ACEAF9" width="6.627" height="6.631"/>
	<rect x="51.651" y="171.404" fill="#ACEAF9" width="6.627" height="6.631"/>
	<rect x="61.013" y="171.404" fill="#ACEAF9" width="6.628" height="6.631"/>
	<rect x="70.285" y="171.404" fill="#ACEAF9" width="6.627" height="6.631"/>
	<rect x="79.701" y="171.404" fill="#ACEAF9" width="6.627" height="6.631"/>
	<rect x="32.963" y="180.553" fill="#ACEAF9" width="6.629" height="6.629"/>
	<rect x="42.379" y="180.553" fill="#ACEAF9" width="6.627" height="6.629"/>
	<rect x="51.651" y="180.553" fill="#ACEAF9" width="6.627" height="6.629"/>
	<rect x="61.013" y="180.553" fill="#ACEAF9" width="6.628" height="6.629"/>
	<rect x="70.285" y="180.553" fill="#ACEAF9" width="6.627" height="6.629"/>
	<rect x="79.701" y="180.553" fill="#ACEAF9" width="6.627" height="6.629"/>
	<rect x="88.992" y="180.553" fill="#ACEAF9" width="6.629" height="6.629"/>
	<rect x="32.963" y="189.865" fill="#ACEAF9" width="6.629" height="6.629"/>
	<rect x="42.379" y="189.865" fill="#ACEAF9" width="6.627" height="6.629"/>
	<rect x="51.651" y="189.865" fill="#ACEAF9" width="6.627" height="6.629"/>
	<rect x="61.013" y="189.865" fill="#ACEAF9" width="6.628" height="6.629"/>
	<rect x="70.285" y="189.865" fill="#ACEAF9" width="6.627" height="6.629"/>
	<rect x="79.701" y="189.865" fill="#ACEAF9" width="6.627" height="6.629"/>
	<rect x="88.992" y="189.865" fill="#ACEAF9" width="6.629" height="6.629"/>
	<rect x="42.379" y="199.148" fill="#ACEAF9" width="6.627" height="6.627"/>
	<rect x="51.651" y="199.148" fill="#ACEAF9" width="6.627" height="6.627"/>
	<rect x="61.013" y="199.148" fill="#ACEAF9" width="6.628" height="6.627"/>
	<rect x="70.285" y="199.148" fill="#ACEAF9" width="6.627" height="6.627"/>
	<rect x="79.701" y="199.148" fill="#ACEAF9" width="6.627" height="6.627"/>
	<rect x="88.992" y="199.148" fill="#ACEAF9" width="6.629" height="6.627"/>
	<rect x="42.379" y="208.432" fill="#ACEAF9" width="6.627" height="6.627"/>
	<rect x="51.651" y="208.432" fill="#ACEAF9" width="6.627" height="6.627"/>
	<rect x="61.013" y="208.432" fill="#ACEAF9" width="6.628" height="6.627"/>
	<rect x="79.701" y="208.432" fill="#ACEAF9" width="6.627" height="6.627"/>
	<rect x="88.992" y="208.432" fill="#ACEAF9" width="6.629" height="6.627"/>
	<rect x="98.345" y="208.432" fill="#ACEAF9" width="6.63" height="6.627"/>
	<rect x="107.617" y="208.432" fill="#ACEAF9" width="6.629" height="6.627"/>
	<rect x="51.651" y="217.582" fill="#ACEAF9" width="6.627" height="6.627"/>
	<rect x="61.013" y="217.582" fill="#ACEAF9" width="6.628" height="6.627"/>
	<rect x="107.617" y="217.582" fill="#ACEAF9" width="6.629" height="6.627"/>
	<rect x="117.033" y="217.582" fill="#ACEAF9" width="6.629" height="6.627"/>
</g>
<g id="Gangwon">
	<polygon id="Gangwon-back" opacity="0" fill="#FFFFFF" points="227.903,114.312 227.903,105.478 227.903,105.001 
		227.903,95.851 218.489,95.851 218.489,86.914 218.489,86.568 218.489,77.287 209.085,77.287 209.085,67.972 199.815,67.972 
		199.815,58.824 190.399,58.824 190.399,49.887 190.399,49.542 190.399,40.258 181.126,40.258 181.126,31.426 181.126,30.947 
		181.126,22.142 181.126,21.799 181.126,12.515 171.773,12.515 171.773,3.232 162.146,3.232 162.146,12.515 162.146,12.859 
		162.146,21.799 153.066,21.799 152.854,21.799 143.794,21.799 143.439,21.799 134.434,21.799 134.165,21.799 125.162,21.799 
		124.804,21.799 115.533,21.799 115.533,30.947 106.475,30.947 106.117,30.947 97.121,30.947 96.845,30.947 87.492,30.947 
		87.492,40.574 96.845,40.574 96.845,49.887 106.117,49.887 106.117,59.171 115.533,59.171 115.533,67.972 115.533,68.455 
		115.533,77.287 115.533,77.601 115.533,86.914 124.804,86.914 125.162,86.914 134.165,86.914 134.165,95.851 134.165,96.195 
		134.165,105.001 124.804,105.001 124.804,114.312 124.804,114.628 124.804,123.941 134.165,123.941 134.434,123.941 
		143.794,123.941 143.794,114.628 152.854,114.628 153.066,114.628 162.146,114.628 162.146,123.941 171.499,123.941 
		171.499,133.224 180.77,133.224 181.126,133.224 190.186,133.224 190.399,133.224 199.456,133.224 199.815,133.224 208.86,133.224 
		209.085,133.224 218.276,133.224 218.489,133.224 227.903,133.224 227.903,123.941 237.175,123.941 237.175,114.312 	"/>
	<rect x="163.646" y="4.732" fill="#ACEAF9" width="6.627" height="6.627"/>
	<rect x="163.646" y="14.015" fill="#ACEAF9" width="6.627" height="6.627"/>
	<rect x="172.999" y="14.015" fill="#ACEAF9" width="6.627" height="6.627"/>
	<rect x="117.033" y="23.299" fill="#ACEAF9" width="6.629" height="6.627"/>
	<rect x="126.304" y="23.299" fill="#ACEAF9" width="6.63" height="6.627"/>
	<rect x="135.665" y="23.299" fill="#ACEAF9" width="6.629" height="6.627"/>
	<rect x="144.939" y="23.299" fill="#ACEAF9" width="6.627" height="6.627"/>
	<rect x="154.354" y="23.299" fill="#ACEAF9" width="6.629" height="6.627"/>
	<rect x="163.646" y="23.299" fill="#ACEAF9" width="6.627" height="6.627"/>
	<rect x="172.999" y="23.299" fill="#ACEAF9" width="6.627" height="6.627"/>
	<rect x="88.992" y="32.447" fill="#ACEAF9" width="6.629" height="6.627"/>
	<rect x="98.345" y="32.447" fill="#ACEAF9" width="6.63" height="6.627"/>
	<rect x="107.617" y="32.447" fill="#ACEAF9" width="6.629" height="6.627"/>
	<rect x="117.033" y="32.447" fill="#ACEAF9" width="6.629" height="6.627"/>
	<rect x="126.304" y="32.447" fill="#ACEAF9" width="6.63" height="6.627"/>
	<rect x="135.665" y="32.447" fill="#ACEAF9" width="6.629" height="6.627"/>
	<rect x="144.939" y="32.447" fill="#ACEAF9" width="6.627" height="6.627"/>
	<rect x="154.354" y="32.447" fill="#ACEAF9" width="6.629" height="6.627"/>
	<rect x="163.646" y="32.447" fill="#ACEAF9" width="6.627" height="6.627"/>
	<rect x="172.999" y="32.447" fill="#ACEAF9" width="6.627" height="6.627"/>
	<rect x="98.345" y="41.758" fill="#ACEAF9" width="6.63" height="6.629"/>
	<rect x="107.617" y="41.758" fill="#ACEAF9" width="6.629" height="6.629"/>
	<rect x="117.033" y="41.758" fill="#ACEAF9" width="6.629" height="6.629"/>
	<rect x="126.304" y="41.758" fill="#ACEAF9" width="6.63" height="6.629"/>
	<rect x="135.665" y="41.758" fill="#ACEAF9" width="6.629" height="6.629"/>
	<rect x="144.939" y="41.758" fill="#ACEAF9" width="6.627" height="6.629"/>
	<rect x="154.354" y="41.758" fill="#ACEAF9" width="6.629" height="6.629"/>
	<rect x="163.646" y="41.758" fill="#ACEAF9" width="6.627" height="6.629"/>
	<rect x="172.999" y="41.758" fill="#ACEAF9" width="6.627" height="6.629"/>
	<rect x="182.27" y="41.758" fill="#ACEAF9" width="6.629" height="6.629"/>
	<rect x="107.617" y="51.042" fill="#ACEAF9" width="6.629" height="6.629"/>
	<rect x="117.033" y="51.042" fill="#ACEAF9" width="6.629" height="6.629"/>
	<rect x="126.304" y="51.042" fill="#ACEAF9" width="6.63" height="6.629"/>
	<rect x="135.665" y="51.042" fill="#ACEAF9" width="6.629" height="6.629"/>
	<rect x="144.939" y="51.042" fill="#ACEAF9" width="6.627" height="6.629"/>
	<rect x="154.354" y="51.042" fill="#ACEAF9" width="6.629" height="6.629"/>
	<rect x="163.646" y="51.042" fill="#ACEAF9" width="6.627" height="6.629"/>
	<rect x="172.999" y="51.042" fill="#ACEAF9" width="6.627" height="6.629"/>
	<rect x="182.27" y="51.042" fill="#ACEAF9" width="6.629" height="6.629"/>
	<rect x="117.033" y="60.324" fill="#ACEAF9" width="6.629" height="6.631"/>
	<rect x="126.304" y="60.324" fill="#ACEAF9" width="6.63" height="6.631"/>
	<rect x="135.665" y="60.324" fill="#ACEAF9" width="6.629" height="6.631"/>
	<rect x="144.939" y="60.324" fill="#ACEAF9" width="6.627" height="6.631"/>
	<rect x="154.354" y="60.324" fill="#ACEAF9" width="6.629" height="6.631"/>
	<rect x="163.646" y="60.324" fill="#ACEAF9" width="6.627" height="6.631"/>
	<rect x="172.999" y="60.324" fill="#ACEAF9" width="6.627" height="6.631"/>
	<rect x="182.27" y="60.324" fill="#ACEAF9" width="6.629" height="6.631"/>
	<rect x="191.686" y="60.324" fill="#ACEAF9" width="6.629" height="6.631"/>
	<rect x="117.033" y="69.472" fill="#ACEAF9" width="6.629" height="6.629"/>
	<rect x="126.304" y="69.472" fill="#ACEAF9" width="6.63" height="6.629"/>
	<rect x="135.665" y="69.472" fill="#ACEAF9" width="6.629" height="6.629"/>
	<rect x="144.939" y="69.472" fill="#ACEAF9" width="6.627" height="6.629"/>
	<rect x="154.354" y="69.472" fill="#ACEAF9" width="6.629" height="6.629"/>
	<rect x="163.646" y="69.472" fill="#ACEAF9" width="6.627" height="6.629"/>
	<rect x="172.999" y="69.472" fill="#ACEAF9" width="6.627" height="6.629"/>
	<rect x="182.27" y="69.472" fill="#ACEAF9" width="6.629" height="6.629"/>
	<rect x="191.686" y="69.472" fill="#ACEAF9" width="6.629" height="6.629"/>
	<rect x="200.956" y="69.472" fill="#ACEAF9" width="6.629" height="6.629"/>
	<rect x="117.033" y="78.787" fill="#ACEAF9" width="6.629" height="6.627"/>
	<rect x="126.304" y="78.787" fill="#ACEAF9" width="6.63" height="6.627"/>
	<rect x="135.665" y="78.787" fill="#ACEAF9" width="6.629" height="6.627"/>
	<rect x="144.939" y="78.787" fill="#ACEAF9" width="6.627" height="6.627"/>
	<rect x="154.354" y="78.787" fill="#ACEAF9" width="6.629" height="6.627"/>
	<rect x="163.646" y="78.787" fill="#ACEAF9" width="6.627" height="6.627"/>
	<rect x="172.999" y="78.787" fill="#ACEAF9" width="6.627" height="6.627"/>
	<rect x="182.27" y="78.787" fill="#ACEAF9" width="6.629" height="6.627"/>
	<rect x="191.686" y="78.787" fill="#ACEAF9" width="6.629" height="6.627"/>
	<rect x="200.956" y="78.787" fill="#ACEAF9" width="6.629" height="6.627"/>
	<rect x="210.36" y="78.787" fill="#ACEAF9" width="6.629" height="6.627"/>
	<rect x="135.665" y="88.068" fill="#ACEAF9" width="6.629" height="6.627"/>
	<rect x="144.939" y="88.068" fill="#ACEAF9" width="6.627" height="6.627"/>
	<rect x="154.354" y="88.068" fill="#ACEAF9" width="6.629" height="6.627"/>
	<rect x="163.646" y="88.068" fill="#ACEAF9" width="6.627" height="6.627"/>
	<rect x="172.999" y="88.068" fill="#ACEAF9" width="6.627" height="6.627"/>
	<rect x="182.27" y="88.068" fill="#ACEAF9" width="6.629" height="6.627"/>
	<rect x="191.686" y="88.068" fill="#ACEAF9" width="6.629" height="6.627"/>
	<rect x="200.956" y="88.068" fill="#ACEAF9" width="6.629" height="6.627"/>
	<rect x="210.36" y="88.068" fill="#ACEAF9" width="6.629" height="6.627"/>
	<rect x="135.665" y="97.351" fill="#ACEAF9" width="6.629" height="6.627"/>
	<rect x="144.939" y="97.351" fill="#ACEAF9" width="6.627" height="6.627"/>
	<rect x="154.354" y="97.351" fill="#ACEAF9" width="6.629" height="6.627"/>
	<rect x="163.646" y="97.351" fill="#ACEAF9" width="6.627" height="6.627"/>
	<rect x="172.999" y="97.351" fill="#ACEAF9" width="6.627" height="6.627"/>
	<rect x="182.27" y="97.351" fill="#ACEAF9" width="6.629" height="6.627"/>
	<rect x="191.686" y="97.351" fill="#ACEAF9" width="6.629" height="6.627"/>
	<rect x="200.956" y="97.351" fill="#ACEAF9" width="6.629" height="6.627"/>
	<rect x="210.36" y="97.351" fill="#ACEAF9" width="6.629" height="6.627"/>
	<rect x="219.776" y="97.351" fill="#ACEAF9" width="6.627" height="6.627"/>
	<rect x="135.665" y="106.501" fill="#ACEAF9" width="6.629" height="6.627"/>
	<rect x="144.939" y="106.501" fill="#ACEAF9" width="6.627" height="6.627"/>
	<rect x="154.354" y="106.501" fill="#ACEAF9" width="6.629" height="6.627"/>
	<rect x="163.646" y="106.501" fill="#ACEAF9" width="6.627" height="6.627"/>
	<rect x="172.999" y="106.501" fill="#ACEAF9" width="6.627" height="6.627"/>
	<rect x="182.27" y="106.501" fill="#ACEAF9" width="6.629" height="6.627"/>
	<rect x="191.686" y="106.501" fill="#ACEAF9" width="6.629" height="6.627"/>
	<rect x="200.956" y="106.501" fill="#ACEAF9" width="6.629" height="6.627"/>
	<rect x="210.36" y="106.501" fill="#ACEAF9" width="6.629" height="6.627"/>
	<rect x="219.776" y="106.501" fill="#ACEAF9" width="6.627" height="6.627"/>
	<rect x="126.304" y="115.812" fill="#ACEAF9" width="6.63" height="6.629"/>
	<rect x="135.665" y="115.812" fill="#ACEAF9" width="6.629" height="6.629"/>
	<rect x="163.646" y="115.812" fill="#ACEAF9" width="6.627" height="6.629"/>
	<rect x="172.999" y="115.812" fill="#ACEAF9" width="6.627" height="6.629"/>
	<rect x="182.27" y="115.812" fill="#ACEAF9" width="6.629" height="6.629"/>
	<rect x="191.686" y="115.812" fill="#ACEAF9" width="6.629" height="6.629"/>
	<rect x="200.956" y="115.812" fill="#ACEAF9" width="6.629" height="6.629"/>
	<rect x="210.36" y="115.812" fill="#ACEAF9" width="6.629" height="6.629"/>
	<rect x="219.776" y="115.812" fill="#ACEAF9" width="6.627" height="6.629"/>
	<rect x="229.048" y="115.812" fill="#ACEAF9" width="6.627" height="6.629"/>
	<rect x="172.999" y="125.095" fill="#ACEAF9" width="6.627" height="6.629"/>
	<rect x="182.27" y="125.095" fill="#ACEAF9" width="6.629" height="6.629"/>
	<rect x="191.686" y="125.095" fill="#ACEAF9" width="6.629" height="6.629"/>
	<rect x="200.956" y="125.095" fill="#ACEAF9" width="6.629" height="6.629"/>
	<rect x="210.36" y="125.095" fill="#ACEAF9" width="6.629" height="6.629"/>
	<rect x="219.776" y="125.095" fill="#ACEAF9" width="6.627" height="6.629"/>
	<rect x="126.304" y="106.501" fill="#ACEAF9" width="6.63" height="6.627"/>
</g>
<g id="Gyeonggi">
	<polygon id="Gyeonggi-back" opacity="0" fill="#FFFFFF" points="125.162,86.568 124.804,86.568 115.746,86.568 115.746,77.601 
		115.746,77.287 115.746,68.455 115.746,67.972 115.746,58.824 106.475,58.824 106.475,49.542 97.121,49.542 97.121,40.258 
		87.828,40.258 87.828,30.947 78.201,30.947 78.201,40.258 68.785,40.258 68.785,49.542 68.785,49.887 68.785,58.824 59.778,58.824 
		59.513,58.824 50.151,58.824 50.151,67.972 50.151,68.455 50.151,77.287 40.879,77.287 40.879,86.914 50.151,86.914 50.506,86.914 
		59.513,86.914 59.778,86.914 68.785,86.914 69.141,86.914 78.412,86.914 78.412,77.601 87.492,77.601 87.492,86.568 87.492,86.914 
		87.492,95.851 87.492,96.195 87.492,105.001 78.412,105.001 78.201,105.001 69.141,105.001 69.141,95.851 59.513,95.851 
		59.513,105.001 59.513,105.478 59.513,114.312 50.151,114.312 50.151,123.595 50.151,123.941 50.151,133.224 59.513,133.224 
		59.513,142.508 68.785,142.508 68.785,151.656 78.412,151.656 78.412,142.508 87.492,142.508 87.828,142.508 96.845,142.508 
		97.121,142.508 106.475,142.508 106.475,133.224 115.533,133.224 115.746,133.224 125.162,133.224 125.162,123.941 
		125.162,123.595 125.162,114.628 125.162,114.312 125.162,105.478 134.434,105.478 134.434,96.195 134.434,95.851 134.434,86.568 	
		"/>
	<rect x="126.304" y="97.351" fill="#4EC5ED" width="6.63" height="6.627"/>
	<rect x="79.701" y="32.447" fill="#4EC5ED" width="6.627" height="6.627"/>
	<rect x="70.285" y="41.758" fill="#4EC5ED" width="6.627" height="6.629"/>
	<rect x="79.701" y="41.758" fill="#4EC5ED" width="6.627" height="6.629"/>
	<rect x="88.992" y="41.758" fill="#4EC5ED" width="6.629" height="6.629"/>
	<rect x="70.285" y="51.042" fill="#4EC5ED" width="6.627" height="6.629"/>
	<rect x="79.701" y="51.042" fill="#4EC5ED" width="6.627" height="6.629"/>
	<rect x="88.992" y="51.042" fill="#4EC5ED" width="6.629" height="6.629"/>
	<rect x="98.345" y="51.042" fill="#4EC5ED" width="6.63" height="6.629"/>
	<rect x="51.651" y="60.324" fill="#4EC5ED" width="6.627" height="6.631"/>
	<rect x="61.013" y="60.324" fill="#4EC5ED" width="6.628" height="6.631"/>
	<rect x="70.285" y="60.324" fill="#4EC5ED" width="6.627" height="6.631"/>
	<rect x="79.701" y="60.324" fill="#4EC5ED" width="6.627" height="6.631"/>
	<rect x="88.992" y="60.324" fill="#4EC5ED" width="6.629" height="6.631"/>
	<rect x="98.345" y="60.324" fill="#4EC5ED" width="6.63" height="6.631"/>
	<rect x="107.617" y="60.324" fill="#4EC5ED" width="6.629" height="6.631"/>
	<rect x="51.651" y="69.472" fill="#4EC5ED" width="6.627" height="6.629"/>
	<rect x="61.013" y="69.472" fill="#4EC5ED" width="6.628" height="6.629"/>
	<rect x="70.285" y="69.472" fill="#4EC5ED" width="6.627" height="6.629"/>
	<rect x="79.701" y="69.472" fill="#4EC5ED" width="6.627" height="6.629"/>
	<rect x="88.992" y="69.472" fill="#4EC5ED" width="6.629" height="6.629"/>
	<rect x="98.345" y="69.472" fill="#4EC5ED" width="6.63" height="6.629"/>
	<rect x="107.617" y="69.472" fill="#4EC5ED" width="6.629" height="6.629"/>
	<rect x="42.379" y="78.787" fill="#4EC5ED" width="6.627" height="6.627"/>
	<rect x="51.651" y="78.787" fill="#4EC5ED" width="6.627" height="6.627"/>
	<rect x="61.013" y="78.787" fill="#4EC5ED" width="6.628" height="6.627"/>
	<rect x="70.285" y="78.787" fill="#4EC5ED" width="6.627" height="6.627"/>
	<rect x="88.992" y="78.787" fill="#4EC5ED" width="6.629" height="6.627"/>
	<rect x="98.345" y="78.787" fill="#4EC5ED" width="6.63" height="6.627"/>
	<rect x="107.617" y="78.787" fill="#4EC5ED" width="6.629" height="6.627"/>
	<rect x="88.992" y="88.068" fill="#4EC5ED" width="6.629" height="6.627"/>
	<rect x="98.345" y="88.068" fill="#4EC5ED" width="6.63" height="6.627"/>
	<rect x="107.617" y="88.068" fill="#4EC5ED" width="6.629" height="6.627"/>
	<rect x="117.033" y="88.068" fill="#4EC5ED" width="6.629" height="6.627"/>
	<rect x="126.304" y="88.068" fill="#4EC5ED" width="6.63" height="6.627"/>
	<rect x="61.013" y="97.351" fill="#4EC5ED" width="6.628" height="6.627"/>
	<rect x="88.992" y="97.351" fill="#4EC5ED" width="6.629" height="6.627"/>
	<rect x="98.345" y="97.351" fill="#4EC5ED" width="6.63" height="6.627"/>
	<rect x="107.617" y="97.351" fill="#4EC5ED" width="6.629" height="6.627"/>
	<rect x="117.033" y="97.351" fill="#4EC5ED" width="6.629" height="6.627"/>
	<rect x="61.013" y="106.501" fill="#4EC5ED" width="6.628" height="6.627"/>
	<rect x="70.285" y="106.501" fill="#4EC5ED" width="6.627" height="6.627"/>
	<rect x="79.701" y="106.501" fill="#4EC5ED" width="6.627" height="6.627"/>
	<rect x="88.992" y="106.501" fill="#4EC5ED" width="6.629" height="6.627"/>
	<rect x="98.345" y="106.501" fill="#4EC5ED" width="6.63" height="6.627"/>
	<rect x="107.617" y="106.501" fill="#4EC5ED" width="6.629" height="6.627"/>
	<rect x="117.033" y="106.501" fill="#4EC5ED" width="6.629" height="6.627"/>
	<rect x="51.651" y="115.812" fill="#4EC5ED" width="6.627" height="6.629"/>
	<rect x="61.013" y="115.812" fill="#4EC5ED" width="6.628" height="6.629"/>
	<rect x="70.285" y="115.812" fill="#4EC5ED" width="6.627" height="6.629"/>
	<rect x="79.701" y="115.812" fill="#4EC5ED" width="6.627" height="6.629"/>
	<rect x="88.992" y="115.812" fill="#4EC5ED" width="6.629" height="6.629"/>
	<rect x="98.345" y="115.812" fill="#4EC5ED" width="6.63" height="6.629"/>
	<rect x="107.617" y="115.812" fill="#4EC5ED" width="6.629" height="6.629"/>
	<rect x="117.033" y="115.812" fill="#4EC5ED" width="6.629" height="6.629"/>
	<rect x="51.651" y="125.095" fill="#4EC5ED" width="6.627" height="6.629"/>
	<rect x="61.013" y="125.095" fill="#4EC5ED" width="6.628" height="6.629"/>
	<rect x="70.285" y="125.095" fill="#4EC5ED" width="6.627" height="6.629"/>
	<rect x="79.701" y="125.095" fill="#4EC5ED" width="6.627" height="6.629"/>
	<rect x="88.992" y="125.095" fill="#4EC5ED" width="6.629" height="6.629"/>
	<rect x="98.345" y="125.095" fill="#4EC5ED" width="6.63" height="6.629"/>
	<rect x="107.617" y="125.095" fill="#4EC5ED" width="6.629" height="6.629"/>
	<rect x="117.033" y="125.095" fill="#4EC5ED" width="6.629" height="6.629"/>
	<rect x="61.013" y="134.379" fill="#4EC5ED" width="6.628" height="6.629"/>
	<rect x="70.285" y="134.379" fill="#4EC5ED" width="6.627" height="6.629"/>
	<rect x="79.701" y="134.379" fill="#4EC5ED" width="6.627" height="6.629"/>
	<rect x="88.992" y="134.379" fill="#4EC5ED" width="6.629" height="6.629"/>
	<rect x="98.345" y="134.379" fill="#4EC5ED" width="6.63" height="6.629"/>
	<rect x="70.285" y="143.527" fill="#4EC5ED" width="6.627" height="6.629"/>
</g>
<g id="Seoul">
	<polygon id="Seoul-back" opacity="0" fill="#FFFFFF" points="78.201,77.287 78.201,86.568 68.785,86.568 68.785,95.851 
		68.785,96.195 68.785,105.478 78.201,105.478 78.412,105.478 87.828,105.478 87.828,96.195 87.828,95.851 87.828,86.914 
		87.828,86.568 87.828,77.287 	"/>
	<rect x="79.701" y="78.787" fill="#ACEAF9" width="6.627" height="6.627"/>
	<rect x="70.285" y="88.068" fill="#ACEAF9" width="6.627" height="6.627"/>
	<rect x="79.701" y="88.068" fill="#ACEAF9" width="6.627" height="6.627"/>
	<rect x="70.285" y="97.351" fill="#ACEAF9" width="6.627" height="6.627"/>
	<rect x="79.701" y="97.351" fill="#ACEAF9" width="6.627" height="6.627"/>
</g>
<g id="Incheon">
	<polygon id="Incheon-back" opacity="0" fill="#FFFFFF" points="59.778,86.568 59.513,86.568 50.506,86.568 50.151,86.568 
		41.092,86.568 41.092,77.601 41.092,77.287 41.092,67.972 31.821,67.972 31.463,67.972 22.192,67.972 22.192,77.287 22.192,77.601 
		22.192,86.914 31.463,86.914 31.463,95.851 31.463,96.195 31.463,105.001 31.463,105.478 31.463,114.628 41.092,114.628 
		41.092,105.478 50.151,105.478 50.506,105.478 59.778,105.478 59.778,96.195 69.141,96.195 69.141,86.568 	"/>
	<rect x="23.692" y="69.472" fill="#0493BA" width="6.629" height="6.629"/>
	<rect x="32.963" y="69.472" fill="#0493BA" width="6.629" height="6.629"/>
	<rect x="23.692" y="78.787" fill="#0493BA" width="6.629" height="6.627"/>
	<rect x="32.963" y="78.787" fill="#0493BA" width="6.629" height="6.627"/>
	<rect x="32.963" y="88.068" fill="#0493BA" width="6.629" height="6.627"/>
	<rect x="42.379" y="88.068" fill="#0493BA" width="6.627" height="6.627"/>
	<rect x="51.651" y="88.068" fill="#0493BA" width="6.627" height="6.627"/>
	<rect x="61.013" y="88.068" fill="#0493BA" width="6.628" height="6.627"/>
	<rect x="32.963" y="97.351" fill="#0493BA" width="6.629" height="6.627"/>
	<rect x="42.379" y="97.351" fill="#0493BA" width="6.627" height="6.627"/>
	<rect x="51.651" y="97.351" fill="#0493BA" width="6.627" height="6.627"/>
	<rect x="32.963" y="106.501" fill="#0493BA" width="6.629" height="6.627"/>
</g>
</svg>
