<?xml version="1.0" encoding="utf-8"?>
<!-- Generator: Adobe Illustrator 16.0.0, SVG Export Plug-In . SVG Version: 6.00 Build 0)  -->
<!DOCTYPE svg PUBLIC "-//W3C//DTD SVG 1.1//EN" "http://www.w3.org/Graphics/SVG/1.1/DTD/svg11.dtd">
<svg version="1.1" id="레이어_1" xmlns="http://www.w3.org/2000/svg" xmlns:xlink="http://www.w3.org/1999/xlink" x="0px"
	 y="0px" width="841.89px" height="595.28px" viewBox="0 0 841.89 595.28" enable-background="new 0 0 841.89 595.28"
	 xml:space="preserve">
<g id="SouthkoreaShadow">
	<polygon fill="#AA8B75" points="26.234,433.97 26.234,435.97 35.778,453.403 42.661,447.121 66.178,447.112 83.366,429.879 
		83.366,427.578 	"/>
	<polygon fill="#AA8B75" points="26.234,429.752 26.234,433.97 35.778,451.403 42.661,445.121 66.178,445.112 83.366,427.879 
		83.366,422.879 	"/>
	<path fill="#AA8B75" d="M114.164,352.888c-0.869,0-1.579-0.812-1.579-1.799c0-0.988-0.81-1.401-1.796-0.923l-11.846,5.8
		c-0.988,0.484-2.113,0.479-2.498-0.02c-0.388-0.494-1.603-0.898-2.703-0.898h-0.561c-1.102,0-2,0.9-2,2v2v1.193
		c0,1.1-0.898,2.053-1.997,2.117l-25.062,1.473c-1.098,0.064-2.739-0.389-3.649-1.008l-0.271-0.185
		c-0.907-0.618-2.53-0.938-3.605-0.7l-2.464,0.534c-1.074,0.229-2.646-0.151-3.487-0.858l-8.457-7.082
		c-0.843-0.705-2.162-0.64-2.93,0.147l-3.173,3.252c-0.769,0.787-2.293,1.353-3.39,1.255l-4.086-0.365
		c-1.096-0.099-1.992,0.551-1.992,1.44c0,0.854,0.367,1.935,0.826,2.455c0.018,0.021,0.033,0.045,0.051,0.063
		c0.484,0.496,0.879,1.801,0.879,2.899v2v0.119v0.354c0,1.102-0.79,1.596-1.756,1.102c-0.965-0.494-2.532-0.449-3.484,0.104
		l-10.223,5.91c-0.951,0.553-2.387,0.387-3.187-0.369l-3.491-3.293L3.114,377v2l8.065,8.273l13.685-7.914l3.51,1.799v-6.478
		l-1.756-1.799v-3.238l8.07,0.724l5.967-6.114l11.522,9.649l6.372-1.39l3.575,2.438l29.055-1.707v-7.19h4.562l1.402,1.797
		l15.438-7.558v3.601h3.157l5.063-3.601v-2l-2.59-6.983l-0.789,0.507C116.5,352.406,115.032,352.888,114.164,352.888z"/>
	<path fill="#726658" d="M54.825,219.074h3.435h0.748c1.101,0,2.899,0,4,0c-1.101,0-2.524-0.73-3.165-1.625l-8.68-12.105
		l-1.996,3.504v3.99l4.385,6.383c0.205-0.086,0.43-0.146,0.686-0.146L54.825,219.074L54.825,219.074z"/>
	<polygon fill="#726658" points="24.763,158.02 24.763,158.021 24.763,158.019 	"/>
	<path fill="#AA8B75" d="M61.351,104.728l0.548-2.066c0.28-1.063,1.041-2.662,1.687-3.552c-0.646,0.89-2.075,1.619-3.175,1.619
		H46.165c-1.1,0-2.375-0.818-2.832-1.818l-6.406-13.989c-0.457-1-1.672-2.141-2.699-2.536l-2.316-0.891l-4.236,2.896v6.476
		l8.421,3.237l8.069,17.626h15.337l0.528-2L61.351,104.728z"/>
	<path fill="#AA8B75" d="M14.903,345.74l1.266-2.256c0.537-0.959,0.078-1.744-1.021-1.744H14.24c-1.102,0-2.203-0.877-2.449-1.949
		l-2.53-11.484l-1.328,0.046v2.979l3.976,19.758l0.295-0.526L14.903,345.74z"/>
	<path fill="#AA8B75" d="M65.784,135.61c-1.084-0.192-1.971-1.249-1.971-2.35v-4.071v-2c0-1.101-0.816-2.377-1.814-2.838
		l-2.82-1.302l-1.869,6.551v3.352l4.645,2.312c0.533,0.006,1.195,0.042,1.861,0.102C64.53,135.427,65.243,135.514,65.784,135.61z"/>
	<path fill="#AA8B75" d="M49.166,200.906c0-0.006,0-0.01,0-0.017c0.018-0.271,0.066-0.528,0.139-0.768
		c0.016-0.053,0.023-0.109,0.043-0.158l1.439-3.858l0.498-1.334c0.386-1.031-0.051-2.371-0.969-2.979l-6.59-4.359
		c-0.917-0.606-1.979-1.948-2.357-2.979l-6.408-17.447c-0.379-1.033-1.547-2.153-2.594-2.492l-7.358-2.379
		c-0.229-0.073-0.421-0.185-0.582-0.321l-0.588,6.619v4.088l10.433,3.607l7.788,21.201l7.202,4.766
		c-0.047-0.229-0.083-0.463-0.096-0.696C49.157,201.232,49.157,201.068,49.166,200.906z"/>
	<path fill="#726658" d="M244.689,214.398v0.002c0.301,0.617,0.89,0.998,1.528,1.098l-1.748-2.389
		C244.402,213.484,244.465,213.938,244.689,214.398z"/>
	<path fill="#726658" d="M57.479,240c0.133-0.676,0.194-1.363,0.154-1.904l-0.592-8.021h-0.598l-3.785-1.617v8.093l4.146,1.345
		l0.264,3.555c0.041-0.111,0.082-0.223,0.121-0.342C57.305,240.759,57.405,240.383,57.479,240z"/>
	<path fill="#726658" d="M17.042,306.127h1.264c1.101,0,2.097-0.895,2.216-1.986l0.053-0.482l0.218-2.016
		c0.056-0.51-0.097-0.975-0.38-1.322l-4.807,0.426v2l0.543,3.604c0.096-0.038,0.185-0.096,0.282-0.122
		C16.631,306.166,16.835,306.127,17.042,306.127z"/>
	<path fill="#AA8B75" d="M248.395,248.254c1.036,0.369,1.711,1.556,1.499,2.635l-1.839,9.393c-0.212,1.08-1.013,2.605-1.781,3.396
		l-0.363,0.375c-0.769,0.787-1.396,2.332-1.396,3.433v2v0.112c0,1.104-0.83,2.353-1.844,2.772l-4.031,1.69
		c-1.015,0.427-2.622,0.319-3.572-0.231c0.95,0.554,1.729,1.733,1.729,2.625s-0.633,2.022-1.403,2.519
		c-0.77,0.497-1.403,1.802-1.403,2.899v2v5v0.511c0,1.101-0.84,2.323-1.864,2.722l-25.66,9.909
		c-1.026,0.396-2.229,1.546-2.674,2.552l-2.313,5.246c-0.443,1.012-0.641,2.719-0.438,3.797l0.157,0.846l0.324,1.734
		c0.051,0.271,0.071,0.58,0.064,0.903c-0.021,0.97-0.28,2.084-0.689,2.799l-0.522,0.919c-0.548,0.954-1.498,0.989-2.116,0.079
		c0.618,0.91,0.676,2.438,0.13,3.396l-2,3.496c-0.546,0.95-1.894,1.73-2.993,1.73h-3.72c-1.101,0-2.744-0.508-3.652-1.127
		l-10.422-7.1c-0.91-0.619-2.553-1.127-3.652-1.127h-14.555c-1.1,0-2,0.899-2,2v2v5v0.151c0,1.101-0.884,1.83-1.964,1.621
		l-14.67-2.84c-1.08-0.209-2.188-1.256-2.462-2.315c0.272,1.063,0.498,2.838,0.498,3.938v2v4.072c0,1.1-0.9,2-2,2h-3.21
		c-1.102,0-2.354-0.729-2.78-1.619c-0.43-0.889-1.682-1.617-2.781-1.617h-3.367c-1.102,0-2.696,0.57-3.547,1.271l-0.416,0.34
		c-0.852,0.692-1.246,2.113-0.879,3.147l0.432,1.216l1.373,3.873l0.551,1.555l0.486-0.396h7.367l1.563,3.233h7.21v-10.071
		l18.599,3.601v-11.15h18.551l13.729,9.354h7.721l3.985-6.97l2.207-4.392v-2.468l-0.916-4.047l3.926-8.905l29.394-11.354v-11.514
		l2.808-1.799v-3.238l7.72-3.234v-6.111l3.157-3.238l2.606-13.314l7.186-38.649v-2.59l-1.215-0.244l-5.584,28.521
		C250.451,248.043,249.431,248.623,248.395,248.254z"/>
	<path fill="#AA8B75" d="M16.167,343.484c0.537-0.959,0.078-1.744-1.021-1.744h-0.908c-1.102,0-2.203-0.877-2.449-1.949
		l-3.362-15.26l-0.496-0.203v5l4.271,21.229l2.703-4.814L16.167,343.484z"/>
	<path fill="#AA8B75" d="M18.305,306.127c1.102,0,2.098-0.895,2.217-1.986l0.053-0.482l0.217-2.016
		c0.119-1.094-0.684-1.984-1.784-1.984h-0.21c-1.1,0-2.195-0.879-2.434-1.951l-0.365-1.935l-0.395-0.026v5l0.826,5.479
		c0.2-0.059,0.405-0.098,0.611-0.098H18.305L18.305,306.127z"/>
	<path fill="#AA8B75" d="M57.634,238.095l-0.681-9.209c-0.03-0.424-0.168-0.862-0.373-1.264l-3.92-2.148v9.074l4.146,1.344
		l0.386,5.214c0.113-0.347,0.213-0.724,0.287-1.104C57.612,239.324,57.674,238.636,57.634,238.095z"/>
	<path fill="#AA8B75" d="M59.007,219.074c1.101,0,2.899,0,4,0c-1.101,0-2.524-0.73-3.165-1.625l-9.768-13.621l-0.908,0.918v6.092
		l5.658,8.236h3.435H59.007z"/>
	<path fill="#AA8B75" d="M24.938,155.604l-0.471-3.123c-0.02-0.121-0.025-0.25-0.027-0.381l0,0l-0.002,0.002l-0.339,7.58
		l0.185-0.341C24.807,158.372,25.101,156.69,24.938,155.604z"/>
	<path fill="#AA8B75" d="M50.788,196.105l0.498-1.334c0.386-1.031-0.051-2.371-0.969-2.979l-6.59-4.359
		c-0.917-0.606-1.979-1.948-2.357-2.979l-6.408-17.447c-0.379-1.033-1.547-2.153-2.594-2.492l-7.358-2.379
		c-0.468-0.15-0.792-0.457-0.981-0.824l-0.188,4.21v5l10.434,3.607l7.787,21.201l7.245,4.793c0.017-0.053,0.024-0.109,0.043-0.158
		L50.788,196.105z"/>
	<path fill="#AA8B75" d="M232.12,292.097l-25.659,9.91c-1.026,0.396-2.229,1.545-2.675,2.551l-2.313,5.246
		c-0.443,1.009-0.641,2.716-0.438,3.797l0.158,0.845l0.324,1.735c0.051,0.271,0.071,0.58,0.064,0.901
		c-0.021,0.972-0.28,2.084-0.689,2.802l-0.523,0.918c-0.547,0.955-1.497,0.987-2.115,0.08c0.618,0.907,0.676,2.438,0.13,3.396
		l-2,3.494c-0.546,0.954-1.894,1.735-2.993,1.735h-3.72c-1.101,0-2.744-0.511-3.652-1.127l-10.422-7.104
		c-0.91-0.618-2.553-1.127-3.652-1.127h-14.553c-1.1,0-2,0.897-2,2v2v5h18.553l13.729,9.354h7.72l3.986-6.971l2.207-4.395v-5
		l-0.916-1.515l3.926-8.905l29.393-11.354v-11C233.986,290.476,233.146,291.703,232.12,292.097z"/>
	<path fill="#AA8B75" d="M23.135,369.359l-10.223,5.911c-0.951,0.553-2.387,0.387-3.187-0.369l-5.254-4.956L3.115,372v5l8.065,8.271
		l13.685-7.912l3.51,1.799v-6.478l-1.756-1.799v-1.627C25.657,368.763,24.087,368.806,23.135,369.359z"/>
	<path fill="#AA8B75" d="M248.395,248.254c1.036,0.369,1.711,1.556,1.499,2.635l-1.839,9.393c-0.212,1.08-1.013,2.605-1.781,3.396
		l-0.363,0.375c-0.769,0.787-1.396,2.332-1.396,3.433v2v0.112c0,1.104-0.83,2.353-1.844,2.772l-4.031,1.69
		c-1.015,0.427-2.622,0.319-3.572-0.231c0.95,0.554,1.729,1.733,1.729,2.625s-0.633,2.022-1.403,2.519
		c-0.77,0.497-1.403,1.802-1.403,2.899v2v5l2.809-1.799v-3.238l7.72-3.237v-6.112l3.157-3.234l2.607-13.313l7.185-38.652v-5.834
		l-0.269,0.152l-6.536,33.372C250.451,248.043,249.431,248.623,248.395,248.254z"/>
	<path fill="#AA8B75" d="M114.164,352.888c-0.869,0-1.579-0.812-1.579-1.799c0-0.988-0.81-1.401-1.796-0.923l-11.846,5.8
		c-0.988,0.484-2.113,0.479-2.498-0.02c-0.388-0.494-1.603-0.898-2.703-0.898h-0.561c-1.102,0-2,0.9-2,2v2v1.193
		c0,1.1-0.898,2.053-1.997,2.117l-25.062,1.473c-1.098,0.064-2.739-0.389-3.649-1.008l-0.271-0.185
		c-0.907-0.618-2.53-0.938-3.605-0.7l-2.464,0.534c-1.074,0.229-2.646-0.151-3.487-0.858l-8.457-7.082
		c-0.843-0.705-2.162-0.64-2.93,0.147l-3.173,3.252c-0.769,0.787-2.293,1.353-3.39,1.255l-4.086-0.365
		c-1.096-0.099-1.992,0.551-1.992,1.44c0,0.854,0.367,1.935,0.826,2.455c0.018,0.021,0.033,0.045,0.051,0.063
		c0.484,0.496,0.879,1.801,0.879,2.899v2v0.119l6.314,0.563l5.967-6.115l11.522,9.651l6.372-1.39l3.575,2.438l29.055-1.707v-7.192
		h4.562l1.402,1.797l15.438-7.557v3.6h3.157l5.063-3.6v-5l-1.447-2.719l-1.932,1.235C116.5,352.406,115.032,352.888,114.164,352.888
		z"/>
	<path fill="#AA8B75" d="M153.428,330.931l-14.67-2.84c-1.08-0.209-2.188-1.252-2.462-2.313c0.271,1.063,0.498,2.838,0.498,3.938v2
		v4.07c0,1.104-0.9,2-2,2h-3.21c-1.103,0-2.353-0.729-2.78-1.619c-0.431-0.889-1.683-1.613-2.78-1.613h-3.369
		c-1.101,0-2.695,0.566-3.547,1.27l-0.416,0.34c-0.851,0.696-1.246,2.116-0.877,3.151l0.43,1.215l1.375,3.873l1.035-0.849h7.369
		l1.563,3.232h7.21v-10.07l18.598,3.601v-11C155.392,330.408,154.509,331.138,153.428,330.931z"/>
	<path fill="#AA8B75" d="M61.898,102.661c0.28-1.063,1.041-2.662,1.687-3.552c-0.646,0.89-2.075,1.619-3.175,1.619H46.165
		c-1.1,0-2.375-0.818-2.832-1.818l-6.406-13.989c-0.457-1-1.672-2.141-2.699-2.536l-4.189-1.609l-2.363,1.615v6.476l8.421,3.237
		l8.069,17.626h15.865l1.322-5L61.898,102.661z"/>
	<path fill="#AA8B75" d="M63.813,133.261v-4.071v-2c0-1.101-0.816-2.377-1.814-2.838l-3.385-1.563
		c-0.258-0.119-0.478-0.301-0.67-0.509l-0.636,3.671v5l6.505,3.238v1.175c0.717,0.063,1.43,0.149,1.971,0.246
		C64.7,135.418,63.813,134.361,63.813,133.261z"/>
	<polygon opacity="0.3" fill="#726658" enable-background="new    " points="35.84,441.481 35.84,453.403 42.661,447.121 
		42.661,435.517 	"/>
	<polygon opacity="0.3" fill="#726658" enable-background="new    " points="66.178,447.112 66.178,434.951 83.335,418.733 
		83.335,429.879 	"/>
	<polygon opacity="0.3" fill="#726658" enable-background="new    " points="34.691,370.367 34.691,357.82 40.661,353.056 
		40.661,364.252 	"/>
	<polygon opacity="0.3" fill="#726658" enable-background="new    " points="52.18,373.903 52.18,362.211 58.554,361.453 
		58.554,372.514 	"/>
	<polygon opacity="0.3" fill="#726658" enable-background="new    " points="91.182,366.244 91.182,355.263 95.53,354.513 
		95.53,366.052 	"/>
	<polygon opacity="0.3" fill="#726658" enable-background="new    " points="97.146,367.847 112.584,360.293 112.584,349.328 
		97.146,356.302 	"/>
	<path opacity="0.3" fill="#726658" enable-background="new    " d="M120.655,345.549l-0.875,0.719l-2.625-7.625
		c0,0-0.248-2.719,3.5-3.672V345.549z"/>
	<polygon opacity="0.3" fill="#726658" enable-background="new    " points="129.585,348.783 128.023,345.549 128.023,334.261 
		129.585,336.07 	"/>
	<polygon opacity="0.3" fill="#726658" enable-background="new    " points="187.672,340.511 173.943,331.156 173.943,320.311 
		187.672,329.142 	"/>
	<polygon opacity="0.3" fill="#726658" enable-background="new    " points="195.391,340.511 201.585,329.15 201.585,318.013 
		195.391,329.261 	"/>
	<polygon opacity="0.3" fill="#726658" enable-background="new    " points="204.594,313.729 233.986,302.379 233.986,290.869 
		204.594,302.3 	"/>
	<polygon opacity="0.3" fill="#726658" enable-background="new    " points="236.794,285.832 244.513,282.595 244.513,270.431 
		236.794,273.836 	"/>
	<polygon opacity="0.3" fill="#726658" enable-background="new    " points="42.059,197.33 49.257,202.092 49.347,199.965 
		52.196,193.398 50.868,192.322 42.059,185.715 	"/>
	<polygon opacity="0.3" fill="#726658" enable-background="new    " points="34.271,176.129 23.838,172.521 23.838,160.529 
		34.271,165.016 	"/>
	<polygon opacity="0.3" fill="#726658" enable-background="new    " points="44.164,111.728 59.5,111.728 62.65,100.728 
		44.164,99.728 	"/>
	<polygon opacity="0.3" fill="#726658" enable-background="new    " points="36.093,94.102 27.673,90.864 27.673,77.864 
		36.093,82.849 	"/>
	<polygon opacity="0.3" fill="#726658" enable-background="new    " points="11.182,387.272 11.182,374.889 25.03,368.263 
		25.03,379.36 	"/>
	<path fill="#7FA840" d="M248.83,148.876l-0.009-0.007c0.002,0.021,0.006,0.042,0.009,0.063V148.876z"/>
	<path fill="#7FA840" d="M45.579,268.377l-0.014,0.027c0.041,0.026,0.082,0.051,0.12,0.084
		C45.646,268.455,45.616,268.414,45.579,268.377z"/>
	<path fill="#7FA840" d="M57.634,238.095l-0.681-9.209c-0.08-1.098-0.858-2.297-1.729-2.666c-0.871-0.368-1.773-1.551-2.008-2.625
		l-0.557-2.565v5.611l4.146,4.25l0.673,9.107C57.612,239.324,57.674,238.636,57.634,238.095z"/>
	<path fill="#7FA840" d="M19.007,299.652h-0.21c-1.1,0-2.195-0.881-2.434-1.951l-0.76-4.01v2.049l1.192,7.912h3.776l0.217-2.015
		C20.911,300.549,20.107,299.652,19.007,299.652z"/>
	<path fill="#7FA840" d="M15.146,341.74h-0.91c-1.101,0-2.201-0.877-2.449-1.949l-3.857-17.514v2.051l4.309,21.412h2.664
		l1.267-2.256C16.705,342.525,16.246,341.74,15.146,341.74z"/>
	<path fill="#7FA840" d="M63.007,219.074c-1.101,0-2.524-0.73-3.165-1.625l-10.029-13.986c-0.382-0.533-0.605-1.307-0.646-2.063
		v4.438l9.093,13.236h0.748C60.107,219.074,61.907,219.074,63.007,219.074z"/>
	<path fill="#7FA840" d="M7.929,320.619v0.342c0.022-0.108,0.054-0.223,0.088-0.33L7.929,320.619z"/>
	<path fill="#7FA840" d="M50.316,191.793l-6.59-4.358c-0.917-0.607-1.979-1.949-2.357-2.98l-6.408-17.447
		c-0.379-1.033-1.547-2.153-2.594-2.492l-7.358-2.379c-0.772-0.249-1.204-0.896-1.17-1.605v4.992l10.433,3.607l7.788,21.201
		l8.729,5.775l0.498-1.334C51.67,193.74,51.234,192.4,50.316,191.793z"/>
	<path fill="#7FA840" d="M26.621,369.259c-0.965-0.494-2.533-0.448-3.485,0.104l-10.222,5.909c-0.952,0.555-2.387,0.389-3.188-0.367
		l-5.861-5.528c-0.426-0.397-0.681-0.986-0.748-1.594l0,0v4.223l8.064,8.271l13.686-7.914l3.509,1.799v-6
		C28.375,369.259,27.585,369.754,26.621,369.259z"/>
	<path fill="#7FA840" d="M119.673,350.373l-2.247,1.438c-0.926,0.596-2.395,1.077-3.262,1.077c-0.869,0-1.579-0.812-1.579-1.799
		c0-0.988-0.81-1.401-1.796-0.923l-11.846,5.8c-0.988,0.484-2.113,0.479-2.498-0.02c-0.388-0.494-1.603-0.898-2.703-0.898h-0.561
		c-1.102,0-2,0.9-2,2v2h4.561l1.404,1.797l15.438-7.555v3.598h3.156l5.063-3.598v-4.967l0,0
		C120.757,349.134,120.34,349.945,119.673,350.373z"/>
	<path fill="#7FA840" d="M89.185,362.361l-25.062,1.473c-1.098,0.063-2.739-0.389-3.649-1.008l-0.271-0.187
		c-0.907-0.618-2.53-0.938-3.605-0.698l-2.464,0.532c-1.074,0.231-2.646-0.149-3.487-0.856l-8.457-7.082
		c-0.843-0.705-2.162-0.641-2.93,0.146l-3.173,3.252c-0.769,0.787-2.293,1.354-3.39,1.255l-4.086-0.363
		c-1.096-0.101-1.992,0.551-1.992,1.438c0,0.854,0.367,1.937,0.826,2.455l7.244,0.646l5.967-6.115l11.522,9.65l6.372-1.39
		l3.575,2.438l29.055-1.707v-6C91.182,361.345,90.284,362.299,89.185,362.361z"/>
	<path fill="#7FA840" d="M242.67,272.367l-4.031,1.688c-1.015,0.429-2.622,0.317-3.572-0.229c0.95,0.555,1.729,1.731,1.729,2.625
		c0,0.893-0.633,2.021-1.403,2.52c-0.77,0.499-1.403,1.802-1.403,2.898v2l2.809-1.799v-3.238l7.72-3.236v-6
		C244.513,270.693,243.683,271.941,242.67,272.367z"/>
	<path fill="#7FA840" d="M248.395,248.254c1.036,0.369,1.711,1.556,1.499,2.635l-1.839,9.393c-0.212,1.08-1.013,2.605-1.781,3.396
		l-0.363,0.375c-0.769,0.787-1.396,2.332-1.396,3.433v2l3.157-3.234l2.607-13.313l7.185-38.652v-2.037l-6.799,34.728
		C250.451,248.043,249.431,248.623,248.395,248.254z"/>
	<path fill="#7FA840" d="M200.37,320.806c-0.547,0.955-1.497,0.988-2.115,0.08c0.618,0.908,0.676,2.438,0.13,3.396l-2,3.496
		c-0.546,0.952-1.894,1.732-2.993,1.732h-3.72c-1.101,0-2.744-0.51-3.652-1.127l-10.422-7.102c-0.91-0.619-2.553-1.127-3.652-1.127
		h-14.553c-1.1,0-2,0.897-2,2v2h18.553l13.729,9.354h7.72l3.986-6.973l2.207-4.394v-5.063v-0.002c-0.021,0.97-0.28,2.084-0.689,2.8
		L200.37,320.806z"/>
	<path fill="#7FA840" d="M232.12,292.097l-25.659,9.91c-1.026,0.396-2.229,1.545-2.675,2.551l-2.313,5.246
		c-0.443,1.009-0.641,2.716-0.438,3.797l0.158,0.845l3.398-7.717l29.393-11.354v-6C233.986,290.476,233.146,291.703,232.12,292.097z
		"/>
	<path fill="#7FA840" d="M63.813,133.261v2.104c0.717,0.063,1.43,0.149,1.971,0.246C64.7,135.418,63.813,134.361,63.813,133.261z"/>
	<path fill="#7FA840" d="M153.428,330.931l-14.67-2.84c-1.08-0.209-2.188-1.252-2.462-2.313c0.271,1.063,0.498,2.838,0.498,3.938v2
		l18.598,3.601v-6C155.392,330.408,154.509,331.138,153.428,330.931z"/>
	<path fill="#7FA840" d="M134.795,337.783h-3.21c-1.102,0-2.354-0.729-2.78-1.619c-0.43-0.889-1.682-1.615-2.781-1.615h-3.367
		c-1.102,0-2.696,0.568-3.547,1.271l-0.416,0.34c-0.852,0.694-1.246,2.117-0.879,3.148l0.432,1.219l2.41-1.979h7.367l1.563,3.234
		h7.21v-6C136.795,336.884,135.894,337.783,134.795,337.783z"/>
	<path fill="#7FA840" d="M24.284,159.34c0.523-0.968,0.817-2.648,0.654-3.736l-0.471-3.123c-0.02-0.121-0.025-0.25-0.027-0.381
		h-0.002l-0.595,8.36c0.021-0.23,0.088-0.468,0.213-0.699L24.284,159.34z"/>
	<path fill="#7FA840" d="M52.642,220.347v0.021c0.002-0.006,0.002-0.012,0.002-0.019L52.642,220.347z"/>
	<path fill="#7FA840" d="M245.896,131.83l-1.363,7.221c-0.137,0.732-0.015,1.705,0.276,2.536l1.458-7.722l-0.326-3.411
		C245.982,130.949,245.972,131.43,245.896,131.83z"/>
	<path fill="#7FA840" d="M49.166,200.89v0.017C49.166,200.9,49.166,200.896,49.166,200.89L49.166,200.89z"/>
	<path fill="#7FA840" d="M245.933,130.37L245.933,130.37c0,0.008,0.002,0.018,0.003,0.028L245.933,130.37z"/>
	<path fill="#7FA840" d="M15.604,292.472v0.293c0.021-0.104,0.049-0.195,0.086-0.295L15.604,292.472z"/>
	<path fill="#7FA840" d="M63.584,99.109c-0.646,0.89-2.075,1.619-3.175,1.619H46.164c-1.1,0-2.375-0.818-2.832-1.818l-6.406-13.989
		c-0.457-1-1.672-2.141-2.699-2.536l-4.688-1.802c-1.026-0.395-1.866-1.618-1.866-2.718v6l8.421,3.237l8.07,17.626h17.188
		l0.547-2.066C62.179,101.597,62.939,99.999,63.584,99.109z"/>
	<path fill="#7FA840" d="M61.998,124.352l-3.385-1.563c-0.664-0.306-1.14-0.961-1.306-1.678v4.84l6.505,3.238v-2
		C63.813,126.089,62.996,124.813,61.998,124.352z"/>
	<polygon fill="#7FA840" points="35.862,441.519 26.234,425.752 26.234,429.752 35.778,446.403 42.661,440.121 66.178,440.112 
		83.366,422.879 83.366,418.703 65.78,435.328 42.28,435.89 	"/>
</g>
<path id="Jeju" fill="#A2CE54" stroke="#7FA840" stroke-miterlimit="10" d="M26.471,426.69c-0.561-0.945-0.21-2.113,0.78-2.592
	l18.198-8.814c0.99-0.479,2.694-0.969,3.787-1.09l23.562-2.604c1.093-0.12,2.692,0.341,3.555,1.021l6.329,5.021
	c0.862,0.683,0.916,1.859,0.12,2.619l-15.177,14.479c-0.797,0.76-2.348,1.381-3.447,1.381l-19.518,0.01
	c-1.102,0-2.666,0.607-3.479,1.349l-3.928,3.586c-0.813,0.739-1.938,0.571-2.497-0.369L26.471,426.69z"/>
<path id="Gwangju" fill="#A2CE54" stroke="#7FA840" stroke-miterlimit="10" d="M64.76,282.115c-1.102,0-2.32,0.842-2.712,1.869
	l-2.787,7.321c-0.392,1.024,0.021,2.394,0.916,3.026l8.851,6.313c0.896,0.64,2.407,0.709,3.358,0.155l8.646-5.012
	c0.951-0.551,1.496-1.869,1.209-2.934l-2.379-8.818c-0.287-1.063-1.42-1.932-2.521-1.932L64.76,282.115L64.76,282.115z"/>
<path id="Jeonnam" fill="#8DC13F" stroke="#7FA840" stroke-miterlimit="10" d="M124.313,279.215c-0.275-1.065-1.398-1.938-2.5-1.938
	H92.657c-1.101,0-2.756-0.488-3.68-1.089l-16.642-10.771c-0.923-0.598-2.354-0.492-3.183,0.232l-11.73,10.305
	c-0.826,0.729-2.186,0.732-3.021,0.021l-8.716-7.481c-0.835-0.72-1.922-0.498-2.416,0.481l-8.731,17.383
	c-0.494,0.979-1.782,1.962-2.862,2.171l-14.669,2.836c-1.08,0.209-1.641,1.26-1.4,2.332l0.758,4.01
	c0.238,1.072,1.334,1.951,2.435,1.951h0.21c1.102,0,1.902,0.896,1.784,1.984l-0.271,2.498c-0.119,1.098-1.115,1.986-2.216,1.986
	h-1.264c-1.101,0-2.201,0.877-2.448,1.949l-1.648,7.174c-0.246,1.072-1.219,2.412-2.16,2.979l-1.77,1.063
	c-0.943,0.565-1.333,1.908-1.086,2.979l3.857,17.515c0.248,1.071,1.35,1.949,2.449,1.949h0.91c1.1,0,1.559,0.783,1.021,1.743
	L3.389,366.258c-0.538,0.959-0.322,2.359,0.477,3.115l5.861,5.528c0.801,0.756,2.234,0.922,3.188,0.369l10.222-5.911
	c0.952-0.554,2.521-0.599,3.485-0.104c0.965,0.493,1.755,0,1.755-1.103v-2.479c0-1.102-0.396-2.401-0.878-2.896
	c-0.482-0.494-0.877-1.627-0.877-2.521c0-0.893,0.896-1.539,1.992-1.438l4.086,0.361c1.096,0.102,2.621-0.467,3.389-1.254
	l3.173-3.252c0.769-0.787,2.087-0.854,2.931-0.146l8.457,7.082c0.842,0.707,2.412,1.094,3.486,0.854l2.464-0.535
	c1.075-0.229,2.698,0.082,3.606,0.701l0.27,0.188c0.91,0.614,2.553,1.067,3.65,1.008l25.061-1.478
	c1.1-0.063,1.997-1.018,1.997-2.112v-3.189c0-1.104,0.899-2,2-2h0.562c1.101,0,2.314,0.4,2.701,0.896
	c0.387,0.49,1.51,0.504,2.498,0.021l11.846-5.799c0.988-0.48,1.797-0.066,1.797,0.922s0.71,1.799,1.578,1.799
	c0.867,0,2.337-0.48,3.263-1.078l2.247-1.438c0.926-0.594,1.383-1.928,1.016-2.965l-2.873-8.104
	c-0.369-1.035,0.026-2.455,0.877-3.149l0.416-0.343c0.852-0.694,2.446-1.271,3.547-1.271h3.369c1.1,0,2.352,0.729,2.78,1.617
	c0.429,0.894,1.681,1.618,2.78,1.618h3.21c1.101,0,2-0.897,2-2v-6.071c0-1.102-0.227-2.873-0.498-3.938L124.313,279.215z
	 M72.386,300.806c-0.951,0.554-2.463,0.479-3.358-0.155l-8.851-6.313c-0.896-0.64-1.308-2.002-0.916-3.029l2.787-7.319
	c0.392-1.027,1.61-1.869,2.712-1.869h12.58c1.102,0,2.234,0.869,2.521,1.936l2.379,8.814c0.287,1.063-0.258,2.383-1.209,2.938
	L72.386,300.806z"/>
<path id="Busan" fill="#8DC13F" stroke="#7FA840" stroke-miterlimit="10" d="M199.279,295.091c-0.836,0.715-1.746,2.172-2.022,3.234
	l-3.465,13.299c-0.277,1.063,0,2.682,0.616,3.592l3.848,5.67c0.618,0.908,1.568,0.875,2.116-0.08l0.522-0.918
	c0.547-0.954,0.827-2.62,0.625-3.702l-0.481-2.58c-0.202-1.079-0.007-2.786,0.438-3.797l2.313-5.246
	c0.443-1.007,1.646-2.151,2.675-2.552l25.66-9.909c1.024-0.396,1.864-1.621,1.864-2.722v-7.512c0-1.102,0.633-2.402,1.403-2.898
	c0.771-0.493,1.403-1.627,1.403-2.52s-0.777-2.07-1.729-2.625l-4.789-2.793c-0.951-0.557-2.412-0.422-3.248,0.293L199.279,295.091z"
	/>
<path id="Ulsan" fill="#A2CE54" stroke="#7FA840" stroke-miterlimit="10" d="M232.539,242.59c-1.036-0.369-2.556-0.071-3.373,0.662
	l-5.443,4.885c-0.818,0.734-2.072,2.021-2.787,2.855l-0.315,0.371c-0.714,0.838-0.763,2.246-0.106,3.129l7.093,9.574
	c0.655,0.883,1.142,2.506,1.077,3.604l-0.021,0.359c-0.063,1.098,0.663,2.447,1.614,3.004l4.789,2.793
	c0.95,0.555,2.56,0.658,3.572,0.229l4.031-1.688c1.014-0.426,1.844-1.674,1.844-2.771v-2.112c0-1.101,0.629-2.646,1.396-3.433
	l0.363-0.375c0.771-0.787,1.569-2.313,1.781-3.396l1.839-9.392c0.212-1.079-0.463-2.267-1.499-2.635L232.539,242.59z"/>
<path id="Gyeongnam" fill="#A2CE54" stroke="#7FA840" stroke-miterlimit="10" d="M227.029,271.326
	c0.836-0.715,1.569-2.199,1.634-3.297l0.02-0.359c0.063-1.098-0.422-2.721-1.076-3.604l-7.094-9.574
	c-0.654-0.883-0.605-2.291,0.106-3.129l0.315-0.371c0.714-0.836,0.398-1.521-0.702-1.521h-54.421c-1.1,0-2-0.898-2-2v-6.482
	c0-1.102-0.838-2.328-1.862-2.729l-18.379-7.205c-1.023-0.398-2.184,0.111-2.573,1.143l-16.472,43.213
	c-0.393,1.028-0.488,2.739-0.214,3.808l11.984,46.563c0.271,1.063,1.382,2.104,2.462,2.313l14.67,2.84
	c1.08,0.209,1.964-0.521,1.964-1.62v-7.148c0-1.104,0.9-2,2-2h14.552c1.103,0,2.743,0.508,3.653,1.127l10.422,7.104
	c0.908,0.618,2.554,1.127,3.652,1.127h3.72c1.102,0,2.447-0.78,2.993-1.735l2-3.496c0.546-0.955,0.487-2.48-0.13-3.394l-3.847-5.67
	c-0.618-0.91-0.896-2.524-0.618-3.593l3.466-13.301c0.275-1.063,1.188-2.521,2.021-3.231L227.029,271.326z"/>
<path id="Daegu" fill="#A2CE54" stroke="#7FA840" stroke-miterlimit="10" d="M200.369,222.039c-0.422-1.016-1.622-2.127-2.668-2.471
	l-7.252-2.388c-1.045-0.344-2.633-0.104-3.529,0.533l-10.423,7.398c-0.896,0.637-1.632,2.058-1.632,3.155v19.2c0,1.102,0.899,2,2,2
	h10.574c1.103,0,2.541-0.719,3.2-1.6l11.972-15.947c0.66-0.881,0.854-2.432,0.435-3.447L200.369,222.039z"/>
<path id="Jeonbuk" fill="#A2CE54" stroke="#7FA840" stroke-miterlimit="10" d="M69.153,265.65c0.828-0.729,2.26-0.83,3.183-0.232
	l16.643,10.771c0.923,0.602,2.579,1.09,3.679,1.09h29.158c1.1,0,2.319-0.844,2.711-1.869l16.472-43.213
	c0.393-1.029,0.713-2.771,0.713-3.869v-7.25c0-1.1-0.899-2-2-2H63.009c-1.101,0-2.899,0-4,0h-4.771c-1.102,0-1.81,0.881-1.576,1.955
	l0.558,2.565c0.233,1.075,1.138,2.257,2.008,2.625c0.87,0.369,1.647,1.567,1.729,2.666l0.68,9.209
	c0.081,1.099-0.257,2.8-0.751,3.781l-11.817,23.519c-0.494,0.979-0.217,2.371,0.618,3.092l8.716,7.479
	c0.836,0.72,2.194,0.709,3.021-0.019L69.153,265.65z"/>
<path id="Gyeongbuk" fill="#8DC13F" stroke="#7FA840" stroke-miterlimit="10" d="M254.885,208.047
	c-0.879-0.662-1.601-0.303-1.601,0.797v1.756c0,1.101-0.813,2.382-1.813,2.847l-4.095,1.908c-0.997,0.465-2.207,0.034-2.688-0.953
	v-0.002c-0.481-0.99-0.246-1.961,0.526-2.158c0.771-0.197,1.402-1.26,1.402-2.359v-2.834c0-1.1-0.53-2.727-1.182-3.615l-1.85-2.526
	c-0.648-0.887-1.113-2.512-1.031-3.607l2.508-33.422c0.082-1.097,0.701-2.479,1.377-3.073s1.334-1.973,1.463-3.065l0.927-7.898
	c0.13-1.093-0.281-2.717-0.925-3.609l-2.578-3.587c-0.642-0.894-1-2.509-0.795-3.59l1.363-7.221
	c0.203-1.081-0.061-2.755-0.588-3.721l-3.482-6.381c-0.525-0.966-1.85-1.634-2.938-1.484l-50.463,6.918
	c-1.09,0.149-2.271,1.124-2.623,2.166l-6.61,19.506c-0.354,1.042-1.5,1.624-2.55,1.292l-9.87-3.113
	c-1.049-0.33-2.617-0.05-3.488,0.624l-19.469,15.082c-0.869,0.675-1.58,2.125-1.58,3.226v23.009c0,1.1,0.806,2.4,1.789,2.893
	l7.735,3.854c0.982,0.492,1.371,1.689,0.855,2.662l-9.977,18.943c-0.514,0.975-0.934,2.67-0.934,3.77v7.25
	c0,1.1,0.839,2.328,1.862,2.729l18.379,7.205c1.024,0.4,1.862,1.629,1.862,2.729v6.482c0,1.102,0.9,2,2,2h7.054c1.101,0,2-0.898,2-2
	v-19.2c0-1.101,0.733-2.521,1.631-3.155l10.424-7.398c0.896-0.637,2.484-0.877,3.529-0.532l7.252,2.387
	c1.045,0.344,2.246,1.455,2.668,2.471l2.677,6.438c0.422,1.017,0.228,2.565-0.435,3.446l-11.972,15.947
	c-0.66,0.881-0.301,1.601,0.8,1.601h28.793c1.103,0,2.67-0.601,3.489-1.334l5.442-4.886c0.819-0.732,2.338-1.03,3.372-0.662
	l15.856,5.664c1.036,0.369,2.058-0.211,2.269-1.291l6.801-34.727c0.212-1.08-0.335-2.504-1.217-3.164L254.885,208.047z"/>
<path id="Chungbuk" fill="#A2CE54" stroke="#7FA840" stroke-miterlimit="10" d="M144.023,191.846
	c-0.983-0.491-1.789-1.793-1.789-2.893v-23.009c0-1.101,0.711-2.551,1.58-3.226l19.469-15.082c0.871-0.674,2.439-0.955,3.488-0.624
	l9.87,3.113c1.05,0.331,2.196-0.251,2.55-1.292l6.61-19.506c0.353-1.042-0.25-2.018-1.34-2.169l-49.723-6.911
	c-1.09-0.151-2.674,0.299-3.521,1l-24.287,20.111c-0.847,0.701-1.05,2.029-0.45,2.952l5.978,9.194
	c0.6,0.922,0.397,2.252-0.448,2.955l-3.896,3.24c-0.847,0.703-1.356,2.16-1.137,3.237l2.748,13.367
	c0.221,1.078,1.141,2.475,2.043,3.104l4.615,3.22c0.9,0.631,1.382,2.008,1.066,3.062l-3.33,11.143
	c-0.313,1.055-0.09,2.676,0.5,3.605l10.753,16.946c0.589,0.929,1.972,1.688,3.071,1.688h11.264c1.101,0,2.419-0.795,2.933-1.771
	l9.977-18.942c0.516-0.974,0.127-2.17-0.855-2.662L144.023,191.846z"/>
<path id="Daejeon" fill="#A2CE54" stroke="#7FA840" stroke-miterlimit="10" d="M107.257,200.619
	c1.001,0.457,2.591,0.365,3.532-0.203l1.049-0.633c0.941-0.568,1.97-1.896,2.283-2.949l3.33-11.143
	c0.314-1.054-0.166-2.431-1.066-3.062l-4.615-3.22c-0.902-0.63-1.727-0.249-1.83,0.847l-0.146,1.527
	c-0.105,1.096-1.09,1.99-2.19,1.99h-0.999c-1.1,0-2.314,0.844-2.701,1.873l-3.598,9.61c-0.386,1.029,0.118,2.246,1.119,2.701
	L107.257,200.619z"/>
<path id="Sejong" fill="#8DC13F" stroke="#7FA840" stroke-miterlimit="10" d="M104.21,181.814c0.216,1.078,1.293,1.961,2.393,1.961
	h0.999c1.101,0,2.085-0.896,2.19-1.99l0.146-1.527c0.104-1.096,0.008-2.873-0.213-3.95l-2.748-13.367
	c-0.221-1.078-1.262-2.226-2.313-2.551l-3.152-0.976c-1.051-0.325-1.732,0.291-1.518,1.37L104.21,181.814z"/>
<path id="Chungnam" fill="#8DC13F" stroke="#7FA840" stroke-miterlimit="10" d="M114.621,200.439
	c-0.59-0.931-1.842-1.226-2.783-0.656l-1.049,0.633c-0.941,0.568-2.531,0.66-3.532,0.203l-5.833-2.658
	c-1.001-0.455-1.505-1.672-1.119-2.701l3.598-9.61c0.387-1.029,0.524-2.756,0.31-3.834l-4.216-21.031
	c-0.215-1.079,0.468-1.695,1.519-1.37l3.152,0.976c1.051,0.325,2.603,0.017,3.448-0.687l3.896-3.24
	c0.846-0.703,1.048-2.033,0.448-2.955l-5.978-9.194c-0.6-0.923-1.976-1.834-3.06-2.026l-37.642-6.676
	c-1.084-0.192-2.869-0.35-3.969-0.35h-1.265c-1.101,0-2.646-0.628-3.433-1.396l-4.151-4.043c-0.788-0.769-2.333-1.396-3.433-1.396
	H46.16c-1.1,0-2.604,0.667-3.344,1.482l-17.309,19.111c-0.738,0.814-1.209,2.373-1.045,3.46l0.47,3.123
	c0.164,1.087-0.13,2.769-0.653,3.736l-0.228,0.421c-0.522,0.969-0.095,2.036,0.952,2.374l7.359,2.379
	c1.047,0.339,2.213,1.459,2.593,2.492l6.409,17.447c0.379,1.031,1.439,2.373,2.356,2.979l6.591,4.359
	c0.916,0.607,1.354,1.947,0.969,2.979l-1.938,5.192c-0.385,1.031-0.175,2.605,0.466,3.498l10.028,13.986
	c0.642,0.895,2.063,1.625,3.165,1.625h61.438c1.101,0,1.519-0.76,0.93-1.688L114.621,200.439z"/>
<path id="Gangwon" fill="#A2CE54" stroke="#7FA840" stroke-miterlimit="10" d="M238.888,120.244c1.09-0.149,1.552-1.063,1.021-2.027
	L179.508,7.519c-0.527-0.967-1.798-2.079-2.824-2.475l-4.688-1.802c-1.025-0.396-1.865,0.182-1.865,1.282v10.028
	c0,1.101-0.396,2.647-0.878,3.439c-0.482,0.792-1.511,1.438-2.281,1.438c-0.771,0-1.641-0.566-1.93-1.259
	c-0.289-0.691-1.427-1.259-2.526-1.259h-5.473c-1.102,0-2.09,0.896-2.194,1.991l-0.666,6.81c-0.105,1.096-1.094,1.991-2.193,1.991
	h-54.57c-1.102,0-1.404,0.675-0.678,1.5l22.593,25.601c0.728,0.825,1.026,2.35,0.663,3.389l-3.942,11.288
	c-0.362,1.039-0.172,2.644,0.427,3.567l6.25,9.672c0.596,0.925,1.954,1.91,3.018,2.19l8.766,2.315
	c1.063,0.28,1.832,1.404,1.707,2.497l-3.23,28.263c-0.125,1.093,0.664,2.11,1.755,2.262l49.722,6.911
	c1.09,0.151,2.873,0.153,3.963,0.004L238.888,120.244z"/>
<path id="Gyeonggi" fill="#8DC13F" stroke="#7FA840" stroke-miterlimit="10" d="M125.746,84.911
	c-1.063-0.281-2.422-1.267-3.019-2.19l-6.25-9.672c-0.598-0.924-0.788-2.528-0.426-3.567l3.942-11.288
	c0.363-1.039,0.063-2.563-0.664-3.389l-22.59-25.601c-0.729-0.825-2.224-1.5-3.323-1.5h-9.357c-1.101,0-2.429,0.792-2.952,1.758
	L61.959,64.796c-0.524,0.967-1.804,1.461-2.841,1.1l-11.664-4.077c-1.038-0.363-1.695,0.22-1.461,1.294l4.233,19.335
	c0.235,1.074,1.284,1.676,2.33,1.337l6.722-2.178c1.047-0.34,2.578-0.021,3.4,0.708l2.794,2.471
	c0.824,0.729,2.224,0.792,3.109,0.141l7.827-5.751c0.888-0.65,1.996-1.999,2.466-2.994l0.926-1.968
	c0.47-0.995,1.729-1.61,2.804-1.368l7.002,1.585c1.072,0.243,1.95,1.342,1.95,2.441v3.324c0,1.1,0.558,2.708,1.236,3.571
	l1.887,2.398c0.681,0.864,0.804,2.36,0.272,3.324l-3.334,6.056c-0.53,0.963-1.854,1.616-2.94,1.451l-10.256-1.563
	c-1.088-0.166-2.326-1.131-2.752-2.145l-0.031-0.072c-0.426-1.014-1.587-2.23-2.58-2.704l-0.599-0.285
	c-0.993-0.474-2.335-0.132-2.98,0.759l-5.896,8.125c-0.646,0.89-1.405,2.488-1.687,3.552l-4.591,17.356
	c-0.28,1.063,0.306,2.311,1.306,2.771l3.385,1.563c0.998,0.461,1.814,1.737,1.814,2.838v6.071c0,1.101,0.887,2.157,1.971,2.35
	l37.641,6.676c1.084,0.192,2.663-0.225,3.51-0.926l24.287-20.111c0.848-0.701,1.643-2.169,1.768-3.262l3.23-28.262
	c0.125-1.094-0.646-2.218-1.707-2.498L125.746,84.911z"/>
<path id="Seoul" fill="#A2CE54" stroke="#7FA840" stroke-miterlimit="10" d="M75.671,93.287c0.426,1.014,1.664,1.979,2.752,2.145
	l10.256,1.563c1.087,0.166,2.41-0.487,2.941-1.451l3.332-6.056c0.531-0.963,0.408-2.459-0.271-3.324l-1.887-2.398
	c-0.68-0.863-1.236-2.472-1.236-3.571V76.87c0-1.1-0.878-2.199-1.951-2.441l-7.002-1.585c-1.072-0.242-2.334,0.373-2.803,1.368
	l-0.926,1.968c-0.469,0.995-1.578,2.343-2.465,2.994l-7.828,5.751c-0.887,0.651-0.938,1.78-0.113,2.51l0.688,0.606
	c0.824,0.729,2.312,1.712,3.305,2.186l0.6,0.285c0.992,0.474,2.153,1.689,2.579,2.704L75.671,93.287z"/>
<path id="Incheon" fill="#A2CE54" stroke="#7FA840" stroke-miterlimit="10" d="M62.68,82.314c-0.822-0.729-2.354-1.047-3.4-0.708
	l-6.722,2.178c-1.046,0.339-2.095-0.263-2.33-1.337l-4.233-19.335c-0.234-1.074-1.17-1.446-2.078-0.825l-14.592,9.974
	c-0.908,0.621-1.651,2.028-1.651,3.128v2.476c0,1.1,0.84,2.323,1.866,2.718l4.688,1.802c1.027,0.396,2.242,1.536,2.699,2.536
	l6.406,13.989c0.457,1,1.732,1.818,2.832,1.818h14.246c1.1,0,2.529-0.729,3.175-1.619l5.896-8.125
	c0.646-0.891,0.502-2.215-0.322-2.943L62.68,82.314z"/>
</svg>
